<?xml version="1.0" standalone="no"?><!DOCTYPE svg PUBLIC "-//W3C//DTD SVG 1.1//EN" "http://www.w3.org/Graphics/SVG/1.1/DTD/svg11.dtd" ><svg xmlns="http://www.w3.org/2000/svg"><metadata></metadata><defs><font id="LaskoDzurovski,Totemt.f.: SkolaSans Bold Italic: 2009" horiz-adv-x="1328"><font-face font-family="SkolaSans" font-weight="700" font-stretch="normal" units-per-em="1000" panose-1="2 0 8 3 4 0 0 9 0 4" ascent="750" descent="-250" x-height="4" bbox="-149 -216 1284 982" underline-thickness="50" underline-position="-75" unicode-range="U+0000-fb02" /><missing-glyph horiz-adv-x="545" d="M44 0 L492 0 L623 748 L176 748 L44 0 ZM510 543 Q508 604 469 632 Q430 660 376 660 Q339 660 303 649 Q266 637 226 610 L253 534 Q282 554 305 564 Q329 573 351 573 Q375 573 390 560 Q405 547 406 517 Q404 471 363 437 Q323 402 273 380 L267 264 L331 264 L356 345 Q416 374 462 422 Q508 470 510 543 L510 543 ZM222 140 Q222 117 236 103 Q249 88 270 88 Q298 89 318 109 Q338 128 339 157 Q339 179 326 194 Q313 208 291 209 Q264 208 243 188 Q223 169 222 140 L222 140 ZM207 709 L579 709 L461 39 L89 39 L207 709 Z" /><glyph glyph-name="" unicode="" d="" /><glyph glyph-name="" unicode=" " d="" /><glyph glyph-name="" unicode="!" d="M255 228 L366 748 L241 748 L169 228 L255 228 ZM108 62 Q108 33 125 14 Q142 -5 171 -6 Q207 -5 234 22 Q262 48 263 87 Q262 116 245 135 Q227 154 199 155 Q163 154 136 127 Q109 101 108 62 L108 62 Z" /><glyph glyph-name="" unicode="&quot;" d="M207 748 L107 748 L60 479 L159 479 L207 748 ZM385 748 L286 748 L238 479 L338 479 L385 748 Z" /><glyph glyph-name="" unicode="#" d="M151 456 L236 456 L185 291 L90 291 L77 213 L162 213 L97 0 L175 0 L240 213 L348 213 L283 0 L361 0 L426 213 L521 213 L534 291 L449 291 L500 456 L595 456 L608 533 L523 533 L589 748 L511 748 L445 533 L337 533 L403 748 L325 748 L259 533 L164 533 L151 456 ZM314 456 L422 456 L371 291 L263 291 L314 456 Z" /><glyph glyph-name="" unicode="$" d="M232 -106 L331 -106 L349 3 Q456 21 519 84 Q583 146 584 246 Q566 381 439 426 Q312 472 294 546 Q295 584 325 610 Q355 636 409 637 Q453 637 494 619 Q534 600 572 564 L642 669 Q605 701 565 721 Q526 741 479 747 L498 854 L399 854 L381 746 Q273 730 216 669 Q158 607 158 520 Q175 387 297 339 Q418 291 435 218 Q434 170 400 141 Q366 112 307 111 Q263 111 222 130 Q181 148 142 184 L69 79 Q108 44 152 24 Q197 3 250 -2 L232 -106 Z" /><glyph glyph-name="" unicode="%" d="M834 748 L749 754 L171 0 L256 -6 L834 748 ZM130 537 Q131 469 171 424 Q212 380 278 378 Q361 381 424 442 Q487 504 490 594 Q489 662 449 707 Q409 752 343 754 Q258 752 196 690 Q133 628 130 537 L130 537 ZM519 154 Q520 85 560 40 Q600 -4 666 -6 Q752 -3 814 59 Q877 121 880 211 Q879 279 839 324 Q798 369 732 371 Q648 369 585 307 Q522 245 519 154 L519 154 ZM226 550 Q228 594 258 628 Q289 661 330 663 Q363 662 379 638 Q394 614 394 581 Q392 537 362 504 Q332 471 291 469 Q257 470 242 494 Q226 518 226 550 L226 550 ZM616 167 Q618 211 648 245 Q678 278 719 280 Q752 279 768 255 Q784 231 784 198 Q782 154 751 120 Q720 87 679 85 Q647 86 631 110 Q616 134 616 167 L616 167 Z" /><glyph glyph-name="" unicode="&amp;" d="M610 417 Q608 345 573 289 Q538 233 484 193 Q449 230 418 272 Q387 313 364 357 Q449 391 515 447 Q581 503 585 600 Q584 663 540 708 Q496 752 414 754 Q308 752 249 691 Q190 630 189 539 Q189 507 194 476 Q199 445 207 414 Q133 379 81 327 Q29 275 27 190 Q29 97 91 46 Q152 -5 247 -6 Q294 -6 347 7 Q399 20 452 45 Q493 9 533 -22 Q574 -52 612 -75 L686 34 Q659 50 630 70 Q601 91 572 115 Q642 169 687 246 Q732 322 733 417 L610 417 ZM247 110 Q204 110 178 131 Q151 152 150 190 Q151 230 179 258 Q207 286 249 308 Q271 262 300 219 Q329 175 363 137 Q333 124 303 117 Q273 110 247 110 L247 110 ZM313 532 Q313 576 336 606 Q359 637 406 638 Q432 638 449 625 Q465 611 466 588 Q464 545 424 515 Q383 486 323 461 Q318 478 316 496 Q313 514 313 532 L313 532 Z" /><glyph glyph-name="" unicode="&#39;" d="M207 748 L107 748 L60 479 L160 479 L207 748 Z" /><glyph glyph-name="" unicode="(" d="M309 806 Q236 713 165 560 Q94 406 89 178 Q90 69 106 -13 Q123 -94 143 -145 L224 -106 Q209 -63 198 8 Q187 79 186 172 Q191 385 252 532 Q313 679 377 768 L309 806 Z" /><glyph glyph-name="" unicode=")" d="M143 768 Q157 725 169 652 Q180 579 181 486 Q177 268 116 124 Q54 -19 -10 -106 L57 -145 Q131 -54 202 96 Q273 246 278 478 Q277 588 261 672 Q244 755 224 806 L143 768 Z" /><glyph glyph-name="" unicode="*" d="M375 552 L517 583 L504 665 L367 609 L375 552 ZM291 609 L173 663 L131 581 L260 552 L291 609 ZM262 541 L154 438 L215 386 L307 505 L262 541 ZM317 505 L366 387 L444 438 L370 544 L317 505 ZM360 615 L397 754 L312 754 L300 615 L360 615 Z" /><glyph glyph-name="" unicode="+" d="M103 287 L307 287 L270 70 L367 70 L405 287 L609 287 L628 389 L423 389 L461 606 L364 606 L326 389 L122 389 L103 287 Z" /><glyph glyph-name="" unicode="," d="M70 66 Q70 38 85 17 Q100 -4 126 -5 L42 -139 L100 -160 Q146 -107 186 -34 Q227 39 230 91 Q230 122 212 143 Q194 163 164 164 Q126 163 99 134 Q71 106 70 66 L70 66 Z" /><glyph glyph-name="" unicode="-" d="M334 241 L353 343 L100 343 L81 241 L334 241 Z" /><glyph glyph-name="" unicode="." d="M56 65 Q56 34 74 15 Q92 -5 122 -6 Q160 -5 188 23 Q216 50 217 91 Q217 122 199 143 Q182 163 152 164 Q114 163 86 134 Q57 106 56 65 L56 65 Z" /><glyph glyph-name="" unicode="/" d="M477 806 L-27 -204 L74 -204 L577 806 L477 806 Z" /><glyph glyph-name="" unicode="0" d="M393 754 Q232 749 146 610 Q61 470 60 254 Q62 128 123 61 Q185 -5 288 -6 Q449 -1 535 138 Q620 278 621 494 Q620 620 558 687 Q497 753 393 754 L393 754 ZM293 110 Q246 110 221 148 Q197 186 197 264 Q202 472 263 557 Q325 641 389 638 Q436 638 460 600 Q484 562 484 484 Q479 276 418 191 Q357 107 293 110 L293 110 Z" /><glyph glyph-name="" unicode="1" d="M39 112 L20 0 L489 0 L508 112 L357 112 L467 748 L367 748 L105 613 L130 529 L294 592 L212 112 L39 112 Z" /><glyph glyph-name="" unicode="2" d="M222 116 L221 120 Q295 195 432 287 Q569 378 584 552 Q583 640 525 696 Q466 752 357 754 Q297 757 233 731 Q169 705 105 620 L194 545 Q221 586 257 611 Q294 637 334 638 Q386 638 411 612 Q436 586 436 536 Q424 419 289 331 Q154 243 34 72 L61 0 L519 0 L539 116 L222 116 Z" /><glyph glyph-name="" unicode="3" d="M247 367 L301 367 Q366 365 394 329 Q423 294 422 253 Q421 188 383 151 Q345 113 276 112 Q230 112 188 130 Q147 148 107 178 L34 71 Q92 31 148 12 Q203 -6 262 -6 Q402 -5 482 67 Q561 139 563 264 Q563 326 519 380 Q475 434 388 451 L388 455 L603 660 L591 748 L170 748 L151 636 L425 636 L427 632 L223 437 L247 367 Z" /><glyph glyph-name="" unicode="4" d="M284 754 Q264 659 205 514 Q146 369 20 205 L39 147 L357 147 L330 0 L469 0 L495 147 L572 147 L590 251 L514 251 L562 525 L431 519 L376 251 L196 251 L195 255 Q285 392 340 523 Q396 654 416 739 L284 754 Z" /><glyph glyph-name="" unicode="5" d="M134 369 L271 369 Q338 369 370 337 Q403 305 403 243 Q402 186 363 149 Q324 111 255 110 Q211 110 170 128 Q130 146 93 176 L20 71 Q76 31 130 12 Q184 -6 241 -6 Q382 -3 463 74 Q543 151 545 272 Q543 377 481 431 Q419 485 317 485 L256 485 L282 632 L536 632 L556 748 L178 748 L114 390 L134 369 Z" /><glyph glyph-name="" unicode="6" d="M392 638 Q438 638 471 625 Q504 611 539 582 L600 679 Q547 720 497 738 Q448 755 396 754 Q233 749 147 610 Q61 470 60 254 Q62 128 124 61 Q186 -5 291 -6 Q424 -3 498 71 Q572 145 573 261 Q570 362 509 415 Q448 469 363 469 Q330 469 292 458 Q254 447 219 424 L213 424 Q239 535 288 587 Q337 639 392 638 L392 638 ZM323 360 Q379 359 409 327 Q440 294 440 245 Q439 191 404 152 Q368 112 311 110 Q255 110 225 143 Q195 175 195 238 Q195 258 196 274 Q197 289 201 315 Q227 338 259 349 Q292 360 323 360 L323 360 Z" /><glyph glyph-name="" unicode="7" d="M559 748 L103 748 L81 636 L420 636 Q358 497 260 329 Q162 161 46 0 L195 -6 Q306 153 417 353 Q527 553 569 672 L559 748 Z" /><glyph glyph-name="" unicode="8" d="M387 755 Q291 755 216 707 Q141 659 137 569 Q138 513 163 475 Q188 436 228 408 Q159 378 108 329 Q57 281 54 208 Q60 80 138 35 Q215 -9 291 -6 Q366 -9 471 42 Q575 92 585 236 Q583 296 545 338 Q507 379 456 407 Q515 438 554 479 Q593 521 595 583 Q589 690 518 724 Q448 758 387 755 L387 755 ZM449 234 Q444 159 391 134 Q338 108 298 110 Q263 108 226 128 Q188 148 185 208 Q187 258 232 290 Q277 323 336 346 Q378 329 412 304 Q447 279 449 234 L449 234 ZM387 652 Q410 653 437 639 Q464 625 466 583 Q465 536 431 510 Q398 483 349 464 Q314 483 292 506 Q270 530 269 569 Q271 609 306 630 Q341 652 387 652 L387 652 Z" /><glyph glyph-name="" unicode="9" d="M268 110 Q222 110 188 123 Q155 137 120 166 L60 69 Q113 28 163 11 Q212 -7 263 -6 Q426 -1 513 138 Q599 278 600 494 Q599 620 536 687 Q474 753 369 754 Q235 751 162 677 Q88 603 87 487 Q90 386 151 333 Q212 279 296 279 Q329 279 367 290 Q406 301 440 324 L446 324 Q421 213 372 161 Q323 109 268 110 L268 110 ZM336 388 Q280 389 250 422 Q219 454 219 503 Q220 557 256 596 Q291 636 349 638 Q405 638 434 606 Q464 573 464 510 Q464 490 463 474 Q462 459 458 433 Q433 410 400 399 Q368 388 336 388 L336 388 Z" /><glyph glyph-name="" unicode=":" d="M66 66 Q66 35 85 15 Q104 -5 136 -6 Q176 -5 204 23 Q233 50 234 90 Q234 122 215 142 Q197 163 165 164 Q125 163 96 135 Q67 106 66 66 L66 66 ZM129 428 Q130 397 149 377 Q167 357 198 356 Q238 357 268 385 Q297 412 298 452 Q297 483 279 504 Q260 524 229 525 Q189 524 160 496 Q130 468 129 428 L129 428 Z" /><glyph glyph-name="" unicode=";" d="M134 428 Q134 397 153 377 Q172 357 203 356 Q243 357 272 385 Q301 412 302 452 Q302 483 283 504 Q264 524 233 525 Q193 524 164 496 Q135 468 134 428 L134 428 ZM72 66 Q72 38 88 17 Q103 -4 130 -5 L45 -139 L105 -160 Q153 -107 195 -35 Q236 38 239 90 Q239 122 220 142 Q201 163 170 164 Q130 163 102 135 Q73 106 72 66 L72 66 Z" /><glyph glyph-name="" unicode="&lt;" d="M534 186 L215 334 L216 338 L586 486 L606 596 L76 387 L58 285 L515 76 L534 186 Z" /><glyph glyph-name="" unicode="=" d="M111 382 L636 382 L654 485 L128 485 L111 382 ZM77 191 L602 191 L620 293 L95 293 L77 191 Z" /><glyph glyph-name="" unicode="&gt;" d="M79 76 L609 285 L627 387 L170 596 L151 486 L471 338 L470 334 L99 186 L79 76 Z" /><glyph glyph-name="" unicode="?" d="M190 228 L276 228 L309 332 Q389 369 455 434 Q520 500 524 599 Q521 680 468 717 Q414 754 339 754 Q287 755 236 733 Q185 711 132 654 L206 582 Q233 610 259 624 Q284 639 312 639 Q339 640 361 623 Q383 605 384 564 Q380 500 323 452 Q265 405 199 376 L190 228 ZM126 63 Q126 33 144 14 Q162 -5 192 -6 Q230 -5 258 21 Q286 47 287 86 Q287 116 269 135 Q250 154 220 155 Q182 154 155 128 Q127 102 126 63 L126 63 Z" /><glyph glyph-name="" unicode="@" d="M590 504 Q472 502 395 425 Q319 347 316 213 Q317 119 363 67 Q410 15 488 14 Q543 16 585 47 Q627 79 657 122 L663 122 Q672 78 702 47 Q733 15 779 14 Q870 13 942 96 Q1014 179 1018 354 Q1015 540 910 621 Q806 702 643 700 Q427 701 275 576 Q123 451 116 185 Q118 3 217 -88 Q315 -179 489 -179 Q543 -179 598 -168 Q654 -158 698 -143 L688 -49 Q650 -64 601 -73 Q551 -83 504 -83 Q359 -85 286 -22 Q214 41 214 197 Q220 404 341 504 Q462 604 630 604 Q770 606 845 543 Q919 480 920 334 Q918 220 883 165 Q847 109 804 109 Q781 109 763 128 Q744 147 743 186 Q743 192 744 201 Q744 210 745 217 L787 453 L705 453 Q683 478 655 491 Q627 504 590 504 L590 504 ZM505 116 Q474 116 455 145 Q436 174 435 226 Q438 318 482 360 Q526 402 571 401 Q595 401 617 390 Q638 379 652 356 L638 268 Q625 198 585 158 Q545 117 505 116 L505 116 Z" /><glyph glyph-name="" unicode="a" d="M486 632 L586 632 L529 307 L302 307 L486 632 ZM247 748 L226 665 L359 644 L-21 0 L127 -6 L239 194 L509 194 L475 0 L613 0 L744 748 L247 748 Z" /><glyph glyph-name="" unicode="b" d="M268 445 L301 636 L452 636 Q495 636 518 613 Q541 591 541 552 Q539 503 504 475 Q470 446 431 445 L268 445 ZM413 331 Q457 330 485 302 Q512 274 513 233 Q515 195 482 155 Q448 115 360 112 L210 112 L249 331 L413 331 ZM678 586 Q678 656 628 701 Q579 746 484 748 L183 748 L52 0 L360 0 Q498 2 574 69 Q649 135 650 236 Q649 291 618 332 Q587 373 539 388 L540 392 Q612 424 645 477 Q678 530 678 586 L678 586 Z" /><glyph glyph-name="" unicode="c" d="M367 110 Q273 111 232 166 Q191 220 192 317 Q193 442 261 538 Q328 633 453 638 Q488 638 517 630 Q545 622 570 609 L563 488 L656 488 L707 679 Q657 714 600 734 Q543 754 472 754 Q267 748 160 617 Q53 487 52 303 Q51 170 124 84 Q196 -3 352 -6 Q423 -7 498 26 Q572 59 630 143 L539 214 Q509 170 466 141 Q423 111 367 110 L367 110 Z" /><glyph glyph-name="" unicode="d" d="M298 0 Q497 6 606 134 Q714 263 715 447 Q715 578 645 662 Q575 745 432 748 L183 748 L52 0 L298 0 ZM211 116 L300 632 L407 632 Q496 631 535 577 Q575 523 574 432 Q573 295 503 207 Q433 119 305 116 L211 116 Z" /><glyph glyph-name="" unicode="e" d="M184 748 L52 0 L560 0 L580 116 L210 116 L248 332 L571 332 L590 445 L267 445 L300 632 L664 632 L685 748 L184 748 Z" /><glyph glyph-name="" unicode="f" d="M643 632 L664 748 L183 748 L52 0 L190 0 L244 310 L547 310 L567 422 L264 422 L301 632 L643 632 Z" /><glyph glyph-name="" unicode="g" d="M718 413 L449 413 L428 299 L573 299 L549 156 Q510 134 472 122 Q433 110 392 110 Q301 111 260 166 Q219 220 220 317 Q221 442 290 538 Q359 633 487 638 Q540 638 583 623 Q626 607 665 576 L741 679 Q691 714 634 734 Q577 754 506 754 Q299 748 190 617 Q81 487 80 303 Q79 170 152 84 Q224 -3 380 -6 Q440 -6 496 10 Q553 25 612 56 L654 56 L718 413 Z" /><glyph glyph-name="" unicode="h" d="M190 0 L248 331 L573 331 L515 0 L653 0 L784 748 L646 748 L592 445 L268 445 L321 748 L183 748 L52 0 L190 0 Z" /><glyph glyph-name="" unicode="i" d="M190 0 L321 748 L183 748 L52 0 L190 0 Z" /><glyph glyph-name="" unicode="j" d="M20 179 Q39 72 99 32 Q159 -8 235 -6 Q344 -5 408 68 Q471 140 493 269 L577 748 L439 748 L352 250 Q340 184 311 147 Q282 111 232 110 Q191 110 168 135 Q145 160 138 214 L20 179 Z" /><glyph glyph-name="" unicode="k" d="M724 748 L567 754 L333 439 L266 439 L321 748 L183 748 L52 0 L190 0 L248 331 L327 331 Q393 241 437 120 Q482 -1 594 -13 Q618 -13 635 -9 Q653 -6 663 -1 L645 105 Q570 112 540 207 Q510 301 441 394 L724 748 Z" /><glyph glyph-name="" unicode="l" d="M210 116 L321 748 L183 748 L52 0 L513 0 L534 116 L210 116 Z" /><glyph glyph-name="" unicode="m" d="M455 168 L687 456 L691 455 L611 -1 L749 -1 L880 748 L787 748 L457 330 L277 748 L183 748 L52 -1 L190 -1 L270 456 L274 458 L402 168 L455 168 Z" /><glyph glyph-name="" unicode="n" d="M576 0 L653 0 L784 748 L646 748 L561 260 L556 259 L256 748 L183 748 L52 0 L190 0 L274 481 L278 483 L576 0 Z" /><glyph glyph-name="" unicode="o" d="M472 754 Q274 749 164 620 Q54 490 52 300 Q52 165 124 81 Q196 -3 339 -6 Q537 -1 647 128 Q758 258 760 448 Q760 583 688 667 Q616 751 472 754 L472 754 ZM457 638 Q543 636 581 577 Q620 517 619 426 Q618 305 547 210 Q477 115 355 110 Q269 112 231 171 Q192 231 193 322 Q195 443 265 538 Q336 633 457 638 L457 638 Z" /><glyph glyph-name="" unicode="p" d="M183 748 L52 0 L190 0 L232 238 L373 238 Q497 241 588 325 Q679 408 683 531 Q681 626 621 686 Q561 746 463 748 L183 748 ZM432 636 Q484 635 513 601 Q542 567 543 515 Q541 444 493 397 Q444 351 379 349 L251 349 L302 636 L432 636 Z" /><glyph glyph-name="" unicode="q" d="M765 448 Q765 583 694 667 Q622 751 478 754 Q280 749 170 620 Q60 490 58 300 Q58 186 114 106 Q169 25 284 -2 Q364 -48 456 -124 Q548 -199 670 -207 Q729 -206 779 -179 Q828 -153 861 -118 L782 -43 Q757 -66 726 -79 Q695 -92 664 -92 Q607 -89 557 -55 Q506 -21 460 14 Q589 54 676 167 Q762 279 765 448 L765 448 ZM358 94 Q270 120 233 176 Q197 231 198 321 Q200 443 270 538 Q341 633 462 638 Q550 635 587 575 Q625 514 624 425 Q622 291 551 206 Q479 122 358 94 L358 94 Z" /><glyph glyph-name="" unicode="r" d="M688 557 Q686 648 632 698 Q578 747 492 748 L183 748 L52 0 L191 0 L242 291 L351 291 Q399 195 445 95 Q491 -5 593 -13 Q617 -13 634 -9 Q652 -6 662 -1 L644 105 Q584 108 554 169 Q524 230 489 307 Q570 333 628 396 Q685 460 688 557 L688 557 ZM466 636 Q503 635 525 608 Q547 581 548 536 Q547 485 508 446 Q468 406 401 404 L261 404 L302 636 L466 636 Z" /><glyph glyph-name="" unicode="s" d="M30 124 Q91 50 152 21 Q214 -7 283 -6 Q408 -5 480 55 Q553 114 554 224 Q535 367 400 416 Q264 465 245 545 Q247 593 283 616 Q320 638 373 638 Q398 638 424 632 Q449 627 474 616 L466 524 L559 524 L605 685 Q562 716 506 735 Q451 754 382 754 Q254 753 183 693 Q111 633 110 532 Q129 392 261 345 Q393 298 412 208 Q411 161 376 136 Q342 110 291 110 Q237 111 196 139 Q155 167 120 211 L30 124 Z" /><glyph glyph-name="" unicode="t" d="M660 748 L101 748 L80 632 L291 632 L180 0 L318 0 L429 632 L640 632 L660 748 Z" /><glyph glyph-name="" unicode="u" d="M613 748 L539 322 Q523 230 471 171 Q420 112 341 110 Q275 111 243 148 Q212 184 212 246 Q212 280 220 322 L294 748 L156 748 L81 322 Q77 300 75 280 Q73 259 73 240 Q73 128 135 62 Q197 -4 322 -6 Q470 -3 561 86 Q652 176 678 322 L752 748 L613 748 Z" /><glyph glyph-name="" unicode="v" d="M329 158 L227 754 L84 745 L236 0 L364 0 Q459 133 552 317 Q646 500 730 745 L592 754 Q538 581 470 426 Q401 271 333 158 L329 158 Z" /><glyph glyph-name="" unicode="w" d="M717 158 L615 754 L471 745 L515 534 Q471 424 424 329 Q378 233 333 158 L329 158 L227 754 L84 745 L236 0 L364 0 Q413 70 461 150 Q509 229 554 320 L558 320 L624 0 L751 0 Q846 133 940 317 Q1034 500 1118 745 L980 754 Q926 581 857 426 Q788 271 721 158 L717 158 Z" /><glyph glyph-name="" unicode="x" d="M572 754 Q533 682 487 615 Q440 548 392 492 L290 754 L135 748 L296 394 Q195 293 112 194 Q30 95 -28 0 L131 -6 Q168 54 223 127 Q278 200 354 283 L471 -6 L628 0 L453 378 Q540 472 605 562 Q670 651 724 748 L572 754 Z" /><glyph glyph-name="" unicode="y" d="M89 748 L252 283 L203 0 L341 0 L390 285 Q482 393 552 496 Q621 599 710 748 L556 754 Q500 645 446 558 Q391 472 345 405 L341 405 L245 754 L89 748 Z" /><glyph glyph-name="" unicode="z" d="M-5 61 L46 -13 Q73 6 95 13 Q118 19 144 19 Q190 17 252 -1 Q314 -18 383 -21 Q429 -21 479 -10 Q529 2 566 24 L531 131 Q493 112 461 105 Q429 99 408 99 Q363 101 313 113 Q263 124 210 126 L208 130 L653 683 L640 748 L141 748 L121 636 L459 636 L-5 61 Z" /><glyph glyph-name="" unicode="[" d="M271 -50 L148 -50 L280 711 L402 711 L418 806 L200 806 L33 -145 L255 -145 L271 -50 Z" /><glyph glyph-name="" unicode="\" d="M149 806 L299 -204 L400 -204 L249 806 L149 806 Z" /><glyph glyph-name="" unicode="]" d="M-31 -145 L191 -145 L357 806 L139 806 L122 711 L243 711 L110 -50 L-14 -50 L-31 -145 Z" /><glyph glyph-name="" unicode="^" d="M60 296 L168 296 L387 643 L483 296 L592 296 L460 748 L351 748 L60 296 Z" /><glyph glyph-name="" unicode="_" d="M459 -126 L469 -66 L-3 -66 L-13 -126 L459 -126 Z" /><glyph glyph-name="" unicode="`" d="M301 743 L158 743 L250 585 L358 585 L301 743 Z" /><glyph glyph-name="" unicode="a" d="M514 -6 Q529 -6 546 -2 Q563 1 577 7 L594 105 Q560 105 545 114 Q530 124 530 150 Q530 160 531 172 Q533 184 535 196 L585 485 L468 485 Q441 505 406 515 Q371 525 334 525 Q210 523 132 437 Q54 351 52 204 Q53 105 101 50 Q149 -5 228 -6 Q274 -5 320 15 Q366 35 401 69 L405 69 Q416 31 443 12 Q471 -6 514 -6 L514 -6 ZM184 227 Q186 312 227 360 Q268 408 325 409 Q362 409 388 401 Q413 392 436 373 L403 185 Q377 153 345 132 Q312 111 274 110 Q234 110 209 140 Q185 169 184 227 L184 227 Z" /><glyph glyph-name="" unicode="b" d="M320 795 L190 791 L58 37 L157 37 Q186 17 223 6 Q260 -6 308 -6 Q432 -4 513 81 Q595 165 598 314 Q597 414 546 469 Q494 524 402 525 Q365 525 332 512 Q300 499 269 476 L265 476 L320 795 ZM466 291 Q464 206 421 159 Q378 111 317 110 Q282 110 257 121 Q231 131 208 151 L244 358 Q272 382 302 395 Q332 409 370 409 Q413 409 439 378 Q465 347 466 291 L466 291 Z" /><glyph glyph-name="" unicode="c" d="M354 525 Q220 523 137 444 Q54 365 52 226 Q53 115 114 55 Q174 -5 281 -6 Q329 -7 380 10 Q430 26 483 66 L430 156 Q391 128 356 118 Q321 109 294 110 Q245 110 215 141 Q185 172 184 233 Q186 314 230 361 Q274 408 339 409 Q358 409 372 407 Q386 404 400 399 L395 309 L491 309 L524 474 Q490 498 451 512 Q411 525 354 525 L354 525 Z" /><glyph glyph-name="" unicode="d" d="M640 795 L510 791 L456 492 Q431 509 400 517 Q368 525 334 525 Q210 523 132 437 Q54 351 52 204 Q53 105 101 50 Q149 -5 228 -6 Q274 -5 320 15 Q366 35 401 69 L405 69 Q416 31 443 12 Q471 -6 514 -6 Q529 -6 546 -2 Q563 1 577 7 L594 105 Q560 105 545 114 Q530 124 530 150 Q530 160 531 172 Q533 184 535 196 L640 795 ZM184 227 Q186 312 227 360 Q268 408 325 409 Q363 409 388 400 Q414 391 436 372 L403 184 Q377 152 345 131 Q312 111 274 110 Q234 110 209 140 Q185 169 184 227 L184 227 Z" /><glyph glyph-name="" unicode="e" d="M542 381 Q542 443 495 485 Q447 526 349 528 Q221 525 137 440 Q54 355 51 220 Q52 112 111 53 Q170 -5 274 -6 Q350 -6 399 7 Q447 20 491 45 L453 149 Q417 132 378 121 Q340 110 288 110 Q247 108 218 128 Q188 147 187 205 Q304 203 419 237 Q533 271 542 381 L542 381 ZM337 421 Q370 420 389 405 Q407 390 407 367 Q405 323 347 304 Q289 285 193 284 Q204 350 245 386 Q286 421 337 421 L337 421 Z" /><glyph glyph-name="" unicode="f" d="M285 422 L417 422 L435 519 L303 519 L315 589 Q325 644 353 663 Q381 682 410 681 Q433 681 460 675 Q486 670 515 659 L561 755 Q517 776 477 786 Q437 795 394 795 Q331 797 270 752 Q209 708 186 598 L173 519 L75 519 L60 447 L155 428 L81 -3 Q68 -66 32 -85 Q-4 -105 -48 -103 L-43 -203 Q-31 -209 -18 -211 Q-5 -214 6 -214 Q66 -216 126 -171 Q187 -125 210 -11 L285 422 Z" /><glyph glyph-name="" unicode="g" d="M184 227 Q186 312 227 360 Q268 408 325 409 Q361 409 385 400 Q410 390 430 372 L397 184 Q373 152 341 131 Q309 111 273 110 Q232 110 208 140 Q185 170 184 227 L184 227 ZM369 20 Q354 -53 310 -76 Q265 -100 223 -98 Q189 -98 157 -89 Q124 -81 93 -64 L57 -168 Q92 -189 132 -201 Q172 -214 220 -214 Q324 -215 400 -154 Q477 -94 502 40 L579 485 L462 485 Q437 505 403 515 Q370 525 334 525 Q210 523 132 437 Q54 351 52 204 Q53 105 101 50 Q149 -5 228 -6 Q265 -6 302 9 Q338 24 369 49 L373 49 L369 20 Z" /><glyph glyph-name="" unicode="h" d="M432 525 Q390 525 349 507 Q307 490 266 453 L262 453 L321 795 L192 791 L52 0 L182 0 L240 334 Q270 372 305 391 Q339 411 372 411 Q404 412 427 394 Q449 376 450 330 Q450 322 449 313 Q448 303 446 293 L395 0 L524 0 L575 286 Q583 331 583 366 Q580 459 535 493 Q489 527 432 525 L432 525 Z" /><glyph glyph-name="" unicode="i" d="M148 670 Q149 639 168 620 Q188 600 218 599 Q260 600 288 627 Q315 655 316 694 Q315 725 296 745 Q277 765 247 766 Q205 765 177 737 Q149 709 148 670 L148 670 ZM273 519 L143 519 L86 193 Q82 166 80 147 Q78 128 78 117 Q80 46 113 20 Q147 -7 195 -6 Q210 -6 227 -2 Q244 1 259 7 L276 105 Q242 105 227 114 Q212 124 212 150 Q212 160 213 172 Q215 184 217 196 L273 519 Z" /><glyph glyph-name="" unicode="j" d="M85 -3 Q72 -66 34 -85 Q-5 -105 -51 -103 L-46 -203 Q-33 -209 -18 -211 Q-3 -214 10 -214 Q69 -216 130 -171 Q191 -125 214 -11 L307 519 L175 519 L85 -3 ZM182 670 Q183 639 202 620 Q221 600 251 599 Q293 600 321 627 Q349 655 350 694 Q349 725 330 745 Q310 765 280 766 Q238 765 210 737 Q183 709 182 670 L182 670 Z" /><glyph glyph-name="" unicode="k" d="M321 795 L192 791 L52 0 L182 0 L236 314 Q274 359 314 384 Q353 409 391 409 Q419 409 433 396 Q447 384 447 365 Q443 318 386 291 Q329 265 268 264 L267 261 Q310 152 361 74 Q413 -4 482 -8 Q495 -8 512 -6 Q530 -3 550 6 L567 99 Q512 97 481 120 Q450 142 413 218 Q501 240 539 292 Q577 345 576 398 Q576 451 542 487 Q507 523 436 525 Q395 525 349 502 Q303 479 262 435 L258 435 L321 795 Z" /><glyph glyph-name="" unicode="l" d="M314 795 L184 791 L79 193 Q72 156 72 124 Q72 56 102 25 Q132 -6 188 -6 Q203 -6 220 -2 Q237 1 252 7 L269 105 Q235 105 220 114 Q205 124 205 150 Q205 160 206 172 Q208 184 210 196 L314 795 Z" /><glyph glyph-name="" unicode="m" d="M278 519 L155 519 L66 0 L196 0 L255 335 Q281 372 311 391 Q342 411 367 411 Q393 412 414 397 Q436 382 437 343 Q437 337 437 331 Q436 325 435 318 L380 0 L511 0 L569 334 Q596 372 627 391 Q657 411 682 411 Q711 412 731 397 Q752 382 753 342 Q753 326 749 302 Q746 279 741 255 L696 0 L826 0 L876 286 Q884 331 884 366 Q882 459 834 493 Q787 527 723 525 Q688 525 641 506 Q595 487 552 446 Q533 491 500 508 Q468 526 423 525 Q389 525 349 507 Q308 489 271 453 L267 453 L278 519 Z" /><glyph glyph-name="" unicode="n" d="M277 519 L155 519 L66 0 L196 0 L255 338 Q283 371 316 391 Q349 411 382 411 Q414 412 433 397 Q453 382 453 342 Q453 337 452 330 Q451 323 450 315 L396 0 L526 0 L576 286 Q583 331 583 366 Q581 459 534 493 Q486 527 421 525 Q387 525 349 506 Q311 488 270 453 L266 453 L277 519 Z" /><glyph glyph-name="" unicode="o" d="M360 525 Q226 524 140 441 Q55 359 52 211 Q53 114 110 55 Q167 -4 267 -6 Q399 -4 485 80 Q571 164 574 311 Q573 408 516 466 Q459 524 360 525 L360 525 ZM340 417 Q390 416 416 383 Q442 350 442 292 Q440 207 397 155 Q353 103 286 102 Q238 102 211 135 Q184 167 184 225 Q186 311 230 363 Q274 416 340 417 L340 417 Z" /><glyph glyph-name="" unicode="p" d="M156 519 L28 -214 L159 -208 L203 41 L207 42 Q230 19 258 6 Q287 -6 317 -6 Q443 -4 523 81 Q603 167 606 315 Q605 414 555 469 Q505 524 423 525 Q389 525 351 506 Q313 488 272 453 L268 453 L279 519 L156 519 ZM374 409 Q420 409 446 378 Q472 347 473 292 Q471 207 429 159 Q386 111 325 110 Q295 110 269 123 Q243 137 225 160 L255 337 Q280 370 312 390 Q343 409 374 409 L374 409 Z" /><glyph glyph-name="" unicode="q" d="M379 49 L333 -214 L464 -208 L585 485 L468 485 Q441 505 406 515 Q371 525 334 525 Q210 523 132 437 Q54 351 52 204 Q53 105 101 50 Q149 -5 228 -6 Q265 -6 303 9 Q340 23 375 50 L379 49 ZM184 227 Q186 312 227 360 Q268 408 325 409 Q363 409 388 400 Q414 391 436 372 L403 185 Q377 153 345 132 Q312 111 274 110 Q234 110 209 140 Q185 169 184 227 L184 227 Z" /><glyph glyph-name="" unicode="r" d="M278 519 L155 519 L62 0 L193 0 L251 329 Q280 366 315 384 Q349 403 383 403 Q398 403 413 400 Q428 397 440 390 L491 512 Q476 519 457 522 Q438 525 422 525 Q388 525 350 507 Q312 489 271 453 L267 453 L278 519 Z" /><glyph glyph-name="" unicode="s" d="M306 146 Q306 120 287 107 Q267 94 231 94 Q203 94 165 108 Q128 122 86 157 L23 69 Q80 22 132 6 Q184 -10 227 -9 Q322 -10 381 31 Q440 71 442 159 Q428 267 327 300 Q226 333 212 376 Q213 405 238 417 Q263 428 297 428 Q313 428 324 425 Q336 422 352 415 L350 359 L448 359 L472 486 Q429 507 383 518 Q338 528 291 528 Q181 526 130 479 Q79 432 80 363 Q94 256 193 222 Q292 189 306 146 L306 146 Z" /><glyph glyph-name="" unicode="t" d="M151 428 L111 198 Q105 165 105 141 Q108 56 153 24 Q197 -8 247 -6 Q277 -7 315 2 Q352 11 396 35 L384 131 Q359 119 338 115 Q318 110 300 110 Q279 109 259 120 Q239 131 238 172 Q238 178 239 186 Q240 194 242 207 L280 422 L414 422 L432 519 L298 519 L320 644 L236 644 L175 519 L80 519 L66 447 L151 428 Z" /><glyph glyph-name="" unicode="u" d="M254 519 L123 519 L73 233 Q66 190 66 155 Q69 60 120 26 Q170 -8 227 -6 Q273 -5 319 15 Q365 35 400 69 L405 69 Q416 31 443 12 Q471 -6 513 -6 Q528 -6 545 -2 Q562 1 576 7 L594 105 Q560 105 545 114 Q530 124 530 150 Q530 160 531 172 Q532 184 534 196 L591 519 L461 519 L402 184 Q377 154 344 132 Q311 111 273 110 Q247 108 224 123 Q201 138 199 190 Q199 198 200 207 Q201 216 203 226 L254 519 Z" /><glyph glyph-name="" unicode="v" d="M192 525 L52 519 L154 0 L268 0 Q329 60 428 184 Q526 309 536 412 Q535 474 507 501 Q479 529 435 528 Q422 528 405 524 Q388 520 375 515 L358 416 Q377 417 390 410 Q403 402 403 379 Q398 337 346 262 Q294 186 251 135 L192 525 Z" /><glyph glyph-name="" unicode="w" d="M501 525 L361 519 L394 349 Q372 298 329 237 Q286 176 254 139 L250 140 L192 525 L52 519 L154 0 L268 0 Q296 28 338 77 Q380 125 422 181 L426 180 L463 0 L577 0 Q638 60 737 184 Q835 309 845 412 Q844 474 816 501 Q788 529 744 528 Q731 528 714 524 Q697 520 684 515 L667 416 Q686 417 699 410 Q712 402 712 379 Q707 337 656 262 Q604 187 563 139 L559 140 L501 525 Z" /><glyph glyph-name="" unicode="x" d="M373 -6 L527 0 L390 263 Q441 309 494 373 Q546 437 578 519 L436 525 Q417 475 386 431 Q355 386 327 353 L248 525 L95 519 L223 276 Q163 221 108 152 Q52 83 13 0 L156 -6 Q182 48 218 96 Q254 143 291 182 L373 -6 Z" /><glyph glyph-name="" unicode="y" d="M537 412 Q536 474 508 501 Q480 529 436 528 Q422 528 406 524 Q389 520 376 515 L358 416 Q377 417 390 410 Q403 402 403 379 Q401 336 365 254 Q329 172 288 120 L193 525 L53 519 L188 0 Q138 -55 91 -82 Q44 -109 -13 -109 L-6 -200 Q6 -207 21 -211 Q35 -214 45 -214 Q191 -195 357 18 Q523 230 537 412 L537 412 Z" /><glyph glyph-name="" unicode="z" d="M98 412 L343 412 L345 408 L17 71 L71 -13 Q95 5 116 12 Q137 19 162 19 Q197 17 251 0 Q305 -18 367 -20 Q445 -20 503 24 L469 127 Q441 108 416 102 Q392 96 370 97 Q334 99 299 109 Q263 120 231 121 L229 125 L525 430 L510 519 L116 519 L98 412 Z" /><glyph glyph-name="" unicode="{" d="M172 327 Q197 337 228 373 Q259 409 272 472 L303 654 Q308 681 326 696 Q343 711 367 711 L420 711 L436 806 L389 806 Q313 806 263 764 Q213 723 199 643 L176 512 Q167 455 144 417 Q122 379 73 366 L60 289 Q92 280 105 257 Q118 235 118 201 Q118 174 112 142 L90 14 Q88 4 87 -5 Q86 -15 86 -24 Q86 -83 122 -116 Q157 -148 223 -149 L271 -149 L287 -54 L238 -54 Q215 -54 202 -42 Q189 -30 189 -9 Q189 -6 189 -1 Q189 3 190 6 L221 181 Q223 191 223 201 Q224 211 224 219 Q223 264 206 291 Q190 318 172 327 L172 327 Z" /><glyph glyph-name="" unicode="|" d="M137 -154 L305 806 L208 806 L40 -154 L137 -154 Z" /><glyph glyph-name="" unicode="}" d="M249 329 Q224 319 193 283 Q162 248 150 185 L118 3 Q113 -24 95 -39 Q78 -54 54 -54 L1 -54 L-15 -149 L32 -149 Q108 -149 158 -107 Q208 -66 222 14 L245 145 Q254 202 277 240 Q299 278 348 291 L361 368 Q329 377 316 400 Q303 422 303 456 Q303 482 309 515 L331 643 Q333 653 334 662 Q335 672 335 681 Q335 740 299 773 Q264 806 198 806 L150 806 L134 711 L184 711 Q206 711 219 699 Q232 687 232 666 Q232 662 232 658 Q232 654 231 651 L200 475 Q197 455 197 438 Q198 393 215 366 Q231 338 249 329 L249 329 Z" /><glyph glyph-name="" unicode="~" d="M261 365 Q233 366 213 381 Q194 395 180 407 L116 319 Q154 289 180 276 Q206 263 245 263 Q308 266 357 287 Q405 307 443 310 Q472 309 495 293 Q518 278 533 265 L597 353 Q559 383 531 398 Q503 412 460 412 Q401 409 353 389 Q305 368 261 365 L261 365 Z" /><glyph glyph-name="" unicode=" " d="" /><glyph glyph-name="" unicode="¡" d="M164 447 Q164 418 182 398 Q199 379 228 378 Q264 379 291 406 Q318 433 319 472 Q319 501 301 520 Q284 539 256 540 Q219 539 192 512 Q165 486 164 447 L164 447 ZM173 306 L62 -214 L186 -214 L258 306 L173 306 Z" /><glyph glyph-name="" unicode="¢" d="M367 -28 L392 110 Q440 115 475 128 Q510 141 544 160 L511 265 Q478 246 444 233 Q411 220 365 219 Q315 219 288 250 Q260 280 260 340 Q262 429 307 479 Q353 529 419 530 Q466 529 496 517 Q525 504 551 485 L620 589 Q592 607 561 620 Q531 633 484 638 L509 777 L410 777 L386 635 Q270 617 200 535 Q130 453 128 323 Q129 235 172 181 Q215 126 294 113 L269 -28 L367 -28 Z" /><glyph glyph-name="" unicode="£" d="M254 129 Q279 166 290 208 Q302 249 312 323 L493 323 L522 406 L327 406 L337 476 Q354 576 391 608 Q429 640 469 637 Q497 637 528 628 Q558 618 591 598 L648 703 Q612 729 566 741 Q519 754 466 754 Q371 754 301 692 Q230 629 206 503 L189 406 L107 406 L96 348 L174 323 Q158 224 133 164 Q108 104 57 45 L111 -13 Q139 6 163 14 Q188 21 218 21 Q257 19 313 1 Q370 -16 426 -19 Q472 -19 515 -8 Q559 2 595 24 L558 133 Q527 114 499 106 Q472 99 436 99 Q389 101 346 112 Q303 122 256 124 L254 129 Z" /><glyph glyph-name="" unicode="¥" d="M382 0 L427 256 L554 274 L577 328 L458 328 L512 417 L619 431 L642 488 L553 488 L707 748 L560 754 L390 428 L386 428 L330 754 L181 748 L244 488 L147 488 L154 431 L260 417 L282 328 L156 328 L162 274 L289 256 L244 0 L382 0 Z" /><glyph glyph-name="" unicode="§" d="M544 302 Q528 416 413 463 Q297 510 281 584 Q282 619 310 634 Q337 649 375 649 Q401 649 431 633 Q461 616 481 583 L560 643 Q518 706 464 730 Q411 755 368 754 Q289 755 230 712 Q170 668 167 571 Q167 548 177 525 Q186 502 201 482 Q145 449 113 408 Q80 368 79 304 Q95 189 211 144 Q326 99 342 28 Q341 -8 313 -23 Q286 -39 248 -39 Q222 -39 192 -22 Q162 -6 142 27 L63 -34 Q106 -96 159 -120 Q213 -145 255 -144 Q335 -145 394 -101 Q453 -57 456 42 Q456 63 447 84 Q438 105 423 124 Q478 157 511 197 Q543 238 544 302 L544 302 ZM415 291 Q415 264 398 242 Q382 219 351 198 Q300 227 256 253 Q211 278 208 316 Q208 343 225 365 Q241 387 273 408 Q323 378 368 353 Q412 327 415 291 L415 291 Z" /><glyph glyph-name="" unicode="¨" d="M120 656 Q120 630 136 612 Q151 594 176 593 Q211 594 235 619 Q259 643 260 678 Q259 705 243 722 Q226 738 201 739 Q170 738 146 714 Q121 690 120 656 L120 656 ZM326 656 Q326 630 342 612 Q357 594 382 593 Q416 594 441 618 Q465 643 466 678 Q465 705 449 722 Q432 738 407 739 Q376 738 352 714 Q327 689 326 656 L326 656 Z" /><glyph glyph-name="" unicode="©" d="M60 323 Q62 181 151 89 Q239 -3 385 -6 Q566 -1 676 122 Q786 245 789 425 Q787 567 702 659 Q617 751 478 754 Q288 749 176 626 Q63 503 60 323 L60 323 ZM126 331 Q128 480 221 584 Q314 688 474 693 Q597 690 660 612 Q724 533 724 417 Q721 268 629 164 Q537 60 389 55 Q269 55 198 125 Q128 194 126 331 L126 331 ZM494 295 Q473 269 445 255 Q417 240 394 240 Q356 240 332 265 Q307 289 306 334 Q308 409 348 453 Q388 496 447 497 Q457 497 468 496 Q479 495 490 493 L485 418 L553 418 L587 539 Q562 560 527 571 Q493 582 460 582 Q359 582 292 518 Q226 454 223 331 Q224 249 270 203 Q316 157 392 156 Q430 156 477 180 Q524 203 556 254 L494 295 Z" /><glyph glyph-name="" unicode="ª" d="M368 422 Q378 422 388 424 Q399 426 408 430 L419 495 Q398 495 389 501 Q380 508 380 524 Q380 529 381 538 Q382 546 383 555 L412 729 L339 729 Q323 742 301 748 Q280 754 256 754 Q179 753 130 699 Q82 646 80 553 Q81 492 110 457 Q140 423 190 422 Q217 422 245 434 Q272 446 294 467 L298 467 Q306 444 324 433 Q342 422 368 422 L368 422 ZM216 499 Q193 499 180 516 Q166 534 166 566 Q167 619 192 648 Q216 677 252 677 Q271 677 287 672 Q302 667 315 657 L296 543 Q276 521 256 510 Q236 499 216 499 L216 499 Z" /><glyph glyph-name="" unicode="«" d="M272 596 L80 367 L78 359 L191 131 L271 183 L186 364 L334 544 L272 596 ZM491 596 L299 367 L297 359 L410 131 L489 183 L404 364 L552 544 L491 596 Z" /><glyph glyph-name="" unicode="¬" d="M454 181 L550 181 L606 497 L100 497 L82 394 L491 394 L454 181 Z" /><glyph glyph-name="" unicode="®" d="M60 323 Q62 181 151 89 Q239 -3 385 -6 Q566 -1 676 122 Q786 245 789 425 Q787 567 702 659 Q617 751 478 754 Q288 749 176 626 Q63 503 60 323 L60 323 ZM126 331 Q128 480 221 584 Q314 688 474 693 Q597 690 660 612 Q724 533 724 417 Q721 268 629 164 Q537 60 389 55 Q269 55 198 125 Q128 194 126 331 L126 331 ZM323 593 L249 170 L328 170 L356 333 L421 333 Q435 265 461 216 Q486 166 540 164 Q548 164 557 165 Q566 167 572 169 L567 233 Q536 233 519 262 Q503 291 491 347 Q543 366 570 404 Q597 441 597 479 Q598 520 570 555 Q543 591 479 593 L323 593 ZM388 520 L461 520 Q490 519 503 502 Q515 486 515 466 Q515 441 496 420 Q477 399 438 398 L368 398 L388 520 Z" /><glyph glyph-name="" unicode="¯" d="M135 704 L121 623 L412 623 L426 704 L135 704 Z" /><glyph glyph-name="" unicode="°" d="M126 560 Q127 501 166 463 Q204 424 262 423 Q336 424 394 476 Q452 527 455 610 Q454 669 415 708 Q377 747 319 748 Q245 746 187 695 Q129 643 126 560 L126 560 ZM202 571 Q204 616 234 646 Q265 676 307 677 Q340 676 359 655 Q379 633 379 600 Q378 555 347 524 Q317 494 274 493 Q241 494 222 516 Q202 538 202 571 L202 571 Z" /><glyph glyph-name="" unicode="±" d="M121 363 L325 363 L301 222 L399 222 L423 363 L627 363 L645 465 L440 465 L466 606 L368 606 L343 465 L139 465 L121 363 ZM88 172 L70 70 L575 70 L594 172 L88 172 Z" /><glyph glyph-name="" unicode="´" d="M167 585 L274 585 L422 743 L279 743 L167 585 Z" /><glyph glyph-name="" unicode="µ" d="M594 519 L464 519 L405 184 Q380 154 347 132 Q314 111 276 110 Q250 108 226 122 Q203 135 201 183 Q201 191 202 200 Q203 209 204 219 L257 519 L126 519 L-1 -210 L129 -208 L169 26 L173 26 Q190 10 214 2 Q239 -6 261 -6 Q309 -5 343 18 Q376 40 403 69 L407 69 Q418 29 447 11 Q475 -6 516 -6 Q531 -6 548 -2 Q565 1 579 7 L597 105 Q563 105 548 114 Q533 124 533 150 Q533 160 534 172 Q535 183 537 196 L594 519 Z" /><glyph glyph-name="" unicode="¶" d="M491 643 L587 643 L474 0 L592 0 L723 748 L388 748 Q249 746 168 671 Q87 597 85 480 Q87 386 150 329 Q212 272 306 270 L257 -10 Q244 -73 206 -92 Q167 -112 121 -110 L128 -203 Q142 -209 156 -211 Q171 -214 184 -214 Q243 -216 298 -171 Q353 -125 376 -11 L491 643 Z" /><glyph glyph-name="" unicode="·" d="M231 390 Q231 418 214 437 Q197 456 170 457 Q134 456 108 430 Q81 404 80 368 Q80 340 98 322 Q115 303 143 302 Q177 303 204 328 Q230 354 231 390 L231 390 Z" /><glyph glyph-name="" unicode="¸" d="M152 39 Q135 -39 99 -75 Q64 -111 -5 -126 L23 -208 Q121 -196 171 -132 Q221 -69 223 13 L152 39 Z" /><glyph glyph-name="" unicode="º" d="M272 753 Q188 752 135 701 Q82 649 80 557 Q81 497 116 460 Q151 423 214 422 Q296 423 350 476 Q403 528 405 620 Q404 681 369 717 Q334 752 272 753 L272 753 ZM260 682 Q287 682 303 663 Q319 644 319 611 Q318 557 292 526 Q266 495 225 494 Q198 494 182 513 Q166 532 166 565 Q167 619 193 650 Q219 681 260 682 L260 682 Z" /><glyph glyph-name="" unicode="»" d="M128 544 L213 364 L65 183 L126 131 L318 359 L320 367 L207 596 L128 544 ZM347 544 L431 364 L284 183 L345 131 L537 359 L538 367 L426 596 L347 544 Z" /><glyph glyph-name="" unicode="¿" d="M356 312 L269 312 L236 208 Q156 171 90 106 Q25 40 21 -59 Q24 -140 78 -177 Q131 -214 206 -214 Q258 -215 309 -193 Q360 -171 413 -114 L339 -42 Q312 -69 287 -83 Q262 -97 235 -97 Q210 -98 186 -81 Q163 -65 161 -24 Q165 40 223 88 Q280 135 347 164 L356 312 ZM419 477 Q419 506 401 526 Q383 545 353 546 Q315 545 287 519 Q259 493 258 454 Q259 424 277 404 Q295 385 325 384 Q363 385 390 412 Q418 438 419 477 L419 477 Z" /><glyph glyph-name="" unicode="à" d="M486 632 L586 632 L529 307 L302 307 L486 632 ZM247 748 L226 665 L359 644 L-21 0 L127 -6 L239 194 L509 194 L475 0 L613 0 L744 748 L247 748 ZM547 954 L404 954 L496 796 L604 796 L547 954 Z" /><glyph glyph-name="" unicode="á" d="M486 632 L586 632 L529 307 L302 307 L486 632 ZM247 748 L226 665 L359 644 L-21 0 L127 -6 L239 194 L509 194 L475 0 L613 0 L744 748 L247 748 ZM481 795 L588 795 L736 953 L593 953 L481 795 Z" /><glyph glyph-name="" unicode="â" d="M486 632 L586 632 L529 307 L302 307 L486 632 ZM247 748 L226 665 L359 644 L-21 0 L127 -6 L239 194 L509 194 L475 0 L613 0 L744 748 L247 748 ZM634 954 L518 954 L392 796 L480 796 L562 876 L616 796 L704 796 L634 954 Z" /><glyph glyph-name="" unicode="ã" d="M486 632 L586 632 L529 307 L302 307 L486 632 ZM247 748 L226 665 L359 644 L-21 0 L127 -6 L239 194 L509 194 L475 0 L613 0 L744 748 L247 748 ZM702 896 Q678 922 656 930 Q634 938 620 937 Q570 935 540 919 Q510 903 482 901 Q471 901 457 906 Q443 910 426 925 L384 845 Q405 820 426 811 Q447 802 463 803 Q501 805 536 822 Q570 838 601 840 Q611 840 626 835 Q642 830 662 814 L702 896 Z" /><glyph glyph-name="" unicode="ä" d="M486 632 L586 632 L529 307 L302 307 L486 632 ZM247 748 L226 665 L359 644 L-21 0 L127 -6 L239 194 L509 194 L475 0 L613 0 L744 748 L247 748 ZM442 865 Q442 839 458 821 Q473 803 498 802 Q533 803 557 828 Q581 852 582 887 Q581 914 565 931 Q548 947 523 948 Q492 947 468 923 Q443 899 442 865 L442 865 ZM648 865 Q648 839 664 821 Q679 803 704 802 Q738 803 763 827 Q787 852 788 887 Q787 914 771 931 Q754 947 729 948 Q698 947 674 923 Q649 898 648 865 L648 865 Z" /><glyph glyph-name="" unicode="å" d="M486 632 L586 632 L529 307 L302 307 L486 632 ZM247 748 L226 665 L359 644 L-21 0 L127 -6 L239 194 L509 194 L475 0 L613 0 L744 748 L247 748 ZM496 868 Q497 831 519 809 Q541 787 578 787 Q627 788 661 819 Q695 850 696 900 Q695 938 673 960 Q651 982 614 982 Q565 981 531 950 Q497 918 496 868 L496 868 ZM554 876 Q555 898 570 914 Q585 929 605 930 Q620 930 629 919 Q638 908 638 892 Q637 870 623 855 Q608 840 587 839 Q572 839 563 850 Q554 861 554 876 L554 876 Z" /><glyph glyph-name="" unicode="æ" d="M302 307 L486 632 L574 632 L517 307 L302 307 ZM497 194 L464 0 L930 0 L950 116 L623 116 L661 332 L948 332 L968 445 L680 445 L713 632 L1035 632 L1055 748 L247 748 L226 665 L359 644 L-21 0 L127 -6 L239 194 L497 194 Z" /><glyph glyph-name="" unicode="ç" d="M367 110 Q273 111 232 166 Q191 220 192 317 Q193 442 261 538 Q328 633 453 638 Q488 638 517 630 Q545 622 570 609 L563 488 L656 488 L707 679 Q657 714 600 734 Q543 754 472 754 Q267 748 160 617 Q53 487 52 303 Q51 182 112 98 Q172 15 300 -2 Q283 -56 249 -84 Q215 -113 156 -126 L184 -208 Q276 -197 325 -139 Q375 -81 382 -4 Q448 0 513 34 Q579 68 630 143 L539 214 Q509 170 466 141 Q423 111 367 110 L367 110 Z" /><glyph glyph-name="" unicode="è" d="M184 748 L52 0 L560 0 L580 116 L210 116 L248 332 L571 332 L590 445 L267 445 L300 632 L664 632 L685 748 L184 748 ZM447 953 L304 953 L396 795 L504 795 L447 953 Z" /><glyph glyph-name="" unicode="é" d="M184 748 L52 0 L560 0 L580 116 L210 116 L248 332 L571 332 L590 445 L267 445 L300 632 L664 632 L685 748 L184 748 ZM383 795 L490 795 L638 953 L495 953 L383 795 Z" /><glyph glyph-name="" unicode="ê" d="M184 748 L52 0 L560 0 L580 116 L210 116 L248 332 L571 332 L590 445 L267 445 L300 632 L664 632 L685 748 L184 748 ZM543 954 L427 954 L301 796 L389 796 L471 876 L525 796 L613 796 L543 954 Z" /><glyph glyph-name="" unicode="ë" d="M197 748 L65 0 L573 0 L593 116 L223 116 L261 332 L584 332 L603 445 L280 445 L313 632 L677 632 L698 748 L197 748 ZM304 867 Q304 841 320 823 Q335 805 360 804 Q395 805 419 830 Q443 854 444 889 Q443 916 427 933 Q410 949 385 950 Q354 949 330 925 Q305 901 304 867 L304 867 ZM510 867 Q510 841 526 823 Q541 805 566 804 Q600 805 625 829 Q649 854 650 889 Q649 916 633 933 Q616 949 591 950 Q560 949 536 925 Q511 900 510 867 L510 867 Z" /><glyph glyph-name="" unicode="ñ" d="M576 0 L653 0 L784 748 L646 748 L561 260 L556 259 L256 748 L183 748 L52 0 L190 0 L274 481 L278 483 L576 0 ZM639 898 Q615 924 593 932 Q571 940 557 939 Q507 937 477 921 Q447 905 419 903 Q408 903 394 908 Q380 912 363 927 L321 847 Q342 822 363 813 Q384 804 400 805 Q438 807 473 824 Q507 840 538 842 Q548 842 563 837 Q579 832 599 816 L639 898 Z" /><glyph glyph-name="" unicode="ò" d="M472 754 Q274 749 164 620 Q54 490 52 300 Q52 165 124 81 Q196 -3 339 -6 Q537 -1 647 128 Q758 258 760 448 Q760 583 688 667 Q616 751 472 754 L472 754 ZM457 638 Q543 636 581 577 Q620 517 619 426 Q618 305 547 210 Q477 115 355 110 Q269 112 231 171 Q192 231 193 322 Q195 443 265 538 Q336 633 457 638 L457 638 ZM484 953 L341 953 L433 795 L541 795 L484 953 Z" /><glyph glyph-name="" unicode="ó" d="M472 754 Q274 749 164 620 Q54 490 52 300 Q52 165 124 81 Q196 -3 339 -6 Q537 -1 647 128 Q758 258 760 448 Q760 583 688 667 Q616 751 472 754 L472 754 ZM457 638 Q543 636 581 577 Q620 517 619 426 Q618 305 547 210 Q477 115 355 110 Q269 112 231 171 Q192 231 193 322 Q195 443 265 538 Q336 633 457 638 L457 638 ZM395 794 L502 794 L650 952 L507 952 L395 794 Z" /><glyph glyph-name="" unicode="ô" d="M472 754 Q274 749 164 620 Q54 490 52 300 Q52 165 124 81 Q196 -3 339 -6 Q537 -1 647 128 Q758 258 760 448 Q760 583 688 667 Q616 751 472 754 L472 754 ZM457 638 Q543 636 581 577 Q620 517 619 426 Q618 305 547 210 Q477 115 355 110 Q269 112 231 171 Q192 231 193 322 Q195 443 265 538 Q336 633 457 638 L457 638 ZM565 953 L449 953 L323 795 L411 795 L493 875 L547 795 L635 795 L565 953 Z" /><glyph glyph-name="" unicode="õ" d="M472 754 Q274 749 164 620 Q54 490 52 300 Q52 165 124 81 Q196 -3 339 -6 Q537 -1 647 128 Q758 258 760 448 Q760 583 688 667 Q616 751 472 754 L472 754 ZM457 638 Q543 636 581 577 Q620 517 619 426 Q618 305 547 210 Q477 115 355 110 Q269 112 231 171 Q192 231 193 322 Q195 443 265 538 Q336 633 457 638 L457 638 ZM654 898 Q630 924 608 932 Q586 940 572 939 Q522 937 492 921 Q462 905 434 903 Q423 903 409 908 Q395 912 378 927 L336 847 Q357 822 378 813 Q399 804 415 805 Q453 807 488 824 Q522 840 553 842 Q563 842 578 837 Q594 832 614 816 L654 898 Z" /><glyph glyph-name="" unicode="ö" d="M472 754 Q274 749 164 620 Q54 490 52 300 Q52 165 124 81 Q196 -3 339 -6 Q537 -1 647 128 Q758 258 760 448 Q760 583 688 667 Q616 751 472 754 L472 754 ZM457 638 Q543 636 581 577 Q620 517 619 426 Q618 305 547 210 Q477 115 355 110 Q269 112 231 171 Q192 231 193 322 Q195 443 265 538 Q336 633 457 638 L457 638 ZM340 865 Q340 839 356 821 Q371 803 396 802 Q431 803 455 828 Q479 852 480 887 Q479 914 463 931 Q446 947 421 948 Q390 947 366 923 Q341 899 340 865 L340 865 ZM546 865 Q546 839 562 821 Q577 803 602 802 Q636 803 661 827 Q685 852 686 887 Q685 914 669 931 Q652 947 627 948 Q596 947 572 923 Q547 898 546 865 L546 865 Z" /><glyph glyph-name="" unicode="ø" d="M814 699 L774 754 L694 678 Q658 714 607 734 Q557 754 490 754 Q292 749 182 620 Q72 490 70 300 Q70 250 80 207 Q90 163 110 127 L31 53 L71 -2 L149 72 Q185 35 237 15 Q289 -6 357 -6 Q555 -1 665 128 Q775 258 777 448 Q777 499 767 544 Q756 588 735 625 L814 699 ZM636 426 Q635 305 564 210 Q494 115 372 110 Q330 110 300 124 Q270 138 251 164 L621 521 Q629 501 632 477 Q636 452 636 426 L636 426 ZM474 637 Q555 637 594 587 L224 232 Q217 251 214 274 Q210 296 210 322 Q212 443 282 538 Q353 632 474 637 L474 637 Z" /><glyph glyph-name="" unicode="ù" d="M613 748 L539 322 Q523 230 471 171 Q420 112 341 110 Q275 111 243 148 Q212 184 212 246 Q212 280 220 322 L294 748 L156 748 L81 322 Q77 300 75 280 Q73 259 73 240 Q73 128 135 62 Q197 -4 322 -6 Q470 -3 561 86 Q652 176 678 322 L752 748 L613 748 ZM467 954 L324 954 L416 796 L524 796 L467 954 Z" /><glyph glyph-name="" unicode="ú" d="M613 748 L539 322 Q523 230 471 171 Q420 112 341 110 Q275 111 243 148 Q212 184 212 246 Q212 280 220 322 L294 748 L156 748 L81 322 Q77 300 75 280 Q73 259 73 240 Q73 128 135 62 Q197 -4 322 -6 Q470 -3 561 86 Q652 176 678 322 L752 748 L613 748 ZM391 795 L498 795 L646 953 L503 953 L391 795 Z" /><glyph glyph-name="" unicode="û" d="M613 748 L539 322 Q523 230 471 171 Q420 112 341 110 Q275 111 243 148 Q212 184 212 246 Q212 280 220 322 L294 748 L156 748 L81 322 Q77 300 75 280 Q73 259 73 240 Q73 128 135 62 Q197 -4 322 -6 Q470 -3 561 86 Q652 176 678 322 L752 748 L613 748 ZM554 954 L438 954 L312 796 L400 796 L482 876 L536 796 L624 796 L554 954 Z" /><glyph glyph-name="" unicode="ü" d="M613 748 L539 322 Q523 230 471 171 Q420 112 341 110 Q275 111 243 148 Q212 184 212 246 Q212 280 220 322 L294 748 L156 748 L81 322 Q77 300 75 280 Q73 259 73 240 Q73 128 135 62 Q197 -4 322 -6 Q470 -3 561 86 Q652 176 678 322 L752 748 L613 748 ZM313 865 Q313 839 329 821 Q344 803 369 802 Q404 803 428 828 Q452 852 453 887 Q452 914 436 931 Q419 947 394 948 Q363 947 339 923 Q314 899 313 865 L313 865 ZM519 865 Q519 839 535 821 Q550 803 575 802 Q609 803 634 827 Q658 852 659 887 Q658 914 642 931 Q625 947 600 948 Q569 947 545 923 Q520 898 519 865 L519 865 Z" /><glyph glyph-name="" unicode="ß" d="M154 426 L80 -3 Q67 -66 29 -85 Q-10 -105 -56 -103 L-51 -203 Q-38 -209 -23 -211 Q-8 -214 5 -214 Q64 -216 125 -171 Q186 -125 209 -11 L310 568 Q323 632 360 658 Q396 685 432 684 Q470 684 496 667 Q522 651 523 620 Q514 565 448 533 Q381 502 372 424 Q381 351 442 302 Q502 253 511 199 Q510 148 484 129 Q458 109 422 110 Q396 110 375 120 Q354 129 339 141 L280 45 Q307 24 347 10 Q388 -4 429 -5 Q509 -5 577 47 Q645 98 649 201 Q640 304 580 350 Q520 396 511 431 Q520 483 586 510 Q651 537 660 631 Q660 701 603 747 Q547 793 441 795 Q349 796 276 743 Q204 689 180 570 L171 519 L60 519 L48 447 L154 426 Z" /><glyph glyph-name="" unicode="æ" d="M337 525 Q283 525 232 512 Q182 498 132 474 L156 383 Q197 402 232 412 Q267 422 307 422 Q349 422 374 402 Q398 381 398 334 Q398 317 394 296 Q367 306 334 310 Q302 315 280 315 Q134 308 85 242 Q35 177 39 133 Q40 71 80 33 Q121 -5 193 -6 Q257 -6 316 20 Q374 45 417 95 Q444 47 492 21 Q541 -6 609 -6 Q686 -6 734 7 Q783 20 827 45 L788 150 Q752 133 714 122 Q675 110 623 110 Q583 109 554 128 Q524 148 523 205 Q640 203 754 237 Q868 271 877 381 Q877 443 830 485 Q782 526 685 528 Q630 528 581 509 Q531 489 494 454 Q472 488 432 506 Q391 525 337 525 L337 525 ZM252 93 Q216 93 197 109 Q178 125 178 157 Q177 186 200 214 Q223 242 288 244 Q315 244 336 239 Q358 234 381 224 Q365 148 324 120 Q282 92 252 93 L252 93 ZM672 420 Q705 420 724 405 Q742 390 742 367 Q740 323 682 304 Q624 285 528 284 Q539 350 581 385 Q622 420 672 420 L672 420 Z" /><glyph glyph-name="" unicode="ç" d="M354 525 Q220 523 137 444 Q54 365 52 226 Q53 123 106 63 Q159 3 253 -5 Q236 -57 203 -85 Q170 -113 111 -126 L139 -208 Q233 -196 282 -137 Q332 -77 338 0 Q376 7 411 23 Q447 39 483 66 L430 156 Q391 128 356 118 Q321 109 294 110 Q245 110 215 141 Q185 172 184 233 Q186 314 230 361 Q274 408 339 409 Q358 409 369 407 Q381 404 395 399 L395 309 L493 309 L524 474 Q490 498 451 512 Q411 525 354 525 L354 525 Z" /><glyph glyph-name="" unicode="ë" d="M545 381 Q545 443 498 485 Q450 526 352 528 Q224 525 140 440 Q57 355 54 220 Q55 112 114 53 Q173 -5 277 -6 Q353 -6 402 7 Q450 20 494 45 L456 149 Q420 132 381 121 Q343 110 291 110 Q250 108 221 128 Q191 147 190 205 Q307 203 422 237 Q536 271 545 381 L545 381 ZM340 421 Q373 420 392 405 Q410 390 410 367 Q408 323 350 304 Q292 285 196 284 Q207 350 248 386 Q289 421 340 421 L340 421 ZM226 656 Q226 630 242 612 Q257 594 282 593 Q317 594 341 619 Q365 643 366 678 Q365 705 349 722 Q332 738 307 739 Q276 738 252 714 Q227 690 226 656 L226 656 ZM432 656 Q432 630 448 612 Q463 594 488 593 Q522 594 547 618 Q571 643 572 678 Q571 705 555 722 Q538 738 513 739 Q482 738 458 714 Q433 689 432 656 L432 656 Z" /><glyph glyph-name="" unicode="ñ" d="M280 519 L158 519 L69 0 L199 0 L258 338 Q286 371 319 391 Q352 411 385 411 Q417 412 436 397 Q456 382 456 342 Q456 337 455 330 Q454 323 453 315 L399 0 L529 0 L579 286 Q586 331 586 366 Q584 459 537 493 Q489 527 424 525 Q390 525 352 506 Q314 488 273 453 L269 453 L280 519 ZM566 684 Q542 710 520 718 Q498 726 484 725 Q434 723 404 707 Q374 691 346 689 Q335 689 321 694 Q307 698 290 713 L248 633 Q269 608 290 599 Q311 590 327 591 Q365 593 400 610 Q434 626 465 628 Q475 628 490 623 Q506 618 526 602 L566 684 Z" /><glyph glyph-name="" unicode="÷" d="M222 104 Q223 72 241 52 Q260 31 290 30 Q328 31 357 60 Q386 88 388 130 Q388 161 369 182 Q351 202 320 203 Q281 202 252 174 Q223 146 222 104 L222 104 ZM300 546 Q301 515 319 494 Q337 474 367 473 Q406 474 435 502 Q464 530 465 572 Q465 604 447 624 Q428 645 398 646 Q359 645 330 616 Q301 588 300 546 L300 546 ZM82 287 L588 287 L607 389 L101 389 L82 287 Z" /><glyph glyph-name="" unicode="ø" d="M602 467 L564 521 L512 475 Q485 499 447 512 Q409 525 362 525 Q228 524 142 441 Q57 358 54 210 Q54 177 60 148 Q67 118 78 95 L29 52 L68 -2 L119 43 Q147 20 185 7 Q222 -6 269 -6 Q402 -4 487 80 Q573 164 576 311 Q576 343 570 372 Q564 401 552 423 L602 467 ZM343 416 Q364 416 382 410 Q399 403 411 391 L193 192 Q190 203 189 216 Q187 228 187 246 Q189 324 235 370 Q281 415 343 416 L343 416 ZM444 287 Q442 205 399 155 Q355 104 288 103 Q267 103 249 109 Q232 115 219 127 L437 326 Q440 319 442 309 Q444 299 444 287 L444 287 Z" /><glyph glyph-name="" unicode="ÿ" d="M537 412 Q536 474 508 501 Q480 529 436 528 Q422 528 406 524 Q389 520 376 515 L358 416 Q377 417 390 410 Q403 402 403 379 Q401 336 365 254 Q329 172 288 120 L193 525 L53 519 L188 0 Q138 -55 91 -82 Q44 -109 -13 -109 L-6 -200 Q6 -207 21 -211 Q35 -214 45 -214 Q191 -195 357 18 Q523 230 537 412 L537 412 ZM140 656 Q140 630 156 612 Q171 594 196 593 Q231 594 255 619 Q279 643 280 678 Q279 705 263 722 Q246 738 221 739 Q190 738 166 714 Q141 690 140 656 L140 656 ZM346 656 Q346 630 362 612 Q377 594 402 593 Q436 594 461 618 Q485 643 486 678 Q485 705 469 722 Q452 738 427 739 Q396 738 372 714 Q347 689 346 656 L346 656 Z" /><glyph glyph-name="" unicode="&#x131;" d="M273 519 L143 519 L86 193 Q82 166 80 147 Q78 128 78 117 Q80 46 113 20 Q147 -7 195 -6 Q210 -6 227 -2 Q244 1 259 7 L276 105 Q242 105 227 114 Q212 124 212 150 Q212 160 213 172 Q215 184 217 196 L273 519 Z" /><glyph glyph-name="" unicode="&#x152;" d="M1024 632 L1044 748 L560 748 Q541 751 518 753 Q496 754 472 754 Q274 749 164 620 Q54 490 52 300 Q52 165 124 81 Q196 -3 339 -6 Q362 -6 386 -4 Q409 -3 430 0 L913 0 L934 116 L584 116 L622 333 L932 333 L951 445 L641 445 L674 632 L1024 632 ZM358 113 Q273 115 232 174 Q192 233 192 320 Q193 444 263 537 Q333 630 454 635 Q476 635 494 633 Q513 631 534 626 L446 122 Q422 117 402 115 Q382 113 358 113 L358 113 Z" /><glyph glyph-name="" unicode="&#x153;" d="M364 525 Q231 524 145 441 Q60 359 57 211 Q58 114 115 55 Q171 -4 271 -6 Q336 -6 390 17 Q445 40 485 81 Q512 39 558 17 Q603 -6 665 -6 Q742 -6 790 7 Q839 20 883 45 L844 150 Q808 133 770 122 Q731 110 679 110 Q639 108 610 128 Q580 147 579 205 Q696 203 810 237 Q924 271 933 381 Q933 443 886 485 Q838 526 741 528 Q680 528 627 506 Q573 484 534 441 Q509 481 466 503 Q423 525 364 525 L364 525 ZM345 416 Q395 415 421 383 Q447 350 447 292 Q445 207 401 156 Q357 104 291 103 Q243 103 216 135 Q189 167 189 225 Q191 311 235 363 Q279 415 345 416 L345 416 ZM728 420 Q761 420 780 405 Q798 390 798 367 Q796 323 738 304 Q680 285 584 284 Q595 350 637 385 Q678 420 728 420 L728 420 Z" /><glyph glyph-name="" unicode="&#x178;" d="M89 748 L252 283 L203 0 L341 0 L390 285 Q482 393 552 496 Q621 599 710 748 L556 754 Q500 645 446 558 Q391 472 345 405 L341 405 L245 754 L89 748 ZM256 865 Q256 839 272 821 Q287 803 312 802 Q347 803 371 828 Q395 852 396 887 Q395 914 379 931 Q362 947 337 948 Q306 947 282 923 Q257 899 256 865 L256 865 ZM462 865 Q462 839 478 821 Q493 803 518 802 Q552 803 577 827 Q601 852 602 887 Q601 914 585 931 Q568 947 543 948 Q512 947 488 923 Q463 898 462 865 L462 865 Z" /><glyph glyph-name="" unicode="&#x192;" d="M237 114 Q225 43 200 17 Q176 -9 134 -8 Q120 -8 106 -4 Q92 0 80 6 L24 -107 Q46 -120 72 -126 Q98 -133 136 -133 Q214 -133 278 -81 Q342 -30 362 70 L418 387 L545 387 L576 471 L432 471 L451 588 Q456 621 475 644 Q495 668 531 669 Q566 669 594 653 L646 758 Q627 774 594 782 Q561 790 535 790 Q459 789 400 741 Q341 693 325 610 L302 471 L183 471 L168 392 L287 387 L237 114 Z" /><glyph glyph-name="" unicode="&#x2c6;" d="M360 743 L244 743 L118 585 L206 585 L288 665 L342 585 L430 585 L360 743 Z" /><glyph glyph-name="" unicode="&#x2c7;" d="M450 743 L362 743 L280 662 L226 743 L138 743 L208 585 L324 585 L450 743 Z" /><glyph glyph-name="" unicode="&#x2d8;" d="M139 743 Q139 669 170 630 Q202 591 268 591 Q335 591 384 630 Q433 669 451 743 L380 743 Q367 709 341 691 Q315 672 282 672 Q251 672 231 691 Q211 710 210 743 L139 743 Z" /><glyph glyph-name="" unicode="&#x2d9;" d="M123 652 Q123 626 138 608 Q153 591 179 590 Q214 591 238 615 Q262 639 263 674 Q262 701 246 718 Q229 735 204 735 Q171 734 148 710 Q124 685 123 652 L123 652 Z" /><glyph glyph-name="" unicode="&#x2da;" d="M123 645 Q124 608 146 586 Q168 564 205 564 Q254 565 288 596 Q322 627 323 677 Q322 715 300 737 Q278 759 241 759 Q192 758 158 727 Q124 695 123 645 L123 645 ZM181 653 Q182 675 197 691 Q212 706 232 707 Q247 707 256 696 Q265 685 265 669 Q264 647 250 632 Q235 617 214 616 Q199 616 190 627 Q181 638 181 653 L181 653 Z" /><glyph glyph-name="" unicode="&#x2db;" d="M180 -111 Q148 -111 126 -100 Q104 -88 103 -65 Q104 -40 122 -23 Q139 -6 164 4 L158 58 Q106 47 56 9 Q7 -30 3 -94 Q5 -145 44 -171 Q84 -196 136 -197 L180 -111 Z" /><glyph glyph-name="" unicode="&#x2dc;" d="M441 684 Q417 710 395 718 Q373 726 359 725 Q309 723 279 707 Q249 691 221 689 Q210 689 196 694 Q182 698 165 713 L123 633 Q144 608 165 599 Q186 590 202 591 Q240 593 275 610 Q309 626 340 628 Q350 628 365 623 Q381 618 401 602 L441 684 Z" /><glyph glyph-name="" unicode="&#x2dd;" d="M120 585 L218 585 L352 743 L219 743 L120 585 ZM321 585 L418 585 L553 743 L420 743 L321 585 Z" /><glyph glyph-name="" unicode="&#x3a9;" d="M556 116 L557 120 Q628 176 685 266 Q741 355 744 477 Q743 595 675 673 Q607 751 482 754 Q317 749 211 637 Q106 525 102 361 Q103 282 127 221 Q150 160 185 120 L184 116 L54 116 L34 0 L294 0 L312 97 Q282 134 259 194 Q236 254 235 331 Q237 454 299 544 Q361 633 463 637 Q532 635 566 581 Q600 527 600 445 Q596 324 540 237 Q484 150 421 97 L404 0 L665 0 L685 116 L556 116 Z" /><glyph glyph-name="" unicode="&#x3c0;" d="M491 411 L453 193 Q447 156 446 124 Q446 56 476 25 Q506 -6 563 -6 Q578 -6 595 -2 Q612 1 626 7 L643 105 Q609 105 594 114 Q579 124 579 150 Q579 160 580 172 Q582 184 584 196 L621 411 L700 411 L719 519 L317 519 Q250 519 204 510 Q158 501 125 484 L129 379 Q146 387 172 395 Q197 403 233 408 Q209 301 172 187 Q135 73 99 0 L225 0 Q262 79 298 193 Q333 306 358 411 L491 411 Z" /><glyph glyph-name="" unicode="&#xfb01;" d="M639 519 L302 519 L313 580 Q323 636 348 660 Q373 685 414 684 Q486 682 538 666 Q591 649 617 636 L662 733 Q627 756 559 775 Q490 794 419 795 Q339 797 272 752 Q205 706 184 589 L173 519 L74 519 L60 447 L155 428 L81 -3 Q68 -66 32 -85 Q-4 -105 -48 -103 L-43 -203 Q-31 -209 -18 -211 Q-5 -214 6 -214 Q66 -216 126 -171 Q187 -125 210 -11 L285 422 L492 422 L452 193 Q446 156 446 124 Q446 56 476 25 Q506 -6 562 -6 Q577 -6 594 -2 Q611 1 626 7 L643 105 Q609 105 594 114 Q579 124 579 150 Q579 160 580 172 Q582 184 584 196 L639 519 Z" /><glyph glyph-name="" unicode="&#xfb02;" d="M173 519 L74 519 L60 447 L155 428 L81 -3 Q68 -66 32 -85 Q-4 -105 -48 -103 L-43 -203 Q-31 -209 -18 -211 Q-5 -214 6 -214 Q66 -216 126 -171 Q187 -125 210 -11 L285 422 L417 422 L435 519 L302 519 L313 580 Q325 639 354 661 Q382 683 412 682 Q445 682 473 678 Q500 674 524 666 L441 193 Q434 156 434 124 Q434 56 464 25 Q494 -6 550 -6 Q565 -6 582 -2 Q599 1 614 7 L631 105 Q597 105 582 114 Q567 124 567 150 Q567 160 568 172 Q570 184 572 196 L665 729 Q609 760 545 777 Q480 795 409 795 Q343 797 275 750 Q206 704 184 589 L173 519 Z" /><glyph glyph-name="" unicode="&#x2013;" d="M511 241 L530 343 L58 343 L39 241 L511 241 Z" /><glyph glyph-name="" unicode="&#x2014;" d="M767 241 L786 343 L63 343 L44 241 L767 241 Z" /><glyph glyph-name="" unicode="&#x2018;" d="M237 528 Q237 555 222 577 Q207 598 181 599 L264 732 L207 754 Q161 701 120 628 Q80 555 77 503 Q77 472 95 452 Q113 431 143 430 Q181 431 208 460 Q236 488 237 528 L237 528 Z" /><glyph glyph-name="" unicode="&#x2019;" d="M103 656 Q103 628 118 607 Q133 586 160 585 L77 451 L134 430 Q180 483 221 556 Q261 629 264 681 Q264 712 246 733 Q228 753 198 754 Q160 753 132 724 Q104 696 103 656 L103 656 Z" /><glyph glyph-name="" unicode="&#x201a;" d="M70 66 Q70 38 85 17 Q100 -4 126 -5 L42 -139 L100 -160 Q146 -107 186 -34 Q227 39 230 91 Q230 122 212 143 Q194 163 164 164 Q126 163 99 134 Q71 106 70 66 L70 66 Z" /><glyph glyph-name="" unicode="&#x201c;" d="M238 528 Q238 555 223 577 Q208 598 182 599 L265 732 L207 754 Q161 701 121 628 Q80 555 77 503 Q77 472 95 452 Q113 431 143 430 Q182 431 209 460 Q237 488 238 528 L238 528 ZM463 528 Q463 555 448 577 Q433 598 406 599 L489 732 L431 754 Q385 701 345 628 Q304 555 301 503 Q301 472 319 452 Q337 431 367 430 Q406 431 434 460 Q462 488 463 528 L463 528 Z" /><glyph glyph-name="" unicode="&#x201d;" d="M355 656 Q355 628 370 607 Q385 586 412 585 L329 451 L387 430 Q433 483 473 556 Q514 629 517 681 Q517 712 499 733 Q481 753 451 754 Q413 753 385 724 Q356 696 355 656 L355 656 ZM131 656 Q131 628 146 607 Q161 586 188 585 L105 451 L163 430 Q208 483 249 556 Q289 629 292 681 Q292 712 274 733 Q257 753 227 754 Q188 753 160 724 Q132 696 131 656 L131 656 Z" /><glyph glyph-name="" unicode="&#x201e;" d="M295 66 Q295 38 310 17 Q324 -4 350 -5 L268 -139 L325 -160 Q371 -107 412 -34 Q453 39 456 91 Q456 122 438 143 Q420 163 390 164 Q351 163 324 134 Q296 106 295 66 L295 66 ZM70 66 Q70 38 85 17 Q100 -4 126 -5 L43 -139 L101 -160 Q147 -107 188 -34 Q229 39 232 91 Q232 122 214 143 Q196 163 166 164 Q127 163 99 134 Q71 106 70 66 L70 66 Z" /><glyph glyph-name="" unicode="&#x2020;" d="M356 564 L405 748 L291 748 L273 564 L356 564 ZM255 457 L146 -78 L260 -78 L337 457 L255 457 ZM347 466 L514 450 L535 571 L363 555 L312 510 L347 466 ZM262 555 L95 571 L74 450 L246 466 L298 510 L262 555 Z" /><glyph glyph-name="" unicode="&#x2021;" d="M230 105 L182 -78 L296 -78 L313 105 L230 105 ZM239 204 L72 220 L51 99 L223 115 L275 159 L239 204 ZM324 115 L491 99 L512 220 L340 204 L288 159 L324 115 ZM392 564 L441 748 L327 748 L309 564 L392 564 ZM331 214 L373 457 L291 457 L249 214 L331 214 ZM383 466 L550 450 L571 571 L399 555 L347 510 L383 466 ZM298 555 L131 571 L110 450 L282 466 L334 510 L298 555 Z" /><glyph glyph-name="" unicode="&#x2022;" d="M338 390 Q337 438 310 470 Q282 502 236 503 Q177 501 133 459 Q89 416 87 354 Q88 306 116 276 Q144 245 190 244 Q249 246 293 287 Q336 328 338 390 L338 390 Z" /><glyph glyph-name="" unicode="&#x2026;" d="M82 65 Q82 34 100 15 Q118 -5 148 -6 Q186 -5 214 23 Q243 50 244 91 Q244 122 226 143 Q208 163 178 164 Q140 163 112 134 Q83 106 82 65 L82 65 ZM372 65 Q372 34 390 15 Q408 -5 438 -6 Q476 -5 504 23 Q532 50 533 91 Q533 122 515 143 Q498 163 468 164 Q429 163 401 134 Q373 106 372 65 L372 65 ZM661 65 Q661 34 679 15 Q697 -5 727 -6 Q766 -5 794 23 Q822 50 823 91 Q823 122 805 143 Q787 163 757 164 Q719 163 691 134 Q662 106 661 65 L661 65 Z" /><glyph glyph-name="" unicode="&#x2030;" d="M835 748 L751 750 L173 0 L258 -2 L835 748 ZM131 537 Q132 469 172 424 Q213 380 279 378 Q363 381 426 442 Q488 504 491 594 Q490 662 450 707 Q411 752 345 754 Q259 752 197 690 Q134 628 131 537 L131 537 ZM521 154 Q522 85 562 40 Q602 -4 667 -6 Q753 -3 815 59 Q878 121 881 211 Q880 279 840 324 Q800 369 734 371 Q649 369 587 307 Q524 245 521 154 L521 154 ZM228 550 Q229 594 260 628 Q290 661 331 663 Q364 662 380 638 Q395 614 395 581 Q394 537 363 504 Q333 471 292 469 Q259 470 244 494 Q228 518 228 550 L228 550 ZM617 167 Q619 211 649 245 Q679 278 720 280 Q754 279 769 255 Q785 231 785 198 Q783 154 753 120 Q722 87 681 85 Q648 86 633 110 Q617 134 617 167 L617 167 ZM924 154 Q925 85 965 40 Q1004 -4 1070 -6 Q1156 -3 1218 59 Q1281 121 1284 211 Q1283 279 1243 324 Q1202 369 1136 371 Q1052 369 990 307 Q927 245 924 154 L924 154 ZM1020 167 Q1022 211 1052 245 Q1082 278 1123 280 Q1156 279 1172 255 Q1188 231 1188 198 Q1187 154 1156 120 Q1125 87 1083 85 Q1051 86 1035 110 Q1020 134 1020 167 L1020 167 Z" /><glyph glyph-name="" unicode="&#x2039;" d="M272 596 L80 367 L78 359 L191 131 L271 183 L185 364 L334 544 L272 596 Z" /><glyph glyph-name="" unicode="&#x203a;" d="M128 544 L212 364 L65 183 L126 131 L318 359 L320 367 L207 596 L128 544 Z" /><glyph glyph-name="" unicode="&#x2044;" d="M-70 -6 L482 748 L397 754 L-149 0 L-70 -6 Z" /><glyph glyph-name="" unicode="&#x20ac;" d="M149 254 Q149 129 201 62 Q253 -4 360 -5 Q413 -5 462 11 Q512 28 561 60 L528 167 Q490 138 452 124 Q415 110 378 110 Q331 110 308 148 Q284 185 282 254 L460 254 L486 328 L287 328 Q289 348 293 372 Q297 396 302 414 L512 414 L537 488 L321 488 Q347 566 386 602 Q424 638 472 638 Q509 638 540 626 Q570 614 598 587 L667 694 Q630 722 587 738 Q544 754 490 754 Q383 754 306 687 Q230 619 188 488 L121 488 L104 431 L169 414 Q164 395 160 371 Q156 348 154 328 L96 328 L78 271 L149 254 Z" /><glyph glyph-name="" unicode="&#x2122;" d="M639 465 L760 615 L763 614 L728 412 L794 412 L853 748 L800 748 L654 564 L573 748 L521 748 L462 412 L528 412 L563 614 L567 615 L633 465 L639 465 ZM472 748 L188 748 L177 689 L286 689 L237 412 L303 412 L352 689 L461 689 L472 748 Z" /><glyph glyph-name="" unicode="&#x2202;" d="M388 415 Q422 415 445 399 Q468 382 482 352 Q476 254 435 180 Q394 107 324 103 Q275 103 250 135 Q226 166 226 227 Q228 314 273 364 Q319 414 388 415 L388 415 ZM296 -6 Q451 -8 540 111 Q629 230 631 493 Q629 667 569 733 Q509 798 421 795 Q359 795 305 776 Q250 756 206 723 L252 642 Q270 656 307 671 Q344 687 393 688 Q446 689 477 656 Q508 623 509 545 Q509 529 509 508 Q508 486 507 462 L503 461 Q483 489 451 507 Q419 524 374 525 Q253 523 174 439 Q96 355 93 209 Q94 108 148 51 Q201 -5 296 -6 L296 -6 Z" /><glyph glyph-name="" unicode="&#x2206;" d="M480 748 L382 748 L-20 37 L-7 0 L629 0 L643 37 L480 748 ZM161 116 L395 557 L399 557 L487 116 L161 116 Z" /><glyph glyph-name="" unicode="&#x220f;" d="M267 0 L378 632 L592 632 L481 0 L620 0 L730 632 L807 632 L827 748 L182 748 L162 632 L239 632 L129 0 L267 0 Z" /><glyph glyph-name="" unicode="&#x2211;" d="M145 697 L300 378 L24 51 L29 0 L550 0 L570 116 L235 116 L235 121 L447 373 L330 627 L332 632 L647 632 L668 748 L163 748 L145 697 Z" /><glyph glyph-name="" unicode="&#x221a;" d="M305 -155 L725 846 L634 846 L284 12 L280 12 L248 412 L80 412 L64 316 L155 316 L201 -155 L305 -155 Z" /><glyph glyph-name="" unicode="&#x221e;" d="M579 183 Q650 185 701 235 Q752 285 754 360 Q753 417 721 452 Q688 488 633 489 Q583 488 534 461 Q485 433 436 387 Q403 433 364 461 Q325 488 276 489 Q205 487 154 437 Q102 386 100 311 Q101 255 134 220 Q167 184 223 183 Q272 184 321 211 Q369 239 418 284 Q451 239 490 211 Q530 184 579 183 L579 183 ZM592 260 Q551 261 525 282 Q498 304 478 336 Q509 368 543 390 Q577 411 619 412 Q646 411 663 394 Q680 376 680 348 Q679 310 653 286 Q628 261 592 260 L592 260 ZM236 260 Q209 261 192 279 Q175 296 175 324 Q176 361 202 386 Q228 411 263 412 Q304 411 331 390 Q357 368 377 336 Q346 304 312 282 Q278 261 236 260 L236 260 Z" /><glyph glyph-name="" unicode="&#x222b;" d="M317 735 Q331 806 367 822 Q403 838 446 835 L442 912 Q430 917 417 920 Q404 923 393 923 Q335 925 288 880 Q241 834 220 720 L99 24 Q86 -43 50 -60 Q14 -78 -30 -75 L-26 -152 Q-14 -158 -1 -160 Q13 -163 24 -163 Q82 -165 129 -120 Q176 -74 197 40 L317 735 Z" /><glyph glyph-name="" unicode="&#x2248;" d="M258 462 Q230 463 210 478 Q191 492 176 504 L113 416 Q151 386 177 372 Q203 359 242 359 Q305 362 353 383 Q401 403 440 406 Q469 405 492 390 Q515 375 530 362 L594 449 Q557 480 529 494 Q500 509 457 509 Q397 506 349 486 Q302 465 258 462 L258 462 ZM225 270 Q197 271 177 286 Q157 300 143 313 L80 225 Q117 195 144 181 Q170 168 209 168 Q272 171 320 192 Q368 212 407 215 Q436 214 459 198 Q482 183 496 171 L560 258 Q524 289 495 303 Q466 317 423 317 Q363 314 316 294 Q269 273 225 270 L225 270 Z" /><glyph glyph-name="" unicode="&#x2260;" d="M120 382 L366 382 L367 378 L283 293 L105 293 L87 191 L182 191 L183 187 L119 121 L155 82 L263 191 L593 191 L610 293 L362 293 L362 297 L446 382 L626 382 L644 485 L548 485 L547 489 L613 556 L576 594 L468 485 L138 485 L120 382 Z" /><glyph glyph-name="" unicode="&#x2264;" d="M566 171 L585 282 L270 396 L271 400 L626 514 L645 625 L158 449 L140 347 L566 171 ZM541 24 L559 126 L99 126 L82 24 L541 24 Z" /><glyph glyph-name="" unicode="&#x2265;" d="M601 347 L619 449 L194 625 L174 514 L488 400 L487 396 L134 282 L114 171 L601 347 ZM547 24 L564 126 L105 126 L88 24 L547 24 Z" /><glyph glyph-name="" unicode="&#x25ca;" d="M610 374 L467 777 L384 777 L97 374 L241 -29 L323 -29 L610 374 ZM501 374 L306 104 L206 374 L402 642 L501 374 Z" /><glyph glyph-name="" unicode="¦" d="M200 806 L131 407 L228 407 L298 806 L200 806 ZM102 244 L32 -155 L130 -155 L199 244 L102 244 Z" /><glyph glyph-name="" unicode="²" d="M351 301 L363 384 L193 384 L193 389 Q238 434 318 484 Q397 533 406 629 Q406 678 371 712 Q336 746 270 748 Q226 750 186 732 Q146 714 104 651 L180 611 Q201 641 219 652 Q237 664 254 663 Q282 663 295 649 Q308 636 308 616 Q301 548 220 504 Q139 459 63 358 L78 301 L351 301 Z" /><glyph glyph-name="" unicode="³" d="M385 449 Q385 494 360 526 Q336 557 286 573 L286 577 L402 682 L394 748 L159 748 L148 673 L285 673 L288 669 L180 573 L197 518 Q235 518 259 505 Q284 491 285 458 Q283 420 261 404 Q238 388 213 388 Q193 388 168 397 Q144 405 126 418 L77 345 Q109 323 143 312 Q176 301 206 301 Q287 302 336 342 Q384 382 385 449 L385 449 Z" /><glyph glyph-name="" unicode="¹" d="M221 623 L177 301 L279 301 L344 748 L274 748 L126 662 L145 597 L221 623 Z" /><glyph glyph-name="" unicode="¼" d="M196 -6 L748 748 L664 754 L118 0 L196 -6 ZM713 310 L686 172 L592 172 L590 175 Q642 250 675 319 Q709 388 726 449 L626 460 Q608 393 568 314 Q528 235 452 129 L466 92 L676 92 L664 0 L764 0 L777 92 L816 92 L830 172 L788 172 L810 315 L713 310 ZM187 623 L143 301 L246 301 L311 748 L240 748 L92 662 L111 597 L187 623 Z" /><glyph glyph-name="" unicode="½" d="M196 -6 L748 748 L664 754 L118 0 L196 -6 ZM187 623 L143 301 L245 301 L310 748 L240 748 L92 662 L111 597 L187 623 ZM805 0 L817 83 L647 83 L647 87 Q692 132 772 182 Q851 231 860 327 Q860 377 825 411 Q790 446 724 447 Q680 449 640 431 Q600 413 558 350 L634 310 Q655 339 673 351 Q691 362 708 361 Q736 361 749 347 Q762 334 762 314 Q755 247 674 202 Q593 157 517 56 L532 0 L805 0 Z" /><glyph glyph-name="" unicode="¾" d="M218 -6 L770 748 L687 754 L141 0 L218 -6 ZM729 310 L702 172 L607 172 L606 175 Q658 250 691 319 Q725 388 742 449 L642 460 Q624 393 584 314 Q544 235 468 129 L482 92 L692 92 L680 0 L780 0 L793 92 L832 92 L846 172 L804 172 L826 315 L729 310 ZM358 449 Q358 494 333 526 Q308 557 258 573 L259 577 L375 682 L367 748 L132 748 L120 673 L258 673 L260 669 L153 573 L170 518 Q208 518 232 504 Q256 490 257 458 Q255 420 233 404 Q210 388 186 388 Q166 388 141 397 Q116 405 98 418 L50 345 Q81 323 115 312 Q148 301 178 301 Q259 302 308 342 Q357 382 358 449 L358 449 Z" /><glyph glyph-name="" unicode="ð" d="M316 0 Q515 6 624 134 Q732 263 733 447 Q733 578 663 662 Q593 745 450 748 L201 748 L145 431 L72 431 L52 318 L125 318 L70 0 L316 0 ZM229 116 L264 318 L409 318 L428 431 L284 431 L318 632 L419 632 Q507 631 550 577 Q593 523 593 432 Q592 295 521 207 Q450 119 323 116 L229 116 Z" /><glyph glyph-name="" unicode="×" d="M129 91 L325 265 L458 91 L541 163 L407 338 L602 512 L545 586 L350 410 L216 586 L135 512 L269 338 L74 163 L129 91 Z" /><glyph glyph-name="" unicode="ý" d="M89 748 L252 283 L203 0 L341 0 L390 285 Q482 393 552 496 Q621 599 710 748 L556 754 Q500 645 446 558 Q391 472 345 405 L341 405 L245 754 L89 748 ZM344 795 L451 795 L599 953 L456 953 L344 795 Z" /><glyph glyph-name="" unicode="þ" d="M86 0 L224 0 L241 98 L357 98 Q482 101 577 190 Q672 278 677 417 Q675 522 614 585 Q552 649 454 651 L338 651 L355 748 L217 748 L86 0 ZM262 218 L317 531 L415 531 Q469 530 503 494 Q536 459 537 400 Q534 320 482 270 Q430 220 358 218 L262 218 Z" /><glyph glyph-name="" unicode="ð" d="M633 714 L590 766 L474 711 Q435 746 401 764 Q367 782 326 795 L261 707 Q288 698 314 684 Q341 670 360 655 L251 607 L290 551 L412 607 Q442 571 457 530 Q472 489 475 447 L472 446 Q454 473 420 489 Q385 504 340 504 Q220 503 143 425 Q66 348 63 209 Q64 108 118 51 Q171 -5 266 -6 Q420 -6 507 102 Q594 210 595 421 Q595 498 575 559 Q556 619 524 661 L633 714 ZM355 398 Q389 397 414 378 Q438 359 452 329 Q448 238 407 172 Q366 106 291 103 Q247 103 221 133 Q196 163 195 220 Q197 302 242 350 Q287 397 355 398 L355 398 Z" /><glyph glyph-name="" unicode="ý" d="M561 412 Q560 474 532 501 Q504 529 460 528 Q446 528 430 524 Q413 520 400 515 L382 416 Q401 417 414 410 Q427 402 427 379 Q425 336 389 254 Q353 172 312 120 L217 525 L77 519 L212 0 Q162 -55 115 -82 Q68 -109 11 -109 L18 -200 Q30 -207 45 -211 Q59 -214 69 -214 Q215 -195 381 18 Q547 230 561 412 L561 412 ZM277 585 L384 585 L532 743 L389 743 L277 585 Z" /><glyph glyph-name="" unicode="þ" d="M461 301 Q460 216 425 164 Q390 111 331 110 Q300 110 278 121 Q256 132 238 152 L274 366 Q300 387 327 398 Q353 409 385 409 Q422 409 441 381 Q461 352 461 301 L461 301 ZM219 790 L43 -214 L174 -208 L217 36 L221 38 Q244 16 270 5 Q296 -6 323 -6 Q446 -4 518 85 Q591 173 593 322 Q593 418 547 472 Q502 525 417 526 Q387 526 358 515 Q328 503 298 482 L295 483 L349 795 L219 790 Z" /><glyph glyph-name="" unicode="&#x141;" d="M255 116 L292 327 L537 523 L488 577 L312 436 L366 748 L227 748 L151 309 L24 206 L67 147 L131 199 L97 0 L559 0 L579 116 L255 116 Z" /><glyph glyph-name="" unicode="&#x142;" d="M401 499 L352 554 L273 490 L326 795 L196 791 L121 368 L-2 269 L41 210 L102 260 L91 193 Q88 173 86 156 Q84 140 84 124 Q84 56 114 25 Q144 -6 200 -6 Q215 -6 232 -2 Q249 1 263 7 L281 105 Q247 105 232 114 Q217 124 217 150 Q217 160 218 172 Q220 184 222 196 L254 381 L401 499 Z" /><glyph glyph-name="" unicode="&#x160;" d="M41 124 Q102 50 163 21 Q225 -7 294 -6 Q419 -5 491 55 Q564 114 565 224 Q546 367 411 416 Q275 465 256 545 Q258 593 294 616 Q331 638 384 638 Q409 638 435 632 Q460 627 485 616 L477 524 L570 524 L616 685 Q573 716 517 735 Q462 754 393 754 Q265 753 194 693 Q122 633 121 532 Q140 392 272 345 Q404 298 423 208 Q422 161 387 136 Q353 110 302 110 Q248 111 207 139 Q166 167 131 211 L41 124 ZM595 953 L507 953 L425 872 L371 953 L283 953 L353 795 L469 795 L595 953 Z" /><glyph glyph-name="" unicode="&#x161;" d="M311 146 Q311 120 292 107 Q272 94 236 94 Q208 94 170 108 Q133 122 91 157 L28 69 Q85 22 137 6 Q189 -10 232 -9 Q327 -10 386 31 Q445 71 447 159 Q433 267 332 300 Q231 333 217 376 Q218 405 243 417 Q268 428 302 428 Q318 428 329 425 Q341 422 357 415 L355 359 L453 359 L477 486 Q434 507 388 518 Q343 528 296 528 Q186 526 135 479 Q84 432 85 363 Q99 256 198 222 Q297 189 311 146 L311 146 ZM503 743 L415 743 L333 662 L279 743 L191 743 L261 585 L377 585 L503 743 Z" /><glyph glyph-name="" unicode="&#x17d;" d="M1 61 L52 -13 Q79 6 101 13 Q124 19 150 19 Q196 17 258 -1 Q320 -18 389 -21 Q435 -21 485 -10 Q535 2 572 24 L537 131 Q499 112 467 105 Q435 99 414 99 Q369 101 319 113 Q269 124 216 126 L214 130 L659 683 L646 748 L147 748 L127 636 L465 636 L1 61 ZM579 953 L491 953 L409 872 L355 953 L267 953 L337 795 L453 795 L579 953 Z" /><glyph glyph-name="" unicode="&#x17e;" d="M101 412 L346 412 L348 408 L20 71 L74 -13 Q98 5 119 12 Q140 19 165 19 Q200 17 254 0 Q308 -18 370 -20 Q448 -20 506 24 L472 127 Q444 108 419 102 Q395 96 373 97 Q337 99 302 109 Q266 120 234 121 L232 125 L528 430 L513 519 L119 519 L101 412 ZM518 743 L430 743 L348 662 L294 743 L206 743 L276 585 L392 585 L518 743 Z" /><glyph glyph-name="" unicode="&#x2212;" d="M103 287 L609 287 L628 389 L122 389 L103 287 Z" /><glyph glyph-name="" unicode="&#x106;" d="M393 795 L501 795 L649 953 L506 953 L393 795 ZM367 110 Q273 111 232 166 Q191 220 192 317 Q193 442 261 538 Q328 633 453 638 Q488 638 517 630 Q545 622 570 609 L563 488 L656 488 L707 679 Q657 714 600 734 Q543 754 472 754 Q267 748 160 617 Q53 487 52 303 Q51 170 124 84 Q196 -3 352 -6 Q423 -7 498 26 Q572 59 630 143 L539 214 Q509 170 466 141 Q423 111 367 110 L367 110 Z" /><glyph glyph-name="" unicode="&#x10c;" d="M658 953 L570 953 L488 872 L433 953 L345 953 L416 795 L532 795 L658 953 ZM367 110 Q273 111 232 166 Q191 220 192 317 Q193 442 261 538 Q328 633 453 638 Q488 638 517 630 Q545 622 570 609 L563 488 L656 488 L707 679 Q657 714 600 734 Q543 754 472 754 Q267 748 160 617 Q53 487 52 303 Q51 170 124 84 Q196 -3 352 -6 Q423 -7 498 26 Q572 59 630 143 L539 214 Q509 170 466 141 Q423 111 367 110 L367 110 Z" /><glyph glyph-name="" unicode="&#x110;" d="M316 0 Q515 6 624 134 Q732 263 733 447 Q733 578 663 662 Q593 745 450 748 L201 748 L145 431 L72 431 L52 318 L125 318 L70 0 L316 0 ZM229 116 L264 318 L409 318 L428 431 L284 431 L318 632 L419 632 Q507 631 550 577 Q593 523 593 432 Q592 295 521 207 Q450 119 323 116 L229 116 Z" /><glyph glyph-name="" unicode="&#x107;" d="M295 585 L403 585 L551 743 L408 743 L295 585 ZM354 525 Q220 523 137 444 Q54 365 52 226 Q53 115 114 55 Q174 -5 281 -6 Q329 -7 380 10 Q430 26 483 66 L430 156 Q391 128 356 118 Q321 109 294 110 Q245 110 215 141 Q185 172 184 233 Q186 314 230 361 Q274 408 339 409 Q358 409 372 407 Q386 404 400 399 L395 309 L491 309 L524 474 Q490 498 451 512 Q411 525 354 525 L354 525 Z" /><glyph glyph-name="" unicode="&#x10d;" d="M546 743 L457 743 L375 662 L321 743 L233 743 L303 585 L420 585 L546 743 ZM354 525 Q220 523 137 444 Q54 365 52 226 Q53 115 114 55 Q174 -5 281 -6 Q329 -7 380 10 Q430 26 483 66 L430 156 Q391 128 356 118 Q321 109 294 110 Q245 110 215 141 Q185 172 184 233 Q186 314 230 361 Q274 408 339 409 Q358 409 372 407 Q386 404 400 399 L395 309 L491 309 L524 474 Q490 498 451 512 Q411 525 354 525 L354 525 Z" /><glyph glyph-name="" unicode="&#x111;" d="M481 611 L460 492 Q435 509 403 517 Q371 525 338 525 Q214 523 136 437 Q58 351 56 204 Q57 105 105 50 Q153 -5 232 -6 Q277 -5 323 15 Q369 35 404 69 L409 69 Q420 31 447 12 Q475 -6 517 -6 Q532 -6 549 -2 Q566 1 580 7 L598 105 Q564 105 549 114 Q534 124 534 150 Q534 160 535 172 Q537 184 539 196 L611 611 L687 611 L700 685 L624 685 L643 795 L513 791 L494 685 L340 685 L329 622 L481 611 ZM188 227 Q190 312 230 360 Q271 408 329 409 Q366 409 391 400 Q416 391 439 372 L407 184 Q381 152 349 131 Q316 111 278 110 Q238 110 213 140 Q189 169 188 227 L188 227 Z" /><glyph glyph-name="" unicode="&#x403;" d="M623 632 L644 748 L185 748 L54 0 L192 0 L302 632 L623 632 ZM361 795 L469 795 L617 953 L473 953 L361 795 Z" /><glyph glyph-name="" unicode="&#x405;" d="M30 124 Q91 50 152 21 Q214 -7 283 -6 Q408 -5 480 55 Q553 114 554 224 Q535 367 400 416 Q264 465 245 545 Q247 593 283 616 Q320 638 373 638 Q398 638 424 632 Q449 627 474 616 L466 524 L559 524 L605 685 Q562 716 506 735 Q451 754 382 754 Q254 753 183 693 Q111 633 110 532 Q129 392 261 345 Q393 298 412 208 Q411 161 376 136 Q342 110 291 110 Q237 111 196 139 Q155 167 120 211 L30 124 Z" /><glyph glyph-name="" unicode="&#x408;" d="M20 179 Q39 72 99 32 Q159 -8 235 -6 Q344 -5 408 68 Q471 140 493 269 L577 748 L439 748 L352 250 Q340 184 311 147 Q282 111 232 110 Q191 110 168 135 Q145 160 138 214 L20 179 Z" /><glyph glyph-name="" unicode="&#x409;" d="M750 331 Q796 331 824 307 Q851 283 852 240 Q852 195 818 157 Q784 118 711 116 L621 116 L659 331 L750 331 ZM426 632 L573 632 L462 0 L709 0 Q836 2 913 72 Q990 143 992 260 Q991 344 934 394 Q877 444 773 445 L679 445 L732 748 L201 748 L179 665 L296 644 L227 423 Q178 264 121 185 Q64 105 -8 105 L-1 -7 Q9 -11 23 -12 Q37 -14 44 -14 Q151 -11 222 93 Q292 198 345 374 L426 632 Z" /><glyph glyph-name="" unicode="&#x40a;" d="M630 116 L668 331 L759 331 Q805 331 833 307 Q860 283 861 240 Q861 194 827 156 Q792 118 720 116 L630 116 ZM687 445 L740 748 L602 748 L549 445 L268 445 L321 748 L183 748 L52 0 L190 0 L248 331 L529 331 L471 0 L718 0 Q845 2 923 72 Q1000 143 1002 260 Q1001 344 944 394 Q887 444 781 445 L687 445 Z" /><glyph glyph-name="" unicode="&#x40c;" d="M385 795 L493 795 L641 953 L498 953 L385 795 ZM333 439 L266 439 L321 748 L183 748 L52 0 L190 0 L248 331 L327 331 Q390 262 435 132 Q481 2 594 -13 Q608 -13 620 -10 Q631 -8 641 -4 L645 105 Q570 115 540 218 Q510 320 437 394 L590 597 Q613 628 632 637 Q651 646 680 645 L697 745 Q687 750 670 753 Q653 757 629 757 Q586 756 558 734 Q529 712 507 680 L333 439 Z" /><glyph glyph-name="" unicode="&#x40f;" d="M387 -153 L414 0 L653 0 L784 748 L646 748 L535 116 L210 116 L321 748 L183 748 L52 0 L288 0 L260 -162 L387 -153 Z" /><glyph glyph-name="" unicode="&#x410;" d="M492 632 L592 632 L535 307 L308 307 L492 632 ZM253 748 L232 665 L365 644 L-15 0 L133 -6 L245 194 L515 194 L481 0 L619 0 L750 748 L253 748 Z" /><glyph glyph-name="" unicode="&#x411;" d="M52 0 L350 0 Q482 2 559 77 Q637 152 639 271 Q638 358 585 410 Q531 462 431 463 L271 463 L300 632 L633 632 L654 748 L183 748 L52 0 ZM250 348 L393 348 Q443 348 471 322 Q499 297 499 251 Q499 203 463 161 Q427 119 352 116 L210 116 L250 348 Z" /><glyph glyph-name="" unicode="&#x412;" d="M268 445 L301 636 L452 636 Q495 636 518 613 Q541 591 541 552 Q539 503 504 475 Q470 446 431 445 L268 445 ZM413 331 Q457 330 485 302 Q512 274 513 233 Q515 195 482 155 Q448 115 360 112 L210 112 L249 331 L413 331 ZM678 586 Q678 656 628 701 Q579 746 484 748 L183 748 L52 0 L360 0 Q498 2 574 69 Q649 135 650 236 Q649 291 618 332 Q587 373 539 388 L540 392 Q612 424 645 477 Q678 530 678 586 L678 586 Z" /><glyph glyph-name="" unicode="&#x413;" d="M621 632 L642 748 L183 748 L52 0 L190 0 L300 632 L621 632 Z" /><glyph glyph-name="" unicode="&#x414;" d="M-48 -162 L71 -153 L99 0 L540 0 L512 -162 L632 -153 L679 116 L600 116 L711 748 L179 748 L157 665 L283 644 Q224 439 180 328 Q136 217 74 116 L0 116 L-48 -162 ZM409 632 L552 632 L462 116 L220 116 Q271 205 320 342 Q369 479 409 632 L409 632 Z" /><glyph glyph-name="" unicode="&#x415;" d="M187 748 L55 0 L563 0 L583 116 L213 116 L251 332 L574 332 L593 445 L270 445 L303 632 L667 632 L688 748 L187 748 Z" /><glyph glyph-name="" unicode="&#x416;" d="M673 439 L606 439 L661 748 L531 748 L477 439 L412 439 L323 680 Q313 712 293 734 Q272 756 230 757 Q206 757 187 753 Q168 750 157 745 L140 645 Q170 646 188 639 Q207 631 219 600 L299 397 Q207 325 147 220 Q87 116 6 105 L-11 -4 Q0 -8 16 -10 Q33 -13 53 -13 Q157 1 233 131 Q308 260 382 331 L458 331 L400 0 L530 0 L588 331 L667 331 Q728 262 773 132 Q817 2 928 -13 Q942 -13 954 -10 Q965 -8 975 -4 L979 105 Q906 115 877 218 Q848 320 777 394 L924 597 Q946 628 966 637 Q985 646 1014 645 L1031 745 Q1021 750 1004 753 Q987 757 963 757 Q920 756 892 735 Q863 713 841 680 L673 439 Z" /><glyph glyph-name="" unicode="&#x417;" d="M220 -6 Q379 -3 456 65 Q533 133 533 234 Q532 291 502 332 Q471 372 422 387 L422 391 Q491 419 529 473 Q567 526 568 587 Q567 658 512 705 Q457 752 359 754 Q290 754 223 736 Q156 718 105 685 L95 524 L188 524 L213 615 Q241 626 272 632 Q304 638 331 638 Q369 638 396 617 Q424 597 425 560 Q423 507 387 473 Q350 439 300 438 L231 438 L212 331 L294 331 Q339 331 367 306 Q394 282 395 239 Q396 193 360 153 Q324 112 237 109 Q193 109 150 130 Q106 152 68 193 L-8 90 Q36 47 92 21 Q148 -5 220 -6 L220 -6 Z" /><glyph glyph-name="" unicode="&#x418;" d="M594 480 L598 479 L515 0 L653 0 L784 748 L711 748 L240 261 L236 262 L321 748 L183 748 L52 0 L129 0 L594 480 Z" /><glyph glyph-name="" unicode="&#x41a;" d="M333 439 L266 439 L321 748 L183 748 L52 0 L190 0 L248 331 L327 331 Q390 262 435 132 Q481 2 594 -13 Q608 -13 620 -10 Q631 -8 641 -4 L645 105 Q570 115 540 218 Q510 320 437 394 L590 597 Q613 628 632 637 Q651 646 680 645 L697 745 Q687 750 670 753 Q653 757 629 757 Q586 756 558 734 Q529 712 507 680 L333 439 Z" /><glyph glyph-name="" unicode="&#x41b;" d="M44 -14 Q151 -11 222 93 Q292 198 345 374 L426 632 L574 632 L463 0 L601 0 L733 748 L201 748 L179 665 L296 644 L226 423 Q172 250 117 177 Q63 103 -8 105 L-1 -7 Q9 -11 23 -12 Q37 -14 44 -14 L44 -14 Z" /><glyph glyph-name="" unicode="&#x41c;" d="M455 168 L687 456 L691 455 L611 -1 L749 -1 L880 748 L787 748 L457 330 L277 748 L183 748 L52 -1 L190 -1 L270 456 L274 458 L402 168 L455 168 Z" /><glyph glyph-name="" unicode="&#x41d;" d="M190 0 L248 331 L573 331 L515 0 L653 0 L784 748 L646 748 L592 445 L268 445 L321 748 L183 748 L52 0 L190 0 Z" /><glyph glyph-name="" unicode="&#x41e;" d="M472 754 Q274 749 164 620 Q54 490 52 300 Q52 165 124 81 Q196 -3 339 -6 Q537 -1 647 128 Q758 258 760 448 Q760 583 688 667 Q616 751 472 754 L472 754 ZM457 637 Q543 635 581 576 Q620 517 619 426 Q618 305 547 210 Q477 115 355 110 Q269 112 231 171 Q192 231 193 322 Q195 443 265 538 Q336 632 457 637 L457 637 Z" /><glyph glyph-name="" unicode="&#x41f;" d="M190 0 L301 632 L625 632 L515 0 L653 0 L784 748 L183 748 L52 0 L190 0 Z" /><glyph glyph-name="" unicode="&#x420;" d="M183 748 L52 0 L190 0 L232 238 L373 238 Q497 241 588 325 Q679 408 683 531 Q681 626 621 686 Q561 746 463 748 L183 748 ZM432 636 Q484 635 513 601 Q542 567 543 515 Q541 444 493 397 Q444 351 379 349 L251 349 L302 636 L432 636 Z" /><glyph glyph-name="" unicode="&#x421;" d="M367 110 Q273 111 232 166 Q191 220 192 317 Q193 442 261 538 Q328 633 453 638 Q488 638 517 630 Q545 622 570 609 L563 488 L656 488 L707 679 Q657 714 600 734 Q543 754 472 754 Q267 748 160 617 Q53 487 52 303 Q51 170 124 84 Q196 -3 352 -6 Q423 -7 498 26 Q572 59 630 143 L539 214 Q509 170 466 141 Q423 111 367 110 L367 110 Z" /><glyph glyph-name="" unicode="&#x422;" d="M660 748 L101 748 L80 632 L291 632 L180 0 L318 0 L429 632 L640 632 L660 748 Z" /><glyph glyph-name="" unicode="&#x423;" d="M70 -6 Q80 -10 94 -12 Q108 -14 115 -14 Q230 -16 391 167 Q552 351 740 748 L601 754 Q536 617 477 512 Q417 407 355 322 L225 754 L82 748 L257 208 Q203 156 154 130 Q104 105 63 105 L70 -6 Z" /><glyph glyph-name="" unicode="&#x424;" d="M479 0 L493 82 L572 82 Q704 86 802 181 Q900 277 905 420 Q903 528 840 597 Q777 667 675 669 L596 669 L610 748 L477 748 L463 669 L384 669 Q252 665 154 569 Q57 473 52 330 Q54 222 116 153 Q178 84 281 82 L360 82 L346 0 L479 0 ZM642 548 Q702 547 736 506 Q770 466 771 403 Q768 318 713 261 Q657 204 579 202 L514 202 L575 548 L642 548 ZM314 202 Q255 203 220 244 Q186 284 185 347 Q188 432 243 489 Q299 546 377 548 L442 548 L381 202 L314 202 Z" /><glyph glyph-name="" unicode="&#x425;" d="M572 754 Q533 682 487 615 Q440 548 392 492 L290 754 L135 748 L296 394 Q195 293 112 194 Q30 95 -28 0 L131 -6 Q168 54 223 127 Q278 200 354 283 L471 -6 L628 0 L453 378 Q540 472 605 562 Q670 651 724 748 L572 754 Z" /><glyph glyph-name="" unicode="&#x426;" d="M654 -153 L701 116 L623 116 L733 748 L595 748 L484 116 L210 116 L321 748 L183 748 L52 0 L563 0 L535 -162 L654 -153 Z" /><glyph glyph-name="" unicode="&#x427;" d="M477 378 Q438 366 407 362 Q376 357 340 357 Q286 356 259 379 Q231 401 231 456 Q231 468 232 477 Q233 486 235 494 L280 748 L141 748 L100 509 Q96 484 94 465 Q93 445 93 430 Q95 344 153 292 Q211 239 305 237 Q348 237 383 243 Q419 248 455 257 L410 0 L549 0 L680 748 L541 748 L477 378 Z" /><glyph glyph-name="" unicode="&#x428;" d="M52 0 L895 0 L1026 748 L887 748 L777 116 L560 116 L671 748 L538 748 L427 116 L210 116 L321 748 L183 748 L52 0 Z" /><glyph glyph-name="" unicode="&#x430;" d="M514 -6 Q529 -6 546 -2 Q563 1 577 7 L594 105 Q560 105 545 114 Q530 124 530 150 Q530 160 531 172 Q533 184 535 196 L585 485 L468 485 Q441 505 406 515 Q371 525 334 525 Q210 523 132 437 Q54 351 52 204 Q53 105 101 50 Q149 -5 228 -6 Q274 -5 320 15 Q366 35 401 69 L405 69 Q416 31 443 12 Q471 -6 514 -6 L514 -6 ZM184 227 Q186 312 227 360 Q268 407 325 408 Q363 408 388 399 Q414 390 436 371 L403 185 Q377 153 345 132 Q312 111 274 110 Q234 110 209 140 Q185 169 184 227 L184 227 Z" /><glyph glyph-name="" unicode="&#x431;" d="M404 647 Q457 663 494 670 Q532 678 590 696 L582 796 Q514 778 472 769 Q430 760 391 750 Q222 699 140 560 Q59 420 59 234 Q60 114 118 54 Q175 -6 272 -6 Q403 -4 487 80 Q571 164 574 311 Q573 409 521 463 Q468 517 370 518 Q342 518 299 505 Q255 493 229 474 L226 476 Q249 542 296 586 Q343 629 404 647 L404 647 ZM345 408 Q394 408 420 377 Q447 347 447 290 Q446 204 402 154 Q359 104 291 103 Q242 104 215 137 Q187 170 186 228 Q186 260 189 288 Q193 316 200 348 Q230 371 269 389 Q309 407 345 408 L345 408 Z" /><glyph glyph-name="" unicode="&#x432;" d="M544 405 Q545 455 500 491 Q455 527 349 529 Q221 527 138 441 Q55 355 52 209 Q53 107 113 49 Q173 -9 278 -10 Q387 -9 456 40 Q525 88 527 174 Q527 209 509 236 Q491 263 459 278 L460 282 Q501 302 522 334 Q544 366 544 405 L544 405 ZM403 176 Q402 142 370 123 Q337 103 289 103 Q255 101 221 123 Q186 144 183 208 Q214 208 262 214 Q309 219 358 231 Q375 226 388 212 Q402 198 403 176 L403 176 ZM339 424 Q372 424 390 410 Q408 396 408 374 Q400 319 323 303 Q246 286 194 288 Q206 354 248 389 Q290 424 339 424 L339 424 Z" /><glyph glyph-name="" unicode="&#x433;" d="M304 389 Q288 347 175 301 Q62 255 46 127 Q48 62 97 28 Q145 -6 210 -6 Q285 -6 332 8 Q379 21 421 45 L383 150 Q353 134 316 122 Q279 111 237 110 Q213 110 200 122 Q186 133 186 151 Q202 213 313 259 Q424 304 440 414 Q439 469 395 498 Q352 528 282 528 Q246 528 201 516 Q155 503 125 485 L159 394 Q184 408 206 417 Q228 425 249 425 Q274 425 289 417 Q304 409 304 389 L304 389 ZM482 628 L497 709 L211 709 L196 628 L482 628 Z" /><glyph glyph-name="" unicode="&#x434;" d="M184 227 Q186 312 227 360 Q268 407 325 408 Q361 408 385 399 Q410 389 430 371 L397 185 Q373 153 341 132 Q309 111 273 110 Q232 110 208 140 Q185 170 184 227 L184 227 ZM369 20 Q354 -53 310 -76 Q265 -100 223 -98 Q189 -98 157 -89 Q124 -81 93 -64 L57 -168 Q92 -189 132 -201 Q172 -214 220 -214 Q324 -215 400 -154 Q477 -94 502 40 L579 485 L462 485 Q437 505 403 515 Q370 525 334 525 Q210 523 132 437 Q54 351 52 204 Q53 105 101 50 Q149 -5 228 -6 Q265 -6 302 9 Q338 24 369 49 L373 49 L369 20 Z" /><glyph glyph-name="" unicode="&#x435;" d="M542 381 Q542 443 495 485 Q447 526 349 528 Q221 525 137 440 Q54 355 51 220 Q52 112 111 53 Q170 -5 274 -6 Q350 -6 399 7 Q447 20 491 45 L453 150 Q417 133 378 122 Q340 110 288 110 Q247 108 218 128 Q188 147 187 205 Q304 203 419 237 Q533 271 542 381 L542 381 ZM337 420 Q370 420 389 405 Q407 390 407 367 Q405 323 347 304 Q289 285 193 284 Q204 350 245 385 Q286 420 337 420 L337 420 Z" /><glyph glyph-name="" unicode="&#x436;" d="M230 301 Q166 237 133 171 Q100 106 21 101 L21 5 Q34 0 51 -3 Q68 -6 85 -6 Q176 1 220 83 Q263 164 323 237 L381 237 L339 0 L469 0 L511 237 L568 237 Q609 161 635 81 Q661 1 753 -6 Q767 -6 784 -2 Q802 1 815 7 L828 105 Q749 109 734 164 Q718 219 676 282 L768 396 Q782 415 802 424 Q821 433 855 433 L852 518 Q839 524 822 528 Q806 531 792 531 Q748 530 720 512 Q691 493 671 462 L570 318 L524 318 L560 523 L431 520 L395 318 L345 318 L296 456 Q285 491 259 511 Q233 531 186 531 Q172 531 154 528 Q136 524 120 518 L112 438 Q146 438 164 430 Q183 421 192 397 L230 301 Z" /><glyph glyph-name="" unicode="&#x437;" d="M274 424 Q315 424 339 412 Q363 399 363 373 Q363 343 338 326 Q314 308 271 308 L233 308 L219 227 L254 227 Q297 226 318 210 Q339 194 339 169 Q338 132 308 114 Q278 96 234 96 Q198 96 163 105 Q129 114 91 133 L37 42 Q71 22 123 6 Q174 -9 227 -10 Q347 -9 410 39 Q473 86 473 169 Q473 205 456 233 Q439 261 407 276 L408 280 Q451 301 472 334 Q494 366 494 409 Q494 457 447 492 Q400 526 310 528 Q259 528 204 518 Q149 507 101 487 L106 359 L200 359 L210 412 Q227 419 241 421 Q255 424 274 424 L274 424 Z" /><glyph glyph-name="" unicode="&#x438;" d="M254 519 L123 519 L73 233 Q66 190 66 155 Q69 60 120 26 Q170 -8 227 -6 Q273 -5 319 15 Q365 35 400 69 L405 69 Q416 31 443 12 Q471 -6 513 -6 Q528 -6 545 -2 Q562 1 576 7 L594 105 Q560 105 545 114 Q530 124 530 150 Q530 160 531 172 Q532 184 534 196 L591 519 L461 519 L402 184 Q377 154 344 132 Q311 111 273 110 Q247 108 224 123 Q201 138 199 190 Q199 198 200 207 Q201 216 203 226 L254 519 Z" /><glyph glyph-name="" unicode="&#x43a;" d="M507 396 Q522 415 542 424 Q561 433 595 433 L592 518 Q579 524 562 528 Q546 531 531 531 Q488 530 459 512 Q431 493 411 462 L310 318 L255 318 L290 519 L160 519 L69 0 L199 0 L241 237 L307 237 Q348 161 374 81 Q400 1 492 -6 Q507 -6 524 -2 Q541 1 554 7 L568 105 Q489 109 474 164 Q458 219 416 282 L507 396 Z" /><glyph glyph-name="" unicode="&#x43b;" d="M335 411 L444 411 L372 0 L503 0 L594 519 L155 519 L141 448 L216 431 L154 246 Q128 165 96 133 Q64 101 6 102 L11 5 Q26 -3 44 -7 Q62 -10 73 -10 Q144 -8 192 52 Q240 112 271 211 L335 411 Z" /><glyph glyph-name="" unicode="&#x43c;" d="M762 525 L615 519 L428 247 L423 247 L367 525 L159 519 L146 448 L221 432 L125 189 Q108 147 78 126 Q48 104 6 104 L11 5 Q26 -3 45 -7 Q64 -10 75 -10 Q133 -8 171 33 Q210 75 233 138 L302 323 L308 323 L361 44 L399 44 L594 326 L598 326 L570 160 Q566 140 566 127 Q565 115 565 101 Q566 44 597 19 Q627 -7 677 -6 Q692 -6 711 -2 Q731 1 745 7 L763 105 Q729 105 714 114 Q699 124 699 150 Q699 160 700 172 Q702 184 704 196 L762 525 Z" /><glyph glyph-name="" unicode="&#x43d;" d="M291 519 L160 519 L69 0 L199 0 L242 241 L447 241 L439 193 Q432 156 432 124 Q432 56 462 25 Q492 -6 549 -6 Q564 -6 581 -2 Q597 1 612 7 L629 105 Q595 105 580 114 Q565 124 565 150 Q565 160 566 172 Q568 184 570 196 L626 519 L496 519 L462 330 L257 330 L291 519 Z" /><glyph glyph-name="" unicode="&#x43e;" d="M363 525 Q233 524 151 445 Q69 365 66 223 Q67 119 127 58 Q186 -4 289 -6 Q418 -4 500 76 Q582 157 585 299 Q584 403 525 463 Q465 524 363 525 L363 525 ZM349 416 Q400 415 427 381 Q454 346 454 285 Q453 203 410 154 Q368 104 303 103 Q254 103 227 137 Q199 170 198 232 Q199 315 242 365 Q284 415 349 416 L349 416 Z" /><glyph glyph-name="" unicode="&#x43f;" d="M574 628 L589 709 L182 709 L167 628 L574 628 ZM254 519 L123 519 L73 233 Q66 190 66 155 Q69 60 120 26 Q170 -8 227 -6 Q273 -5 319 15 Q365 35 400 69 L405 69 Q416 31 443 12 Q471 -6 513 -6 Q528 -6 545 -2 Q562 1 576 7 L594 105 Q560 105 545 114 Q530 124 530 150 Q530 160 531 172 Q532 184 534 196 L591 519 L461 519 L402 184 Q377 154 344 132 Q311 111 273 110 Q247 108 224 123 Q201 138 199 190 Q199 198 200 207 Q201 216 203 226 L254 519 Z" /><glyph glyph-name="" unicode="&#x440;" d="M159 519 L31 -214 L162 -208 L206 41 L210 42 Q233 19 261 6 Q290 -6 320 -6 Q446 -4 526 81 Q606 167 609 315 Q608 414 558 469 Q508 524 426 525 Q392 525 354 506 Q316 488 275 453 L271 453 L282 519 L159 519 ZM377 409 Q423 409 449 378 Q475 347 476 292 Q474 207 432 159 Q389 111 328 110 Q298 110 272 123 Q246 137 228 160 L258 337 Q283 370 315 390 Q346 409 377 409 L377 409 Z" /><glyph glyph-name="" unicode="&#x441;" d="M353 525 Q219 523 136 444 Q53 365 51 226 Q52 115 113 55 Q173 -5 280 -6 Q328 -7 379 10 Q429 26 482 66 L429 156 Q390 128 355 118 Q320 109 293 110 Q244 110 214 141 Q184 172 183 233 Q185 314 229 361 Q273 408 338 409 Q357 409 371 407 Q385 404 399 399 L394 309 L490 309 L523 474 Q489 498 450 512 Q410 525 353 525 L353 525 Z" /><glyph glyph-name="" unicode="&#x442;" d="M861 628 L876 709 L182 709 L166 628 L861 628 ZM254 519 L123 519 L73 233 Q66 190 66 155 Q69 60 120 26 Q170 -8 227 -6 Q267 -6 310 15 Q353 35 394 80 L399 80 Q421 30 461 12 Q501 -7 544 -6 Q584 -5 625 15 Q665 35 697 69 L701 69 Q712 31 739 12 Q766 -6 810 -6 Q825 -6 842 -2 Q859 1 873 7 L891 105 Q857 105 842 114 Q827 124 827 150 Q827 160 828 172 Q829 184 831 196 L888 519 L758 519 L699 184 Q676 154 647 132 Q618 111 583 110 Q559 108 538 123 Q517 138 516 190 Q516 198 517 207 Q518 216 519 226 L571 519 L441 519 L393 243 Q386 203 386 182 Q362 150 330 130 Q298 111 263 110 Q241 108 221 123 Q200 138 199 190 Q199 198 200 207 Q201 216 203 226 L254 519 Z" /><glyph glyph-name="" unicode="&#x443;" d="M537 412 Q536 474 508 501 Q480 529 436 528 Q422 528 406 524 Q389 520 376 515 L358 416 Q377 417 390 410 Q403 402 403 379 Q401 336 365 254 Q329 172 288 120 L193 525 L53 519 L188 0 Q138 -55 91 -82 Q44 -109 -13 -109 L-6 -200 Q6 -207 21 -211 Q35 -214 45 -214 Q191 -195 357 18 Q523 230 537 412 L537 412 Z" /><glyph glyph-name="" unicode="&#x444;" d="M610 795 L479 790 L424 482 L420 482 Q398 503 373 514 Q347 525 319 525 Q199 523 127 435 Q54 346 52 198 Q53 102 98 48 Q143 -5 226 -6 Q253 -6 283 5 Q313 16 343 38 L347 38 L302 -214 L434 -208 L477 38 L482 38 Q505 16 530 5 Q556 -6 583 -6 Q703 -4 775 84 Q848 173 850 321 Q849 418 804 471 Q758 524 676 525 Q619 525 559 482 L555 482 L610 795 ZM186 218 Q187 305 223 356 Q258 408 313 409 Q345 409 365 397 Q386 385 404 365 L367 154 Q342 134 315 122 Q288 110 256 110 Q222 110 204 139 Q186 167 186 218 L186 218 ZM716 300 Q715 215 680 163 Q644 111 589 110 Q557 110 537 122 Q516 134 498 154 L535 365 Q560 385 587 397 Q614 409 645 409 Q679 409 697 380 Q716 352 716 300 L716 300 Z" /><glyph glyph-name="" unicode="&#x445;" d="M359 -6 L506 0 L369 263 Q432 321 481 378 Q530 436 571 519 L429 525 Q397 462 368 424 Q339 385 306 353 L234 525 L95 519 L216 276 Q161 228 104 156 Q46 85 6 0 L142 -6 Q173 54 206 98 Q238 142 277 182 L359 -6 Z" /><glyph glyph-name="" unicode="&#x446;" d="M427 -185 L543 -179 L628 105 Q579 104 556 117 Q533 129 533 167 Q533 176 534 186 Q535 196 537 208 L591 519 L461 519 L402 184 Q377 154 344 132 Q311 111 273 110 Q247 108 224 123 Q201 138 199 190 Q199 198 200 207 Q201 216 203 226 L254 519 L122 519 L73 233 Q66 190 66 155 Q69 60 120 26 Q170 -8 227 -6 Q272 -6 319 14 Q366 34 409 73 L413 73 Q423 45 441 28 Q459 10 485 5 L427 -185 Z" /><glyph glyph-name="" unicode="&#x447;" d="M72 383 Q66 346 66 316 Q68 226 112 190 Q157 155 218 156 Q253 156 283 165 Q314 174 350 191 L317 0 L447 0 L539 519 L408 519 L367 289 Q338 276 314 271 Q291 266 270 266 Q235 265 213 279 Q191 294 190 334 Q190 342 191 353 Q192 365 194 374 L220 519 L96 519 L72 383 Z" /><glyph glyph-name="" unicode="&#x448;" d="M254 519 L123 519 L73 233 Q66 190 66 155 Q69 60 120 26 Q170 -8 227 -6 Q267 -6 310 15 Q353 35 394 80 L399 80 Q421 30 461 12 Q501 -7 544 -6 Q584 -5 625 15 Q665 35 697 69 L701 69 Q712 31 739 12 Q766 -6 810 -6 Q825 -6 842 -2 Q859 1 873 7 L891 105 Q857 105 842 114 Q827 124 827 150 Q827 160 828 172 Q829 184 831 196 L888 519 L758 519 L699 184 Q676 154 647 132 Q618 111 583 110 Q559 108 538 123 Q517 138 516 190 Q516 198 517 207 Q518 216 519 226 L571 519 L441 519 L393 243 Q386 203 386 182 Q362 150 330 130 Q298 111 263 110 Q241 108 221 123 Q200 138 199 190 Q199 198 200 207 Q201 216 203 226 L254 519 Z" /><glyph glyph-name="" unicode="&#x453;" d="M310 389 Q294 347 181 301 Q68 255 52 127 Q54 62 103 28 Q151 -6 216 -6 Q291 -6 338 8 Q385 21 427 45 L390 150 Q359 134 322 122 Q285 111 243 110 Q220 110 206 122 Q193 133 193 151 Q209 213 320 259 Q430 304 446 414 Q445 469 401 498 Q358 528 289 528 Q252 528 207 516 Q162 503 132 485 L165 394 Q190 408 212 417 Q234 425 255 425 Q281 425 295 417 Q310 409 310 389 L310 389 ZM231 585 L339 585 L487 743 L344 743 L231 585 Z" /><glyph glyph-name="" unicode="&#x455;" d="M311 146 Q311 120 292 107 Q272 94 236 94 Q208 94 170 108 Q133 122 91 157 L28 69 Q85 22 137 6 Q189 -10 232 -9 Q327 -10 386 31 Q445 71 447 159 Q433 267 332 300 Q231 333 217 376 Q218 405 243 417 Q268 428 302 428 Q318 428 329 425 Q341 422 357 415 L355 359 L453 359 L477 486 Q434 507 388 518 Q343 528 296 528 Q186 526 135 479 Q84 432 85 363 Q99 256 198 222 Q297 189 311 146 L311 146 Z" /><glyph glyph-name="" unicode="&#x458;" d="M85 -3 Q72 -66 34 -85 Q-5 -105 -51 -103 L-46 -203 Q-33 -209 -18 -211 Q-3 -214 10 -214 Q69 -216 130 -171 Q191 -125 214 -11 L307 519 L175 519 L85 -3 ZM182 670 Q183 639 202 620 Q221 600 251 599 Q293 600 321 627 Q349 655 350 694 Q349 725 330 745 Q310 765 280 766 Q238 765 210 737 Q183 709 182 670 L182 670 Z" /><glyph glyph-name="" unicode="&#x459;" d="M441 411 L404 195 Q401 176 399 158 Q397 140 397 124 Q397 58 428 26 Q459 -6 528 -6 Q666 -4 732 53 Q797 110 797 192 Q796 254 759 291 Q722 329 655 330 L558 330 L591 519 L156 519 L143 448 L217 431 L151 246 Q124 165 92 133 Q61 101 3 102 L8 5 Q23 -3 42 -7 Q60 -10 71 -10 Q141 -8 188 53 Q234 113 268 211 L340 411 L441 411 ZM611 241 Q640 240 655 223 Q671 205 671 177 Q670 136 643 116 Q616 95 578 95 Q552 95 539 104 Q526 114 526 137 Q526 142 527 150 Q528 157 529 165 L544 241 L611 241 Z" /><glyph glyph-name="" unicode="&#x45a;" d="M567 330 L600 519 L470 519 L437 330 L257 330 L291 519 L160 519 L69 0 L199 0 L242 241 L421 241 L413 193 Q407 156 406 124 Q406 58 438 26 Q469 -6 538 -6 Q676 -4 741 53 Q807 110 806 192 Q806 254 769 291 Q732 329 665 330 L567 330 ZM587 95 Q562 95 549 104 Q536 114 536 137 Q536 142 537 150 Q538 157 539 165 L554 241 L621 241 Q650 240 665 223 Q680 205 680 177 Q679 136 652 116 Q626 95 587 95 L587 95 Z" /><glyph glyph-name="" unicode="&#x45c;" d="M322 585 L430 585 L578 743 L434 743 L322 585 ZM510 396 Q525 415 545 424 Q564 433 598 433 L593 518 Q580 524 564 528 Q549 531 534 531 Q491 530 462 512 Q434 493 414 462 L313 318 L258 318 L293 519 L163 519 L72 0 L202 0 L244 237 L310 237 Q351 161 377 81 Q403 1 495 -6 Q510 -6 527 -2 Q544 1 557 7 L571 105 Q492 109 477 164 Q461 219 419 282 L510 396 Z" /><glyph glyph-name="" unicode="&#x45f;" d="M194 -214 L316 -208 L338 -36 L231 -60 L194 -214 ZM254 519 L123 519 L73 233 Q66 190 66 155 Q69 60 120 26 Q170 -8 227 -6 Q273 -5 319 15 Q365 35 400 69 L405 69 Q416 31 443 12 Q471 -6 513 -6 Q528 -6 545 -2 Q562 1 576 7 L594 105 Q560 105 545 114 Q530 124 530 150 Q530 160 531 172 Q532 184 534 196 L591 519 L461 519 L402 184 Q377 154 344 132 Q311 111 273 110 Q247 108 224 123 Q201 138 199 190 Q199 198 200 207 Q201 216 203 226 L254 519 Z" /><glyph glyph-name="" unicode="¤" d="M227 332 Q229 402 278 450 Q326 498 392 500 Q443 499 474 464 Q505 429 506 376 Q504 306 455 258 Q406 211 341 209 Q289 210 259 245 Q228 279 227 332 L227 332 ZM121 73 L200 145 Q224 125 255 115 Q285 104 322 104 Q358 104 392 115 Q426 125 458 145 L513 73 L595 145 L539 216 Q571 255 588 299 Q606 343 606 392 Q606 418 601 444 Q596 470 587 491 L668 563 L611 635 L532 563 Q507 583 477 594 Q446 605 410 605 Q373 605 339 594 Q305 583 273 563 L219 635 L138 563 L193 491 Q161 451 144 408 Q126 365 126 316 Q126 289 131 263 Q136 237 145 217 L64 145 L121 73 Z" /><glyph glyph-name="" unicode="&#x400;" d="M446 953 L304 953 L395 795 L503 795 L446 953 ZM187 748 L55 0 L563 0 L583 116 L213 116 L251 332 L574 332 L593 445 L270 445 L303 632 L667 632 L688 748 L187 748 Z" /><glyph glyph-name="" unicode="&#x40d;" d="M596 480 L600 479 L517 0 L655 0 L785 748 L713 748 L241 261 L238 262 L323 748 L185 748 L54 0 L131 0 L596 480 ZM525 954 L382 954 L474 796 L581 796 L525 954 Z" /><glyph glyph-name="" unicode="&#x450;" d="M368 743 L225 743 L317 585 L425 585 L368 743 ZM545 381 Q545 443 498 483 Q450 524 352 525 Q224 523 141 439 Q58 355 55 209 Q56 107 114 51 Q173 -5 277 -6 Q337 -6 388 7 Q439 20 484 45 L459 136 Q421 117 380 107 Q338 96 294 96 Q243 95 215 118 Q186 141 186 205 Q302 202 419 236 Q536 270 545 381 L545 381 ZM342 424 Q375 424 393 409 Q411 394 411 371 Q410 328 352 309 Q294 289 197 288 Q208 355 250 389 Q291 424 342 424 L342 424 Z" /><glyph glyph-name="" unicode="&#x45d;" d="M357 743 L214 743 L306 585 L414 585 L357 743 ZM254 519 L123 519 L73 233 Q66 190 66 155 Q69 60 120 26 Q170 -8 227 -6 Q273 -5 319 15 Q365 35 400 69 L405 69 Q416 31 443 12 Q471 -6 513 -6 Q528 -6 545 -2 Q562 1 576 7 L594 105 Q560 105 545 114 Q530 124 530 150 Q530 160 531 172 Q532 184 534 196 L591 519 L461 519 L402 184 Q377 154 344 132 Q311 111 273 110 Q247 108 224 123 Q201 138 199 190 Q199 198 200 207 Q201 216 203 226 L254 519 Z" /><glyph glyph-name="" unicode="" d="" /><glyph glyph-name="" unicode="é" d="M545 381 Q545 443 498 485 Q450 526 352 528 Q224 525 140 440 Q57 355 54 220 Q55 112 114 53 Q173 -5 277 -6 Q353 -6 402 7 Q450 20 494 45 L456 149 Q420 132 381 121 Q343 110 291 110 Q250 108 221 128 Q191 147 190 205 Q307 203 422 237 Q536 271 545 381 L545 381 ZM340 421 Q373 420 392 405 Q410 390 410 367 Q408 323 350 304 Q292 285 196 284 Q207 350 248 386 Q289 421 340 421 L340 421 ZM277 585 L384 585 L532 743 L389 743 L277 585 Z" /><glyph glyph-name="" unicode="è" d="M545 381 Q545 443 498 485 Q450 526 352 528 Q224 525 140 440 Q57 355 54 220 Q55 112 114 53 Q173 -5 277 -6 Q353 -6 402 7 Q450 20 494 45 L456 149 Q420 132 381 121 Q343 110 291 110 Q250 108 221 128 Q191 147 190 205 Q307 203 422 237 Q536 271 545 381 L545 381 ZM340 421 Q373 420 392 405 Q410 390 410 367 Q408 323 350 304 Q292 285 196 284 Q207 350 248 386 Q289 421 340 421 L340 421 ZM398 743 L255 743 L347 585 L455 585 L398 743 Z" /><glyph glyph-name="" unicode="ê" d="M545 381 Q545 443 498 485 Q450 526 352 528 Q224 525 140 440 Q57 355 54 220 Q55 112 114 53 Q173 -5 277 -6 Q353 -6 402 7 Q450 20 494 45 L456 149 Q420 132 381 121 Q343 110 291 110 Q250 108 221 128 Q191 147 190 205 Q307 203 422 237 Q536 271 545 381 L545 381 ZM340 421 Q373 420 392 405 Q410 390 410 367 Q408 323 350 304 Q292 285 196 284 Q207 350 248 386 Q289 421 340 421 L340 421 ZM461 743 L345 743 L219 585 L307 585 L389 665 L443 585 L531 585 L461 743 Z" /><glyph glyph-name="" unicode="ó" d="M360 525 Q226 524 140 441 Q55 359 52 211 Q53 114 110 55 Q167 -4 267 -6 Q399 -4 485 80 Q571 164 574 311 Q573 408 516 466 Q459 524 360 525 L360 525 ZM340 417 Q390 416 416 383 Q442 350 442 292 Q440 207 397 155 Q353 103 286 102 Q238 102 211 135 Q184 167 184 225 Q186 311 230 363 Q274 416 340 417 L340 417 ZM282 585 L389 585 L537 743 L394 743 L282 585 Z" /><glyph glyph-name="" unicode="ò" d="M360 525 Q226 524 140 441 Q55 359 52 211 Q53 114 110 55 Q167 -4 267 -6 Q399 -4 485 80 Q571 164 574 311 Q573 408 516 466 Q459 524 360 525 L360 525 ZM340 417 Q390 416 416 383 Q442 350 442 292 Q440 207 397 155 Q353 103 286 102 Q238 102 211 135 Q184 167 184 225 Q186 311 230 363 Q274 416 340 417 L340 417 ZM377 743 L234 743 L326 585 L434 585 L377 743 Z" /><glyph glyph-name="" unicode="ô" d="M360 525 Q226 524 140 441 Q55 359 52 211 Q53 114 110 55 Q167 -4 267 -6 Q399 -4 485 80 Q571 164 574 311 Q573 408 516 466 Q459 524 360 525 L360 525 ZM340 417 Q390 416 416 383 Q442 350 442 292 Q440 207 397 155 Q353 103 286 102 Q238 102 211 135 Q184 167 184 225 Q186 311 230 363 Q274 416 340 417 L340 417 ZM453 743 L337 743 L211 585 L299 585 L381 665 L435 585 L523 585 L453 743 Z" /><glyph glyph-name="" unicode="ö" d="M360 525 Q226 524 140 441 Q55 359 52 211 Q53 114 110 55 Q167 -4 267 -6 Q399 -4 485 80 Q571 164 574 311 Q573 408 516 466 Q459 524 360 525 L360 525 ZM340 417 Q390 416 416 383 Q442 350 442 292 Q440 207 397 155 Q353 103 286 102 Q238 102 211 135 Q184 167 184 225 Q186 311 230 363 Q274 416 340 417 L340 417 ZM239 656 Q239 630 255 612 Q270 594 295 593 Q330 594 354 619 Q378 643 379 678 Q378 705 362 722 Q345 738 320 739 Q289 738 265 714 Q240 690 239 656 L239 656 ZM445 656 Q445 630 461 612 Q476 594 501 593 Q535 594 560 618 Q584 643 585 678 Q584 705 568 722 Q551 738 526 739 Q495 738 471 714 Q446 689 445 656 L445 656 Z" /><glyph glyph-name="" unicode="õ" d="M360 525 Q226 524 140 441 Q55 359 52 211 Q53 114 110 55 Q167 -4 267 -6 Q399 -4 485 80 Q571 164 574 311 Q573 408 516 466 Q459 524 360 525 L360 525 ZM340 417 Q390 416 416 383 Q442 350 442 292 Q440 207 397 155 Q353 103 286 102 Q238 102 211 135 Q184 167 184 225 Q186 311 230 363 Q274 416 340 417 L340 417 ZM559 684 Q535 710 513 718 Q491 726 477 725 Q427 723 397 707 Q367 691 339 689 Q328 689 314 694 Q300 698 283 713 L241 633 Q262 608 283 599 Q304 590 320 591 Q358 593 393 610 Q427 626 458 628 Q468 628 483 623 Q499 618 519 602 L559 684 Z" /><glyph glyph-name="" unicode="í" d="M190 0 L321 748 L183 748 L52 0 L190 0 ZM142 795 L249 795 L397 953 L254 953 L142 795 Z" /><glyph glyph-name="" unicode="î" d="M190 0 L321 748 L183 748 L52 0 L190 0 ZM341 953 L225 953 L99 795 L187 795 L269 875 L323 795 L411 795 L341 953 Z" /><glyph glyph-name="" unicode="ï" d="M190 0 L321 748 L183 748 L52 0 L190 0 ZM96 867 Q96 841 112 823 Q127 805 152 804 Q187 805 211 830 Q235 854 236 889 Q235 916 219 933 Q202 949 177 950 Q146 949 122 925 Q97 901 96 867 L96 867 ZM302 867 Q302 841 318 823 Q333 805 358 804 Q392 805 417 829 Q441 854 442 889 Q441 916 425 933 Q408 949 383 950 Q352 949 328 925 Q303 900 302 867 L302 867 Z" /><glyph glyph-name="" unicode="ì" d="M190 0 L321 748 L183 748 L52 0 L190 0 ZM271 954 L128 954 L220 796 L328 796 L271 954 Z" /><glyph glyph-name="" unicode="&#xf8ff;" d="M645 530 L727 585 Q730 587 733 588 Q735 589 739 589 Q745 589 750 585 Q754 582 754 575 Q754 573 753 570 Q751 566 749 564 L714 530 L831 530 Q837 530 842 525 Q846 521 846 514 Q846 507 842 504 Q837 500 831 500 L750 500 L754 487 L867 487 Q874 487 877 483 Q881 478 881 473 Q881 465 877 461 Q874 457 867 457 L759 457 L759 443 L844 443 Q850 443 855 439 Q859 436 859 429 Q859 422 855 418 Q850 413 844 413 L754 413 L750 401 L820 401 Q825 401 830 396 Q834 392 834 385 Q834 379 830 375 Q825 370 820 370 L643 370 L643 85 L476 85 L476 370 L299 370 Q294 370 289 375 Q285 379 285 385 Q285 392 289 396 Q294 401 299 401 L369 401 L364 413 L275 413 Q269 413 265 418 Q260 422 260 429 Q260 436 265 439 Q269 443 275 443 L360 443 L360 457 L252 457 Q246 457 242 461 Q238 465 238 473 Q238 478 242 483 Q246 487 252 487 L364 487 L369 500 L288 500 Q282 500 278 504 Q273 507 273 514 Q273 521 278 525 Q282 530 288 530 L405 530 L370 564 Q368 566 366 570 Q365 573 365 575 Q365 582 370 585 Q374 589 380 589 Q388 589 392 585 L474 530 L645 530 ZM919 39 Q924 39 927 36 Q930 33 930 28 Q930 23 927 20 Q924 17 919 17 L905 17 L905 39 L919 39 ZM146 376 Q150 201 267 84 Q384 -33 559 -37 Q734 -33 851 84 Q968 201 972 376 Q968 551 851 668 Q734 785 559 789 Q384 785 267 668 Q150 551 146 376 L146 376 ZM863 17 Q864 -6 879 -21 Q894 -36 917 -37 Q940 -36 956 -21 Q971 -6 972 17 Q971 40 956 56 Q940 71 917 72 Q894 71 879 56 Q864 40 863 17 L863 17 ZM871 17 Q872 36 885 50 Q898 63 917 64 Q936 63 950 50 Q963 36 964 17 Q963 -2 950 -15 Q936 -28 917 -29 Q898 -28 885 -15 Q872 -2 871 17 L871 17 ZM930 -11 L941 -11 L925 9 Q931 11 935 16 Q939 21 939 28 Q939 36 933 42 Q927 48 919 48 L896 48 L896 -11 L905 -11 L905 8 L915 8 L930 -11 Z" /><glyph glyph-name="" unicode="í" d="M272 519 L142 519 L85 193 Q81 166 79 147 Q77 128 77 117 Q79 46 112 20 Q146 -7 194 -6 Q209 -6 226 -2 Q243 1 258 7 L275 105 Q241 105 226 114 Q211 124 211 150 Q211 160 212 172 Q214 184 216 196 L272 519 ZM115 585 L222 585 L370 743 L227 743 L115 585 Z" /><glyph glyph-name="" unicode="ì" d="M273 519 L143 519 L86 193 Q82 166 80 147 Q78 128 78 117 Q80 46 113 20 Q147 -7 195 -6 Q210 -6 227 -2 Q244 1 259 7 L276 105 Q242 105 227 114 Q212 124 212 150 Q212 160 213 172 Q215 184 217 196 L273 519 ZM225 743 L82 743 L174 585 L282 585 L225 743 Z" /><glyph glyph-name="" unicode="î" d="M273 519 L143 519 L86 193 Q82 166 80 147 Q78 128 78 117 Q80 46 113 20 Q147 -7 195 -6 Q210 -6 227 -2 Q244 1 259 7 L276 105 Q242 105 227 114 Q212 124 212 150 Q212 160 213 172 Q215 184 217 196 L273 519 ZM305 743 L189 743 L63 585 L151 585 L233 665 L287 585 L375 585 L305 743 Z" /><glyph glyph-name="" unicode="ï" d="M273 519 L143 519 L86 193 Q82 166 80 147 Q78 128 78 117 Q80 46 113 20 Q147 -7 195 -6 Q210 -6 227 -2 Q244 1 259 7 L276 105 Q242 105 227 114 Q212 124 212 150 Q212 160 213 172 Q215 184 217 196 L273 519 ZM63 656 Q63 630 79 612 Q94 594 119 593 Q154 594 178 619 Q202 643 203 678 Q202 705 186 722 Q169 738 144 739 Q113 738 89 714 Q64 690 63 656 L63 656 ZM269 656 Q269 630 285 612 Q300 594 325 593 Q359 594 384 618 Q408 643 409 678 Q408 705 392 722 Q375 738 350 739 Q319 738 295 714 Q270 689 269 656 L269 656 Z" /><glyph glyph-name="" unicode="á" d="M517 -6 Q532 -6 549 -2 Q566 1 580 7 L597 105 Q563 105 548 114 Q533 124 533 150 Q533 160 534 172 Q536 184 538 196 L588 485 L471 485 Q444 505 409 515 Q374 525 337 525 Q213 523 135 437 Q57 351 55 204 Q56 105 104 50 Q152 -5 231 -6 Q277 -5 323 15 Q369 35 404 69 L408 69 Q419 31 446 12 Q474 -6 517 -6 L517 -6 ZM187 227 Q189 312 230 360 Q271 408 328 409 Q365 409 391 401 Q416 392 439 373 L406 185 Q380 153 348 132 Q315 111 277 110 Q237 110 212 140 Q188 169 187 227 L187 227 ZM321 585 L428 585 L576 743 L433 743 L321 585 Z" /><glyph glyph-name="" unicode="à" d="M517 -6 Q532 -6 549 -2 Q566 1 580 7 L597 105 Q563 105 548 114 Q533 124 533 150 Q533 160 534 172 Q536 184 538 196 L588 485 L471 485 Q444 505 409 515 Q374 525 337 525 Q213 523 135 437 Q57 351 55 204 Q56 105 104 50 Q152 -5 231 -6 Q277 -5 323 15 Q369 35 404 69 L408 69 Q419 31 446 12 Q474 -6 517 -6 L517 -6 ZM187 227 Q189 312 230 360 Q271 408 328 409 Q365 409 391 401 Q416 392 439 373 L406 185 Q380 153 348 132 Q315 111 277 110 Q237 110 212 140 Q188 169 187 227 L187 227 ZM402 743 L259 743 L351 585 L459 585 L402 743 Z" /><glyph glyph-name="" unicode="â" d="M517 -6 Q532 -6 549 -2 Q566 1 580 7 L597 105 Q563 105 548 114 Q533 124 533 150 Q533 160 534 172 Q536 184 538 196 L588 485 L471 485 Q444 505 409 515 Q374 525 337 525 Q213 523 135 437 Q57 351 55 204 Q56 105 104 50 Q152 -5 231 -6 Q277 -5 323 15 Q369 35 404 69 L408 69 Q419 31 446 12 Q474 -6 517 -6 L517 -6 ZM187 227 Q189 312 230 360 Q271 408 328 409 Q365 409 391 401 Q416 392 439 373 L406 185 Q380 153 348 132 Q315 111 277 110 Q237 110 212 140 Q188 169 187 227 L187 227 ZM480 743 L364 743 L238 585 L326 585 L408 665 L462 585 L550 585 L480 743 Z" /><glyph glyph-name="" unicode="ä" d="M517 -6 Q532 -6 549 -2 Q566 1 580 7 L597 105 Q563 105 548 114 Q533 124 533 150 Q533 160 534 172 Q536 184 538 196 L588 485 L471 485 Q444 505 409 515 Q374 525 337 525 Q213 523 135 437 Q57 351 55 204 Q56 105 104 50 Q152 -5 231 -6 Q277 -5 323 15 Q369 35 404 69 L408 69 Q419 31 446 12 Q474 -6 517 -6 L517 -6 ZM187 227 Q189 312 230 360 Q271 408 328 409 Q365 409 391 401 Q416 392 439 373 L406 185 Q380 153 348 132 Q315 111 277 110 Q237 110 212 140 Q188 169 187 227 L187 227 ZM234 656 Q234 630 250 612 Q265 594 290 593 Q325 594 349 619 Q373 643 374 678 Q373 705 357 722 Q340 738 315 739 Q284 738 260 714 Q235 690 234 656 L234 656 ZM440 656 Q440 630 456 612 Q471 594 496 593 Q530 594 555 618 Q579 643 580 678 Q579 705 563 722 Q546 738 521 739 Q490 738 466 714 Q441 689 440 656 L440 656 Z" /><glyph glyph-name="" unicode="ã" d="M517 -6 Q532 -6 549 -2 Q566 1 580 7 L597 105 Q563 105 548 114 Q533 124 533 150 Q533 160 534 172 Q536 184 538 196 L588 485 L471 485 Q444 505 409 515 Q374 525 337 525 Q213 523 135 437 Q57 351 55 204 Q56 105 104 50 Q152 -5 231 -6 Q277 -5 323 15 Q369 35 404 69 L408 69 Q419 31 446 12 Q474 -6 517 -6 L517 -6 ZM187 227 Q189 312 230 360 Q271 408 328 409 Q365 409 391 401 Q416 392 439 373 L406 185 Q380 153 348 132 Q315 111 277 110 Q237 110 212 140 Q188 169 187 227 L187 227 ZM571 684 Q547 710 525 718 Q503 726 489 725 Q439 723 409 707 Q379 691 351 689 Q340 689 326 694 Q312 698 295 713 L253 633 Q274 608 295 599 Q316 590 332 591 Q370 593 405 610 Q439 626 470 628 Q480 628 495 623 Q511 618 531 602 L571 684 Z" /><glyph glyph-name="" unicode="å" d="M517 -6 Q532 -6 549 -2 Q566 1 580 7 L597 105 Q563 105 548 114 Q533 124 533 150 Q533 160 534 172 Q536 184 538 196 L588 485 L471 485 Q444 505 409 515 Q374 525 337 525 Q213 523 135 437 Q57 351 55 204 Q56 105 104 50 Q152 -5 231 -6 Q277 -5 323 15 Q369 35 404 69 L408 69 Q419 31 446 12 Q474 -6 517 -6 L517 -6 ZM187 227 Q189 312 230 360 Q271 408 328 409 Q365 409 391 401 Q416 392 439 373 L406 185 Q380 153 348 132 Q315 111 277 110 Q237 110 212 140 Q188 169 187 227 L187 227 ZM309 645 Q310 608 332 586 Q354 564 391 564 Q440 565 474 596 Q508 627 509 677 Q508 715 486 737 Q464 759 427 759 Q378 758 344 727 Q310 695 309 645 L309 645 ZM367 653 Q368 675 383 691 Q398 706 418 707 Q433 707 442 696 Q451 685 451 669 Q450 647 436 632 Q421 617 400 616 Q385 616 376 627 Q367 638 367 653 L367 653 Z" /><glyph glyph-name="" unicode="ú" d="M254 519 L123 519 L73 233 Q66 190 66 155 Q69 60 120 26 Q170 -8 227 -6 Q273 -5 319 15 Q365 35 400 69 L405 69 Q416 31 443 12 Q471 -6 513 -6 Q528 -6 545 -2 Q562 1 576 7 L594 105 Q560 105 545 114 Q530 124 530 150 Q530 160 531 172 Q532 184 534 196 L591 519 L461 519 L402 184 Q377 154 344 132 Q311 111 273 110 Q247 108 224 123 Q201 138 199 190 Q199 198 200 207 Q201 216 203 226 L254 519 ZM300 585 L407 585 L555 743 L412 743 L300 585 Z" /><glyph glyph-name="" unicode="ù" d="M254 519 L123 519 L73 233 Q66 190 66 155 Q69 60 120 26 Q170 -8 227 -6 Q273 -5 319 15 Q365 35 400 69 L405 69 Q416 31 443 12 Q471 -6 513 -6 Q528 -6 545 -2 Q562 1 576 7 L594 105 Q560 105 545 114 Q530 124 530 150 Q530 160 531 172 Q532 184 534 196 L591 519 L461 519 L402 184 Q377 154 344 132 Q311 111 273 110 Q247 108 224 123 Q201 138 199 190 Q199 198 200 207 Q201 216 203 226 L254 519 ZM378 743 L235 743 L327 585 L435 585 L378 743 Z" /><glyph glyph-name="" unicode="û" d="M254 519 L123 519 L73 233 Q66 190 66 155 Q69 60 120 26 Q170 -8 227 -6 Q273 -5 319 15 Q365 35 400 69 L405 69 Q416 31 443 12 Q471 -6 513 -6 Q528 -6 545 -2 Q562 1 576 7 L594 105 Q560 105 545 114 Q530 124 530 150 Q530 160 531 172 Q532 184 534 196 L591 519 L461 519 L402 184 Q377 154 344 132 Q311 111 273 110 Q247 108 224 123 Q201 138 199 190 Q199 198 200 207 Q201 216 203 226 L254 519 ZM463 743 L347 743 L221 585 L309 585 L391 665 L445 585 L533 585 L463 743 Z" /><glyph glyph-name="" unicode="ü" d="M254 519 L123 519 L73 233 Q66 190 66 155 Q69 60 120 26 Q170 -8 227 -6 Q273 -5 319 15 Q365 35 400 69 L405 69 Q416 31 443 12 Q471 -6 513 -6 Q528 -6 545 -2 Q562 1 576 7 L594 105 Q560 105 545 114 Q530 124 530 150 Q530 160 531 172 Q532 184 534 196 L591 519 L461 519 L402 184 Q377 154 344 132 Q311 111 273 110 Q247 108 224 123 Q201 138 199 190 Q199 198 200 207 Q201 216 203 226 L254 519 ZM211 656 Q211 630 227 612 Q242 594 267 593 Q302 594 326 619 Q350 643 351 678 Q350 705 334 722 Q317 738 292 739 Q261 738 237 714 Q212 690 211 656 L211 656 ZM417 656 Q417 630 433 612 Q448 594 473 593 Q507 594 532 618 Q556 643 557 678 Q556 705 540 722 Q523 738 498 739 Q467 738 443 714 Q418 689 417 656 L417 656 Z" /></font>
</defs>
</svg>
