<?xml version="1.0" standalone="no"?><!DOCTYPE svg PUBLIC "-//W3C//DTD SVG 1.1//EN" "http://www.w3.org/Graphics/SVG/1.1/DTD/svg11.dtd" ><svg xmlns="http://www.w3.org/2000/svg"><metadata></metadata><defs><font id="LaskoDzurovski,Totemt.f.: SkolaSans Bold: 2009" horiz-adv-x="1388"><font-face font-family="SkolaSans" font-weight="700" font-stretch="normal" units-per-em="1000" panose-1="2 0 0 0 0 0 0 0 0 0" ascent="750" descent="-250" x-height="0" bbox="-150 -215 1344 988" underline-thickness="50" underline-position="-75" unicode-range="U+0000-fb02" /><missing-glyph horiz-adv-x="555" d="M40 0 L515 0 L515 748 L40 748 L40 0 ZM434 520 Q431 594 383 627 Q334 661 269 660 Q230 660 194 649 Q157 637 119 610 L162 534 Q189 554 212 564 Q235 573 259 573 Q288 573 308 557 Q328 540 329 501 Q327 463 292 432 Q257 401 212 380 L228 264 L295 264 L307 345 Q357 370 395 413 Q432 456 434 520 L434 520 ZM202 148 Q203 123 220 106 Q237 89 263 88 Q289 89 306 106 Q322 123 323 148 Q322 174 306 191 Q289 208 263 209 Q237 208 220 191 Q203 174 202 148 L202 148 ZM80 708 L475 708 L475 40 L80 40 L80 708 Z" /><glyph glyph-name="" unicode="" d="" /><glyph glyph-name="" unicode=" " d="" /><glyph glyph-name="" unicode="!" d="M228 228 L249 748 L117 748 L137 228 L228 228 ZM102 75 Q103 40 126 18 Q148 -5 183 -6 Q217 -5 240 18 Q262 40 263 75 Q262 109 240 132 Q217 154 183 155 Q148 154 126 132 Q103 109 102 75 L102 75 Z" /><glyph glyph-name="" unicode="&quot;" d="M185 748 L80 748 L80 479 L185 479 L185 748 ZM374 748 L269 748 L269 479 L374 479 L374 748 Z" /><glyph glyph-name="" unicode="#" d="M73 456 L163 456 L140 291 L40 291 L40 213 L130 213 L101 0 L183 0 L213 213 L327 213 L298 0 L381 0 L410 213 L511 213 L511 291 L420 291 L443 456 L544 456 L544 533 L453 533 L483 748 L401 748 L371 533 L256 533 L286 748 L203 748 L174 533 L73 533 L73 456 ZM246 456 L361 456 L338 291 L223 291 L246 456 Z" /><glyph glyph-name="" unicode="$" d="M374 -106 L374 2 Q469 18 523 74 Q577 130 578 220 Q555 386 396 424 Q236 463 213 556 Q213 589 240 612 Q267 634 319 635 Q366 634 413 613 Q459 591 502 554 L561 669 Q517 700 471 721 Q425 741 374 748 L374 854 L270 854 L270 747 Q172 732 123 678 Q74 625 74 549 Q96 381 250 339 Q403 296 425 209 Q425 164 395 139 Q365 113 309 113 Q262 113 214 135 Q166 156 122 193 L62 79 Q111 44 162 24 Q213 4 270 -1 L270 -106 L374 -106 Z" /><glyph glyph-name="" unicode="%" d="M752 748 L661 754 L188 0 L272 -6 L752 748 ZM43 566 Q45 486 98 433 Q151 380 230 378 Q310 380 363 433 Q416 486 418 566 Q416 646 363 699 Q310 752 230 754 Q151 752 98 699 Q45 646 43 566 L43 566 ZM527 182 Q529 102 582 49 Q635 -4 714 -6 Q793 -4 847 49 Q900 102 902 182 Q900 263 847 316 Q793 369 714 371 Q635 369 582 316 Q529 263 527 182 L527 182 ZM129 566 Q130 609 159 638 Q187 667 230 668 Q274 667 302 638 Q331 609 332 566 Q331 522 302 494 Q274 465 230 464 Q187 465 159 494 Q130 522 129 566 L129 566 ZM613 182 Q614 226 643 255 Q671 284 714 285 Q757 284 786 255 Q815 226 816 182 Q815 138 786 110 Q757 81 714 80 Q671 81 643 110 Q614 138 613 182 L613 182 Z" /><glyph glyph-name="" unicode="&amp;" d="M377 397 Q437 430 480 477 Q524 524 526 585 Q524 666 470 710 Q416 754 331 754 Q246 754 187 711 Q129 667 126 581 Q127 536 152 496 Q177 455 212 420 Q147 384 101 331 Q55 277 53 202 Q56 99 126 43 Q196 -14 295 -15 Q360 -15 413 12 Q467 38 510 88 L596 -6 L738 0 L585 169 L737 369 L645 433 L509 252 L377 397 ZM438 167 Q412 135 378 114 Q343 93 299 92 Q250 93 215 123 Q181 153 179 203 Q180 254 210 286 Q239 318 279 344 L438 167 ZM329 656 Q369 655 392 634 Q415 613 415 578 Q412 542 378 514 Q344 485 313 469 Q292 490 270 517 Q248 545 246 577 Q247 611 269 633 Q292 655 329 656 L329 656 Z" /><glyph glyph-name="" unicode="&#39;" d="M185 748 L80 748 L80 479 L185 479 L185 748 Z" /><glyph glyph-name="" unicode="(" d="M174 806 Q129 736 89 618 Q49 500 46 326 Q49 152 89 38 Q129 -76 174 -145 L253 -106 Q216 -43 184 62 Q152 167 150 326 Q152 487 184 595 Q216 703 253 768 L174 806 Z" /><glyph glyph-name="" unicode=")" d="M23 768 Q60 703 92 595 Q124 487 126 326 Q124 167 92 62 Q60 -43 23 -106 L102 -145 Q147 -76 187 38 Q227 152 230 326 Q227 500 187 618 Q147 736 102 806 L23 768 Z" /><glyph glyph-name="" unicode="*" d="M275 754 L190 754 L203 605 L67 663 L40 581 L185 549 L88 438 L158 386 L233 514 L309 387 L378 438 L280 550 L425 583 L398 665 L262 606 L275 754 Z" /><glyph glyph-name="" unicode="+" d="M60 287 L277 287 L277 70 L380 70 L380 287 L597 287 L597 389 L380 389 L380 606 L277 606 L277 389 L60 389 L60 287 Z" /><glyph glyph-name="" unicode="," d="M61 78 Q62 46 82 21 Q103 -4 135 -5 L72 -139 L136 -160 Q170 -114 198 -46 Q226 21 228 78 Q227 114 204 139 Q180 163 144 164 Q108 163 85 139 Q62 114 61 78 L61 78 Z" /><glyph glyph-name="" unicode="-" d="M309 241 L309 343 L40 343 L40 241 L309 241 Z" /><glyph glyph-name="" unicode="." d="M69 78 Q70 42 93 18 Q117 -5 153 -6 Q189 -5 213 18 Q236 42 237 78 Q236 114 213 139 Q189 163 153 164 Q117 163 93 139 Q70 114 69 78 L69 78 Z" /><glyph glyph-name="" unicode="/" d="M347 806 L0 -204 L107 -204 L453 806 L347 806 Z" /><glyph glyph-name="" unicode="0" d="M28 374 Q29 199 105 98 Q181 -4 321 -6 Q461 -4 537 98 Q613 199 614 374 Q613 549 537 650 Q461 752 321 754 Q181 752 105 650 Q29 549 28 374 L28 374 ZM175 374 Q176 492 214 564 Q252 635 321 637 Q390 635 428 564 Q466 492 467 374 Q466 256 428 184 Q390 113 321 111 Q252 113 214 184 Q176 256 175 374 L175 374 Z" /><glyph glyph-name="" unicode="1" d="M95 118 L95 0 L574 0 L574 118 L435 118 L435 748 L334 748 L74 604 L115 515 L289 592 L289 118 L95 118 Z" /><glyph glyph-name="" unicode="2" d="M574 525 Q573 628 503 690 Q434 752 309 754 Q268 755 207 741 Q145 727 74 680 L124 582 Q180 617 221 627 Q262 637 295 636 Q356 636 392 605 Q427 574 428 518 Q414 396 280 273 Q147 149 66 99 L66 0 L566 0 L566 118 L253 118 L252 122 Q345 177 455 282 Q564 387 574 525 L574 525 Z" /><glyph glyph-name="" unicode="3" d="M218 343 L304 343 Q381 339 407 299 Q432 260 430 237 Q430 183 396 149 Q362 115 298 114 Q254 114 210 132 Q166 149 122 179 L66 71 Q130 31 189 12 Q248 -6 305 -6 Q435 -4 505 61 Q575 125 576 223 Q577 271 544 322 Q512 373 431 395 L431 399 Q502 431 528 476 Q553 520 552 567 Q549 656 479 705 Q408 753 305 754 Q251 754 193 737 Q135 719 77 680 L128 582 Q174 612 212 623 Q251 635 284 634 Q336 634 371 609 Q405 585 406 541 Q408 516 387 482 Q366 448 303 445 L218 445 L218 343 Z" /><glyph glyph-name="" unicode="4" d="M207 269 L206 272 L385 523 L389 521 L389 269 L207 269 ZM528 754 L414 754 L35 220 L40 152 L389 152 L389 0 L528 0 L528 152 L607 152 L607 269 L528 269 L528 754 Z" /><glyph glyph-name="" unicode="5" d="M147 748 L118 367 L271 367 Q346 367 391 335 Q437 303 438 239 Q437 185 396 150 Q356 115 288 114 Q243 115 200 132 Q157 150 112 179 L57 71 Q120 31 177 12 Q234 -6 295 -6 Q416 -3 498 67 Q581 138 584 246 Q582 365 512 425 Q442 485 334 485 L254 485 L265 630 L530 630 L530 748 L147 748 Z" /><glyph glyph-name="" unicode="6" d="M325 358 Q381 356 414 320 Q447 283 448 230 Q448 181 416 144 Q384 107 325 105 Q273 105 237 138 Q202 170 200 230 Q201 285 234 321 Q268 357 325 358 L325 358 ZM360 469 Q335 469 309 461 Q284 454 263 442 L260 445 Q327 546 389 622 Q451 697 500 748 L336 754 Q198 603 128 483 Q57 363 57 244 Q59 136 131 66 Q203 -4 325 -6 Q443 -3 516 63 Q589 130 591 230 Q590 335 529 401 Q468 467 360 469 L360 469 Z" /><glyph glyph-name="" unicode="7" d="M48 630 L419 630 L134 0 L291 -6 L593 693 L593 748 L48 748 L48 630 Z" /><glyph glyph-name="" unicode="8" d="M321 754 Q214 754 142 706 Q70 659 67 565 Q66 518 91 474 Q115 430 183 398 L182 394 Q104 372 71 321 Q39 270 40 220 Q40 124 109 60 Q178 -4 320 -6 Q462 -4 532 60 Q601 124 601 220 Q602 270 570 321 Q538 372 459 394 L459 398 Q526 430 551 474 Q575 518 574 565 Q571 659 499 706 Q427 754 321 754 L321 754 ZM320 113 Q258 113 223 145 Q187 177 186 236 Q186 272 216 307 Q247 342 306 345 L335 345 Q394 342 425 307 Q455 272 455 236 Q454 177 418 145 Q382 113 320 113 L320 113 ZM321 635 Q361 635 394 611 Q426 587 428 539 Q428 501 405 473 Q383 444 334 443 L307 443 Q260 444 236 473 Q213 501 213 539 Q215 587 248 611 Q281 635 321 635 L321 635 Z" /><glyph glyph-name="" unicode="9" d="M320 390 Q264 392 231 428 Q197 465 196 518 Q196 567 229 604 Q261 641 320 643 Q372 643 407 610 Q443 578 444 518 Q443 463 410 427 Q377 391 320 390 L320 390 ZM385 303 Q318 202 256 126 Q194 51 145 0 L309 -6 Q447 145 517 265 Q588 385 588 504 Q586 612 514 682 Q442 752 320 754 Q202 751 129 685 Q56 618 54 518 Q55 413 116 347 Q177 281 285 279 Q310 279 336 287 Q361 294 382 306 L385 303 Z" /><glyph glyph-name="" unicode=":" d="M69 78 Q70 42 93 18 Q117 -5 153 -6 Q189 -5 213 18 Q236 42 237 78 Q236 114 213 139 Q189 163 153 164 Q117 163 93 139 Q70 114 69 78 L69 78 ZM69 440 Q70 404 93 380 Q117 357 153 356 Q189 357 213 380 Q236 404 237 440 Q236 476 213 500 Q189 524 153 525 Q117 524 93 500 Q70 476 69 440 L69 440 Z" /><glyph glyph-name="" unicode=";" d="M61 440 Q62 404 85 380 Q109 357 145 356 Q181 357 205 380 Q228 404 229 440 Q228 476 205 500 Q181 524 145 525 Q109 524 85 500 Q62 476 61 440 L61 440 ZM62 78 Q63 46 83 21 Q104 -4 135 -5 L73 -139 L137 -160 Q171 -114 199 -46 Q227 21 229 78 Q228 114 205 139 Q181 163 145 164 Q109 163 86 139 Q63 114 62 78 L62 78 Z" /><glyph glyph-name="" unicode="&lt;" d="M581 186 L226 334 L226 338 L581 486 L581 596 L76 387 L76 285 L581 76 L581 186 Z" /><glyph glyph-name="" unicode="=" d="M60 382 L597 382 L597 485 L60 485 L60 382 ZM60 191 L597 191 L597 293 L60 293 L60 191 Z" /><glyph glyph-name="" unicode="&gt;" d="M76 76 L581 285 L581 387 L76 596 L76 486 L431 338 L431 334 L76 186 L76 76 Z" /><glyph glyph-name="" unicode="?" d="M188 228 L275 228 L289 332 Q356 365 409 423 Q461 481 464 568 Q461 666 396 710 Q331 755 245 754 Q193 754 145 739 Q97 723 46 687 L99 590 Q136 618 168 631 Q199 643 231 643 Q272 644 300 620 Q328 597 329 543 Q326 489 277 446 Q229 403 170 376 L188 228 ZM151 75 Q152 40 175 18 Q197 -5 231 -6 Q266 -5 288 18 Q311 40 312 75 Q311 109 288 132 Q266 154 231 155 Q197 154 175 132 Q152 109 151 75 L151 75 Z" /><glyph glyph-name="" unicode="@" d="M510 504 Q409 504 349 442 Q288 381 286 264 Q288 146 347 81 Q406 15 500 14 Q553 15 591 42 Q628 69 652 112 L658 112 Q672 63 711 38 Q750 14 792 14 Q868 14 926 76 Q983 138 986 262 Q981 501 854 602 Q727 703 536 700 Q345 701 218 594 Q91 488 86 262 Q89 36 210 -72 Q331 -180 536 -179 Q591 -179 646 -168 Q701 -158 743 -143 L716 -49 Q680 -64 632 -73 Q584 -82 536 -82 Q375 -83 280 2 Q185 86 183 262 Q187 438 287 521 Q387 604 536 603 Q685 605 785 527 Q885 449 889 262 Q888 188 861 149 Q835 111 799 111 Q779 110 754 127 Q729 145 727 193 L727 453 L644 453 Q615 478 582 491 Q550 504 510 504 L510 504 ZM500 118 Q459 118 432 155 Q405 193 404 264 Q406 339 439 370 Q472 401 510 400 Q537 400 563 386 Q589 373 609 348 L609 239 Q607 184 573 151 Q539 119 500 118 L500 118 Z" /><glyph glyph-name="" unicode="a" d="M210 139 L531 139 L593 -6 L741 0 L414 748 L326 748 L-1 0 L149 -6 L210 139 ZM251 253 L368 542 L372 542 L489 253 L251 253 Z" /><glyph glyph-name="" unicode="b" d="M221 445 L221 630 L386 630 Q427 630 456 606 Q486 583 487 536 Q486 495 458 470 Q431 446 395 445 L221 445 ZM393 331 Q446 330 483 301 Q519 272 521 226 Q523 186 493 153 Q463 120 384 118 L221 118 L221 331 L393 331 ZM633 555 Q633 638 574 692 Q515 746 401 748 L75 748 L75 0 L401 0 Q531 1 599 59 Q667 116 667 211 Q665 277 624 325 Q582 372 519 388 L519 392 Q580 420 607 465 Q634 509 633 555 L633 555 Z" /><glyph glyph-name="" unicode="c" d="M677 679 Q619 714 558 734 Q496 754 423 754 Q238 750 144 643 Q50 536 50 374 Q50 212 144 105 Q238 -2 423 -6 Q496 -6 558 14 Q619 34 677 69 L618 187 Q573 155 526 138 Q479 120 423 120 Q312 123 254 195 Q196 266 196 374 Q196 482 254 554 Q312 625 423 628 Q479 628 526 610 Q573 593 618 561 L677 679 Z" /><glyph glyph-name="" unicode="d" d="M334 0 Q513 4 604 108 Q695 213 695 374 Q695 535 604 640 Q513 744 334 748 L70 748 L70 0 L334 0 ZM216 118 L216 630 L320 630 Q433 629 491 560 Q549 492 549 374 Q549 257 490 188 Q432 120 320 118 L216 118 Z" /><glyph glyph-name="" unicode="e" d="M606 630 L606 748 L75 748 L75 0 L606 0 L606 118 L221 118 L221 331 L564 331 L564 445 L221 445 L221 630 L606 630 Z" /><glyph glyph-name="" unicode="f" d="M585 630 L585 748 L75 748 L75 0 L221 0 L221 310 L543 310 L543 424 L221 424 L221 630 L585 630 Z" /><glyph glyph-name="" unicode="g" d="M706 413 L424 413 L424 298 L574 298 L574 162 Q539 141 502 132 Q466 122 424 122 Q313 125 255 196 Q196 266 196 374 Q196 482 254 554 Q312 625 423 628 Q483 628 534 610 Q585 593 632 561 L691 679 Q630 714 565 734 Q500 754 423 754 Q238 750 144 643 Q50 536 50 374 Q50 212 144 105 Q239 -2 424 -6 Q498 -5 570 19 Q642 44 706 86 L706 413 Z" /><glyph glyph-name="" unicode="h" d="M221 0 L221 331 L566 331 L566 0 L712 0 L712 748 L566 748 L566 445 L221 445 L221 748 L75 748 L75 0 L221 0 Z" /><glyph glyph-name="" unicode="i" d="M221 0 L221 748 L75 748 L75 0 L221 0 Z" /><glyph glyph-name="" unicode="j" d="M17 38 Q54 18 95 6 Q136 -6 180 -6 Q293 -7 361 58 Q428 123 430 269 L430 748 L284 748 L284 258 Q283 186 255 154 Q227 121 180 122 Q153 122 127 130 Q102 138 77 156 L17 38 Z" /><glyph glyph-name="" unicode="k" d="M221 748 L75 748 L75 0 L221 0 L221 314 L301 314 L525 -6 L689 0 L417 371 L647 748 L488 754 L301 428 L221 428 L221 748 Z" /><glyph glyph-name="" unicode="l" d="M221 118 L221 748 L75 748 L75 0 L564 0 L564 118 L221 118 Z" /><glyph glyph-name="" unicode="m" d="M472 167 L664 454 L668 453 L668 -1 L814 -1 L814 748 L715 748 L445 333 L174 748 L75 748 L75 -1 L221 -1 L221 452 L225 454 L416 167 L472 167 Z" /><glyph glyph-name="" unicode="n" d="M631 0 L712 0 L712 748 L566 748 L566 262 L562 261 L152 748 L75 748 L75 0 L221 0 L221 479 L225 480 L631 0 Z" /><glyph glyph-name="" unicode="o" d="M418 754 Q239 751 145 645 Q51 540 50 374 Q51 208 145 103 Q239 -3 418 -6 Q596 -3 690 103 Q784 208 785 374 Q784 540 690 645 Q596 751 418 754 L418 754 ZM418 629 Q526 626 582 553 Q638 480 638 374 Q638 268 582 195 Q526 122 418 119 Q309 122 253 195 Q197 268 197 374 Q197 480 253 553 Q309 626 418 629 L418 629 Z" /><glyph glyph-name="" unicode="p" d="M75 748 L75 0 L221 0 L221 238 L371 238 Q488 241 567 313 Q645 385 648 494 Q645 604 567 675 Q488 746 371 748 L75 748 ZM357 630 Q419 629 460 592 Q501 554 502 494 Q501 436 460 398 Q419 360 357 359 L221 359 L221 630 L357 630 Z" /><glyph glyph-name="" unicode="q" d="M197 374 Q197 480 253 553 Q309 626 418 629 Q528 625 583 551 Q638 476 638 374 Q640 266 584 188 Q528 111 385 107 Q297 138 248 203 Q198 267 197 374 L197 374 ZM50 374 Q52 241 105 159 Q158 77 238 34 Q363 -37 474 -90 Q584 -143 713 -207 L766 -95 Q707 -67 644 -38 Q580 -8 534 13 L535 17 Q656 52 720 142 Q784 232 785 374 Q784 540 690 645 Q596 751 418 754 Q239 751 145 645 Q51 540 50 374 L50 374 Z" /><glyph glyph-name="" unicode="r" d="M70 748 L70 0 L216 0 L216 291 L337 291 L526 -6 L689 0 L482 304 Q552 330 597 383 Q642 435 644 515 Q641 627 574 687 Q506 747 405 748 L70 748 ZM384 630 Q432 630 464 600 Q497 570 498 515 Q497 474 466 441 Q434 407 386 405 L216 405 L216 630 L384 630 Z" /><glyph glyph-name="" unicode="s" d="M52 76 Q112 37 175 16 Q239 -6 312 -6 Q444 -6 515 50 Q586 105 587 213 Q563 380 399 424 Q234 467 210 556 Q210 588 239 609 Q267 630 322 631 Q372 631 422 611 Q471 591 517 557 L577 672 Q520 711 460 732 Q400 754 329 754 Q194 752 129 695 Q64 637 64 549 Q88 371 253 330 Q417 288 441 202 Q440 160 408 137 Q375 114 319 114 Q268 115 214 136 Q159 156 112 190 L52 76 Z" /><glyph glyph-name="" unicode="t" d="M610 748 L16 748 L16 630 L240 630 L240 0 L386 0 L386 630 L610 630 L610 748 Z" /><glyph glyph-name="" unicode="u" d="M556 748 L556 322 Q556 230 513 172 Q469 113 386 111 Q303 113 260 172 Q216 230 216 322 L216 748 L70 748 L70 322 Q70 177 150 86 Q230 -4 386 -7 Q543 -4 622 86 Q702 177 702 322 L702 748 L556 748 Z" /><glyph glyph-name="" unicode="v" d="M338 210 L147 754 L-2 745 L290 0 L391 0 L683 745 L534 754 L342 210 L338 210 Z" /><glyph glyph-name="" unicode="w" d="M474 748 L299 218 L295 218 L147 754 L-2 745 L246 0 L347 0 L495 433 L499 433 L647 0 L748 0 L996 745 L849 754 L699 218 L695 218 L522 748 L474 748 Z" /><glyph glyph-name="" unicode="x" d="M4 0 L169 -6 L352 289 L534 -6 L699 0 L431 395 L666 748 L503 754 L352 502 L201 754 L37 748 L272 395 L4 0 Z" /><glyph glyph-name="" unicode="y" d="M-1 748 L259 283 L259 0 L405 0 L405 286 L665 748 L494 754 L334 406 L330 406 L170 754 L-1 748 Z" /><glyph glyph-name="" unicode="z" d="M628 748 L65 748 L65 630 L419 630 L42 45 L42 0 L628 0 L628 118 L253 118 L628 702 L628 748 Z" /><glyph glyph-name="" unicode="[" d="M290 -48 L159 -48 L159 709 L287 709 L287 806 L56 806 L56 -145 L290 -145 L290 -48 Z" /><glyph glyph-name="" unicode="\" d="M0 806 L346 -204 L453 -204 L106 806 L0 806 Z" /><glyph glyph-name="" unicode="]" d="M29 -145 L263 -145 L263 806 L32 806 L32 709 L160 709 L160 -48 L29 -48 L29 -145 Z" /><glyph glyph-name="" unicode="^" d="M83 296 L197 296 L365 643 L533 296 L647 296 L423 748 L307 748 L83 296 Z" /><glyph glyph-name="" unicode="_" d="M500 -126 L500 -66 L0 -66 L0 -126 L500 -126 Z" /><glyph glyph-name="" unicode="`" d="M176 743 L25 743 L152 585 L266 585 L176 743 Z" /><glyph glyph-name="" unicode="a" d="M533 0 L533 302 Q532 412 466 468 Q401 525 290 525 Q232 525 181 512 Q130 498 82 474 L125 382 Q165 401 199 411 Q234 421 276 421 Q330 422 362 393 Q393 364 394 296 Q363 306 327 310 Q292 315 269 315 Q123 310 82 256 Q41 202 46 159 Q47 85 98 40 Q149 -5 236 -6 Q277 -6 321 12 Q365 31 398 71 L402 70 L416 0 L533 0 ZM279 93 Q237 93 213 114 Q188 134 188 169 Q186 195 207 218 Q227 241 290 243 Q318 243 343 238 Q367 234 394 224 Q390 148 351 120 Q312 92 279 93 L279 93 Z" /><glyph glyph-name="" unicode="b" d="M177 37 Q211 17 253 6 Q294 -6 346 -6 Q458 -5 526 64 Q595 133 597 259 Q595 385 528 455 Q461 524 346 525 Q307 525 275 512 Q243 499 213 476 L210 477 L210 795 L72 795 L72 37 L177 37 ZM460 259 Q459 187 424 150 Q388 112 333 112 Q296 112 266 123 Q235 133 210 153 L210 358 Q235 381 264 394 Q293 407 333 407 Q388 407 424 369 Q459 331 460 259 L460 259 Z" /><glyph glyph-name="" unicode="c" d="M525 474 Q486 498 442 512 Q398 525 324 525 Q199 524 126 455 Q52 385 50 259 Q52 133 126 64 Q199 -5 324 -6 Q397 -6 442 7 Q486 20 525 45 L471 150 Q440 131 406 118 Q372 105 324 105 Q264 105 227 145 Q189 184 188 259 Q189 334 227 374 Q264 414 324 414 Q373 413 407 401 Q441 388 472 369 L525 474 Z" /><glyph glyph-name="" unicode="d" d="M50 259 Q52 133 117 64 Q182 -5 281 -6 Q331 -5 371 14 Q410 33 441 64 L445 63 L459 0 L576 0 L576 795 L438 795 L438 479 L435 478 Q405 501 373 513 Q340 525 301 525 Q187 524 119 455 Q52 385 50 259 L50 259 ZM315 112 Q259 112 224 150 Q189 187 188 259 Q189 331 225 369 Q260 407 315 407 Q354 407 384 394 Q413 381 438 358 L438 185 Q417 154 386 133 Q355 113 315 112 L315 112 Z" /><glyph glyph-name="" unicode="e" d="M558 259 Q559 383 499 454 Q438 524 310 525 Q193 524 123 455 Q52 385 50 259 Q52 133 126 64 Q201 -5 328 -6 Q392 -6 444 7 Q496 20 539 45 L496 136 Q459 117 417 108 Q375 98 328 98 Q270 98 233 126 Q196 155 190 219 L552 219 L558 259 ZM308 428 Q360 428 392 396 Q423 364 424 306 L192 306 Q197 361 228 394 Q258 427 308 428 L308 428 Z" /><glyph glyph-name="" unicode="f" d="M284 795 Q216 797 159 752 Q103 708 99 598 L99 519 L19 519 L19 421 L99 421 L99 0 L237 0 L237 421 L362 421 L362 519 L237 519 L237 589 Q238 643 263 661 Q288 680 319 679 Q339 679 363 673 Q387 667 413 656 L445 755 Q400 776 362 786 Q324 795 284 795 L284 795 Z" /><glyph glyph-name="" unicode="g" d="M293 525 Q173 524 120 476 Q67 429 68 350 Q68 307 84 276 Q100 245 129 224 Q108 209 95 188 Q82 166 82 140 Q82 120 90 102 Q97 83 112 69 Q81 46 64 15 Q46 -16 46 -51 Q44 -124 102 -168 Q160 -213 306 -214 Q449 -213 514 -167 Q578 -121 577 -46 Q578 15 532 59 Q486 102 376 112 L235 122 Q214 124 204 133 Q193 143 193 156 Q193 168 200 177 Q206 186 215 191 Q230 187 251 184 Q272 181 294 181 Q404 181 461 224 Q517 267 517 350 Q517 374 513 396 Q541 397 574 407 Q606 416 625 429 L592 519 Q570 506 550 499 Q529 492 507 492 Q448 494 410 509 Q372 523 293 525 L293 525 ZM361 13 Q401 9 419 -4 Q438 -18 438 -43 Q438 -73 405 -90 Q373 -107 306 -107 Q238 -107 208 -88 Q177 -70 178 -37 Q178 -22 185 -3 Q192 16 205 28 L361 13 ZM292 428 Q322 428 339 423 Q356 418 369 412 Q377 400 381 383 Q385 366 385 348 Q385 316 363 297 Q340 278 293 278 Q248 278 224 297 Q200 315 200 348 Q199 383 220 405 Q241 427 292 428 L292 428 Z" /><glyph glyph-name="" unicode="h" d="M208 0 L208 334 Q235 371 269 390 Q304 408 336 408 Q372 410 402 386 Q432 363 434 293 L434 0 L572 0 L572 286 Q568 429 508 479 Q449 528 378 525 Q336 525 293 507 Q251 489 212 453 L208 454 L208 795 L70 795 L70 0 L208 0 Z" /><glyph glyph-name="" unicode="i" d="M70 682 Q71 647 95 623 Q119 600 154 599 Q189 600 213 623 Q237 647 238 682 Q237 717 213 741 Q189 765 154 766 Q119 765 95 741 Q71 717 70 682 L70 682 ZM223 0 L223 519 L85 519 L85 0 L223 0 Z" /><glyph glyph-name="" unicode="j" d="M251 519 L113 519 L113 -5 Q113 -53 81 -77 Q50 -102 -6 -102 L14 -208 Q25 -211 37 -212 Q49 -214 56 -214 Q138 -214 194 -161 Q249 -109 251 -6 L251 519 ZM98 682 Q99 647 123 623 Q147 600 182 599 Q217 600 241 623 Q265 647 266 682 Q265 717 241 741 Q217 765 182 766 Q147 765 123 741 Q99 717 98 682 L98 682 Z" /><glyph glyph-name="" unicode="k" d="M585 0 L383 274 L553 519 L392 525 L261 316 L208 316 L208 795 L70 795 L70 0 L208 0 L208 230 L263 230 L421 -6 L585 0 Z" /><glyph glyph-name="" unicode="l" d="M283 106 Q238 106 221 129 Q204 151 205 196 L205 795 L67 795 L67 193 Q67 93 106 43 Q144 -7 221 -7 Q228 -7 241 -6 Q253 -5 264 -1 L283 106 Z" /><glyph glyph-name="" unicode="m" d="M208 0 L208 334 Q231 371 260 390 Q289 408 316 408 Q352 410 382 386 Q412 363 414 293 L414 0 L552 0 L552 334 Q575 371 604 390 Q633 408 660 408 Q696 410 726 386 Q756 363 758 293 L758 0 L896 0 L896 286 Q892 429 832 479 Q773 528 702 525 Q665 526 617 505 Q569 483 522 431 Q493 485 449 505 Q404 526 358 525 Q321 525 280 508 Q240 490 205 454 L201 455 L187 519 L70 519 L70 0 L208 0 Z" /><glyph glyph-name="" unicode="n" d="M208 0 L208 334 Q235 371 269 390 Q304 408 336 408 Q372 410 402 386 Q432 363 434 293 L434 0 L572 0 L572 286 Q568 429 508 479 Q449 528 378 525 Q335 525 290 507 Q244 488 205 451 L201 452 L187 519 L70 519 L70 0 L208 0 Z" /><glyph glyph-name="" unicode="o" d="M321 525 Q199 524 126 456 Q52 387 50 259 Q52 134 126 64 Q199 -5 321 -6 Q443 -5 517 64 Q590 134 592 259 Q590 387 517 456 Q443 524 321 525 L321 525 ZM321 415 Q381 414 417 373 Q453 332 454 259 Q453 186 417 146 Q381 105 321 104 Q262 105 225 146 Q189 186 188 259 Q189 332 225 373 Q262 414 321 415 L321 415 Z" /><glyph glyph-name="" unicode="p" d="M70 519 L70 -208 L208 -208 L208 41 L211 42 Q241 19 274 6 Q306 -6 345 -6 Q460 -5 527 64 Q594 134 596 260 Q594 386 529 455 Q464 524 365 525 Q314 524 275 504 Q236 484 205 452 L201 453 L187 519 L70 519 ZM458 260 Q457 188 422 150 Q386 112 332 112 Q292 112 263 124 Q233 137 208 160 L208 334 Q229 365 260 386 Q291 406 332 407 Q387 407 422 369 Q457 332 458 260 L458 260 Z" /><glyph glyph-name="" unicode="q" d="M470 482 Q437 502 395 513 Q353 525 302 525 Q190 524 121 455 Q52 386 50 260 Q52 134 119 64 Q187 -5 301 -6 Q340 -6 373 6 Q405 19 435 42 L438 41 L438 -208 L576 -208 L576 482 L470 482 ZM188 260 Q189 332 224 369 Q259 407 315 407 Q352 407 383 396 Q413 385 438 366 L438 160 Q413 137 384 124 Q354 112 315 112 Q260 112 225 150 Q189 188 188 260 L188 260 Z" /><glyph glyph-name="" unicode="r" d="M429 512 Q412 519 393 522 Q375 525 357 525 Q320 525 280 507 Q239 488 205 452 L201 453 L187 519 L70 519 L70 0 L208 0 L208 327 Q235 364 269 383 Q304 401 336 401 Q352 401 368 399 Q384 396 398 389 L429 512 Z" /><glyph glyph-name="" unicode="s" d="M299 155 Q298 130 274 117 Q250 105 213 105 Q187 105 156 111 Q125 118 83 137 L40 45 Q84 19 128 6 Q172 -6 222 -6 Q313 -6 370 36 Q427 78 429 158 Q413 280 301 307 Q188 334 172 377 Q173 399 196 408 Q219 417 248 417 Q272 417 303 409 Q335 402 370 383 L412 478 Q370 503 328 514 Q286 525 237 525 Q142 523 94 479 Q47 436 47 375 Q63 253 173 228 Q283 202 299 155 L299 155 Z" /><glyph glyph-name="" unicode="t" d="M399 134 Q374 120 354 115 Q333 111 315 111 Q288 110 263 130 Q238 150 236 207 L236 421 L386 421 L386 519 L236 519 L236 661 L133 661 L98 519 L12 519 L12 421 L98 421 L98 198 Q102 76 161 34 Q219 -9 280 -6 Q311 -6 348 3 Q385 11 431 35 L399 134 Z" /><glyph glyph-name="" unicode="u" d="M438 519 L438 185 Q411 148 377 129 Q342 111 310 111 Q274 109 244 133 Q214 157 212 226 L212 519 L74 519 L74 233 Q78 90 138 40 Q197 -9 268 -6 Q311 -6 356 12 Q402 31 441 68 L445 67 L459 0 L576 0 L576 519 L438 519 Z" /><glyph glyph-name="" unicode="v" d="M287 186 L283 186 L155 525 L6 519 L232 0 L337 0 L564 519 L414 525 L287 186 Z" /><glyph glyph-name="" unicode="w" d="M585 188 L581 188 L456 519 L391 519 L267 188 L263 188 L156 525 L6 519 L205 0 L303 0 L422 290 L426 290 L537 0 L642 0 L842 519 L692 525 L585 188 Z" /><glyph glyph-name="" unicode="x" d="M197 525 L37 519 L211 277 L9 0 L170 -6 L296 187 L423 -6 L584 0 L382 277 L556 519 L395 525 L296 369 L197 525 Z" /><glyph glyph-name="" unicode="y" d="M108 -208 L243 -214 L565 519 L416 525 L286 183 L282 183 L153 525 L3 519 L215 34 L108 -208 Z" /><glyph glyph-name="" unicode="z" d="M497 456 L497 519 L54 519 L54 409 L302 409 L40 63 L40 0 L500 0 L500 110 L241 110 L497 456 Z" /><glyph glyph-name="" unicode="{" d="M137 327 Q160 337 185 374 Q210 410 212 473 L212 654 Q212 678 228 694 Q243 709 267 709 L320 709 L320 806 L272 806 Q196 805 153 762 Q110 719 109 643 L109 513 Q110 456 94 418 Q77 379 30 366 L30 289 Q77 276 94 237 Q110 198 109 141 L109 14 Q110 -62 153 -105 Q196 -148 272 -149 L320 -149 L320 -52 L270 -52 Q243 -52 228 -36 Q212 -21 212 6 L212 181 Q210 244 185 280 Q160 317 137 327 L137 327 Z" /><glyph glyph-name="" unicode="|" d="M171 -154 L171 806 L68 806 L68 -154 L171 -154 Z" /><glyph glyph-name="" unicode="}" d="M212 327 Q189 317 164 280 Q139 244 137 181 L137 6 Q137 -21 121 -36 Q105 -52 79 -52 L29 -52 L29 -149 L77 -149 Q153 -148 196 -105 Q239 -62 240 14 L240 141 Q239 198 256 237 Q272 276 319 289 L319 366 Q272 379 256 418 Q239 456 240 513 L240 643 Q239 719 196 762 Q153 805 77 806 L29 806 L29 709 L82 709 Q106 709 121 694 Q136 678 137 654 L137 473 Q139 410 164 374 Q189 337 212 327 L212 327 Z" /><glyph glyph-name="" unicode="~" d="M222 365 Q192 366 168 381 Q144 395 126 407 L76 319 Q121 289 152 276 Q183 263 224 263 Q290 266 337 287 Q385 307 425 310 Q456 309 483 293 Q510 278 528 265 L580 353 Q535 383 502 398 Q469 412 424 412 Q361 409 314 389 Q268 368 222 365 L222 365 Z" /><glyph glyph-name="" unicode=" " d="" /><glyph glyph-name="" unicode="¡" d="M102 459 Q103 425 126 402 Q148 379 183 378 Q217 379 240 402 Q262 425 263 459 Q262 494 240 516 Q217 539 183 540 Q148 539 126 516 Q103 494 102 459 L102 459 ZM137 306 L117 -214 L249 -214 L228 306 L137 306 Z" /><glyph glyph-name="" unicode="¢" d="M406 -28 L406 110 Q456 115 491 128 Q526 141 558 160 L504 265 Q473 246 439 233 Q405 220 357 220 Q297 220 260 260 Q222 299 221 374 Q222 449 260 489 Q297 529 357 529 Q406 528 440 516 Q474 503 505 484 L558 589 Q525 607 491 620 Q456 633 406 638 L406 777 L302 777 L302 635 Q201 620 143 553 Q85 485 84 374 Q85 262 143 195 Q201 128 302 113 L302 -28 L406 -28 Z" /><glyph glyph-name="" unicode="£" d="M284 406 L284 476 Q286 575 321 607 Q356 639 401 636 Q434 636 469 627 Q504 617 544 597 L585 703 Q541 729 488 741 Q435 754 376 754 Q273 754 207 692 Q140 629 138 503 L138 406 L57 406 L57 321 L138 321 L138 118 L56 118 L56 0 L543 0 L543 118 L284 118 L284 321 L476 321 L491 406 L284 406 Z" /><glyph glyph-name="" unicode="¥" d="M394 0 L394 252 L519 252 L540 328 L414 328 L451 412 L558 412 L579 488 L484 488 L599 748 L443 754 L323 428 L319 428 L199 754 L43 748 L157 488 L55 488 L76 412 L190 412 L228 328 L94 328 L115 252 L248 252 L248 0 L394 0 Z" /><glyph glyph-name="" unicode="§" d="M548 283 Q527 419 383 462 Q239 505 218 579 Q220 618 248 634 Q277 650 314 649 Q341 649 378 637 Q415 624 446 593 L501 681 Q455 719 406 737 Q357 754 314 754 Q235 755 170 714 Q104 673 100 577 Q100 548 110 524 Q119 499 135 480 Q97 451 75 415 Q53 379 53 332 Q74 196 218 153 Q361 109 382 36 Q381 -3 352 -19 Q324 -35 286 -35 Q259 -35 222 -22 Q186 -9 154 21 L99 -67 Q145 -105 194 -122 Q243 -139 286 -139 Q366 -140 431 -99 Q496 -58 500 38 Q500 67 490 91 Q481 115 465 134 Q503 163 525 200 Q548 236 548 283 L548 283 ZM430 271 Q430 250 420 233 Q410 216 390 201 Q314 239 245 268 Q176 296 171 344 Q171 364 181 381 Q191 398 210 413 Q287 375 356 347 Q425 318 430 271 L430 271 Z" /><glyph glyph-name="" unicode="¨" d="M13 667 Q14 637 34 615 Q54 594 85 593 Q117 594 137 615 Q157 635 158 667 Q157 699 136 719 Q114 738 83 739 Q54 738 34 717 Q14 696 13 667 L13 667 ZM216 667 Q217 637 237 615 Q257 594 288 593 Q320 594 340 615 Q360 635 361 667 Q360 699 339 719 Q317 738 287 739 Q257 738 237 717 Q217 696 216 667 L216 667 Z" /><glyph glyph-name="" unicode="©" d="M546 274 Q514 258 486 252 Q459 246 438 246 Q378 246 345 279 Q312 312 311 375 Q312 437 348 470 Q383 503 438 503 Q465 503 493 497 Q521 492 541 482 L578 558 Q549 572 511 579 Q473 587 438 587 Q347 587 288 532 Q229 478 227 375 Q228 270 283 216 Q338 162 438 162 Q466 162 504 170 Q542 178 584 199 L546 274 ZM57 374 Q61 212 168 105 Q275 -2 437 -6 Q599 -2 706 105 Q813 212 817 374 Q813 536 706 643 Q599 750 437 754 Q275 750 168 643 Q61 536 57 374 L57 374 ZM125 374 Q128 507 216 595 Q304 683 437 686 Q570 683 658 595 Q746 507 749 374 Q746 241 658 153 Q570 65 437 62 Q304 65 216 153 Q128 241 125 374 L125 374 Z" /><glyph glyph-name="" unicode="ª" d="M254 431 L338 431 L338 616 Q337 685 296 720 Q254 754 184 754 Q149 754 118 746 Q87 738 56 722 L88 657 Q113 669 134 675 Q154 680 173 680 Q196 681 215 668 Q233 654 235 614 Q216 620 201 622 Q186 624 169 624 Q79 621 55 588 Q30 555 33 529 Q34 483 64 456 Q95 428 146 427 Q172 427 196 437 Q220 447 239 466 L244 465 L254 431 ZM234 563 Q233 523 215 508 Q196 494 177 495 Q158 495 146 506 Q134 516 134 534 Q134 549 145 560 Q155 571 182 572 Q210 572 234 563 L234 563 Z" /><glyph glyph-name="" unicode="«" d="M224 596 L63 367 L63 359 L224 131 L298 183 L175 364 L298 544 L224 596 ZM456 596 L295 367 L295 359 L456 131 L530 183 L407 364 L530 544 L456 596 Z" /><glyph glyph-name="" unicode="¬" d="M494 181 L597 181 L597 497 L60 497 L60 394 L494 394 L494 181 Z" /><glyph glyph-name="" unicode="®" d="M289 593 L289 170 L372 170 L372 327 L441 327 L517 166 L609 175 L520 344 Q561 361 581 392 Q600 424 600 460 Q601 505 567 548 Q532 590 455 593 L289 593 ZM372 514 L451 514 Q487 513 503 496 Q518 479 518 456 Q518 433 502 414 Q486 396 451 395 L372 395 L372 514 ZM57 374 Q61 212 168 105 Q275 -2 437 -6 Q599 -2 706 105 Q813 212 817 374 Q813 536 706 643 Q599 750 437 754 Q275 750 168 643 Q61 536 57 374 L57 374 ZM125 374 Q128 507 216 595 Q304 683 437 686 Q570 683 658 595 Q746 507 749 374 Q746 241 658 153 Q570 65 437 62 Q304 65 216 153 Q128 241 125 374 L125 374 Z" /><glyph glyph-name="" unicode="¯" d="M10 704 L10 623 L318 623 L318 704 L10 704 Z" /><glyph glyph-name="" unicode="°" d="M36 585 Q38 516 83 470 Q129 425 199 423 Q268 425 314 470 Q359 516 361 585 Q359 654 314 700 Q268 746 199 748 Q129 746 83 700 Q38 654 36 585 L36 585 ZM107 585 Q108 624 134 650 Q159 676 199 677 Q238 676 264 650 Q290 624 291 585 Q290 546 264 520 Q238 494 199 493 Q159 494 134 520 Q108 546 107 585 L107 585 Z" /><glyph glyph-name="" unicode="±" d="M60 363 L277 363 L277 222 L380 222 L380 363 L597 363 L597 465 L380 465 L380 606 L277 606 L277 465 L60 465 L60 363 ZM60 172 L60 70 L597 70 L597 172 L60 172 Z" /><glyph glyph-name="" unicode="´" d="M4 585 L118 585 L245 743 L94 743 L4 585 Z" /><glyph glyph-name="" unicode="µ" d="M201 -208 L201 12 L204 13 Q215 3 229 -2 Q243 -6 257 -6 Q300 -6 346 12 Q391 31 430 68 L434 67 L448 0 L565 0 L565 519 L427 519 L427 185 Q401 148 366 129 Q331 111 299 111 Q263 109 233 133 Q203 157 201 226 L201 519 L63 519 L63 -208 L201 -208 Z" /><glyph glyph-name="" unicode="¶" d="M323 -208 L426 -208 L426 630 L552 630 L552 -208 L655 -208 L655 748 L320 748 Q202 745 124 667 Q46 588 43 471 Q46 353 125 275 Q204 197 323 194 L323 -208 Z" /><glyph glyph-name="" unicode="·" d="M214 379 Q213 412 191 434 Q169 456 137 457 Q103 456 81 434 Q59 412 58 379 Q59 347 81 325 Q103 303 137 302 Q169 303 191 325 Q213 347 214 379 L214 379 Z" /><glyph glyph-name="" unicode="¸" d="M151 45 L16 -134 L116 -197 L231 -2 L151 45 Z" /><glyph glyph-name="" unicode="º" d="M200 754 Q125 754 79 711 Q34 669 33 590 Q34 514 79 471 Q125 428 200 427 Q275 428 320 471 Q366 514 367 590 Q366 669 320 711 Q275 754 200 754 L200 754 ZM200 674 Q229 674 246 651 Q264 629 264 590 Q264 552 246 530 Q229 508 200 507 Q171 508 153 530 Q136 552 135 590 Q136 629 153 651 Q171 674 200 674 L200 674 Z" /><glyph glyph-name="" unicode="»" d="M73 544 L196 364 L73 183 L147 131 L308 359 L308 367 L147 596 L73 544 ZM305 544 L428 364 L305 183 L379 131 L540 359 L540 367 L379 596 L305 544 Z" /><glyph glyph-name="" unicode="¿" d="M312 312 L225 312 L211 208 Q144 175 92 117 Q39 59 36 -28 Q39 -126 104 -170 Q169 -215 255 -214 Q307 -214 356 -199 Q404 -183 454 -148 L401 -51 Q364 -79 332 -91 Q301 -103 269 -103 Q228 -103 200 -80 Q172 -56 171 -3 Q174 51 223 94 Q272 137 330 164 L312 312 ZM350 465 Q349 500 326 522 Q304 545 269 546 Q234 545 212 522 Q189 500 188 465 Q189 431 212 408 Q234 385 269 384 Q304 385 326 408 Q349 431 350 465 L350 465 Z" /><glyph glyph-name="" unicode="à" d="M210 139 L531 139 L593 -6 L741 0 L414 748 L326 748 L-1 0 L149 -6 L210 139 ZM251 253 L368 542 L372 542 L489 253 L251 253 ZM400 954 L249 954 L376 796 L490 796 L400 954 Z" /><glyph glyph-name="" unicode="á" d="M210 139 L531 139 L593 -6 L741 0 L414 748 L326 748 L-1 0 L149 -6 L210 139 ZM251 253 L368 542 L372 542 L489 253 L251 253 ZM257 796 L371 796 L498 954 L347 954 L257 796 Z" /><glyph glyph-name="" unicode="â" d="M210 139 L531 139 L593 -6 L741 0 L414 748 L326 748 L-1 0 L149 -6 L210 139 ZM251 253 L368 542 L372 542 L489 253 L251 253 ZM431 954 L308 954 L204 796 L297 796 L369 876 L442 796 L535 796 L431 954 Z" /><glyph glyph-name="" unicode="ã" d="M210 139 L531 139 L593 -6 L741 0 L414 748 L326 748 L-1 0 L149 -6 L210 139 ZM251 253 L368 542 L372 542 L489 253 L251 253 ZM533 900 Q504 926 479 934 Q454 942 440 941 Q387 939 358 923 Q329 907 299 905 Q288 905 272 910 Q256 914 236 929 L207 849 Q234 824 257 815 Q281 806 297 807 Q337 809 372 826 Q406 842 438 844 Q448 844 465 839 Q482 834 506 818 L533 900 Z" /><glyph glyph-name="" unicode="ä" d="M210 139 L531 139 L593 -6 L741 0 L414 748 L326 748 L-1 0 L149 -6 L210 139 ZM251 253 L368 542 L372 542 L489 253 L251 253 ZM196 876 Q197 846 217 824 Q237 803 268 802 Q300 803 320 824 Q340 844 341 876 Q340 908 319 928 Q297 947 266 948 Q237 947 217 926 Q197 905 196 876 L196 876 ZM399 876 Q400 846 420 824 Q440 803 471 802 Q503 803 523 824 Q543 844 544 876 Q543 908 522 928 Q500 947 470 948 Q440 947 420 926 Q400 905 399 876 L399 876 Z" /><glyph glyph-name="" unicode="å" d="M210 139 L531 139 L593 -6 L741 0 L414 748 L326 748 L-1 0 L149 -6 L210 139 ZM251 253 L368 542 L372 542 L489 253 L251 253 ZM265 883 Q266 839 296 810 Q325 780 369 779 Q414 780 443 810 Q473 839 474 883 Q473 928 443 957 Q414 987 369 988 Q325 987 296 957 Q266 928 265 883 L265 883 ZM318 883 Q319 905 333 920 Q347 934 369 935 Q391 934 406 920 Q420 905 421 883 Q420 861 406 847 Q391 833 369 832 Q347 833 333 847 Q319 861 318 883 L318 883 Z" /><glyph glyph-name="" unicode="æ" d="M210 139 L479 139 L479 0 L980 0 L980 118 L625 118 L625 331 L938 331 L938 445 L625 445 L625 630 L980 630 L980 748 L326 748 L-1 3 L149 -6 L210 139 ZM251 253 L401 630 L479 630 L479 253 L251 253 Z" /><glyph glyph-name="" unicode="ç" d="M677 679 Q619 714 558 734 Q496 754 423 754 Q238 750 144 643 Q50 536 50 374 Q50 227 128 124 Q205 21 360 -2 L260 -134 L360 -197 L474 -3 Q530 3 580 21 Q629 40 677 69 L618 187 Q573 155 526 138 Q479 120 423 120 Q312 123 254 195 Q196 266 196 374 Q196 482 254 554 Q312 625 423 628 Q479 628 526 610 Q573 593 618 561 L677 679 Z" /><glyph glyph-name="" unicode="è" d="M606 630 L606 748 L75 748 L75 0 L606 0 L606 118 L221 118 L221 331 L564 331 L564 445 L221 445 L221 630 L606 630 ZM357 954 L206 954 L333 796 L447 796 L357 954 Z" /><glyph glyph-name="" unicode="é" d="M606 630 L606 748 L75 748 L75 0 L606 0 L606 118 L221 118 L221 331 L564 331 L564 445 L221 445 L221 630 L606 630 ZM272 795 L386 795 L513 953 L362 953 L272 795 Z" /><glyph glyph-name="" unicode="ê" d="M606 630 L606 748 L75 748 L75 0 L606 0 L606 118 L221 118 L221 331 L564 331 L564 445 L221 445 L221 630 L606 630 ZM410 954 L287 954 L183 796 L276 796 L348 876 L421 796 L514 796 L410 954 Z" /><glyph glyph-name="" unicode="ë" d="M606 630 L606 748 L75 748 L75 0 L606 0 L606 118 L221 118 L221 331 L564 331 L564 445 L221 445 L221 630 L606 630 ZM193 876 Q194 846 214 824 Q234 803 265 802 Q297 803 317 824 Q337 844 338 876 Q337 908 316 928 Q294 947 263 948 Q234 947 214 926 Q194 905 193 876 L193 876 ZM396 876 Q397 846 417 824 Q437 803 468 802 Q500 803 520 824 Q540 844 541 876 Q540 908 519 928 Q497 947 467 948 Q437 947 417 926 Q397 905 396 876 L396 876 Z" /><glyph glyph-name="" unicode="ñ" d="M617 0 L698 0 L698 748 L552 748 L552 262 L548 261 L138 748 L61 748 L61 0 L207 0 L207 479 L211 480 L617 0 ZM531 893 Q502 919 477 927 Q452 935 438 934 Q385 932 356 916 Q327 900 297 898 Q286 898 270 903 Q254 907 234 922 L205 842 Q232 817 255 808 Q279 799 295 800 Q335 802 370 819 Q404 835 436 837 Q446 837 463 832 Q480 827 504 811 L531 893 Z" /><glyph glyph-name="" unicode="ò" d="M418 754 Q239 751 145 645 Q51 540 50 374 Q51 208 145 103 Q239 -3 418 -6 Q596 -3 690 103 Q784 208 785 374 Q784 540 690 645 Q596 751 418 754 L418 754 ZM418 629 Q526 626 582 553 Q638 480 638 374 Q638 268 582 195 Q526 122 418 119 Q309 122 253 195 Q197 268 197 374 Q197 480 253 553 Q309 626 418 629 L418 629 ZM431 954 L280 954 L407 796 L521 796 L431 954 Z" /><glyph glyph-name="" unicode="ó" d="M418 754 Q239 751 145 645 Q51 540 50 374 Q51 208 145 103 Q239 -3 418 -6 Q596 -3 690 103 Q784 208 785 374 Q784 540 690 645 Q596 751 418 754 L418 754 ZM418 629 Q526 626 582 553 Q638 480 638 374 Q638 268 582 195 Q526 122 418 119 Q309 122 253 195 Q197 268 197 374 Q197 480 253 553 Q309 626 418 629 L418 629 ZM327 796 L441 796 L568 954 L417 954 L327 796 Z" /><glyph glyph-name="" unicode="ô" d="M418 754 Q239 751 145 645 Q51 540 50 374 Q51 208 145 103 Q239 -3 418 -6 Q596 -3 690 103 Q784 208 785 374 Q784 540 690 645 Q596 751 418 754 L418 754 ZM418 629 Q526 626 582 553 Q638 480 638 374 Q638 268 582 195 Q526 122 418 119 Q309 122 253 195 Q197 268 197 374 Q197 480 253 553 Q309 626 418 629 L418 629 ZM478 954 L355 954 L251 796 L344 796 L416 876 L489 796 L582 796 L478 954 Z" /><glyph glyph-name="" unicode="õ" d="M418 754 Q239 751 145 645 Q51 540 50 374 Q51 208 145 103 Q239 -3 418 -6 Q596 -3 690 103 Q784 208 785 374 Q784 540 690 645 Q596 751 418 754 L418 754 ZM418 629 Q526 626 582 553 Q638 480 638 374 Q638 268 582 195 Q526 122 418 119 Q309 122 253 195 Q197 268 197 374 Q197 480 253 553 Q309 626 418 629 L418 629 ZM583 900 Q554 926 529 934 Q504 942 490 941 Q437 939 408 923 Q379 907 349 905 Q338 905 322 910 Q306 914 286 929 L257 849 Q284 824 307 815 Q331 806 347 807 Q387 809 422 826 Q456 842 488 844 Q498 844 515 839 Q532 834 556 818 L583 900 Z" /><glyph glyph-name="" unicode="ö" d="M418 754 Q239 751 145 645 Q51 540 50 374 Q51 208 145 103 Q239 -3 418 -6 Q596 -3 690 103 Q784 208 785 374 Q784 540 690 645 Q596 751 418 754 L418 754 ZM418 629 Q526 626 582 553 Q638 480 638 374 Q638 268 582 195 Q526 122 418 119 Q309 122 253 195 Q197 268 197 374 Q197 480 253 553 Q309 626 418 629 L418 629 ZM243 876 Q244 846 264 824 Q284 803 315 802 Q347 803 367 824 Q387 844 388 876 Q387 908 366 928 Q344 947 313 948 Q284 947 264 926 Q244 905 243 876 L243 876 ZM446 876 Q447 846 467 824 Q487 803 518 802 Q550 803 570 824 Q590 844 591 876 Q590 908 569 928 Q547 947 517 948 Q487 947 467 926 Q447 905 446 876 L446 876 Z" /><glyph glyph-name="" unicode="ø" d="M720 754 L651 681 Q607 716 548 735 Q490 754 418 754 Q239 751 145 645 Q51 540 50 374 Q50 300 70 236 Q90 172 128 123 L62 53 L114 -2 L180 69 Q225 33 285 14 Q344 -6 418 -6 Q596 -3 690 103 Q784 208 785 374 Q785 449 764 513 Q744 577 704 628 L772 699 L720 754 ZM638 374 Q638 266 582 191 Q526 115 418 112 Q373 112 337 126 Q301 140 274 166 L600 521 Q619 490 628 453 Q638 415 638 374 L638 374 ZM418 636 Q461 636 496 622 Q531 608 557 584 L233 231 Q215 261 206 298 Q197 334 197 374 Q197 482 253 558 Q309 633 418 636 L418 636 Z" /><glyph glyph-name="" unicode="ù" d="M556 748 L556 322 Q556 230 513 172 Q469 113 386 111 Q303 113 260 172 Q216 230 216 322 L216 748 L70 748 L70 322 Q70 177 150 86 Q230 -4 386 -7 Q543 -4 622 86 Q702 177 702 322 L702 748 L556 748 ZM379 954 L228 954 L355 796 L469 796 L379 954 Z" /><glyph glyph-name="" unicode="ú" d="M556 748 L556 322 Q556 230 513 172 Q469 113 386 111 Q303 113 260 172 Q216 230 216 322 L216 748 L70 748 L70 322 Q70 177 150 86 Q230 -4 386 -7 Q543 -4 622 86 Q702 177 702 322 L702 748 L556 748 ZM304 796 L418 796 L545 954 L394 954 L304 796 Z" /><glyph glyph-name="" unicode="û" d="M556 748 L556 322 Q556 230 513 172 Q469 113 386 111 Q303 113 260 172 Q216 230 216 322 L216 748 L70 748 L70 322 Q70 177 150 86 Q230 -4 386 -7 Q543 -4 622 86 Q702 177 702 322 L702 748 L556 748 ZM446 954 L323 954 L219 796 L312 796 L384 876 L457 796 L550 796 L446 954 Z" /><glyph glyph-name="" unicode="ü" d="M556 748 L556 322 Q556 230 513 172 Q469 113 386 111 Q303 113 260 172 Q216 230 216 322 L216 748 L70 748 L70 322 Q70 177 150 86 Q230 -4 386 -7 Q543 -4 622 86 Q702 177 702 322 L702 748 L556 748 ZM212 876 Q213 846 233 824 Q253 803 284 802 Q316 803 336 824 Q356 844 357 876 Q356 908 335 928 Q313 947 282 948 Q253 947 233 926 Q213 905 212 876 L212 876 ZM415 876 Q416 846 436 824 Q456 803 487 802 Q519 803 539 824 Q559 844 560 876 Q559 908 538 928 Q516 947 486 948 Q456 947 436 926 Q416 905 415 876 L415 876 Z" /><glyph glyph-name="" unicode="ß" d="M578 595 Q578 680 511 737 Q445 793 316 795 Q214 796 140 743 Q67 689 63 570 L63 0 L201 0 L201 568 Q203 630 238 656 Q272 682 316 681 Q364 681 401 654 Q437 626 439 569 Q438 517 411 487 Q383 457 336 456 L279 456 L279 359 L347 359 Q401 359 440 328 Q479 296 481 234 Q479 165 437 137 Q395 109 340 110 L279 110 L279 0 L399 0 Q499 2 562 65 Q625 128 627 221 Q626 294 588 350 Q551 405 491 426 L490 430 Q532 454 555 496 Q578 537 578 595 L578 595 Z" /><glyph glyph-name="" unicode="æ" d="M653 525 Q598 525 552 506 Q506 488 473 453 Q442 488 395 507 Q349 525 290 525 Q232 525 181 512 Q130 498 82 474 L125 382 Q165 401 199 411 Q234 421 276 421 Q330 422 362 393 Q393 364 394 296 Q363 306 327 310 Q292 315 269 315 Q123 310 82 256 Q41 202 46 159 Q47 85 98 40 Q149 -5 236 -6 Q307 -6 361 20 Q414 46 447 95 Q483 46 540 20 Q597 -6 672 -6 Q736 -6 788 7 Q839 20 882 45 L839 136 Q802 117 760 108 Q718 98 671 98 Q612 98 576 126 Q539 155 534 219 L896 219 L902 259 Q903 383 842 454 Q781 524 653 525 L653 525 ZM279 93 Q237 93 213 114 Q188 134 188 169 Q186 195 207 218 Q227 241 290 243 Q318 243 343 238 Q367 234 394 224 Q390 148 351 120 Q312 92 279 93 L279 93 ZM651 428 Q704 428 735 396 Q767 364 768 306 L536 306 Q541 361 571 394 Q601 427 651 428 L651 428 Z" /><glyph glyph-name="" unicode="ç" d="M525 474 Q486 498 442 512 Q398 525 324 525 Q199 524 126 455 Q52 385 50 259 Q51 147 110 79 Q170 12 272 -2 L172 -134 L272 -197 L385 -3 Q429 1 462 13 Q494 25 525 45 L471 150 Q440 131 406 118 Q372 105 324 105 Q264 105 227 145 Q189 184 188 259 Q189 334 227 374 Q264 414 324 414 Q373 413 407 401 Q441 388 472 369 L525 474 Z" /><glyph glyph-name="" unicode="ë" d="M558 259 Q559 383 499 454 Q438 524 310 525 Q193 524 123 455 Q52 385 50 259 Q52 133 126 64 Q201 -5 328 -6 Q392 -6 444 7 Q496 20 539 45 L496 136 Q459 117 417 108 Q375 98 328 98 Q270 98 233 126 Q196 155 190 219 L552 219 L558 259 ZM308 428 Q360 428 392 396 Q423 364 424 306 L192 306 Q197 361 228 394 Q258 427 308 428 L308 428 ZM138 667 Q139 637 159 615 Q179 594 210 593 Q242 594 262 615 Q282 635 283 667 Q282 699 261 719 Q239 738 208 739 Q179 738 159 717 Q139 696 138 667 L138 667 ZM341 667 Q342 637 362 615 Q382 594 413 593 Q445 594 465 615 Q485 635 486 667 Q485 699 464 719 Q442 738 412 739 Q382 738 362 717 Q342 696 341 667 L341 667 Z" /><glyph glyph-name="" unicode="ï" d="M213 0 L213 519 L75 519 L75 0 L213 0 ZM-30 667 Q-29 637 -9 615 Q11 594 42 593 Q74 594 94 615 Q114 635 115 667 Q114 699 93 719 Q71 738 40 739 Q11 738 -9 717 Q-29 696 -30 667 L-30 667 ZM173 667 Q174 637 194 615 Q214 594 245 593 Q277 594 297 615 Q317 635 318 667 Q317 699 296 719 Q274 738 244 739 Q214 738 194 717 Q174 696 173 667 L173 667 Z" /><glyph glyph-name="" unicode="ñ" d="M208 0 L208 334 Q235 371 269 390 Q304 408 336 408 Q372 410 402 386 Q432 363 434 293 L434 0 L572 0 L572 286 Q568 429 508 479 Q449 528 378 525 Q335 525 290 507 Q244 488 205 451 L201 452 L187 519 L70 519 L70 0 L208 0 ZM514 684 Q485 710 460 718 Q435 726 421 725 Q368 723 339 707 Q310 691 280 689 Q269 689 253 694 Q237 698 217 713 L188 633 Q215 608 238 599 Q262 590 278 591 Q318 593 353 610 Q387 626 419 628 Q429 628 446 623 Q463 618 487 602 L514 684 Z" /><glyph glyph-name="" unicode="÷" d="M242 117 Q243 80 267 56 Q291 31 328 30 Q364 31 389 56 Q413 80 414 117 Q413 154 389 178 Q364 202 328 203 Q291 202 267 178 Q243 154 242 117 L242 117 ZM242 559 Q243 522 267 498 Q291 474 328 473 Q364 474 389 498 Q413 522 414 559 Q413 596 389 621 Q364 645 328 646 Q291 645 267 621 Q243 596 242 559 L242 559 ZM60 287 L597 287 L597 389 L60 389 L60 287 Z" /><glyph glyph-name="" unicode="ø" d="M583 467 L531 521 L487 476 Q453 500 410 513 Q368 525 318 525 Q196 524 123 456 Q49 387 47 259 Q47 209 60 168 Q72 127 96 95 L52 52 L103 -2 L149 43 Q183 19 226 7 Q268 -6 318 -6 Q440 -5 514 64 Q587 134 589 259 Q589 309 576 351 Q563 393 539 425 L583 467 ZM451 259 Q450 186 414 146 Q378 105 318 104 Q295 104 276 110 Q256 117 240 128 L434 326 Q442 312 447 296 Q451 279 451 259 L451 259 ZM318 415 Q340 415 359 409 Q379 402 394 390 L200 193 Q185 220 185 259 Q186 332 222 373 Q258 414 318 415 L318 415 Z" /><glyph glyph-name="" unicode="ù" d="M438 519 L438 185 Q411 148 377 129 Q342 111 310 111 Q274 109 244 133 Q214 157 212 226 L212 519 L74 519 L74 233 Q78 90 138 40 Q197 -9 268 -6 Q311 -6 356 12 Q402 31 441 68 L445 67 L459 0 L576 0 L576 519 L438 519 ZM347 743 L196 743 L323 585 L437 585 L347 743 Z" /><glyph glyph-name="" unicode="ú" d="M438 519 L438 185 Q411 148 377 129 Q342 111 310 111 Q274 109 244 133 Q214 157 212 226 L212 519 L74 519 L74 233 Q78 90 138 40 Q197 -9 268 -6 Q311 -6 356 12 Q402 31 441 68 L445 67 L459 0 L576 0 L576 519 L438 519 ZM242 585 L356 585 L483 743 L332 743 L242 585 Z" /><glyph glyph-name="" unicode="û" d="M438 519 L438 185 Q411 148 377 129 Q342 111 310 111 Q274 109 244 133 Q214 157 212 226 L212 519 L74 519 L74 233 Q78 90 138 40 Q197 -9 268 -6 Q311 -6 356 12 Q402 31 441 68 L445 67 L459 0 L576 0 L576 519 L438 519 ZM386 743 L263 743 L159 585 L252 585 L324 665 L397 585 L490 585 L386 743 Z" /><glyph glyph-name="" unicode="ü" d="M438 519 L438 185 Q411 148 377 129 Q342 111 310 111 Q274 109 244 133 Q214 157 212 226 L212 519 L74 519 L74 233 Q78 90 138 40 Q197 -9 268 -6 Q311 -6 356 12 Q402 31 441 68 L445 67 L459 0 L576 0 L576 519 L438 519 ZM151 667 Q152 637 172 615 Q192 594 223 593 Q255 594 275 615 Q295 635 296 667 Q295 699 274 719 Q252 738 221 739 Q192 738 172 717 Q152 696 151 667 L151 667 ZM354 667 Q355 637 375 615 Q395 594 426 593 Q458 594 478 615 Q498 635 499 667 Q498 699 477 719 Q455 738 425 739 Q395 738 375 717 Q355 696 354 667 L354 667 Z" /><glyph glyph-name="" unicode="ÿ" d="M101 -208 L236 -214 L558 519 L409 525 L279 183 L275 183 L146 525 L-4 519 L208 34 L101 -208 ZM118 667 Q119 637 139 615 Q159 594 190 593 Q222 594 242 615 Q262 635 263 667 Q262 699 241 719 Q219 738 188 739 Q159 738 139 717 Q119 696 118 667 L118 667 ZM321 667 Q322 637 342 615 Q362 594 393 593 Q425 594 445 615 Q465 635 466 667 Q465 699 444 719 Q422 738 392 739 Q362 738 342 717 Q322 696 321 667 L321 667 Z" /><glyph glyph-name="" unicode="&#x131;" d="M214 0 L214 519 L76 519 L76 0 L214 0 Z" /><glyph glyph-name="" unicode="&#x152;" d="M1037 630 L1037 748 L514 748 Q493 751 470 753 Q448 754 427 754 Q240 751 145 645 Q50 540 50 374 Q50 208 145 103 Q240 -3 427 -6 Q448 -6 470 -4 Q493 -3 514 0 L1037 0 L1037 118 L659 118 L659 331 L995 331 L995 445 L659 445 L659 630 L1037 630 ZM197 374 Q197 482 253 556 Q310 630 427 633 Q448 633 468 631 Q489 630 513 623 L513 124 Q489 118 468 117 Q448 115 427 115 Q310 118 253 192 Q197 266 197 374 L197 374 Z" /><glyph glyph-name="" unicode="&#x153;" d="M321 415 Q381 414 417 373 Q453 332 454 259 Q453 186 417 146 Q381 105 321 104 Q262 105 225 146 Q189 186 188 259 Q189 332 225 373 Q262 414 321 415 L321 415 ZM713 525 Q653 525 604 503 Q555 482 522 441 Q488 482 437 504 Q385 525 321 525 Q199 524 126 456 Q52 387 50 259 Q52 134 126 64 Q199 -5 321 -6 Q386 -6 437 16 Q488 37 523 78 Q558 37 611 16 Q665 -6 732 -6 Q795 -6 847 7 Q899 20 942 45 L899 136 Q862 117 820 108 Q778 98 731 98 Q672 98 636 126 Q599 155 594 219 L955 219 L961 259 Q962 383 902 454 Q841 524 713 525 L713 525 ZM711 428 Q763 428 795 396 Q826 364 827 306 L595 306 Q601 361 631 394 Q661 427 711 428 L711 428 Z" /><glyph glyph-name="" unicode="&#x178;" d="M-1 748 L259 283 L259 0 L405 0 L405 286 L665 748 L494 754 L334 406 L330 406 L170 754 L-1 748 ZM158 879 Q159 849 179 827 Q199 806 230 805 Q262 806 282 827 Q302 847 303 879 Q302 911 281 931 Q259 950 228 951 Q199 950 179 929 Q159 908 158 879 L158 879 ZM361 879 Q362 849 382 827 Q402 806 433 805 Q465 806 485 827 Q505 847 506 879 Q505 911 484 931 Q462 950 432 951 Q402 950 382 929 Q362 908 361 879 L361 879 Z" /><glyph glyph-name="" unicode="&#x192;" d="M145 471 L145 385 L268 385 L219 114 Q208 47 184 20 Q161 -8 119 -7 Q104 -7 89 -3 Q73 0 61 7 L20 -107 Q45 -120 73 -126 Q100 -133 140 -133 Q220 -132 276 -80 Q331 -27 349 70 L405 385 L537 385 L552 471 L421 471 L441 588 Q445 615 462 640 Q479 666 516 668 Q535 668 551 664 Q567 660 583 652 L621 758 Q599 774 564 782 Q528 790 501 790 Q424 789 374 739 Q324 690 309 610 L284 471 L145 471 Z" /><glyph glyph-name="" unicode="&#x2c6;" d="M237 743 L114 743 L10 585 L103 585 L175 665 L248 585 L341 585 L237 743 Z" /><glyph glyph-name="" unicode="&#x2c7;" d="M341 743 L248 743 L175 662 L103 743 L10 743 L114 585 L237 585 L341 743 Z" /><glyph glyph-name="" unicode="&#x2d8;" d="M10 743 Q15 669 60 630 Q104 591 175 591 Q246 591 291 630 Q335 669 341 743 L266 743 Q258 709 234 691 Q210 672 175 672 Q141 672 117 691 Q93 710 86 743 L10 743 Z" /><glyph glyph-name="" unicode="&#x2d9;" d="M10 664 Q11 633 31 612 Q51 591 82 590 Q114 591 134 611 Q154 632 155 664 Q154 695 133 715 Q111 734 81 735 Q51 734 31 713 Q11 693 10 664 L10 664 Z" /><glyph glyph-name="" unicode="&#x2da;" d="M10 661 Q11 617 41 588 Q70 558 114 557 Q159 558 188 588 Q218 617 219 661 Q218 706 188 735 Q159 765 114 766 Q70 765 41 735 Q11 706 10 661 L10 661 ZM63 661 Q64 683 78 698 Q92 712 114 713 Q136 712 151 698 Q165 683 166 661 Q165 639 151 625 Q136 611 114 610 Q92 611 78 625 Q64 639 63 661 L63 661 Z" /><glyph glyph-name="" unicode="&#x2db;" d="M209 -111 Q173 -111 146 -99 Q120 -86 119 -60 Q120 -35 135 -19 Q150 -4 172 4 L155 58 Q106 48 63 14 Q20 -21 17 -78 Q20 -137 69 -166 Q118 -196 180 -197 L209 -111 Z" /><glyph glyph-name="" unicode="&#x2dc;" d="M336 684 Q307 710 282 718 Q257 726 243 725 Q190 723 161 707 Q132 691 102 689 Q91 689 75 694 Q59 698 39 713 L10 633 Q37 608 60 599 Q84 590 100 591 Q140 593 175 610 Q209 626 241 628 Q251 628 268 623 Q285 618 309 602 L336 684 Z" /><glyph glyph-name="" unicode="&#x2dd;" d="M10 585 L113 585 L226 743 L86 743 L10 585 ZM222 585 L326 585 L439 743 L298 743 L222 585 Z" /><glyph glyph-name="" unicode="&#x3a9;" d="M587 118 L587 122 Q639 169 679 244 Q719 319 721 422 Q719 562 630 656 Q541 750 389 754 Q236 750 146 656 Q57 562 55 422 Q57 319 97 244 Q137 169 189 122 L189 118 L54 118 L54 0 L330 0 L330 97 Q282 142 243 215 Q203 288 201 389 Q202 494 250 564 Q298 633 388 636 Q478 633 526 564 Q574 494 575 389 Q573 288 533 215 Q493 142 446 97 L446 0 L722 0 L722 118 L587 118 Z" /><glyph glyph-name="" unicode="&#x3c0;" d="M283 409 L425 409 L425 145 Q425 109 428 68 Q432 28 437 0 L576 0 Q570 21 566 63 Q562 105 562 145 L562 409 L645 409 L645 519 L219 519 Q148 519 101 510 Q54 501 23 484 L47 379 Q64 386 90 394 Q115 401 152 406 Q146 299 128 186 Q110 73 86 0 L219 0 Q243 79 260 192 Q277 305 283 409 L283 409 Z" /><glyph glyph-name="" unicode="&#xfb01;" d="M595 0 L595 519 L237 519 L237 586 Q237 635 262 658 Q287 681 343 681 Q395 679 455 663 Q515 647 547 634 L578 733 Q534 756 462 775 Q389 794 333 795 Q229 797 165 750 Q101 703 99 589 L99 519 L19 519 L19 421 L99 421 L99 0 L237 0 L237 421 L457 421 L457 0 L595 0 Z" /><glyph glyph-name="" unicode="&#xfb02;" d="M595 726 Q544 752 467 773 Q389 794 333 795 Q229 797 165 750 Q101 703 99 589 L99 519 L19 519 L19 421 L99 421 L99 0 L237 0 L237 421 L362 421 L362 519 L237 519 L237 586 Q237 635 262 658 Q287 681 343 681 Q373 681 401 675 Q430 669 458 661 L458 193 Q458 93 497 43 Q535 -7 611 -7 Q618 -7 631 -6 Q643 -5 654 -1 L673 106 Q628 106 611 129 Q594 151 595 196 L595 726 Z" /><glyph glyph-name="" unicode="&#x2013;" d="M500 241 L500 343 L0 343 L0 241 L500 241 Z" /><glyph glyph-name="" unicode="&#x2014;" d="M766 241 L766 343 L0 343 L0 241 L766 241 Z" /><glyph glyph-name="" unicode="&#x2018;" d="M220 515 Q219 547 199 572 Q178 598 147 599 L209 732 L145 754 Q111 707 83 639 Q55 572 53 515 Q54 480 77 455 Q101 431 137 430 Q173 431 196 455 Q219 480 220 515 L220 515 Z" /><glyph glyph-name="" unicode="&#x2019;" d="M44 668 Q45 636 65 611 Q86 586 118 585 L55 451 L119 430 Q153 476 181 544 Q209 611 211 668 Q210 704 187 729 Q163 753 127 754 Q91 753 68 729 Q45 704 44 668 L44 668 Z" /><glyph glyph-name="" unicode="&#x201a;" d="M61 78 Q62 46 82 21 Q103 -4 135 -5 L72 -139 L136 -160 Q170 -114 198 -46 Q226 21 228 78 Q227 114 204 139 Q180 163 144 164 Q108 163 85 139 Q62 114 61 78 L61 78 Z" /><glyph glyph-name="" unicode="&#x201c;" d="M220 515 Q219 547 199 572 Q178 598 147 599 L209 732 L145 754 Q111 707 83 639 Q55 572 53 515 Q54 480 77 455 Q101 431 137 430 Q173 431 196 455 Q219 480 220 515 L220 515 ZM458 515 Q457 547 437 572 Q416 598 384 599 L447 732 L383 754 Q348 707 320 639 Q292 572 290 515 Q291 480 315 455 Q339 431 375 430 Q410 431 434 455 Q457 480 458 515 L458 515 Z" /><glyph glyph-name="" unicode="&#x201d;" d="M281 668 Q282 636 302 611 Q323 586 355 585 L292 451 L357 430 Q391 476 419 544 Q447 611 449 668 Q448 704 425 729 Q401 753 365 754 Q329 753 305 729 Q282 704 281 668 L281 668 ZM44 668 Q45 636 65 611 Q86 586 118 585 L55 451 L119 430 Q153 476 181 544 Q209 611 211 668 Q210 704 187 729 Q163 753 127 754 Q91 753 68 729 Q45 704 44 668 L44 668 Z" /><glyph glyph-name="" unicode="&#x201e;" d="M298 78 Q299 46 319 21 Q340 -4 372 -5 L309 -139 L374 -160 Q408 -114 436 -46 Q464 21 466 78 Q465 114 442 139 Q418 163 382 164 Q346 163 322 139 Q299 114 298 78 L298 78 ZM61 78 Q62 46 82 21 Q103 -4 135 -5 L72 -139 L136 -160 Q170 -114 198 -46 Q226 21 228 78 Q227 114 204 139 Q180 163 144 164 Q108 163 85 139 Q62 114 61 78 L61 78 Z" /><glyph glyph-name="" unicode="&#x2020;" d="M329 -78 L313 467 L501 450 L501 571 L313 554 L329 748 L208 748 L225 554 L40 571 L40 450 L225 467 L208 -78 L329 -78 Z" /><glyph glyph-name="" unicode="&#x2021;" d="M225 116 L208 -78 L329 -78 L312 116 L501 99 L501 220 L312 203 L312 467 L501 450 L501 571 L312 554 L329 748 L208 748 L225 554 L40 571 L40 450 L225 467 L225 203 L40 220 L40 99 L225 116 Z" /><glyph glyph-name="" unicode="&#x2022;" d="M318 374 Q317 430 280 467 Q242 505 187 506 Q132 505 95 467 Q57 430 56 374 Q57 319 95 282 Q132 245 187 244 Q242 245 280 282 Q317 319 318 374 L318 374 Z" /><glyph glyph-name="" unicode="&#x2026;" d="M69 78 Q70 42 93 18 Q117 -5 153 -6 Q189 -5 213 18 Q236 42 237 78 Q236 114 213 139 Q189 163 153 164 Q117 163 93 139 Q70 114 69 78 L69 78 ZM376 78 Q377 42 400 18 Q424 -5 460 -6 Q496 -5 520 18 Q543 42 544 78 Q543 114 520 139 Q496 163 460 164 Q424 163 400 139 Q377 114 376 78 L376 78 ZM683 78 Q684 42 707 18 Q731 -5 767 -6 Q803 -5 827 18 Q850 42 851 78 Q850 114 827 139 Q803 163 767 164 Q731 163 707 139 Q684 114 683 78 L683 78 Z" /><glyph glyph-name="" unicode="&#x2030;" d="M752 748 L661 754 L188 0 L272 -6 L752 748 ZM43 566 Q45 486 98 433 Q151 380 230 378 Q310 380 363 433 Q416 486 418 566 Q416 646 363 699 Q310 752 230 754 Q151 752 98 699 Q45 646 43 566 L43 566 ZM527 182 Q529 102 582 49 Q635 -4 714 -6 Q793 -4 847 49 Q900 102 902 182 Q900 263 847 316 Q793 369 714 371 Q635 369 582 316 Q529 263 527 182 L527 182 ZM129 566 Q130 609 159 638 Q187 667 230 668 Q274 667 302 638 Q331 609 332 566 Q331 522 302 494 Q274 465 230 464 Q187 465 159 494 Q130 522 129 566 L129 566 ZM613 182 Q614 226 643 255 Q671 284 714 285 Q757 284 786 255 Q815 226 816 182 Q815 138 786 110 Q757 81 714 80 Q671 81 643 110 Q614 138 613 182 L613 182 ZM969 182 Q971 102 1024 49 Q1077 -4 1157 -6 Q1236 -4 1289 49 Q1342 102 1344 182 Q1342 263 1289 316 Q1236 369 1157 371 Q1077 369 1024 316 Q971 263 969 182 L969 182 ZM1055 182 Q1056 226 1085 255 Q1113 284 1157 285 Q1200 284 1229 255 Q1257 226 1258 182 Q1257 138 1229 110 Q1200 81 1157 80 Q1113 81 1085 110 Q1056 138 1055 182 L1055 182 Z" /><glyph glyph-name="" unicode="&#x2039;" d="M224 596 L63 367 L63 359 L224 131 L298 183 L175 364 L298 544 L224 596 Z" /><glyph glyph-name="" unicode="&#x203a;" d="M73 544 L196 364 L73 183 L147 131 L308 359 L308 367 L147 596 L73 544 Z" /><glyph glyph-name="" unicode="&#x2044;" d="M-67 -6 L397 748 L306 754 L-150 0 L-67 -6 Z" /><glyph glyph-name="" unicode="&#x20ac;" d="M250 328 Q248 349 248 373 Q248 384 249 393 Q249 402 250 412 L465 412 L486 488 L257 488 Q270 564 303 601 Q336 637 387 637 Q427 637 463 624 Q498 612 532 586 L586 694 Q541 722 493 738 Q444 754 387 754 Q274 754 206 687 Q137 619 117 488 L71 488 L50 412 L109 412 Q108 402 108 393 Q108 384 108 373 Q108 349 110 328 L71 328 L50 252 L119 252 Q141 127 209 61 Q277 -4 390 -5 Q447 -5 496 11 Q545 28 592 60 L536 167 Q501 138 465 125 Q429 112 390 112 Q339 112 306 148 Q273 183 259 252 L426 252 L447 328 L250 328 Z" /><glyph glyph-name="" unicode="&#x2122;" d="M582 465 L681 615 L685 614 L685 412 L755 412 L755 748 L699 748 L579 564 L459 748 L403 748 L403 412 L473 412 L473 614 L477 615 L575 465 L582 465 ZM351 748 L50 748 L50 689 L165 689 L165 412 L235 412 L235 689 L351 689 L351 748 Z" /><glyph glyph-name="" unicode="&#x2202;" d="M284 525 Q177 524 113 455 Q48 385 46 259 Q48 133 116 64 Q184 -5 298 -6 Q428 -8 501 73 Q574 153 575 339 Q571 605 488 703 Q405 800 288 795 Q223 794 173 775 Q122 756 93 735 L138 641 Q160 657 195 670 Q230 683 281 684 Q337 686 383 640 Q428 593 439 473 L436 472 Q414 497 375 511 Q335 525 284 525 L284 525 ZM319 414 Q357 414 385 397 Q414 381 435 347 Q437 318 437 291 Q438 212 411 159 Q383 107 319 105 Q259 105 222 145 Q186 184 185 259 Q186 334 222 374 Q259 414 319 414 L319 414 Z" /><glyph glyph-name="" unicode="&#x2206;" d="M219 118 L384 537 L388 537 L556 118 L219 118 ZM749 0 L750 3 L430 748 L343 748 L23 3 L24 0 L749 0 Z" /><glyph glyph-name="" unicode="&#x220f;" d="M271 0 L271 630 L499 630 L499 0 L645 0 L645 630 L726 630 L726 748 L43 748 L43 630 L125 630 L125 0 L271 0 Z" /><glyph glyph-name="" unicode="&#x2211;" d="M257 118 L256 123 L434 373 L265 625 L267 630 L598 630 L598 748 L57 748 L49 703 L279 377 L39 45 L47 0 L612 0 L612 118 L257 118 Z" /><glyph glyph-name="" unicode="&#x221a;" d="M346 -155 L605 846 L509 846 L293 12 L289 12 L181 412 L3 412 L3 316 L100 316 L236 -155 L346 -155 Z" /><glyph glyph-name="" unicode="&#x221e;" d="M569 183 Q635 184 678 227 Q721 269 723 336 Q721 403 678 445 Q635 488 569 489 Q516 488 469 461 Q422 433 379 387 Q336 433 289 461 Q243 488 190 489 Q124 488 81 445 Q38 403 36 336 Q38 269 81 227 Q124 184 190 183 Q243 184 289 211 Q336 239 379 284 Q422 239 469 211 Q516 184 569 183 L569 183 ZM569 260 Q525 261 493 282 Q460 304 433 336 Q460 368 493 390 Q525 411 569 412 Q602 411 624 390 Q645 369 646 336 Q645 303 624 282 Q602 261 569 260 L569 260 ZM190 260 Q158 261 136 282 Q114 303 113 336 Q114 369 136 390 Q158 411 190 412 Q234 411 267 390 Q299 368 326 336 Q299 304 267 282 Q234 261 190 260 L190 260 Z" /><glyph glyph-name="" unicode="&#x222b;" d="M370 908 L308 908 Q232 907 189 864 Q146 821 145 745 L145 22 Q145 -4 130 -19 Q116 -34 90 -34 L26 -34 L26 -130 L90 -130 Q164 -129 206 -87 Q247 -45 248 29 L248 752 Q248 781 264 797 Q280 813 308 813 L370 813 L370 908 Z" /><glyph glyph-name="" unicode="&#x2248;" d="M222 462 Q192 463 168 478 Q144 492 126 504 L76 416 Q121 386 152 372 Q183 359 224 359 Q290 362 337 383 Q385 403 425 406 Q456 405 483 390 Q510 376 528 362 L580 449 Q535 480 502 494 Q469 509 424 509 Q361 506 314 486 Q268 465 222 462 L222 462 ZM222 270 Q192 271 168 286 Q144 300 126 313 L76 225 Q121 195 152 181 Q183 168 224 168 Q290 171 337 192 Q385 212 425 215 Q456 214 483 198 Q510 183 528 171 L580 258 Q535 289 502 303 Q469 317 424 317 Q361 314 314 294 Q268 273 222 270 L222 270 Z" /><glyph glyph-name="" unicode="&#x2260;" d="M60 382 L321 382 L323 378 L249 293 L60 293 L60 191 L162 191 L163 187 L107 121 L154 82 L246 191 L597 191 L597 293 L333 293 L332 297 L406 382 L597 382 L597 485 L495 485 L493 489 L550 556 L504 594 L410 485 L60 485 L60 382 Z" /><glyph glyph-name="" unicode="&#x2264;" d="M571 171 L571 282 L216 396 L216 400 L571 514 L571 625 L87 449 L87 347 L571 171 ZM572 24 L572 126 L85 126 L85 24 L572 24 Z" /><glyph glyph-name="" unicode="&#x2265;" d="M570 347 L570 449 L86 625 L86 514 L441 400 L441 396 L86 282 L86 171 L570 347 ZM572 24 L572 126 L85 126 L85 24 L572 24 Z" /><glyph glyph-name="" unicode="&#x25ca;" d="M588 374 L361 777 L273 777 L43 374 L270 -29 L357 -29 L588 374 ZM471 373 L316 106 L159 375 L316 640 L471 373 Z" /><glyph glyph-name="" unicode="¦" d="M68 806 L68 407 L171 407 L171 806 L68 806 ZM68 244 L68 -155 L171 -155 L171 244 L68 244 Z" /><glyph glyph-name="" unicode="²" d="M350 615 Q349 675 304 711 Q260 747 185 748 Q159 749 118 740 Q78 732 36 704 L70 625 Q93 638 116 646 Q139 655 162 655 Q193 655 213 640 Q232 625 233 594 Q226 524 155 456 Q84 388 36 355 L36 290 L345 290 L345 384 L180 384 L179 387 Q234 420 290 478 Q346 535 350 615 L350 615 Z" /><glyph glyph-name="" unicode="³" d="M344 427 Q344 455 324 485 Q304 515 257 527 L257 531 Q298 548 314 574 Q329 601 328 631 Q326 688 283 718 Q240 748 177 748 Q147 748 112 737 Q76 726 42 703 L79 623 Q103 639 124 646 Q145 652 159 652 Q179 652 195 642 Q211 632 212 609 Q211 588 195 576 Q178 564 153 564 L128 564 L128 488 L155 488 Q192 487 210 471 Q228 455 228 432 Q228 408 212 395 Q196 381 169 381 Q148 382 126 393 Q103 404 82 417 L40 333 Q77 311 112 301 Q147 290 177 290 Q254 291 299 329 Q343 367 344 427 L344 427 Z" /><glyph glyph-name="" unicode="¹" d="M184 621 L184 290 L301 290 L301 748 L225 748 L76 662 L107 595 L184 621 Z" /><glyph glyph-name="" unicode="¼" d="M174 621 L174 290 L290 290 L290 748 L215 748 L65 662 L97 595 L174 621 ZM646 173 L645 176 L719 309 L722 308 L722 173 L646 173 ZM826 460 L726 460 L521 149 L525 92 L722 92 L722 1 L826 1 L826 92 L874 92 L874 173 L826 173 L826 460 ZM293 -6 L756 748 L665 754 L209 0 L293 -6 Z" /><glyph glyph-name="" unicode="½" d="M138 621 L138 290 L255 290 L255 748 L179 748 L30 662 L61 595 L138 621 ZM257 -6 L720 748 L630 754 L174 0 L257 -6 ZM910 325 Q909 385 865 421 Q821 457 746 458 Q720 459 679 450 Q639 442 597 414 L631 335 Q654 348 677 356 Q700 365 722 365 Q753 365 773 350 Q793 335 794 304 Q787 234 716 166 Q645 98 597 65 L597 0 L906 0 L906 94 L741 94 L739 97 Q795 130 850 188 Q906 245 910 325 L910 325 Z" /><glyph glyph-name="" unicode="¾" d="M351 427 Q351 455 331 485 Q311 515 264 527 L264 531 Q305 548 321 574 Q336 601 335 631 Q333 688 290 718 Q247 748 184 748 Q154 748 119 737 Q83 726 49 703 L86 623 Q110 639 131 646 Q152 652 166 652 Q186 652 202 642 Q218 632 219 609 Q218 588 202 576 Q185 564 160 564 L135 564 L135 488 L162 488 Q199 487 217 471 Q235 455 235 432 Q235 407 219 394 Q203 381 176 381 Q155 382 133 393 Q110 404 89 417 L47 333 Q84 311 119 301 Q154 290 184 290 Q261 291 306 329 Q350 367 351 427 L351 427 ZM310 -6 L774 748 L683 754 L227 0 L310 -6 ZM663 173 L662 176 L736 309 L739 308 L739 173 L663 173 ZM843 460 L743 460 L538 149 L542 92 L739 92 L739 1 L843 1 L843 92 L891 92 L891 173 L843 173 L843 460 Z" /><glyph glyph-name="" unicode="ð" d="M362 0 Q541 4 632 108 Q723 213 723 374 Q723 535 632 640 Q541 744 362 748 L98 748 L98 431 L20 431 L20 316 L98 316 L98 0 L362 0 ZM244 118 L244 316 L399 316 L399 431 L244 431 L244 630 L348 630 Q460 629 518 560 Q577 492 577 374 Q577 257 518 188 Q460 120 348 118 L244 118 Z" /><glyph glyph-name="" unicode="×" d="M154 91 L328 265 L503 91 L576 163 L401 338 L576 512 L503 586 L328 410 L154 586 L81 512 L256 338 L81 163 L154 91 Z" /><glyph glyph-name="" unicode="ý" d="M-1 748 L259 283 L259 0 L405 0 L405 286 L665 748 L494 754 L334 406 L330 406 L170 754 L-1 748 ZM257 795 L371 795 L498 953 L347 953 L257 795 Z" /><glyph glyph-name="" unicode="þ" d="M75 0 L221 0 L221 98 L344 98 Q462 100 543 177 Q625 253 628 375 Q625 498 543 574 Q462 651 344 653 L221 653 L221 748 L75 748 L75 0 ZM221 220 L221 531 L323 531 Q390 530 435 488 Q480 445 482 375 Q480 305 435 263 Q390 221 323 220 L221 220 Z" /><glyph glyph-name="" unicode="ð" d="M556 712 L500 765 L389 710 Q345 742 312 761 Q279 779 243 795 L182 709 Q204 698 227 683 Q250 669 272 653 L172 605 L223 550 L337 605 Q370 576 398 540 Q426 505 442 462 L439 461 Q417 481 380 493 Q344 504 297 504 Q186 503 119 439 Q52 375 50 259 Q52 133 123 64 Q194 -5 311 -6 Q445 -7 519 70 Q593 148 594 322 Q592 431 552 516 Q511 600 450 660 L556 712 ZM332 396 Q368 396 396 383 Q423 370 445 346 Q451 329 455 310 Q458 290 458 270 Q458 197 423 152 Q388 106 318 105 Q261 105 225 143 Q190 181 189 252 Q190 320 229 358 Q268 395 332 396 L332 396 Z" /><glyph glyph-name="" unicode="ý" d="M108 -208 L243 -214 L565 519 L416 525 L286 183 L282 183 L153 525 L3 519 L215 34 L108 -208 ZM209 585 L323 585 L450 743 L299 743 L209 585 Z" /><glyph glyph-name="" unicode="þ" d="M70 795 L70 -208 L208 -208 L208 36 L211 38 Q240 16 270 5 Q300 -6 329 -6 Q434 -5 493 64 Q552 134 553 260 Q552 386 493 456 Q434 525 329 526 Q298 526 269 515 Q239 503 211 482 L208 483 L208 795 L70 795 ZM415 260 Q415 188 388 150 Q362 112 316 112 Q283 112 257 123 Q232 134 208 154 L208 365 Q232 385 257 397 Q283 408 316 408 Q362 408 388 370 Q414 332 415 260 L415 260 Z" /><glyph glyph-name="" unicode="&#x141;" d="M236 118 L236 327 L452 517 L452 620 L448 622 L236 437 L236 748 L90 748 L90 309 L26 254 L26 149 L30 147 L90 199 L90 0 L579 0 L579 118 L236 118 Z" /><glyph glyph-name="" unicode="&#x142;" d="M244 404 L352 498 L352 601 L348 603 L244 513 L244 795 L107 795 L107 394 L23 322 L23 217 L27 215 L107 284 L107 193 Q107 93 146 43 Q184 -7 260 -7 Q267 -7 280 -6 Q292 -5 303 -1 L322 106 Q277 106 260 129 Q243 151 244 196 L244 404 Z" /><glyph glyph-name="" unicode="&#x160;" d="M52 76 Q112 37 175 16 Q239 -6 312 -6 Q444 -6 515 50 Q586 105 587 213 Q563 380 399 424 Q234 467 210 556 Q210 588 239 609 Q267 630 322 631 Q372 631 422 611 Q471 591 517 557 L577 672 Q520 711 460 732 Q400 754 329 754 Q194 752 129 695 Q64 637 64 549 Q88 371 253 330 Q417 288 441 202 Q440 160 408 137 Q375 114 319 114 Q268 115 214 136 Q159 156 112 190 L52 76 ZM513 953 L420 953 L347 872 L275 953 L182 953 L286 795 L409 795 L513 953 Z" /><glyph glyph-name="" unicode="&#x161;" d="M306 155 Q305 130 281 117 Q257 105 220 105 Q194 105 163 111 Q132 118 90 137 L47 45 Q91 19 135 6 Q179 -6 229 -6 Q320 -6 377 36 Q434 78 436 158 Q420 280 308 307 Q195 334 179 377 Q180 399 203 408 Q226 417 255 417 Q279 417 310 409 Q342 402 377 383 L419 478 Q377 503 335 514 Q293 525 244 525 Q149 523 101 479 Q54 436 54 375 Q70 253 180 228 Q290 202 306 155 L306 155 ZM410 743 L317 743 L244 662 L172 743 L79 743 L183 585 L306 585 L410 743 Z" /><glyph glyph-name="" unicode="&#x17d;" d="M628 748 L65 748 L65 630 L419 630 L42 45 L42 0 L628 0 L628 118 L253 118 L628 702 L628 748 ZM516 953 L423 953 L350 872 L278 953 L185 953 L289 795 L412 795 L516 953 Z" /><glyph glyph-name="" unicode="&#x17e;" d="M480 456 L480 519 L37 519 L37 409 L285 409 L23 63 L23 0 L483 0 L483 110 L224 110 L480 456 ZM449 743 L356 743 L283 662 L211 743 L118 743 L222 585 L345 585 L449 743 Z" /><glyph glyph-name="" unicode="&#x2212;" d="M60 287 L597 287 L597 389 L60 389 L60 287 Z" /><glyph glyph-name="" unicode="&#x106;" d="M677 679 Q619 714 558 734 Q496 754 423 754 Q238 750 144 643 Q50 536 50 374 Q50 212 144 105 Q238 -2 423 -6 Q496 -6 558 14 Q619 34 677 69 L618 187 Q573 155 526 138 Q479 120 423 120 Q312 123 254 195 Q196 266 196 374 Q196 482 254 554 Q312 625 423 628 Q479 628 526 610 Q573 593 618 561 L677 679 ZM330 795 L444 795 L571 953 L420 953 L330 795 Z" /><glyph glyph-name="" unicode="&#x10c;" d="M677 679 Q619 714 558 734 Q496 754 423 754 Q238 750 144 643 Q50 536 50 374 Q50 212 144 105 Q238 -2 423 -6 Q496 -6 558 14 Q619 34 677 69 L618 187 Q573 155 526 138 Q479 120 423 120 Q312 123 254 195 Q196 266 196 374 Q196 482 254 554 Q312 625 423 628 Q479 628 526 610 Q573 593 618 561 L677 679 ZM583 953 L490 953 L417 872 L345 953 L252 953 L356 795 L479 795 L583 953 Z" /><glyph glyph-name="" unicode="&#x110;" d="M362 0 Q541 4 632 108 Q723 213 723 374 Q723 535 632 640 Q541 744 362 748 L98 748 L98 431 L20 431 L20 316 L98 316 L98 0 L362 0 ZM244 118 L244 316 L399 316 L399 431 L244 431 L244 630 L348 630 Q460 629 518 560 Q577 492 577 374 Q577 257 518 188 Q460 120 348 118 L244 118 Z" /><glyph glyph-name="" unicode="&#x107;" d="M525 474 Q486 498 442 512 Q398 525 324 525 Q199 524 126 455 Q52 385 50 259 Q52 133 126 64 Q199 -5 324 -6 Q397 -6 442 7 Q486 20 525 45 L471 150 Q440 131 406 118 Q372 105 324 105 Q264 105 227 145 Q189 184 188 259 Q189 334 227 374 Q264 414 324 414 Q373 413 407 401 Q441 388 472 369 L525 474 ZM241 585 L355 585 L482 743 L331 743 L241 585 Z" /><glyph glyph-name="" unicode="&#x10d;" d="M525 474 Q486 498 442 512 Q398 525 324 525 Q199 524 126 455 Q52 385 50 259 Q52 133 126 64 Q199 -5 324 -6 Q397 -6 442 7 Q486 20 525 45 L471 150 Q440 131 406 118 Q372 105 324 105 Q264 105 227 145 Q189 184 188 259 Q189 334 227 374 Q264 414 324 414 Q373 413 407 401 Q441 388 472 369 L525 474 ZM488 743 L395 743 L323 662 L250 743 L157 743 L261 585 L384 585 L488 743 Z" /><glyph glyph-name="" unicode="&#x111;" d="M273 683 L273 607 L435 607 L435 479 L431 478 Q401 501 369 513 Q337 525 298 525 Q183 524 116 455 Q49 385 47 259 Q49 133 114 64 Q179 -5 277 -6 Q328 -5 367 14 Q407 33 438 64 L442 63 L456 0 L572 0 L572 607 L639 607 L639 683 L572 683 L572 796 L435 796 L435 683 L273 683 ZM311 112 Q256 112 221 150 Q186 187 185 259 Q186 331 221 369 Q257 407 311 407 Q351 407 380 394 Q409 381 435 358 L435 185 Q413 154 382 133 Q351 113 311 112 L311 112 Z" /><glyph glyph-name="" unicode="&#x403;" d="M562 630 L562 748 L75 748 L75 0 L221 0 L221 630 L562 630 ZM254 795 L368 795 L495 953 L344 953 L254 795 Z" /><glyph glyph-name="" unicode="&#x405;" d="M52 76 Q110 37 172 16 Q234 -6 305 -6 Q441 -5 517 53 Q593 112 594 220 Q570 387 401 426 Q231 465 207 559 Q207 592 237 615 Q267 637 323 638 Q373 637 421 616 Q468 594 513 557 L572 672 Q514 711 455 732 Q395 754 323 754 Q191 752 126 695 Q61 639 61 552 Q85 383 251 340 Q417 297 441 209 Q440 163 405 137 Q369 110 305 110 Q256 110 206 132 Q157 153 112 190 L52 76 Z" /><glyph glyph-name="" unicode="&#x408;" d="M17 38 Q54 18 95 6 Q136 -6 180 -6 Q293 -7 361 58 Q428 123 430 269 L430 748 L284 748 L284 258 Q283 186 255 154 Q227 121 180 122 Q153 122 127 130 Q102 138 77 156 L17 38 Z" /><glyph glyph-name="" unicode="&#x409;" d="M653 118 L653 331 L749 331 Q802 331 838 303 Q874 275 876 224 Q876 181 845 150 Q814 119 748 118 L653 118 ZM175 748 L161 463 Q155 279 126 191 Q97 104 16 105 L37 -8 Q48 -11 60 -12 Q73 -14 80 -14 Q197 -12 243 101 Q289 214 297 413 L309 630 L507 630 L507 0 L767 0 Q885 1 953 60 Q1021 119 1022 223 Q1021 324 953 384 Q885 444 767 445 L653 445 L653 748 L175 748 Z" /><glyph glyph-name="" unicode="&#x40a;" d="M666 118 L666 331 L763 331 Q816 331 852 303 Q888 275 890 224 Q890 181 859 150 Q828 119 762 118 L666 118 ZM666 445 L666 748 L520 748 L520 445 L221 445 L221 748 L75 748 L75 0 L221 0 L221 331 L520 331 L520 0 L781 0 Q899 1 967 60 Q1035 119 1036 223 Q1035 324 967 384 Q899 444 781 445 L666 445 Z" /><glyph glyph-name="" unicode="&#x40c;" d="M221 748 L75 748 L75 0 L221 0 L221 314 L301 314 L525 -6 L689 0 L417 371 L647 748 L488 754 L301 428 L221 428 L221 748 ZM289 795 L403 795 L530 953 L379 953 L289 795 Z" /><glyph glyph-name="" unicode="&#x40f;" d="M458 -153 L458 0 L712 0 L712 748 L566 748 L566 118 L221 118 L221 748 L75 748 L75 0 L326 0 L326 -162 L458 -153 Z" /><glyph glyph-name="" unicode="&#x410;" d="M210 139 L531 139 L593 -6 L741 0 L414 748 L326 748 L-1 0 L149 -6 L210 139 ZM251 253 L368 542 L372 542 L489 253 L251 253 Z" /><glyph glyph-name="" unicode="&#x411;" d="M75 0 L391 0 Q512 2 581 65 Q649 128 650 232 Q649 336 581 399 Q512 461 391 463 L221 463 L221 630 L574 630 L574 748 L75 748 L75 0 ZM221 347 L373 347 Q429 347 466 317 Q503 287 504 233 Q504 189 473 155 Q441 120 372 118 L221 118 L221 347 Z" /><glyph glyph-name="" unicode="&#x412;" d="M221 445 L221 630 L386 630 Q427 630 456 606 Q486 583 487 536 Q486 495 458 470 Q431 446 395 445 L221 445 ZM393 331 Q446 330 483 301 Q519 272 521 226 Q523 186 493 153 Q463 120 384 118 L221 118 L221 331 L393 331 ZM633 555 Q633 638 574 692 Q515 746 401 748 L75 748 L75 0 L401 0 Q531 1 599 59 Q667 116 667 211 Q665 277 624 325 Q582 372 519 388 L519 392 Q580 420 607 465 Q634 509 633 555 L633 555 Z" /><glyph glyph-name="" unicode="&#x413;" d="M562 630 L562 748 L75 748 L75 0 L221 0 L221 630 L562 630 Z" /><glyph glyph-name="" unicode="&#x414;" d="M325 630 L513 630 L513 118 L244 118 Q281 218 299 344 Q317 470 325 630 L325 630 ZM148 -153 L148 0 L617 0 L617 -162 L742 -153 L742 118 L659 118 L659 748 L190 748 Q183 517 165 380 Q148 243 101 118 L23 118 L23 -162 L148 -153 Z" /><glyph glyph-name="" unicode="&#x415;" d="M606 630 L606 748 L75 748 L75 0 L606 0 L606 118 L221 118 L221 331 L564 331 L564 445 L221 445 L221 630 L606 630 Z" /><glyph glyph-name="" unicode="&#x416;" d="M204 754 L45 748 L259 377 L3 0 L167 -6 L372 320 L444 320 L444 0 L586 0 L586 320 L658 320 L863 -6 L1027 0 L771 377 L985 748 L826 754 L659 434 L586 434 L586 748 L444 748 L444 434 L371 434 L204 754 Z" /><glyph glyph-name="" unicode="&#x417;" d="M125 573 Q170 602 213 619 Q257 637 313 637 Q358 637 387 613 Q416 589 417 545 Q415 498 387 472 Q358 445 320 445 L211 445 L211 331 L318 331 Q373 330 409 302 Q445 273 446 222 Q447 180 413 147 Q379 113 298 111 Q247 112 199 131 Q151 151 105 184 L46 76 Q104 38 165 16 Q225 -6 298 -6 Q449 -4 521 54 Q593 113 592 208 Q590 280 546 327 Q502 373 441 389 L441 393 Q499 417 531 463 Q563 508 563 562 Q562 642 497 697 Q432 752 315 754 Q242 754 183 732 Q124 710 66 672 L125 573 Z" /><glyph glyph-name="" unicode="&#x418;" d="M562 480 L566 479 L566 0 L712 0 L712 748 L635 748 L225 261 L221 262 L221 748 L75 748 L75 0 L156 0 L562 480 Z" /><glyph glyph-name="" unicode="&#x41a;" d="M221 748 L75 748 L75 0 L221 0 L221 314 L301 314 L525 -6 L689 0 L417 371 L647 748 L488 754 L301 428 L221 428 L221 748 Z" /><glyph glyph-name="" unicode="&#x41b;" d="M37 -8 Q48 -11 60 -12 Q73 -14 80 -14 Q197 -12 243 101 Q289 214 297 413 L309 630 L528 630 L528 0 L674 0 L674 748 L175 748 L161 463 Q155 279 126 191 Q97 104 16 105 L37 -8 Z" /><glyph glyph-name="" unicode="&#x41c;" d="M472 167 L664 454 L668 453 L668 -1 L814 -1 L814 748 L715 748 L445 333 L174 748 L75 748 L75 -1 L221 -1 L221 452 L225 454 L416 167 L472 167 Z" /><glyph glyph-name="" unicode="&#x41d;" d="M221 0 L221 331 L566 331 L566 0 L712 0 L712 748 L566 748 L566 445 L221 445 L221 748 L75 748 L75 0 L221 0 Z" /><glyph glyph-name="" unicode="&#x41e;" d="M418 754 Q239 751 145 645 Q51 540 50 374 Q51 208 145 103 Q239 -3 418 -6 Q596 -3 690 103 Q784 208 785 374 Q784 540 690 645 Q596 751 418 754 L418 754 ZM418 629 Q526 626 582 553 Q638 480 638 374 Q638 268 582 195 Q526 122 418 119 Q309 122 253 195 Q197 268 197 374 Q197 480 253 553 Q309 626 418 629 L418 629 Z" /><glyph glyph-name="" unicode="&#x41f;" d="M221 0 L221 630 L566 630 L566 0 L712 0 L712 748 L75 748 L75 0 L221 0 Z" /><glyph glyph-name="" unicode="&#x420;" d="M75 748 L75 0 L221 0 L221 238 L371 238 Q488 241 567 313 Q645 385 648 494 Q645 604 567 675 Q488 746 371 748 L75 748 ZM357 630 Q419 629 460 592 Q501 554 502 494 Q501 436 460 398 Q419 360 357 359 L221 359 L221 630 L357 630 Z" /><glyph glyph-name="" unicode="&#x421;" d="M677 679 Q619 714 558 734 Q496 754 423 754 Q238 750 144 643 Q50 536 50 374 Q50 212 144 105 Q238 -2 423 -6 Q496 -6 558 14 Q619 34 677 69 L618 187 Q573 155 526 138 Q479 120 423 120 Q312 123 254 195 Q196 266 196 374 Q196 482 254 554 Q312 625 423 628 Q479 628 526 610 Q573 593 618 561 L677 679 Z" /><glyph glyph-name="" unicode="&#x422;" d="M610 748 L16 748 L16 630 L240 630 L240 0 L386 0 L386 630 L610 630 L610 748 Z" /><glyph glyph-name="" unicode="&#x423;" d="M547 754 L352 350 L149 754 L-1 748 L279 215 L164 0 L315 -6 L697 748 L547 754 Z" /><glyph glyph-name="" unicode="&#x424;" d="M559 0 L559 82 L644 82 Q768 85 850 167 Q933 248 936 375 Q933 502 850 584 Q768 666 644 669 L559 669 L559 748 L420 748 L420 669 L335 669 Q211 666 129 584 Q46 502 43 375 Q46 248 129 167 Q211 85 335 82 L420 82 L420 0 L559 0 ZM630 547 Q702 545 749 497 Q795 449 797 375 Q795 301 749 253 Q702 206 630 204 L559 204 L559 547 L630 547 ZM349 204 Q277 206 230 253 Q184 301 182 375 Q184 449 230 497 Q277 545 349 547 L420 547 L420 204 L349 204 Z" /><glyph glyph-name="" unicode="&#x425;" d="M4 0 L169 -6 L352 289 L534 -6 L699 0 L431 395 L666 748 L503 754 L352 502 L201 754 L37 748 L272 395 L4 0 Z" /><glyph glyph-name="" unicode="&#x426;" d="M742 -153 L742 118 L658 118 L658 748 L512 748 L512 118 L221 118 L221 748 L75 748 L75 0 L617 0 L617 -162 L742 -153 Z" /><glyph glyph-name="" unicode="&#x427;" d="M470 379 Q431 367 399 364 Q367 360 328 360 Q266 361 229 399 Q193 436 192 494 L192 748 L46 748 L46 494 Q48 385 122 312 Q196 240 314 237 Q359 237 397 243 Q434 248 470 257 L470 0 L616 0 L616 748 L470 748 L470 379 Z" /><glyph glyph-name="" unicode="&#x428;" d="M75 0 L968 0 L968 748 L822 748 L822 118 L591 118 L591 748 L452 748 L452 118 L221 118 L221 748 L75 748 L75 0 Z" /><glyph glyph-name="" unicode="&#x430;" d="M533 0 L533 302 Q532 412 466 468 Q401 525 290 525 Q232 525 181 512 Q130 498 82 474 L125 382 Q165 401 199 411 Q234 421 276 421 Q330 422 362 393 Q393 364 394 296 Q363 306 327 310 Q292 315 269 315 Q123 310 82 256 Q41 202 46 159 Q47 85 98 40 Q149 -5 236 -6 Q277 -6 321 12 Q365 31 398 71 L402 70 L416 0 L533 0 ZM279 93 Q237 93 213 114 Q188 134 188 169 Q186 195 207 218 Q227 241 290 243 Q318 243 343 238 Q367 234 394 224 Q390 148 351 120 Q312 92 279 93 L279 93 Z" /><glyph glyph-name="" unicode="&#x431;" d="M327 407 Q388 407 425 369 Q462 331 463 259 Q462 184 425 145 Q388 105 327 105 Q266 106 229 152 Q192 197 191 274 Q191 296 194 314 Q196 332 199 348 Q222 369 257 388 Q291 406 327 407 L327 407 ZM513 796 Q442 778 399 769 Q355 761 315 749 Q182 708 117 603 Q52 497 52 323 Q54 152 131 72 Q207 -7 327 -6 Q447 -5 520 64 Q593 133 595 259 Q594 382 525 450 Q456 517 334 518 Q301 518 265 504 Q229 491 203 471 Q216 543 252 586 Q288 629 351 647 Q404 662 443 669 Q481 676 540 695 L513 796 Z" /><glyph glyph-name="" unicode="&#x432;" d="M272 525 Q216 525 162 523 Q108 521 69 519 L69 0 Q103 -2 158 -4 Q213 -6 260 -6 Q391 -6 453 35 Q515 75 515 153 Q515 197 489 231 Q463 265 418 280 L418 284 Q453 302 473 331 Q492 361 492 399 Q494 453 443 489 Q393 524 272 525 L272 525 ZM299 98 Q270 98 251 98 Q232 98 207 99 L207 231 L284 231 Q334 231 359 211 Q384 192 384 160 Q383 130 360 114 Q336 98 299 98 L299 98 ZM289 425 Q322 425 344 411 Q367 398 368 367 Q368 341 349 321 Q329 302 285 301 L207 301 L207 424 Q231 424 248 425 Q266 425 289 425 L289 425 Z" /><glyph glyph-name="" unicode="&#x433;" d="M70 0 L208 0 L208 411 L447 411 L447 519 L70 519 L70 0 Z" /><glyph glyph-name="" unicode="&#x434;" d="M521 0 L521 -151 L643 -145 L643 108 L566 108 L566 519 L170 519 Q167 388 150 282 Q132 177 104 108 L30 108 L30 -151 L151 -145 L151 0 L521 0 ZM297 411 L429 411 L429 108 L241 108 Q265 178 278 254 Q292 329 297 411 L297 411 Z" /><glyph glyph-name="" unicode="&#x435;" d="M558 259 Q559 383 499 454 Q438 524 310 525 Q193 524 123 455 Q52 385 50 259 Q52 133 126 64 Q201 -5 328 -6 Q392 -6 444 7 Q496 20 539 45 L496 136 Q459 117 417 108 Q375 98 328 98 Q270 98 233 126 Q196 155 190 219 L552 219 L558 259 ZM308 428 Q360 427 392 395 Q423 363 424 305 L192 305 Q197 359 228 393 Q258 427 308 428 L308 428 Z" /><glyph glyph-name="" unicode="&#x436;" d="M167 -6 L311 232 L360 232 L360 0 L498 0 L498 232 L547 232 L691 -6 L855 0 L667 276 L823 519 L662 525 L545 318 L498 318 L498 519 L360 519 L360 318 L313 318 L197 525 L36 519 L192 276 L3 0 L167 -6 Z" /><glyph glyph-name="" unicode="&#x437;" d="M198 225 Q249 224 276 208 Q304 191 304 164 Q303 136 280 121 Q256 105 219 105 Q193 105 162 111 Q131 118 89 136 L46 45 Q90 19 134 6 Q179 -6 228 -6 Q319 -6 376 35 Q433 75 435 153 Q435 197 409 231 Q383 265 338 280 L338 284 Q373 302 393 331 Q412 361 412 399 Q411 453 364 489 Q317 524 230 525 Q182 525 138 514 Q95 503 51 478 L94 383 Q129 401 160 409 Q190 417 213 417 Q242 418 264 406 Q287 394 288 364 Q288 340 266 324 Q244 309 198 308 L163 308 L163 225 L198 225 Z" /><glyph glyph-name="" unicode="&#x438;" d="M430 313 L434 311 L434 0 L571 0 L571 520 L489 520 L212 203 L208 205 L208 519 L70 519 L70 -2 L154 -2 L430 313 Z" /><glyph glyph-name="" unicode="&#x43a;" d="M585 0 L383 276 L553 519 L392 525 L261 318 L208 318 L208 519 L70 519 L70 0 L208 0 L208 232 L263 232 L421 -6 L585 0 Z" /><glyph glyph-name="" unicode="&#x43b;" d="M8 103 L29 -4 Q40 -7 52 -8 Q64 -10 71 -10 Q157 -9 204 63 Q250 134 257 265 L265 411 L411 411 L411 0 L548 0 L548 519 L136 519 L126 307 Q122 192 97 147 Q72 101 8 103 L8 103 Z" /><glyph glyph-name="" unicode="&#x43c;" d="M358 94 L374 94 L521 304 L525 303 L525 0 L662 0 L662 519 L559 519 L366 240 L174 519 L70 519 L70 0 L208 0 L208 303 L212 304 L358 94 Z" /><glyph glyph-name="" unicode="&#x43d;" d="M571 519 L434 519 L434 330 L208 330 L208 519 L70 519 L70 0 L208 0 L208 232 L434 232 L434 0 L571 0 L571 519 Z" /><glyph glyph-name="" unicode="&#x43e;" d="M321 525 Q199 524 126 456 Q52 387 50 259 Q52 134 126 64 Q199 -5 321 -6 Q443 -5 517 64 Q590 134 592 259 Q590 387 517 456 Q443 524 321 525 L321 525 ZM321 415 Q381 414 417 373 Q453 332 454 259 Q453 186 417 146 Q381 105 321 104 Q262 105 225 146 Q189 186 188 259 Q189 332 225 373 Q262 414 321 415 L321 415 Z" /><glyph glyph-name="" unicode="&#x43f;" d="M434 0 L571 0 L571 519 L70 519 L70 0 L208 0 L208 411 L434 411 L434 0 Z" /><glyph glyph-name="" unicode="&#x440;" d="M70 519 L70 -208 L208 -208 L208 41 L211 42 Q241 19 274 6 Q306 -6 345 -6 Q460 -5 527 64 Q594 134 596 260 Q594 386 529 455 Q464 524 365 525 Q314 524 275 504 Q236 484 205 452 L201 453 L187 519 L70 519 ZM458 260 Q457 188 422 150 Q386 112 332 112 Q292 112 263 124 Q233 137 208 160 L208 334 Q229 365 260 386 Q291 406 332 407 Q387 407 422 369 Q457 332 458 260 L458 260 Z" /><glyph glyph-name="" unicode="&#x441;" d="M525 474 Q486 498 442 512 Q398 525 324 525 Q199 524 126 455 Q52 385 50 259 Q52 133 126 64 Q199 -5 324 -6 Q397 -6 442 7 Q486 20 525 45 L471 150 Q440 131 406 118 Q372 105 324 105 Q264 105 227 145 Q189 184 188 259 Q189 334 227 374 Q264 414 324 414 Q373 413 407 401 Q441 388 472 369 L525 474 Z" /><glyph glyph-name="" unicode="&#x442;" d="M181 411 L181 0 L318 0 L318 411 L479 411 L479 519 L20 519 L20 411 L181 411 Z" /><glyph glyph-name="" unicode="&#x443;" d="M108 -208 L243 -214 L565 519 L416 525 L286 183 L282 183 L153 525 L3 519 L215 34 L108 -208 Z" /><glyph glyph-name="" unicode="&#x444;" d="M395 795 L395 483 L392 482 Q364 503 335 515 Q305 526 274 526 Q169 525 110 456 Q51 386 50 260 Q51 134 110 64 Q169 -5 274 -6 Q303 -6 333 5 Q363 16 392 38 L395 36 L395 -208 L533 -208 L533 36 L536 38 Q564 16 594 5 Q625 -6 654 -6 Q759 -5 817 64 Q876 134 877 260 Q876 386 817 456 Q759 525 654 526 Q623 526 593 515 Q564 503 536 482 L533 483 L533 795 L395 795 ZM740 260 Q739 188 713 150 Q686 112 640 112 Q607 112 582 123 Q556 134 533 154 L533 365 Q556 385 582 397 Q607 408 640 408 Q686 408 713 370 Q739 332 740 260 L740 260 ZM188 260 Q189 332 215 370 Q242 408 288 408 Q321 408 346 397 Q372 385 395 365 L395 154 Q372 134 346 123 Q321 112 288 112 Q242 112 215 150 Q189 188 188 260 L188 260 Z" /><glyph glyph-name="" unicode="&#x445;" d="M197 525 L37 519 L211 277 L9 0 L170 -6 L296 187 L423 -6 L584 0 L382 277 L556 519 L395 525 L296 369 L197 525 Z" /><glyph glyph-name="" unicode="&#x446;" d="M506 -151 L628 -145 L628 108 L551 108 L551 519 L414 519 L414 108 L208 108 L208 519 L70 519 L70 0 L506 0 L506 -151 Z" /><glyph glyph-name="" unicode="&#x447;" d="M524 0 L524 519 L387 519 L387 282 Q355 270 330 265 Q305 260 281 260 Q241 258 210 282 Q179 306 177 375 L177 519 L39 519 L39 382 Q43 246 103 193 Q164 141 239 143 Q277 143 314 150 Q350 158 387 174 L387 0 L524 0 Z" /><glyph glyph-name="" unicode="&#x448;" d="M804 0 L804 519 L666 519 L666 108 L502 108 L502 519 L372 519 L372 108 L208 108 L208 519 L70 519 L70 0 L804 0 Z" /><glyph glyph-name="" unicode="&#x453;" d="M70 0 L208 0 L208 411 L447 411 L447 519 L70 519 L70 0 ZM174 585 L288 585 L415 743 L264 743 L174 585 Z" /><glyph glyph-name="" unicode="&#x455;" d="M306 155 Q305 130 281 117 Q257 105 220 105 Q194 105 163 111 Q132 118 90 137 L47 45 Q91 19 135 6 Q179 -6 229 -6 Q320 -6 377 36 Q434 78 436 158 Q420 280 308 307 Q195 334 179 377 Q180 399 203 408 Q226 417 255 417 Q279 417 310 409 Q342 402 377 383 L419 478 Q377 503 335 514 Q293 525 244 525 Q149 523 101 479 Q54 436 54 375 Q70 253 180 228 Q290 202 306 155 L306 155 Z" /><glyph glyph-name="" unicode="&#x458;" d="M243 519 L105 519 L105 -5 Q105 -53 73 -77 Q42 -102 -14 -102 L6 -208 Q17 -211 29 -212 Q41 -214 48 -214 Q130 -214 186 -161 Q241 -109 243 -6 L243 519 ZM90 682 Q91 647 114 623 Q138 600 174 599 Q209 600 232 623 Q256 647 257 682 Q256 717 232 741 Q209 765 174 766 Q138 765 114 741 Q91 717 90 682 L90 682 Z" /><glyph glyph-name="" unicode="&#x459;" d="M615 232 Q647 232 669 216 Q692 200 693 166 Q692 133 669 116 Q647 99 615 99 L544 99 L544 232 L615 232 ZM136 519 L126 307 Q122 192 97 147 Q72 101 8 103 L29 -4 Q40 -7 52 -8 Q64 -10 71 -10 Q157 -9 204 63 Q250 134 257 265 L265 411 L407 411 L407 0 L648 0 Q729 1 776 47 Q824 93 825 166 Q824 239 776 284 Q729 329 648 330 L544 330 L544 519 L136 519 Z" /><glyph glyph-name="" unicode="&#x45a;" d="M546 330 L546 519 L408 519 L408 330 L208 330 L208 519 L70 519 L70 0 L208 0 L208 232 L408 232 L408 0 L650 0 Q731 1 778 47 Q826 93 827 166 Q826 239 778 284 Q731 329 650 330 L546 330 ZM617 232 Q649 232 671 216 Q694 200 695 166 Q694 133 671 116 Q649 99 617 99 L546 99 L546 232 L617 232 Z" /><glyph glyph-name="" unicode="&#x45c;" d="M218 585 L332 585 L459 743 L308 743 L218 585 ZM585 0 L383 276 L553 519 L392 525 L261 318 L208 318 L208 519 L70 519 L70 0 L208 0 L208 232 L263 232 L421 -6 L585 0 Z" /><glyph glyph-name="" unicode="&#x45f;" d="M258 -151 L383 -145 L383 0 L571 0 L571 519 L434 519 L434 108 L208 108 L208 519 L70 519 L70 0 L258 0 L258 -151 Z" /><glyph glyph-name="" unicode="¤" d="M188 354 Q190 416 231 457 Q272 498 334 500 Q396 498 437 457 Q478 416 480 354 Q478 292 437 251 Q396 210 334 209 Q272 210 231 251 Q190 292 188 354 L188 354 ZM125 73 L197 145 Q226 125 261 115 Q296 104 334 104 Q372 104 406 115 Q441 125 471 145 L542 73 L615 145 L543 216 Q563 245 574 280 Q585 315 585 354 Q585 392 574 427 Q563 462 543 491 L615 563 L542 635 L471 563 Q442 583 407 594 Q372 605 334 605 Q295 605 260 594 Q225 583 196 563 L125 635 L53 563 L125 491 Q105 461 94 426 Q84 392 84 354 Q84 316 95 281 Q105 246 125 217 L53 145 L125 73 Z" /><glyph glyph-name="" unicode="&#x400;" d="M606 630 L606 748 L75 748 L75 0 L606 0 L606 118 L221 118 L221 331 L564 331 L564 445 L221 445 L221 630 L606 630 ZM345 954 L194 954 L321 796 L435 796 L345 954 Z" /><glyph glyph-name="" unicode="&#x40d;" d="M562 480 L566 479 L566 0 L712 0 L712 748 L635 748 L225 261 L221 262 L221 748 L75 748 L75 0 L156 0 L562 480 ZM397 954 L246 954 L373 796 L487 796 L397 954 Z" /><glyph glyph-name="" unicode="&#x450;" d="M558 259 Q559 383 499 454 Q438 524 310 525 Q193 524 123 455 Q52 385 50 259 Q52 133 126 64 Q201 -5 328 -6 Q392 -6 444 7 Q496 20 539 45 L496 136 Q459 117 417 108 Q375 98 328 98 Q270 98 233 126 Q196 155 190 219 L552 219 L558 259 ZM308 428 Q360 427 392 395 Q423 363 424 305 L192 305 Q197 359 228 393 Q258 427 308 428 L308 428 ZM304 743 L153 743 L280 585 L394 585 L304 743 Z" /><glyph glyph-name="" unicode="&#x45d;" d="M430 313 L434 311 L434 0 L571 0 L571 520 L489 520 L212 203 L208 205 L208 519 L70 519 L70 -2 L154 -2 L430 313 ZM317 743 L166 743 L293 585 L407 585 L317 743 Z" /><glyph glyph-name="" unicode="" d="" /><glyph glyph-name="" unicode="é" d="M558 259 Q559 383 499 454 Q438 524 310 525 Q193 524 123 455 Q52 385 50 259 Q52 133 126 64 Q201 -5 328 -6 Q392 -6 444 7 Q496 20 539 45 L496 136 Q459 117 417 108 Q375 98 328 98 Q270 98 233 126 Q196 155 190 219 L552 219 L558 259 ZM308 428 Q360 428 392 396 Q423 364 424 306 L192 306 Q197 361 228 394 Q258 427 308 428 L308 428 ZM222 585 L336 585 L463 743 L312 743 L222 585 Z" /><glyph glyph-name="" unicode="í" d="M215 0 L215 519 L77 519 L77 0 L215 0 ZM31 585 L145 585 L272 743 L121 743 L31 585 Z" /><glyph glyph-name="" unicode="ì" d="M215 0 L215 519 L77 519 L77 0 L215 0 ZM176 743 L25 743 L152 585 L266 585 L176 743 Z" /><glyph glyph-name="" unicode="î" d="M214 0 L214 519 L76 519 L76 0 L214 0 ZM206 743 L83 743 L-21 585 L72 585 L144 665 L217 585 L310 585 L206 743 Z" /><glyph glyph-name="" unicode="è" d="M558 259 Q559 383 499 454 Q438 524 310 525 Q193 524 123 455 Q52 385 50 259 Q52 133 126 64 Q201 -5 328 -6 Q392 -6 444 7 Q496 20 539 45 L496 136 Q459 117 417 108 Q375 98 328 98 Q270 98 233 126 Q196 155 190 219 L552 219 L558 259 ZM308 428 Q360 428 392 396 Q423 364 424 306 L192 306 Q197 361 228 394 Q258 427 308 428 L308 428 ZM330 743 L179 743 L306 585 L420 585 L330 743 Z" /><glyph glyph-name="" unicode="ê" d="M558 259 Q559 383 499 454 Q438 524 310 525 Q193 524 123 455 Q52 385 50 259 Q52 133 126 64 Q201 -5 328 -6 Q392 -6 444 7 Q496 20 539 45 L496 136 Q459 117 417 108 Q375 98 328 98 Q270 98 233 126 Q196 155 190 219 L552 219 L558 259 ZM308 428 Q360 428 392 396 Q423 364 424 306 L192 306 Q197 361 228 394 Q258 427 308 428 L308 428 ZM380 743 L257 743 L153 585 L246 585 L318 665 L391 585 L484 585 L380 743 Z" /><glyph glyph-name="" unicode="á" d="M533 0 L533 302 Q532 412 466 468 Q401 525 290 525 Q232 525 181 512 Q130 498 82 474 L125 382 Q165 401 199 411 Q234 421 276 421 Q330 422 362 393 Q393 364 394 296 Q363 306 327 310 Q292 315 269 315 Q123 310 82 256 Q41 202 46 159 Q47 85 98 40 Q149 -5 236 -6 Q277 -6 321 12 Q365 31 398 71 L402 70 L416 0 L533 0 ZM279 93 Q237 93 213 114 Q188 134 188 169 Q186 195 207 218 Q227 241 290 243 Q318 243 343 238 Q367 234 394 224 Q390 148 351 120 Q312 92 279 93 L279 93 ZM217 585 L331 585 L458 743 L307 743 L217 585 Z" /><glyph glyph-name="" unicode="à" d="M533 0 L533 302 Q532 412 466 468 Q401 525 290 525 Q232 525 181 512 Q130 498 82 474 L125 382 Q165 401 199 411 Q234 421 276 421 Q330 422 362 393 Q393 364 394 296 Q363 306 327 310 Q292 315 269 315 Q123 310 82 256 Q41 202 46 159 Q47 85 98 40 Q149 -5 236 -6 Q277 -6 321 12 Q365 31 398 71 L402 70 L416 0 L533 0 ZM279 93 Q237 93 213 114 Q188 134 188 169 Q186 195 207 218 Q227 241 290 243 Q318 243 343 238 Q367 234 394 224 Q390 148 351 120 Q312 92 279 93 L279 93 ZM292 743 L141 743 L268 585 L382 585 L292 743 Z" /><glyph glyph-name="" unicode="â" d="M533 0 L533 302 Q532 412 466 468 Q401 525 290 525 Q232 525 181 512 Q130 498 82 474 L125 382 Q165 401 199 411 Q234 421 276 421 Q330 422 362 393 Q393 364 394 296 Q363 306 327 310 Q292 315 269 315 Q123 310 82 256 Q41 202 46 159 Q47 85 98 40 Q149 -5 236 -6 Q277 -6 321 12 Q365 31 398 71 L402 70 L416 0 L533 0 ZM279 93 Q237 93 213 114 Q188 134 188 169 Q186 195 207 218 Q227 241 290 243 Q318 243 343 238 Q367 234 394 224 Q390 148 351 120 Q312 92 279 93 L279 93 ZM364 743 L241 743 L137 585 L230 585 L302 665 L375 585 L468 585 L364 743 Z" /><glyph glyph-name="" unicode="ä" d="M533 0 L533 302 Q532 412 466 468 Q401 525 290 525 Q232 525 181 512 Q130 498 82 474 L125 382 Q165 401 199 411 Q234 421 276 421 Q330 422 362 393 Q393 364 394 296 Q363 306 327 310 Q292 315 269 315 Q123 310 82 256 Q41 202 46 159 Q47 85 98 40 Q149 -5 236 -6 Q277 -6 321 12 Q365 31 398 71 L402 70 L416 0 L533 0 ZM279 93 Q237 93 213 114 Q188 134 188 169 Q186 195 207 218 Q227 241 290 243 Q318 243 343 238 Q367 234 394 224 Q390 148 351 120 Q312 92 279 93 L279 93 ZM125 667 Q126 637 146 615 Q166 594 197 593 Q229 594 249 615 Q269 635 270 667 Q269 699 248 719 Q226 738 195 739 Q166 738 146 717 Q126 696 125 667 L125 667 ZM328 667 Q329 637 349 615 Q369 594 400 593 Q432 594 452 615 Q472 635 473 667 Q472 699 451 719 Q429 738 399 739 Q369 738 349 717 Q329 696 328 667 L328 667 Z" /><glyph glyph-name="" unicode="ã" d="M533 0 L533 302 Q532 412 466 468 Q401 525 290 525 Q232 525 181 512 Q130 498 82 474 L125 382 Q165 401 199 411 Q234 421 276 421 Q330 422 362 393 Q393 364 394 296 Q363 306 327 310 Q292 315 269 315 Q123 310 82 256 Q41 202 46 159 Q47 85 98 40 Q149 -5 236 -6 Q277 -6 321 12 Q365 31 398 71 L402 70 L416 0 L533 0 ZM279 93 Q237 93 213 114 Q188 134 188 169 Q186 195 207 218 Q227 241 290 243 Q318 243 343 238 Q367 234 394 224 Q390 148 351 120 Q312 92 279 93 L279 93 ZM473 684 Q444 710 419 718 Q394 726 380 725 Q327 723 298 707 Q269 691 239 689 Q228 689 212 694 Q196 698 176 713 L147 633 Q174 608 197 599 Q221 590 237 591 Q277 593 312 610 Q346 626 378 628 Q388 628 405 623 Q422 618 446 602 L473 684 Z" /><glyph glyph-name="" unicode="å" d="M533 0 L533 302 Q532 412 466 468 Q401 525 290 525 Q232 525 181 512 Q130 498 82 474 L125 382 Q165 401 199 411 Q234 421 276 421 Q330 422 362 393 Q393 364 394 296 Q363 306 327 310 Q292 315 269 315 Q123 310 82 256 Q41 202 46 159 Q47 85 98 40 Q149 -5 236 -6 Q277 -6 321 12 Q365 31 398 71 L402 70 L416 0 L533 0 ZM279 93 Q237 93 213 114 Q188 134 188 169 Q186 195 207 218 Q227 241 290 243 Q318 243 343 238 Q367 234 394 224 Q390 148 351 120 Q312 92 279 93 L279 93 ZM190 681 Q191 637 221 608 Q250 578 294 577 Q339 578 368 608 Q398 637 399 681 Q398 726 368 755 Q339 785 294 786 Q250 785 221 755 Q191 726 190 681 L190 681 ZM243 681 Q244 703 258 718 Q272 732 294 733 Q316 732 331 718 Q345 703 346 681 Q345 659 331 645 Q316 631 294 630 Q272 631 258 645 Q244 659 243 681 L243 681 Z" /><glyph glyph-name="" unicode="ó" d="M321 525 Q199 524 126 456 Q52 387 50 259 Q52 134 126 64 Q199 -5 321 -6 Q443 -5 517 64 Q590 134 592 259 Q590 387 517 456 Q443 524 321 525 L321 525 ZM321 415 Q381 414 417 373 Q453 332 454 259 Q453 186 417 146 Q381 105 321 104 Q262 105 225 146 Q189 186 188 259 Q189 332 225 373 Q262 414 321 415 L321 415 ZM238 585 L352 585 L479 743 L328 743 L238 585 Z" /><glyph glyph-name="" unicode="ò" d="M321 525 Q199 524 126 456 Q52 387 50 259 Q52 134 126 64 Q199 -5 321 -6 Q443 -5 517 64 Q590 134 592 259 Q590 387 517 456 Q443 524 321 525 L321 525 ZM321 415 Q381 414 417 373 Q453 332 454 259 Q453 186 417 146 Q381 105 321 104 Q262 105 225 146 Q189 186 188 259 Q189 332 225 373 Q262 414 321 415 L321 415 ZM352 743 L201 743 L328 585 L442 585 L352 743 Z" /><glyph glyph-name="" unicode="ô" d="M321 525 Q199 524 126 456 Q52 387 50 259 Q52 134 126 64 Q199 -5 321 -6 Q443 -5 517 64 Q590 134 592 259 Q590 387 517 456 Q443 524 321 525 L321 525 ZM321 415 Q381 414 417 373 Q453 332 454 259 Q453 186 417 146 Q381 105 321 104 Q262 105 225 146 Q189 186 188 259 Q189 332 225 373 Q262 414 321 415 L321 415 ZM383 743 L260 743 L156 585 L249 585 L321 665 L394 585 L487 585 L383 743 Z" /><glyph glyph-name="" unicode="ö" d="M321 525 Q199 524 126 456 Q52 387 50 259 Q52 134 126 64 Q199 -5 321 -6 Q443 -5 517 64 Q590 134 592 259 Q590 387 517 456 Q443 524 321 525 L321 525 ZM321 415 Q381 414 417 373 Q453 332 454 259 Q453 186 417 146 Q381 105 321 104 Q262 105 225 146 Q189 186 188 259 Q189 332 225 373 Q262 414 321 415 L321 415 ZM147 667 Q148 637 168 615 Q188 594 219 593 Q251 594 271 615 Q291 635 292 667 Q291 699 270 719 Q248 738 217 739 Q188 738 168 717 Q148 696 147 667 L147 667 ZM350 667 Q351 637 371 615 Q391 594 422 593 Q454 594 474 615 Q494 635 495 667 Q494 699 473 719 Q451 738 421 739 Q391 738 371 717 Q351 696 350 667 L350 667 Z" /><glyph glyph-name="" unicode="õ" d="M321 525 Q199 524 126 456 Q52 387 50 259 Q52 134 126 64 Q199 -5 321 -6 Q443 -5 517 64 Q590 134 592 259 Q590 387 517 456 Q443 524 321 525 L321 525 ZM321 415 Q381 414 417 373 Q453 332 454 259 Q453 186 417 146 Q381 105 321 104 Q262 105 225 146 Q189 186 188 259 Q189 332 225 373 Q262 414 321 415 L321 415 ZM484 684 Q455 710 430 718 Q405 726 391 725 Q338 723 309 707 Q280 691 250 689 Q239 689 223 694 Q207 698 187 713 L158 633 Q185 608 208 599 Q232 590 248 591 Q288 593 323 610 Q357 626 389 628 Q399 628 416 623 Q433 618 457 602 L484 684 Z" /><glyph glyph-name="" unicode="í" d="M221 0 L221 748 L75 748 L75 0 L221 0 ZM28 795 L142 795 L269 953 L118 953 L28 795 Z" /><glyph glyph-name="" unicode="î" d="M221 0 L221 748 L75 748 L75 0 L221 0 ZM209 953 L86 953 L-18 795 L75 795 L147 875 L220 795 L313 795 L209 953 Z" /><glyph glyph-name="" unicode="ï" d="M221 0 L221 748 L75 748 L75 0 L221 0 ZM-26 877 Q-25 847 -5 825 Q15 804 46 803 Q78 804 98 825 Q118 845 119 877 Q118 909 97 929 Q75 948 44 949 Q15 948 -5 927 Q-25 906 -26 877 L-26 877 ZM177 877 Q178 847 198 825 Q218 804 249 803 Q281 804 301 825 Q321 845 322 877 Q321 909 300 929 Q278 948 248 949 Q218 948 198 927 Q178 906 177 877 L177 877 Z" /><glyph glyph-name="" unicode="ì" d="M221 0 L221 748 L75 748 L75 0 L221 0 ZM178 953 L27 953 L154 795 L268 795 L178 953 Z" /><glyph glyph-name="" unicode="&#xf8ff;" d="M645 530 L727 585 Q730 587 733 588 Q735 589 739 589 Q745 589 750 585 Q754 582 754 575 Q754 573 753 570 Q751 566 749 564 L714 530 L831 530 Q837 530 842 525 Q846 521 846 514 Q846 507 842 504 Q837 500 831 500 L750 500 L754 487 L867 487 Q874 487 877 483 Q881 478 881 473 Q881 465 877 461 Q874 457 867 457 L759 457 L759 443 L844 443 Q850 443 855 439 Q859 436 859 429 Q859 422 855 418 Q850 413 844 413 L754 413 L750 401 L820 401 Q825 401 830 396 Q834 392 834 385 Q834 379 830 375 Q825 370 820 370 L643 370 L643 85 L476 85 L476 370 L299 370 Q294 370 289 375 Q285 379 285 385 Q285 392 289 396 Q294 401 299 401 L369 401 L364 413 L275 413 Q269 413 265 418 Q260 422 260 429 Q260 436 265 439 Q269 443 275 443 L360 443 L360 457 L252 457 Q246 457 242 461 Q238 465 238 473 Q238 478 242 483 Q246 487 252 487 L364 487 L369 500 L288 500 Q282 500 278 504 Q273 507 273 514 Q273 521 278 525 Q282 530 288 530 L405 530 L370 564 Q368 566 366 570 Q365 573 365 575 Q365 582 370 585 Q374 589 380 589 Q388 589 392 585 L474 530 L645 530 ZM919 39 Q924 39 927 36 Q930 33 930 28 Q930 23 927 20 Q924 17 919 17 L905 17 L905 39 L919 39 ZM146 376 Q150 201 267 84 Q384 -33 559 -37 Q734 -33 851 84 Q968 201 972 376 Q968 551 851 668 Q734 785 559 789 Q384 785 267 668 Q150 551 146 376 L146 376 ZM863 17 Q864 -6 879 -21 Q894 -36 917 -37 Q940 -36 956 -21 Q971 -6 972 17 Q971 40 956 56 Q940 71 917 72 Q894 71 879 56 Q864 40 863 17 L863 17 ZM871 17 Q872 36 885 50 Q898 63 917 64 Q936 63 950 50 Q963 36 964 17 Q963 -2 950 -15 Q936 -28 917 -29 Q898 -28 885 -15 Q872 -2 871 17 L871 17 ZM930 -11 L941 -11 L925 9 Q931 11 935 16 Q939 21 939 28 Q939 36 933 42 Q927 48 919 48 L896 48 L896 -11 L905 -11 L905 8 L915 8 L930 -11 Z" /></font>
</defs>
</svg>
