<?xml version="1.0" standalone="no"?><!DOCTYPE svg PUBLIC "-//W3C//DTD SVG 1.1//EN" "http://www.w3.org/Graphics/SVG/1.1/DTD/svg11.dtd" ><svg xmlns="http://www.w3.org/2000/svg"><metadata></metadata><defs><font id="LaskoDzurovski,Totemt.f.: SkolaSans Medium Italic: 2009" horiz-adv-x="1284"><font-face font-family="SkolaSans" font-weight="500" font-stretch="normal" units-per-em="1000" panose-1="2 0 6 3 4 0 0 9 0 4" ascent="750" descent="-250" x-height="4" bbox="-166 -216 1242 974" underline-thickness="50" underline-position="-75" unicode-range="U+0000-fb02" /><missing-glyph horiz-adv-x="539" d="M39 0 L485 0 L615 748 L170 748 L39 0 ZM500 544 Q498 604 460 633 Q422 661 368 661 Q332 661 297 649 Q261 636 222 608 L249 544 Q278 566 301 575 Q325 585 347 585 Q375 585 393 570 Q411 555 412 523 Q410 474 369 439 Q327 403 274 379 L263 260 L322 260 L347 347 Q405 376 451 423 Q497 470 500 544 L500 544 ZM223 134 Q223 113 235 100 Q247 87 267 87 Q292 88 310 106 Q328 124 329 150 Q329 170 317 183 Q306 197 286 197 Q261 196 243 178 Q224 160 223 134 L223 134 ZM201 709 L571 709 L454 38 L83 38 L201 709 Z" /><glyph glyph-name="" unicode="" d="" /><glyph glyph-name="" unicode=" " d="" /><glyph glyph-name="" unicode="!" d="M241 223 L349 748 L243 748 L168 223 L241 223 ZM108 56 Q108 29 123 12 Q138 -5 164 -6 Q197 -5 221 19 Q246 43 247 78 Q247 105 231 122 Q215 139 190 140 Q157 139 133 115 Q109 91 108 56 L108 56 Z" /><glyph glyph-name="" unicode="&quot;" d="M191 748 L105 748 L60 487 L145 487 L191 748 ZM354 748 L268 748 L222 487 L308 487 L354 748 Z" /><glyph glyph-name="" unicode="#" d="M141 455 L229 455 L178 290 L81 290 L69 221 L158 221 L91 0 L159 0 L227 221 L344 221 L277 0 L345 0 L413 221 L510 221 L522 290 L432 290 L483 455 L581 455 L593 524 L504 524 L572 748 L503 748 L435 524 L318 524 L386 748 L318 748 L249 524 L152 524 L141 455 ZM298 455 L415 455 L364 290 L247 290 L298 455 Z" /><glyph glyph-name="" unicode="$" d="M219 -105 L303 -105 L321 3 Q425 18 488 77 Q550 137 552 236 Q534 370 406 418 Q277 465 259 548 Q260 594 295 625 Q330 656 393 657 Q438 657 478 639 Q518 620 555 584 L613 668 Q576 700 537 721 Q498 741 450 746 L469 852 L385 852 L367 745 Q263 731 206 673 Q150 614 149 528 Q167 397 291 348 Q414 299 432 214 Q431 158 393 125 Q354 91 287 90 Q241 90 199 109 Q157 127 118 163 L57 79 Q96 44 141 24 Q185 4 237 0 L219 -105 Z" /><glyph glyph-name="" unicode="%" d="M812 748 L739 754 L154 0 L229 -6 L812 748 ZM126 545 Q127 479 166 436 Q204 393 268 391 Q348 393 409 453 Q469 512 472 599 Q471 665 432 709 Q394 752 331 754 Q249 752 189 692 Q129 632 126 545 L126 545 ZM499 148 Q500 82 538 39 Q577 -4 640 -6 Q722 -4 782 56 Q842 116 845 203 Q844 269 806 312 Q767 355 703 357 Q623 355 562 295 Q502 235 499 148 L499 148 ZM208 556 Q210 604 243 639 Q276 674 320 676 Q355 675 373 649 Q390 624 390 588 Q388 540 355 505 Q322 470 278 468 Q243 469 225 495 Q208 520 208 556 L208 556 ZM581 159 Q583 207 616 242 Q649 278 693 280 Q728 279 746 253 Q764 227 764 192 Q762 144 728 108 Q695 73 650 71 Q616 72 598 98 Q581 123 581 159 L581 159 Z" /><glyph glyph-name="" unicode="&amp;" d="M609 417 Q608 340 571 278 Q533 217 475 174 Q436 216 402 265 Q368 313 343 364 Q428 401 494 457 Q560 514 564 608 Q564 668 523 710 Q482 752 406 754 Q306 752 251 694 Q196 635 195 547 Q195 513 201 479 Q206 445 216 411 Q140 374 87 321 Q33 268 31 182 Q33 93 91 44 Q149 -5 240 -6 Q289 -6 343 9 Q397 24 451 53 Q491 15 531 -15 Q570 -45 608 -68 L667 21 Q638 38 608 60 Q577 83 547 110 Q618 165 663 243 Q708 321 709 417 L609 417 ZM240 88 Q192 88 162 113 Q132 138 131 182 Q132 230 167 264 Q201 297 250 323 Q274 270 307 221 Q340 171 379 127 Q343 109 308 99 Q272 88 240 88 L240 88 ZM295 542 Q295 591 321 625 Q347 659 399 660 Q429 659 448 643 Q466 626 467 599 Q465 548 420 513 Q374 479 310 450 Q303 473 299 496 Q295 519 295 542 L295 542 Z" /><glyph glyph-name="" unicode="&#39;" d="M192 748 L105 748 L60 487 L146 487 L192 748 Z" /><glyph glyph-name="" unicode="(" d="M309 806 Q237 713 166 560 Q95 406 90 178 Q91 69 107 -13 Q124 -94 144 -145 L213 -110 Q197 -66 185 7 Q173 79 172 174 Q177 388 239 536 Q301 683 367 772 L309 806 Z" /><glyph glyph-name="" unicode=")" d="M131 772 Q147 727 159 653 Q171 579 172 483 Q168 264 106 121 Q44 -23 -22 -110 L34 -145 Q107 -55 178 96 Q249 246 254 478 Q253 587 237 671 Q220 755 200 806 L131 772 Z" /><glyph glyph-name="" unicode="*" d="M364 553 L512 587 L504 659 L358 603 L364 553 ZM290 602 L167 658 L129 586 L264 553 L290 602 ZM265 545 L146 433 L198 388 L302 514 L265 545 ZM310 513 L359 389 L429 433 L359 543 L310 513 ZM350 607 L393 754 L318 754 L298 607 L350 607 Z" /><glyph glyph-name="" unicode="+" d="M93 294 L300 294 L262 73 L344 73 L382 294 L589 294 L605 381 L398 381 L437 602 L354 602 L316 381 L109 381 L93 294 Z" /><glyph glyph-name="" unicode="," d="M63 58 Q63 33 76 15 Q89 -4 114 -5 L33 -139 L83 -158 Q122 -111 163 -39 Q203 33 206 81 Q206 109 190 127 Q174 145 147 146 Q113 145 89 119 Q64 94 63 58 L63 58 Z" /><glyph glyph-name="" unicode="-" d="M329 248 L345 335 L93 335 L77 248 L329 248 Z" /><glyph glyph-name="" unicode="." d="M53 58 Q53 30 69 13 Q85 -5 112 -6 Q146 -5 171 20 Q196 44 197 81 Q197 109 181 127 Q165 145 139 146 Q104 145 79 120 Q54 94 53 58 L53 58 Z" /><glyph glyph-name="" unicode="/" d="M472 806 L-29 -204 L56 -204 L557 806 L472 806 Z" /><glyph glyph-name="" unicode="0" d="M384 754 Q228 748 144 605 Q61 461 60 246 Q61 123 120 59 Q178 -6 278 -6 Q434 0 518 143 Q602 287 603 502 Q602 624 543 689 Q485 753 384 754 L384 754 ZM282 88 Q228 88 200 128 Q171 169 171 254 Q176 469 241 565 Q307 662 380 660 Q434 660 462 619 Q491 579 491 494 Q487 279 421 183 Q355 86 282 88 L282 88 Z" /><glyph glyph-name="" unicode="1" d="M35 92 L20 0 L474 0 L489 92 L333 92 L447 748 L361 748 L118 621 L139 553 L308 622 L217 92 L35 92 Z" /><glyph glyph-name="" unicode="2" d="M184 95 L183 98 Q270 190 408 286 Q546 382 561 552 Q560 641 504 697 Q447 752 341 754 Q289 757 227 732 Q165 707 105 623 L177 562 Q210 609 247 634 Q285 660 324 660 Q385 660 413 629 Q442 598 442 539 Q430 413 290 320 Q151 226 30 58 L52 0 L497 0 L513 95 L184 95 Z" /><glyph glyph-name="" unicode="3" d="M236 379 L291 379 Q359 378 393 341 Q428 305 428 251 Q427 178 383 134 Q340 90 263 89 Q214 89 172 108 Q131 126 90 158 L30 72 Q86 31 140 12 Q193 -6 251 -6 Q386 -4 463 67 Q540 138 541 260 Q540 334 490 386 Q441 439 352 451 L352 455 L580 678 L568 748 L160 748 L145 656 L431 656 L432 652 L215 438 L236 379 Z" /><glyph glyph-name="" unicode="4" d="M301 754 Q279 658 214 510 Q149 363 20 205 L38 151 L360 151 L333 0 L445 0 L472 151 L556 151 L570 237 L487 237 L537 525 L432 519 L375 237 L162 237 L161 240 Q262 380 323 516 Q385 651 407 739 L301 754 Z" /><glyph glyph-name="" unicode="5" d="M133 386 L272 386 Q343 386 378 350 Q414 314 414 248 Q413 180 369 135 Q325 90 248 88 Q200 88 160 107 Q119 125 80 157 L20 72 Q75 31 127 12 Q179 -6 236 -6 Q372 -3 450 73 Q527 150 528 270 Q526 374 466 427 Q405 481 304 481 L231 481 L261 653 L526 653 L542 748 L177 748 L116 405 L133 386 Z" /><glyph glyph-name="" unicode="6" d="M385 660 Q430 660 464 646 Q498 631 532 598 L583 677 Q532 721 485 738 Q439 755 389 754 Q231 748 146 605 Q61 461 60 246 Q61 123 121 59 Q180 -6 283 -6 Q407 -3 479 71 Q550 145 552 259 Q550 357 492 412 Q434 468 347 469 Q307 469 266 454 Q226 439 193 412 L188 412 Q213 532 266 596 Q319 659 385 660 L385 660 ZM319 379 Q380 378 412 341 Q445 304 445 247 Q444 185 404 138 Q364 91 298 88 Q237 88 204 124 Q170 161 170 235 Q170 258 172 275 Q173 292 177 318 Q206 349 243 364 Q280 379 319 379 L319 379 Z" /><glyph glyph-name="" unicode="7" d="M544 748 L103 748 L85 656 L434 656 Q375 515 271 337 Q168 159 50 0 L170 -6 Q277 139 393 348 Q509 557 555 687 L544 748 Z" /><glyph glyph-name="" unicode="8" d="M379 755 Q286 755 214 708 Q142 662 138 576 Q139 516 168 477 Q196 437 239 410 Q164 380 109 331 Q53 282 50 202 Q56 77 131 34 Q206 -9 279 -6 Q352 -9 452 41 Q552 91 562 235 Q560 299 521 340 Q481 381 428 408 Q490 439 532 481 Q574 524 576 590 Q570 692 503 725 Q437 758 379 755 L379 755 ZM452 234 Q446 146 388 116 Q329 86 284 88 Q244 86 201 110 Q158 133 155 202 Q158 262 209 298 Q261 334 329 359 Q375 340 413 312 Q450 284 452 234 L452 234 ZM379 670 Q406 671 438 655 Q469 638 472 590 Q470 537 432 507 Q394 477 338 456 Q298 476 272 503 Q246 530 245 576 Q247 621 287 645 Q327 670 379 670 L379 670 Z" /><glyph glyph-name="" unicode="9" d="M258 88 Q213 88 179 102 Q145 117 111 150 L60 71 Q111 27 158 10 Q204 -7 254 -6 Q412 0 497 143 Q582 287 583 502 Q582 624 522 689 Q463 753 360 754 Q236 751 164 677 Q93 603 91 488 Q93 391 151 336 Q209 280 296 279 Q336 279 377 294 Q417 309 450 335 L455 335 Q430 216 377 152 Q324 89 258 88 L258 88 ZM324 368 Q263 369 231 406 Q198 443 198 501 Q199 562 239 610 Q279 657 345 660 Q406 660 439 624 Q473 587 473 512 Q473 490 471 473 Q470 456 466 429 Q437 399 400 384 Q363 368 324 368 L324 368 Z" /><glyph glyph-name="" unicode=":" d="M60 58 Q60 30 77 13 Q94 -5 122 -6 Q157 -5 182 19 Q208 44 209 80 Q209 108 192 127 Q176 145 148 146 Q113 145 87 120 Q61 94 60 58 L60 58 ZM126 437 Q126 409 143 392 Q160 374 187 373 Q223 374 249 398 Q275 423 276 459 Q275 487 259 506 Q242 524 215 525 Q179 524 153 499 Q127 473 126 437 L126 437 Z" /><glyph glyph-name="" unicode=";" d="M134 437 Q134 409 151 392 Q167 374 195 373 Q230 374 256 398 Q282 423 283 459 Q283 487 266 506 Q249 524 222 525 Q186 524 161 499 Q135 473 134 437 L134 437 ZM69 58 Q69 33 83 15 Q96 -4 122 -5 L40 -139 L92 -158 Q132 -111 173 -39 Q214 32 217 80 Q217 108 200 127 Q183 145 156 146 Q120 145 95 120 Q70 94 69 58 L69 58 Z" /><glyph glyph-name="" unicode="&lt;" d="M520 169 L185 334 L186 338 L578 502 L594 595 L71 379 L56 292 L504 76 L520 169 Z" /><glyph glyph-name="" unicode="=" d="M102 383 L612 383 L627 470 L117 470 L102 383 ZM71 205 L581 205 L596 292 L86 292 L71 205 Z" /><glyph glyph-name="" unicode="&gt;" d="M72 76 L594 292 L609 379 L162 595 L146 502 L482 338 L481 334 L88 169 L72 76 Z" /><glyph glyph-name="" unicode="?" d="M205 223 L277 223 L307 332 Q385 368 452 434 Q519 499 523 599 Q521 680 468 717 Q416 754 343 754 Q295 755 246 734 Q197 712 145 660 L205 599 Q236 630 265 645 Q294 660 323 660 Q359 660 384 639 Q409 618 410 572 Q406 504 346 453 Q286 402 216 370 L205 223 ZM142 56 Q142 29 158 12 Q174 -5 201 -6 Q234 -5 259 19 Q284 42 285 77 Q285 104 269 122 Q253 139 226 140 Q192 139 168 115 Q143 91 142 56 L142 56 Z" /><glyph glyph-name="" unicode="@" d="M583 504 Q468 502 393 422 Q318 343 315 211 Q316 118 360 66 Q404 15 478 14 Q534 16 578 52 Q621 88 650 133 L656 133 Q662 88 691 52 Q719 15 767 13 Q857 12 925 96 Q993 179 997 355 Q994 541 892 621 Q791 702 632 700 Q421 701 271 575 Q122 448 115 180 Q117 1 213 -89 Q310 -179 479 -179 Q532 -179 587 -169 Q642 -160 685 -145 L676 -65 Q638 -79 587 -88 Q537 -98 489 -98 Q346 -100 272 -33 Q199 34 199 191 Q205 408 329 514 Q452 619 623 619 Q761 620 837 555 Q913 489 914 338 Q912 214 874 154 Q836 94 787 94 Q761 95 743 119 Q725 144 724 186 Q724 194 725 204 Q726 214 727 222 L768 451 L697 451 Q675 477 647 490 Q619 504 583 504 L583 504 ZM492 99 Q456 99 435 132 Q414 164 413 222 Q417 323 466 371 Q516 418 567 418 Q594 418 617 404 Q641 391 656 365 L643 287 Q626 201 581 151 Q537 100 492 99 L492 99 Z" /><glyph glyph-name="" unicode="a" d="M476 653 L599 653 L537 296 L273 296 L476 653 ZM258 748 L241 680 L372 661 L-15 0 L103 -6 L222 205 L520 205 L485 0 L596 0 L727 748 L258 748 Z" /><glyph glyph-name="" unicode="b" d="M247 435 L284 656 L457 656 Q509 655 534 628 Q559 602 559 558 Q556 504 517 470 Q478 436 433 435 L247 435 ZM421 341 Q469 340 500 308 Q530 276 531 231 Q533 186 493 141 Q453 95 354 92 L188 92 L231 341 L421 341 ZM670 586 Q670 656 621 701 Q573 746 478 748 L190 748 L60 0 L353 0 Q491 2 566 69 Q641 135 642 236 Q641 290 609 332 Q578 373 531 388 L532 392 Q604 424 637 477 Q670 530 670 586 L670 586 Z" /><glyph glyph-name="" unicode="c" d="M362 88 Q260 90 216 151 Q172 212 173 314 Q174 449 247 552 Q321 655 453 660 Q493 660 526 649 Q558 639 586 623 L579 501 L654 501 L698 679 Q648 714 593 734 Q537 754 467 754 Q270 748 165 616 Q61 485 60 301 Q59 169 130 83 Q200 -3 349 -6 Q420 -7 493 26 Q566 58 620 135 L546 194 Q512 147 466 118 Q419 89 362 88 L362 88 Z" /><glyph glyph-name="" unicode="d" d="M296 0 Q494 6 601 134 Q709 263 710 447 Q710 577 641 661 Q572 745 431 748 L190 748 L60 0 L296 0 ZM188 95 L284 653 L414 653 Q511 651 554 591 Q598 531 597 433 Q596 290 519 194 Q442 99 304 95 L188 95 Z" /><glyph glyph-name="" unicode="e" d="M191 748 L60 0 L549 0 L566 95 L188 95 L231 343 L558 343 L574 435 L247 435 L285 653 L653 653 L669 748 L191 748 Z" /><glyph glyph-name="" unicode="f" d="M642 653 L659 748 L190 748 L60 0 L171 0 L228 326 L546 326 L562 417 L244 417 L284 653 L642 653 Z" /><glyph glyph-name="" unicode="g" d="M704 402 L442 402 L425 308 L586 308 L557 142 Q512 117 468 103 Q424 88 377 88 Q279 90 235 151 Q191 212 192 314 Q193 449 270 552 Q346 655 483 660 Q539 660 583 644 Q627 628 665 596 L728 679 Q678 714 623 734 Q567 754 496 754 Q295 748 188 616 Q81 485 80 301 Q79 169 149 83 Q219 -3 369 -6 Q428 -6 484 9 Q541 25 603 57 L643 57 L704 402 Z" /><glyph glyph-name="" unicode="h" d="M171 0 L231 341 L587 341 L528 0 L639 0 L769 748 L658 748 L603 435 L247 435 L302 748 L190 748 L60 0 L171 0 Z" /><glyph glyph-name="" unicode="i" d="M171 0 L302 748 L190 748 L60 0 L171 0 Z" /><glyph glyph-name="" unicode="j" d="M20 167 Q36 72 90 32 Q144 -7 220 -6 Q336 -3 394 72 Q453 147 471 259 L557 748 L445 748 L358 248 Q348 183 316 137 Q284 90 218 88 Q172 88 148 114 Q123 141 116 194 L20 167 Z" /><glyph glyph-name="" unicode="k" d="M698 748 L572 754 L320 432 L245 432 L301 748 L190 748 L60 0 L171 0 L231 343 L317 343 Q389 259 436 130 Q482 2 591 -11 Q610 -11 624 -8 Q638 -5 647 -1 L633 85 Q553 94 519 199 Q485 304 408 396 L698 748 Z" /><glyph glyph-name="" unicode="l" d="M188 95 L302 748 L190 748 L60 0 L509 0 L526 95 L188 95 Z" /><glyph glyph-name="" unicode="m" d="M449 195 L707 501 L711 500 L624 -1 L735 -1 L865 748 L797 748 L452 328 L258 748 L190 748 L60 -1 L171 -1 L258 504 L262 505 L409 195 L449 195 Z" /><glyph glyph-name="" unicode="n" d="M582 0 L639 0 L769 748 L658 748 L566 220 L562 218 L244 748 L190 748 L60 0 L171 0 L262 521 L266 523 L582 0 Z" /><glyph glyph-name="" unicode="o" d="M475 754 Q280 749 171 619 Q62 489 60 300 Q60 166 131 81 Q201 -3 343 -6 Q538 -1 647 129 Q756 259 758 448 Q758 582 687 667 Q617 751 475 754 L475 754 ZM464 660 Q559 658 602 593 Q645 527 644 429 Q642 296 565 195 Q487 93 354 88 Q259 90 216 156 Q172 221 173 319 Q175 452 253 553 Q332 655 464 660 L464 660 Z" /><glyph glyph-name="" unicode="p" d="M190 748 L60 0 L171 0 L214 246 L371 246 Q490 249 577 331 Q665 412 669 534 Q667 627 610 686 Q553 746 459 748 L190 748 ZM438 656 Q493 655 524 616 Q555 578 556 520 Q553 443 501 391 Q449 339 378 337 L230 337 L285 656 L438 656 Z" /><glyph glyph-name="" unicode="q" d="M761 448 Q761 582 690 667 Q620 751 478 754 Q283 749 174 619 Q65 489 63 301 Q63 189 119 108 Q175 26 292 -4 Q373 -49 465 -122 Q556 -195 679 -203 Q738 -202 787 -175 Q836 -149 869 -114 L804 -53 Q779 -78 744 -93 Q710 -109 675 -109 Q607 -106 549 -67 Q492 -29 439 9 Q568 46 662 155 Q756 264 761 448 L761 448 ZM353 73 Q259 100 217 162 Q175 224 176 317 Q178 451 256 553 Q335 655 467 660 Q564 657 606 590 Q648 522 647 427 Q644 272 561 187 Q478 102 353 73 L353 73 Z" /><glyph glyph-name="" unicode="r" d="M678 559 Q676 650 624 699 Q571 747 487 748 L190 748 L60 0 L172 0 L224 297 L361 297 Q411 200 457 99 Q503 -3 600 -11 Q619 -11 633 -8 Q647 -5 656 -1 L642 85 Q578 89 545 159 Q513 228 473 310 Q557 335 616 399 Q675 462 678 559 L678 559 ZM471 656 Q515 655 540 625 Q566 594 566 542 Q564 485 518 438 Q471 392 397 389 L239 389 L286 656 L471 656 Z" /><glyph glyph-name="" unicode="s" d="M30 121 Q85 51 146 22 Q207 -7 277 -6 Q399 -5 471 53 Q542 111 544 216 Q524 366 383 413 Q242 459 222 552 Q224 609 265 635 Q307 660 365 660 Q395 660 424 652 Q453 644 480 630 L470 531 L545 531 L588 683 Q545 715 491 734 Q437 754 372 754 Q256 753 186 697 Q116 642 114 543 Q134 399 272 355 Q409 312 429 204 Q427 148 387 118 Q346 88 284 88 Q229 89 185 116 Q141 144 104 191 L30 121 Z" /><glyph glyph-name="" unicode="t" d="M654 748 L97 748 L80 653 L302 653 L189 0 L300 0 L414 653 L637 653 L654 748 Z" /><glyph glyph-name="" unicode="u" d="M634 748 L560 322 Q542 221 484 156 Q427 90 338 88 Q262 89 228 131 Q193 173 194 243 Q194 261 196 281 Q197 301 201 322 L276 748 L164 748 L90 322 Q86 300 84 279 Q82 258 82 238 Q82 127 142 61 Q202 -4 324 -6 Q468 -3 557 86 Q647 176 672 322 L746 748 L634 748 Z" /><glyph glyph-name="" unicode="v" d="M314 130 L202 754 L86 746 L239 0 L342 0 Q442 138 536 321 Q630 503 710 746 L599 754 Q547 580 471 414 Q395 248 319 130 L314 130 Z" /><glyph glyph-name="" unicode="w" d="M700 130 L588 754 L472 746 L518 523 Q471 409 420 308 Q368 207 319 130 L314 130 L202 754 L86 746 L239 0 L342 0 Q397 77 449 164 Q502 250 549 348 L553 348 L625 0 L728 0 Q828 138 922 321 Q1016 503 1096 746 L985 754 Q933 580 857 414 Q781 248 705 130 L700 130 Z" /><glyph glyph-name="" unicode="x" d="M577 754 Q538 684 487 612 Q436 540 379 475 L264 754 L139 748 L301 395 Q195 285 113 186 Q31 87 -21 0 L108 -6 Q146 55 206 134 Q266 213 348 304 L480 -6 L606 0 L428 381 Q517 479 584 569 Q650 659 700 748 L577 754 Z" /><glyph glyph-name="" unicode="y" d="M94 748 L264 285 L215 0 L326 0 L375 285 Q470 397 540 499 Q611 600 702 748 L578 754 Q514 638 452 544 Q389 451 339 384 L335 384 L220 754 L94 748 Z" /><glyph glyph-name="" unicode="z" d="M-2 48 L44 -11 Q68 9 90 17 Q113 24 139 24 Q187 21 248 3 Q310 -16 378 -19 Q423 -19 470 -8 Q517 3 553 24 L524 111 Q485 92 451 85 Q418 79 396 79 Q347 81 295 95 Q243 109 181 111 L179 115 L643 694 L631 748 L147 748 L131 656 L485 656 L-2 48 Z" /><glyph glyph-name="" unicode="[" d="M255 -65 L132 -65 L269 726 L390 726 L404 806 L201 806 L35 -145 L241 -145 L255 -65 Z" /><glyph glyph-name="" unicode="\" d="M146 806 L295 -204 L381 -204 L231 806 L146 806 Z" /><glyph glyph-name="" unicode="]" d="M-25 -145 L181 -145 L347 806 L144 806 L130 726 L250 726 L113 -65 L-11 -65 L-25 -145 Z" /><glyph glyph-name="" unicode="^" d="M60 296 L150 296 L379 658 L481 296 L572 296 L440 748 L350 748 L60 296 Z" /><glyph glyph-name="" unicode="_" d="M454 -126 L464 -70 L-5 -70 L-15 -126 L454 -126 Z" /><glyph glyph-name="" unicode="`" d="M286 739 L164 739 L258 585 L347 585 L286 739 Z" /><glyph glyph-name="" unicode="a" d="M516 -6 Q530 -6 544 -3 Q558 0 571 5 L585 85 Q552 84 536 95 Q520 105 520 134 Q520 143 521 155 Q523 167 525 179 L577 481 L481 481 Q452 503 415 514 Q378 525 338 525 Q217 523 140 437 Q63 351 60 203 Q61 104 109 49 Q156 -5 236 -6 Q282 -6 329 15 Q376 35 414 71 L419 71 Q428 32 453 13 Q478 -6 516 -6 L516 -6 ZM167 222 Q169 318 215 374 Q262 430 329 431 Q371 431 400 421 Q429 411 456 387 L418 173 Q388 136 351 113 Q314 89 271 88 Q224 88 196 122 Q168 156 167 222 L167 222 Z" /><glyph glyph-name="" unicode="b" d="M306 795 L201 791 L70 40 L153 40 Q184 18 222 6 Q260 -6 308 -6 Q429 -4 509 81 Q589 166 592 315 Q591 414 541 469 Q491 524 402 525 Q361 525 324 509 Q287 493 254 466 L250 466 L306 795 ZM485 296 Q483 200 435 145 Q387 89 317 88 Q276 88 247 100 Q218 113 192 136 L231 363 Q263 394 299 412 Q335 431 377 431 Q427 430 456 395 Q484 359 485 296 L485 296 Z" /><glyph glyph-name="" unicode="c" d="M355 525 Q224 523 143 444 Q61 364 59 226 Q60 115 120 55 Q180 -5 285 -6 Q334 -6 382 9 Q429 24 478 60 L435 137 Q397 110 363 100 Q328 89 296 89 Q237 89 203 124 Q168 159 167 230 Q169 321 217 374 Q265 428 341 429 Q362 429 379 426 Q397 423 414 415 L408 315 L490 315 L522 474 Q489 497 450 511 Q412 525 355 525 L355 525 Z" /><glyph glyph-name="" unicode="d" d="M632 795 L526 791 L472 486 Q445 506 410 515 Q376 525 338 525 Q217 523 140 437 Q63 351 60 203 Q61 104 109 49 Q156 -5 236 -6 Q282 -6 329 15 Q376 35 414 71 L419 71 Q428 32 453 13 Q478 -6 516 -6 Q530 -6 544 -3 Q558 0 570 5 L585 85 Q552 84 536 95 Q520 105 520 134 Q520 143 521 155 Q523 167 525 179 L632 795 ZM167 222 Q169 318 215 374 Q262 430 329 431 Q371 431 400 421 Q430 410 455 386 L418 171 Q388 134 351 112 Q314 89 271 88 Q224 88 196 122 Q168 156 167 222 L167 222 Z" /><glyph glyph-name="" unicode="e" d="M534 384 Q534 445 489 485 Q443 525 350 527 Q227 525 145 440 Q62 355 59 216 Q60 110 117 53 Q174 -5 274 -6 Q346 -6 393 7 Q441 20 485 45 L453 130 Q416 112 377 100 Q338 88 286 88 Q237 86 204 112 Q171 137 170 209 Q297 207 412 241 Q526 275 534 384 L534 384 ZM341 439 Q380 438 402 420 Q424 401 424 373 Q424 326 361 302 Q299 278 175 276 Q187 356 234 397 Q281 439 341 439 L341 439 Z" /><glyph glyph-name="" unicode="f" d="M274 438 L413 438 L429 519 L290 519 L304 605 Q314 658 343 681 Q372 704 405 703 Q433 703 460 696 Q486 689 512 677 L551 754 Q512 774 475 785 Q438 795 394 795 Q331 796 275 752 Q219 708 200 611 L184 519 L84 519 L71 459 L169 442 L90 -18 Q77 -83 41 -104 Q4 -125 -40 -123 L-36 -205 Q-24 -209 -12 -212 Q0 -214 9 -214 Q66 -215 120 -170 Q174 -126 195 -22 L274 438 Z" /><glyph glyph-name="" unicode="g" d="M167 222 Q169 318 215 374 Q262 430 329 431 Q368 431 396 419 Q424 408 445 385 L408 171 Q380 134 345 112 Q309 89 269 88 Q221 88 194 123 Q167 158 167 222 L167 222 ZM382 18 Q364 -68 314 -95 Q264 -121 221 -119 Q188 -119 157 -110 Q126 -102 97 -86 L65 -172 Q96 -191 134 -202 Q171 -214 216 -214 Q310 -216 386 -160 Q463 -105 490 32 L567 481 L471 481 Q444 503 410 514 Q375 525 338 525 Q217 523 140 437 Q63 351 60 203 Q61 104 109 49 Q156 -5 236 -6 Q275 -6 313 11 Q352 28 384 56 L388 56 L382 18 Z" /><glyph glyph-name="" unicode="h" d="M416 525 Q376 525 334 507 Q292 489 248 450 L244 450 L303 795 L198 791 L60 0 L165 0 L225 345 Q260 390 299 411 Q338 432 372 432 Q410 433 435 412 Q460 391 461 336 Q461 318 457 296 L406 0 L511 0 L562 291 Q570 333 570 366 Q567 459 520 493 Q473 527 416 525 L416 525 Z" /><glyph glyph-name="" unicode="i" d="M151 677 Q152 650 168 632 Q185 615 211 614 Q247 615 272 639 Q296 663 297 698 Q296 725 280 743 Q263 760 237 761 Q201 760 176 736 Q152 712 151 677 L151 677 ZM252 519 L146 519 L87 177 Q80 131 80 110 Q81 44 112 18 Q142 -7 184 -6 Q198 -6 212 -3 Q226 0 239 5 L253 85 Q220 84 205 95 Q189 105 189 134 Q189 143 190 155 Q191 167 193 179 L252 519 Z" /><glyph glyph-name="" unicode="j" d="M90 -18 Q77 -83 39 -104 Q0 -125 -46 -123 L-41 -205 Q-29 -209 -15 -212 Q-2 -214 9 -214 Q66 -215 120 -170 Q174 -126 195 -22 L289 519 L182 519 L90 -18 ZM188 677 Q189 650 205 632 Q222 615 248 614 Q284 615 309 639 Q333 663 334 698 Q333 725 317 743 Q300 760 274 761 Q238 760 213 736 Q189 712 188 677 L188 677 Z" /><glyph glyph-name="" unicode="k" d="M304 795 L198 791 L60 0 L165 0 L220 315 Q267 371 311 401 Q355 431 395 431 Q427 430 442 416 Q456 402 456 381 Q453 331 396 299 Q338 267 263 266 L262 263 Q307 156 361 76 Q414 -4 479 -8 Q490 -8 505 -6 Q520 -3 536 4 L550 81 Q499 78 465 105 Q431 132 382 226 Q476 244 519 297 Q563 349 562 406 Q562 455 529 490 Q496 524 427 525 Q384 525 336 498 Q288 472 243 420 L239 420 L304 795 Z" /><glyph glyph-name="" unicode="l" d="M299 795 L194 791 L86 177 Q80 143 80 115 Q81 51 108 22 Q135 -6 183 -6 Q197 -6 211 -3 Q225 0 238 5 L252 85 Q219 84 204 95 Q188 105 188 134 Q188 143 189 155 Q190 167 192 179 L299 795 Z" /><glyph glyph-name="" unicode="m" d="M260 519 L159 519 L70 0 L176 0 L236 346 Q269 391 304 412 Q338 432 364 432 Q393 433 418 414 Q443 395 445 346 Q445 332 442 314 L388 0 L494 0 L554 345 Q587 390 622 411 Q657 432 682 432 Q714 433 738 414 Q763 395 764 345 Q764 329 761 306 Q757 282 752 255 L707 0 L813 0 L863 291 Q871 333 871 366 Q868 459 821 493 Q773 527 713 525 Q680 526 632 506 Q585 486 538 439 Q519 488 484 507 Q449 526 405 525 Q373 525 333 507 Q292 489 252 450 L248 450 L260 519 Z" /><glyph glyph-name="" unicode="n" d="M258 519 L159 519 L70 0 L176 0 L237 351 Q270 390 308 411 Q346 432 380 432 Q417 433 440 414 Q463 394 464 345 Q464 338 463 330 Q462 321 460 311 L407 0 L513 0 L563 291 Q570 333 570 366 Q567 459 520 493 Q472 527 409 525 Q375 525 335 507 Q295 488 251 450 L247 450 L258 519 Z" /><glyph glyph-name="" unicode="o" d="M362 525 Q230 524 147 441 Q63 358 60 211 Q61 113 116 54 Q171 -5 269 -6 Q399 -4 483 80 Q567 164 570 311 Q569 410 514 467 Q458 524 362 525 L362 525 ZM346 436 Q404 435 433 397 Q463 360 463 295 Q461 200 411 142 Q361 84 285 82 Q230 82 199 119 Q168 155 167 222 Q169 318 219 376 Q269 434 346 436 L346 436 Z" /><glyph glyph-name="" unicode="p" d="M162 519 L34 -214 L141 -208 L186 50 L190 51 Q214 24 246 9 Q277 -6 313 -6 Q436 -4 515 81 Q593 167 596 315 Q595 414 546 469 Q497 524 412 525 Q378 525 338 507 Q298 488 254 450 L250 450 L261 519 L162 519 ZM376 431 Q428 430 458 395 Q488 359 489 296 Q487 200 439 145 Q391 89 321 88 Q284 88 255 107 Q225 125 205 155 L238 350 Q270 389 306 410 Q343 431 376 431 L376 431 Z" /><glyph glyph-name="" unicode="q" d="M398 56 L351 -214 L457 -208 L577 481 L481 481 Q452 503 415 514 Q378 525 338 525 Q217 523 140 437 Q63 351 60 203 Q61 104 109 49 Q156 -5 236 -6 Q276 -6 315 10 Q355 26 393 57 L398 56 ZM167 222 Q169 318 215 374 Q262 430 329 431 Q371 431 400 421 Q430 410 455 386 L418 173 Q388 136 351 113 Q314 89 271 88 Q224 88 196 122 Q168 156 167 222 L167 222 Z" /><glyph glyph-name="" unicode="r" d="M259 519 L159 519 L67 0 L173 0 L233 341 Q268 386 307 406 Q346 425 380 425 Q393 425 408 422 Q423 419 434 413 L477 513 Q462 520 443 522 Q425 525 409 525 Q375 525 335 507 Q296 489 252 450 L248 450 L259 519 Z" /><glyph glyph-name="" unicode="s" d="M321 147 Q321 113 296 96 Q272 78 228 78 Q199 77 161 92 Q123 106 82 141 L27 68 Q83 21 133 6 Q183 -9 225 -8 Q313 -8 371 31 Q429 71 431 157 Q416 265 311 296 Q206 327 191 380 Q192 412 220 427 Q248 442 287 442 Q309 442 324 439 Q339 435 358 426 L355 366 L435 366 L458 483 Q418 504 375 516 Q332 527 283 527 Q183 525 134 481 Q84 437 84 370 Q99 265 203 232 Q306 200 321 147 L321 147 Z" /><glyph glyph-name="" unicode="t" d="M161 442 L117 189 Q114 173 113 159 Q112 146 112 134 Q115 54 158 24 Q201 -7 248 -6 Q276 -7 313 2 Q350 11 394 36 L382 115 Q353 100 330 94 Q306 88 288 88 Q265 86 243 100 Q222 113 220 159 Q220 173 224 195 L266 438 L409 438 L424 519 L281 519 L303 644 L236 644 L180 519 L82 519 L70 459 L161 442 Z" /><glyph glyph-name="" unicode="u" d="M233 519 L127 519 L77 228 Q73 208 72 189 Q70 171 70 155 Q73 60 123 26 Q173 -8 228 -6 Q274 -6 321 15 Q368 35 407 71 L411 71 Q420 32 445 13 Q470 -6 508 -6 Q522 -6 536 -3 Q551 0 563 5 L577 85 Q545 84 529 95 Q513 105 513 134 Q513 143 514 155 Q515 167 517 179 L576 519 L471 519 L410 172 Q381 137 343 113 Q306 89 263 88 Q233 86 207 103 Q180 121 178 183 Q178 192 179 202 Q180 212 182 223 L233 519 Z" /><glyph glyph-name="" unicode="v" d="M173 525 L60 519 L166 0 L263 0 Q328 69 422 196 Q517 323 526 421 Q525 479 500 503 Q474 528 434 527 Q423 527 409 524 Q395 521 384 516 L369 435 Q390 436 404 428 Q417 420 418 395 Q413 348 355 259 Q297 171 245 107 L173 525 Z" /><glyph glyph-name="" unicode="w" d="M480 525 L367 519 L402 345 Q376 288 330 222 Q284 155 248 111 L244 112 L173 525 L60 519 L166 0 L263 0 Q294 35 339 90 Q384 145 425 205 L429 205 L473 0 L570 0 Q635 69 729 196 Q824 323 833 421 Q832 479 807 503 Q781 528 741 527 Q730 527 716 524 Q702 521 691 516 L676 435 Q697 436 711 428 Q724 420 725 395 Q720 347 663 260 Q605 172 555 111 L551 112 L480 525 Z" /><glyph glyph-name="" unicode="x" d="M381 -6 L506 0 L368 266 Q420 312 474 375 Q528 438 559 519 L444 525 Q426 473 388 425 Q350 376 316 340 L229 525 L104 519 L231 277 Q165 217 108 149 Q51 81 15 0 L131 -6 Q157 53 199 105 Q241 156 286 200 L381 -6 Z" /><glyph glyph-name="" unicode="y" d="M527 421 Q526 479 501 503 Q475 528 435 527 Q424 527 410 524 Q396 521 385 516 L370 435 Q391 436 405 428 Q418 420 419 395 Q416 347 372 254 Q327 161 277 96 L174 525 L61 519 L196 0 Q138 -67 89 -97 Q39 -127 -15 -127 L-9 -202 Q1 -208 13 -211 Q26 -214 35 -214 Q176 -193 344 27 Q512 247 527 421 L527 421 Z" /><glyph glyph-name="" unicode="z" d="M106 430 L366 430 L368 426 L21 56 L68 -11 Q89 8 110 16 Q131 24 155 24 Q192 21 245 3 Q299 -15 362 -18 Q399 -18 431 -7 Q463 3 491 24 L460 107 Q431 88 409 82 Q387 76 364 77 Q325 79 286 92 Q247 105 205 107 L203 111 L517 448 L502 519 L122 519 L106 430 Z" /><glyph glyph-name="" unicode="{" d="M156 327 Q181 337 211 373 Q242 408 254 471 L285 656 Q291 689 313 708 Q335 726 363 726 L411 726 L425 806 L385 806 Q309 806 260 765 Q211 725 196 643 L173 507 Q165 450 142 413 Q120 375 71 362 L60 293 Q92 284 105 261 Q118 239 118 205 Q118 178 112 146 L89 15 Q86 -5 86 -23 Q86 -82 121 -115 Q156 -147 222 -148 L262 -148 L275 -68 L232 -68 Q204 -68 188 -53 Q172 -38 172 -12 Q172 -8 173 -2 Q173 3 174 7 L204 181 Q206 191 206 201 Q207 211 207 219 Q206 263 189 291 Q173 318 156 327 L156 327 Z" /><glyph glyph-name="" unicode="|" d="M122 -154 L289 806 L207 806 L40 -154 L122 -154 Z" /><glyph glyph-name="" unicode="}" d="M254 330 Q229 320 199 284 Q168 249 156 186 L125 2 Q119 -32 97 -50 Q75 -68 47 -68 L-2 -68 L-15 -148 L24 -148 Q100 -148 149 -107 Q198 -67 213 15 L236 150 Q245 207 267 245 Q290 283 338 296 L350 365 Q318 374 305 397 Q292 419 292 453 Q292 479 298 512 L320 642 Q322 652 323 661 Q324 671 324 680 Q324 739 289 772 Q254 805 188 806 L148 806 L134 726 L178 726 Q205 726 222 711 Q238 696 238 670 Q238 666 237 661 Q237 655 236 651 L206 477 Q205 467 204 457 Q203 447 203 439 Q204 395 220 367 Q236 339 254 330 L254 330 Z" /><glyph glyph-name="" unicode="~" d="M254 357 Q225 358 205 372 Q186 386 168 401 L114 326 Q151 296 177 283 Q203 270 240 270 Q301 273 350 294 Q399 314 437 317 Q467 316 488 302 Q510 287 529 272 L583 346 Q546 376 519 390 Q492 404 451 404 Q395 401 347 381 Q299 360 254 357 L254 357 Z" /><glyph glyph-name="" unicode=" " d="" /><glyph glyph-name="" unicode="¡" d="M159 455 Q159 429 175 411 Q190 394 216 393 Q249 394 273 419 Q298 443 299 478 Q299 505 283 522 Q267 539 241 540 Q208 539 184 515 Q160 491 159 455 L159 455 ZM166 310 L57 -214 L164 -214 L239 310 L166 310 Z" /><glyph glyph-name="" unicode="¢" d="M338 -22 L361 110 Q408 114 444 127 Q480 140 514 160 L485 246 Q452 227 418 214 Q384 201 338 200 Q278 200 247 235 Q215 269 215 338 Q217 436 269 492 Q321 548 399 549 Q446 548 476 536 Q506 523 533 504 L589 589 Q561 607 530 621 Q499 634 453 638 L476 770 L393 770 L370 636 Q253 620 182 538 Q110 455 108 322 Q109 232 153 178 Q198 123 278 112 L255 -22 L338 -22 Z" /><glyph glyph-name="" unicode="£" d="M212 116 Q239 155 253 201 Q267 247 279 330 L474 330 L500 401 L293 401 L305 484 Q322 585 362 622 Q402 660 447 658 Q480 658 511 648 Q541 638 574 617 L622 703 Q552 754 447 754 Q357 754 290 691 Q223 628 199 503 L181 401 L94 401 L85 352 L168 330 Q152 227 126 163 Q99 100 44 37 L91 -11 Q116 10 139 19 Q163 27 192 27 Q235 24 293 5 Q352 -15 408 -18 Q454 -18 495 -7 Q535 3 569 24 L537 112 Q506 93 480 86 Q454 79 416 79 Q370 81 321 95 Q271 109 214 111 L212 116 Z" /><glyph glyph-name="" unicode="¥" d="M357 0 L403 263 L540 278 L559 324 L430 324 L492 424 L604 436 L623 484 L528 484 L687 748 L569 754 L374 404 L370 404 L296 754 L176 748 L244 484 L142 484 L148 436 L258 424 L285 324 L150 324 L155 278 L292 263 L246 0 L357 0 Z" /><glyph glyph-name="" unicode="§" d="M528 301 Q511 410 395 460 Q279 509 262 590 Q263 628 292 647 Q322 666 367 666 Q395 666 427 649 Q459 631 478 594 L546 644 Q510 705 458 730 Q407 755 364 754 Q284 754 227 711 Q171 667 168 579 Q168 553 178 529 Q188 505 205 485 Q148 449 116 407 Q84 365 84 305 Q101 194 217 146 Q332 99 349 23 Q348 -17 319 -37 Q289 -58 244 -58 Q216 -58 185 -40 Q153 -22 133 15 L65 -36 Q102 -96 153 -121 Q205 -146 247 -145 Q328 -145 384 -100 Q441 -56 443 34 Q443 58 433 80 Q423 102 406 121 Q464 157 496 199 Q528 241 528 301 L528 301 ZM423 291 Q423 260 403 234 Q383 207 345 182 Q291 215 242 243 Q192 271 189 315 Q189 345 209 372 Q228 398 266 424 Q321 391 370 361 Q420 332 423 291 L423 291 Z" /><glyph glyph-name="" unicode="¨" d="M123 654 Q123 631 137 615 Q150 599 173 598 Q204 599 226 621 Q247 643 248 674 Q248 698 233 713 Q218 728 195 728 Q167 727 146 706 Q124 684 123 654 L123 654 ZM321 654 Q321 631 335 615 Q348 599 371 598 Q401 599 423 621 Q445 642 446 674 Q446 698 431 713 Q416 728 393 728 Q365 727 344 706 Q322 684 321 654 L321 654 Z" /><glyph glyph-name="" unicode="©" d="M60 327 Q62 183 149 90 Q236 -3 381 -6 Q561 -1 672 121 Q783 243 786 421 Q784 565 698 658 Q613 751 473 754 Q287 749 175 627 Q63 505 60 327 L60 327 ZM118 333 Q120 484 215 589 Q310 694 471 699 Q593 696 660 616 Q727 536 728 415 Q725 264 631 159 Q536 54 384 49 Q263 50 191 124 Q120 198 118 333 L118 333 ZM498 285 Q475 259 446 244 Q417 229 389 229 Q348 229 321 257 Q294 284 293 335 Q295 417 340 464 Q385 510 451 511 Q463 511 476 510 Q489 508 502 505 L496 424 L555 424 L587 546 Q562 565 527 575 Q493 585 460 585 Q359 585 290 520 Q222 456 219 331 Q220 248 266 202 Q312 156 390 155 Q426 155 472 177 Q518 199 551 247 L498 285 Z" /><glyph glyph-name="" unicode="ª" d="M366 422 Q383 422 400 428 L410 485 Q390 485 380 491 Q370 498 370 516 Q370 521 371 530 Q372 538 373 548 L403 727 L343 727 Q325 741 302 747 Q279 754 254 754 Q178 753 130 699 Q82 645 80 552 Q81 491 110 457 Q139 423 190 422 Q217 422 245 434 Q272 445 296 466 L300 466 Q307 443 324 432 Q342 422 366 422 L366 422 ZM209 488 Q183 488 168 507 Q153 526 153 562 Q154 621 182 654 Q210 687 251 687 Q271 687 288 682 Q305 676 320 665 L299 536 Q273 509 251 499 Q228 488 209 488 L209 488 Z" /><glyph glyph-name="" unicode="«" d="M260 594 L69 367 L67 359 L180 132 L247 177 L160 364 L311 549 L260 594 ZM472 594 L281 367 L279 359 L392 132 L459 177 L371 364 L523 549 L472 594 Z" /><glyph glyph-name="" unicode="¬" d="M455 188 L537 188 L590 489 L94 489 L78 402 L493 402 L455 188 Z" /><glyph glyph-name="" unicode="®" d="M60 327 Q62 183 149 90 Q236 -3 381 -6 Q561 -1 672 121 Q783 243 786 421 Q784 565 698 658 Q613 751 473 754 Q287 749 175 627 Q63 505 60 327 L60 327 ZM118 333 Q120 484 215 589 Q310 694 471 699 Q593 696 660 616 Q727 536 728 415 Q725 264 631 159 Q536 54 384 49 Q263 50 191 124 Q120 198 118 333 L118 333 ZM324 596 L249 166 L318 166 L347 335 L420 335 Q434 266 459 215 Q485 164 540 162 Q548 162 556 163 Q564 165 570 167 L565 222 Q529 223 511 256 Q494 288 482 346 Q537 364 565 403 Q594 442 594 481 Q595 522 568 558 Q540 594 478 596 L324 596 ZM380 532 L463 532 Q495 531 509 512 Q522 492 522 470 Q522 443 501 419 Q480 396 435 394 L358 394 L380 532 Z" /><glyph glyph-name="" unicode="¯" d="M129 697 L117 626 L386 626 L399 697 L129 697 Z" /><glyph glyph-name="" unicode="°" d="M125 567 Q126 510 163 473 Q199 436 254 435 Q325 437 380 486 Q435 536 438 615 Q437 672 401 709 Q364 747 309 748 Q238 746 183 696 Q128 646 125 567 L125 567 ZM191 576 Q193 622 224 654 Q255 685 298 686 Q332 685 352 663 Q372 640 372 606 Q371 560 340 529 Q308 498 265 497 Q232 498 212 520 Q192 542 191 576 L191 576 Z" /><glyph glyph-name="" unicode="±" d="M113 366 L320 366 L295 216 L377 216 L403 366 L609 366 L624 453 L417 453 L444 602 L362 602 L335 453 L128 453 L113 366 ZM78 160 L63 73 L558 73 L574 160 L78 160 Z" /><glyph glyph-name="" unicode="´" d="M143 585 L231 585 L380 739 L258 739 L143 585 Z" /><glyph glyph-name="" unicode="µ" d="M581 519 L475 519 L415 172 Q385 137 348 113 Q311 90 268 89 Q238 87 210 102 Q182 117 180 171 Q180 187 184 211 L238 519 L132 519 L5 -213 L111 -208 L152 33 L160 34 Q179 12 203 3 Q226 -6 251 -6 Q299 -5 338 16 Q377 38 411 71 L415 71 Q425 29 451 12 Q477 -6 513 -6 Q527 -6 541 -3 Q556 0 568 5 L582 85 Q549 84 534 95 Q518 105 518 134 Q518 152 522 179 L581 519 Z" /><glyph glyph-name="" unicode="¶" d="M462 661 L572 661 L456 0 L553 0 L683 748 L375 748 Q248 745 169 671 Q90 597 88 484 Q90 394 149 338 Q207 282 297 280 L245 -23 Q232 -88 194 -109 Q155 -130 109 -128 L115 -205 Q127 -209 141 -212 Q154 -214 165 -214 Q222 -215 272 -170 Q322 -126 343 -22 L462 661 Z" /><glyph glyph-name="" unicode="·" d="M218 389 Q218 415 202 433 Q187 450 162 451 Q129 450 105 426 Q81 402 80 369 Q80 343 96 326 Q112 309 137 308 Q168 309 193 332 Q217 356 218 389 L218 389 Z" /><glyph glyph-name="" unicode="¸" d="M145 31 Q131 -44 96 -83 Q62 -122 -5 -135 L19 -204 Q111 -192 157 -132 Q203 -71 206 9 L145 31 Z" /><glyph glyph-name="" unicode="º" d="M269 753 Q187 752 134 701 Q82 649 80 557 Q81 496 115 460 Q149 423 210 422 Q291 423 343 476 Q396 528 398 620 Q397 681 363 717 Q329 752 269 753 L269 753 ZM258 691 Q288 691 307 670 Q325 650 325 614 Q324 555 295 520 Q266 486 219 485 Q189 485 171 506 Q153 527 153 563 Q154 622 183 656 Q212 690 258 691 L258 691 Z" /><glyph glyph-name="" unicode="»" d="M122 549 L210 364 L58 177 L109 132 L300 359 L301 367 L189 594 L122 549 ZM334 549 L421 364 L270 177 L321 132 L512 359 L513 367 L401 594 L334 549 Z" /><glyph glyph-name="" unicode="¿" d="M342 316 L270 316 L240 208 Q161 171 94 106 Q27 40 23 -59 Q25 -140 78 -177 Q130 -214 203 -214 Q251 -215 300 -194 Q349 -173 401 -121 L342 -60 Q310 -90 283 -104 Q255 -118 226 -118 Q193 -119 165 -99 Q138 -79 136 -32 Q140 36 200 87 Q260 138 330 170 L342 316 ZM405 483 Q405 510 389 528 Q372 545 345 546 Q312 545 287 521 Q262 497 261 462 Q261 435 277 417 Q293 400 320 399 Q354 400 379 424 Q404 448 405 483 L405 483 Z" /><glyph glyph-name="" unicode="à" d="M476 653 L599 653 L537 296 L273 296 L476 653 ZM258 748 L241 680 L372 661 L-15 0 L103 -6 L222 205 L520 205 L485 0 L596 0 L727 748 L258 748 ZM527 950 L405 950 L499 796 L588 796 L527 950 Z" /><glyph glyph-name="" unicode="á" d="M476 653 L599 653 L537 296 L273 296 L476 653 ZM258 748 L241 680 L372 661 L-15 0 L103 -6 L222 205 L520 205 L485 0 L596 0 L727 748 L258 748 ZM488 795 L576 795 L725 949 L603 949 L488 795 Z" /><glyph glyph-name="" unicode="â" d="M476 653 L599 653 L537 296 L273 296 L476 653 ZM258 748 L241 680 L372 661 L-15 0 L103 -6 L222 205 L520 205 L485 0 L596 0 L727 748 L258 748 ZM627 949 L525 949 L400 795 L474 795 L564 882 L623 795 L697 795 L627 949 Z" /><glyph glyph-name="" unicode="ã" d="M476 653 L599 653 L537 296 L273 296 L476 653 ZM258 748 L241 680 L372 661 L-15 0 L103 -6 L222 205 L520 205 L485 0 L596 0 L727 748 L258 748 ZM695 891 Q671 916 650 923 Q628 931 614 930 Q566 928 536 912 Q506 895 479 893 Q468 893 454 898 Q440 903 426 917 L386 849 Q405 826 425 817 Q445 809 463 809 Q499 811 533 828 Q566 845 597 847 Q607 847 622 842 Q638 837 658 821 L695 891 Z" /><glyph glyph-name="" unicode="ä" d="M476 653 L599 653 L537 296 L273 296 L476 653 ZM258 748 L241 680 L372 661 L-15 0 L103 -6 L222 205 L520 205 L485 0 L596 0 L727 748 L258 748 ZM448 862 Q448 839 462 823 Q475 807 498 806 Q529 807 551 829 Q572 851 573 882 Q573 906 558 921 Q543 936 520 936 Q492 935 471 914 Q449 892 448 862 L448 862 ZM646 862 Q646 839 660 823 Q673 807 696 806 Q726 807 748 829 Q770 850 771 882 Q771 906 756 921 Q741 936 718 936 Q690 935 669 914 Q647 892 646 862 L646 862 Z" /><glyph glyph-name="" unicode="å" d="M476 653 L599 653 L537 296 L273 296 L476 653 ZM258 748 L241 680 L372 661 L-15 0 L103 -6 L222 205 L520 205 L485 0 L596 0 L727 748 L258 748 ZM495 863 Q496 827 517 806 Q539 785 573 784 Q622 785 654 815 Q686 846 687 894 Q686 931 665 952 Q644 974 608 974 Q560 973 528 942 Q496 911 495 863 L495 863 ZM547 871 Q548 894 563 910 Q578 926 600 927 Q616 926 625 915 Q635 903 635 887 Q634 864 619 848 Q604 832 582 831 Q566 831 557 843 Q547 854 547 871 L547 871 Z" /><glyph glyph-name="" unicode="æ" d="M274 296 L476 653 L580 653 L517 296 L274 296 ZM501 205 L466 0 L917 0 L934 95 L594 95 L638 343 L937 343 L953 435 L654 435 L691 653 L1021 653 L1037 748 L258 748 L242 680 L372 661 L-15 0 L103 -6 L222 205 L501 205 Z" /><glyph glyph-name="" unicode="ç" d="M362 88 Q260 90 216 151 Q172 212 173 314 Q174 449 247 552 Q321 655 453 660 Q493 660 526 649 Q558 639 586 623 L579 501 L654 501 L698 679 Q648 714 593 734 Q537 754 467 754 Q270 748 165 616 Q61 485 60 301 Q59 179 119 95 Q179 12 306 -3 Q291 -58 258 -90 Q224 -123 166 -135 L190 -204 Q277 -192 323 -137 Q368 -81 375 -5 Q441 -1 506 32 Q571 65 620 135 L546 194 Q512 147 466 118 Q419 89 362 88 L362 88 Z" /><glyph glyph-name="" unicode="è" d="M191 748 L60 0 L549 0 L566 95 L188 95 L231 343 L558 343 L574 435 L247 435 L285 653 L653 653 L669 748 L191 748 ZM431 949 L309 949 L403 795 L492 795 L431 949 Z" /><glyph glyph-name="" unicode="é" d="M191 748 L60 0 L549 0 L566 95 L188 95 L231 343 L558 343 L574 435 L247 435 L285 653 L653 653 L669 748 L191 748 ZM385 795 L473 795 L622 949 L500 949 L385 795 Z" /><glyph glyph-name="" unicode="ê" d="M191 748 L60 0 L549 0 L566 95 L188 95 L231 343 L558 343 L574 435 L247 435 L285 653 L653 653 L669 748 L191 748 ZM536 949 L434 949 L309 795 L383 795 L473 882 L532 795 L606 795 L536 949 Z" /><glyph glyph-name="" unicode="ë" d="M191 748 L60 0 L549 0 L566 95 L188 95 L231 343 L558 343 L574 435 L247 435 L285 653 L653 653 L669 748 L191 748 ZM302 864 Q302 841 316 825 Q329 809 352 808 Q383 809 405 831 Q426 853 427 884 Q427 908 412 923 Q397 938 374 938 Q346 937 325 916 Q303 894 302 864 L302 864 ZM500 864 Q500 841 514 825 Q527 809 550 808 Q580 809 602 831 Q624 852 625 884 Q625 908 610 923 Q595 938 572 938 Q544 937 523 916 Q501 894 500 864 L500 864 Z" /><glyph glyph-name="" unicode="ñ" d="M582 0 L639 0 L769 748 L658 748 L566 220 L562 218 L244 748 L190 748 L60 0 L171 0 L262 521 L266 523 L582 0 ZM638 894 Q614 919 593 926 Q571 934 557 933 Q509 931 479 915 Q449 898 422 896 Q411 896 397 901 Q383 906 369 920 L329 852 Q348 829 368 820 Q388 812 406 812 Q442 814 476 831 Q509 848 540 850 Q550 850 565 845 Q581 840 601 824 L638 894 Z" /><glyph glyph-name="" unicode="ò" d="M475 754 Q280 749 171 619 Q62 489 60 300 Q60 166 131 81 Q201 -3 343 -6 Q538 -1 647 129 Q756 259 758 448 Q758 582 687 667 Q617 751 475 754 L475 754 ZM464 660 Q559 658 602 593 Q645 527 644 429 Q642 296 565 195 Q487 93 354 88 Q259 90 216 156 Q172 221 173 319 Q175 452 253 553 Q332 655 464 660 L464 660 ZM478 949 L356 949 L450 795 L539 795 L478 949 Z" /><glyph glyph-name="" unicode="ó" d="M475 754 Q280 749 171 619 Q62 489 60 300 Q60 166 131 81 Q201 -3 343 -6 Q538 -1 647 129 Q756 259 758 448 Q758 582 687 667 Q617 751 475 754 L475 754 ZM464 660 Q559 658 602 593 Q645 527 644 429 Q642 296 565 195 Q487 93 354 88 Q259 90 216 156 Q172 221 173 319 Q175 452 253 553 Q332 655 464 660 L464 660 ZM406 794 L494 794 L643 948 L521 948 L406 794 Z" /><glyph glyph-name="" unicode="ô" d="M475 754 Q280 749 171 619 Q62 489 60 300 Q60 166 131 81 Q201 -3 343 -6 Q538 -1 647 129 Q756 259 758 448 Q758 582 687 667 Q617 751 475 754 L475 754 ZM464 660 Q559 658 602 593 Q645 527 644 429 Q642 296 565 195 Q487 93 354 88 Q259 90 216 156 Q172 221 173 319 Q175 452 253 553 Q332 655 464 660 L464 660 ZM564 949 L462 949 L337 795 L411 795 L501 882 L560 795 L634 795 L564 949 Z" /><glyph glyph-name="" unicode="õ" d="M475 754 Q280 749 171 619 Q62 489 60 300 Q60 166 131 81 Q201 -3 343 -6 Q538 -1 647 129 Q756 259 758 448 Q758 582 687 667 Q617 751 475 754 L475 754 ZM464 660 Q559 658 602 593 Q645 527 644 429 Q642 296 565 195 Q487 93 354 88 Q259 90 216 156 Q172 221 173 319 Q175 452 253 553 Q332 655 464 660 L464 660 ZM655 893 Q631 918 610 925 Q588 933 574 932 Q526 930 496 914 Q466 897 439 895 Q428 895 414 900 Q400 905 386 919 L346 851 Q365 828 385 819 Q405 811 423 811 Q459 813 493 830 Q526 847 557 849 Q567 849 582 844 Q598 839 618 823 L655 893 Z" /><glyph glyph-name="" unicode="ö" d="M475 754 Q280 749 171 619 Q62 489 60 300 Q60 166 131 81 Q201 -3 343 -6 Q538 -1 647 129 Q756 259 758 448 Q758 582 687 667 Q617 751 475 754 L475 754 ZM464 660 Q559 658 602 593 Q645 527 644 429 Q642 296 565 195 Q487 93 354 88 Q259 90 216 156 Q172 221 173 319 Q175 452 253 553 Q332 655 464 660 L464 660 ZM356 863 Q356 840 370 824 Q383 808 406 807 Q437 808 459 830 Q480 852 481 883 Q481 907 466 922 Q451 937 428 937 Q400 936 379 915 Q357 893 356 863 L356 863 ZM554 863 Q554 840 568 824 Q581 808 604 807 Q634 808 656 830 Q678 851 679 883 Q679 907 664 922 Q649 937 626 937 Q598 936 577 915 Q555 893 554 863 L554 863 Z" /><glyph glyph-name="" unicode="ø" d="M807 706 L772 754 L694 678 Q659 714 609 734 Q559 754 493 754 Q298 749 189 619 Q80 489 78 300 Q78 248 89 203 Q100 157 122 120 L45 44 L80 -3 L157 72 Q192 35 243 15 Q294 -6 361 -6 Q556 -1 665 129 Q774 259 776 448 Q776 501 764 547 Q753 593 730 631 L807 706 ZM662 429 Q660 296 583 195 Q505 94 372 89 Q326 89 294 104 Q261 119 239 147 L639 547 Q651 522 657 492 Q662 462 662 429 L662 429 ZM482 658 Q526 658 559 644 Q592 630 613 603 L213 205 Q202 228 196 258 Q191 287 191 319 Q193 452 271 552 Q350 653 482 658 L482 658 Z" /><glyph glyph-name="" unicode="ù" d="M634 748 L560 322 Q542 221 484 156 Q427 90 338 88 Q262 89 228 131 Q193 173 194 243 Q194 261 196 281 Q197 301 201 322 L276 748 L164 748 L90 322 Q86 300 84 279 Q82 258 82 238 Q82 127 142 61 Q202 -4 324 -6 Q468 -3 557 86 Q647 176 672 322 L746 748 L634 748 ZM455 949 L333 949 L427 795 L516 795 L455 949 Z" /><glyph glyph-name="" unicode="ú" d="M634 748 L560 322 Q542 221 484 156 Q427 90 338 88 Q262 89 228 131 Q193 173 194 243 Q194 261 196 281 Q197 301 201 322 L276 748 L164 748 L90 322 Q86 300 84 279 Q82 258 82 238 Q82 127 142 61 Q202 -4 324 -6 Q468 -3 557 86 Q647 176 672 322 L746 748 L634 748 ZM394 795 L482 795 L631 949 L509 949 L394 795 Z" /><glyph glyph-name="" unicode="û" d="M634 748 L560 322 Q542 221 484 156 Q427 90 338 88 Q262 89 228 131 Q193 173 194 243 Q194 261 196 281 Q197 301 201 322 L276 748 L164 748 L90 322 Q86 300 84 279 Q82 258 82 238 Q82 127 142 61 Q202 -4 324 -6 Q468 -3 557 86 Q647 176 672 322 L746 748 L634 748 ZM544 949 L442 949 L317 795 L391 795 L481 882 L540 795 L614 795 L544 949 Z" /><glyph glyph-name="" unicode="ü" d="M634 748 L560 322 Q542 221 484 156 Q427 90 338 88 Q262 89 228 131 Q193 173 194 243 Q194 261 196 281 Q197 301 201 322 L276 748 L164 748 L90 322 Q86 300 84 279 Q82 258 82 238 Q82 127 142 61 Q202 -4 324 -6 Q468 -3 557 86 Q647 176 672 322 L746 748 L634 748 ZM323 863 Q323 840 337 824 Q350 808 373 807 Q404 808 426 830 Q447 852 448 883 Q448 907 433 922 Q418 937 395 937 Q367 936 346 915 Q324 893 323 863 L323 863 ZM521 863 Q521 840 535 824 Q548 808 571 807 Q601 808 623 830 Q645 851 646 883 Q646 907 631 922 Q616 937 593 937 Q565 936 544 915 Q522 893 521 863 L521 863 Z" /><glyph glyph-name="" unicode="ß" d="M166 440 L87 -18 Q74 -83 36 -104 Q-2 -125 -48 -123 L-44 -205 Q-32 -209 -18 -212 Q-5 -214 6 -214 Q63 -215 117 -170 Q171 -126 192 -22 L295 570 Q309 637 347 671 Q385 704 429 704 Q474 704 502 686 Q529 668 530 633 Q520 573 449 544 Q378 514 368 431 Q378 363 444 311 Q511 258 520 197 Q518 136 487 111 Q455 87 414 88 Q385 88 362 98 Q338 108 321 123 L270 45 Q298 23 336 9 Q375 -5 416 -6 Q496 -6 561 45 Q627 96 631 197 Q622 302 556 351 Q489 401 480 438 Q490 494 561 520 Q631 546 641 642 Q641 709 592 752 Q543 794 445 795 Q354 795 284 739 Q214 683 190 571 L180 519 L71 519 L60 459 L166 440 Z" /><glyph glyph-name="" unicode="æ" d="M336 525 Q282 525 233 511 Q184 497 136 473 L158 398 Q198 417 235 428 Q272 439 313 439 Q360 439 386 415 Q413 390 413 336 Q413 316 409 292 Q378 304 343 310 Q308 315 283 315 Q134 308 88 242 Q41 175 45 133 Q46 71 86 33 Q126 -5 198 -6 Q256 -7 317 19 Q379 45 426 105 Q450 53 499 24 Q547 -6 616 -6 Q688 -6 735 7 Q783 20 827 45 L795 131 Q758 113 719 101 Q680 89 628 89 Q579 88 546 113 Q513 139 512 209 Q639 207 754 241 Q868 275 876 384 Q876 445 831 485 Q785 525 692 527 Q634 527 583 504 Q531 481 494 439 Q474 479 434 502 Q393 525 336 525 L336 525 ZM243 77 Q202 77 180 96 Q158 115 158 152 Q156 184 184 217 Q211 249 286 252 Q316 252 343 246 Q370 240 397 228 Q378 140 329 108 Q279 75 243 77 L243 77 ZM683 437 Q722 436 744 419 Q766 401 766 373 Q766 326 703 302 Q641 278 517 276 Q529 356 576 396 Q623 437 683 437 L683 437 Z" /><glyph glyph-name="" unicode="ç" d="M355 525 Q224 523 143 444 Q62 364 60 226 Q61 123 113 63 Q166 3 258 -5 Q243 -59 210 -91 Q176 -123 119 -135 L143 -204 Q232 -192 277 -136 Q323 -79 329 -2 Q370 3 406 19 Q443 34 479 60 L436 135 Q398 108 363 98 Q328 88 296 88 Q237 88 203 123 Q168 159 167 230 Q169 321 218 375 Q268 430 343 431 Q364 431 381 428 Q399 425 416 417 L406 317 L492 317 L524 476 Q491 499 452 512 Q413 525 355 525 L355 525 Z" /><glyph glyph-name="" unicode="ë" d="M534 384 Q534 445 489 485 Q443 525 350 527 Q227 525 145 440 Q62 355 59 216 Q60 110 117 53 Q174 -5 274 -6 Q346 -6 393 7 Q441 20 485 45 L453 130 Q416 112 377 100 Q338 88 286 88 Q237 86 204 112 Q171 137 170 209 Q297 207 412 241 Q526 275 534 384 L534 384 ZM341 439 Q380 438 402 420 Q424 401 424 373 Q424 326 361 302 Q299 278 175 276 Q187 356 234 397 Q281 439 341 439 L341 439 ZM240 654 Q240 631 254 615 Q267 599 290 598 Q321 599 343 621 Q364 643 365 674 Q365 698 350 713 Q335 728 312 728 Q284 727 263 706 Q241 684 240 654 L240 654 ZM438 654 Q438 631 452 615 Q465 599 488 598 Q518 599 540 621 Q562 642 563 674 Q563 698 548 713 Q533 728 510 728 Q482 727 461 706 Q439 684 438 654 L438 654 Z" /><glyph glyph-name="" unicode="ñ" d="M258 519 L159 519 L70 0 L176 0 L237 351 Q270 390 308 411 Q346 432 380 432 Q417 433 440 414 Q463 394 464 345 Q464 338 463 330 Q462 321 460 311 L407 0 L513 0 L563 291 Q570 333 570 366 Q567 459 520 493 Q472 527 409 525 Q375 525 335 507 Q295 488 251 450 L247 450 L258 519 ZM556 674 Q532 699 511 706 Q489 714 475 713 Q427 711 397 695 Q367 678 340 676 Q329 676 315 681 Q301 686 287 700 L247 632 Q266 609 286 600 Q306 592 324 592 Q360 594 394 611 Q427 628 458 630 Q468 630 483 625 Q499 620 519 604 L556 674 Z" /><glyph glyph-name="" unicode="÷" d="M221 111 Q221 82 238 63 Q255 44 283 43 Q317 44 344 70 Q370 96 371 135 Q371 163 354 182 Q337 200 310 201 Q274 200 248 174 Q222 149 221 111 L221 111 ZM296 541 Q297 513 313 494 Q330 476 357 475 Q393 476 419 502 Q445 527 446 565 Q446 593 429 612 Q412 631 385 632 Q350 631 324 605 Q297 579 296 541 L296 541 ZM78 294 L574 294 L590 381 L94 381 L78 294 Z" /><glyph glyph-name="" unicode="ø" d="M598 475 L564 522 L512 474 Q486 499 448 512 Q411 525 366 525 Q234 524 151 441 Q67 358 64 210 Q64 175 71 144 Q78 113 91 89 L40 43 L75 -3 L126 44 Q153 20 190 7 Q227 -6 273 -6 Q403 -4 487 80 Q571 164 574 311 Q574 345 567 375 Q561 406 547 429 L598 475 ZM350 435 Q376 435 396 427 Q417 419 431 405 L182 168 Q177 182 175 200 Q173 217 173 237 Q175 326 226 380 Q277 434 350 435 L350 435 ZM467 291 Q465 198 415 142 Q365 86 289 84 Q263 84 243 91 Q222 99 207 113 L455 349 Q467 328 467 291 L467 291 Z" /><glyph glyph-name="" unicode="ÿ" d="M527 421 Q526 479 501 503 Q475 528 435 527 Q424 527 410 524 Q396 521 385 516 L370 435 Q391 436 405 428 Q418 420 419 395 Q416 347 372 254 Q327 161 277 96 L174 525 L61 519 L196 0 Q138 -67 89 -97 Q39 -127 -15 -127 L-9 -202 Q1 -208 13 -211 Q26 -214 35 -214 Q176 -193 344 27 Q512 247 527 421 L527 421 ZM154 654 Q154 631 168 615 Q181 599 204 598 Q235 599 257 621 Q278 643 279 674 Q279 698 264 713 Q249 728 226 728 Q198 727 177 706 Q155 684 154 654 L154 654 ZM352 654 Q352 631 366 615 Q379 599 402 598 Q432 599 454 621 Q476 642 477 674 Q477 698 462 713 Q447 728 424 728 Q396 727 375 706 Q353 684 352 654 L352 654 Z" /><glyph glyph-name="" unicode="&#x131;" d="M256 519 L150 519 L91 177 Q84 131 84 110 Q85 44 116 18 Q146 -7 188 -6 Q202 -6 216 -3 Q230 0 243 5 L257 85 Q224 84 209 95 Q193 105 193 134 Q193 143 194 155 Q195 167 197 179 L256 519 Z" /><glyph glyph-name="" unicode="&#x152;" d="M1017 653 L1033 748 L572 748 Q551 751 525 753 Q500 754 475 754 Q280 749 171 619 Q62 489 60 300 Q60 166 131 81 Q201 -3 343 -6 Q367 -6 394 -4 Q421 -3 443 0 L903 0 L919 95 L562 95 L605 344 L924 344 L939 435 L621 435 L659 653 L1017 653 ZM356 91 Q262 94 217 158 Q172 222 172 317 Q174 452 251 551 Q329 651 462 656 Q485 656 505 655 Q525 653 546 649 L451 99 Q426 95 404 93 Q382 91 356 91 L356 91 Z" /><glyph glyph-name="" unicode="&#x153;" d="M369 525 Q238 524 154 441 Q71 358 68 211 Q69 113 124 54 Q179 -5 277 -6 Q345 -5 401 21 Q458 48 498 95 Q522 47 569 21 Q615 -6 680 -6 Q752 -6 799 7 Q847 20 891 45 L858 131 Q822 113 783 101 Q744 89 692 89 Q643 87 610 112 Q577 137 576 209 Q703 207 818 241 Q932 275 940 384 Q940 445 895 485 Q849 525 756 527 Q693 527 638 502 Q583 476 543 426 Q520 473 476 499 Q432 525 369 525 L369 525 ZM354 435 Q412 434 441 397 Q471 360 471 295 Q469 200 419 143 Q369 85 293 84 Q238 84 207 120 Q176 155 175 222 Q177 318 227 376 Q277 434 354 435 L354 435 ZM747 437 Q786 436 808 419 Q830 401 830 373 Q830 326 767 302 Q705 278 581 276 Q593 356 640 396 Q687 437 747 437 L747 437 Z" /><glyph glyph-name="" unicode="&#x178;" d="M94 748 L264 285 L215 0 L326 0 L375 285 Q470 397 540 499 Q611 600 702 748 L578 754 Q514 638 452 544 Q389 451 339 384 L335 384 L220 754 L94 748 ZM266 864 Q266 841 280 825 Q293 809 316 808 Q347 809 369 831 Q390 853 391 884 Q391 908 376 923 Q361 938 338 938 Q310 937 289 916 Q267 894 266 864 L266 864 ZM464 864 Q464 841 478 825 Q491 809 514 808 Q544 809 566 831 Q588 852 589 884 Q589 908 574 923 Q559 938 536 938 Q508 937 487 916 Q465 894 464 864 L464 864 Z" /><glyph glyph-name="" unicode="&#x192;" d="M225 91 Q213 22 190 -6 Q166 -33 125 -32 Q111 -32 96 -28 Q82 -24 69 -16 L23 -107 Q44 -120 69 -127 Q93 -133 126 -133 Q200 -133 255 -84 Q309 -36 327 57 L388 399 L519 399 L546 471 L400 471 L422 598 Q429 639 449 664 Q469 690 508 691 Q544 691 574 673 L618 758 Q599 774 568 782 Q537 790 511 790 Q436 789 385 741 Q333 693 319 616 L293 471 L173 471 L160 407 L281 399 L225 91 Z" /><glyph glyph-name="" unicode="&#x2c6;" d="M342 739 L240 739 L115 585 L189 585 L279 672 L338 585 L412 585 L342 739 Z" /><glyph glyph-name="" unicode="&#x2c7;" d="M427 739 L352 739 L263 651 L204 739 L129 739 L200 585 L302 585 L427 739 Z" /><glyph glyph-name="" unicode="&#x2d8;" d="M130 739 Q130 667 161 631 Q191 594 254 594 Q318 594 365 632 Q412 669 430 739 L368 739 Q354 702 328 684 Q301 666 266 666 Q233 666 213 685 Q193 704 192 739 L130 739 Z" /><glyph glyph-name="" unicode="&#x2d9;" d="M118 652 Q118 628 132 612 Q145 597 169 596 Q199 597 221 619 Q242 640 243 671 Q242 695 228 711 Q213 726 191 726 Q162 725 140 704 Q119 682 118 652 L118 652 Z" /><glyph glyph-name="" unicode="&#x2da;" d="M118 649 Q119 613 140 592 Q162 571 196 570 Q245 571 277 601 Q309 632 310 680 Q309 717 288 738 Q267 760 231 760 Q183 759 151 728 Q119 697 118 649 L118 649 ZM170 657 Q171 680 186 696 Q201 712 223 713 Q239 712 248 701 Q258 689 258 673 Q257 650 242 634 Q227 618 205 617 Q189 617 180 629 Q170 640 170 657 L170 657 Z" /><glyph glyph-name="" unicode="&#x2db;" d="M165 -118 Q133 -118 112 -106 Q90 -95 89 -71 Q90 -41 111 -22 Q132 -3 159 6 L154 56 Q103 45 56 7 Q8 -31 5 -94 Q7 -143 43 -167 Q80 -192 128 -193 L165 -118 Z" /><glyph glyph-name="" unicode="&#x2dc;" d="M428 674 Q404 699 383 706 Q361 714 347 713 Q299 711 269 695 Q239 678 212 676 Q201 676 187 681 Q173 686 159 700 L119 632 Q138 609 158 600 Q178 592 196 592 Q232 594 266 611 Q299 628 330 630 Q340 630 355 625 Q371 620 391 604 L428 674 Z" /><glyph glyph-name="" unicode="&#x2dd;" d="M117 585 L198 585 L337 739 L222 739 L117 585 ZM302 585 L384 585 L523 739 L408 739 L302 585 Z" /><glyph glyph-name="" unicode="&#x3a9;" d="M539 95 L540 99 Q614 155 673 251 Q731 347 734 474 Q733 593 668 672 Q602 751 481 754 Q320 749 216 634 Q113 519 109 351 Q110 269 134 205 Q159 141 195 99 L194 95 L61 95 L45 0 L289 0 L303 79 Q269 116 244 181 Q218 245 217 329 Q219 461 288 557 Q357 653 468 658 Q544 656 581 597 Q619 537 619 448 Q615 319 553 226 Q492 133 423 79 L409 0 L654 0 L670 95 L539 95 Z" /><glyph glyph-name="" unicode="&#x3c0;" d="M485 430 L441 177 Q435 143 435 115 Q436 51 463 22 Q490 -6 538 -6 Q552 -6 566 -3 Q581 0 593 5 L607 85 Q574 84 559 95 Q543 105 543 134 Q543 143 544 155 Q545 167 547 179 L590 430 L668 430 L684 519 L300 519 Q238 519 197 511 Q156 502 127 488 L131 401 Q147 409 172 416 Q197 424 234 427 Q210 318 172 197 Q134 77 97 0 L200 0 Q238 83 275 203 Q312 323 336 430 L485 430 Z" /><glyph glyph-name="" unicode="&#xfb01;" d="M620 519 L289 519 L301 590 Q311 648 341 676 Q370 705 413 705 Q479 704 528 689 Q576 673 604 660 L641 739 Q605 760 545 777 Q485 794 417 795 Q340 796 279 750 Q218 704 197 596 L184 519 L83 519 L71 459 L169 442 L90 -18 Q77 -83 41 -104 Q4 -125 -40 -123 L-36 -205 Q-24 -209 -12 -212 Q0 -214 9 -214 Q66 -215 120 -170 Q174 -126 195 -22 L274 438 L500 438 L455 177 Q449 143 449 115 Q450 51 477 22 Q505 -6 553 -6 Q567 -6 581 -3 Q595 0 608 5 L622 85 Q589 84 573 95 Q557 105 557 134 Q557 143 558 155 Q560 167 562 179 L620 519 Z" /><glyph glyph-name="" unicode="&#xfb02;" d="M184 519 L83 519 L71 459 L169 442 L90 -18 Q77 -83 41 -104 Q4 -125 -40 -123 L-36 -205 Q-24 -209 -12 -212 Q0 -214 9 -214 Q66 -215 120 -170 Q174 -126 195 -22 L274 438 L413 438 L428 519 L289 519 L302 590 Q314 650 344 677 Q375 704 410 704 Q444 704 473 699 Q502 694 526 686 L436 177 Q430 143 430 115 Q431 51 458 22 Q486 -6 534 -6 Q548 -6 562 -3 Q576 0 589 5 L603 85 Q570 84 554 95 Q538 105 538 134 Q538 143 539 155 Q541 167 543 179 L639 736 Q590 763 532 779 Q474 795 407 795 Q341 796 279 748 Q217 700 197 596 L184 519 Z" /><glyph glyph-name="" unicode="&#x2013;" d="M500 249 L516 334 L47 334 L31 249 L500 249 Z" /><glyph glyph-name="" unicode="&#x2014;" d="M753 249 L769 334 L50 334 L34 249 L753 249 Z" /><glyph glyph-name="" unicode="&#x2018;" d="M218 538 Q218 562 205 581 Q191 600 167 601 L247 734 L197 754 Q158 707 118 635 Q77 563 74 515 Q74 487 90 469 Q106 450 133 449 Q168 450 192 476 Q217 502 218 538 L218 538 Z" /><glyph glyph-name="" unicode="&#x2019;" d="M103 665 Q103 641 117 622 Q130 603 155 602 L74 469 L125 449 Q164 496 204 568 Q244 640 247 688 Q247 716 231 735 Q215 753 188 754 Q154 753 129 727 Q104 701 103 665 L103 665 Z" /><glyph glyph-name="" unicode="&#x201a;" d="M63 58 Q63 33 76 15 Q89 -4 114 -5 L33 -139 L83 -158 Q122 -111 163 -39 Q203 33 206 81 Q206 109 190 127 Q174 145 147 146 Q113 145 89 119 Q64 94 63 58 L63 58 Z" /><glyph glyph-name="" unicode="&#x201c;" d="M219 538 Q219 562 205 581 Q192 600 167 601 L247 734 L197 754 Q158 707 118 635 Q77 563 74 515 Q74 487 91 469 Q107 450 134 449 Q168 450 193 476 Q218 502 219 538 L219 538 ZM428 538 Q428 562 414 581 Q401 600 376 601 L457 734 L406 754 Q367 707 327 635 Q286 563 283 515 Q283 487 299 469 Q315 450 342 449 Q377 450 402 476 Q427 502 428 538 L428 538 Z" /><glyph glyph-name="" unicode="&#x201d;" d="M332 665 Q332 641 346 622 Q359 603 384 602 L303 469 L354 449 Q393 496 434 568 Q474 640 477 688 Q477 716 461 735 Q445 753 418 754 Q384 753 359 727 Q333 701 332 665 L332 665 ZM123 665 Q123 641 137 622 Q150 603 175 602 L94 469 L145 449 Q184 496 224 568 Q264 640 267 688 Q267 716 251 735 Q236 753 209 754 Q174 753 149 727 Q124 701 123 665 L123 665 Z" /><glyph glyph-name="" unicode="&#x201e;" d="M273 58 Q273 33 286 15 Q299 -4 324 -5 L244 -139 L294 -158 Q333 -111 374 -39 Q414 33 417 81 Q417 109 401 127 Q385 145 358 146 Q324 145 299 119 Q274 94 273 58 L273 58 ZM64 58 Q64 33 77 15 Q90 -4 115 -5 L35 -139 L85 -158 Q124 -111 165 -39 Q205 33 208 81 Q208 109 192 127 Q176 145 149 146 Q114 145 90 119 Q65 94 64 58 L64 58 Z" /><glyph glyph-name="" unicode="&#x2020;" d="M340 559 L387 748 L290 748 L270 559 L340 559 ZM254 465 L146 -78 L243 -78 L323 465 L254 465 ZM333 474 L506 460 L524 563 L346 548 L303 511 L333 474 ZM259 548 L86 563 L68 460 L246 474 L289 511 L259 548 Z" /><glyph glyph-name="" unicode="&#x2021;" d="M229 110 L182 -78 L279 -78 L299 110 L229 110 ZM236 195 L63 210 L45 107 L223 121 L266 158 L236 195 ZM310 121 L483 107 L501 210 L323 195 L280 158 L310 121 ZM375 559 L423 748 L326 748 L306 559 L375 559 ZM315 206 L359 465 L290 465 L246 206 L315 206 ZM368 474 L542 460 L559 563 L382 548 L339 511 L368 474 ZM295 548 L122 563 L104 460 L282 474 L325 511 L295 548 Z" /><glyph glyph-name="" unicode="&#x2022;" d="M324 387 Q323 432 297 463 Q271 493 227 494 Q172 493 130 453 Q89 414 87 355 Q88 310 114 281 Q141 252 184 251 Q240 252 281 290 Q322 328 324 387 L324 387 Z" /><glyph glyph-name="" unicode="&#x2026;" d="M73 58 Q73 30 89 13 Q105 -5 132 -6 Q166 -5 192 20 Q217 44 218 81 Q218 109 202 127 Q186 145 159 146 Q125 145 100 120 Q74 94 73 58 L73 58 ZM360 58 Q360 30 376 13 Q392 -5 419 -6 Q453 -5 478 20 Q503 44 504 81 Q504 109 488 127 Q472 145 446 146 Q411 145 386 120 Q361 94 360 58 L360 58 ZM646 58 Q646 30 662 13 Q678 -5 705 -6 Q739 -5 764 20 Q789 44 790 81 Q790 109 774 127 Q758 145 731 146 Q697 145 672 120 Q647 94 646 58 L646 58 Z" /><glyph glyph-name="" unicode="&#x2030;" d="M814 748 L741 751 L157 0 L232 -3 L814 748 ZM128 545 Q129 479 168 436 Q206 393 270 391 Q350 393 411 453 Q471 512 474 599 Q473 665 435 709 Q396 752 333 754 Q251 752 191 692 Q131 632 128 545 L128 545 ZM501 148 Q502 82 541 39 Q579 -4 642 -6 Q724 -4 785 56 Q845 116 848 203 Q847 269 808 312 Q769 355 706 357 Q625 355 565 295 Q504 235 501 148 L501 148 ZM210 556 Q212 604 245 639 Q278 674 322 676 Q357 675 375 649 Q393 624 393 588 Q391 540 358 505 Q324 470 280 468 Q245 469 227 495 Q210 520 210 556 L210 556 ZM583 159 Q585 207 618 242 Q651 278 695 280 Q730 279 748 253 Q766 227 766 192 Q764 144 731 108 Q697 73 653 71 Q618 72 600 98 Q583 123 583 159 L583 159 ZM895 148 Q896 82 934 39 Q973 -4 1036 -6 Q1118 -4 1178 56 Q1239 116 1242 203 Q1241 269 1202 312 Q1163 355 1099 357 Q1019 355 958 295 Q898 235 895 148 L895 148 ZM977 159 Q979 207 1012 242 Q1045 278 1089 280 Q1124 279 1142 253 Q1160 227 1160 192 Q1158 144 1125 108 Q1091 73 1046 71 Q1012 72 994 98 Q977 123 977 159 L977 159 Z" /><glyph glyph-name="" unicode="&#x2039;" d="M260 594 L69 367 L67 359 L180 132 L247 177 L159 364 L311 549 L260 594 Z" /><glyph glyph-name="" unicode="&#x203a;" d="M122 549 L209 364 L58 177 L109 132 L299 359 L301 367 L189 594 L122 549 Z" /><glyph glyph-name="" unicode="&#x2044;" d="M-96 -6 L454 748 L380 754 L-166 0 L-96 -6 Z" /><glyph glyph-name="" unicode="&#x20ac;" d="M130 259 Q131 132 181 63 Q231 -5 334 -6 Q386 -6 435 10 Q483 26 533 59 L504 147 Q425 89 347 89 Q292 90 266 134 Q239 178 238 259 L434 259 L457 324 L243 324 Q245 345 249 372 Q254 399 259 419 L488 419 L511 483 L276 483 Q306 575 350 617 Q395 660 449 659 Q488 659 519 648 Q550 637 579 610 L635 697 Q599 724 557 739 Q515 754 461 754 Q359 754 285 686 Q210 618 168 483 L98 483 L84 435 L151 419 Q146 397 141 372 Q137 346 135 324 L74 324 L59 275 L130 259 Z" /><glyph glyph-name="" unicode="&#x2122;" d="M632 470 L756 625 L759 624 L722 414 L781 414 L839 748 L794 748 L645 560 L563 748 L518 748 L460 414 L518 414 L555 624 L559 625 L627 470 L632 470 ZM462 748 L180 748 L170 695 L282 695 L233 414 L291 414 L340 695 L453 695 L462 748 Z" /><glyph glyph-name="" unicode="&#x2202;" d="M379 434 Q416 434 443 413 Q469 393 485 359 Q480 251 437 169 Q395 88 320 84 Q264 84 232 119 Q201 154 200 223 Q202 320 252 377 Q302 433 379 434 L379 434 ZM290 -6 Q433 -8 520 111 Q607 230 609 494 Q607 668 548 733 Q489 798 403 795 Q345 794 295 776 Q246 758 207 728 L246 661 Q264 676 300 690 Q335 705 381 706 Q447 707 478 661 Q508 615 508 517 Q508 502 507 485 Q507 469 506 453 L502 452 Q483 485 449 505 Q416 524 371 525 Q251 523 173 439 Q95 355 92 209 Q93 108 145 52 Q198 -5 290 -6 L290 -6 Z" /><glyph glyph-name="" unicode="&#x2206;" d="M461 748 L376 748 L-20 33 L-8 0 L609 0 L622 33 L461 748 ZM125 95 L390 595 L394 595 L496 95 L125 95 Z" /><glyph glyph-name="" unicode="&#x220f;" d="M235 0 L349 653 L590 653 L476 0 L588 0 L701 653 L777 653 L794 748 L177 748 L160 653 L237 653 L124 0 L235 0 Z" /><glyph glyph-name="" unicode="&#x2211;" d="M149 704 L316 379 L26 43 L33 0 L542 0 L558 95 L199 95 L199 99 L435 374 L299 648 L301 653 L640 653 L658 748 L164 748 L149 704 Z" /><glyph glyph-name="" unicode="&#x221a;" d="M278 -155 L690 846 L613 846 L267 5 L263 5 L227 410 L74 410 L60 327 L149 327 L199 -155 L278 -155 Z" /><glyph glyph-name="" unicode="&#x221e;" d="M561 189 Q629 191 678 239 Q726 287 728 359 Q727 413 696 447 Q665 482 612 483 Q564 482 516 455 Q468 427 421 382 Q390 427 352 455 Q313 482 265 483 Q197 481 149 433 Q100 384 98 312 Q99 258 130 224 Q161 190 214 189 Q263 190 310 217 Q358 244 405 288 Q436 244 475 217 Q513 190 561 189 L561 189 ZM573 258 Q532 259 505 281 Q477 303 457 336 Q489 369 524 391 Q558 413 600 414 Q628 413 645 395 Q663 376 663 348 Q662 310 636 284 Q609 259 573 258 L573 258 ZM226 258 Q199 259 182 277 Q165 295 164 324 Q165 362 192 387 Q218 413 254 414 Q295 413 322 391 Q349 369 369 336 Q338 303 303 281 Q268 259 226 258 L226 258 Z" /><glyph glyph-name="" unicode="&#x222b;" d="M305 730 Q319 802 355 820 Q391 839 435 836 L431 901 Q420 906 408 908 Q396 910 386 910 Q330 911 286 867 Q241 823 222 718 L101 16 Q88 -52 51 -72 Q14 -91 -30 -89 L-26 -154 Q-14 -159 -2 -162 Q10 -164 19 -164 Q75 -165 119 -120 Q164 -76 183 29 L305 730 Z" /><glyph glyph-name="" unicode="&#x2248;" d="M250 447 Q220 448 201 462 Q182 476 163 491 L110 416 Q147 386 173 373 Q198 360 236 360 Q297 363 346 384 Q394 404 432 407 Q462 406 484 392 Q506 377 525 362 L579 436 Q542 466 515 480 Q488 494 447 494 Q390 491 343 471 Q295 450 250 447 L250 447 ZM219 269 Q190 270 170 284 Q151 298 132 313 L79 238 Q115 208 142 195 Q168 182 205 182 Q267 185 316 206 Q364 226 402 229 Q432 228 453 214 Q475 199 493 184 L547 258 Q511 288 484 302 Q456 316 415 316 Q359 313 312 293 Q264 272 219 269 L219 269 Z" /><glyph glyph-name="" unicode="&#x2260;" d="M109 383 L354 383 L355 379 L266 292 L93 292 L78 205 L178 205 L178 201 L113 136 L146 99 L255 205 L574 205 L589 292 L342 292 L342 296 L431 383 L605 383 L620 470 L520 470 L519 474 L586 540 L553 577 L444 470 L124 470 L109 383 Z" /><glyph glyph-name="" unicode="&#x2264;" d="M540 161 L557 256 L243 390 L244 394 L604 529 L620 624 L148 435 L133 350 L540 161 ZM519 32 L534 119 L90 119 L75 32 L519 32 Z" /><glyph glyph-name="" unicode="&#x2265;" d="M581 350 L596 435 L189 624 L173 529 L486 394 L485 390 L126 256 L109 161 L581 350 ZM529 32 L544 119 L100 119 L85 32 L529 32 Z" /><glyph glyph-name="" unicode="&#x25ca;" d="M608 374 L458 777 L388 777 L95 374 L246 -29 L315 -29 L608 374 ZM516 376 L299 81 L187 373 L404 665 L516 376 Z" /><glyph glyph-name="" unicode="¦" d="M203 806 L134 407 L217 407 L286 806 L203 806 ZM106 244 L36 -155 L119 -155 L188 244 L106 244 Z" /><glyph glyph-name="" unicode="²" d="M341 309 L351 378 L166 378 L166 382 Q218 438 301 486 Q383 535 392 632 Q392 680 357 713 Q323 747 258 748 Q220 750 181 733 Q142 716 103 658 L165 625 Q188 655 208 666 Q227 678 246 677 Q280 677 295 662 Q311 646 311 622 Q304 550 218 505 Q133 460 59 355 L73 309 L341 309 Z" /><glyph glyph-name="" unicode="³" d="M374 455 Q374 497 348 530 Q322 564 269 576 L269 580 L389 693 L382 748 L156 748 L147 685 L289 685 L292 681 L179 575 L195 528 Q237 529 264 513 Q290 498 291 461 Q290 416 265 398 Q241 379 210 380 Q189 380 163 389 Q137 397 119 411 L79 351 Q109 329 143 319 Q177 309 204 309 Q281 310 327 348 Q373 386 374 455 L374 455 Z" /><glyph glyph-name="" unicode="¹" d="M224 645 L178 309 L262 309 L325 748 L265 748 L127 669 L144 614 L224 645 Z" /><glyph glyph-name="" unicode="¼" d="M175 -6 L725 748 L653 754 L107 0 L175 -6 ZM688 298 L664 161 L556 161 L554 164 Q603 235 637 302 Q671 369 691 437 L609 448 Q589 376 550 301 Q512 226 440 127 L454 93 L655 93 L643 0 L725 0 L738 93 L778 93 L790 161 L748 161 L769 303 L688 298 ZM197 645 L151 309 L235 309 L298 748 L238 748 L100 669 L117 614 L197 645 Z" /><glyph glyph-name="" unicode="½" d="M175 -6 L725 748 L653 754 L107 0 L175 -6 ZM197 645 L150 309 L235 309 L298 748 L237 748 L99 669 L117 614 L197 645 ZM777 0 L787 69 L602 69 L602 73 Q654 129 737 177 Q819 226 828 323 Q828 371 793 404 Q759 438 694 439 Q656 441 617 424 Q578 407 539 349 L601 316 Q624 346 644 357 Q663 369 682 368 Q716 368 731 353 Q747 337 747 313 Q740 241 654 196 Q569 151 495 46 L509 0 L777 0 Z" /><glyph glyph-name="" unicode="¾" d="M212 -6 L762 748 L690 754 L144 0 L212 -6 ZM715 298 L690 161 L582 161 L581 165 Q629 235 663 302 Q697 369 718 437 L636 448 Q615 376 577 301 Q538 226 466 127 L481 93 L681 93 L669 0 L751 0 L764 93 L805 93 L816 161 L774 161 L795 303 L715 298 ZM354 455 Q354 497 328 530 Q302 564 249 576 L250 580 L370 693 L362 748 L137 748 L127 685 L270 685 L272 681 L159 575 L175 528 Q220 528 246 512 Q271 495 271 461 Q270 416 245 398 Q221 379 190 380 Q169 380 143 389 Q117 397 99 411 L59 351 Q90 329 123 319 Q157 309 184 309 Q261 310 307 348 Q353 386 354 455 L354 455 Z" /><glyph glyph-name="" unicode="ð" d="M311 0 Q510 6 617 134 Q725 263 726 447 Q726 577 657 661 Q588 745 447 748 L205 748 L148 422 L76 422 L60 329 L132 329 L75 0 L311 0 ZM203 95 L244 329 L407 329 L423 422 L260 422 L299 653 L425 653 Q521 651 567 591 Q613 531 613 433 Q612 290 534 194 Q456 99 319 95 L203 95 Z" /><glyph glyph-name="" unicode="×" d="M121 99 L319 276 L454 99 L523 160 L388 338 L585 515 L537 577 L340 399 L204 577 L136 515 L272 338 L74 160 L121 99 Z" /><glyph glyph-name="" unicode="ý" d="M94 748 L264 285 L215 0 L326 0 L375 285 Q470 397 540 499 Q611 600 702 748 L578 754 Q514 638 452 544 Q389 451 339 384 L335 384 L220 754 L94 748 ZM348 795 L436 795 L585 949 L463 949 L348 795 Z" /><glyph glyph-name="" unicode="þ" d="M93 0 L204 0 L222 103 L350 103 Q471 106 564 192 Q658 278 663 418 Q661 522 600 583 Q539 645 445 646 L317 646 L335 748 L223 748 L93 0 ZM239 201 L300 548 L416 548 Q475 547 512 509 Q549 470 550 404 Q547 313 488 258 Q430 203 353 201 L239 201 Z" /><glyph glyph-name="" unicode="ð" d="M619 717 L580 763 L465 707 Q427 743 390 763 Q352 784 307 795 L259 720 Q292 710 319 694 Q347 678 367 660 L263 609 L297 560 L411 616 Q442 575 458 530 Q474 484 477 444 L473 443 Q454 475 419 492 Q383 510 338 510 Q218 509 142 430 Q65 351 62 209 Q63 108 116 52 Q168 -5 260 -6 Q403 -6 488 103 Q573 211 575 424 Q575 499 556 559 Q538 619 507 661 L619 717 ZM347 422 Q385 421 414 398 Q443 375 458 341 Q455 238 407 163 Q360 88 281 84 Q229 84 199 118 Q170 152 169 218 Q171 311 221 366 Q271 421 347 422 L347 422 Z" /><glyph glyph-name="" unicode="ý" d="M551 421 Q550 479 525 503 Q499 528 459 527 Q448 527 434 524 Q420 521 409 516 L394 435 Q415 436 429 428 Q442 420 443 395 Q440 347 396 254 Q351 161 301 96 L198 525 L85 519 L220 0 Q162 -67 113 -97 Q63 -127 9 -127 L15 -202 Q25 -208 37 -211 Q50 -214 59 -214 Q200 -193 368 27 Q536 247 551 421 L551 421 ZM262 585 L350 585 L499 739 L377 739 L262 585 Z" /><glyph glyph-name="" unicode="þ" d="M476 306 Q475 210 435 151 Q394 91 321 89 Q287 89 262 102 Q237 115 216 141 L255 375 Q286 401 317 416 Q348 430 382 430 Q429 429 453 397 Q476 364 476 306 L476 306 ZM223 789 L48 -214 L154 -208 L198 42 L202 44 Q226 20 255 7 Q283 -6 313 -6 Q437 -4 509 85 Q581 174 583 323 Q583 418 537 471 Q492 524 406 525 Q372 525 340 512 Q308 498 277 475 L274 476 L329 795 L223 789 Z" /><glyph glyph-name="" unicode="&#x141;" d="M228 95 L266 310 L520 515 L478 562 L283 406 L342 748 L230 748 L153 303 L32 205 L70 153 L136 207 L100 0 L550 0 L567 95 L228 95 Z" /><glyph glyph-name="" unicode="&#x142;" d="M373 481 L331 529 L250 464 L308 795 L202 791 L127 365 L10 271 L47 219 L110 271 L94 177 Q88 143 88 115 Q89 51 116 22 Q144 -6 192 -6 Q206 -6 220 -3 Q234 0 246 5 L261 85 Q228 84 212 95 Q196 105 196 134 Q196 143 197 155 Q199 167 201 179 L234 369 L373 481 Z" /><glyph glyph-name="" unicode="&#x160;" d="M49 121 Q104 51 165 22 Q226 -7 296 -6 Q418 -5 490 53 Q561 111 563 216 Q543 366 402 413 Q261 459 241 552 Q243 609 284 635 Q326 660 384 660 Q414 660 443 652 Q472 644 499 630 L489 531 L564 531 L607 683 Q564 715 510 734 Q456 754 391 754 Q275 753 205 697 Q135 642 133 543 Q153 399 291 355 Q428 312 448 204 Q446 148 406 118 Q365 88 303 88 Q248 89 204 116 Q160 144 123 191 L49 121 ZM582 949 L507 949 L418 861 L359 949 L284 949 L355 795 L457 795 L582 949 Z" /><glyph glyph-name="" unicode="&#x161;" d="M329 147 Q329 113 304 96 Q280 78 236 78 Q207 77 169 92 Q131 106 90 141 L35 68 Q91 21 141 6 Q191 -9 233 -8 Q321 -8 379 31 Q437 71 439 157 Q424 265 319 296 Q214 327 199 380 Q200 412 228 427 Q256 442 295 442 Q317 442 332 439 Q347 435 366 426 L363 366 L443 366 L466 483 Q426 504 383 516 Q340 527 291 527 Q191 525 142 481 Q92 437 92 370 Q107 265 211 232 Q314 200 329 147 L329 147 ZM494 739 L419 739 L330 651 L271 739 L196 739 L267 585 L369 585 L494 739 Z" /><glyph glyph-name="" unicode="&#x17d;" d="M7 48 L53 -11 Q77 9 99 17 Q122 24 148 24 Q196 21 257 3 Q319 -16 387 -19 Q432 -19 479 -8 Q526 3 562 24 L533 111 Q494 92 460 85 Q427 79 405 79 Q356 81 304 95 Q252 109 190 111 L188 115 L652 694 L640 748 L156 748 L140 656 L494 656 L7 48 ZM571 949 L496 949 L407 861 L348 949 L273 949 L344 795 L446 795 L571 949 Z" /><glyph glyph-name="" unicode="&#x17e;" d="M111 430 L371 430 L373 426 L26 56 L73 -11 Q94 8 115 16 Q136 24 160 24 Q197 21 250 3 Q304 -15 367 -18 Q404 -18 436 -7 Q468 3 496 24 L465 107 Q436 88 414 82 Q392 76 369 77 Q330 79 291 92 Q252 105 210 107 L208 111 L522 448 L507 519 L127 519 L111 430 ZM515 739 L440 739 L351 651 L292 739 L217 739 L288 585 L390 585 L515 739 Z" /><glyph glyph-name="" unicode="&#x2212;" d="M93 294 L589 294 L605 381 L109 381 L93 294 Z" /><glyph glyph-name="" unicode="&#x106;" d="M400 795 L489 795 L637 949 L516 949 L400 795 ZM362 88 Q260 90 216 151 Q172 212 173 314 Q174 449 247 552 Q321 655 453 660 Q493 660 526 649 Q558 639 586 623 L579 501 L654 501 L698 679 Q648 714 593 734 Q537 754 467 754 Q270 748 165 616 Q61 485 60 301 Q59 169 130 83 Q200 -3 349 -6 Q420 -7 493 26 Q566 58 620 135 L546 194 Q512 147 466 118 Q419 89 362 88 L362 88 Z" /><glyph glyph-name="" unicode="&#x10c;" d="M646 949 L571 949 L482 861 L423 949 L348 949 L419 795 L521 795 L646 949 ZM362 88 Q260 90 216 151 Q172 212 173 314 Q174 449 247 552 Q321 655 453 660 Q493 660 526 649 Q558 639 586 623 L579 501 L654 501 L698 679 Q648 714 593 734 Q537 754 467 754 Q270 748 165 616 Q61 485 60 301 Q59 169 130 83 Q200 -3 349 -6 Q420 -7 493 26 Q566 58 620 135 L546 194 Q512 147 466 118 Q419 89 362 88 L362 88 Z" /><glyph glyph-name="" unicode="&#x110;" d="M311 0 Q510 6 617 134 Q725 263 726 447 Q726 577 657 661 Q588 745 447 748 L205 748 L148 422 L76 422 L60 329 L132 329 L75 0 L311 0 ZM203 95 L244 329 L407 329 L423 422 L260 422 L299 653 L425 653 Q521 651 567 591 Q613 531 613 433 Q612 290 534 194 Q456 99 319 95 L203 95 Z" /><glyph glyph-name="" unicode="&#x107;" d="M306 585 L395 585 L543 739 L421 739 L306 585 ZM355 525 Q224 523 143 444 Q61 364 59 226 Q60 115 120 55 Q180 -5 285 -6 Q334 -6 382 9 Q429 24 478 60 L435 137 Q397 110 363 100 Q328 89 296 89 Q237 89 203 124 Q168 159 167 230 Q169 321 217 374 Q265 428 341 429 Q362 429 379 426 Q397 423 414 415 L408 315 L490 315 L522 474 Q489 497 450 511 Q412 525 355 525 L355 525 Z" /><glyph glyph-name="" unicode="&#x10d;" d="M545 739 L470 739 L380 651 L321 739 L247 739 L317 585 L420 585 L545 739 ZM355 525 Q224 523 143 444 Q61 364 59 226 Q60 115 120 55 Q180 -5 285 -6 Q334 -6 382 9 Q429 24 478 60 L435 137 Q397 110 363 100 Q328 89 296 89 Q237 89 203 124 Q168 159 167 230 Q169 321 217 374 Q265 428 341 429 Q362 429 379 426 Q397 423 414 415 L408 315 L490 315 L522 474 Q489 497 450 511 Q412 525 355 525 L355 525 Z" /><glyph glyph-name="" unicode="&#x111;" d="M501 617 L478 486 Q451 506 416 515 Q382 525 344 525 Q223 523 146 437 Q69 351 66 203 Q67 104 115 49 Q162 -5 242 -6 Q288 -6 335 15 Q382 35 420 71 L425 71 Q434 32 459 13 Q484 -6 522 -6 Q536 -6 550 -3 Q564 0 576 5 L591 85 Q558 84 542 95 Q526 105 526 134 Q526 143 527 155 Q529 167 531 179 L607 617 L683 617 L694 683 L618 683 L638 795 L532 791 L513 683 L355 683 L345 627 L501 617 ZM173 222 Q175 318 221 374 Q268 430 335 431 Q377 431 406 421 Q436 410 461 386 L424 171 Q394 134 357 112 Q320 89 277 88 Q230 88 202 122 Q174 156 173 222 L173 222 Z" /><glyph glyph-name="" unicode="&#x403;" d="M622 653 L639 748 L193 748 L63 0 L174 0 L287 653 L622 653 ZM367 795 L456 795 L604 949 L482 949 L367 795 Z" /><glyph glyph-name="" unicode="&#x405;" d="M30 121 Q85 51 146 22 Q207 -7 277 -6 Q399 -5 471 53 Q542 111 544 216 Q524 366 383 413 Q242 459 222 552 Q224 609 265 635 Q307 660 365 660 Q395 660 424 652 Q453 644 480 630 L470 531 L545 531 L588 683 Q545 715 491 734 Q437 754 372 754 Q256 753 186 697 Q116 642 114 543 Q134 399 272 355 Q409 312 429 204 Q427 148 387 118 Q346 88 284 88 Q229 89 185 116 Q141 144 104 191 L30 121 Z" /><glyph glyph-name="" unicode="&#x408;" d="M20 167 Q36 72 90 32 Q144 -7 220 -6 Q336 -3 394 72 Q453 147 471 259 L557 748 L445 748 L358 248 Q348 183 316 137 Q284 90 218 88 Q172 88 148 114 Q123 141 116 194 L20 167 Z" /><glyph glyph-name="" unicode="&#x409;" d="M767 341 Q818 341 849 314 Q879 287 880 237 Q879 179 838 138 Q796 97 723 95 L618 95 L661 341 L767 341 ZM431 653 L604 653 L490 0 L720 0 Q837 1 914 69 Q991 136 994 254 Q993 338 937 386 Q881 434 785 435 L678 435 L732 748 L226 748 L209 680 L325 662 L223 377 Q171 229 117 157 Q64 85 0 85 L6 -6 Q15 -9 27 -10 Q38 -12 44 -12 Q137 -10 203 85 Q269 179 323 341 L431 653 Z" /><glyph glyph-name="" unicode="&#x40a;" d="M609 95 L652 341 L758 341 Q809 341 840 314 Q870 287 871 237 Q870 178 829 138 Q787 97 714 95 L609 95 ZM668 435 L722 748 L611 748 L556 435 L247 435 L301 748 L190 748 L60 0 L171 0 L231 341 L540 341 L481 0 L710 0 Q828 1 905 69 Q982 136 985 254 Q984 338 928 386 Q871 434 775 435 L668 435 Z" /><glyph glyph-name="" unicode="&#x40c;" d="M382 795 L471 795 L619 949 L497 949 L382 795 ZM320 432 L245 432 L301 748 L190 748 L60 0 L171 0 L231 343 L317 343 Q387 274 435 139 Q482 4 591 -11 Q603 -11 614 -8 Q625 -6 633 -3 L633 85 Q554 96 519 207 Q485 318 405 396 L575 615 Q599 646 618 656 Q637 666 666 665 L679 746 Q671 750 657 753 Q643 756 624 756 Q585 755 558 735 Q530 715 509 684 L320 432 Z" /><glyph glyph-name="" unicode="&#x40f;" d="M373 -155 L399 0 L639 0 L769 748 L658 748 L544 95 L188 95 L302 748 L190 748 L60 0 L297 0 L269 -159 L373 -155 Z" /><glyph glyph-name="" unicode="&#x410;" d="M486 653 L609 653 L547 296 L283 296 L486 653 ZM268 748 L251 680 L382 661 L-5 0 L113 -6 L232 205 L530 205 L495 0 L606 0 L737 748 L268 748 Z" /><glyph glyph-name="" unicode="&#x411;" d="M60 0 L350 0 Q474 2 552 76 Q630 149 632 267 Q631 354 578 405 Q525 456 429 457 L251 457 L284 653 L627 653 L644 748 L190 748 L60 0 ZM234 363 L400 363 Q458 362 488 332 Q519 302 519 250 Q518 190 475 144 Q431 98 353 95 L187 95 L234 363 Z" /><glyph glyph-name="" unicode="&#x412;" d="M247 435 L284 656 L457 656 Q509 655 534 628 Q559 602 559 558 Q556 504 517 470 Q478 436 433 435 L247 435 ZM421 341 Q469 340 500 308 Q530 276 531 231 Q533 186 493 141 Q453 95 354 92 L188 92 L231 341 L421 341 ZM670 586 Q670 656 621 701 Q573 746 478 748 L190 748 L60 0 L353 0 Q491 2 566 69 Q641 135 642 236 Q641 290 609 332 Q578 373 531 388 L532 392 Q604 424 637 477 Q670 530 670 586 L670 586 Z" /><glyph glyph-name="" unicode="&#x413;" d="M619 653 L636 748 L190 748 L60 0 L171 0 L284 653 L619 653 Z" /><glyph glyph-name="" unicode="&#x414;" d="M-40 -159 L58 -151 L85 0 L557 0 L530 -159 L628 -151 L671 95 L593 95 L707 748 L198 748 L181 680 L307 662 Q246 455 195 325 Q144 196 76 95 L4 95 L-40 -159 ZM410 653 L579 653 L481 95 L196 95 Q252 183 307 333 Q362 482 410 653 L410 653 Z" /><glyph glyph-name="" unicode="&#x415;" d="M191 748 L60 0 L549 0 L566 95 L188 95 L231 343 L558 343 L574 435 L247 435 L285 653 L653 653 L669 748 L191 748 Z" /><glyph glyph-name="" unicode="&#x416;" d="M662 432 L587 432 L643 748 L538 748 L483 432 L411 432 L312 684 Q302 715 282 735 Q263 755 224 756 Q205 756 190 753 Q174 750 165 746 L151 665 Q180 666 198 658 Q216 649 229 617 L319 398 Q222 323 157 210 Q93 97 9 85 L-5 -3 Q3 -6 17 -8 Q30 -11 47 -11 Q150 4 228 137 Q305 270 387 343 L467 343 L408 0 L513 0 L573 343 L659 343 Q726 274 772 139 Q817 4 923 -11 Q935 -11 946 -8 Q957 -6 965 -3 L965 85 Q889 96 856 207 Q824 318 747 396 L907 615 Q930 647 950 657 Q969 666 998 665 L1011 746 Q1003 750 989 753 Q975 756 956 756 Q917 755 890 735 Q862 715 841 684 L662 432 Z" /><glyph glyph-name="" unicode="&#x417;" d="M230 -6 Q379 -4 456 64 Q532 131 532 233 Q531 290 500 331 Q469 371 421 387 L422 391 Q488 416 528 470 Q569 524 570 592 Q569 661 517 706 Q465 752 368 754 Q302 754 236 735 Q169 717 120 683 L111 531 L186 531 L211 629 Q242 644 278 655 Q314 665 347 665 Q403 664 432 637 Q460 610 460 570 Q457 509 412 470 Q367 431 313 430 L231 430 L215 341 L307 341 Q357 340 388 312 Q419 283 420 234 Q421 178 378 134 Q336 90 241 87 Q195 87 149 109 Q104 131 63 179 L0 97 Q41 52 99 23 Q156 -5 230 -6 L230 -6 Z" /><glyph glyph-name="" unicode="&#x418;" d="M614 519 L618 518 L528 0 L639 0 L769 748 L716 748 L214 222 L210 223 L302 748 L190 748 L60 0 L117 0 L614 519 Z" /><glyph glyph-name="" unicode="&#x41a;" d="M320 432 L245 432 L301 748 L190 748 L60 0 L171 0 L231 343 L317 343 Q387 274 435 139 Q482 4 591 -11 Q603 -11 614 -8 Q625 -6 633 -3 L633 85 Q554 96 519 207 Q485 318 405 396 L575 615 Q599 646 618 656 Q637 666 666 665 L679 746 Q671 750 657 753 Q643 756 624 756 Q585 755 558 735 Q530 715 509 684 L320 432 Z" /><glyph glyph-name="" unicode="&#x41b;" d="M44 -12 Q137 -10 203 85 Q269 179 323 341 L431 653 L605 653 L491 0 L602 0 L733 748 L226 748 L209 680 L325 662 L223 377 Q171 229 117 157 Q64 85 0 85 L6 -6 Q15 -9 27 -10 Q38 -12 44 -12 L44 -12 Z" /><glyph glyph-name="" unicode="&#x41c;" d="M449 195 L707 501 L711 500 L624 -1 L735 -1 L865 748 L797 748 L452 328 L258 748 L190 748 L60 -1 L171 -1 L258 504 L262 505 L409 195 L449 195 Z" /><glyph glyph-name="" unicode="&#x41d;" d="M171 0 L231 341 L587 341 L528 0 L639 0 L769 748 L658 748 L603 435 L247 435 L302 748 L190 748 L60 0 L171 0 Z" /><glyph glyph-name="" unicode="&#x41e;" d="M475 754 Q280 749 171 619 Q62 489 60 300 Q60 166 131 81 Q201 -3 343 -6 Q538 -1 647 129 Q756 259 758 448 Q758 582 687 667 Q617 751 475 754 L475 754 ZM464 658 Q559 656 602 592 Q645 527 644 429 Q642 296 565 195 Q487 94 354 89 Q259 91 216 156 Q172 221 173 319 Q175 452 253 552 Q332 653 464 658 L464 658 Z" /><glyph glyph-name="" unicode="&#x41f;" d="M171 0 L285 653 L641 653 L528 0 L639 0 L769 748 L190 748 L60 0 L171 0 Z" /><glyph glyph-name="" unicode="&#x420;" d="M190 748 L60 0 L171 0 L214 246 L371 246 Q490 249 577 331 Q665 412 669 534 Q667 627 610 686 Q553 746 459 748 L190 748 ZM438 656 Q493 655 524 616 Q555 578 556 520 Q553 443 501 391 Q449 339 378 337 L230 337 L285 656 L438 656 Z" /><glyph glyph-name="" unicode="&#x421;" d="M362 88 Q260 90 216 151 Q172 212 173 314 Q174 449 247 552 Q321 655 453 660 Q493 660 526 649 Q558 639 586 623 L579 501 L654 501 L698 679 Q648 714 593 734 Q537 754 467 754 Q270 748 165 616 Q61 485 60 301 Q59 169 130 83 Q200 -3 349 -6 Q420 -7 493 26 Q566 58 620 135 L546 194 Q512 147 466 118 Q419 89 362 88 L362 88 Z" /><glyph glyph-name="" unicode="&#x422;" d="M654 748 L97 748 L80 653 L302 653 L189 0 L300 0 L414 653 L637 653 L654 748 Z" /><glyph glyph-name="" unicode="&#x423;" d="M71 -5 Q80 -8 92 -10 Q103 -12 109 -12 Q213 -14 371 168 Q529 351 720 748 L608 754 Q541 613 478 502 Q415 391 345 296 L197 754 L81 748 L265 204 Q213 147 161 116 Q109 85 65 85 L71 -5 Z" /><glyph glyph-name="" unicode="&#x424;" d="M461 0 L475 83 L555 83 Q687 87 784 182 Q881 278 886 421 Q884 528 822 598 Q759 667 657 669 L577 669 L591 748 L484 748 L470 669 L390 669 Q258 665 161 569 Q65 474 60 331 Q62 223 123 154 Q185 85 288 83 L368 83 L353 0 L461 0 ZM634 571 Q701 569 739 524 Q777 478 778 407 Q775 312 712 248 Q650 184 562 181 L492 181 L561 571 L634 571 ZM312 181 Q245 183 207 229 Q168 274 167 345 Q170 439 233 504 Q295 568 383 571 L453 571 L384 181 L312 181 Z" /><glyph glyph-name="" unicode="&#x425;" d="M577 754 Q538 684 487 612 Q436 540 379 475 L264 754 L139 748 L301 395 Q195 285 113 186 Q31 87 -21 0 L108 -6 Q146 55 206 134 Q266 213 348 304 L480 -6 L606 0 L428 381 Q517 479 584 569 Q650 659 700 748 L577 754 Z" /><glyph glyph-name="" unicode="&#x426;" d="M638 -151 L681 95 L603 95 L717 748 L605 748 L491 95 L187 95 L301 748 L190 748 L60 0 L568 0 L540 -159 L638 -151 Z" /><glyph glyph-name="" unicode="&#x427;" d="M485 363 Q444 352 410 347 Q376 342 337 342 Q275 340 243 362 Q211 384 211 453 Q211 465 212 474 Q214 484 216 497 L260 748 L148 748 L104 497 Q102 482 101 467 Q100 451 100 437 Q101 353 157 300 Q214 247 310 245 Q354 245 392 250 Q429 255 467 265 L421 0 L533 0 L663 748 L551 748 L485 363 Z" /><glyph glyph-name="" unicode="&#x428;" d="M60 0 L871 0 L1002 748 L890 748 L776 95 L536 95 L650 748 L542 748 L428 95 L187 95 L301 748 L190 748 L60 0 Z" /><glyph glyph-name="" unicode="&#x430;" d="M516 -6 Q530 -6 544 -3 Q558 0 571 5 L585 85 Q552 84 536 95 Q520 105 520 134 Q520 143 521 155 Q523 167 525 179 L577 481 L481 481 Q452 503 415 514 Q378 525 338 525 Q217 523 140 437 Q63 351 60 203 Q61 104 109 49 Q156 -5 236 -6 Q282 -6 329 15 Q376 35 414 71 L419 71 Q428 32 453 13 Q478 -6 516 -6 L516 -6 ZM167 222 Q169 318 215 373 Q262 428 329 429 Q371 429 400 419 Q430 408 455 385 L418 173 Q388 136 351 113 Q314 90 271 89 Q224 89 196 123 Q168 156 167 222 L167 222 Z" /><glyph glyph-name="" unicode="&#x431;" d="M398 664 Q450 679 489 687 Q528 695 585 712 L578 796 Q512 778 471 769 Q429 760 391 750 Q228 702 147 558 Q65 414 65 227 Q66 113 122 54 Q177 -6 273 -6 Q400 -4 483 80 Q565 164 568 311 Q567 410 515 465 Q463 519 369 520 Q337 519 289 504 Q242 489 211 465 L207 467 Q233 544 283 594 Q333 644 398 664 L398 664 ZM349 429 Q405 428 435 393 Q464 358 464 294 Q462 198 413 141 Q364 85 289 84 Q233 84 201 121 Q169 157 168 224 Q168 261 172 292 Q176 324 185 360 Q220 387 264 408 Q307 428 349 429 L349 429 Z" /><glyph glyph-name="" unicode="&#x432;" d="M536 404 Q537 454 493 490 Q449 526 350 528 Q228 526 145 440 Q63 355 60 208 Q61 106 120 49 Q179 -8 277 -9 Q380 -8 449 39 Q517 87 520 174 Q519 211 500 237 Q481 263 450 277 L451 281 Q491 301 513 333 Q536 365 536 404 L536 404 ZM419 175 Q417 131 379 108 Q341 84 287 84 Q246 83 208 110 Q170 137 167 211 Q196 211 251 217 Q306 224 365 237 Q385 232 401 216 Q418 200 419 175 L419 175 ZM342 440 Q381 440 403 423 Q425 407 425 381 Q414 314 320 295 Q225 276 175 278 Q190 356 238 398 Q286 440 342 440 L342 440 Z" /><glyph glyph-name="" unicode="&#x433;" d="M313 400 Q297 354 182 303 Q66 252 50 123 Q52 62 97 28 Q142 -6 205 -6 Q275 -6 321 8 Q367 21 407 45 L375 132 Q344 115 308 102 Q271 90 227 89 Q197 90 181 105 Q164 119 164 141 Q180 219 295 267 Q409 314 425 419 Q424 472 384 499 Q344 527 280 527 Q243 527 202 514 Q161 501 131 481 L161 406 Q185 422 208 431 Q231 441 255 441 Q283 441 298 431 Q313 422 313 400 L313 400 ZM468 632 L481 702 L202 702 L190 632 L468 632 Z" /><glyph glyph-name="" unicode="&#x434;" d="M167 222 Q169 318 215 373 Q262 428 329 429 Q368 429 396 417 Q424 406 445 384 L408 173 Q380 136 345 113 Q309 90 269 89 Q221 89 194 124 Q167 158 167 222 L167 222 ZM382 18 Q364 -68 314 -95 Q264 -121 221 -119 Q188 -119 157 -110 Q126 -102 97 -86 L65 -172 Q96 -191 134 -202 Q171 -214 216 -214 Q310 -216 386 -160 Q463 -105 490 32 L567 481 L471 481 Q444 503 410 514 Q375 525 338 525 Q217 523 140 437 Q63 351 60 203 Q61 104 109 49 Q156 -5 236 -6 Q275 -6 313 11 Q352 28 384 56 L388 56 L382 18 Z" /><glyph glyph-name="" unicode="&#x435;" d="M534 384 Q534 445 489 485 Q443 525 350 527 Q227 525 145 440 Q62 355 59 216 Q60 110 117 53 Q174 -5 274 -6 Q346 -6 393 7 Q441 20 485 45 L453 131 Q416 113 377 101 Q338 89 286 89 Q237 87 204 112 Q171 137 170 209 Q297 207 412 241 Q526 275 534 384 L534 384 ZM341 437 Q380 436 402 419 Q424 401 424 373 Q424 326 361 302 Q299 278 175 276 Q187 356 234 396 Q281 437 341 437 L341 437 Z" /><glyph glyph-name="" unicode="&#x436;" d="M240 296 Q171 226 136 157 Q100 87 21 82 L18 3 Q28 -1 42 -3 Q56 -6 71 -6 Q162 1 207 86 Q252 170 316 243 L384 243 L341 0 L446 0 L489 243 L555 243 Q598 166 625 84 Q653 1 742 -6 Q754 -6 769 -3 Q783 0 794 5 L802 85 Q723 89 706 151 Q688 213 642 282 L745 413 Q759 432 777 440 Q794 448 825 448 L828 519 Q817 524 803 527 Q788 530 776 530 Q736 529 711 512 Q685 494 666 466 L556 312 L500 312 L537 519 L432 519 L395 312 L334 312 L280 457 Q268 492 243 511 Q217 530 175 530 Q163 530 148 527 Q132 524 120 519 L116 451 Q147 452 166 444 Q185 435 195 409 L240 296 Z" /><glyph glyph-name="" unicode="&#x437;" d="M282 448 Q326 448 349 430 Q372 412 372 382 Q371 350 344 328 Q317 306 270 305 L204 305 L192 236 L256 236 Q304 235 327 215 Q349 195 349 166 Q347 123 312 101 Q276 79 226 79 Q185 79 150 89 Q115 99 80 118 L35 43 Q69 21 118 7 Q166 -8 221 -9 Q330 -8 393 38 Q456 84 457 169 Q457 207 439 235 Q421 263 390 277 L391 281 Q433 301 455 333 Q478 366 478 410 Q478 459 433 492 Q388 526 304 527 Q252 527 199 516 Q146 504 102 484 L102 366 L172 366 L190 425 Q209 434 233 441 Q256 448 282 448 L282 448 Z" /><glyph glyph-name="" unicode="&#x438;" d="M233 519 L127 519 L77 228 Q73 208 72 189 Q70 171 70 155 Q73 60 123 26 Q173 -8 228 -6 Q274 -6 321 15 Q368 35 407 71 L411 71 Q420 32 445 13 Q470 -6 508 -6 Q522 -6 536 -3 Q551 0 563 5 L577 85 Q545 84 529 95 Q513 105 513 134 Q513 143 514 155 Q515 167 517 179 L576 519 L471 519 L410 172 Q381 137 343 113 Q306 89 263 88 Q233 86 207 103 Q180 121 178 183 Q178 192 179 202 Q180 212 182 223 L233 519 Z" /><glyph glyph-name="" unicode="&#x43a;" d="M494 413 Q508 432 527 440 Q545 448 576 448 L576 519 Q565 524 551 527 Q537 530 525 530 Q485 529 460 512 Q434 494 415 466 L305 312 L235 312 L271 519 L165 519 L75 0 L180 0 L223 243 L304 243 Q347 166 374 84 Q402 1 491 -6 Q503 -6 518 -3 Q532 0 543 5 L551 85 Q472 89 455 151 Q437 213 391 282 L494 413 Z" /><glyph glyph-name="" unicode="&#x43b;" d="M326 430 L455 430 L379 0 L486 0 L577 519 L163 519 L152 461 L230 444 L153 224 Q129 152 98 117 Q66 83 10 83 L14 3 Q27 -3 42 -6 Q57 -9 66 -9 Q134 -6 179 55 Q223 116 249 200 L326 430 Z" /><glyph glyph-name="" unicode="&#x43c;" d="M744 525 L628 519 L416 218 L411 218 L350 525 L163 519 L153 461 L232 446 L132 183 Q110 125 83 105 Q55 85 10 86 L14 3 Q27 -3 43 -5 Q59 -7 69 -7 Q127 -4 165 42 Q203 89 223 148 L297 360 L302 360 L364 45 L388 45 L606 358 L610 358 L576 153 Q573 135 572 123 Q571 111 571 98 Q572 42 600 18 Q628 -7 671 -6 Q685 -6 701 -3 Q717 0 729 5 L744 85 Q710 84 695 95 Q679 105 679 134 Q679 143 680 155 Q682 167 684 179 L744 525 Z" /><glyph glyph-name="" unicode="&#x43d;" d="M272 519 L165 519 L75 0 L180 0 L224 248 L459 248 L447 177 Q441 143 441 115 Q442 51 469 22 Q497 -6 545 -6 Q558 -6 572 -3 Q587 0 599 5 L614 85 Q581 84 565 95 Q549 105 549 134 Q549 143 550 155 Q551 167 553 179 L612 519 L506 519 L472 322 L236 322 L272 519 Z" /><glyph glyph-name="" unicode="&#x43e;" d="M364 525 Q235 524 154 443 Q73 363 70 219 Q71 116 128 56 Q186 -5 285 -6 Q412 -4 494 78 Q575 159 578 302 Q577 405 520 465 Q463 524 364 525 L364 525 ZM352 435 Q411 434 441 396 Q472 357 472 290 Q470 197 421 141 Q372 85 297 84 Q241 84 209 121 Q178 157 177 227 Q179 321 228 377 Q277 434 352 435 L352 435 Z" /><glyph glyph-name="" unicode="&#x43f;" d="M560 632 L573 702 L183 702 L171 632 L560 632 ZM233 519 L127 519 L77 228 Q73 208 72 189 Q70 171 70 155 Q73 60 123 26 Q173 -8 228 -6 Q274 -6 321 15 Q368 35 407 71 L411 71 Q420 32 445 13 Q470 -6 508 -6 Q522 -6 536 -3 Q551 0 563 5 L577 85 Q545 84 529 95 Q513 105 513 134 Q513 143 514 155 Q515 167 517 179 L576 519 L471 519 L410 172 Q381 137 343 113 Q306 89 263 88 Q233 86 207 103 Q180 121 178 183 Q178 192 179 202 Q180 212 182 223 L233 519 Z" /><glyph glyph-name="" unicode="&#x440;" d="M167 519 L39 -214 L146 -208 L191 50 L195 51 Q219 24 251 9 Q282 -6 318 -6 Q441 -4 520 81 Q598 167 601 315 Q600 414 551 469 Q502 524 417 525 Q383 525 343 507 Q303 488 259 450 L255 450 L266 519 L167 519 ZM381 431 Q433 430 463 395 Q493 359 494 296 Q492 200 444 145 Q396 89 326 88 Q289 88 260 107 Q230 125 210 155 L243 350 Q275 389 311 410 Q348 431 381 431 L381 431 Z" /><glyph glyph-name="" unicode="&#x441;" d="M355 525 Q224 523 143 444 Q61 364 59 226 Q60 115 120 55 Q180 -5 285 -6 Q334 -6 382 9 Q429 24 478 60 L435 137 Q397 110 363 100 Q328 89 296 89 Q237 89 203 124 Q168 159 167 230 Q169 321 217 374 Q265 428 341 429 Q362 429 379 426 Q397 423 414 415 L408 315 L490 315 L522 474 Q489 497 450 511 Q412 525 355 525 L355 525 Z" /><glyph glyph-name="" unicode="&#x442;" d="M854 632 L867 702 L183 702 L170 632 L854 632 ZM234 519 L127 519 L77 228 Q73 208 72 189 Q70 171 70 155 Q73 60 123 26 Q173 -8 228 -6 Q268 -6 314 15 Q359 37 402 84 L406 84 Q427 32 468 12 Q508 -7 551 -6 Q591 -6 633 15 Q674 35 709 71 L713 71 Q722 32 747 13 Q771 -6 811 -6 Q825 -6 839 -3 Q854 0 866 5 L880 85 Q847 84 832 95 Q816 105 816 134 Q816 143 817 155 Q818 167 820 179 L879 519 L773 519 L713 172 Q686 137 653 113 Q619 90 581 89 Q553 87 527 104 Q502 121 500 183 Q500 192 501 202 Q502 212 504 223 L556 519 L451 519 L401 235 Q395 197 395 173 Q367 134 330 112 Q294 89 256 89 Q229 87 205 104 Q180 121 178 183 Q178 192 179 202 Q180 212 182 223 L234 519 Z" /><glyph glyph-name="" unicode="&#x443;" d="M527 421 Q526 479 501 503 Q475 528 435 527 Q424 527 410 524 Q396 521 385 516 L370 435 Q391 436 405 428 Q418 420 419 395 Q416 347 372 254 Q327 161 277 96 L174 525 L61 519 L196 0 Q138 -67 89 -97 Q39 -127 -15 -127 L-9 -202 Q1 -208 13 -211 Q26 -214 35 -214 Q176 -193 344 27 Q512 247 527 421 L527 421 Z" /><glyph glyph-name="" unicode="&#x444;" d="M599 795 L493 791 L438 475 L434 475 Q410 498 384 512 Q357 525 324 525 Q204 523 133 434 Q62 345 60 196 Q61 101 105 47 Q149 -6 231 -7 Q261 -7 294 7 Q327 20 359 44 L363 44 L318 -214 L425 -208 L469 44 L473 44 Q497 20 525 7 Q553 -7 583 -7 Q703 -5 774 85 Q845 174 847 322 Q846 418 802 471 Q757 524 676 525 Q643 525 611 512 Q579 498 547 475 L543 475 L599 795 ZM170 213 Q171 309 212 369 Q253 428 320 430 Q354 430 377 414 Q400 399 420 373 L381 145 Q351 119 319 104 Q287 89 253 89 Q211 90 191 122 Q170 155 170 213 L170 213 ZM737 305 Q736 209 695 150 Q654 91 587 89 Q553 89 530 104 Q507 119 487 145 L526 373 Q556 399 588 414 Q619 430 653 430 Q695 429 716 396 Q737 363 737 305 L737 305 Z" /><glyph glyph-name="" unicode="&#x445;" d="M371 -6 L491 0 L353 266 Q412 320 461 378 Q511 435 554 519 L439 525 Q403 459 370 417 Q337 375 301 340 L219 525 L104 519 L226 277 Q171 230 114 160 Q56 91 10 0 L121 -6 Q158 62 196 111 Q234 160 276 200 L371 -6 Z" /><glyph glyph-name="" unicode="&#x446;" d="M434 -185 L530 -179 L607 85 Q561 84 538 96 Q515 108 515 146 Q515 164 519 187 L576 519 L471 519 L410 172 Q381 137 343 113 Q306 89 263 88 Q233 86 207 103 Q180 121 178 183 Q178 192 179 202 Q180 212 182 223 L233 519 L126 519 L77 228 Q73 208 72 189 Q70 171 70 155 Q73 60 123 26 Q173 -8 228 -6 Q273 -6 321 14 Q368 34 413 74 L417 74 Q426 42 445 24 Q464 6 490 2 L434 -185 Z" /><glyph glyph-name="" unicode="&#x447;" d="M75 377 Q70 346 70 319 Q72 235 115 200 Q158 164 221 165 Q255 165 287 174 Q318 182 353 198 L319 0 L425 0 L516 519 L410 519 L368 281 Q337 268 310 262 Q284 256 260 256 Q220 255 196 272 Q172 289 171 332 Q171 340 172 350 Q173 361 175 370 L202 519 L100 519 L75 377 Z" /><glyph glyph-name="" unicode="&#x448;" d="M234 519 L127 519 L77 228 Q73 208 72 189 Q70 171 70 155 Q73 60 123 26 Q173 -8 228 -6 Q268 -6 314 15 Q359 37 402 84 L406 84 Q427 32 468 12 Q508 -7 551 -6 Q591 -6 633 15 Q674 35 709 71 L713 71 Q722 32 747 13 Q771 -6 811 -6 Q825 -6 839 -3 Q854 0 866 5 L880 85 Q847 84 832 95 Q816 105 816 134 Q816 143 817 155 Q818 167 820 179 L879 519 L773 519 L713 172 Q686 137 653 113 Q619 90 581 89 Q553 87 527 104 Q502 121 500 183 Q500 192 501 202 Q502 212 504 223 L556 519 L451 519 L401 235 Q395 197 395 173 Q367 134 330 112 Q294 89 256 89 Q229 87 205 104 Q180 121 178 183 Q178 192 179 202 Q180 212 182 223 L234 519 Z" /><glyph glyph-name="" unicode="&#x453;" d="M323 400 Q307 354 192 303 Q76 252 60 123 Q62 62 107 28 Q152 -6 216 -6 Q286 -6 331 8 Q377 21 417 45 L386 132 Q355 115 318 102 Q281 90 237 89 Q208 90 192 105 Q175 119 175 141 Q191 219 305 267 Q419 314 435 419 Q434 472 394 499 Q354 527 291 527 Q253 527 212 514 Q172 501 142 481 L172 406 Q196 422 219 431 Q241 441 265 441 Q293 441 308 431 Q323 422 323 400 L323 400 ZM237 585 L326 585 L474 739 L353 739 L237 585 Z" /><glyph glyph-name="" unicode="&#x455;" d="M330 147 Q330 113 305 96 Q281 78 237 78 Q208 77 170 92 Q132 106 91 141 L36 68 Q92 21 142 6 Q192 -9 234 -8 Q322 -8 380 31 Q438 71 440 157 Q425 265 320 296 Q215 327 200 380 Q201 412 229 427 Q257 442 296 442 Q318 442 333 439 Q348 435 367 426 L364 366 L444 366 L467 483 Q427 504 384 516 Q341 527 292 527 Q192 525 143 481 Q93 437 93 370 Q108 265 212 232 Q315 200 330 147 L330 147 Z" /><glyph glyph-name="" unicode="&#x458;" d="M90 -18 Q77 -83 39 -104 Q0 -125 -46 -123 L-41 -205 Q-29 -209 -15 -212 Q-2 -214 9 -214 Q66 -215 120 -170 Q174 -126 195 -22 L289 519 L182 519 L90 -18 ZM188 677 Q189 650 205 632 Q222 615 248 614 Q284 615 309 639 Q333 663 334 698 Q333 725 317 743 Q300 760 274 761 Q238 760 213 736 Q189 712 188 677 L188 677 Z" /><glyph glyph-name="" unicode="&#x459;" d="M450 430 L407 178 Q401 144 400 115 Q399 54 430 24 Q461 -6 529 -6 Q654 -4 716 51 Q778 106 778 188 Q777 249 741 285 Q704 321 640 322 L537 322 L572 519 L158 519 L148 461 L225 444 L148 224 Q124 152 93 117 Q62 83 5 83 L10 3 Q22 -3 38 -6 Q53 -9 62 -9 Q130 -6 174 55 Q217 117 245 200 L327 430 L450 430 ZM607 248 Q641 247 658 227 Q675 207 675 174 Q674 127 643 102 Q611 77 565 77 Q535 76 521 87 Q506 97 506 125 Q506 132 507 143 Q508 154 510 163 L526 248 L607 248 Z" /><glyph glyph-name="" unicode="&#x45a;" d="M549 322 L584 519 L478 519 L443 322 L236 322 L272 519 L165 519 L75 0 L180 0 L224 248 L430 248 L418 177 Q412 143 412 115 Q412 54 442 24 Q473 -6 541 -6 Q666 -4 728 51 Q790 106 790 188 Q789 249 753 285 Q716 321 653 322 L549 322 ZM577 77 Q548 76 533 87 Q518 97 518 125 Q518 131 519 140 Q520 148 521 157 L538 248 L619 248 Q653 247 670 227 Q687 207 687 174 Q686 127 655 102 Q623 77 577 77 L577 77 Z" /><glyph glyph-name="" unicode="&#x45c;" d="M325 585 L414 585 L562 739 L440 739 L325 585 ZM499 413 Q513 432 532 440 Q550 448 581 448 L578 519 Q567 524 555 527 Q542 530 530 530 Q490 529 465 512 Q439 494 420 466 L310 312 L240 312 L276 519 L170 519 L80 0 L185 0 L228 243 L309 243 Q352 166 379 84 Q407 1 496 -6 Q508 -6 523 -3 Q537 0 548 5 L556 85 Q477 89 460 151 Q442 213 396 282 L499 413 Z" /><glyph glyph-name="" unicode="&#x45f;" d="M200 -214 L303 -209 L326 -44 L237 -63 L200 -214 ZM233 519 L127 519 L77 228 Q73 208 72 189 Q70 171 70 155 Q73 60 123 26 Q173 -8 228 -6 Q274 -6 321 15 Q368 35 407 71 L411 71 Q420 32 445 13 Q470 -6 508 -6 Q522 -6 536 -3 Q551 0 563 5 L577 85 Q545 84 529 95 Q513 105 513 134 Q513 143 514 155 Q515 167 517 179 L576 519 L471 519 L410 172 Q381 137 343 113 Q306 89 263 88 Q233 86 207 103 Q180 121 178 183 Q178 192 179 202 Q180 212 182 223 L233 519 Z" /><glyph glyph-name="" unicode="¤" d="M209 329 Q212 407 265 460 Q319 514 391 516 Q448 515 483 476 Q517 437 518 378 Q515 300 461 247 Q407 194 335 192 Q279 193 244 232 Q210 270 209 329 L209 329 ZM114 78 L192 149 Q217 128 249 116 Q281 104 319 104 Q357 104 393 116 Q429 127 462 149 L516 78 L585 139 L530 210 Q564 249 583 295 Q602 340 602 392 Q602 420 596 448 Q591 476 580 497 L660 569 L612 630 L533 558 Q508 580 476 592 Q445 605 407 605 Q368 605 332 592 Q296 580 264 558 L210 630 L141 569 L197 497 Q162 457 143 413 Q124 368 124 316 Q124 287 130 259 Q135 231 146 210 L66 139 L114 78 Z" /><glyph glyph-name="" unicode="&#x400;" d="M428 949 L306 949 L400 795 L489 795 L428 949 ZM191 748 L60 0 L549 0 L566 95 L188 95 L231 343 L558 343 L574 435 L247 435 L285 653 L653 653 L669 748 L191 748 Z" /><glyph glyph-name="" unicode="&#x40d;" d="M617 519 L621 518 L531 0 L642 0 L772 748 L719 748 L217 222 L213 223 L305 748 L193 748 L63 0 L120 0 L617 519 ZM505 950 L383 950 L477 796 L566 796 L505 950 Z" /><glyph glyph-name="" unicode="&#x450;" d="M361 739 L239 739 L333 585 L422 585 L361 739 ZM539 384 Q539 445 494 484 Q448 524 355 525 Q233 523 150 439 Q68 354 65 208 Q66 106 122 50 Q178 -5 279 -6 Q339 -6 388 7 Q438 20 482 45 L460 122 Q423 102 381 91 Q340 79 294 79 Q237 77 205 105 Q173 133 172 209 Q299 206 415 240 Q531 274 539 384 L539 384 ZM347 440 Q386 439 408 422 Q430 404 430 376 Q430 329 367 305 Q305 281 181 279 Q193 359 240 399 Q287 440 347 440 L347 440 Z" /><glyph glyph-name="" unicode="&#x45d;" d="M342 739 L220 739 L314 585 L403 585 L342 739 ZM233 519 L127 519 L77 228 Q73 208 72 189 Q70 171 70 155 Q73 60 123 26 Q173 -8 228 -6 Q274 -6 321 15 Q368 35 407 71 L411 71 Q420 32 445 13 Q470 -6 508 -6 Q522 -6 536 -3 Q551 0 563 5 L577 85 Q545 84 529 95 Q513 105 513 134 Q513 143 514 155 Q515 167 517 179 L576 519 L471 519 L410 172 Q381 137 343 113 Q306 89 263 88 Q233 86 207 103 Q180 121 178 183 Q178 192 179 202 Q180 212 182 223 L233 519 Z" /><glyph glyph-name="" unicode="" d="" /><glyph glyph-name="" unicode="é" d="M534 384 Q534 445 489 485 Q443 525 350 527 Q227 525 145 440 Q62 355 59 216 Q60 110 117 53 Q174 -5 274 -6 Q346 -6 393 7 Q441 20 485 45 L453 130 Q416 112 377 100 Q338 88 286 88 Q237 86 204 112 Q171 137 170 209 Q297 207 412 241 Q526 275 534 384 L534 384 ZM341 439 Q380 438 402 420 Q424 401 424 373 Q424 326 361 302 Q299 278 175 276 Q187 356 234 397 Q281 439 341 439 L341 439 ZM282 585 L370 585 L519 739 L397 739 L282 585 Z" /><glyph glyph-name="" unicode="è" d="M534 384 Q534 445 489 485 Q443 525 350 527 Q227 525 145 440 Q62 355 59 216 Q60 110 117 53 Q174 -5 274 -6 Q346 -6 393 7 Q441 20 485 45 L453 130 Q416 112 377 100 Q338 88 286 88 Q237 86 204 112 Q171 137 170 209 Q297 207 412 241 Q526 275 534 384 L534 384 ZM341 439 Q380 438 402 420 Q424 401 424 373 Q424 326 361 302 Q299 278 175 276 Q187 356 234 397 Q281 439 341 439 L341 439 ZM376 739 L254 739 L348 585 L437 585 L376 739 Z" /><glyph glyph-name="" unicode="ê" d="M534 384 Q534 445 489 485 Q443 525 350 527 Q227 525 145 440 Q62 355 59 216 Q60 110 117 53 Q174 -5 274 -6 Q346 -6 393 7 Q441 20 485 45 L453 130 Q416 112 377 100 Q338 88 286 88 Q237 86 204 112 Q171 137 170 209 Q297 207 412 241 Q526 275 534 384 L534 384 ZM341 439 Q380 438 402 420 Q424 401 424 373 Q424 326 361 302 Q299 278 175 276 Q187 356 234 397 Q281 439 341 439 L341 439 ZM451 739 L349 739 L224 585 L298 585 L388 672 L447 585 L521 585 L451 739 Z" /><glyph glyph-name="" unicode="ó" d="M362 525 Q230 524 147 441 Q63 358 60 211 Q61 113 116 54 Q171 -5 269 -6 Q399 -4 483 80 Q567 164 570 311 Q569 410 514 467 Q458 524 362 525 L362 525 ZM346 436 Q404 435 433 397 Q463 360 463 295 Q461 200 411 142 Q361 84 285 82 Q230 82 199 119 Q168 155 167 222 Q169 318 219 376 Q269 434 346 436 L346 436 ZM295 585 L383 585 L532 739 L410 739 L295 585 Z" /><glyph glyph-name="" unicode="ò" d="M362 525 Q230 524 147 441 Q63 358 60 211 Q61 113 116 54 Q171 -5 269 -6 Q399 -4 483 80 Q567 164 570 311 Q569 410 514 467 Q458 524 362 525 L362 525 ZM346 436 Q404 435 433 397 Q463 360 463 295 Q461 200 411 142 Q361 84 285 82 Q230 82 199 119 Q168 155 167 222 Q169 318 219 376 Q269 434 346 436 L346 436 ZM372 739 L250 739 L344 585 L433 585 L372 739 Z" /><glyph glyph-name="" unicode="ô" d="M362 525 Q230 524 147 441 Q63 358 60 211 Q61 113 116 54 Q171 -5 269 -6 Q399 -4 483 80 Q567 164 570 311 Q569 410 514 467 Q458 524 362 525 L362 525 ZM346 436 Q404 435 433 397 Q463 360 463 295 Q461 200 411 142 Q361 84 285 82 Q230 82 199 119 Q168 155 167 222 Q169 318 219 376 Q269 434 346 436 L346 436 ZM448 739 L346 739 L221 585 L295 585 L385 672 L444 585 L518 585 L448 739 Z" /><glyph glyph-name="" unicode="ö" d="M362 525 Q230 524 147 441 Q63 358 60 211 Q61 113 116 54 Q171 -5 269 -6 Q399 -4 483 80 Q567 164 570 311 Q569 410 514 467 Q458 524 362 525 L362 525 ZM346 436 Q404 435 433 397 Q463 360 463 295 Q461 200 411 142 Q361 84 285 82 Q230 82 199 119 Q168 155 167 222 Q169 318 219 376 Q269 434 346 436 L346 436 ZM251 654 Q251 631 265 615 Q278 599 301 598 Q332 599 354 621 Q375 643 376 674 Q376 698 361 713 Q346 728 323 728 Q295 727 274 706 Q252 684 251 654 L251 654 ZM449 654 Q449 631 463 615 Q476 599 499 598 Q529 599 551 621 Q573 642 574 674 Q574 698 559 713 Q544 728 521 728 Q493 727 472 706 Q450 684 449 654 L449 654 Z" /><glyph glyph-name="" unicode="õ" d="M362 525 Q230 524 147 441 Q63 358 60 211 Q61 113 116 54 Q171 -5 269 -6 Q399 -4 483 80 Q567 164 570 311 Q569 410 514 467 Q458 524 362 525 L362 525 ZM346 436 Q404 435 433 397 Q463 360 463 295 Q461 200 411 142 Q361 84 285 82 Q230 82 199 119 Q168 155 167 222 Q169 318 219 376 Q269 434 346 436 L346 436 ZM550 674 Q526 699 505 706 Q483 714 469 713 Q421 711 391 695 Q361 678 334 676 Q323 676 309 681 Q295 686 281 700 L241 632 Q260 609 280 600 Q300 592 318 592 Q354 594 388 611 Q421 628 452 630 Q462 630 477 625 Q493 620 513 604 L550 674 Z" /><glyph glyph-name="" unicode="í" d="M171 0 L302 748 L190 748 L60 0 L171 0 ZM148 795 L236 795 L385 949 L263 949 L148 795 Z" /><glyph glyph-name="" unicode="î" d="M171 0 L302 748 L190 748 L60 0 L171 0 ZM327 949 L225 949 L100 795 L174 795 L264 882 L323 795 L397 795 L327 949 Z" /><glyph glyph-name="" unicode="ï" d="M171 0 L302 748 L190 748 L60 0 L171 0 ZM102 866 Q102 843 116 827 Q129 811 152 810 Q183 811 205 833 Q226 855 227 886 Q227 910 212 925 Q197 940 174 940 Q146 939 125 918 Q103 896 102 866 L102 866 ZM300 866 Q300 843 314 827 Q327 811 350 810 Q380 811 402 833 Q424 854 425 886 Q425 910 410 925 Q395 940 372 940 Q344 939 323 918 Q301 896 300 866 L300 866 Z" /><glyph glyph-name="" unicode="ì" d="M171 0 L302 748 L190 748 L60 0 L171 0 ZM253 949 L131 949 L225 795 L314 795 L253 949 Z" /><glyph glyph-name="" unicode="&#xf8ff;" d="M645 530 L727 585 Q730 587 733 588 Q735 589 739 589 Q745 589 750 585 Q754 582 754 575 Q754 573 753 570 Q751 566 749 564 L714 530 L831 530 Q837 530 842 525 Q846 521 846 514 Q846 507 842 504 Q837 500 831 500 L750 500 L754 487 L867 487 Q874 487 877 483 Q881 478 881 473 Q881 465 877 461 Q874 457 867 457 L759 457 L759 443 L844 443 Q850 443 855 439 Q859 436 859 429 Q859 422 855 418 Q850 413 844 413 L754 413 L750 401 L820 401 Q825 401 830 396 Q834 392 834 385 Q834 379 830 375 Q825 370 820 370 L643 370 L643 85 L476 85 L476 370 L299 370 Q294 370 289 375 Q285 379 285 385 Q285 392 289 396 Q294 401 299 401 L369 401 L364 413 L275 413 Q269 413 265 418 Q260 422 260 429 Q260 436 265 439 Q269 443 275 443 L360 443 L360 457 L252 457 Q246 457 242 461 Q238 465 238 473 Q238 478 242 483 Q246 487 252 487 L364 487 L369 500 L288 500 Q282 500 278 504 Q273 507 273 514 Q273 521 278 525 Q282 530 288 530 L405 530 L370 564 Q368 566 366 570 Q365 573 365 575 Q365 582 370 585 Q374 589 380 589 Q388 589 392 585 L474 530 L645 530 ZM919 39 Q924 39 927 36 Q930 33 930 28 Q930 23 927 20 Q924 17 919 17 L905 17 L905 39 L919 39 ZM146 376 Q150 201 267 84 Q384 -33 559 -37 Q734 -33 851 84 Q968 201 972 376 Q968 551 851 668 Q734 785 559 789 Q384 785 267 668 Q150 551 146 376 L146 376 ZM863 17 Q864 -6 879 -21 Q894 -36 917 -37 Q940 -36 956 -21 Q971 -6 972 17 Q971 40 956 56 Q940 71 917 72 Q894 71 879 56 Q864 40 863 17 L863 17 ZM871 17 Q872 36 885 50 Q898 63 917 64 Q936 63 950 50 Q963 36 964 17 Q963 -2 950 -15 Q936 -28 917 -29 Q898 -28 885 -15 Q872 -2 871 17 L871 17 ZM930 -11 L941 -11 L925 9 Q931 11 935 16 Q939 21 939 28 Q939 36 933 42 Q927 48 919 48 L896 48 L896 -11 L905 -11 L905 8 L915 8 L930 -11 Z" /><glyph glyph-name="" unicode="í" d="M252 519 L146 519 L87 177 Q80 131 80 110 Q81 44 112 18 Q142 -7 184 -6 Q198 -6 212 -3 Q226 0 239 5 L253 85 Q220 84 205 95 Q189 105 189 134 Q189 143 190 155 Q191 167 193 179 L252 519 ZM117 585 L205 585 L354 739 L232 739 L117 585 Z" /><glyph glyph-name="" unicode="ì" d="M253 519 L147 519 L88 177 Q81 131 81 110 Q82 44 113 18 Q143 -7 185 -6 Q199 -6 213 -3 Q227 0 240 5 L254 85 Q221 84 206 95 Q190 105 190 134 Q190 143 191 155 Q192 167 194 179 L253 519 ZM216 739 L94 739 L188 585 L277 585 L216 739 Z" /><glyph glyph-name="" unicode="î" d="M253 519 L147 519 L88 177 Q81 131 81 110 Q82 44 113 18 Q143 -7 185 -6 Q199 -6 213 -3 Q227 0 240 5 L254 85 Q221 84 206 95 Q190 105 190 134 Q190 143 191 155 Q192 167 194 179 L253 519 ZM289 739 L187 739 L62 585 L136 585 L226 672 L285 585 L359 585 L289 739 Z" /><glyph glyph-name="" unicode="ï" d="M253 519 L147 519 L88 177 Q81 131 81 110 Q82 44 113 18 Q143 -7 185 -6 Q199 -6 213 -3 Q227 0 240 5 L254 85 Q221 84 206 95 Q190 105 190 134 Q190 143 191 155 Q192 167 194 179 L253 519 ZM65 654 Q65 631 79 615 Q92 599 115 598 Q146 599 168 621 Q189 643 190 674 Q190 698 175 713 Q160 728 137 728 Q109 727 88 706 Q66 684 65 654 L65 654 ZM263 654 Q263 631 277 615 Q290 599 313 598 Q343 599 365 621 Q387 642 388 674 Q388 698 373 713 Q358 728 335 728 Q307 727 286 706 Q264 684 263 654 L263 654 Z" /><glyph glyph-name="" unicode="á" d="M516 -6 Q530 -6 544 -3 Q558 0 571 5 L585 85 Q552 84 536 95 Q520 105 520 134 Q520 143 521 155 Q523 167 525 179 L577 481 L481 481 Q452 503 415 514 Q378 525 338 525 Q217 523 140 437 Q63 351 60 203 Q61 104 109 49 Q156 -5 236 -6 Q282 -6 329 15 Q376 35 414 71 L419 71 Q428 32 453 13 Q478 -6 516 -6 L516 -6 ZM167 222 Q169 318 215 374 Q262 430 329 431 Q371 431 400 421 Q429 411 456 387 L418 173 Q388 136 351 113 Q314 89 271 88 Q224 88 196 122 Q168 156 167 222 L167 222 ZM324 585 L412 585 L561 739 L439 739 L324 585 Z" /><glyph glyph-name="" unicode="à" d="M516 -6 Q530 -6 544 -3 Q558 0 571 5 L585 85 Q552 84 536 95 Q520 105 520 134 Q520 143 521 155 Q523 167 525 179 L577 481 L481 481 Q452 503 415 514 Q378 525 338 525 Q217 523 140 437 Q63 351 60 203 Q61 104 109 49 Q156 -5 236 -6 Q282 -6 329 15 Q376 35 414 71 L419 71 Q428 32 453 13 Q478 -6 516 -6 L516 -6 ZM167 222 Q169 318 215 374 Q262 430 329 431 Q371 431 400 421 Q429 411 456 387 L418 173 Q388 136 351 113 Q314 89 271 88 Q224 88 196 122 Q168 156 167 222 L167 222 ZM388 739 L266 739 L360 585 L449 585 L388 739 Z" /><glyph glyph-name="" unicode="â" d="M516 -6 Q530 -6 544 -3 Q558 0 571 5 L585 85 Q552 84 536 95 Q520 105 520 134 Q520 143 521 155 Q523 167 525 179 L577 481 L481 481 Q452 503 415 514 Q378 525 338 525 Q217 523 140 437 Q63 351 60 203 Q61 104 109 49 Q156 -5 236 -6 Q282 -6 329 15 Q376 35 414 71 L419 71 Q428 32 453 13 Q478 -6 516 -6 L516 -6 ZM167 222 Q169 318 215 374 Q262 430 329 431 Q371 431 400 421 Q429 411 456 387 L418 173 Q388 136 351 113 Q314 89 271 88 Q224 88 196 122 Q168 156 167 222 L167 222 ZM470 739 L368 739 L243 585 L317 585 L407 672 L466 585 L540 585 L470 739 Z" /><glyph glyph-name="" unicode="ä" d="M516 -6 Q530 -6 544 -3 Q558 0 571 5 L585 85 Q552 84 536 95 Q520 105 520 134 Q520 143 521 155 Q523 167 525 179 L577 481 L481 481 Q452 503 415 514 Q378 525 338 525 Q217 523 140 437 Q63 351 60 203 Q61 104 109 49 Q156 -5 236 -6 Q282 -6 329 15 Q376 35 414 71 L419 71 Q428 32 453 13 Q478 -6 516 -6 L516 -6 ZM167 222 Q169 318 215 374 Q262 430 329 431 Q371 431 400 421 Q429 411 456 387 L418 173 Q388 136 351 113 Q314 89 271 88 Q224 88 196 122 Q168 156 167 222 L167 222 ZM246 654 Q246 631 260 615 Q273 599 296 598 Q327 599 349 621 Q370 643 371 674 Q371 698 356 713 Q341 728 318 728 Q290 727 269 706 Q247 684 246 654 L246 654 ZM444 654 Q444 631 458 615 Q471 599 494 598 Q524 599 546 621 Q568 642 569 674 Q569 698 554 713 Q539 728 516 728 Q488 727 467 706 Q445 684 444 654 L444 654 Z" /><glyph glyph-name="" unicode="ã" d="M516 -6 Q530 -6 544 -3 Q558 0 571 5 L585 85 Q552 84 536 95 Q520 105 520 134 Q520 143 521 155 Q523 167 525 179 L577 481 L481 481 Q452 503 415 514 Q378 525 338 525 Q217 523 140 437 Q63 351 60 203 Q61 104 109 49 Q156 -5 236 -6 Q282 -6 329 15 Q376 35 414 71 L419 71 Q428 32 453 13 Q478 -6 516 -6 L516 -6 ZM167 222 Q169 318 215 374 Q262 430 329 431 Q371 431 400 421 Q429 411 456 387 L418 173 Q388 136 351 113 Q314 89 271 88 Q224 88 196 122 Q168 156 167 222 L167 222 ZM568 674 Q544 699 523 706 Q501 714 487 713 Q439 711 409 695 Q379 678 352 676 Q341 676 327 681 Q313 686 299 700 L259 632 Q278 609 298 600 Q318 592 336 592 Q372 594 406 611 Q439 628 470 630 Q480 630 495 625 Q511 620 531 604 L568 674 Z" /><glyph glyph-name="" unicode="å" d="M516 -6 Q530 -6 544 -3 Q558 0 571 5 L585 85 Q552 84 536 95 Q520 105 520 134 Q520 143 521 155 Q523 167 525 179 L577 481 L481 481 Q452 503 415 514 Q378 525 338 525 Q217 523 140 437 Q63 351 60 203 Q61 104 109 49 Q156 -5 236 -6 Q282 -6 329 15 Q376 35 414 71 L419 71 Q428 32 453 13 Q478 -6 516 -6 L516 -6 ZM167 222 Q169 318 215 374 Q262 430 329 431 Q371 431 400 421 Q429 411 456 387 L418 173 Q388 136 351 113 Q314 89 271 88 Q224 88 196 122 Q168 156 167 222 L167 222 ZM314 649 Q315 613 336 592 Q358 571 392 570 Q441 571 473 601 Q505 632 506 680 Q505 717 484 738 Q463 760 427 760 Q379 759 347 728 Q315 697 314 649 L314 649 ZM366 657 Q367 680 382 696 Q397 712 419 713 Q435 712 444 701 Q454 689 454 673 Q453 650 438 634 Q423 618 401 617 Q385 617 376 629 Q366 640 366 657 L366 657 Z" /><glyph glyph-name="" unicode="ú" d="M233 519 L127 519 L77 228 Q73 208 72 189 Q70 171 70 155 Q73 60 123 26 Q173 -8 228 -6 Q274 -6 321 15 Q368 35 407 71 L411 71 Q420 32 445 13 Q470 -6 508 -6 Q522 -6 536 -3 Q551 0 563 5 L577 85 Q545 84 529 95 Q513 105 513 134 Q513 143 514 155 Q515 167 517 179 L576 519 L471 519 L410 172 Q381 137 343 113 Q306 89 263 88 Q233 86 207 103 Q180 121 178 183 Q178 192 179 202 Q180 212 182 223 L233 519 ZM301 585 L389 585 L538 739 L416 739 L301 585 Z" /><glyph glyph-name="" unicode="ù" d="M233 519 L127 519 L77 228 Q73 208 72 189 Q70 171 70 155 Q73 60 123 26 Q173 -8 228 -6 Q274 -6 321 15 Q368 35 407 71 L411 71 Q420 32 445 13 Q470 -6 508 -6 Q522 -6 536 -3 Q551 0 563 5 L577 85 Q545 84 529 95 Q513 105 513 134 Q513 143 514 155 Q515 167 517 179 L576 519 L471 519 L410 172 Q381 137 343 113 Q306 89 263 88 Q233 86 207 103 Q180 121 178 183 Q178 192 179 202 Q180 212 182 223 L233 519 ZM362 739 L240 739 L334 585 L423 585 L362 739 Z" /><glyph glyph-name="" unicode="û" d="M233 519 L127 519 L77 228 Q73 208 72 189 Q70 171 70 155 Q73 60 123 26 Q173 -8 228 -6 Q274 -6 321 15 Q368 35 407 71 L411 71 Q420 32 445 13 Q470 -6 508 -6 Q522 -6 536 -3 Q551 0 563 5 L577 85 Q545 84 529 95 Q513 105 513 134 Q513 143 514 155 Q515 167 517 179 L576 519 L471 519 L410 172 Q381 137 343 113 Q306 89 263 88 Q233 86 207 103 Q180 121 178 183 Q178 192 179 202 Q180 212 182 223 L233 519 ZM450 739 L348 739 L223 585 L297 585 L387 672 L446 585 L520 585 L450 739 Z" /><glyph glyph-name="" unicode="ü" d="M233 519 L127 519 L77 228 Q73 208 72 189 Q70 171 70 155 Q73 60 123 26 Q173 -8 228 -6 Q274 -6 321 15 Q368 35 407 71 L411 71 Q420 32 445 13 Q470 -6 508 -6 Q522 -6 536 -3 Q551 0 563 5 L577 85 Q545 84 529 95 Q513 105 513 134 Q513 143 514 155 Q515 167 517 179 L576 519 L471 519 L410 172 Q381 137 343 113 Q306 89 263 88 Q233 86 207 103 Q180 121 178 183 Q178 192 179 202 Q180 212 182 223 L233 519 ZM215 654 Q215 631 229 615 Q242 599 265 598 Q296 599 318 621 Q339 643 340 674 Q340 698 325 713 Q310 728 287 728 Q259 727 238 706 Q216 684 215 654 L215 654 ZM413 654 Q413 631 427 615 Q440 599 463 598 Q493 599 515 621 Q537 642 538 674 Q538 698 523 713 Q508 728 485 728 Q457 727 436 706 Q414 684 413 654 L413 654 Z" /></font>
</defs>
</svg>
