<?xml version="1.0" standalone="no"?><!DOCTYPE svg PUBLIC "-//W3C//DTD SVG 1.1//EN" "http://www.w3.org/Graphics/SVG/1.1/DTD/svg11.dtd" ><svg xmlns="http://www.w3.org/2000/svg"><metadata></metadata><defs><font id="LaskoDzurovski,Totemt.f.: SkolaSans: 2009" horiz-adv-x="1320"><font-face font-family="SkolaSans" font-weight="400" font-stretch="normal" units-per-em="1000" panose-1="2 0 0 0 0 0 0 0 0 0" ascent="750" descent="-250" x-height="0" bbox="-150 -215 1273 971" underline-thickness="50" underline-position="-75" unicode-range="U+0000-fb02" /><missing-glyph horiz-adv-x="555" d="M40 0 L515 0 L515 748 L40 748 L40 0 ZM428 520 Q425 595 377 629 Q329 663 266 662 Q229 662 195 649 Q161 636 125 606 L162 554 Q189 577 213 587 Q237 597 261 597 Q298 597 326 577 Q354 557 355 512 Q353 469 316 436 Q280 403 229 378 L242 256 L292 256 L301 350 Q350 375 388 416 Q426 457 428 520 L428 520 ZM220 136 Q221 115 235 101 Q249 87 270 86 Q292 87 306 101 Q320 115 320 136 Q320 157 306 171 Q292 185 270 186 Q249 185 235 171 Q221 157 220 136 L220 136 ZM80 708 L475 708 L475 40 L80 40 L80 708 Z" /><glyph glyph-name="" unicode="" d="" /><glyph glyph-name="" unicode=" " d="" /><glyph glyph-name="" unicode="!" d="M216 219 L231 748 L137 748 L151 219 L216 219 ZM118 59 Q119 31 137 13 Q155 -5 183 -6 Q211 -5 230 13 Q248 31 249 59 Q248 87 230 106 Q211 124 183 125 Q155 124 137 106 Q119 87 118 59 L118 59 Z" /><glyph glyph-name="" unicode="&quot;" d="M157 748 L80 748 L80 496 L157 496 L157 748 ZM314 748 L237 748 L237 496 L314 496 L314 748 Z" /><glyph glyph-name="" unicode="#" d="M71 455 L169 455 L146 290 L40 290 L40 230 L139 230 L107 0 L171 0 L202 230 L337 230 L306 0 L369 0 L401 230 L508 230 L508 290 L409 290 L432 455 L539 455 L539 515 L439 515 L472 748 L408 748 L376 515 L241 515 L273 748 L209 748 L177 515 L71 515 L71 455 ZM233 455 L368 455 L345 290 L210 290 L233 455 Z" /><glyph glyph-name="" unicode="$" d="M346 -102 L346 3 Q439 13 493 65 Q547 117 548 204 Q524 376 360 408 Q195 440 171 564 Q171 609 206 639 Q241 670 309 671 Q360 671 406 651 Q451 632 495 596 L535 668 Q490 701 444 721 Q399 740 346 745 L346 850 L274 850 L274 745 Q181 734 133 683 Q84 632 84 561 Q107 386 270 352 Q432 319 455 199 Q455 141 416 109 Q378 77 306 77 Q255 77 205 96 Q155 114 109 151 L68 80 Q116 44 167 25 Q219 6 274 2 L274 -102 L346 -102 Z" /><glyph glyph-name="" unicode="%" d="M728 748 L661 754 L168 0 L235 -6 L728 748 ZM47 579 Q49 504 98 455 Q147 406 222 404 Q295 406 345 455 Q394 504 396 579 Q394 653 345 703 Q295 752 222 754 Q147 752 98 703 Q49 653 47 579 L47 579 ZM505 168 Q507 94 556 45 Q605 -4 679 -6 Q753 -4 803 45 Q852 94 854 168 Q852 243 803 292 Q753 342 679 344 Q605 342 556 292 Q507 243 505 168 L505 168 ZM111 579 Q112 626 143 657 Q174 689 222 690 Q268 689 300 657 Q331 626 332 579 Q331 532 300 501 Q268 469 222 468 Q174 469 143 501 Q112 532 111 579 L111 579 ZM569 168 Q570 216 601 247 Q632 279 679 280 Q726 279 757 247 Q789 216 790 168 Q789 121 757 90 Q726 59 679 58 Q632 59 601 90 Q570 121 569 168 L569 168 Z" /><glyph glyph-name="" unicode="&amp;" d="M339 408 Q399 441 446 487 Q493 533 496 592 Q496 663 449 708 Q402 753 314 754 Q234 753 184 708 Q134 664 132 590 Q134 540 163 498 Q192 456 226 423 Q160 386 110 332 Q60 278 57 194 Q59 98 124 44 Q189 -9 287 -10 Q353 -9 410 27 Q467 63 511 115 L626 -6 L721 0 L560 171 L718 375 L657 419 L508 228 L339 408 ZM462 169 Q433 130 389 97 Q345 65 289 63 Q224 64 182 99 Q140 134 138 195 Q141 262 183 301 Q226 339 273 370 L462 169 ZM314 684 Q367 683 394 656 Q421 628 421 589 Q418 546 376 511 Q333 475 294 456 Q268 482 241 515 Q213 549 211 588 Q212 629 239 656 Q267 683 314 684 L314 684 Z" /><glyph glyph-name="" unicode="&#39;" d="M157 748 L80 748 L80 496 L157 496 L157 748 Z" /><glyph glyph-name="" unicode="(" d="M182 806 Q137 736 97 618 Q57 500 54 326 Q57 152 97 38 Q137 -76 182 -145 L237 -114 Q197 -49 163 57 Q128 164 126 326 Q128 490 163 600 Q197 710 237 776 L182 806 Z" /><glyph glyph-name="" unicode=")" d="M27 776 Q67 710 101 600 Q136 490 138 326 Q136 164 101 57 Q67 -49 27 -114 L82 -145 Q127 -76 167 38 Q207 152 210 326 Q207 500 167 618 Q127 736 82 806 L27 776 Z" /><glyph glyph-name="" unicode="*" d="M263 754 L198 754 L209 593 L60 653 L40 591 L195 553 L93 429 L145 391 L231 527 L316 391 L368 429 L266 552 L421 592 L402 653 L252 593 L263 754 Z" /><glyph glyph-name="" unicode="+" d="M66 302 L291 302 L291 77 L362 77 L362 302 L587 302 L587 374 L362 374 L362 599 L291 599 L291 374 L66 374 L66 302 Z" /><glyph glyph-name="" unicode="," d="M62 61 Q62 36 79 16 Q95 -4 123 -5 L65 -138 L114 -156 Q138 -118 166 -52 Q194 14 196 61 Q195 90 176 109 Q157 128 129 129 Q100 128 81 109 Q63 90 62 61 L62 61 Z" /><glyph glyph-name="" unicode="-" d="M309 256 L309 328 L40 328 L40 256 L309 256 Z" /><glyph glyph-name="" unicode="." d="M81 61 Q82 33 101 14 Q120 -5 148 -6 Q176 -5 195 14 Q214 33 215 61 Q214 90 195 109 Q176 128 148 129 Q120 128 101 109 Q82 90 81 61 L81 61 Z" /><glyph glyph-name="" unicode="/" d="M347 806 L0 -204 L75 -204 L421 806 L347 806 Z" /><glyph glyph-name="" unicode="0" d="M41 374 Q43 191 114 93 Q185 -5 308 -6 Q432 -5 504 93 Q576 191 577 374 Q576 557 504 655 Q432 753 308 754 Q185 753 114 655 Q43 557 41 374 L41 374 ZM131 374 Q132 520 180 598 Q227 677 308 678 Q390 677 438 598 Q486 520 487 374 Q486 228 438 150 Q390 71 308 70 Q227 71 180 150 Q132 228 131 374 L131 374 Z" /><glyph glyph-name="" unicode="1" d="M81 78 L81 0 L544 0 L544 78 L385 78 L385 748 L312 748 L90 626 L119 563 L295 652 L295 78 L81 78 Z" /><glyph glyph-name="" unicode="2" d="M548 525 Q547 628 481 690 Q415 752 295 754 Q258 755 202 739 Q146 724 83 682 L121 618 Q173 652 216 664 Q258 677 289 676 Q368 675 413 634 Q457 593 458 522 Q442 395 298 255 Q154 116 68 59 L68 0 L540 0 L540 78 L207 78 L206 82 Q308 153 423 276 Q538 398 548 525 L548 525 Z" /><glyph glyph-name="" unicode="3" d="M213 367 L303 367 Q402 361 435 310 Q468 259 465 229 Q465 162 420 118 Q376 75 293 73 Q244 73 198 90 Q152 108 102 142 L63 73 Q126 31 183 13 Q240 -6 296 -6 Q421 -4 488 61 Q554 125 555 223 Q556 274 523 327 Q491 379 410 403 L410 407 Q484 440 508 485 Q533 531 531 572 Q528 658 462 705 Q395 753 296 754 Q243 754 188 738 Q134 721 77 682 L114 618 Q163 650 205 663 Q246 675 287 675 Q352 675 396 645 Q439 615 441 561 Q443 536 415 489 Q387 442 302 437 L213 437 L213 367 Z" /><glyph glyph-name="" unicode="4" d="M163 233 L162 236 L414 577 L418 576 L418 233 L163 233 ZM505 754 L452 754 L36 187 L38 156 L418 156 L418 0 L505 0 L505 156 L584 156 L584 233 L505 233 L505 754 Z" /><glyph glyph-name="" unicode="5" d="M149 748 L120 399 L285 399 Q369 399 420 358 Q471 317 472 235 Q470 165 418 120 Q367 75 286 73 Q233 73 189 90 Q145 108 94 143 L55 73 Q117 31 171 13 Q225 -6 289 -6 Q404 -4 481 65 Q559 133 562 238 Q560 357 491 417 Q422 477 312 477 L208 477 L225 670 L512 670 L512 748 L149 748 Z" /><glyph glyph-name="" unicode="6" d="M317 394 Q391 392 434 345 Q477 298 478 230 Q478 167 436 119 Q394 71 317 69 Q248 70 202 114 Q156 158 154 230 Q155 300 198 346 Q242 392 317 394 L317 394 ZM332 469 Q300 469 266 455 Q232 442 210 422 L207 425 Q277 534 342 614 Q406 694 456 748 L352 754 Q215 598 141 475 Q66 352 65 236 Q67 134 135 65 Q203 -3 317 -6 Q427 -3 496 63 Q565 130 567 230 Q566 330 504 398 Q442 466 332 469 L332 469 Z" /><glyph glyph-name="" unicode="7" d="M58 670 L443 670 L155 0 L250 -6 L559 722 L559 748 L58 748 L58 670 Z" /><glyph glyph-name="" unicode="8" d="M309 754 Q214 753 150 705 Q87 656 84 569 Q82 528 105 482 Q127 436 191 406 L191 402 Q114 377 83 323 Q52 269 53 216 Q54 121 119 59 Q184 -4 307 -6 Q433 -4 499 59 Q565 121 565 216 Q566 269 535 323 Q503 377 427 402 L426 406 Q491 436 513 482 Q536 528 534 569 Q532 656 468 705 Q404 753 309 754 L309 754 ZM309 71 Q241 71 193 110 Q145 148 143 226 Q145 287 190 328 Q234 369 290 371 L327 371 Q384 369 428 328 Q473 287 475 226 Q473 147 425 109 Q377 71 309 71 L309 71 ZM309 677 Q356 677 399 649 Q441 620 444 557 Q443 501 409 467 Q376 434 325 433 L292 433 Q243 434 209 467 Q175 501 174 557 Q177 620 219 649 Q262 677 309 677 L309 677 Z" /><glyph glyph-name="" unicode="9" d="M308 354 Q234 356 191 403 Q147 450 146 518 Q147 581 189 629 Q231 676 308 679 Q377 678 422 634 Q468 590 470 518 Q469 448 426 402 Q383 356 308 354 L308 354 ZM418 323 Q348 214 283 134 Q219 54 169 0 L273 -6 Q410 150 484 273 Q559 396 560 512 Q558 614 490 683 Q422 751 308 754 Q198 751 129 685 Q60 618 58 518 Q59 418 121 350 Q183 282 293 279 Q325 280 359 293 Q393 306 415 326 L418 323 Z" /><glyph glyph-name="" unicode=":" d="M81 61 Q82 33 101 14 Q120 -5 148 -6 Q176 -5 195 14 Q214 33 215 61 Q214 90 195 109 Q176 128 148 129 Q120 128 101 109 Q82 90 81 61 L81 61 ZM81 457 Q82 429 101 410 Q120 391 148 390 Q176 391 195 410 Q214 429 215 457 Q214 486 195 505 Q176 524 148 525 Q120 524 101 505 Q82 486 81 457 L81 457 Z" /><glyph glyph-name="" unicode=";" d="M62 457 Q63 429 82 410 Q101 391 129 390 Q157 391 176 410 Q195 429 196 457 Q195 486 176 505 Q157 524 129 525 Q101 524 82 505 Q63 486 62 457 L62 457 ZM62 61 Q62 36 79 16 Q95 -4 124 -5 L65 -138 L114 -156 Q138 -118 166 -52 Q194 14 196 61 Q195 90 176 109 Q157 128 129 129 Q101 128 82 109 Q63 90 62 61 L62 61 Z" /><glyph glyph-name="" unicode="&lt;" d="M578 153 L172 334 L172 338 L578 519 L578 595 L75 372 L75 300 L578 77 L578 153 Z" /><glyph glyph-name="" unicode="=" d="M66 384 L587 384 L587 456 L66 456 L66 384 ZM66 220 L587 220 L587 291 L66 291 L66 220 Z" /><glyph glyph-name="" unicode="&gt;" d="M75 77 L578 300 L578 372 L75 595 L75 519 L481 338 L481 334 L75 153 L75 77 Z" /><glyph glyph-name="" unicode="?" d="M204 219 L263 219 L271 332 Q336 365 393 423 Q450 481 454 568 Q451 666 387 710 Q323 755 239 754 Q191 754 147 737 Q102 720 54 681 L95 620 Q134 653 167 667 Q200 680 233 680 Q288 680 328 651 Q367 621 369 557 Q366 494 312 445 Q258 396 192 364 L204 219 ZM168 59 Q169 31 187 13 Q205 -5 233 -6 Q261 -5 280 13 Q298 31 299 59 Q298 87 280 106 Q261 124 233 125 Q205 124 187 106 Q169 87 168 59 L168 59 Z" /><glyph glyph-name="" unicode="@" d="M510 504 Q415 504 358 442 Q300 381 298 264 Q300 146 356 81 Q412 15 500 14 Q555 15 595 45 Q635 74 656 120 L662 120 Q673 66 711 40 Q748 14 788 14 Q863 14 919 76 Q975 138 978 262 Q973 501 849 602 Q724 703 536 700 Q348 701 224 594 Q99 488 94 262 Q97 36 215 -72 Q334 -180 536 -179 Q591 -179 646 -170 Q701 -161 743 -147 L724 -81 Q686 -94 636 -102 Q586 -110 536 -110 Q366 -111 266 -20 Q165 71 163 262 Q167 452 272 542 Q378 632 536 631 Q695 633 800 549 Q905 464 909 262 Q907 173 873 128 Q838 83 791 83 Q768 82 743 101 Q717 120 715 173 L715 449 L652 449 Q622 476 587 490 Q552 504 510 504 L510 504 ZM500 86 Q448 86 413 132 Q377 177 376 264 Q379 357 421 395 Q462 433 510 432 Q545 432 578 416 Q612 401 637 372 L637 239 Q634 168 591 128 Q548 87 500 86 L500 86 Z" /><glyph glyph-name="" unicode="a" d="M178 167 L541 167 L616 -6 L707 0 L381 748 L337 748 L11 0 L104 -6 L178 167 ZM206 241 L357 599 L361 599 L513 241 L206 241 Z" /><glyph glyph-name="" unicode="b" d="M185 425 L185 670 L391 670 Q460 669 497 635 Q535 600 535 543 Q533 494 495 460 Q458 426 410 425 L185 425 ZM410 351 Q473 349 520 311 Q567 272 569 218 Q570 163 530 122 Q490 80 390 78 L185 78 L185 351 L410 351 ZM625 555 Q625 638 566 692 Q507 746 393 748 L95 748 L95 0 L393 0 Q523 1 591 59 Q659 116 659 211 Q657 277 616 325 Q574 372 511 388 L511 392 Q572 420 599 465 Q626 509 625 555 L625 555 Z" /><glyph glyph-name="" unicode="c" d="M675 679 Q617 714 556 734 Q494 754 421 754 Q244 750 154 643 Q64 536 64 374 Q64 212 154 105 Q244 -2 421 -6 Q494 -6 556 14 Q617 34 675 69 L636 143 Q587 111 535 94 Q483 76 421 76 Q289 79 222 164 Q154 248 154 374 Q154 501 222 585 Q289 669 421 672 Q483 672 535 654 Q587 637 636 605 L675 679 Z" /><glyph glyph-name="" unicode="d" d="M335 0 Q510 4 600 109 Q691 213 691 374 Q691 535 600 639 Q510 744 335 748 L84 748 L84 0 L335 0 ZM174 78 L174 670 L329 670 Q462 667 531 586 Q601 504 601 374 Q601 244 531 162 Q462 81 329 78 L174 78 Z" /><glyph glyph-name="" unicode="e" d="M594 670 L594 748 L95 748 L95 0 L594 0 L594 78 L185 78 L185 351 L552 351 L552 425 L185 425 L185 670 L594 670 Z" /><glyph glyph-name="" unicode="f" d="M585 670 L585 748 L95 748 L95 0 L185 0 L185 342 L543 342 L543 416 L185 416 L185 670 L585 670 Z" /><glyph glyph-name="" unicode="g" d="M704 391 L432 391 L432 314 L620 314 L620 135 Q575 106 526 91 Q477 76 422 76 Q290 79 222 164 Q154 248 154 374 Q154 501 222 585 Q289 669 421 672 Q485 672 538 654 Q592 637 642 605 L681 679 Q622 714 559 734 Q496 754 421 754 Q244 750 154 643 Q64 536 64 374 Q64 212 154 105 Q244 -2 422 -6 Q496 -5 568 19 Q640 44 704 86 L704 391 Z" /><glyph glyph-name="" unicode="h" d="M185 0 L185 351 L602 351 L602 0 L692 0 L692 748 L602 748 L602 425 L185 425 L185 748 L95 748 L95 0 L185 0 Z" /><glyph glyph-name="" unicode="i" d="M185 0 L185 748 L95 748 L95 0 L185 0 Z" /><glyph glyph-name="" unicode="j" d="M27 38 Q62 18 101 6 Q140 -6 182 -6 Q286 -7 348 53 Q410 113 412 249 L412 748 L322 748 L322 244 Q321 155 284 115 Q246 75 182 76 Q121 76 67 112 L27 38 Z" /><glyph glyph-name="" unicode="k" d="M185 748 L95 748 L95 0 L185 0 L185 334 L276 334 L541 -6 L645 0 L349 371 L603 748 L504 754 L279 408 L185 408 L185 748 Z" /><glyph glyph-name="" unicode="l" d="M185 78 L185 748 L95 748 L95 0 L564 0 L564 78 L185 78 Z" /><glyph glyph-name="" unicode="m" d="M458 218 L700 543 L704 542 L704 0 L794 0 L794 748 L749 748 L444 331 L140 748 L95 748 L95 0 L185 0 L185 542 L189 543 L430 218 L458 218 Z" /><glyph glyph-name="" unicode="n" d="M652 0 L692 0 L692 748 L602 748 L602 184 L598 183 L131 748 L95 748 L95 0 L185 0 L185 557 L189 558 L652 0 Z" /><glyph glyph-name="" unicode="o" d="M425 754 Q250 750 158 644 Q65 538 64 374 Q65 210 158 104 Q250 -2 425 -6 Q600 -2 692 104 Q784 210 785 374 Q784 538 692 644 Q600 750 425 754 L425 754 ZM425 673 Q557 670 626 585 Q695 500 695 374 Q695 248 626 163 Q557 78 425 75 Q293 78 224 163 Q155 248 155 374 Q155 500 224 585 Q293 670 425 673 L425 673 Z" /><glyph glyph-name="" unicode="p" d="M95 748 L95 0 L185 0 L185 254 L371 254 Q480 257 552 326 Q625 395 628 500 Q625 607 553 676 Q480 746 371 748 L95 748 ZM365 670 Q439 668 488 621 Q536 574 538 500 Q536 428 487 381 Q438 333 365 331 L185 331 L185 670 L365 670 Z" /><glyph glyph-name="" unicode="q" d="M155 374 Q155 500 224 585 Q293 670 425 673 Q561 668 628 580 Q695 492 695 374 Q697 244 623 155 Q550 67 376 63 Q269 110 212 181 Q156 253 155 374 L155 374 ZM64 374 Q65 247 118 163 Q172 78 265 26 Q384 -41 487 -92 Q589 -144 717 -207 L750 -134 Q680 -101 605 -64 Q529 -28 475 0 L475 4 Q623 25 704 120 Q784 216 785 374 Q784 538 692 644 Q600 750 425 754 Q250 750 158 644 Q65 538 64 374 L64 374 Z" /><glyph glyph-name="" unicode="r" d="M84 748 L84 0 L174 0 L174 303 L356 303 L572 -6 L674 0 L449 312 Q524 335 574 387 Q624 440 626 521 Q623 631 557 689 Q490 748 391 748 L84 748 ZM382 670 Q447 670 491 632 Q534 594 536 521 Q535 469 493 425 Q451 380 384 377 L174 377 L174 670 L382 670 Z" /><glyph glyph-name="" unicode="s" d="M68 73 Q127 33 190 13 Q253 -7 322 -7 Q445 -6 512 47 Q578 101 579 201 Q554 373 377 408 Q199 442 174 564 Q174 610 212 642 Q250 674 326 675 Q382 675 432 656 Q481 637 529 603 L568 675 Q513 713 456 734 Q398 754 329 754 Q205 752 144 698 Q84 643 84 561 Q109 382 287 349 Q464 315 489 196 Q488 136 446 104 Q403 71 325 71 Q269 71 214 90 Q158 109 108 144 L68 73 Z" /><glyph glyph-name="" unicode="t" d="M618 748 L24 748 L24 670 L276 670 L276 0 L366 0 L366 670 L618 670 L618 748 Z" /><glyph glyph-name="" unicode="u" d="M602 748 L602 322 Q602 212 548 143 Q493 73 388 71 Q283 73 229 143 Q174 212 174 322 L174 748 L84 748 L84 322 Q84 177 161 86 Q238 -4 388 -7 Q538 -4 615 86 Q692 177 692 322 L692 748 L602 748 Z" /><glyph glyph-name="" unicode="v" d="M327 158 L99 754 L7 747 L306 0 L353 0 L651 747 L559 754 L332 158 L327 158 Z" /><glyph glyph-name="" unicode="w" d="M470 748 L283 177 L279 177 L99 754 L7 747 L258 0 L304 0 L480 532 L484 532 L660 0 L706 0 L957 747 L866 754 L685 177 L681 177 L495 748 L470 748 Z" /><glyph glyph-name="" unicode="x" d="M24 0 L126 -6 L346 329 L566 -6 L668 0 L397 396 L636 748 L535 754 L346 462 L157 754 L55 748 L295 396 L24 0 Z" /><glyph glyph-name="" unicode="y" d="M11 748 L285 287 L285 0 L375 0 L375 289 L649 748 L545 754 L332 366 L328 366 L114 754 L11 748 Z" /><glyph glyph-name="" unicode="z" d="M609 748 L71 748 L71 670 L472 670 L58 22 L58 0 L616 0 L616 78 L197 78 L609 724 L609 748 Z" /><glyph glyph-name="" unicode="[" d="M266 -76 L135 -76 L135 737 L263 737 L263 806 L64 806 L64 -145 L266 -145 L266 -76 Z" /><glyph glyph-name="" unicode="\" d="M0 806 L346 -204 L421 -204 L74 806 L0 806 Z" /><glyph glyph-name="" unicode="]" d="M41 -145 L243 -145 L243 806 L44 806 L44 737 L172 737 L172 -76 L41 -76 L41 -145 Z" /><glyph glyph-name="" unicode="^" d="M87 296 L166 296 L351 673 L537 296 L616 296 L389 748 L313 748 L87 296 Z" /><glyph glyph-name="" unicode="_" d="M500 -126 L500 -74 L0 -74 L0 -126 L500 -126 Z" /><glyph glyph-name="" unicode="`" d="M152 735 L45 735 L176 585 L250 585 L152 735 Z" /><glyph glyph-name="" unicode="a" d="M513 0 L513 302 Q512 410 451 467 Q389 524 286 525 Q229 525 181 510 Q133 496 88 473 L119 410 Q158 428 196 441 Q234 453 280 453 Q346 454 386 414 Q425 375 426 288 Q387 302 345 309 Q303 315 273 315 Q131 310 90 256 Q49 202 54 159 Q55 85 106 40 Q157 -5 245 -6 Q286 -7 336 12 Q387 31 426 82 L430 81 L436 0 L513 0 ZM264 61 Q209 62 177 90 Q145 118 144 163 Q141 191 167 224 Q193 256 282 259 Q317 259 353 253 Q389 246 426 232 Q421 131 366 95 Q310 59 264 61 L264 61 Z" /><glyph glyph-name="" unicode="b" d="M161 43 Q197 19 243 7 Q289 -6 340 -6 Q448 -5 514 64 Q580 133 582 259 Q580 385 515 455 Q450 524 340 525 Q293 525 252 506 Q212 488 178 457 L174 458 L174 795 L88 795 L88 43 L161 43 ZM495 259 Q494 169 450 121 Q407 73 335 72 Q285 72 245 85 Q205 98 174 126 L174 368 Q205 405 245 426 Q284 447 335 447 Q406 446 450 398 Q494 349 495 259 L495 259 Z" /><glyph glyph-name="" unicode="c" d="M522 474 Q484 496 441 510 Q399 525 333 525 Q211 524 139 455 Q66 385 64 259 Q66 133 139 64 Q211 -5 333 -6 Q398 -6 441 8 Q484 21 522 45 L484 113 Q453 93 417 81 Q382 69 332 69 Q251 70 202 119 Q152 168 151 259 Q152 350 202 400 Q251 449 332 450 Q383 449 419 437 Q454 424 486 405 L522 474 Z" /><glyph glyph-name="" unicode="d" d="M64 259 Q66 133 130 64 Q195 -5 297 -6 Q349 -5 393 15 Q437 35 471 68 L475 67 L481 0 L558 0 L558 795 L472 795 L472 461 L468 460 Q435 490 394 507 Q353 525 306 525 Q196 524 131 455 Q66 385 64 259 L64 259 ZM311 72 Q240 73 196 121 Q152 169 151 259 Q152 349 196 398 Q240 446 311 447 Q362 447 401 426 Q440 404 472 368 L472 160 Q442 120 402 97 Q363 73 311 72 L311 72 Z" /><glyph glyph-name="" unicode="e" d="M548 259 Q549 381 493 452 Q436 523 312 525 Q205 524 136 455 Q66 385 64 259 Q66 133 137 64 Q209 -5 329 -6 Q393 -6 442 8 Q491 21 533 45 L500 108 Q464 88 422 77 Q380 66 328 66 Q253 66 204 109 Q156 152 152 233 L543 233 L548 259 ZM311 455 Q383 454 422 411 Q461 369 462 298 L154 298 Q156 362 198 408 Q240 453 311 455 L311 455 Z" /><glyph glyph-name="" unicode="f" d="M268 795 Q200 795 155 752 Q109 708 107 625 L107 519 L31 519 L31 451 L107 451 L107 0 L193 0 L193 451 L343 451 L343 519 L193 519 L193 621 Q194 670 219 694 Q244 719 283 719 Q317 719 345 711 Q373 703 399 690 L424 754 Q387 773 351 784 Q314 795 268 795 L268 795 Z" /><glyph glyph-name="" unicode="g" d="M285 525 Q174 524 124 476 Q75 429 76 350 Q76 307 92 276 Q108 245 137 224 Q116 209 103 188 Q90 166 90 140 Q90 120 98 102 Q105 83 120 69 Q86 42 70 9 Q54 -23 54 -54 Q52 -126 107 -169 Q161 -213 298 -214 Q432 -213 493 -170 Q554 -126 553 -54 Q554 3 512 43 Q469 84 368 92 L211 102 Q188 104 176 118 Q165 131 165 147 Q165 164 174 177 Q183 191 197 197 Q216 193 240 189 Q264 185 286 185 Q388 185 440 227 Q493 269 493 350 Q493 370 490 389 Q487 408 482 423 Q522 427 550 437 Q577 447 593 457 L568 519 Q546 506 526 499 Q505 492 483 492 Q428 494 393 509 Q359 523 285 525 L285 525 ZM353 22 Q415 17 441 -3 Q467 -22 466 -53 Q466 -93 426 -117 Q385 -140 298 -141 Q210 -140 173 -115 Q137 -91 138 -48 Q138 -29 150 -4 Q161 21 181 36 L353 22 ZM284 456 Q323 456 345 449 Q368 443 385 436 Q396 421 403 397 Q409 373 409 348 Q409 305 379 280 Q349 255 285 254 Q225 255 193 280 Q160 305 160 348 Q159 395 187 425 Q215 455 284 456 L284 456 Z" /><glyph glyph-name="" unicode="h" d="M171 0 L171 356 Q210 410 255 429 Q301 449 333 448 Q376 450 417 419 Q457 388 460 299 L460 0 L547 0 L547 296 Q543 433 481 481 Q418 528 351 525 Q314 526 268 508 Q221 490 175 447 L171 448 L171 795 L84 795 L84 0 L171 0 Z" /><glyph glyph-name="" unicode="i" d="M84 694 Q85 667 103 649 Q121 631 148 630 Q174 631 192 649 Q209 667 210 694 Q209 720 192 738 Q174 755 148 756 Q121 755 103 738 Q85 720 84 694 L84 694 ZM191 0 L191 519 L105 519 L105 0 L191 0 Z" /><glyph glyph-name="" unicode="j" d="M203 519 L117 519 L117 -32 Q116 -91 83 -117 Q50 -144 -2 -143 L10 -210 Q18 -212 26 -213 Q35 -214 41 -214 Q109 -214 155 -166 Q201 -119 203 -30 L203 519 ZM96 694 Q97 667 115 649 Q133 631 160 630 Q186 631 204 649 Q221 667 222 694 Q221 720 204 738 Q186 755 160 756 Q133 755 115 738 Q97 720 96 694 L96 694 Z" /><glyph glyph-name="" unicode="k" d="M547 0 L325 274 L516 519 L413 525 L249 302 L171 302 L171 795 L84 795 L84 0 L171 0 L171 244 L251 244 L443 -6 L547 0 Z" /><glyph glyph-name="" unicode="l" d="M245 68 Q203 67 183 88 Q164 109 164 162 L164 795 L77 795 L77 161 Q78 78 111 35 Q144 -7 202 -7 Q208 -7 216 -6 Q224 -4 232 -2 L245 68 Z" /><glyph glyph-name="" unicode="m" d="M171 0 L171 356 Q206 410 245 429 Q285 449 313 448 Q356 450 397 419 Q437 388 440 299 L440 0 L527 0 L527 356 Q562 410 601 429 Q641 449 669 448 Q712 450 753 419 Q793 388 796 299 L796 0 L883 0 L883 296 Q879 433 817 481 Q754 528 687 525 Q652 526 601 506 Q551 485 500 426 Q471 483 424 505 Q377 526 331 525 Q298 525 255 508 Q213 491 172 450 L168 451 L162 519 L84 519 L84 0 L171 0 Z" /><glyph glyph-name="" unicode="n" d="M171 0 L171 356 Q210 410 255 429 Q301 449 333 448 Q376 450 417 419 Q457 388 460 299 L460 0 L547 0 L547 296 Q543 433 481 481 Q418 528 351 525 Q314 526 266 507 Q218 489 172 443 L168 444 L162 519 L84 519 L84 0 L171 0 Z" /><glyph glyph-name="" unicode="o" d="M326 525 Q208 524 137 455 Q66 386 64 259 Q66 134 137 64 Q208 -5 326 -6 Q443 -5 514 64 Q585 134 587 259 Q585 386 514 455 Q443 524 326 525 L326 525 ZM326 450 Q404 449 452 400 Q499 350 500 259 Q499 169 452 119 Q404 70 326 69 Q247 70 200 119 Q152 169 151 259 Q152 350 200 400 Q247 449 326 450 L326 450 Z" /><glyph glyph-name="" unicode="p" d="M84 519 L84 -208 L171 -208 L171 60 L175 61 Q208 30 249 12 Q289 -6 337 -6 Q446 -5 511 64 Q576 133 578 259 Q576 385 512 455 Q448 524 346 525 Q293 524 249 503 Q206 481 172 446 L168 447 L162 519 L84 519 ZM492 259 Q491 169 447 121 Q403 73 331 72 Q280 72 241 93 Q202 113 171 150 L171 357 Q200 398 240 422 Q280 446 331 447 Q403 446 447 398 Q491 349 492 259 L492 259 Z" /><glyph glyph-name="" unicode="q" d="M486 475 Q448 499 403 512 Q357 525 306 525 Q198 524 132 455 Q66 385 64 259 Q66 133 131 64 Q196 -5 306 -6 Q353 -6 394 12 Q434 30 468 61 L472 60 L472 -208 L558 -208 L558 475 L486 475 ZM151 259 Q152 349 196 398 Q240 446 311 447 Q361 447 401 433 Q440 420 472 392 L472 150 Q440 113 401 93 Q362 72 311 72 Q240 73 196 121 Q152 169 151 259 L151 259 Z" /><glyph glyph-name="" unicode="r" d="M407 515 Q390 520 374 523 Q357 525 342 525 Q308 526 262 508 Q215 491 172 446 L168 447 L162 519 L84 519 L84 0 L171 0 L171 353 Q210 407 255 426 Q301 446 333 445 Q345 445 359 443 Q372 441 385 436 L407 515 Z" /><glyph glyph-name="" unicode="s" d="M345 147 Q344 108 310 89 Q277 69 229 69 Q189 69 156 79 Q122 89 85 108 L52 46 Q93 21 136 8 Q179 -6 233 -6 Q315 -6 371 33 Q426 71 428 148 Q410 273 282 296 Q154 318 136 388 Q137 418 164 435 Q192 451 233 451 Q273 451 308 440 Q342 429 376 411 L406 476 Q367 499 325 512 Q284 525 229 525 Q147 524 101 485 Q55 446 54 387 Q72 261 200 240 Q327 219 345 147 L345 147 Z" /><glyph glyph-name="" unicode="t" d="M406 103 Q374 84 348 78 Q321 72 301 72 Q269 70 238 94 Q206 117 204 184 L204 451 L370 451 L370 519 L204 519 L204 651 L133 651 L118 519 L28 519 L28 451 L118 451 L118 180 Q122 69 176 30 Q230 -9 286 -6 Q314 -6 351 3 Q387 12 431 37 L406 103 Z" /><glyph glyph-name="" unicode="u" d="M462 519 L462 163 Q423 110 378 90 Q332 70 300 71 Q257 69 216 100 Q175 132 172 221 L172 519 L86 519 L86 224 Q90 87 153 39 Q215 -9 282 -6 Q319 -7 367 12 Q415 31 461 77 L465 76 L471 0 L548 0 L548 519 L462 519 Z" /><glyph glyph-name="" unicode="v" d="M270 143 L266 143 L107 525 L14 519 L244 0 L293 0 L523 519 L431 525 L270 143 Z" /><glyph glyph-name="" unicode="w" d="M565 148 L561 148 L421 519 L391 519 L250 148 L246 148 L107 525 L14 519 L221 0 L267 0 L404 356 L408 356 L542 0 L591 0 L798 519 L705 525 L565 148 Z" /><glyph glyph-name="" unicode="x" d="M150 525 L49 519 L227 278 L21 0 L122 -6 L281 219 L439 -6 L540 0 L334 278 L512 519 L411 525 L281 338 L150 525 Z" /><glyph glyph-name="" unicode="y" d="M108 -208 L194 -214 L527 519 L435 525 L269 136 L265 136 L100 525 L7 519 L223 40 L108 -208 Z" /><glyph glyph-name="" unicode="z" d="M477 490 L477 519 L58 519 L58 445 L342 445 L40 29 L40 0 L484 0 L484 74 L178 74 L477 490 Z" /><glyph glyph-name="" unicode="{" d="M105 328 Q128 338 153 374 Q178 410 180 473 L180 658 Q181 691 204 714 Q227 736 259 737 L304 737 L304 806 L272 806 Q196 805 153 762 Q110 719 109 643 L109 505 Q110 448 94 410 Q77 371 30 358 L30 297 Q77 284 94 245 Q110 206 109 149 L109 17 Q110 -60 153 -103 Q196 -146 272 -147 L304 -147 L304 -78 L266 -78 Q228 -77 205 -53 Q181 -30 180 8 L180 181 Q178 244 153 281 Q128 318 105 328 L105 328 Z" /><glyph glyph-name="" unicode="|" d="M163 -154 L163 806 L92 806 L92 -154 L163 -154 Z" /><glyph glyph-name="" unicode="}" d="M240 328 Q217 318 192 281 Q167 244 165 181 L165 8 Q164 -30 141 -53 Q117 -77 79 -78 L41 -78 L41 -147 L73 -147 Q149 -146 192 -103 Q235 -60 236 17 L236 149 Q235 206 252 245 Q268 284 315 297 L315 358 Q268 371 252 410 Q235 448 236 505 L236 643 Q235 719 192 762 Q149 805 73 806 L41 806 L41 737 L86 737 Q119 736 142 714 Q164 691 165 658 L165 473 Q167 410 192 374 Q217 338 240 328 L240 328 Z" /><glyph glyph-name="" unicode="~" d="M224 350 Q191 351 168 364 Q145 377 118 395 L82 333 Q127 304 156 291 Q186 278 224 278 Q288 281 337 302 Q385 322 425 325 Q458 324 482 311 Q506 297 534 279 L570 340 Q526 369 496 383 Q465 397 424 397 Q369 394 321 374 Q273 353 224 350 L224 350 Z" /><glyph glyph-name="" unicode=" " d="" /><glyph glyph-name="" unicode="¡" d="M118 475 Q119 447 137 428 Q155 409 183 408 Q211 409 230 428 Q248 447 249 475 Q248 503 230 521 Q211 539 183 540 Q155 539 137 521 Q119 503 118 475 L118 475 ZM151 315 L137 -214 L231 -214 L216 315 L151 315 Z" /><glyph glyph-name="" unicode="¢" d="M383 -16 L383 110 Q432 113 468 126 Q504 140 538 160 L500 228 Q469 208 433 196 Q398 184 348 184 Q267 185 218 234 Q168 283 167 374 Q168 465 218 515 Q267 564 348 565 Q399 564 435 552 Q470 539 502 520 L538 589 Q505 607 469 621 Q433 635 383 638 L383 764 L311 764 L311 637 Q205 626 143 558 Q81 490 80 374 Q81 258 143 190 Q205 122 311 111 L311 -16 L383 -16 Z" /><glyph glyph-name="" unicode="£" d="M228 396 L228 492 Q230 593 271 635 Q312 677 371 676 Q417 676 455 665 Q494 655 534 633 L564 703 Q520 729 470 741 Q421 754 360 754 Q265 754 203 692 Q140 629 138 503 L138 396 L55 396 L55 332 L138 332 L138 78 L53 78 L53 0 L533 0 L533 78 L228 78 L228 332 L452 332 L463 396 L228 396 Z" /><glyph glyph-name="" unicode="¥" d="M354 0 L354 260 L502 260 L519 320 L370 320 L419 420 L539 420 L556 480 L446 480 L575 748 L479 754 L311 380 L307 380 L139 754 L43 748 L171 480 L56 480 L73 420 L199 420 L247 320 L93 320 L110 260 L264 260 L264 0 L354 0 Z" /><glyph glyph-name="" unicode="§" d="M512 283 Q491 405 342 455 Q193 504 172 590 Q173 636 203 659 Q233 683 283 683 Q313 683 354 666 Q394 648 425 607 L471 662 Q432 710 379 732 Q327 754 283 754 Q203 754 150 712 Q96 671 94 589 Q94 555 109 529 Q124 503 149 481 Q105 448 81 412 Q57 376 57 327 Q78 205 227 156 Q376 107 397 20 Q396 -26 366 -49 Q336 -72 287 -72 Q256 -72 216 -55 Q175 -38 144 3 L99 -51 Q138 -99 191 -122 Q243 -144 287 -144 Q366 -144 420 -102 Q473 -61 475 21 Q475 54 460 81 Q444 107 420 129 Q464 161 488 198 Q512 234 512 283 L512 283 ZM434 278 Q434 246 417 221 Q400 196 366 172 Q287 214 213 248 Q140 282 135 332 Q135 364 152 389 Q168 414 202 438 Q282 396 356 362 Q429 328 434 278 L434 278 Z" /><glyph glyph-name="" unicode="¨" d="M17 661 Q18 637 34 620 Q49 604 74 603 Q99 604 115 620 Q131 637 132 661 Q131 686 115 702 Q98 717 73 718 Q50 717 34 701 Q18 685 17 661 L17 661 ZM214 661 Q215 637 231 620 Q246 604 271 603 Q296 604 312 620 Q328 637 329 661 Q328 686 312 702 Q295 717 270 718 Q247 717 231 701 Q215 685 214 661 L214 661 Z" /><glyph glyph-name="" unicode="©" d="M558 252 Q522 234 491 228 Q460 221 438 221 Q365 221 326 260 Q286 299 285 375 Q286 449 329 488 Q371 528 438 528 Q467 528 498 522 Q529 515 553 504 L580 561 Q551 575 512 584 Q474 592 438 592 Q344 591 284 536 Q224 480 222 375 Q223 268 279 213 Q336 157 438 157 Q466 157 504 165 Q542 174 586 196 L558 252 ZM53 374 Q57 212 164 105 Q271 -2 433 -6 Q595 -2 702 105 Q809 212 813 374 Q809 536 702 643 Q595 750 433 754 Q271 750 164 643 Q57 536 53 374 L53 374 ZM105 374 Q109 513 201 606 Q294 698 433 702 Q572 698 665 606 Q757 513 761 374 Q757 235 665 142 Q572 50 433 46 Q294 50 201 142 Q109 235 105 374 L105 374 Z" /><glyph glyph-name="" unicode="ª" d="M260 436 L318 436 L318 618 Q317 684 280 719 Q242 754 178 754 Q144 754 115 745 Q86 736 58 722 L82 675 Q106 686 128 693 Q150 700 173 700 Q205 701 227 682 Q249 662 251 612 Q228 619 210 623 Q191 626 169 626 Q83 623 59 591 Q34 558 37 532 Q38 487 68 460 Q99 433 151 432 Q175 432 201 442 Q228 452 251 474 L255 474 L260 436 ZM251 569 Q248 518 219 500 Q190 483 165 484 Q136 484 120 498 Q103 511 103 534 Q102 549 116 565 Q130 581 175 582 Q217 582 251 569 L251 569 Z" /><glyph glyph-name="" unicode="«" d="M229 592 L67 367 L67 359 L229 133 L280 171 L148 364 L280 554 L229 592 ZM448 592 L286 367 L286 359 L448 133 L499 171 L367 364 L499 554 L448 592 Z" /><glyph glyph-name="" unicode="¬" d="M516 195 L587 195 L587 482 L66 482 L66 411 L516 411 L516 195 Z" /><glyph glyph-name="" unicode="®" d="M289 600 L289 163 L352 163 L352 325 L446 325 L533 158 L603 167 L508 338 Q553 355 574 390 Q594 426 594 463 Q595 510 561 553 Q528 597 452 600 L289 600 ZM352 539 L451 539 Q495 537 514 513 Q532 489 532 461 Q533 434 514 408 Q496 383 451 381 L352 381 L352 539 ZM53 374 Q57 212 164 105 Q271 -2 433 -6 Q595 -2 702 105 Q809 212 813 374 Q809 536 702 643 Q595 750 433 754 Q271 750 164 643 Q57 536 53 374 L53 374 ZM105 374 Q109 513 201 606 Q294 698 433 702 Q572 698 665 606 Q757 513 761 374 Q757 235 665 142 Q572 50 433 46 Q294 50 201 142 Q109 235 105 374 L105 374 Z" /><glyph glyph-name="" unicode="¯" d="M10 690 L10 629 L275 629 L275 690 L10 690 Z" /><glyph glyph-name="" unicode="°" d="M44 598 Q46 533 88 491 Q130 448 194 447 Q258 448 301 491 Q343 533 345 598 Q343 662 301 704 Q258 746 194 748 Q130 746 88 704 Q46 662 44 598 L44 598 ZM97 598 Q98 640 125 667 Q153 694 194 695 Q236 694 263 667 Q290 640 291 598 Q290 556 263 529 Q236 502 194 501 Q153 502 125 529 Q98 556 97 598 L97 598 Z" /><glyph glyph-name="" unicode="±" d="M66 369 L291 369 L291 211 L362 211 L362 369 L587 369 L587 441 L362 441 L362 599 L291 599 L291 441 L66 441 L66 369 ZM66 149 L66 77 L587 77 L587 149 L66 149 Z" /><glyph glyph-name="" unicode="´" d="M-4 585 L70 585 L201 735 L94 735 L-4 585 Z" /><glyph glyph-name="" unicode="µ" d="M168 -208 L168 35 L171 36 Q192 12 221 3 Q250 -6 278 -6 Q314 -7 363 12 Q411 31 456 77 L460 76 L466 0 L544 0 L544 519 L457 519 L457 163 Q418 110 373 90 Q328 70 296 71 Q253 69 212 100 Q171 132 168 221 L168 519 L81 519 L81 -208 L168 -208 Z" /><glyph glyph-name="" unicode="¶" d="M300 -208 L371 -208 L371 670 L532 670 L532 -208 L603 -208 L603 748 L293 748 Q188 745 119 676 Q50 606 47 502 Q50 399 121 330 Q192 261 300 258 L300 -208 Z" /><glyph glyph-name="" unicode="·" d="M202 379 Q201 407 183 426 Q164 444 137 445 Q109 444 90 426 Q71 407 70 379 Q71 352 90 333 Q109 315 137 314 Q164 315 183 333 Q201 352 202 379 L202 379 Z" /><glyph glyph-name="" unicode="¸" d="M147 25 L24 -147 L92 -189 L199 -4 L147 25 Z" /><glyph glyph-name="" unicode="º" d="M195 754 Q124 754 81 712 Q38 670 37 592 Q38 516 81 475 Q124 433 195 432 Q267 433 310 475 Q353 516 354 592 Q353 670 310 712 Q267 754 195 754 L195 754 ZM195 697 Q236 697 262 669 Q287 641 288 592 Q287 544 262 517 Q236 489 195 489 Q154 489 129 517 Q105 544 104 592 Q105 641 129 669 Q154 697 195 697 L195 697 Z" /><glyph glyph-name="" unicode="»" d="M77 554 L209 364 L77 171 L128 133 L290 359 L290 367 L128 592 L77 554 ZM296 554 L428 364 L296 171 L347 133 L509 359 L509 367 L347 592 L296 554 Z" /><glyph glyph-name="" unicode="¿" d="M294 321 L235 321 L227 208 Q162 175 105 117 Q48 59 44 -28 Q47 -126 111 -170 Q175 -215 259 -214 Q307 -214 352 -197 Q397 -181 444 -142 L403 -81 Q365 -114 332 -127 Q298 -140 265 -140 Q211 -140 171 -111 Q131 -81 129 -17 Q132 46 186 95 Q240 144 306 176 L294 321 ZM330 481 Q329 509 311 527 Q293 545 265 546 Q237 545 219 527 Q201 509 200 481 Q201 453 219 434 Q237 415 265 414 Q293 415 311 434 Q329 453 330 481 L330 481 Z" /><glyph glyph-name="" unicode="à" d="M178 167 L541 167 L616 -6 L707 0 L381 748 L337 748 L11 0 L104 -6 L178 167 ZM206 241 L357 599 L361 599 L513 241 L206 241 ZM364 946 L257 946 L388 796 L462 796 L364 946 Z" /><glyph glyph-name="" unicode="á" d="M178 167 L541 167 L616 -6 L707 0 L381 748 L337 748 L11 0 L104 -6 L178 167 ZM206 241 L357 599 L361 599 L513 241 L206 241 ZM260 796 L334 796 L465 946 L358 946 L260 796 Z" /><glyph glyph-name="" unicode="â" d="M178 167 L541 167 L616 -6 L707 0 L381 748 L337 748 L11 0 L104 -6 L178 167 ZM206 241 L357 599 L361 599 L513 241 L206 241 ZM407 945 L312 945 L208 795 L273 795 L359 889 L446 795 L511 795 L407 945 Z" /><glyph glyph-name="" unicode="ã" d="M178 167 L541 167 L616 -6 L707 0 L381 748 L337 748 L11 0 L104 -6 L178 167 ZM206 241 L357 599 L361 599 L513 241 L206 241 ZM518 889 Q488 912 464 919 Q439 927 424 926 Q376 924 346 907 Q316 889 290 887 Q278 887 264 892 Q249 898 232 911 L202 856 Q225 835 247 826 Q269 818 289 818 Q326 820 358 837 Q390 854 423 856 Q433 857 450 852 Q467 847 491 831 L518 889 Z" /><glyph glyph-name="" unicode="ä" d="M178 167 L541 167 L616 -6 L707 0 L381 748 L337 748 L11 0 L104 -6 L178 167 ZM206 241 L357 599 L361 599 L513 241 L206 241 ZM203 869 Q204 845 220 828 Q235 812 260 811 Q285 812 301 828 Q317 845 318 869 Q317 894 301 910 Q284 925 259 926 Q236 925 220 909 Q204 893 203 869 L203 869 ZM400 869 Q401 845 417 828 Q432 812 457 811 Q482 812 498 828 Q514 845 515 869 Q514 894 498 910 Q481 925 456 926 Q433 925 417 909 Q401 893 400 869 L400 869 Z" /><glyph glyph-name="" unicode="å" d="M178 167 L541 167 L616 -6 L707 0 L381 748 L337 748 L11 0 L104 -6 L178 167 ZM206 241 L357 599 L361 599 L513 241 L206 241 ZM263 875 Q264 834 291 807 Q318 780 359 779 Q400 780 427 807 Q454 834 455 875 Q454 916 427 943 Q400 970 359 971 Q318 970 291 943 Q264 916 263 875 L263 875 ZM307 875 Q308 897 322 912 Q337 926 359 927 Q381 926 396 912 Q410 897 411 875 Q410 853 396 838 Q381 824 359 823 Q337 824 322 838 Q308 853 307 875 L307 875 Z" /><glyph glyph-name="" unicode="æ" d="M178 167 L487 167 L487 0 L956 0 L956 78 L577 78 L577 351 L914 351 L914 425 L577 425 L577 670 L956 670 L956 748 L337 748 L11 1 L104 -6 L178 167 ZM206 241 L386 670 L487 670 L487 241 L206 241 Z" /><glyph glyph-name="" unicode="ç" d="M675 679 Q617 714 556 734 Q494 754 421 754 Q244 750 154 643 Q64 536 64 374 Q64 222 144 118 Q223 13 379 -4 L278 -147 L346 -189 L453 -5 Q515 -1 569 19 Q623 38 675 69 L636 143 Q587 111 535 94 Q483 76 421 76 Q289 79 222 164 Q154 248 154 374 Q154 501 222 585 Q289 669 421 672 Q483 672 535 654 Q587 637 636 605 L675 679 Z" /><glyph glyph-name="" unicode="è" d="M594 670 L594 748 L95 748 L95 0 L594 0 L594 78 L185 78 L185 351 L552 351 L552 425 L185 425 L185 670 L594 670 ZM333 945 L226 945 L357 795 L431 795 L333 945 Z" /><glyph glyph-name="" unicode="é" d="M594 670 L594 748 L95 748 L95 0 L594 0 L594 78 L185 78 L185 351 L552 351 L552 425 L185 425 L185 670 L594 670 ZM286 795 L360 795 L491 945 L384 945 L286 795 Z" /><glyph glyph-name="" unicode="ê" d="M594 670 L594 748 L95 748 L95 0 L594 0 L594 78 L185 78 L185 351 L552 351 L552 425 L185 425 L185 670 L594 670 ZM399 945 L304 945 L200 795 L265 795 L351 889 L438 795 L503 795 L399 945 Z" /><glyph glyph-name="" unicode="ë" d="M594 670 L594 748 L95 748 L95 0 L594 0 L594 78 L185 78 L185 351 L552 351 L552 425 L185 425 L185 670 L594 670 ZM217 871 Q218 847 234 830 Q249 814 274 813 Q299 814 315 830 Q331 847 332 871 Q331 896 315 912 Q298 927 273 928 Q250 927 234 911 Q218 895 217 871 L217 871 ZM414 871 Q415 847 431 830 Q446 814 471 813 Q496 814 512 830 Q528 847 529 871 Q528 896 512 912 Q495 927 470 928 Q447 927 431 911 Q415 895 414 871 L414 871 Z" /><glyph glyph-name="" unicode="ñ" d="M646 0 L686 0 L686 748 L596 748 L596 184 L592 183 L125 748 L89 748 L89 0 L179 0 L179 557 L183 558 L646 0 ZM549 888 Q519 911 495 918 Q470 926 455 925 Q407 923 377 906 Q347 888 321 886 Q309 886 295 891 Q280 897 263 910 L233 855 Q256 834 278 825 Q300 817 320 817 Q357 819 389 836 Q421 853 454 855 Q464 856 481 851 Q498 846 522 830 L549 888 Z" /><glyph glyph-name="" unicode="ò" d="M425 754 Q250 750 158 644 Q65 538 64 374 Q65 210 158 104 Q250 -2 425 -6 Q600 -2 692 104 Q784 210 785 374 Q784 538 692 644 Q600 750 425 754 L425 754 ZM425 673 Q557 670 626 585 Q695 500 695 374 Q695 248 626 163 Q557 78 425 75 Q293 78 224 163 Q155 248 155 374 Q155 500 224 585 Q293 670 425 673 L425 673 ZM415 945 L308 945 L439 795 L513 795 L415 945 Z" /><glyph glyph-name="" unicode="ó" d="M425 754 Q250 750 158 644 Q65 538 64 374 Q65 210 158 104 Q250 -2 425 -6 Q600 -2 692 104 Q784 210 785 374 Q784 538 692 644 Q600 750 425 754 L425 754 ZM425 673 Q557 670 626 585 Q695 500 695 374 Q695 248 626 163 Q557 78 425 75 Q293 78 224 163 Q155 248 155 374 Q155 500 224 585 Q293 670 425 673 L425 673 ZM348 795 L422 795 L553 945 L446 945 L348 795 Z" /><glyph glyph-name="" unicode="ô" d="M425 754 Q250 750 158 644 Q65 538 64 374 Q65 210 158 104 Q250 -2 425 -6 Q600 -2 692 104 Q784 210 785 374 Q784 538 692 644 Q600 750 425 754 L425 754 ZM425 673 Q557 670 626 585 Q695 500 695 374 Q695 248 626 163 Q557 78 425 75 Q293 78 224 163 Q155 248 155 374 Q155 500 224 585 Q293 670 425 673 L425 673 ZM469 945 L374 945 L270 795 L335 795 L421 889 L508 795 L573 795 L469 945 Z" /><glyph glyph-name="" unicode="õ" d="M425 754 Q250 750 158 644 Q65 538 64 374 Q65 210 158 104 Q250 -2 425 -6 Q600 -2 692 104 Q784 210 785 374 Q784 538 692 644 Q600 750 425 754 L425 754 ZM425 673 Q557 670 626 585 Q695 500 695 374 Q695 248 626 163 Q557 78 425 75 Q293 78 224 163 Q155 248 155 374 Q155 500 224 585 Q293 670 425 673 L425 673 ZM588 890 Q558 913 534 920 Q509 928 494 927 Q446 925 416 908 Q386 890 360 888 Q348 888 334 893 Q319 899 302 912 L272 857 Q295 836 317 827 Q339 819 359 819 Q396 821 428 838 Q460 855 493 857 Q503 858 520 853 Q537 848 561 832 L588 890 Z" /><glyph glyph-name="" unicode="ö" d="M425 754 Q250 750 158 644 Q65 538 64 374 Q65 210 158 104 Q250 -2 425 -6 Q600 -2 692 104 Q784 210 785 374 Q784 538 692 644 Q600 750 425 754 L425 754 ZM425 673 Q557 670 626 585 Q695 500 695 374 Q695 248 626 163 Q557 78 425 75 Q293 78 224 163 Q155 248 155 374 Q155 500 224 585 Q293 670 425 673 L425 673 ZM269 871 Q270 847 286 830 Q301 814 326 813 Q351 814 367 830 Q383 847 384 871 Q383 896 367 912 Q350 927 325 928 Q302 927 286 911 Q270 895 269 871 L269 871 ZM466 871 Q467 847 483 830 Q498 814 523 813 Q548 814 564 830 Q580 847 581 871 Q580 896 564 912 Q547 927 522 928 Q499 927 483 911 Q467 895 466 871 L466 871 Z" /><glyph glyph-name="" unicode="ø" d="M717 754 L653 680 Q610 715 553 734 Q496 754 425 754 Q250 750 158 644 Q65 538 64 374 Q64 296 87 228 Q109 160 153 109 L90 36 L131 -4 L194 69 Q238 33 296 14 Q354 -6 425 -6 Q600 -2 692 104 Q784 210 785 374 Q785 453 762 521 Q738 590 694 641 L758 713 L717 754 ZM695 374 Q695 247 626 161 Q557 75 425 72 Q372 72 328 88 Q285 103 252 132 L632 573 Q663 534 679 483 Q695 432 695 374 L695 374 ZM425 676 Q478 676 520 660 Q563 645 595 617 L216 178 Q186 217 171 267 Q155 317 155 374 Q155 501 224 587 Q293 673 425 676 L425 676 Z" /><glyph glyph-name="" unicode="ù" d="M602 748 L602 322 Q602 212 548 143 Q493 73 388 71 Q283 73 229 143 Q174 212 174 322 L174 748 L84 748 L84 322 Q84 177 161 86 Q238 -4 388 -7 Q538 -4 615 86 Q692 177 692 322 L692 748 L602 748 ZM359 945 L252 945 L383 795 L457 795 L359 945 Z" /><glyph glyph-name="" unicode="ú" d="M602 748 L602 322 Q602 212 548 143 Q493 73 388 71 Q283 73 229 143 Q174 212 174 322 L174 748 L84 748 L84 322 Q84 177 161 86 Q238 -4 388 -7 Q538 -4 615 86 Q692 177 692 322 L692 748 L602 748 ZM308 795 L382 795 L513 945 L406 945 L308 795 Z" /><glyph glyph-name="" unicode="û" d="M602 748 L602 322 Q602 212 548 143 Q493 73 388 71 Q283 73 229 143 Q174 212 174 322 L174 748 L84 748 L84 322 Q84 177 161 86 Q238 -4 388 -7 Q538 -4 615 86 Q692 177 692 322 L692 748 L602 748 ZM432 945 L337 945 L233 795 L298 795 L384 889 L471 795 L536 795 L432 945 Z" /><glyph glyph-name="" unicode="ü" d="M602 748 L602 322 Q602 212 548 143 Q493 73 388 71 Q283 73 229 143 Q174 212 174 322 L174 748 L84 748 L84 322 Q84 177 161 86 Q238 -4 388 -7 Q538 -4 615 86 Q692 177 692 322 L692 748 L602 748 ZM232 871 Q233 847 249 830 Q264 814 289 813 Q314 814 330 830 Q346 847 347 871 Q346 896 330 912 Q313 927 288 928 Q265 927 249 911 Q233 895 232 871 L232 871 ZM429 871 Q430 847 446 830 Q461 814 486 813 Q511 814 527 830 Q543 847 544 871 Q543 896 527 912 Q510 927 485 928 Q462 927 446 911 Q430 895 429 871 L429 871 Z" /><glyph glyph-name="" unicode="ß" d="M543 595 Q542 680 482 737 Q422 794 310 796 Q206 795 145 736 Q83 678 81 573 L81 0 L168 0 L168 572 Q168 640 205 679 Q242 718 310 719 Q376 718 415 682 Q455 646 456 584 Q455 525 424 487 Q392 449 349 448 L260 448 L260 379 L354 379 Q419 378 464 337 Q508 296 510 227 Q508 155 462 115 Q416 75 351 74 L260 74 L260 0 L376 0 Q472 2 535 65 Q598 128 600 221 Q599 294 559 350 Q519 405 456 426 L455 430 Q498 454 520 497 Q543 540 543 595 L543 595 Z" /><glyph glyph-name="" unicode="æ" d="M674 525 Q612 525 561 498 Q510 472 477 422 Q450 472 401 498 Q352 525 286 525 Q229 525 181 510 Q133 496 88 473 L119 410 Q158 428 196 441 Q234 453 280 453 Q346 454 386 414 Q425 375 426 288 Q387 302 345 309 Q303 315 273 315 Q131 310 90 256 Q49 202 54 159 Q55 85 106 40 Q157 -5 245 -6 Q302 -7 362 20 Q422 47 461 120 Q493 59 552 26 Q611 -7 690 -7 Q754 -7 803 7 Q852 21 895 45 L862 108 Q825 88 784 77 Q742 66 690 66 Q615 66 566 109 Q518 152 514 233 L904 233 L909 259 Q910 381 854 452 Q798 523 674 525 L674 525 ZM264 61 Q209 62 177 90 Q145 118 144 163 Q141 191 167 224 Q193 256 282 259 Q317 259 353 253 Q389 246 426 232 Q421 131 366 95 Q310 59 264 61 L264 61 ZM673 455 Q744 454 783 411 Q822 369 823 298 L515 298 Q518 362 560 408 Q602 453 673 455 L673 455 Z" /><glyph glyph-name="" unicode="ç" d="M522 474 Q484 496 441 510 Q399 525 333 525 Q211 524 139 455 Q66 385 64 259 Q65 142 128 74 Q191 6 297 -4 L197 -147 L265 -189 L371 -4 Q418 -1 454 12 Q489 25 522 45 L484 113 Q453 93 417 81 Q382 69 332 69 Q251 70 202 119 Q152 168 151 259 Q152 350 202 400 Q251 449 332 450 Q383 449 419 437 Q454 424 486 405 L522 474 Z" /><glyph glyph-name="" unicode="ë" d="M548 259 Q549 381 493 452 Q436 523 312 525 Q205 524 136 455 Q66 385 64 259 Q66 133 137 64 Q209 -5 329 -6 Q393 -6 442 8 Q491 21 533 45 L500 108 Q464 88 422 77 Q380 66 328 66 Q253 66 204 109 Q156 152 152 233 L543 233 L548 259 ZM311 455 Q383 454 422 411 Q461 369 462 298 L154 298 Q156 362 198 408 Q240 453 311 455 L311 455 ZM149 661 Q150 637 166 620 Q181 604 206 603 Q231 604 247 620 Q263 637 264 661 Q263 686 247 702 Q230 717 205 718 Q182 717 166 701 Q150 685 149 661 L149 661 ZM346 661 Q347 637 363 620 Q378 604 403 603 Q428 604 444 620 Q460 637 461 661 Q460 686 444 702 Q427 717 402 718 Q379 717 363 701 Q347 685 346 661 L346 661 Z" /><glyph glyph-name="" unicode="ï" d="M182 0 L182 519 L96 519 L96 0 L182 0 ZM-18 661 Q-17 637 -1 620 Q14 604 39 603 Q64 604 80 620 Q96 637 97 661 Q96 686 80 702 Q63 717 38 718 Q15 717 -1 701 Q-17 685 -18 661 L-18 661 ZM179 661 Q180 637 196 620 Q211 604 236 603 Q261 604 277 620 Q293 637 294 661 Q293 686 277 702 Q260 717 235 718 Q212 717 196 701 Q180 685 179 661 L179 661 Z" /><glyph glyph-name="" unicode="ñ" d="M171 0 L171 356 Q210 410 255 429 Q301 449 333 448 Q376 450 417 419 Q457 388 460 299 L460 0 L547 0 L547 296 Q543 433 481 481 Q418 528 351 525 Q314 526 266 507 Q218 489 172 443 L168 444 L162 519 L84 519 L84 0 L171 0 ZM487 665 Q457 688 433 695 Q408 703 393 702 Q345 700 315 683 Q285 665 259 663 Q247 663 233 668 Q218 674 201 687 L171 632 Q194 611 216 602 Q238 594 258 594 Q295 596 327 613 Q359 630 392 632 Q402 633 419 628 Q436 623 460 607 L487 665 Z" /><glyph glyph-name="" unicode="÷" d="M255 129 Q256 98 276 78 Q296 58 326 57 Q356 58 376 78 Q396 98 397 129 Q396 159 376 179 Q356 199 326 200 Q296 199 276 179 Q256 159 255 129 L255 129 ZM255 547 Q256 517 276 497 Q296 478 326 477 Q356 478 376 497 Q396 517 397 547 Q396 577 376 598 Q356 618 326 619 Q296 618 276 598 Q256 577 255 547 L255 547 ZM66 302 L587 302 L587 374 L66 374 L66 302 Z" /><glyph glyph-name="" unicode="ø" d="M571 484 L532 523 L487 476 Q455 499 413 512 Q372 525 324 525 Q207 524 136 455 Q65 386 63 259 Q63 204 78 160 Q92 115 119 82 L75 35 L115 -4 L159 44 Q191 20 233 7 Q275 -6 324 -6 Q441 -5 512 64 Q583 134 585 259 Q585 315 570 359 Q556 404 528 437 L571 484 ZM499 259 Q498 169 451 119 Q403 70 324 69 Q261 69 216 102 L464 373 Q481 351 490 323 Q499 294 499 259 L499 259 ZM324 450 Q355 450 382 442 Q408 434 430 418 L183 146 Q167 167 158 195 Q149 224 149 259 Q150 350 198 400 Q245 449 324 450 L324 450 Z" /><glyph glyph-name="" unicode="ù" d="M462 519 L462 163 Q423 110 378 90 Q332 70 300 71 Q257 69 216 100 Q175 132 172 221 L172 519 L86 519 L86 224 Q90 87 153 39 Q215 -9 282 -6 Q319 -7 367 12 Q415 31 461 77 L465 76 L471 0 L548 0 L548 519 L462 519 ZM303 735 L196 735 L327 585 L401 585 L303 735 Z" /><glyph glyph-name="" unicode="ú" d="M462 519 L462 163 Q423 110 378 90 Q332 70 300 71 Q257 69 216 100 Q175 132 172 221 L172 519 L86 519 L86 224 Q90 87 153 39 Q215 -9 282 -6 Q319 -7 367 12 Q415 31 461 77 L465 76 L471 0 L548 0 L548 519 L462 519 ZM246 585 L320 585 L451 735 L344 735 L246 585 Z" /><glyph glyph-name="" unicode="û" d="M462 519 L462 163 Q423 110 378 90 Q332 70 300 71 Q257 69 216 100 Q175 132 172 221 L172 519 L86 519 L86 224 Q90 87 153 39 Q215 -9 282 -6 Q319 -7 367 12 Q415 31 461 77 L465 76 L471 0 L548 0 L548 519 L462 519 ZM364 735 L269 735 L165 585 L230 585 L316 679 L403 585 L468 585 L364 735 Z" /><glyph glyph-name="" unicode="ü" d="M462 519 L462 163 Q423 110 378 90 Q332 70 300 71 Q257 69 216 100 Q175 132 172 221 L172 519 L86 519 L86 224 Q90 87 153 39 Q215 -9 282 -6 Q319 -7 367 12 Q415 31 461 77 L465 76 L471 0 L548 0 L548 519 L462 519 ZM164 661 Q165 637 181 620 Q196 604 221 603 Q246 604 262 620 Q278 637 279 661 Q278 686 262 702 Q245 717 220 718 Q197 717 181 701 Q165 685 164 661 L164 661 ZM361 661 Q362 637 378 620 Q393 604 418 603 Q443 604 459 620 Q475 637 476 661 Q475 686 459 702 Q442 717 417 718 Q394 717 378 701 Q362 685 361 661 L361 661 Z" /><glyph glyph-name="" unicode="ÿ" d="M105 -208 L191 -214 L524 519 L432 525 L266 136 L262 136 L97 525 L4 519 L220 40 L105 -208 ZM113 661 Q114 637 130 620 Q145 604 170 603 Q195 604 211 620 Q227 637 228 661 Q227 686 211 702 Q194 717 169 718 Q146 717 130 701 Q114 685 113 661 L113 661 ZM310 661 Q311 637 327 620 Q342 604 367 603 Q392 604 408 620 Q424 637 425 661 Q424 686 408 702 Q391 717 366 718 Q343 717 327 701 Q311 685 310 661 L310 661 Z" /><glyph glyph-name="" unicode="&#x131;" d="M184 0 L184 519 L98 519 L98 0 L184 0 Z" /><glyph glyph-name="" unicode="&#x152;" d="M1037 670 L1037 748 L543 748 Q518 751 492 753 Q467 754 446 754 Q252 750 158 644 Q64 538 64 374 Q64 210 158 104 Q252 -2 446 -6 Q467 -6 492 -4 Q518 -3 543 0 L1037 0 L1037 78 L631 78 L631 351 L995 351 L995 425 L631 425 L631 670 L1037 670 ZM155 374 Q154 501 225 586 Q295 672 446 675 Q466 675 491 673 Q515 670 541 665 L541 82 Q515 78 491 75 Q466 73 446 73 Q295 76 225 162 Q154 247 155 374 L155 374 Z" /><glyph glyph-name="" unicode="&#x153;" d="M326 450 Q404 449 452 400 Q499 350 500 259 Q499 169 452 119 Q404 69 326 68 Q247 69 200 119 Q152 169 151 259 Q152 350 200 400 Q247 449 326 450 L326 450 ZM748 525 Q682 525 628 495 Q575 465 543 409 Q511 465 455 495 Q399 525 326 525 Q208 524 137 455 Q66 386 64 259 Q66 133 137 64 Q208 -6 326 -7 Q399 -7 456 23 Q512 53 543 110 Q576 53 633 23 Q689 -7 764 -7 Q829 -7 878 7 Q927 21 969 45 L936 108 Q900 88 858 77 Q816 66 764 66 Q689 66 640 109 Q592 152 588 233 L979 233 L983 259 Q984 381 928 452 Q872 523 748 525 L748 525 ZM747 455 Q818 454 857 411 Q896 369 897 298 L589 298 Q592 362 634 408 Q676 453 747 455 L747 455 Z" /><glyph glyph-name="" unicode="&#x178;" d="M11 748 L285 287 L285 0 L375 0 L375 289 L649 748 L545 754 L332 366 L328 366 L114 754 L11 748 ZM174 873 Q175 849 191 832 Q206 816 231 815 Q256 816 272 832 Q288 849 289 873 Q288 898 272 914 Q255 929 230 930 Q207 929 191 913 Q175 897 174 873 L174 873 ZM371 873 Q372 849 388 832 Q403 816 428 815 Q453 816 469 832 Q485 849 486 873 Q485 898 469 914 Q452 929 427 930 Q404 929 388 913 Q372 897 371 873 L371 873 Z" /><glyph glyph-name="" unicode="&#x192;" d="M154 471 L154 407 L274 407 L212 68 Q201 7 179 -23 Q157 -53 115 -53 Q100 -53 85 -49 Q69 -45 57 -36 L26 -107 Q47 -120 71 -127 Q96 -133 125 -133 Q196 -132 237 -86 Q279 -41 294 44 L361 407 L497 407 L509 471 L372 471 L398 608 Q404 645 425 677 Q447 710 491 712 Q529 712 559 692 L591 758 Q570 774 540 782 Q510 790 484 790 Q408 788 367 739 Q326 691 314 622 L286 471 L154 471 Z" /><glyph glyph-name="" unicode="&#x2c6;" d="M209 735 L114 735 L10 585 L75 585 L161 679 L248 585 L313 585 L209 735 Z" /><glyph glyph-name="" unicode="&#x2c7;" d="M313 735 L248 735 L161 641 L75 735 L10 735 L114 585 L209 585 L313 735 Z" /><glyph glyph-name="" unicode="&#x2d8;" d="M10 735 Q15 669 56 634 Q97 598 162 598 Q227 598 268 634 Q309 669 317 735 L260 735 Q252 696 227 679 Q202 661 162 661 Q125 661 99 680 Q73 699 66 735 L10 735 Z" /><glyph glyph-name="" unicode="&#x2d9;" d="M10 660 Q11 635 27 620 Q43 604 68 603 Q93 604 109 620 Q124 635 125 660 Q124 685 108 701 Q91 717 67 718 Q43 717 27 701 Q11 684 10 660 L10 660 Z" /><glyph glyph-name="" unicode="&#x2da;" d="M10 669 Q11 628 38 601 Q65 574 106 573 Q147 574 174 601 Q201 628 202 669 Q201 710 174 737 Q147 764 106 765 Q65 764 38 737 Q11 710 10 669 L10 669 ZM54 669 Q55 691 69 706 Q84 720 106 721 Q128 720 143 706 Q157 691 158 669 Q157 647 143 632 Q128 618 106 617 Q84 618 69 632 Q55 647 54 669 L54 669 Z" /><glyph glyph-name="" unicode="&#x2db;" d="M189 -125 Q153 -125 126 -112 Q100 -98 99 -70 Q100 -38 121 -18 Q141 1 168 9 L155 54 Q110 44 70 11 Q30 -23 27 -77 Q30 -133 72 -160 Q115 -186 168 -189 L189 -125 Z" /><glyph glyph-name="" unicode="&#x2dc;" d="M326 665 Q296 688 272 695 Q247 703 232 702 Q184 700 154 683 Q124 665 98 663 Q86 663 72 668 Q57 674 40 687 L10 632 Q33 611 55 602 Q77 594 97 594 Q134 596 166 613 Q198 630 231 632 Q241 633 258 628 Q275 623 299 607 L326 665 Z" /><glyph glyph-name="" unicode="&#x2dd;" d="M10 585 L79 585 L204 735 L102 735 L10 585 ZM192 585 L262 585 L387 735 L284 735 L192 585 Z" /><glyph glyph-name="" unicode="&#x3a9;" d="M561 78 L561 82 Q616 129 659 213 Q701 298 703 410 Q701 555 616 653 Q531 750 387 754 Q241 750 156 653 Q71 555 69 410 Q71 298 113 213 Q156 129 211 82 L211 78 L72 78 L72 0 L316 0 L316 61 Q258 107 210 191 Q162 274 159 389 Q160 511 219 592 Q278 673 386 676 Q494 673 553 592 Q612 511 613 389 Q610 274 563 191 Q515 107 456 61 L456 0 L700 0 L700 78 L561 78 Z" /><glyph glyph-name="" unicode="&#x3c0;" d="M233 445 L408 445 L408 145 Q408 109 411 68 Q415 28 420 0 L509 0 Q503 21 499 63 Q495 105 495 145 L495 445 L578 445 L578 519 L185 519 Q126 519 88 512 Q50 505 27 492 L44 424 Q58 430 83 436 Q108 441 149 443 Q144 332 126 207 Q107 81 81 0 L166 0 Q193 86 210 211 Q228 336 233 445 L233 445 Z" /><glyph glyph-name="" unicode="&#xfb01;" d="M543 0 L543 519 L193 519 L193 602 Q193 657 220 688 Q247 719 300 720 Q356 719 408 707 Q459 694 496 680 L519 745 Q475 765 416 779 Q357 794 295 795 Q209 795 159 746 Q108 697 107 604 L107 519 L31 519 L31 451 L107 451 L107 0 L193 0 L193 451 L457 451 L457 0 L543 0 Z" /><glyph glyph-name="" unicode="&#xfb02;" d="M544 734 Q490 760 424 777 Q358 794 295 795 Q209 795 159 746 Q108 697 107 604 L107 519 L31 519 L31 451 L107 451 L107 0 L193 0 L193 451 L343 451 L343 519 L193 519 L193 602 Q193 657 220 688 Q247 719 300 720 Q347 720 385 712 Q422 704 457 692 L457 161 Q458 78 491 35 Q523 -7 581 -7 Q587 -7 596 -6 Q604 -4 612 -2 L625 68 Q583 67 563 88 Q544 109 544 162 L544 734 Z" /><glyph glyph-name="" unicode="&#x2013;" d="M500 256 L500 328 L0 328 L0 256 L500 256 Z" /><glyph glyph-name="" unicode="&#x2014;" d="M766 256 L766 328 L0 328 L0 256 L766 256 Z" /><glyph glyph-name="" unicode="&#x2018;" d="M190 537 Q190 563 173 582 Q157 602 129 603 L187 737 L139 754 Q115 716 87 650 Q59 584 57 537 Q58 508 77 489 Q96 470 124 469 Q152 470 171 489 Q189 508 190 537 L190 537 Z" /><glyph glyph-name="" unicode="&#x2019;" d="M49 686 Q49 660 66 641 Q82 621 110 620 L52 487 L101 469 Q125 507 153 573 Q181 639 183 686 Q182 715 163 734 Q144 753 116 754 Q87 753 68 734 Q50 715 49 686 L49 686 Z" /><glyph glyph-name="" unicode="&#x201a;" d="M62 61 Q62 36 79 16 Q95 -4 123 -5 L65 -138 L114 -156 Q138 -118 166 -52 Q194 14 196 61 Q195 90 176 109 Q157 128 129 129 Q100 128 81 109 Q63 90 62 61 L62 61 Z" /><glyph glyph-name="" unicode="&#x201c;" d="M190 537 Q190 563 173 582 Q157 602 129 603 L187 737 L139 754 Q115 716 87 650 Q59 584 57 537 Q58 508 77 489 Q96 470 124 469 Q152 470 171 489 Q189 508 190 537 L190 537 ZM398 537 Q398 563 381 582 Q365 602 337 603 L395 737 L346 754 Q322 716 294 650 Q266 584 264 537 Q265 508 284 489 Q303 470 331 469 Q360 470 379 489 Q397 508 398 537 L398 537 Z" /><glyph glyph-name="" unicode="&#x201d;" d="M257 686 Q257 660 274 641 Q290 621 318 620 L260 487 L308 469 Q332 507 360 573 Q388 639 390 686 Q389 715 370 734 Q351 753 323 754 Q295 753 276 734 Q258 715 257 686 L257 686 ZM49 686 Q49 660 66 641 Q82 621 110 620 L52 487 L101 469 Q125 507 153 573 Q181 639 183 686 Q182 715 163 734 Q144 753 116 754 Q87 753 68 734 Q50 715 49 686 L49 686 Z" /><glyph glyph-name="" unicode="&#x201e;" d="M270 61 Q270 36 287 16 Q303 -4 331 -5 L273 -138 L321 -156 Q345 -118 373 -52 Q401 14 403 61 Q402 90 383 109 Q364 128 336 129 Q308 128 289 109 Q271 90 270 61 L270 61 ZM62 61 Q62 36 79 16 Q95 -4 123 -5 L65 -138 L114 -156 Q138 -118 166 -52 Q194 14 196 61 Q195 90 176 109 Q157 128 129 129 Q100 128 81 109 Q63 90 62 61 L62 61 Z" /><glyph glyph-name="" unicode="&#x2020;" d="M311 -78 L300 483 L501 470 L501 555 L300 542 L311 748 L226 748 L238 542 L40 555 L40 470 L238 483 L226 -78 L311 -78 Z" /><glyph glyph-name="" unicode="&#x2021;" d="M239 128 L226 -78 L311 -78 L298 128 L501 115 L501 200 L298 187 L298 483 L501 470 L501 555 L298 542 L311 748 L226 748 L239 542 L40 555 L40 470 L239 483 L239 187 L40 200 L40 115 L239 128 Z" /><glyph glyph-name="" unicode="&#x2022;" d="M304 374 Q303 424 270 457 Q237 491 187 492 Q137 491 104 457 Q71 424 70 374 Q71 324 104 292 Q137 259 187 258 Q237 259 270 292 Q303 324 304 374 L304 374 Z" /><glyph glyph-name="" unicode="&#x2026;" d="M81 61 Q82 33 101 14 Q120 -5 148 -6 Q176 -5 195 14 Q214 33 215 61 Q214 90 195 109 Q176 128 148 129 Q120 128 101 109 Q82 90 81 61 L81 61 ZM384 61 Q385 33 404 14 Q423 -5 451 -6 Q479 -5 498 14 Q517 33 518 61 Q517 90 498 109 Q479 128 451 129 Q423 128 404 109 Q385 90 384 61 L384 61 ZM687 61 Q688 33 707 14 Q726 -5 754 -6 Q782 -5 801 14 Q820 33 821 61 Q820 90 801 109 Q782 128 754 129 Q726 128 707 109 Q688 90 687 61 L687 61 Z" /><glyph glyph-name="" unicode="&#x2030;" d="M728 748 L661 754 L168 0 L235 -6 L728 748 ZM47 579 Q49 504 98 455 Q147 406 222 404 Q295 406 345 455 Q394 504 396 579 Q394 653 345 703 Q295 752 222 754 Q147 752 98 703 Q49 653 47 579 L47 579 ZM505 168 Q507 94 556 45 Q605 -4 679 -6 Q753 -4 803 45 Q852 94 854 168 Q852 243 803 292 Q753 342 679 344 Q605 342 556 292 Q507 243 505 168 L505 168 ZM111 579 Q112 626 143 657 Q174 689 222 690 Q268 689 300 657 Q331 626 332 579 Q331 532 300 501 Q268 469 222 468 Q174 469 143 501 Q112 532 111 579 L111 579 ZM569 168 Q570 216 601 247 Q632 279 679 280 Q726 279 757 247 Q789 216 790 168 Q789 121 757 90 Q726 59 679 58 Q632 59 601 90 Q570 121 569 168 L569 168 ZM923 168 Q925 94 974 45 Q1024 -4 1097 -6 Q1172 -4 1221 45 Q1271 94 1273 168 Q1271 243 1221 292 Q1172 342 1097 344 Q1024 342 974 292 Q925 243 923 168 L923 168 ZM988 168 Q989 216 1020 247 Q1051 279 1097 280 Q1145 279 1176 247 Q1207 216 1208 168 Q1207 121 1176 90 Q1145 59 1097 58 Q1051 59 1020 90 Q989 121 988 168 L988 168 Z" /><glyph glyph-name="" unicode="&#x2039;" d="M229 592 L67 367 L67 359 L229 133 L280 171 L148 364 L280 554 L229 592 Z" /><glyph glyph-name="" unicode="&#x203a;" d="M77 554 L209 364 L77 171 L128 133 L290 359 L290 367 L128 592 L77 554 Z" /><glyph glyph-name="" unicode="&#x2044;" d="M-85 -6 L371 748 L302 754 L-150 0 L-85 -6 Z" /><glyph glyph-name="" unicode="&#x20ac;" d="M195 320 Q194 333 194 346 Q193 359 193 373 Q193 387 193 398 Q193 408 194 420 L455 420 L472 480 L199 480 Q215 581 258 629 Q301 676 365 676 Q410 676 449 665 Q487 653 523 629 L559 700 Q516 726 469 740 Q422 754 365 754 Q262 754 197 686 Q131 619 111 480 L63 480 L46 420 L106 420 Q105 408 105 398 Q104 387 104 373 Q104 359 105 346 Q105 333 106 320 L63 320 L46 260 L114 260 Q135 129 202 62 Q268 -6 374 -6 Q428 -6 476 10 Q524 25 571 59 L532 127 Q494 98 455 85 Q417 72 374 72 Q306 72 262 119 Q218 166 201 260 L418 260 L435 320 L195 320 Z" /><glyph glyph-name="" unicode="&#x2122;" d="M587 476 L691 635 L695 634 L695 416 L749 416 L749 748 L709 748 L584 557 L459 748 L419 748 L419 416 L473 416 L473 634 L477 635 L581 476 L587 476 ZM351 748 L50 748 L50 701 L173 701 L173 416 L227 416 L227 701 L351 701 L351 748 Z" /><glyph glyph-name="" unicode="&#x2202;" d="M284 525 Q180 524 118 455 Q56 385 54 259 Q56 133 120 64 Q184 -5 290 -6 Q404 -8 472 72 Q541 152 543 335 Q539 604 457 702 Q375 801 264 795 Q205 794 162 777 Q119 759 93 738 L130 677 Q150 693 182 706 Q214 719 261 720 Q330 723 386 664 Q441 604 455 449 L452 448 Q427 484 384 504 Q341 525 284 525 L284 525 ZM299 450 Q348 450 386 427 Q423 404 451 355 Q453 326 453 299 Q454 201 418 136 Q383 71 299 69 Q228 70 185 119 Q142 168 141 259 Q142 350 185 400 Q228 449 299 450 L299 450 Z" /><glyph glyph-name="" unicode="&#x2206;" d="M152 78 L358 587 L362 587 L571 78 L152 78 ZM694 0 L695 3 L380 749 L341 749 L27 3 L28 0 L694 0 Z" /><glyph glyph-name="" unicode="&#x220f;" d="M219 0 L219 670 L507 670 L507 0 L597 0 L597 670 L678 670 L678 748 L47 748 L47 670 L129 670 L129 0 L219 0 Z" /><glyph glyph-name="" unicode="&#x2211;" d="M203 78 L202 82 L426 376 L211 666 L213 670 L595 670 L595 748 L65 748 L61 726 L326 377 L51 22 L55 0 L612 0 L612 78 L203 78 Z" /><glyph glyph-name="" unicode="&#x221a;" d="M306 -155 L555 846 L486 846 L277 -2 L273 -2 L155 408 L7 408 L7 339 L100 339 L249 -155 L306 -155 Z" /><glyph glyph-name="" unicode="&#x221e;" d="M547 195 Q608 196 648 236 Q688 275 689 336 Q688 397 648 436 Q608 476 547 477 Q496 476 452 449 Q407 422 366 378 Q325 422 281 449 Q237 476 186 477 Q125 476 85 436 Q45 397 44 336 Q45 275 85 236 Q125 196 186 195 Q237 196 281 223 Q325 249 366 293 Q407 249 452 223 Q496 196 547 195 L547 195 ZM547 256 Q502 257 468 280 Q435 302 407 336 Q435 370 468 393 Q502 415 547 416 Q582 415 604 393 Q627 371 628 336 Q627 301 604 279 Q582 257 547 256 L547 256 ZM186 256 Q151 257 128 279 Q106 301 105 336 Q106 371 128 393 Q151 415 186 416 Q230 415 264 393 Q297 370 326 336 Q297 302 264 280 Q230 257 186 256 L186 256 Z" /><glyph glyph-name="" unicode="&#x222b;" d="M359 892 L321 892 Q245 891 202 848 Q159 805 158 729 L158 22 Q158 -15 137 -36 Q116 -58 78 -58 L34 -58 L34 -126 L78 -126 Q149 -125 189 -86 Q228 -46 229 25 L229 732 Q229 774 254 799 Q278 823 321 823 L359 823 L359 892 Z" /><glyph glyph-name="" unicode="&#x2248;" d="M224 433 Q191 434 168 447 Q145 460 118 478 L82 417 Q127 387 156 374 Q186 361 224 361 Q288 364 337 385 Q385 405 425 408 Q458 407 482 394 Q506 380 534 363 L570 423 Q526 453 496 467 Q465 480 424 480 Q369 477 321 457 Q273 436 224 433 L224 433 ZM224 268 Q191 269 168 282 Q145 296 118 313 L82 252 Q127 223 156 210 Q186 197 224 197 Q288 200 337 221 Q385 241 425 244 Q458 243 482 230 Q506 216 534 198 L570 259 Q526 288 496 302 Q465 315 424 315 Q369 312 321 292 Q273 271 224 268 L224 268 Z" /><glyph glyph-name="" unicode="&#x2260;" d="M66 384 L328 384 L329 380 L245 291 L66 291 L66 220 L177 220 L179 216 L119 152 L158 116 L256 220 L587 220 L587 291 L323 291 L322 295 L406 384 L587 384 L587 456 L475 456 L474 460 L535 525 L495 561 L396 456 L66 456 L66 384 Z" /><glyph glyph-name="" unicode="&#x2264;" d="M554 152 L554 231 L190 385 L190 389 L554 544 L554 623 L101 421 L101 353 L554 152 ZM556 41 L556 113 L97 113 L97 41 L556 41 Z" /><glyph glyph-name="" unicode="&#x2265;" d="M552 353 L552 421 L99 623 L99 544 L463 389 L463 385 L99 231 L99 152 L552 353 ZM556 41 L556 113 L97 113 L97 41 L556 41 Z" /><glyph glyph-name="" unicode="&#x25ca;" d="M596 374 L352 777 L293 777 L47 374 L292 -29 L351 -29 L596 374 ZM514 373 L322 62 L129 375 L322 685 L514 373 Z" /><glyph glyph-name="" unicode="¦" d="M92 806 L92 407 L163 407 L163 806 L92 806 ZM92 244 L92 -155 L163 -155 L163 244 L92 244 Z" /><glyph glyph-name="" unicode="²" d="M326 610 Q325 674 282 711 Q238 748 171 749 Q148 749 114 740 Q80 731 43 707 L66 649 Q88 663 112 672 Q137 681 158 681 Q197 681 222 661 Q248 641 249 602 Q242 527 169 450 Q96 372 40 331 L40 290 L322 290 L322 358 L159 358 L157 361 Q225 413 274 478 Q324 544 326 610 L326 610 Z" /><glyph glyph-name="" unicode="³" d="M322 430 Q322 458 301 491 Q280 523 233 536 L233 540 Q275 556 289 584 Q304 612 303 637 Q302 690 263 719 Q225 748 166 748 Q141 748 109 738 Q77 729 44 707 L71 647 Q94 664 116 672 Q139 680 158 680 Q182 681 203 668 Q225 656 226 625 Q225 600 204 582 Q183 565 150 564 L127 564 L127 506 L150 506 Q190 506 217 486 Q243 466 244 432 Q243 395 221 376 Q198 357 161 357 Q140 357 117 367 Q94 377 73 392 L43 331 Q77 309 109 300 Q141 290 166 290 Q234 291 277 329 Q321 366 322 430 L322 430 Z" /><glyph glyph-name="" unicode="¹" d="M196 663 L196 290 L273 290 L273 748 L216 748 L87 676 L112 627 L196 663 Z" /><glyph glyph-name="" unicode="¼" d="M172 663 L172 290 L250 290 L250 748 L192 748 L63 676 L88 627 L172 663 ZM568 155 L567 158 L673 315 L676 314 L676 155 L568 155 ZM748 462 L703 462 L463 120 L466 94 L676 94 L676 0 L748 0 L748 94 L796 94 L796 155 L748 155 L748 462 ZM244 -6 L700 748 L631 754 L179 0 L244 -6 Z" /><glyph glyph-name="" unicode="½" d="M132 663 L132 290 L209 290 L209 748 L152 748 L23 676 L47 627 L132 663 ZM204 -6 L660 748 L590 754 L138 0 L204 -6 ZM836 320 Q835 384 792 421 Q748 458 681 459 Q658 459 624 450 Q590 441 553 417 L576 359 Q599 373 623 382 Q647 391 669 391 Q707 391 733 371 Q758 351 759 312 Q752 237 679 160 Q606 82 550 41 L550 0 L832 0 L832 68 L669 68 L668 71 Q735 123 784 188 Q834 254 836 320 L836 320 Z" /><glyph glyph-name="" unicode="¾" d="M320 430 Q320 458 299 491 Q277 523 231 536 L231 540 Q273 556 287 584 Q302 612 301 637 Q300 690 261 719 Q222 748 164 748 Q139 748 107 738 Q75 729 42 707 L69 647 Q92 664 114 672 Q137 680 156 680 Q180 681 201 668 Q223 656 224 625 Q223 600 202 582 Q180 565 148 564 L125 564 L125 506 L148 506 Q188 506 215 486 Q241 466 242 432 Q241 395 218 376 Q195 357 158 357 Q137 357 115 367 Q92 377 71 392 L41 331 Q75 309 107 300 Q139 290 164 290 Q232 291 275 329 Q319 366 320 430 L320 430 ZM267 -6 L722 748 L653 754 L201 0 L267 -6 ZM590 155 L589 158 L695 315 L699 314 L699 155 L590 155 ZM771 462 L725 462 L486 120 L488 94 L699 94 L699 0 L771 0 L771 94 L818 94 L818 155 L771 155 L771 462 Z" /><glyph glyph-name="" unicode="ð" d="M346 0 Q521 4 611 109 Q702 213 702 374 Q702 535 611 639 Q521 744 346 748 L96 748 L96 413 L20 413 L20 336 L96 336 L96 0 L346 0 ZM186 78 L186 336 L383 336 L383 413 L186 413 L186 670 L340 670 Q474 667 543 586 Q612 504 612 374 Q612 244 542 162 Q473 81 340 78 L186 78 Z" /><glyph glyph-name="" unicode="×" d="M146 107 L326 287 L507 107 L557 157 L377 338 L557 518 L507 569 L326 388 L146 569 L96 518 L276 338 L96 157 L146 107 Z" /><glyph glyph-name="" unicode="ý" d="M11 748 L285 287 L285 0 L375 0 L375 289 L649 748 L545 754 L332 366 L328 366 L114 754 L11 748 ZM247 795 L321 795 L452 945 L345 945 L247 795 Z" /><glyph glyph-name="" unicode="þ" d="M95 0 L185 0 L185 108 L336 108 Q445 110 524 181 Q603 253 607 377 Q603 500 524 572 Q445 644 336 646 L185 646 L185 748 L95 748 L95 0 ZM185 188 L185 566 L327 566 Q404 565 459 515 Q514 465 517 377 Q514 289 459 239 Q404 189 327 188 L185 188 Z" /><glyph glyph-name="" unicode="ð" d="M536 717 L491 756 L381 699 Q344 731 312 754 Q280 778 249 796 L207 736 Q230 721 256 702 Q281 683 306 662 L201 608 L241 565 L352 623 Q386 591 415 554 Q443 517 462 478 L459 476 Q435 494 398 505 Q360 516 315 516 Q202 515 134 448 Q66 381 64 259 Q66 133 136 64 Q206 -5 321 -6 Q444 -7 515 66 Q586 139 587 294 Q585 405 539 498 Q492 590 425 659 L536 717 ZM330 442 Q374 442 410 430 Q445 417 474 393 Q488 365 495 332 Q502 299 502 264 Q501 173 454 122 Q407 70 324 69 Q246 70 199 118 Q152 166 151 256 Q152 344 201 393 Q250 441 330 442 L330 442 Z" /><glyph glyph-name="" unicode="ý" d="M108 -208 L194 -214 L527 519 L435 525 L269 136 L265 136 L100 525 L7 519 L223 40 L108 -208 ZM197 585 L271 585 L402 735 L295 735 L197 585 Z" /><glyph glyph-name="" unicode="þ" d="M84 796 L84 -208 L171 -208 L171 49 L175 50 Q206 24 242 9 Q277 -6 313 -6 Q417 -5 474 64 Q530 133 531 259 Q530 385 474 455 Q417 524 313 525 Q273 525 239 510 Q205 495 175 468 L171 470 L171 796 L84 796 ZM445 259 Q445 169 409 121 Q374 73 307 72 Q268 72 235 89 Q201 106 171 136 L171 381 Q201 413 235 430 Q268 447 307 447 Q374 446 409 398 Q445 349 445 259 L445 259 Z" /><glyph glyph-name="" unicode="&#x141;" d="M192 78 L192 296 L419 494 L419 568 L415 570 L192 376 L192 748 L102 748 L102 298 L34 239 L34 162 L38 160 L102 217 L102 0 L571 0 L571 78 L192 78 Z" /><glyph glyph-name="" unicode="&#x142;" d="M189 367 L298 463 L298 537 L294 539 L189 448 L189 795 L102 795 L102 374 L27 309 L27 232 L31 230 L102 293 L102 161 Q103 78 136 35 Q168 -7 226 -7 Q232 -7 241 -6 Q249 -4 257 -2 L270 68 Q228 67 208 88 Q189 109 189 162 L189 367 Z" /><glyph glyph-name="" unicode="&#x160;" d="M68 73 Q127 33 190 13 Q253 -7 322 -7 Q445 -6 512 47 Q578 101 579 201 Q554 373 377 408 Q199 442 174 564 Q174 610 212 642 Q250 674 326 675 Q382 675 432 656 Q481 637 529 603 L568 675 Q513 713 456 734 Q398 754 329 754 Q205 752 144 698 Q84 643 84 561 Q109 382 287 349 Q464 315 489 196 Q488 136 446 104 Q403 71 325 71 Q269 71 214 90 Q158 109 108 144 L68 73 ZM485 945 L420 945 L333 851 L247 945 L182 945 L286 795 L381 795 L485 945 Z" /><glyph glyph-name="" unicode="&#x161;" d="M348 147 Q347 108 313 89 Q280 69 232 69 Q192 69 159 79 Q125 89 88 108 L55 46 Q96 21 139 8 Q182 -6 236 -6 Q318 -6 374 33 Q429 71 431 148 Q413 273 285 296 Q157 318 139 388 Q140 418 167 435 Q195 451 236 451 Q276 451 311 440 Q345 429 379 411 L409 476 Q370 499 328 512 Q287 525 232 525 Q150 524 104 485 Q58 446 57 387 Q75 261 203 240 Q330 219 348 147 L348 147 ZM396 735 L331 735 L244 641 L158 735 L93 735 L197 585 L292 585 L396 735 Z" /><glyph glyph-name="" unicode="&#x17d;" d="M609 748 L71 748 L71 670 L472 670 L58 22 L58 0 L616 0 L616 78 L197 78 L609 724 L609 748 ZM488 945 L423 945 L336 851 L250 945 L185 945 L289 795 L384 795 L488 945 Z" /><glyph glyph-name="" unicode="&#x17e;" d="M470 490 L470 519 L51 519 L51 445 L335 445 L33 29 L33 0 L477 0 L477 74 L171 74 L470 490 ZM420 735 L355 735 L268 641 L182 735 L117 735 L221 585 L316 585 L420 735 Z" /><glyph glyph-name="" unicode="&#x2212;" d="M66 302 L587 302 L587 374 L66 374 L66 302 Z" /><glyph glyph-name="" unicode="&#x106;" d="M675 679 Q617 714 556 734 Q494 754 421 754 Q244 750 154 643 Q64 536 64 374 Q64 212 154 105 Q244 -2 421 -6 Q494 -6 556 14 Q617 34 675 69 L636 143 Q587 111 535 94 Q483 76 421 76 Q289 79 222 164 Q154 248 154 374 Q154 501 222 585 Q289 669 421 672 Q483 672 535 654 Q587 637 636 605 L675 679 ZM344 796 L418 796 L549 946 L442 946 L344 796 Z" /><glyph glyph-name="" unicode="&#x10c;" d="M675 679 Q617 714 556 734 Q494 754 421 754 Q244 750 154 643 Q64 536 64 374 Q64 212 154 105 Q244 -2 421 -6 Q494 -6 556 14 Q617 34 675 69 L636 143 Q587 111 535 94 Q483 76 421 76 Q289 79 222 164 Q154 248 154 374 Q154 501 222 585 Q289 669 421 672 Q483 672 535 654 Q587 637 636 605 L675 679 ZM570 946 L505 946 L419 852 L332 946 L267 946 L371 796 L466 796 L570 946 Z" /><glyph glyph-name="" unicode="&#x110;" d="M346 0 Q521 4 611 109 Q702 213 702 374 Q702 535 611 639 Q521 744 346 748 L96 748 L96 413 L20 413 L20 336 L96 336 L96 0 L346 0 ZM186 78 L186 336 L383 336 L383 413 L186 413 L186 670 L340 670 Q474 667 543 586 Q612 504 612 374 Q612 244 542 162 Q473 81 340 78 L186 78 Z" /><glyph glyph-name="" unicode="&#x107;" d="M522 474 Q484 496 441 510 Q399 525 333 525 Q211 524 139 455 Q66 385 64 259 Q66 133 139 63 Q211 -6 333 -7 Q398 -7 441 7 Q484 21 522 45 L484 113 Q453 93 417 81 Q382 68 332 68 Q251 69 202 118 Q152 168 151 259 Q152 350 202 400 Q251 449 332 450 Q383 449 419 437 Q454 424 486 405 L522 474 ZM264 585 L338 585 L469 735 L362 735 L264 585 Z" /><glyph glyph-name="" unicode="&#x10d;" d="M522 474 Q484 496 441 510 Q399 525 333 525 Q211 524 139 455 Q66 385 64 259 Q66 133 139 63 Q211 -6 333 -7 Q398 -7 441 7 Q484 21 522 45 L484 113 Q453 93 417 81 Q382 68 332 68 Q251 69 202 118 Q152 168 151 259 Q152 350 202 400 Q251 449 332 450 Q383 449 419 437 Q454 424 486 405 L522 474 ZM484 735 L419 735 L332 641 L246 735 L181 735 L285 585 L380 585 L484 735 Z" /><glyph glyph-name="" unicode="&#x111;" d="M292 676 L292 616 L470 616 L470 461 L467 460 Q434 490 393 507 Q351 525 304 525 Q195 524 130 455 Q65 385 63 259 Q65 133 129 63 Q193 -6 295 -7 Q348 -6 392 14 Q436 34 469 68 L473 67 L479 0 L557 0 L557 616 L628 616 L628 676 L557 676 L557 798 L470 798 L470 676 L292 676 ZM310 71 Q238 72 194 120 Q150 169 149 259 Q150 349 194 398 Q238 446 310 447 Q361 447 399 426 Q438 404 470 368 L470 160 Q440 120 401 96 Q361 72 310 71 L310 71 Z" /><glyph glyph-name="" unicode="&#x403;" d="M558 670 L558 748 L95 748 L95 0 L185 0 L185 670 L558 670 ZM271 796 L345 796 L476 946 L369 946 L271 796 Z" /><glyph glyph-name="" unicode="&#x405;" d="M68 73 Q126 33 188 13 Q250 -7 319 -7 Q444 -6 512 49 Q581 104 582 204 Q556 379 375 412 Q193 444 167 571 Q168 616 206 646 Q245 677 316 678 Q372 678 421 658 Q469 639 517 603 L557 675 Q500 713 444 734 Q387 754 316 754 Q198 752 138 700 Q77 647 77 568 Q103 389 283 355 Q463 321 489 199 Q489 138 445 104 Q401 70 319 69 Q264 69 211 88 Q157 107 108 144 L68 73 Z" /><glyph glyph-name="" unicode="&#x408;" d="M27 38 Q62 18 101 6 Q140 -6 182 -6 Q286 -7 348 53 Q410 113 412 249 L412 748 L322 748 L322 244 Q321 155 284 115 Q246 75 182 76 Q121 76 67 112 L27 38 Z" /><glyph glyph-name="" unicode="&#x409;" d="M632 78 L632 351 L761 351 Q824 351 870 315 Q917 280 919 214 Q917 150 873 115 Q829 79 761 78 L632 78 ZM193 748 L176 427 Q167 231 135 148 Q102 65 24 67 L41 -6 Q48 -7 57 -8 Q66 -9 72 -9 Q168 -8 210 96 Q252 200 262 398 L277 670 L542 670 L542 0 L769 0 Q871 1 939 56 Q1006 111 1009 213 Q1006 315 939 370 Q871 424 769 425 L632 425 L632 748 L193 748 Z" /><glyph glyph-name="" unicode="&#x40a;" d="M638 78 L638 351 L767 351 Q830 351 876 315 Q923 280 925 214 Q923 150 879 115 Q835 79 767 78 L638 78 ZM638 425 L638 748 L548 748 L548 425 L185 425 L185 748 L95 748 L95 0 L185 0 L185 351 L548 351 L548 0 L775 0 Q877 1 945 56 Q1012 111 1015 213 Q1012 315 945 370 Q877 424 775 425 L638 425 Z" /><glyph glyph-name="" unicode="&#x40c;" d="M185 748 L95 748 L95 0 L185 0 L185 334 L276 334 L541 -6 L645 0 L349 371 L603 748 L504 754 L279 408 L185 408 L185 748 ZM286 796 L360 796 L491 946 L384 946 L286 796 Z" /><glyph glyph-name="" unicode="&#x40f;" d="M434 -149 L434 0 L692 0 L692 748 L602 748 L602 78 L185 78 L185 748 L95 748 L95 0 L350 0 L350 -156 L434 -149 Z" /><glyph glyph-name="" unicode="&#x410;" d="M178 167 L541 167 L616 -6 L707 0 L381 748 L337 748 L11 0 L104 -6 L178 167 ZM206 241 L357 599 L361 599 L513 241 L206 241 Z" /><glyph glyph-name="" unicode="&#x411;" d="M95 0 L397 0 Q507 2 576 63 Q644 124 646 227 Q644 329 576 390 Q507 451 397 452 L185 452 L185 670 L563 670 L563 748 L95 748 L95 0 ZM185 375 L389 375 Q460 374 507 335 Q554 296 556 227 Q555 163 510 121 Q466 79 389 78 L185 78 L185 375 Z" /><glyph glyph-name="" unicode="&#x412;" d="M185 425 L185 670 L391 670 Q460 669 497 635 Q535 600 535 543 Q533 494 495 460 Q458 426 410 425 L185 425 ZM410 351 Q473 349 520 311 Q567 272 569 218 Q570 163 530 122 Q490 80 390 78 L185 78 L185 351 L410 351 ZM625 555 Q625 638 566 692 Q507 746 393 748 L95 748 L95 0 L393 0 Q523 1 591 59 Q659 116 659 211 Q657 277 616 325 Q574 372 511 388 L511 392 Q572 420 599 465 Q626 509 625 555 L625 555 Z" /><glyph glyph-name="" unicode="&#x413;" d="M558 670 L558 748 L95 748 L95 0 L185 0 L185 670 L558 670 Z" /><glyph glyph-name="" unicode="&#x414;" d="M293 670 L556 670 L556 78 L197 78 Q243 188 265 332 Q286 476 293 670 L293 670 ZM108 -149 L108 0 L648 0 L648 -156 L729 -149 L729 78 L646 78 L646 748 L210 748 Q202 515 183 367 Q163 218 107 78 L27 78 L27 -156 L108 -149 Z" /><glyph glyph-name="" unicode="&#x415;" d="M594 670 L594 748 L95 748 L95 0 L594 0 L594 78 L185 78 L185 351 L552 351 L552 425 L185 425 L185 670 L594 670 Z" /><glyph glyph-name="" unicode="&#x416;" d="M148 754 L49 748 L286 385 L7 0 L111 -6 L356 348 L444 348 L444 0 L532 0 L532 348 L620 348 L865 -6 L969 0 L690 385 L927 748 L828 754 L622 422 L532 422 L532 748 L444 748 L444 422 L353 422 L148 754 Z" /><glyph glyph-name="" unicode="&#x417;" d="M123 609 Q172 641 218 658 Q265 676 325 676 Q397 675 435 644 Q473 613 473 564 Q471 501 429 463 Q388 426 336 425 L218 425 L218 351 L336 351 Q403 350 449 312 Q494 273 496 210 Q496 151 449 112 Q402 73 303 72 Q244 72 194 91 Q144 109 94 142 L54 73 Q112 36 171 15 Q230 -6 303 -6 Q445 -5 516 52 Q586 109 586 203 Q583 283 537 329 Q490 376 430 389 L430 393 Q484 413 522 460 Q561 506 563 571 Q563 648 503 700 Q443 752 327 754 Q254 754 198 733 Q141 712 83 675 L123 609 Z" /><glyph glyph-name="" unicode="&#x418;" d="M598 558 L602 557 L602 0 L692 0 L692 748 L656 748 L189 183 L185 184 L185 748 L95 748 L95 0 L135 0 L598 558 Z" /><glyph glyph-name="" unicode="&#x41a;" d="M185 748 L95 748 L95 0 L185 0 L185 334 L276 334 L541 -6 L645 0 L349 371 L603 748 L504 754 L279 408 L185 408 L185 748 Z" /><glyph glyph-name="" unicode="&#x41b;" d="M41 -6 Q48 -7 57 -8 Q66 -9 72 -9 Q168 -8 210 96 Q252 200 262 398 L277 670 L564 670 L564 0 L654 0 L654 748 L193 748 L176 427 Q167 231 135 148 Q102 65 24 67 L41 -6 Z" /><glyph glyph-name="" unicode="&#x41c;" d="M458 218 L700 543 L704 542 L704 0 L794 0 L794 748 L749 748 L444 331 L140 748 L95 748 L95 0 L185 0 L185 542 L189 543 L430 218 L458 218 Z" /><glyph glyph-name="" unicode="&#x41d;" d="M185 0 L185 351 L602 351 L602 0 L692 0 L692 748 L602 748 L602 425 L185 425 L185 748 L95 748 L95 0 L185 0 Z" /><glyph glyph-name="" unicode="&#x41e;" d="M425 754 Q250 750 158 644 Q65 538 64 374 Q65 210 158 104 Q250 -2 425 -6 Q600 -2 692 104 Q784 210 785 374 Q784 538 692 644 Q600 750 425 754 L425 754 ZM425 673 Q557 670 626 585 Q695 500 695 374 Q695 248 626 163 Q557 78 425 75 Q293 78 224 163 Q155 248 155 374 Q155 500 224 585 Q293 670 425 673 L425 673 Z" /><glyph glyph-name="" unicode="&#x41f;" d="M185 0 L185 670 L602 670 L602 0 L692 0 L692 748 L95 748 L95 0 L185 0 Z" /><glyph glyph-name="" unicode="&#x420;" d="M95 748 L95 0 L185 0 L185 254 L371 254 Q480 257 552 326 Q625 395 628 500 Q625 607 553 676 Q480 746 371 748 L95 748 ZM365 670 Q439 668 488 621 Q536 574 538 500 Q536 428 487 381 Q438 333 365 331 L185 331 L185 670 L365 670 Z" /><glyph glyph-name="" unicode="&#x421;" d="M675 679 Q617 714 556 734 Q494 754 421 754 Q244 750 154 643 Q64 536 64 374 Q64 212 154 105 Q244 -2 421 -6 Q494 -6 556 14 Q617 34 675 69 L636 143 Q587 111 535 94 Q483 76 421 76 Q289 79 222 164 Q154 248 154 374 Q154 501 222 585 Q289 669 421 672 Q483 672 535 654 Q587 637 636 605 L675 679 Z" /><glyph glyph-name="" unicode="&#x422;" d="M618 748 L24 748 L24 670 L276 670 L276 0 L366 0 L366 670 L618 670 L618 748 Z" /><glyph glyph-name="" unicode="&#x423;" d="M583 754 L352 305 L105 754 L11 748 L306 221 L184 0 L278 -6 L677 748 L583 754 Z" /><glyph glyph-name="" unicode="&#x424;" d="M513 0 L513 84 L600 84 Q725 87 808 169 Q890 250 893 377 Q890 503 808 585 Q725 667 600 670 L513 670 L513 748 L426 748 L426 670 L340 670 Q215 667 132 585 Q50 503 47 377 Q50 250 132 169 Q215 87 340 84 L426 84 L426 0 L513 0 ZM594 590 Q685 588 745 529 Q804 469 806 377 Q804 285 745 226 Q685 166 594 164 L513 164 L513 590 L594 590 ZM346 164 Q255 166 195 226 Q136 285 134 377 Q136 469 195 529 Q255 588 346 590 L426 590 L426 164 L346 164 Z" /><glyph glyph-name="" unicode="&#x425;" d="M24 0 L126 -6 L346 329 L566 -6 L668 0 L397 396 L636 748 L535 754 L346 462 L157 754 L55 748 L295 396 L24 0 Z" /><glyph glyph-name="" unicode="&#x426;" d="M718 -149 L718 78 L634 78 L634 748 L544 748 L544 78 L185 78 L185 748 L95 748 L95 0 L637 0 L637 -156 L718 -149 Z" /><glyph glyph-name="" unicode="&#x427;" d="M490 350 Q445 340 407 336 Q368 332 324 332 Q238 334 191 381 Q145 428 144 500 L144 748 L54 748 L54 500 Q55 395 125 325 Q194 256 318 253 Q367 253 407 258 Q448 263 490 273 L490 0 L580 0 L580 748 L490 748 L490 350 Z" /><glyph glyph-name="" unicode="&#x428;" d="M95 0 L930 0 L930 748 L840 748 L840 78 L556 78 L556 748 L469 748 L469 78 L185 78 L185 748 L95 748 L95 0 Z" /><glyph glyph-name="" unicode="&#x430;" d="M513 0 L513 302 Q512 410 451 467 Q389 524 286 525 Q229 525 181 510 Q133 496 88 473 L119 410 Q158 428 196 441 Q234 453 280 453 Q346 454 386 414 Q425 375 426 288 Q387 302 345 309 Q303 315 273 315 Q131 310 90 256 Q49 202 54 159 Q55 85 106 40 Q157 -5 245 -6 Q286 -7 336 12 Q387 31 426 82 L430 81 L436 0 L513 0 ZM264 61 Q209 62 177 90 Q145 118 144 163 Q141 191 167 224 Q193 256 282 259 Q317 259 353 253 Q389 246 426 232 Q421 131 366 95 Q310 59 264 61 L264 61 Z" /><glyph glyph-name="" unicode="&#x431;" d="M331 447 Q410 446 458 398 Q506 349 507 259 Q506 168 458 119 Q410 70 331 69 Q252 70 204 129 Q156 189 155 294 Q155 317 157 336 Q159 356 163 372 Q193 400 238 423 Q283 446 331 447 L331 447 ZM517 796 Q450 777 405 769 Q360 761 319 749 Q192 709 130 603 Q68 497 68 323 Q70 152 144 72 Q217 -7 331 -6 Q448 -5 519 64 Q589 133 591 259 Q589 384 521 452 Q452 521 334 522 Q288 521 244 502 Q200 483 167 455 Q183 550 227 604 Q270 658 343 679 Q395 694 438 702 Q481 709 536 726 L517 796 Z" /><glyph glyph-name="" unicode="&#x432;" d="M266 525 Q218 525 168 523 Q118 521 81 519 L81 0 Q111 -2 164 -4 Q216 -6 260 -6 Q359 -6 417 33 Q475 71 476 150 Q475 198 448 233 Q421 267 379 280 L379 284 Q413 301 433 330 Q453 358 453 397 Q453 454 406 489 Q359 524 266 525 L266 525 ZM277 66 Q243 66 220 67 Q197 67 167 68 L167 248 L275 248 Q333 246 363 218 Q393 190 393 153 Q392 109 358 87 Q325 66 277 66 L277 66 ZM273 455 Q316 455 344 436 Q372 418 373 384 Q373 350 350 325 Q327 300 276 299 L167 299 L167 452 Q199 454 221 454 Q244 455 273 455 L273 455 Z" /><glyph glyph-name="" unicode="&#x433;" d="M84 0 L171 0 L171 447 L432 447 L432 519 L84 519 L84 0 Z" /><glyph glyph-name="" unicode="&#x434;" d="M528 0 L528 -151 L607 -142 L607 72 L536 72 L536 519 L180 519 Q172 358 150 248 Q128 138 100 72 L30 72 L30 -151 L109 -142 L109 0 L528 0 ZM257 447 L449 447 L449 72 L188 72 Q217 156 233 249 Q250 343 257 447 L257 447 Z" /><glyph glyph-name="" unicode="&#x435;" d="M548 259 Q549 381 493 452 Q436 523 312 525 Q205 524 136 455 Q66 385 64 259 Q66 133 137 64 Q209 -5 329 -6 Q393 -6 442 8 Q491 21 533 45 L500 108 Q464 88 422 77 Q380 66 328 66 Q253 66 204 109 Q156 152 152 233 L543 233 L548 259 ZM311 455 Q383 454 422 410 Q461 366 462 295 L154 295 Q156 359 198 406 Q240 453 311 455 L311 455 Z" /><glyph glyph-name="" unicode="&#x436;" d="M112 -6 L299 248 L364 248 L364 0 L450 0 L450 248 L515 248 L702 -6 L807 0 L590 278 L775 519 L672 525 L513 306 L450 306 L450 519 L364 519 L364 306 L301 306 L141 525 L38 519 L223 278 L7 0 L112 -6 Z" /><glyph glyph-name="" unicode="&#x437;" d="M226 244 Q284 243 315 217 Q346 191 346 154 Q345 111 312 90 Q279 69 231 69 Q191 69 157 78 Q123 88 87 108 L54 45 Q94 20 137 7 Q180 -6 235 -6 Q317 -6 372 33 Q428 71 430 150 Q429 198 402 233 Q375 267 333 280 L333 284 Q367 301 387 330 Q407 358 407 397 Q406 454 360 489 Q314 524 236 525 Q183 525 142 511 Q101 498 63 475 L95 410 Q127 429 160 440 Q193 451 229 451 Q271 451 298 434 Q325 417 326 382 Q326 349 302 326 Q278 304 226 303 L171 303 L171 244 L226 244 Z" /><glyph glyph-name="" unicode="&#x438;" d="M455 367 L459 365 L459 0 L545 0 L545 522 L507 522 L175 146 L171 148 L171 519 L84 519 L84 -4 L126 -4 L455 367 Z" /><glyph glyph-name="" unicode="&#x43a;" d="M547 0 L325 278 L516 519 L413 525 L248 306 L171 306 L171 519 L84 519 L84 0 L171 0 L171 248 L250 248 L443 -6 L547 0 Z" /><glyph glyph-name="" unicode="&#x43b;" d="M20 68 L36 -5 Q44 -7 53 -8 Q61 -9 67 -9 Q146 -7 182 73 Q217 152 223 289 L231 447 L432 447 L432 0 L518 0 L518 519 L150 519 L140 305 Q135 176 112 121 Q88 67 20 68 L20 68 Z" /><glyph glyph-name="" unicode="&#x43c;" d="M349 117 L359 117 L534 350 L538 349 L538 0 L624 0 L624 519 L577 519 L354 219 L132 519 L84 519 L84 0 L171 0 L171 349 L175 350 L349 117 Z" /><glyph glyph-name="" unicode="&#x43d;" d="M545 519 L459 519 L459 315 L171 315 L171 519 L84 519 L84 0 L171 0 L171 247 L459 247 L459 0 L545 0 L545 519 Z" /><glyph glyph-name="" unicode="&#x43e;" d="M326 525 Q208 524 137 455 Q66 386 64 259 Q66 134 137 64 Q208 -5 326 -6 Q443 -5 514 64 Q585 134 587 259 Q585 386 514 455 Q443 524 326 525 L326 525 ZM326 450 Q404 449 452 400 Q499 350 500 259 Q499 169 452 119 Q404 70 326 69 Q247 70 200 119 Q152 169 151 259 Q152 350 200 400 Q247 449 326 450 L326 450 Z" /><glyph glyph-name="" unicode="&#x43f;" d="M459 0 L545 0 L545 519 L84 519 L84 0 L171 0 L171 447 L459 447 L459 0 Z" /><glyph glyph-name="" unicode="&#x440;" d="M84 519 L84 -208 L171 -208 L171 60 L175 61 Q208 30 249 12 Q289 -6 337 -6 Q446 -5 511 64 Q576 133 578 259 Q576 385 512 455 Q448 524 346 525 Q293 524 249 503 Q206 481 172 446 L168 447 L162 519 L84 519 ZM492 259 Q491 169 447 121 Q403 73 331 72 Q280 72 241 93 Q202 113 171 150 L171 357 Q200 398 240 422 Q280 446 331 447 Q403 446 447 398 Q491 349 492 259 L492 259 Z" /><glyph glyph-name="" unicode="&#x441;" d="M522 474 Q484 496 441 510 Q399 525 333 525 Q211 524 139 455 Q66 385 64 259 Q66 133 139 64 Q211 -5 333 -6 Q398 -6 441 8 Q484 21 522 45 L484 113 Q453 93 417 81 Q382 69 332 69 Q251 70 202 119 Q152 168 151 259 Q152 350 202 400 Q251 449 332 450 Q383 449 419 437 Q454 424 486 405 L522 474 Z" /><glyph glyph-name="" unicode="&#x442;" d="M196 447 L196 0 L283 0 L283 447 L460 447 L460 519 L20 519 L20 447 L196 447 Z" /><glyph glyph-name="" unicode="&#x443;" d="M108 -208 L194 -214 L527 519 L435 525 L269 136 L265 136 L100 525 L7 519 L223 40 L108 -208 Z" /><glyph glyph-name="" unicode="&#x444;" d="M425 796 L425 470 L421 468 Q390 495 357 510 Q323 525 283 525 Q179 524 122 455 Q65 385 64 259 Q65 133 122 63 Q179 -6 283 -7 Q319 -7 354 8 Q389 23 421 50 L425 49 L425 -208 L511 -208 L511 49 L515 50 Q547 23 582 8 Q617 -7 653 -7 Q757 -6 814 63 Q870 133 871 259 Q870 385 814 455 Q757 524 653 525 Q613 525 579 510 Q545 495 515 468 L511 470 L511 796 L425 796 ZM785 259 Q785 169 750 120 Q715 72 648 71 Q609 71 575 89 Q542 106 511 136 L511 381 Q542 413 575 430 Q609 447 648 447 Q714 446 750 398 Q785 349 785 259 L785 259 ZM151 259 Q151 349 187 398 Q222 446 288 447 Q327 447 361 430 Q394 413 425 381 L425 136 Q394 106 361 89 Q327 71 288 71 Q221 72 186 120 Q151 169 151 259 L151 259 Z" /><glyph glyph-name="" unicode="&#x445;" d="M150 525 L49 519 L227 278 L21 0 L122 -6 L281 219 L439 -6 L540 0 L334 278 L512 519 L411 525 L281 338 L150 525 Z" /><glyph glyph-name="" unicode="&#x446;" d="M518 -151 L597 -142 L597 72 L525 72 L525 519 L439 519 L439 72 L171 72 L171 519 L84 519 L84 0 L518 0 L518 -151 Z" /><glyph glyph-name="" unicode="&#x447;" d="M489 0 L489 519 L402 519 L402 257 Q361 243 329 236 Q296 230 266 230 Q218 229 179 260 Q139 290 137 367 L137 519 L51 519 L51 370 Q55 249 115 200 Q175 151 248 153 Q287 153 326 161 Q365 168 402 183 L402 0 L489 0 Z" /><glyph glyph-name="" unicode="&#x448;" d="M761 0 L761 519 L675 519 L675 72 L464 72 L464 519 L381 519 L381 72 L171 72 L171 519 L84 519 L84 0 L761 0 Z" /><glyph glyph-name="" unicode="&#x453;" d="M84 0 L171 0 L171 447 L432 447 L432 519 L84 519 L84 0 ZM196 585 L270 585 L401 735 L294 735 L196 585 Z" /><glyph glyph-name="" unicode="&#x455;" d="M348 147 Q347 108 313 89 Q280 69 232 69 Q192 69 159 79 Q125 89 88 108 L55 46 Q96 21 139 8 Q182 -6 236 -6 Q318 -6 374 33 Q429 71 431 148 Q413 273 285 296 Q157 318 139 388 Q140 418 167 435 Q195 451 236 451 Q276 451 311 440 Q345 429 379 411 L409 476 Q370 499 328 512 Q287 525 232 525 Q150 524 104 485 Q58 446 57 387 Q75 261 203 240 Q330 219 348 147 L348 147 Z" /><glyph glyph-name="" unicode="&#x458;" d="M199 519 L113 519 L113 -32 Q112 -91 79 -117 Q47 -144 -6 -143 L6 -210 Q14 -212 23 -213 Q31 -214 37 -214 Q106 -214 151 -166 Q197 -119 199 -30 L199 519 ZM93 694 Q94 667 111 649 Q129 631 156 630 Q183 631 201 649 Q218 667 219 694 Q218 720 201 738 Q183 755 156 756 Q129 755 111 738 Q94 720 93 694 L93 694 Z" /><glyph glyph-name="" unicode="&#x459;" d="M611 248 Q651 248 680 224 Q709 201 710 158 Q709 116 680 92 Q651 67 611 67 L509 67 L509 248 L611 248 ZM150 519 L140 305 Q135 176 112 121 Q88 67 20 68 L36 -5 Q44 -7 53 -8 Q61 -9 67 -9 Q146 -7 182 73 Q217 152 223 289 L231 447 L422 447 L422 0 L625 0 Q697 1 745 43 Q792 86 794 158 Q792 230 745 272 Q697 314 625 315 L509 315 L509 519 L150 519 Z" /><glyph glyph-name="" unicode="&#x45a;" d="M512 315 L512 519 L426 519 L426 315 L171 315 L171 519 L84 519 L84 0 L171 0 L171 247 L426 247 L426 0 L628 0 Q700 1 748 43 Q795 86 797 158 Q795 230 748 272 Q700 314 628 315 L512 315 ZM614 248 Q654 248 683 224 Q712 201 713 158 Q712 116 683 92 Q654 67 614 67 L512 67 L512 248 L614 248 Z" /><glyph glyph-name="" unicode="&#x45c;" d="M232 585 L306 585 L437 735 L330 735 L232 585 ZM547 0 L325 278 L516 519 L413 525 L248 306 L171 306 L171 519 L84 519 L84 0 L171 0 L171 248 L250 248 L443 -6 L547 0 Z" /><glyph glyph-name="" unicode="&#x45f;" d="M274 -151 L355 -142 L355 0 L545 0 L545 519 L459 519 L459 72 L171 72 L171 519 L84 519 L84 0 L274 0 L274 -151 Z" /><glyph glyph-name="" unicode="¤" d="M150 354 Q152 430 202 480 Q253 531 328 533 Q404 531 455 480 Q505 430 507 354 Q505 278 455 228 Q404 178 328 176 Q253 178 202 228 Q152 278 150 354 L150 354 ZM107 83 L178 154 Q209 131 247 117 Q285 104 328 104 Q371 104 409 117 Q446 130 478 154 L550 83 L599 133 L528 204 Q552 235 566 273 Q579 310 579 354 Q579 396 566 435 Q552 473 528 504 L599 575 L550 625 L478 554 Q447 578 409 592 Q371 605 328 605 Q284 605 247 592 Q209 578 178 554 L107 625 L57 575 L128 504 Q104 472 91 434 Q78 396 78 354 Q78 311 91 273 Q105 235 128 204 L57 133 L107 83 Z" /><glyph glyph-name="" unicode="&#x400;" d="M594 670 L594 748 L95 748 L95 0 L594 0 L594 78 L185 78 L185 351 L552 351 L552 425 L185 425 L185 670 L594 670 ZM325 946 L218 946 L349 796 L423 796 L325 946 Z" /><glyph glyph-name="" unicode="&#x40d;" d="M598 558 L602 557 L602 0 L692 0 L692 748 L656 748 L189 183 L185 184 L185 748 L95 748 L95 0 L135 0 L598 558 ZM361 946 L254 946 L385 796 L459 796 L361 946 Z" /><glyph glyph-name="" unicode="&#x450;" d="M548 259 Q549 381 493 452 Q436 523 312 525 Q205 524 136 455 Q66 385 64 259 Q66 133 137 64 Q209 -5 329 -6 Q393 -6 442 8 Q491 21 533 45 L500 108 Q464 88 422 77 Q380 66 328 66 Q253 66 204 109 Q156 152 152 233 L543 233 L548 259 ZM311 455 Q383 454 422 410 Q461 366 462 295 L154 295 Q156 359 198 406 Q240 453 311 455 L311 455 ZM282 735 L175 735 L306 585 L380 585 L282 735 Z" /><glyph glyph-name="" unicode="&#x45d;" d="M455 367 L459 365 L459 0 L545 0 L545 522 L507 522 L175 146 L171 148 L171 519 L84 519 L84 -4 L126 -4 L455 367 ZM279 735 L172 735 L303 585 L377 585 L279 735 Z" /><glyph glyph-name="" unicode="" d="" /><glyph glyph-name="" unicode="é" d="M548 259 Q549 381 493 452 Q436 523 312 525 Q205 524 136 455 Q66 385 64 259 Q66 133 137 64 Q209 -5 329 -6 Q393 -6 442 8 Q491 21 533 45 L500 108 Q464 88 422 77 Q380 66 328 66 Q253 66 204 109 Q156 152 152 233 L543 233 L548 259 ZM311 455 Q383 454 422 411 Q461 369 462 298 L154 298 Q156 362 198 408 Q240 453 311 455 L311 455 ZM236 585 L310 585 L441 735 L334 735 L236 585 Z" /><glyph glyph-name="" unicode="í" d="M187 0 L187 519 L101 519 L101 0 L187 0 ZM54 585 L128 585 L259 735 L152 735 L54 585 Z" /><glyph glyph-name="" unicode="ì" d="M187 0 L187 519 L101 519 L101 0 L187 0 ZM147 735 L40 735 L171 585 L245 585 L147 735 Z" /><glyph glyph-name="" unicode="î" d="M184 0 L184 519 L98 519 L98 0 L184 0 ZM188 735 L93 735 L-11 585 L54 585 L140 679 L227 585 L292 585 L188 735 Z" /><glyph glyph-name="" unicode="è" d="M548 259 Q549 381 493 452 Q436 523 312 525 Q205 524 136 455 Q66 385 64 259 Q66 133 137 64 Q209 -5 329 -6 Q393 -6 442 8 Q491 21 533 45 L500 108 Q464 88 422 77 Q380 66 328 66 Q253 66 204 109 Q156 152 152 233 L543 233 L548 259 ZM311 455 Q383 454 422 411 Q461 369 462 298 L154 298 Q156 362 198 408 Q240 453 311 455 L311 455 ZM308 735 L201 735 L332 585 L406 585 L308 735 Z" /><glyph glyph-name="" unicode="ê" d="M548 259 Q549 381 493 452 Q436 523 312 525 Q205 524 136 455 Q66 385 64 259 Q66 133 137 64 Q209 -5 329 -6 Q393 -6 442 8 Q491 21 533 45 L500 108 Q464 88 422 77 Q380 66 328 66 Q253 66 204 109 Q156 152 152 233 L543 233 L548 259 ZM311 455 Q383 454 422 411 Q461 369 462 298 L154 298 Q156 362 198 408 Q240 453 311 455 L311 455 ZM371 735 L276 735 L172 585 L237 585 L323 679 L410 585 L475 585 L371 735 Z" /><glyph glyph-name="" unicode="á" d="M513 0 L513 302 Q512 410 451 467 Q389 524 286 525 Q229 525 181 510 Q133 496 88 473 L119 410 Q158 428 196 441 Q234 453 280 453 Q346 454 386 414 Q425 375 426 288 Q387 302 345 309 Q303 315 273 315 Q131 310 90 256 Q49 202 54 159 Q55 85 106 40 Q157 -5 245 -6 Q286 -7 336 12 Q387 31 426 82 L430 81 L436 0 L513 0 ZM264 61 Q209 62 177 90 Q145 118 144 163 Q141 191 167 224 Q193 256 282 259 Q317 259 353 253 Q389 246 426 232 Q421 131 366 95 Q310 59 264 61 L264 61 ZM213 585 L287 585 L418 735 L311 735 L213 585 Z" /><glyph glyph-name="" unicode="à" d="M513 0 L513 302 Q512 410 451 467 Q389 524 286 525 Q229 525 181 510 Q133 496 88 473 L119 410 Q158 428 196 441 Q234 453 280 453 Q346 454 386 414 Q425 375 426 288 Q387 302 345 309 Q303 315 273 315 Q131 310 90 256 Q49 202 54 159 Q55 85 106 40 Q157 -5 245 -6 Q286 -7 336 12 Q387 31 426 82 L430 81 L436 0 L513 0 ZM264 61 Q209 62 177 90 Q145 118 144 163 Q141 191 167 224 Q193 256 282 259 Q317 259 353 253 Q389 246 426 232 Q421 131 366 95 Q310 59 264 61 L264 61 ZM276 735 L169 735 L300 585 L374 585 L276 735 Z" /><glyph glyph-name="" unicode="â" d="M513 0 L513 302 Q512 410 451 467 Q389 524 286 525 Q229 525 181 510 Q133 496 88 473 L119 410 Q158 428 196 441 Q234 453 280 453 Q346 454 386 414 Q425 375 426 288 Q387 302 345 309 Q303 315 273 315 Q131 310 90 256 Q49 202 54 159 Q55 85 106 40 Q157 -5 245 -6 Q286 -7 336 12 Q387 31 426 82 L430 81 L436 0 L513 0 ZM264 61 Q209 62 177 90 Q145 118 144 163 Q141 191 167 224 Q193 256 282 259 Q317 259 353 253 Q389 246 426 232 Q421 131 366 95 Q310 59 264 61 L264 61 ZM338 735 L243 735 L139 585 L204 585 L290 679 L377 585 L442 585 L338 735 Z" /><glyph glyph-name="" unicode="ä" d="M513 0 L513 302 Q512 410 451 467 Q389 524 286 525 Q229 525 181 510 Q133 496 88 473 L119 410 Q158 428 196 441 Q234 453 280 453 Q346 454 386 414 Q425 375 426 288 Q387 302 345 309 Q303 315 273 315 Q131 310 90 256 Q49 202 54 159 Q55 85 106 40 Q157 -5 245 -6 Q286 -7 336 12 Q387 31 426 82 L430 81 L436 0 L513 0 ZM264 61 Q209 62 177 90 Q145 118 144 163 Q141 191 167 224 Q193 256 282 259 Q317 259 353 253 Q389 246 426 232 Q421 131 366 95 Q310 59 264 61 L264 61 ZM132 661 Q133 637 149 620 Q164 604 189 603 Q214 604 230 620 Q246 637 247 661 Q246 686 230 702 Q213 717 188 718 Q165 717 149 701 Q133 685 132 661 L132 661 ZM329 661 Q330 637 346 620 Q361 604 386 603 Q411 604 427 620 Q443 637 444 661 Q443 686 427 702 Q410 717 385 718 Q362 717 346 701 Q330 685 329 661 L329 661 Z" /><glyph glyph-name="" unicode="ã" d="M513 0 L513 302 Q512 410 451 467 Q389 524 286 525 Q229 525 181 510 Q133 496 88 473 L119 410 Q158 428 196 441 Q234 453 280 453 Q346 454 386 414 Q425 375 426 288 Q387 302 345 309 Q303 315 273 315 Q131 310 90 256 Q49 202 54 159 Q55 85 106 40 Q157 -5 245 -6 Q286 -7 336 12 Q387 31 426 82 L430 81 L436 0 L513 0 ZM264 61 Q209 62 177 90 Q145 118 144 163 Q141 191 167 224 Q193 256 282 259 Q317 259 353 253 Q389 246 426 232 Q421 131 366 95 Q310 59 264 61 L264 61 ZM455 665 Q425 688 401 695 Q376 703 361 702 Q313 700 283 683 Q253 665 227 663 Q215 663 201 668 Q186 674 169 687 L139 632 Q162 611 184 602 Q206 594 226 594 Q263 596 295 613 Q327 630 360 632 Q370 633 387 628 Q404 623 428 607 L455 665 Z" /><glyph glyph-name="" unicode="å" d="M513 0 L513 302 Q512 410 451 467 Q389 524 286 525 Q229 525 181 510 Q133 496 88 473 L119 410 Q158 428 196 441 Q234 453 280 453 Q346 454 386 414 Q425 375 426 288 Q387 302 345 309 Q303 315 273 315 Q131 310 90 256 Q49 202 54 159 Q55 85 106 40 Q157 -5 245 -6 Q286 -7 336 12 Q387 31 426 82 L430 81 L436 0 L513 0 ZM264 61 Q209 62 177 90 Q145 118 144 163 Q141 191 167 224 Q193 256 282 259 Q317 259 353 253 Q389 246 426 232 Q421 131 366 95 Q310 59 264 61 L264 61 ZM189 678 Q190 637 217 610 Q244 583 285 582 Q326 583 353 610 Q380 637 381 678 Q380 719 353 746 Q326 773 285 774 Q244 773 217 746 Q190 719 189 678 L189 678 ZM233 678 Q234 700 248 715 Q263 729 285 730 Q307 729 322 715 Q336 700 337 678 Q336 656 322 641 Q307 627 285 626 Q263 627 248 641 Q234 656 233 678 L233 678 Z" /><glyph glyph-name="" unicode="ó" d="M326 525 Q208 524 137 455 Q66 386 64 259 Q66 134 137 64 Q208 -5 326 -6 Q443 -5 514 64 Q585 134 587 259 Q585 386 514 455 Q443 524 326 525 L326 525 ZM326 450 Q404 449 452 400 Q499 350 500 259 Q499 169 452 119 Q404 70 326 69 Q247 70 200 119 Q152 169 151 259 Q152 350 200 400 Q247 449 326 450 L326 450 ZM258 585 L332 585 L463 735 L356 735 L258 585 Z" /><glyph glyph-name="" unicode="ò" d="M326 525 Q208 524 137 455 Q66 386 64 259 Q66 134 137 64 Q208 -5 326 -6 Q443 -5 514 64 Q585 134 587 259 Q585 386 514 455 Q443 524 326 525 L326 525 ZM326 450 Q404 449 452 400 Q499 350 500 259 Q499 169 452 119 Q404 70 326 69 Q247 70 200 119 Q152 169 151 259 Q152 350 200 400 Q247 449 326 450 L326 450 ZM330 735 L223 735 L354 585 L428 585 L330 735 Z" /><glyph glyph-name="" unicode="ô" d="M326 525 Q208 524 137 455 Q66 386 64 259 Q66 134 137 64 Q208 -5 326 -6 Q443 -5 514 64 Q585 134 587 259 Q585 386 514 455 Q443 524 326 525 L326 525 ZM326 450 Q404 449 452 400 Q499 350 500 259 Q499 169 452 119 Q404 70 326 69 Q247 70 200 119 Q152 169 151 259 Q152 350 200 400 Q247 449 326 450 L326 450 ZM373 735 L278 735 L174 585 L239 585 L325 679 L412 585 L477 585 L373 735 Z" /><glyph glyph-name="" unicode="ö" d="M326 525 Q208 524 137 455 Q66 386 64 259 Q66 134 137 64 Q208 -5 326 -6 Q443 -5 514 64 Q585 134 587 259 Q585 386 514 455 Q443 524 326 525 L326 525 ZM326 450 Q404 449 452 400 Q499 350 500 259 Q499 169 452 119 Q404 70 326 69 Q247 70 200 119 Q152 169 151 259 Q152 350 200 400 Q247 449 326 450 L326 450 ZM170 661 Q171 637 187 620 Q202 604 227 603 Q252 604 268 620 Q284 637 285 661 Q284 686 268 702 Q251 717 226 718 Q203 717 187 701 Q171 685 170 661 L170 661 ZM367 661 Q368 637 384 620 Q399 604 424 603 Q449 604 465 620 Q481 637 482 661 Q481 686 465 702 Q448 717 423 718 Q400 717 384 701 Q368 685 367 661 L367 661 Z" /><glyph glyph-name="" unicode="õ" d="M326 525 Q208 524 137 455 Q66 386 64 259 Q66 134 137 64 Q208 -5 326 -6 Q443 -5 514 64 Q585 134 587 259 Q585 386 514 455 Q443 524 326 525 L326 525 ZM326 450 Q404 449 452 400 Q499 350 500 259 Q499 169 452 119 Q404 70 326 69 Q247 70 200 119 Q152 169 151 259 Q152 350 200 400 Q247 449 326 450 L326 450 ZM483 665 Q453 688 429 695 Q404 703 389 702 Q341 700 311 683 Q281 665 255 663 Q243 663 229 668 Q214 674 197 687 L167 632 Q190 611 212 602 Q234 594 254 594 Q291 596 323 613 Q355 630 388 632 Q398 633 415 628 Q432 623 456 607 L483 665 Z" /><glyph glyph-name="" unicode="í" d="M185 0 L185 748 L95 748 L95 0 L185 0 ZM37 795 L111 795 L242 945 L135 945 L37 795 Z" /><glyph glyph-name="" unicode="î" d="M185 0 L185 748 L95 748 L95 0 L185 0 ZM187 945 L92 945 L-12 795 L53 795 L139 889 L226 795 L291 795 L187 945 Z" /><glyph glyph-name="" unicode="ï" d="M185 0 L185 748 L95 748 L95 0 L185 0 ZM-16 873 Q-15 849 1 832 Q16 816 41 815 Q66 816 82 832 Q98 849 99 873 Q98 898 82 914 Q65 929 40 930 Q17 929 1 913 Q-15 897 -16 873 L-16 873 ZM181 873 Q182 849 198 832 Q213 816 238 815 Q263 816 279 832 Q295 849 296 873 Q295 898 279 914 Q262 929 237 930 Q214 929 198 913 Q182 897 181 873 L181 873 Z" /><glyph glyph-name="" unicode="ì" d="M185 0 L185 748 L95 748 L95 0 L185 0 ZM144 945 L37 945 L168 795 L242 795 L144 945 Z" /><glyph glyph-name="" unicode="&#xf8ff;" d="M645 530 L727 585 Q730 587 733 588 Q735 589 739 589 Q745 589 750 585 Q754 582 754 575 Q754 573 753 570 Q751 566 749 564 L714 530 L831 530 Q837 530 842 525 Q846 521 846 514 Q846 507 842 504 Q837 500 831 500 L750 500 L754 487 L867 487 Q874 487 877 483 Q881 478 881 473 Q881 465 877 461 Q874 457 867 457 L759 457 L759 443 L844 443 Q850 443 855 439 Q859 436 859 429 Q859 422 855 418 Q850 413 844 413 L754 413 L750 401 L820 401 Q825 401 830 396 Q834 392 834 385 Q834 379 830 375 Q825 370 820 370 L643 370 L643 85 L476 85 L476 370 L299 370 Q294 370 289 375 Q285 379 285 385 Q285 392 289 396 Q294 401 299 401 L369 401 L364 413 L275 413 Q269 413 265 418 Q260 422 260 429 Q260 436 265 439 Q269 443 275 443 L360 443 L360 457 L252 457 Q246 457 242 461 Q238 465 238 473 Q238 478 242 483 Q246 487 252 487 L364 487 L369 500 L288 500 Q282 500 278 504 Q273 507 273 514 Q273 521 278 525 Q282 530 288 530 L405 530 L370 564 Q368 566 366 570 Q365 573 365 575 Q365 582 370 585 Q374 589 380 589 Q388 589 392 585 L474 530 L645 530 ZM919 39 Q924 39 927 36 Q930 33 930 28 Q930 23 927 20 Q924 17 919 17 L905 17 L905 39 L919 39 ZM146 376 Q150 201 267 84 Q384 -33 559 -37 Q734 -33 851 84 Q968 201 972 376 Q968 551 851 668 Q734 785 559 789 Q384 785 267 668 Q150 551 146 376 L146 376 ZM863 17 Q864 -6 879 -21 Q894 -36 917 -37 Q940 -36 956 -21 Q971 -6 972 17 Q971 40 956 56 Q940 71 917 72 Q894 71 879 56 Q864 40 863 17 L863 17 ZM871 17 Q872 36 885 50 Q898 63 917 64 Q936 63 950 50 Q963 36 964 17 Q963 -2 950 -15 Q936 -28 917 -29 Q898 -28 885 -15 Q872 -2 871 17 L871 17 ZM930 -11 L941 -11 L925 9 Q931 11 935 16 Q939 21 939 28 Q939 36 933 42 Q927 48 919 48 L896 48 L896 -11 L905 -11 L905 8 L915 8 L930 -11 Z" /></font>
</defs>
</svg>
