<svg width="130" height="130" viewBox="0 0 130 130" xmlns="http://www.w3.org/2000/svg"><title>skimmer</title><g fill="none" fill-rule="evenodd"><circle stroke="#4F5B66" stroke-width="2" fill="#BF616A" cx="65" cy="65" r="64"/><g stroke="#4F5B66" stroke-width="2" fill="#EFF1F5"><path d="M30 44h51v63H30z"/><path d="M40 34h51v63H40z"/><path d="M50 24h51v63H50z"/></g><path d="M67 63c-2.796 0-5.145 2.55-5.81 6L61 79h32l-.19-10c-.665-3.45-3.014-6-5.81-6s-8.737 9-10 9-7.204-9-10-9zm14 14h-8l4-3 4 3zm-11 0h-7v-6c0-3.314 1.79-6 4-6 .888 0 8 8 8 8l-5 4zm14 0h7v-6c0-3.314-1.79-6-4-6-.888 0-8 8-8 8l5 4z" fill="#BF616A"/><path d="M62 34h29v3H62v-3zm0 9h29v3H62v-3zm0 9h29v3H62v-3z" fill="#4F5B66"/></g></svg>