<?xml version="1.0" standalone="no"?><!DOCTYPE svg PUBLIC "-//W3C//DTD SVG 1.1//EN" "http://www.w3.org/Graphics/SVG/1.1/DTD/svg11.dtd" ><svg xmlns="http://www.w3.org/2000/svg"><metadata></metadata><defs><font id="FontForge 2.0 : Inconsolata : 7-2-2009" horiz-adv-x="500"><font-face font-family="Inconsolata" font-weight="500" font-stretch="normal" units-per-em="1000" panose-1="2 11 6 9 3 0 3 0 0 0" ascent="834" descent="-176" x-height="0" bbox="0 -177 509 835" underline-thickness="50" underline-position="-125" unicode-range="U+0020-2423" /><missing-glyph horiz-adv-x="500"  /><glyph glyph-name="" unicode=" " d="" /><glyph glyph-name="" unicode="!" d="M299 48 Q298 73 281 90 Q265 106 239 107 Q214 106 198 90 Q181 73 180 48 Q181 23 198 6 Q214 -11 239 -11 Q265 -11 281 6 Q298 23 299 48 L299 48 ZM241 668 Q228 668 216 660 Q204 652 197 636 Q194 628 192 617 Q190 607 190 593 Q191 570 194 544 Q197 518 200 470 L215 194 L265 194 L283 470 Q285 499 289 527 Q292 556 292 584 Q292 602 291 611 Q290 621 289 625 Q282 648 269 658 Q256 668 241 668 L241 668 Z" /><glyph glyph-name="" unicode="&quot;" d="M397 605 Q396 638 382 652 Q367 667 352 666 Q336 667 323 654 Q310 641 309 611 Q309 595 312 580 Q315 564 315 548 Q315 533 312 519 Q310 505 306 493 L284 425 L339 412 L363 478 Q382 528 389 557 Q397 586 397 605 L397 605 ZM224 605 Q223 638 209 652 Q195 667 179 666 Q164 667 151 654 Q137 641 136 611 Q137 595 140 580 Q142 564 143 548 Q143 533 140 519 Q137 505 133 493 L111 425 L167 412 L191 478 Q209 528 217 557 Q224 586 224 605 L224 605 Z" /><glyph glyph-name="" unicode="#" d="M173 624 L153 454 L42 453 L39 406 L148 407 L128 237 L29 235 L25 189 L122 191 L101 11 L160 14 L181 192 L292 193 L270 10 L331 14 L353 194 L452 196 L457 243 L358 241 L379 409 L470 410 L476 458 L385 457 L405 621 L343 619 L323 456 L213 455 L234 627 L173 624 ZM207 407 L318 408 L297 240 L187 238 L207 407 Z" /><glyph glyph-name="" unicode="$" d="M235 651 L235 591 Q165 581 122 541 Q80 501 79 446 Q78 417 98 381 Q118 344 180 313 Q207 301 235 292 L235 72 Q195 77 163 94 Q131 110 110 133 Q107 136 107 139 Q107 141 107 144 Q107 146 107 149 Q106 152 103 154 L60 94 Q93 58 138 38 Q183 18 235 14 L235 -47 L293 -47 L293 16 Q378 30 419 77 Q460 125 460 181 Q456 249 418 279 Q380 310 360 316 Q344 322 327 328 Q310 334 293 340 L293 533 Q326 528 349 514 Q373 501 388 482 Q391 479 391 478 Q392 477 393 476 Q394 474 394 472 Q393 470 394 468 Q394 464 395 463 Q397 461 399 461 L442 515 Q414 548 376 568 Q338 587 293 592 L293 630 Q294 637 297 639 Q300 642 300 647 Q300 649 299 651 L235 651 ZM293 273 Q308 269 321 264 Q334 259 345 253 Q376 236 385 214 Q395 193 395 177 Q394 142 368 113 Q342 84 293 74 L293 273 ZM235 361 Q215 368 200 377 Q167 397 156 417 Q145 438 145 454 Q145 481 166 504 Q188 527 235 534 L235 361 Z" /><glyph glyph-name="" unicode="%" d="M391 623 L46 0 L110 0 L458 623 L391 623 ZM140 634 Q94 633 62 598 Q30 562 28 504 Q30 446 61 410 Q93 374 141 373 Q188 374 219 410 Q251 446 252 502 Q251 561 219 597 Q187 633 140 634 L140 634 ZM138 582 Q152 583 170 567 Q187 552 189 500 Q188 457 172 441 Q156 425 140 426 Q125 425 108 441 Q90 457 89 507 Q90 551 106 567 Q122 583 138 582 L138 582 ZM482 120 Q481 177 449 212 Q418 248 371 249 Q324 248 292 212 Q260 177 259 119 Q260 62 292 27 Q324 -9 371 -10 Q418 -9 449 26 Q481 62 482 120 L482 120 ZM371 198 Q387 199 404 182 Q422 164 423 117 Q422 73 405 56 Q389 40 371 40 Q353 40 336 58 Q320 76 318 119 Q320 164 336 181 Q353 198 371 198 L371 198 Z" /><glyph glyph-name="" unicode="&amp;" d="M229 629 Q170 628 132 592 Q93 555 91 498 Q92 456 113 416 Q134 377 162 343 Q104 310 70 258 Q37 205 36 146 Q37 78 80 35 Q123 -9 192 -10 Q243 -10 287 14 Q330 38 361 76 L416 -12 L475 32 L405 123 Q447 178 481 239 L416 284 Q412 281 412 274 Q412 270 412 268 Q413 265 413 262 Q413 257 412 254 Q406 236 395 215 Q384 194 367 173 L255 330 Q304 357 333 402 Q362 446 363 496 Q361 555 324 592 Q286 628 229 629 L229 629 ZM160 497 Q161 530 181 550 Q200 569 228 570 Q256 569 276 548 Q296 527 297 491 Q297 456 276 425 Q256 393 221 373 Q185 419 172 448 Q160 478 160 497 L160 497 ZM197 296 L324 123 Q323 119 289 89 Q254 59 203 54 Q164 55 138 82 Q113 109 112 153 Q112 193 134 231 Q157 269 197 296 L197 296 Z" /><glyph glyph-name="" unicode="&#39;" d="M319 605 Q318 638 304 652 Q290 667 274 666 Q259 667 245 654 Q232 641 231 611 Q232 595 234 580 Q237 564 238 548 Q237 533 235 519 Q232 505 228 493 L206 425 L261 412 L286 478 Q304 528 312 557 Q319 586 319 605 L319 605 Z" /><glyph glyph-name="" unicode="(" d="M392 666 Q274 613 207 505 Q140 398 139 258 Q140 120 206 6 Q273 -108 393 -173 L425 -120 Q322 -59 266 42 Q209 143 208 262 Q209 370 257 459 Q306 548 394 601 Q396 602 398 603 Q400 604 403 604 Q406 604 408 603 Q411 603 414 603 Q415 603 417 603 Q419 604 422 605 L392 666 Z" /><glyph glyph-name="" unicode=")" d="M78 603 Q178 549 235 455 Q292 361 293 248 Q292 133 234 37 Q175 -58 72 -114 L91 -174 Q217 -113 290 0 Q363 113 364 251 Q363 386 291 497 Q220 607 97 665 L78 603 Z" /><glyph glyph-name="" unicode="*" d="M213 519 L229 342 L67 418 L41 353 L214 300 L84 150 L138 106 L250 273 L358 107 L413 150 L287 301 L458 353 L432 414 L273 342 L288 492 Q289 501 291 505 Q293 510 294 519 L213 519 Z" /><glyph glyph-name="" unicode="+" d="M222 523 L222 352 L45 352 L45 291 L222 291 L222 104 L285 104 L285 291 L456 291 L456 352 L285 352 L285 523 L222 523 Z" /><glyph glyph-name="" unicode="," d="M306 20 Q305 58 284 80 Q264 102 236 103 Q211 102 195 85 Q179 69 179 46 Q180 26 189 16 Q199 5 207 1 Q214 -3 221 -11 Q229 -19 230 -34 Q229 -47 224 -58 Q219 -70 215 -76 Q208 -88 195 -105 Q183 -121 165 -138 L199 -168 Q252 -115 279 -67 Q306 -20 306 20 L306 20 Z" /><glyph glyph-name="" unicode="-" d="M71 348 L71 281 L431 281 L431 348 L71 348 Z" /><glyph glyph-name="" unicode="." d="M298 46 Q297 70 280 87 Q264 103 239 104 Q213 103 197 87 Q180 70 179 46 Q180 22 197 6 Q213 -11 239 -11 Q264 -11 280 6 Q297 22 298 46 L298 46 Z" /><glyph glyph-name="" unicode="/" d="M64 -13 L123 -42 L437 634 L377 665 L64 -13 Z" /><glyph glyph-name="" unicode="0" d="M251 627 Q174 626 114 542 Q53 457 50 307 Q53 154 114 72 Q175 -10 252 -11 Q324 -12 385 65 Q446 141 450 301 Q446 461 386 544 Q327 627 251 627 L251 627 ZM349 485 L129 201 Q116 252 115 319 Q118 439 160 502 Q201 566 250 566 Q276 566 302 546 Q328 526 349 485 L349 485 ZM372 418 Q385 366 385 293 Q382 164 341 107 Q299 51 255 53 Q227 53 200 75 Q173 96 152 138 L372 418 Z" /><glyph glyph-name="" unicode="1" d="M299 624 L251 624 L88 539 L104 500 L230 537 L230 -1 L299 -1 L299 624 Z" /><glyph glyph-name="" unicode="2" d="M78 526 L129 486 Q133 492 133 497 Q134 503 137 509 Q149 527 176 546 Q203 564 244 566 Q295 565 329 532 Q362 499 364 447 Q361 391 326 348 Q291 306 254 276 Q201 229 157 175 Q112 120 73 44 L73 0 L439 0 L439 70 Q434 71 431 69 Q427 67 426 65 Q423 63 421 62 Q418 61 415 61 L154 61 Q194 129 241 177 Q288 225 323 256 Q360 288 395 337 Q430 385 433 452 Q431 527 381 576 Q330 626 252 627 Q198 627 152 600 Q106 574 78 526 L78 526 Z" /><glyph glyph-name="" unicode="3" d="M411 467 Q409 533 362 578 Q315 623 239 625 Q197 625 158 608 Q120 591 90 558 L129 515 Q151 539 179 551 Q207 563 236 563 Q285 562 314 534 Q344 507 344 466 Q344 437 327 410 Q310 383 278 368 Q270 364 247 358 Q223 353 180 352 L180 296 Q195 298 211 298 Q276 298 316 267 Q356 236 358 180 Q357 127 322 91 Q288 54 232 53 Q188 55 163 72 Q138 89 135 95 Q129 102 128 109 Q128 117 122 123 L69 60 Q101 25 143 8 Q186 -10 233 -11 Q323 -8 373 44 Q424 97 425 171 Q424 228 395 271 Q367 314 318 332 Q360 349 385 385 Q410 421 411 467 L411 467 Z" /><glyph glyph-name="" unicode="4" d="M313 624 L48 224 L48 173 L299 173 L299 0 L372 0 L372 172 L452 172 L452 234 L372 234 L372 624 L313 624 ZM300 513 L300 234 L117 234 L300 513 Z" /><glyph glyph-name="" unicode="5" d="M106 623 L85 306 L129 288 Q152 317 183 332 Q214 347 246 347 Q297 347 335 310 Q372 273 374 198 Q372 126 336 88 Q299 50 248 50 Q197 53 167 76 Q137 100 133 108 Q131 114 131 120 Q132 126 126 131 L64 85 Q96 39 144 14 Q192 -11 249 -11 Q332 -11 387 42 Q443 95 445 197 Q443 298 390 351 Q337 404 257 405 Q231 405 205 399 Q180 393 155 381 L165 560 L422 560 L422 623 L106 623 Z" /><glyph glyph-name="" unicode="6" d="M287 630 Q230 631 177 594 Q124 557 94 475 Q78 430 73 380 Q67 329 67 284 Q66 228 76 173 Q85 118 114 72 Q142 31 181 10 Q219 -10 261 -10 Q335 -9 386 46 Q437 101 439 198 Q437 296 387 349 Q337 402 268 402 Q227 402 192 382 Q158 362 136 327 Q144 482 197 528 Q249 573 288 568 Q319 567 338 557 Q357 546 360 542 Q364 537 367 531 Q369 525 375 520 L424 573 Q396 600 361 615 Q325 630 287 630 L287 630 ZM262 341 Q302 342 335 308 Q369 274 371 195 Q370 122 338 87 Q306 52 264 52 Q206 54 171 111 Q135 168 140 257 Q162 296 194 318 Q227 341 262 341 L262 341 Z" /><glyph glyph-name="" unicode="7" d="M79 623 L79 557 L345 557 Q298 446 255 333 Q191 168 135 0 L214 0 Q260 147 313 292 Q368 440 432 584 L432 623 L79 623 Z" /><glyph glyph-name="" unicode="8" d="M258 631 Q185 629 138 586 Q91 542 90 477 Q90 431 116 392 Q142 354 185 331 Q128 304 95 258 Q61 212 60 157 Q62 85 115 38 Q167 -9 250 -10 Q333 -9 386 40 Q440 88 441 161 Q440 217 408 262 Q375 308 321 333 Q367 358 393 398 Q420 438 420 483 Q419 546 374 588 Q328 629 258 631 L258 631 ZM237 303 Q298 283 334 246 Q370 208 370 162 Q369 115 337 85 Q304 54 253 53 Q201 54 167 86 Q133 118 132 166 Q133 211 162 247 Q192 284 237 303 L237 303 ZM253 572 Q296 571 323 545 Q351 519 352 479 Q351 442 328 410 Q304 378 267 358 Q260 358 212 390 Q164 421 157 483 Q158 521 185 546 Q211 571 253 572 L253 572 Z" /><glyph glyph-name="" unicode="9" d="M217 -10 Q276 -11 328 25 Q381 60 411 135 Q419 156 428 200 Q437 244 437 320 Q437 378 432 420 Q427 462 416 494 Q390 565 343 597 Q297 630 247 629 Q172 628 121 571 Q70 515 68 423 Q70 332 120 280 Q169 227 239 226 Q278 226 312 244 Q345 262 368 293 Q365 222 356 186 Q348 150 342 139 Q321 92 287 73 Q254 53 219 53 Q185 55 165 65 Q145 75 144 76 Q138 81 137 88 Q135 95 128 100 L79 47 Q107 19 143 4 Q178 -10 217 -10 L217 -10 ZM246 287 Q203 287 170 322 Q138 356 136 426 Q138 494 169 530 Q201 567 245 567 Q300 566 335 512 Q371 459 364 363 Q343 328 312 308 Q280 288 246 287 L246 287 Z" /><glyph glyph-name="" unicode=":" d="M298 365 Q297 390 280 406 Q264 422 239 423 Q213 422 197 406 Q180 390 179 365 Q180 341 197 325 Q213 309 239 308 Q264 309 280 325 Q297 341 298 365 L298 365 ZM298 46 Q297 70 280 87 Q264 103 239 104 Q213 103 197 87 Q180 70 179 46 Q180 22 197 6 Q213 -11 239 -11 Q264 -11 280 6 Q297 22 298 46 L298 46 Z" /><glyph glyph-name="" unicode=";" d="M306 20 Q305 58 284 80 Q264 102 236 103 Q211 102 195 85 Q179 69 179 46 Q180 26 189 16 Q199 5 207 1 Q214 -3 221 -11 Q229 -19 230 -34 Q229 -47 224 -58 Q219 -70 215 -76 Q208 -88 195 -105 Q183 -121 165 -138 L199 -168 Q252 -115 279 -67 Q306 -20 306 20 L306 20 ZM298 365 Q297 390 280 406 Q264 422 239 423 Q213 422 197 406 Q180 390 179 365 Q180 341 197 325 Q213 309 239 308 Q264 309 280 325 Q297 341 298 365 L298 365 Z" /><glyph glyph-name="" unicode="&lt;" d="M458 496 L111 319 L461 123 L461 47 L35 296 L35 344 L458 567 L458 496 Z" /><glyph glyph-name="" unicode="=" d="M45 438 L45 377 L456 377 L456 438 L45 438 ZM45 231 L45 170 L456 170 L456 231 L45 231 Z" /><glyph glyph-name="" unicode="&gt;" d="M42 496 L389 319 L40 123 L40 47 L466 296 L466 344 L42 567 L42 496 Z" /><glyph glyph-name="" unicode="?" d="M320 44 Q320 69 303 85 Q286 101 261 102 Q236 101 219 85 Q203 69 202 44 Q203 20 219 4 Q236 -12 261 -13 Q286 -12 303 4 Q320 20 320 44 L320 44 ZM64 561 L115 513 Q139 553 175 576 Q211 599 250 600 Q296 599 325 569 Q354 540 355 494 Q353 446 325 412 Q298 379 273 355 Q241 319 233 289 Q225 259 226 226 L226 185 L292 185 L292 226 Q291 252 298 276 Q305 301 335 328 Q363 348 397 384 Q431 420 434 489 Q434 561 388 612 Q342 663 257 665 Q200 665 148 638 Q97 611 64 561 L64 561 Z" /><glyph glyph-name="" unicode="@" d="M435 30 L408 79 Q384 62 357 54 Q330 46 301 46 Q224 44 158 108 Q93 172 89 317 Q92 451 146 515 Q200 580 268 579 Q326 578 363 540 Q401 501 402 444 L387 444 Q359 445 329 442 Q300 440 270 429 Q223 409 199 374 Q175 338 175 297 Q176 241 213 205 Q250 168 305 167 Q334 167 360 179 Q386 191 405 213 L405 175 L465 175 L465 378 Q466 414 462 450 Q458 486 443 522 Q418 575 372 604 Q327 632 271 633 Q185 634 110 558 Q36 483 31 314 Q36 141 116 64 Q197 -13 295 -11 Q332 -11 368 -1 Q403 10 435 30 L435 30 ZM405 394 L405 375 Q405 345 403 318 Q401 290 390 267 Q378 245 358 233 Q338 222 316 222 Q283 223 260 245 Q238 267 237 300 Q237 319 247 338 Q257 357 277 371 Q303 388 332 391 Q361 395 388 394 L405 394 Z" /><glyph glyph-name="" unicode="a" d="M15 -1 L84 -1 L144 182 L342 182 L411 0 L483 0 L243 634 L235 634 L15 -1 ZM326 236 L158 236 L238 474 L326 236 Z" /><glyph glyph-name="" unicode="b" d="M48 623 L48 0 L224 0 Q256 -1 288 3 Q320 6 353 19 Q403 41 430 82 Q456 123 457 173 Q456 228 425 272 Q393 315 340 334 Q382 352 407 389 Q432 425 432 471 Q432 514 409 550 Q386 586 342 606 Q312 618 283 621 Q254 624 225 623 L48 623 ZM117 564 L216 564 Q236 564 257 562 Q278 560 299 552 Q330 539 346 516 Q362 492 362 464 Q362 437 346 414 Q331 391 301 378 Q280 369 258 367 Q236 365 215 365 L117 365 L117 564 ZM117 306 L219 306 Q243 307 266 304 Q289 302 313 291 Q347 274 365 244 Q383 214 383 180 Q383 145 366 117 Q349 89 317 74 Q297 65 277 63 Q257 61 236 61 L117 61 L117 306 Z" /><glyph glyph-name="" unicode="c" d="M278 628 Q199 632 123 562 Q46 492 41 308 Q46 130 120 59 Q195 -13 277 -10 Q334 -10 382 17 Q430 44 460 92 L408 126 Q386 90 352 70 Q318 50 281 50 Q210 51 161 119 Q111 187 109 314 Q111 439 159 505 Q207 572 275 572 Q312 572 344 552 Q375 533 395 500 Q396 498 397 495 Q398 493 398 489 Q398 486 398 482 Q397 481 398 478 Q399 475 402 472 L469 505 Q442 562 392 595 Q341 628 278 628 L278 628 Z" /><glyph glyph-name="" unicode="d" d="M54 623 L54 -1 L187 -1 Q224 -1 257 3 Q289 8 322 24 Q389 60 425 134 Q460 209 460 313 Q460 404 432 477 Q404 549 344 590 Q311 611 276 617 Q240 624 199 623 L54 623 ZM120 564 L195 564 Q225 564 254 558 Q283 552 312 529 Q355 492 373 432 Q390 372 390 303 Q389 215 364 161 Q339 107 300 82 Q271 63 242 59 Q213 54 184 54 L120 54 L120 564 Z" /><glyph glyph-name="" unicode="e" d="M59 624 L59 0 L438 0 L438 62 L125 62 L125 293 L386 293 L386 357 L125 357 L125 562 L441 562 L441 624 L59 624 Z" /><glyph glyph-name="" unicode="f" d="M78 624 L78 0 L148 0 L148 306 L381 306 L381 367 L148 367 L148 563 L437 563 L437 624 L78 624 Z" /><glyph glyph-name="" unicode="g" d="M277 629 Q208 634 126 569 Q43 504 36 304 Q41 130 116 59 Q191 -12 277 -10 Q321 -10 368 7 Q415 23 460 55 L460 299 L282 299 L282 238 L395 238 L395 90 Q369 71 340 61 Q311 52 283 52 Q252 52 221 65 Q190 78 165 106 Q127 152 115 210 Q104 268 105 319 Q105 363 112 403 Q119 444 137 479 Q162 524 199 546 Q237 568 277 568 Q319 567 350 547 Q381 526 396 494 Q398 489 401 484 Q403 479 409 475 L458 525 Q431 574 383 601 Q336 629 277 629 L277 629 Z" /><glyph glyph-name="" unicode="h" d="M54 623 L54 0 L127 0 L127 297 L370 297 L370 -1 L441 -1 L441 601 Q441 608 445 611 Q448 614 448 619 Q448 621 447 623 L371 623 L371 356 L127 356 L127 599 Q127 606 130 610 Q133 613 133 618 Q133 621 132 623 L54 623 Z" /><glyph glyph-name="" unicode="i" d="M88 623 L88 564 L204 564 L204 58 L81 58 L81 -1 L403 -1 L403 57 L274 57 L274 564 L397 564 L397 623 L88 623 Z" /><glyph glyph-name="" unicode="j" d="M172 623 L172 564 L292 564 L292 208 Q292 179 289 148 Q286 117 269 90 Q257 72 237 61 Q218 51 196 51 Q156 53 130 73 Q104 92 102 97 Q99 101 99 106 Q100 111 96 115 L49 58 Q77 25 115 7 Q153 -11 195 -11 Q239 -11 277 10 Q314 31 336 72 Q354 105 358 140 Q361 175 361 209 L361 564 L457 564 L457 623 L172 623 Z" /><glyph glyph-name="" unicode="k" d="M42 624 L42 0 L117 0 L117 258 L166 312 L382 -4 Q383 -4 408 -3 Q433 -1 471 -1 L219 354 L455 623 L429 623 Q416 623 403 624 Q390 625 377 628 L117 336 L117 598 Q116 601 117 604 Q118 606 120 610 Q122 612 124 615 Q127 619 126 624 L42 624 Z" /><glyph glyph-name="" unicode="l" d="M66 623 L66 -1 L439 -1 L439 60 L139 60 L139 589 Q139 596 140 600 Q142 603 144 607 Q145 610 147 614 Q148 618 148 623 L66 623 Z" /><glyph glyph-name="" unicode="m" d="M41 623 L41 -1 L106 -1 L106 467 L232 219 L259 219 L394 470 L394 -1 L460 -1 L460 624 L407 624 L250 318 L96 623 L41 623 Z" /><glyph glyph-name="" unicode="n" d="M50 0 L117 0 L117 490 L392 -1 L447 -1 L447 597 Q447 602 448 605 Q449 608 451 611 Q452 613 453 616 Q454 620 454 624 L380 624 L380 161 L118 623 L50 623 L50 0 Z" /><glyph glyph-name="" unicode="o" d="M471 310 Q472 355 465 408 Q458 462 433 513 Q401 572 353 601 Q305 630 254 630 Q179 633 107 563 Q35 493 29 313 Q34 132 106 60 Q178 -12 254 -10 Q306 -10 354 20 Q402 49 434 111 Q458 162 465 215 Q472 268 471 310 L471 310 ZM251 564 Q285 565 320 542 Q354 519 377 466 Q392 426 397 384 Q402 341 401 301 Q402 269 397 227 Q392 184 373 143 Q351 98 319 78 Q287 58 254 59 Q199 57 150 116 Q102 175 98 322 Q102 459 150 513 Q198 567 251 564 L251 564 Z" /><glyph glyph-name="" unicode="p" d="M59 623 L59 0 L131 0 L131 275 L254 275 L254 275 Q283 275 311 278 Q339 282 368 295 Q411 318 433 359 Q456 399 456 448 Q456 496 433 537 Q411 578 366 602 Q337 616 308 620 Q279 624 249 623 L59 623 ZM131 557 L249 557 Q268 558 287 556 Q306 553 325 544 Q354 529 369 502 Q384 475 384 444 Q384 414 370 389 Q356 364 329 349 Q311 341 293 338 Q275 336 256 337 L130 337 L131 557 Z" /><glyph glyph-name="" unicode="q" d="M251 566 Q285 567 320 544 Q355 521 379 467 Q394 426 399 383 Q404 340 404 301 Q400 149 349 100 Q299 51 255 55 Q197 53 149 115 Q100 176 97 323 Q101 458 149 513 Q197 568 251 566 L251 566 ZM471 309 Q472 354 465 407 Q458 460 434 511 Q402 572 354 601 Q306 630 254 630 Q179 633 107 563 Q35 493 29 312 Q33 148 94 75 Q154 1 226 -7 Q225 -50 239 -81 Q252 -113 286 -130 Q314 -143 351 -144 Q387 -145 440 -145 L442 -77 Q418 -78 398 -80 Q377 -82 361 -82 Q315 -81 301 -57 Q287 -34 287 -7 Q331 1 369 30 Q408 59 434 110 Q458 161 465 214 Q472 267 471 309 L471 309 Z" /><glyph glyph-name="" unicode="r" d="M56 623 L56 0 L127 0 L127 275 L248 275 L386 0 L464 0 L320 278 Q378 295 412 342 Q446 389 447 452 Q447 500 425 540 Q402 580 359 602 Q329 617 300 620 Q270 624 240 623 L56 623 ZM127 557 L240 557 Q259 558 278 556 Q297 553 316 544 Q346 529 360 502 Q375 475 375 444 Q375 414 361 389 Q347 364 320 349 Q302 341 284 338 Q266 336 248 337 L127 337 L127 557 Z" /><glyph glyph-name="" unicode="s" d="M435 549 Q403 587 358 607 Q314 626 262 627 Q176 625 125 579 Q74 533 72 467 Q72 439 86 407 Q100 375 139 345 Q184 314 240 294 Q296 273 333 252 Q363 232 375 209 Q386 187 386 166 Q386 123 351 89 Q317 55 249 53 Q198 54 160 74 Q122 94 101 121 Q98 124 98 127 Q98 129 98 132 Q98 133 97 136 Q97 139 93 142 L52 70 Q89 30 139 10 Q189 -10 247 -10 Q360 -7 408 50 Q456 107 455 170 Q456 195 446 225 Q435 254 407 282 Q364 319 308 340 Q252 361 208 385 Q170 408 156 433 Q143 458 144 478 Q144 515 174 541 Q203 568 257 569 Q300 568 333 551 Q365 534 383 507 Q385 504 385 502 Q386 500 386 498 Q386 493 388 492 Q389 490 391 489 L435 549 Z" /><glyph glyph-name="" unicode="t" d="M31 624 L31 561 L208 561 L208 -1 L279 -1 L279 561 L463 561 L463 624 L31 624 Z" /><glyph glyph-name="" unicode="u" d="M50 623 L50 215 L50 215 Q49 182 54 150 Q58 118 74 86 Q101 38 148 13 Q195 -11 252 -11 Q307 -11 354 13 Q401 37 429 86 Q446 119 450 151 Q455 184 454 218 L454 623 L387 623 L387 217 Q388 192 385 169 Q383 145 371 121 Q354 85 322 67 Q290 48 253 48 Q215 48 183 67 Q152 86 134 122 Q124 145 121 168 Q119 191 119 214 L119 591 Q119 594 120 597 Q120 600 123 604 Q125 607 127 610 Q129 614 130 618 Q130 621 129 623 L50 623 Z" /><glyph glyph-name="" unicode="v" d="M25 624 L237 -4 L269 -4 L478 623 L409 623 L258 145 L98 624 L25 624 Z" /><glyph glyph-name="" unicode="w" d="M17 623 L117 -4 L146 -4 L255 407 L362 -4 L389 -4 L488 623 L429 623 L372 200 L271 577 L249 577 L149 202 L82 623 L17 623 Z" /><glyph glyph-name="" unicode="x" d="M379 624 L250 387 L119 624 L44 624 L211 318 L41 0 L117 0 L251 247 L389 0 L468 0 L291 319 L449 624 L379 624 Z" /><glyph glyph-name="" unicode="y" d="M28 624 L220 246 L220 0 L296 0 L296 246 L473 623 L399 623 L261 321 L108 624 L28 624 Z" /><glyph glyph-name="" unicode="z" d="M62 623 L62 560 L364 560 L50 48 L50 -1 L463 -1 L463 67 Q454 68 448 65 Q442 62 432 61 L138 61 L446 574 L447 623 L62 623 Z" /><glyph glyph-name="" unicode="[" d="M131 670 L131 -89 L418 -89 L418 -32 L195 -32 L195 610 L417 610 L417 670 L131 670 Z" /><glyph glyph-name="" unicode="\" d="M437 -13 L123 665 L64 634 L378 -42 L437 -13 Z" /><glyph glyph-name="" unicode="]" d="M369 670 L84 670 L84 610 L306 610 L306 -32 L83 -32 L83 -89 L369 -89 L369 670 Z" /><glyph glyph-name="" unicode="^" d="M93 367 L143 343 L253 518 L350 343 L403 368 L268 623 L246 623 L93 367 Z" /><glyph glyph-name="" unicode="_" d="M35 -19 L35 -80 L466 -80 L466 -19 L35 -19 Z" /><glyph glyph-name="" unicode="`" d="M219 461 Q242 436 262 434 Q282 432 293 443 Q305 452 307 471 Q309 489 291 512 Q280 524 268 534 Q256 544 245 557 Q236 568 229 580 Q222 593 217 605 L191 671 L139 646 L164 579 Q182 529 194 502 Q207 475 219 461 L219 461 Z" /><glyph glyph-name="" unicode="a" d="M91 403 L126 357 Q155 386 190 397 Q225 409 257 408 Q297 407 320 394 Q342 381 351 364 Q362 345 364 325 Q366 304 366 286 L366 269 L351 269 Q300 270 249 267 Q198 264 154 249 Q100 228 74 192 Q49 157 49 118 Q50 66 90 28 Q130 -9 203 -11 Q245 -11 287 4 Q329 19 367 50 L367 0 L435 0 L435 283 Q436 311 432 338 Q428 365 413 391 Q390 429 348 448 Q307 467 254 467 Q207 467 165 452 Q123 436 91 403 L91 403 ZM369 214 L369 184 Q369 166 365 144 Q360 122 337 98 Q325 83 294 64 Q263 46 217 44 Q172 45 147 68 Q122 91 121 123 Q121 149 140 172 Q159 196 202 207 Q234 214 275 214 Q315 215 352 214 L369 214 Z" /><glyph glyph-name="" unicode="b" d="M60 665 L60 0 L106 0 L131 60 Q154 27 189 8 Q225 -11 266 -11 Q340 -11 397 49 Q454 110 457 234 Q454 353 399 411 Q344 468 274 468 Q229 467 192 446 Q155 425 133 387 L133 643 Q133 647 134 649 Q135 652 139 654 Q140 655 143 658 Q145 661 144 665 L60 665 ZM249 406 Q285 409 332 373 Q378 336 383 219 Q378 117 332 84 Q285 51 247 53 Q221 52 184 71 Q147 90 136 153 Q133 171 133 192 Q133 214 133 243 Q133 274 135 297 Q137 321 145 339 Q158 370 186 388 Q214 406 249 406 L249 406 Z" /><glyph glyph-name="" unicode="c" d="M457 381 Q429 421 385 444 Q341 466 286 466 Q183 464 121 399 Q58 333 56 228 Q58 123 120 57 Q182 -9 281 -11 Q329 -11 373 7 Q416 26 450 61 L408 110 Q385 83 353 69 Q322 55 287 54 Q219 56 175 105 Q132 154 130 236 Q132 315 174 359 Q217 404 281 405 Q339 402 368 377 Q398 352 399 345 Q401 339 401 333 Q400 327 406 322 L457 381 Z" /><glyph glyph-name="" unicode="d" d="M371 390 Q354 426 320 447 Q285 468 237 469 Q168 470 108 416 Q49 362 45 232 Q48 106 103 48 Q157 -11 227 -10 Q271 -10 308 12 Q345 34 368 73 L368 34 Q368 25 368 17 Q369 8 372 0 L444 0 Q441 11 440 21 Q439 32 439 42 L438 637 Q438 641 439 644 Q440 646 442 650 Q444 653 446 657 Q448 660 448 665 L371 665 L371 390 ZM240 410 Q272 411 307 391 Q342 371 358 321 Q362 306 364 283 Q365 261 365 223 Q365 197 363 177 Q361 157 356 140 Q342 99 311 76 Q280 54 243 53 Q201 51 160 92 Q118 133 115 244 Q118 340 158 376 Q198 412 240 410 L240 410 Z" /><glyph glyph-name="" unicode="e" d="M259 468 Q174 468 113 408 Q51 348 49 223 Q51 109 112 49 Q173 -10 268 -10 Q317 -10 360 7 Q402 25 432 60 L392 99 Q369 74 339 61 Q308 48 274 48 Q224 46 175 82 Q126 118 118 218 L443 218 Q447 266 440 306 Q422 396 369 433 Q317 469 259 468 L259 468 ZM121 274 Q134 353 174 384 Q214 414 254 413 Q310 411 344 371 Q377 331 372 274 L121 274 Z" /><glyph glyph-name="" unicode="f" d="M343 671 Q295 671 253 651 Q212 630 187 591 Q170 563 166 534 Q162 505 162 475 L162 430 L63 430 L63 373 L162 373 L162 0 L231 0 L231 373 L381 373 L381 430 L231 430 L231 465 Q231 490 233 515 Q236 541 248 564 Q262 589 287 602 Q311 614 340 614 Q373 614 399 599 Q425 584 440 562 Q442 559 442 556 Q442 553 442 550 Q443 545 445 543 Q448 542 450 542 L483 608 Q458 638 423 654 Q387 671 343 671 L343 671 Z" /><glyph glyph-name="" unicode="g" d="M126 314 Q127 357 155 385 Q184 414 227 415 Q269 414 298 385 Q326 357 327 314 Q326 272 298 243 Q269 215 227 214 Q184 215 155 243 Q127 272 126 314 L126 314 ZM231 472 Q161 470 111 424 Q62 379 60 310 Q60 272 78 240 Q96 207 128 186 Q103 165 89 143 Q76 120 76 98 Q76 83 83 66 Q91 49 113 37 Q39 -10 38 -64 Q36 -103 82 -137 Q127 -170 245 -172 Q360 -169 408 -125 Q456 -81 455 -32 Q455 -2 438 25 Q420 51 384 67 Q348 80 308 81 Q269 81 229 80 Q204 80 188 82 Q171 83 164 85 Q151 89 144 97 Q137 105 137 115 Q138 134 151 149 Q164 163 169 167 Q197 156 227 156 Q297 158 343 203 Q390 248 392 313 Q392 334 386 353 Q380 373 369 390 Q387 401 407 407 Q427 412 448 412 Q462 412 475 410 L466 469 Q431 471 399 461 Q366 450 339 428 Q318 449 290 460 Q262 472 231 472 L231 472 ZM161 24 Q174 23 193 21 Q212 20 238 19 Q264 18 289 19 Q315 19 335 16 Q366 11 378 -5 Q390 -21 389 -37 Q389 -52 380 -68 Q370 -84 346 -98 Q321 -111 294 -114 Q267 -118 244 -118 Q227 -118 202 -115 Q176 -113 149 -103 Q122 -91 113 -75 Q104 -59 104 -47 Q105 -22 123 -4 Q141 14 161 24 L161 24 Z" /><glyph glyph-name="" unicode="h" d="M70 0 L143 0 L143 263 Q143 286 147 304 Q152 323 166 342 Q180 361 209 382 Q239 403 276 405 Q293 405 309 398 Q325 391 338 376 Q355 354 359 327 Q363 300 362 275 L362 0 L433 0 L433 277 L433 277 Q434 304 431 332 Q428 359 417 387 Q399 426 367 447 Q335 468 295 468 Q248 467 209 441 Q169 415 143 376 L143 641 Q143 644 144 646 Q144 648 147 651 Q149 653 151 655 Q153 658 153 662 Q153 663 153 665 L70 665 L70 0 Z" /><glyph glyph-name="" unicode="i" d="M106 457 L106 399 L217 399 L217 58 L100 58 L100 0 L396 0 L396 58 L289 58 L289 457 L106 457 ZM255 656 Q233 655 218 641 Q203 626 203 605 Q203 583 218 568 Q233 554 255 553 Q277 554 291 568 Q306 583 306 605 Q306 626 291 641 Q277 655 255 656 L255 656 Z" /><glyph glyph-name="" unicode="j" d="M126 457 L126 398 L296 398 L296 18 Q296 0 294 -18 Q292 -36 284 -55 Q271 -83 246 -97 Q222 -112 192 -112 Q151 -110 129 -92 Q106 -73 104 -67 Q101 -62 100 -57 Q99 -52 95 -48 L48 -110 Q73 -141 109 -158 Q145 -174 188 -174 Q238 -174 281 -152 Q324 -129 348 -83 Q362 -55 366 -26 Q369 2 369 32 L369 457 L126 457 ZM333 656 Q311 655 296 641 Q282 626 281 605 Q282 583 296 568 Q311 554 333 553 Q355 554 370 568 Q384 583 385 605 Q384 626 370 641 Q355 655 333 656 L333 656 Z" /><glyph glyph-name="" unicode="k" d="M66 665 L66 -1 L139 -1 L139 173 L199 229 L386 -4 Q387 -4 411 -3 Q435 -1 472 -1 Q475 -1 479 -1 L255 273 L447 454 L421 454 Q408 454 394 455 Q381 456 368 459 L139 247 L139 639 Q139 642 140 644 Q140 647 143 650 Q145 652 147 656 Q149 659 148 665 L66 665 Z" /><glyph glyph-name="" unicode="l" d="M85 665 L85 607 L214 607 L214 58 L79 58 L79 0 L421 0 L421 58 L287 58 L287 665 L85 665 Z" /><glyph glyph-name="" unicode="m" d="M38 0 L104 0 L104 305 Q103 321 106 336 Q109 352 118 370 Q131 393 145 403 Q159 413 173 413 Q186 413 198 405 Q209 396 216 378 Q220 363 220 347 Q220 332 220 318 L220 0 L287 0 L287 302 Q287 320 291 336 Q294 353 307 374 Q312 385 326 399 Q339 414 360 415 Q371 415 381 409 Q390 402 396 390 Q402 375 402 357 Q403 340 402 324 L402 -1 L470 -1 L470 324 Q471 353 469 381 Q466 408 452 431 Q438 451 419 460 Q400 468 380 468 Q347 467 319 450 Q292 432 278 401 Q272 430 250 449 Q228 467 197 468 Q169 467 144 452 Q120 436 104 412 L104 457 L38 457 L38 0 Z" /><glyph glyph-name="" unicode="n" d="M68 0 L142 0 L142 263 Q141 286 146 304 Q150 323 164 342 Q178 361 207 382 Q237 403 274 405 Q291 405 307 398 Q323 391 336 376 Q354 354 358 327 Q361 300 361 275 L361 0 L432 0 L432 277 L432 277 Q432 304 429 332 Q427 359 415 387 Q397 426 365 447 Q333 468 293 468 Q246 467 207 441 Q167 415 142 376 L142 457 L68 457 L68 0 Z" /><glyph glyph-name="" unicode="o" d="M460 226 Q457 345 397 406 Q338 467 257 467 Q167 465 105 399 Q43 333 40 225 Q43 119 104 54 Q166 -10 255 -12 Q338 -11 398 50 Q457 112 460 226 L460 226 ZM252 406 Q304 406 344 362 Q385 317 388 223 Q386 137 346 94 Q307 50 255 50 Q199 51 159 98 Q118 146 116 231 Q118 316 158 360 Q197 405 252 406 L252 406 Z" /><glyph glyph-name="" unicode="p" d="M60 457 L60 -167 L134 -167 L134 60 Q157 26 193 7 Q229 -12 271 -12 Q344 -13 402 48 Q459 108 463 234 Q459 354 404 411 Q348 467 277 467 Q233 467 195 445 Q157 424 133 387 L133 457 L60 457 ZM251 406 Q286 409 334 374 Q383 339 388 219 Q383 114 335 81 Q287 49 250 52 Q217 52 189 68 Q160 83 146 115 Q136 137 134 169 Q132 200 133 249 Q133 278 135 300 Q138 322 145 339 Q159 370 187 388 Q216 405 251 406 L251 406 Z" /><glyph glyph-name="" unicode="q" d="M374 390 Q375 395 345 429 Q315 464 241 469 Q162 468 104 409 Q45 349 42 233 Q45 120 98 56 Q152 -9 230 -10 Q274 -10 311 13 Q348 35 370 73 L370 -167 L442 -167 L442 457 L374 457 L374 390 ZM243 410 Q275 410 308 392 Q340 374 357 332 Q363 314 366 289 Q368 264 368 223 Q368 197 366 177 Q364 157 358 140 Q344 99 314 76 Q283 54 246 53 Q195 53 156 100 Q117 146 115 243 Q117 332 156 371 Q195 411 243 410 L243 410 Z" /><glyph glyph-name="" unicode="r" d="M99 457 L99 -1 L172 -1 L172 222 Q171 242 176 267 Q181 292 204 329 Q236 377 271 392 Q307 407 332 406 Q361 405 380 395 Q398 384 408 372 Q412 366 415 360 Q419 354 425 349 L458 418 Q437 440 406 454 Q375 467 336 468 Q285 468 240 443 Q195 418 172 369 L174 457 L99 457 Z" /><glyph glyph-name="" unicode="s" d="M432 396 Q400 431 357 449 Q313 468 262 468 Q181 466 134 430 Q87 393 86 340 Q91 281 133 255 Q174 228 198 222 Q227 212 261 202 Q294 192 320 181 Q348 167 357 151 Q367 135 366 122 Q365 90 332 70 Q299 51 249 50 Q190 52 153 76 Q117 99 106 114 Q103 117 103 119 Q103 121 103 124 Q103 126 102 129 Q102 132 98 134 L57 62 Q98 25 147 7 Q197 -11 250 -10 Q344 -8 392 35 Q440 78 440 132 Q441 157 427 184 Q412 212 373 236 Q332 256 286 269 Q239 281 205 296 Q178 309 168 324 Q159 339 160 351 Q161 379 188 396 Q216 413 256 413 Q305 412 337 390 Q370 369 383 351 Q385 348 385 346 Q385 344 385 341 Q385 337 387 335 Q389 333 390 333 L432 396 Z" /><glyph glyph-name="" unicode="t" d="M188 579 L180 457 L71 457 L70 398 L177 398 Q167 281 167 164 Q167 133 171 101 Q175 68 194 40 Q211 17 237 4 Q263 -9 298 -9 Q340 -8 377 6 Q415 21 444 42 L422 99 Q393 78 367 68 Q341 57 320 58 Q293 57 271 74 Q249 91 243 131 Q242 133 241 152 Q240 171 240 219 Q240 309 249 398 L399 398 L399 457 L249 457 Q250 462 253 502 Q257 542 261 565 Q263 573 266 579 Q269 585 267 592 L188 579 Z" /><glyph glyph-name="" unicode="u" d="M63 457 L62 202 Q62 172 64 142 Q67 112 80 82 Q101 37 139 13 Q177 -11 222 -11 Q266 -11 303 10 Q340 32 363 70 L362 35 Q362 18 364 0 L440 0 Q437 10 436 21 Q435 31 435 41 L435 457 L362 457 L362 205 Q363 179 359 158 Q356 136 344 115 Q328 86 300 67 Q272 48 239 47 Q212 48 189 62 Q166 76 152 103 Q140 128 137 153 Q135 179 135 202 L135 457 L63 457 Z" /><glyph glyph-name="" unicode="v" d="M40 457 L221 -3 L277 -3 L388 257 Q409 305 427 355 Q445 405 457 457 L392 457 Q382 407 366 360 Q349 312 330 268 L256 98 L124 432 Q123 434 123 438 Q123 442 125 447 Q127 451 126 457 L40 457 Z" /><glyph glyph-name="" unicode="w" d="M16 457 L108 -1 L173 -1 L253 295 L337 -1 L405 -1 Q451 226 481 457 L414 457 Q416 422 409 350 Q401 279 372 91 L275 414 L231 414 L153 90 L86 419 Q85 424 85 428 Q85 432 87 438 Q89 442 90 447 Q91 452 89 457 L16 457 Z" /><glyph glyph-name="" unicode="x" d="M362 457 L248 288 L129 457 L50 457 L208 232 L47 0 L129 0 L248 178 L374 0 L456 0 L288 235 L436 457 L362 457 Z" /><glyph glyph-name="" unicode="y" d="M46 457 L231 2 L217 -32 Q211 -46 203 -59 Q196 -73 185 -85 Q171 -100 154 -107 Q137 -115 121 -115 Q96 -113 83 -103 Q69 -92 68 -87 Q66 -83 65 -79 Q64 -74 60 -71 L22 -135 Q42 -154 68 -164 Q93 -174 121 -174 Q153 -174 183 -162 Q213 -150 236 -124 Q251 -107 259 -89 Q268 -71 275 -52 L418 325 Q443 391 463 457 L388 457 Q383 426 374 396 Q364 365 354 336 L267 91 L133 427 Q131 431 131 435 Q131 440 133 445 Q136 450 135 457 L46 457 Z" /><glyph glyph-name="" unicode="z" d="M71 457 L71 394 L333 394 L50 48 L50 -1 L450 -1 L450 67 Q441 68 435 65 Q429 62 419 61 L148 61 L426 408 L426 457 L71 457 Z" /><glyph glyph-name="" unicode="{" d="M53 284 L53 228 L73 228 Q86 228 104 225 Q121 222 137 208 Q151 194 157 171 Q163 149 163 116 Q163 93 161 69 Q159 45 159 16 Q158 -13 167 -55 Q177 -96 215 -129 Q247 -152 286 -156 Q325 -160 371 -159 L407 -159 L407 -103 L370 -103 Q340 -103 315 -101 Q291 -99 271 -86 Q245 -67 237 -38 Q229 -10 230 17 Q230 37 231 57 Q233 78 233 101 Q231 178 205 213 Q179 248 148 256 Q172 266 190 284 Q208 301 220 324 Q229 344 232 365 Q236 386 235 404 Q235 422 234 439 Q233 456 233 474 Q231 491 238 519 Q245 548 273 567 Q292 579 317 580 Q341 581 374 580 L408 580 L408 637 L378 637 Q337 638 293 633 Q249 628 212 597 Q180 566 171 529 Q162 492 163 463 Q163 444 164 427 Q165 409 165 391 Q166 372 161 349 Q156 326 139 306 Q123 290 104 287 Q86 283 72 284 L53 284 Z" /><glyph glyph-name="" unicode="|" d="M217 652 L217 -151 L284 -151 L284 652 L217 652 Z" /><glyph glyph-name="" unicode="}" d="M448 284 L428 284 Q414 283 396 287 Q378 290 361 306 Q344 326 339 349 Q335 372 335 391 Q335 409 337 427 Q338 444 338 463 Q339 492 330 529 Q320 566 288 597 Q252 628 208 633 Q164 638 123 637 L92 637 L92 580 L127 580 Q159 581 184 580 Q208 579 228 567 Q256 548 262 519 Q269 491 268 474 Q268 456 267 439 Q265 422 265 404 Q265 386 268 365 Q271 344 281 324 Q292 301 310 284 Q329 266 352 256 Q322 248 296 213 Q269 178 268 101 Q268 78 269 57 Q271 37 271 17 Q272 -10 264 -38 Q256 -67 230 -86 Q210 -99 185 -101 Q161 -103 130 -103 L93 -103 L93 -159 L129 -159 Q176 -160 215 -156 Q253 -152 286 -129 Q324 -96 333 -55 Q343 -13 341 16 Q341 45 339 69 Q338 93 338 116 Q337 149 343 171 Q349 194 364 208 Q380 222 397 225 Q414 228 427 228 L448 228 L448 284 Z" /><glyph glyph-name="" unicode="~" d="M91 342 Q111 373 132 388 Q153 404 174 404 Q217 399 248 364 Q279 329 337 324 Q385 326 420 355 Q456 384 476 416 L430 454 Q409 424 389 407 Q369 390 345 389 Q304 394 271 427 Q238 460 179 464 Q136 463 100 438 Q64 413 41 375 L91 342 Z" /><glyph glyph-name="" unicode=" " d="" /><glyph glyph-name="" unicode="¡" d="M180 609 Q181 584 198 567 Q214 550 239 550 Q265 550 281 567 Q298 584 299 609 Q298 634 281 651 Q265 667 239 668 Q214 667 198 651 Q181 634 180 609 L180 609 ZM238 -11 Q251 -11 263 -3 Q275 5 282 21 Q285 29 287 40 Q289 50 289 64 Q288 87 285 113 Q282 139 279 186 L264 463 L214 463 L196 186 Q194 158 190 129 Q187 101 187 72 Q187 55 188 45 Q189 36 190 32 Q197 9 210 -1 Q223 -11 238 -11 L238 -11 Z" /><glyph glyph-name="" unicode="¢" d="M285 624 L271 512 Q169 505 109 440 Q50 375 48 273 Q49 185 93 124 Q137 63 212 41 L198 -72 L255 -79 L270 33 Q274 33 278 33 Q327 33 370 51 Q414 69 446 104 L410 153 Q383 126 350 111 Q316 97 279 97 L279 97 L325 447 Q352 438 371 424 Q390 411 399 399 Q403 394 403 391 Q403 387 403 383 Q403 382 403 379 Q404 375 407 373 L451 430 Q433 458 403 478 Q373 499 333 507 L343 589 Q344 594 345 597 Q347 600 349 603 Q350 605 351 608 Q352 612 352 617 L285 624 ZM220 108 Q174 126 147 171 Q120 216 119 282 Q120 361 160 405 Q200 450 263 454 L220 108 Z" /><glyph glyph-name="" unicode="£" d="M418 572 Q390 597 357 610 Q324 623 288 623 Q216 622 165 574 Q114 527 112 442 Q113 409 119 378 L67 378 L67 321 L133 321 Q139 297 143 272 Q148 247 148 222 Q148 188 139 157 Q130 126 113 100 Q103 83 88 73 Q73 64 39 49 L65 -8 Q113 17 143 24 Q173 31 188 30 Q241 27 280 8 Q320 -12 366 -15 Q399 -14 426 -1 Q453 12 470 27 L444 79 Q428 65 409 58 Q390 51 370 51 Q328 53 291 71 Q253 89 205 92 Q191 92 178 90 Q196 119 205 153 Q214 186 214 224 Q214 249 210 274 Q207 298 201 321 L287 321 L287 378 L187 378 Q184 394 182 411 Q179 427 179 443 Q181 505 213 536 Q244 566 286 566 Q318 565 337 554 Q357 542 360 537 Q364 532 366 527 Q368 522 374 517 L418 572 Z" /><glyph glyph-name="" unicode="&#x20ac;" d="M464 574 Q438 600 403 614 Q369 628 329 628 Q281 629 227 604 Q173 578 133 512 Q120 490 111 466 Q102 441 97 414 L46 414 L33 356 L88 356 Q86 325 86 292 Q86 284 86 276 L46 276 L33 218 L91 218 Q115 82 186 34 Q258 -14 323 -11 Q362 -11 398 2 Q434 15 463 40 L434 90 Q412 70 385 60 Q357 49 327 49 Q292 49 257 65 Q222 81 195 116 Q164 158 154 218 L331 218 L354 276 L148 276 Q148 287 148 297 Q148 331 150 356 L384 356 L406 414 L159 414 Q161 425 164 434 Q187 509 233 540 Q279 572 325 571 Q376 568 403 549 Q430 530 431 526 Q434 521 434 516 Q435 510 439 506 L464 574 Z" /><glyph glyph-name="" unicode="¥" d="M36 624 L224 295 L224 274 L84 274 L84 217 L224 217 L224 154 L84 154 L84 98 L224 98 L224 0 L292 0 L292 98 L426 98 L426 154 L292 154 L292 217 L426 217 L426 274 L292 274 L292 295 L466 623 L392 623 L259 363 L114 624 L36 624 Z" /><glyph glyph-name="" unicode="&#x160;" d="M402 755 L374 789 L262 721 L159 791 L126 753 L249 656 L271 656 L402 755 ZM435 549 Q403 587 358 607 Q314 626 262 627 Q176 625 125 579 Q74 533 72 467 Q72 439 86 407 Q100 375 139 345 Q184 314 240 294 Q296 273 333 252 Q363 232 375 209 Q386 187 386 166 Q386 123 351 89 Q317 55 249 53 Q198 54 160 74 Q122 94 101 121 Q98 124 98 127 Q98 129 98 132 Q98 133 97 136 Q97 139 93 142 L52 70 Q89 30 139 10 Q189 -10 247 -10 Q360 -7 408 50 Q456 107 455 170 Q456 195 446 225 Q435 254 407 282 Q364 319 308 340 Q252 361 208 385 Q170 408 156 433 Q143 458 144 478 Q144 515 174 541 Q203 568 257 569 Q300 568 333 551 Q365 534 383 507 Q385 504 385 502 Q386 500 386 498 Q386 493 388 492 Q389 490 391 489 L435 549 Z" /><glyph glyph-name="" unicode="§" d="M413 583 Q389 624 348 648 Q307 671 257 672 Q185 670 140 629 Q95 588 94 530 Q94 499 109 469 Q125 439 161 417 Q124 403 102 377 Q80 350 79 316 Q79 290 94 265 Q110 239 143 219 Q181 199 220 189 Q259 179 291 162 Q316 146 327 127 Q337 109 337 91 Q336 59 310 36 Q285 13 238 12 Q182 15 155 40 Q128 66 126 75 Q124 79 124 85 Q123 90 117 92 L65 31 Q97 -10 142 -32 Q187 -54 238 -54 Q315 -53 361 -10 Q407 32 408 93 Q408 125 393 155 Q377 186 344 209 Q377 223 397 248 Q417 274 418 305 Q419 333 398 363 Q378 393 326 419 Q296 433 268 442 Q241 451 220 461 Q188 479 177 500 Q166 520 167 536 Q167 568 192 590 Q217 612 257 613 Q297 611 320 592 Q343 572 349 554 Q350 549 351 543 Q351 538 356 533 L413 583 ZM197 399 Q221 390 243 383 Q266 376 285 367 Q319 349 331 327 Q344 306 343 288 Q343 268 333 253 Q323 237 307 228 Q279 239 254 245 Q229 252 206 262 Q175 278 163 299 Q151 319 152 336 Q152 358 165 375 Q177 392 197 399 L197 399 Z" /><glyph glyph-name="" unicode="&#x161;" d="M377 658 L339 693 L258 591 L180 694 L134 659 L244 518 L266 518 L377 658 ZM432 396 Q400 431 357 449 Q313 468 262 468 Q181 466 134 430 Q87 393 86 340 Q91 281 133 255 Q174 228 198 222 Q227 212 261 202 Q294 192 320 181 Q348 167 357 151 Q367 135 366 122 Q365 90 332 70 Q299 51 249 50 Q190 52 153 76 Q117 99 106 114 Q103 117 103 119 Q103 121 103 124 Q103 126 102 129 Q102 132 98 134 L57 62 Q98 25 147 7 Q197 -11 250 -10 Q344 -8 392 35 Q440 78 440 132 Q441 157 427 184 Q412 212 373 236 Q332 256 286 269 Q239 281 205 296 Q178 309 168 324 Q159 339 160 351 Q161 379 188 396 Q216 413 256 413 Q305 412 337 390 Q370 369 383 351 Q385 348 385 346 Q385 344 385 341 Q385 337 387 335 Q389 333 390 333 L432 396 Z" /><glyph glyph-name="" unicode="©" d="M262 424 Q200 423 158 382 Q116 341 115 276 Q116 211 157 167 Q198 123 261 122 Q298 122 330 140 Q363 158 384 190 L340 219 Q329 198 309 186 Q289 175 265 174 Q225 175 198 206 Q172 236 171 282 Q172 329 200 351 Q227 374 264 374 Q301 372 315 356 Q330 339 331 332 Q332 327 331 322 Q331 317 335 312 L387 331 Q376 372 343 398 Q310 423 262 424 L262 424 ZM256 19 Q358 21 426 93 Q495 165 498 275 Q495 384 427 456 Q358 527 256 530 Q154 527 85 456 Q16 384 14 274 Q16 164 85 93 Q154 21 256 19 L256 19 ZM59 274 Q62 366 118 426 Q174 486 257 488 Q340 486 396 426 Q453 367 455 275 Q453 183 396 124 Q340 64 257 62 Q174 64 118 123 Q62 183 59 274 L59 274 Z" /><glyph glyph-name="" unicode="ª" d="M123 566 L157 525 Q174 548 199 558 Q224 569 251 569 Q274 569 290 560 Q306 552 314 539 Q322 526 324 513 Q326 500 325 488 L325 476 L311 476 Q273 476 234 474 Q195 471 161 454 Q130 437 116 412 Q102 387 102 362 Q103 319 135 289 Q167 258 220 257 Q249 257 276 268 Q304 279 326 300 L326 267 L389 267 L389 485 Q389 505 387 522 Q385 540 378 557 Q362 590 330 606 Q298 623 257 622 Q221 623 186 610 Q150 597 123 566 L123 566 ZM328 424 L328 406 Q329 389 325 373 Q321 358 306 343 Q292 330 272 321 Q253 312 229 311 Q200 312 183 327 Q167 343 166 364 Q166 381 180 398 Q193 414 226 421 Q246 424 269 424 Q292 424 312 424 L328 424 ZM76 206 L76 152 L425 152 L425 206 L76 206 Z" /><glyph glyph-name="" unicode="«" d="M249 253 L249 230 L406 61 L446 101 L318 241 L439 359 L400 400 L249 253 ZM67 253 L67 230 L225 61 L265 101 L137 241 L258 359 L219 400 L67 253 Z" /><glyph glyph-name="" unicode="¬" d="M91 347 L91 284 L350 284 L350 157 L414 157 L414 347 L91 347 Z" /><glyph glyph-name="" unicode="­" d="M71 348 L71 281 L431 281 L431 348 L71 348 Z" /><glyph glyph-name="" unicode="®" d="M256 19 Q358 21 426 93 Q495 165 498 275 Q495 384 427 456 Q358 527 256 530 Q154 527 85 456 Q16 384 14 274 Q16 164 85 93 Q154 21 256 19 L256 19 ZM59 274 Q62 366 118 426 Q174 486 257 488 Q340 486 396 426 Q453 367 455 275 Q453 183 396 124 Q340 64 257 62 Q174 64 118 123 Q62 183 59 274 L59 274 ZM155 133 L201 133 L201 256 L267 256 L329 131 L376 138 L312 263 Q338 271 354 292 Q370 313 370 340 Q370 363 357 383 Q344 404 318 415 Q301 422 284 423 Q266 425 249 425 L155 425 L155 133 ZM201 384 L250 384 Q263 384 276 383 Q290 382 302 375 Q314 369 319 359 Q325 350 324 340 Q325 330 320 321 Q315 313 305 306 Q293 299 279 297 Q265 296 253 296 L201 296 L201 384 Z" /><glyph glyph-name="" unicode="¯" d="M123 621 L123 565 L377 565 L377 621 L123 621 Z" /><glyph glyph-name="" unicode="°" d="M391 504 Q389 561 351 599 Q313 637 256 639 Q198 637 160 599 Q122 561 121 504 Q122 447 160 410 Q198 372 256 370 Q313 372 351 410 Q389 447 391 504 L391 504 ZM257 586 Q288 585 309 563 Q331 540 331 506 Q331 471 309 449 Q288 426 257 425 Q225 426 204 449 Q183 471 182 506 Q183 540 204 563 Q226 585 257 586 L257 586 Z" /><glyph glyph-name="" unicode="±" d="M46 80 L46 17 L457 17 L457 80 L46 80 ZM222 575 L222 404 L45 404 L45 343 L222 343 L222 155 L285 155 L285 343 L456 343 L456 404 L285 404 L285 575 L222 575 Z" /><glyph glyph-name="" unicode="²" d="M111 554 L158 523 Q161 530 163 534 Q164 539 168 544 Q181 561 204 573 Q227 585 256 586 Q292 585 312 567 Q331 549 331 525 Q331 502 317 484 Q302 465 280 447 Q256 429 210 392 Q165 355 121 297 L121 253 L400 253 L400 316 Q396 317 392 315 Q389 313 387 311 Q384 309 382 308 Q380 307 376 307 L194 307 Q237 353 276 379 Q315 406 345 432 Q357 442 374 466 Q390 490 392 525 Q391 572 355 604 Q319 636 258 637 Q212 637 173 615 Q135 593 111 554 L111 554 Z" /><glyph glyph-name="" unicode="³" d="M258 638 Q219 638 185 622 Q151 606 125 576 L161 539 Q180 561 204 573 Q229 585 255 585 Q289 584 309 567 Q329 549 329 526 Q330 508 312 492 Q294 476 246 475 Q236 475 226 476 L226 425 Q241 427 256 427 Q312 426 329 407 Q346 387 344 372 Q343 345 318 326 Q293 308 256 307 Q220 309 198 322 Q177 334 173 340 Q167 347 166 354 Q165 361 159 368 L112 316 Q140 285 176 268 Q213 251 255 251 Q316 252 360 284 Q404 316 406 366 Q405 399 385 422 Q365 446 332 452 Q358 461 373 482 Q388 502 389 530 Q387 575 351 606 Q315 637 258 638 L258 638 Z" /><glyph glyph-name="" unicode="&#x17d;" d="M397 755 L369 789 L257 721 L154 791 L121 753 L244 656 L266 656 L397 755 ZM62 623 L62 560 L364 560 L50 48 L50 -1 L463 -1 L463 67 Q454 68 448 65 Q442 62 432 61 L138 61 L446 574 L447 623 L62 623 Z" /><glyph glyph-name="" unicode="µ" d="M24 -167 L86 -167 Q87 -54 87 60 Q103 27 134 8 Q164 -11 201 -11 Q240 -11 273 10 Q306 31 324 67 Q328 34 351 12 Q373 -10 406 -10 Q434 -10 456 6 Q479 22 494 45 L467 96 Q467 93 452 72 Q438 50 412 47 Q403 47 394 52 Q386 57 380 67 Q374 78 373 91 Q372 104 372 116 L372 457 L308 457 L308 192 Q308 169 306 148 Q303 128 295 108 Q281 78 258 61 Q234 43 206 43 Q182 43 160 57 Q138 72 124 99 Q114 120 112 141 Q109 163 110 186 L110 457 L44 457 L44 202 Q43 107 34 14 Q26 -79 24 -167 L24 -167 Z" /><glyph glyph-name="" unicode="¶" d="M436 665 L311 665 Q276 666 239 663 Q203 659 166 644 Q116 622 90 582 Q64 543 64 496 Q65 426 115 378 Q165 329 243 322 L243 -68 L302 -68 L302 608 L378 608 L378 -68 L436 -68 L436 665 Z" /><glyph glyph-name="" unicode="·" d="M298 331 Q297 355 280 371 Q264 388 239 388 Q213 388 197 371 Q180 355 179 331 Q180 307 197 290 Q213 274 239 274 Q264 274 280 290 Q297 307 298 331 L298 331 Z" /><glyph glyph-name="" unicode="&#x17e;" d="M377 658 L339 693 L258 591 L180 694 L134 659 L244 518 L266 518 L377 658 ZM71 457 L71 394 L333 394 L50 48 L50 -1 L450 -1 L450 67 Q441 68 435 65 Q429 62 419 61 L148 61 L426 408 L426 457 L71 457 Z" /><glyph glyph-name="" unicode="¹" d="M299 633 L255 633 L122 559 L138 528 L235 553 L235 253 L299 253 L299 633 Z" /><glyph glyph-name="" unicode="º" d="M252 622 Q188 621 143 570 Q98 519 96 432 Q98 350 141 303 Q184 257 246 256 Q303 256 349 302 Q394 348 397 444 Q395 534 351 578 Q308 622 252 622 L252 622 ZM156 437 Q158 501 184 534 Q211 566 247 566 Q283 566 309 534 Q336 501 337 437 Q336 373 308 343 Q281 314 247 314 Q212 314 185 344 Q158 374 156 437 L156 437 ZM76 206 L76 152 L425 152 L425 206 L76 206 Z" /><glyph glyph-name="" unicode="»" d="M265 253 L113 400 L74 359 L195 241 L67 101 L107 61 L265 230 L265 253 ZM446 253 L294 400 L255 359 L376 241 L249 101 L288 61 L446 230 L446 253 Z" /><glyph glyph-name="" unicode="&#x152;" d="M253 595 Q237 613 216 622 Q194 632 171 632 Q139 633 104 611 Q69 588 43 531 Q23 484 16 430 Q9 375 9 312 Q10 224 19 177 Q28 129 32 120 Q55 51 93 21 Q132 -8 170 -7 Q194 -7 216 3 Q237 13 252 31 L252 0 L482 0 L482 62 L315 62 L315 293 L458 293 L458 357 L315 357 L315 562 L484 562 L484 624 L253 624 L253 595 ZM73 324 Q74 403 81 442 Q88 482 93 495 Q107 535 127 555 Q148 574 171 574 Q204 572 224 542 Q244 513 252 485 L252 129 Q244 96 225 75 Q205 55 179 54 Q162 53 140 68 Q119 83 101 123 Q81 178 77 239 Q72 300 73 324 L73 324 Z" /><glyph glyph-name="" unicode="&#x153;" d="M161 466 Q125 466 91 446 Q57 425 34 383 Q16 348 11 310 Q5 271 6 236 Q6 196 11 152 Q16 108 34 70 Q57 25 90 7 Q123 -12 154 -11 Q181 -11 207 0 Q232 11 253 29 Q277 9 306 -1 Q335 -12 367 -12 Q403 -12 436 2 Q469 16 494 42 L459 85 Q439 64 415 55 Q391 46 369 47 Q340 46 315 60 Q291 74 277 103 Q269 121 266 148 Q263 175 262 221 L490 221 L490 232 Q491 270 489 308 Q488 346 476 380 Q458 426 425 446 Q392 466 356 466 Q326 466 300 454 Q274 442 255 420 Q238 442 214 454 Q190 466 161 466 L161 466 ZM263 278 Q263 314 267 333 Q272 353 274 357 Q286 388 307 400 Q327 412 348 411 Q367 412 386 402 Q404 393 415 374 Q427 354 429 331 Q431 309 431 287 L431 278 L263 278 ZM66 246 Q66 268 69 295 Q73 321 84 348 Q98 377 119 391 Q139 406 161 406 Q181 405 195 394 Q209 382 209 362 Q209 352 205 322 Q201 291 200 236 Q201 171 206 135 Q212 99 213 89 Q212 70 197 60 Q182 50 163 50 Q139 49 117 66 Q94 83 81 123 Q72 154 69 187 Q66 220 66 246 L66 246 Z" /><glyph glyph-name="" unicode="&#x178;" d="M209 738 Q208 760 194 774 Q180 788 158 789 Q137 788 123 774 Q108 760 108 738 Q108 717 123 703 Q137 688 158 688 Q180 688 194 703 Q208 717 209 738 L209 738 ZM387 738 Q386 760 372 774 Q358 788 337 789 Q315 788 301 774 Q287 760 287 738 Q287 717 301 703 Q315 688 337 688 Q358 688 372 703 Q386 717 387 738 L387 738 ZM28 624 L220 246 L220 0 L296 0 L296 246 L473 623 L399 623 L261 321 L108 624 L28 624 Z" /><glyph glyph-name="" unicode="¿" d="M181 608 Q182 584 199 567 Q215 551 241 551 Q266 551 282 567 Q299 584 300 608 Q299 632 282 648 Q266 665 241 665 Q215 665 199 648 Q182 632 181 608 L181 608 ZM438 91 L387 139 Q362 99 326 76 Q290 53 252 52 Q206 54 177 83 Q147 113 146 158 Q149 207 176 240 Q203 273 228 298 Q260 333 269 363 Q277 393 275 426 L275 468 L210 468 L210 426 Q211 400 204 376 Q196 352 166 325 Q138 304 104 268 Q70 232 67 163 Q68 91 114 40 Q159 -11 245 -13 Q302 -13 353 14 Q404 41 438 91 L438 91 Z" /><glyph glyph-name="" unicode="à" d="M181 791 L142 721 L311 660 L334 702 L181 791 ZM15 -1 L84 -1 L144 182 L342 182 L411 0 L483 0 L243 634 L235 634 L15 -1 ZM326 236 L158 236 L238 474 L326 236 Z" /><glyph glyph-name="" unicode="á" d="M308 791 L155 702 L179 660 L348 721 L308 791 ZM15 -1 L84 -1 L144 182 L342 182 L411 0 L483 0 L243 634 L235 634 L15 -1 ZM326 236 L158 236 L238 474 L326 236 Z" /><glyph glyph-name="" unicode="â" d="M102 692 L130 658 L242 727 L345 656 L378 694 L255 791 L233 791 L102 692 ZM15 -1 L84 -1 L144 182 L342 182 L411 0 L483 0 L243 634 L235 634 L15 -1 ZM326 236 L158 236 L238 474 L326 236 Z" /><glyph glyph-name="" unicode="ã" d="M131 683 Q149 713 163 729 Q177 745 197 745 Q228 740 256 707 Q284 674 326 669 Q353 670 376 689 Q399 708 425 740 L387 780 Q372 758 360 743 Q347 728 329 727 Q316 728 304 737 Q291 746 279 759 Q270 771 250 786 Q230 801 199 802 Q170 802 142 781 Q114 759 86 715 L131 683 ZM15 -1 L84 -1 L144 182 L342 182 L411 0 L483 0 L243 634 L235 634 L15 -1 ZM326 236 L158 236 L238 474 L326 236 Z" /><glyph glyph-name="" unicode="ä" d="M202 738 Q201 760 187 774 Q173 788 151 789 Q130 788 116 774 Q101 760 101 738 Q101 717 116 703 Q130 688 151 688 Q173 688 187 703 Q201 717 202 738 L202 738 ZM380 738 Q379 760 365 774 Q351 788 330 789 Q308 788 294 774 Q280 760 280 738 Q280 717 294 703 Q308 688 330 688 Q351 688 365 703 Q379 717 380 738 L380 738 ZM15 -1 L84 -1 L144 182 L342 182 L411 0 L483 0 L243 634 L235 634 L15 -1 ZM326 236 L158 236 L238 474 L326 236 Z" /><glyph glyph-name="" unicode="å" d="M199 707 Q200 727 212 740 Q223 753 241 753 Q258 753 270 740 Q282 727 282 708 Q282 688 270 675 Q258 662 241 662 Q223 662 211 675 Q200 688 199 707 L199 707 ZM326 236 L158 236 L238 474 L326 236 ZM248 619 Q284 623 307 647 Q331 672 331 707 Q330 744 305 769 Q279 794 240 795 Q201 794 175 769 Q149 744 148 707 Q149 672 172 648 Q194 624 230 619 L15 -1 L84 -1 L144 182 L342 182 L411 0 L483 0 L248 619 Z" /><glyph glyph-name="" unicode="æ" d="M200 624 L4 0 L68 0 L122 169 L252 169 L252 0 L482 0 L482 62 L315 62 L313 293 L458 293 L458 357 L312 357 L311 562 L484 562 L484 624 L200 624 ZM252 562 L252 227 L136 227 L241 562 L252 562 Z" /><glyph glyph-name="" unicode="ç" d="M278 628 Q199 632 123 562 Q46 492 41 308 Q45 139 113 67 Q181 -6 260 -10 L250 -85 L280 -85 Q288 -85 298 -86 Q308 -87 316 -92 Q322 -96 325 -100 Q327 -105 327 -109 Q328 -117 319 -125 Q310 -133 281 -134 Q258 -134 232 -126 Q206 -117 182 -98 L157 -140 Q185 -159 216 -168 Q247 -177 276 -177 Q331 -176 357 -153 Q384 -131 384 -103 Q384 -88 376 -76 Q369 -63 355 -56 Q345 -52 335 -50 Q325 -49 316 -48 L299 -47 L304 -9 Q352 -2 393 24 Q434 50 460 92 L408 126 Q386 90 352 70 Q318 50 281 50 Q210 51 161 119 Q111 187 109 314 Q111 439 159 505 Q207 572 275 572 Q312 572 344 552 Q375 533 395 500 Q396 498 397 495 Q398 493 398 489 Q398 486 398 482 Q397 481 398 478 Q399 475 402 472 L469 505 Q442 562 392 595 Q341 628 278 628 L278 628 Z" /><glyph glyph-name="" unicode="è" d="M181 791 L142 721 L311 660 L334 702 L181 791 ZM59 624 L59 0 L438 0 L438 62 L125 62 L125 293 L386 293 L386 357 L125 357 L125 562 L441 562 L441 624 L59 624 Z" /><glyph glyph-name="" unicode="é" d="M325 791 L173 702 L196 660 L365 721 L325 791 ZM59 624 L59 0 L438 0 L438 62 L125 62 L125 293 L386 293 L386 357 L125 357 L125 562 L441 562 L441 624 L59 624 Z" /><glyph glyph-name="" unicode="ê" d="M110 692 L139 658 L250 727 L354 656 L387 694 L263 791 L242 791 L110 692 ZM59 624 L59 0 L438 0 L438 62 L125 62 L125 293 L386 293 L386 357 L125 357 L125 562 L441 562 L441 624 L59 624 Z" /><glyph glyph-name="" unicode="ë" d="M209 738 Q208 760 194 774 Q180 788 158 789 Q137 788 123 774 Q108 760 108 738 Q108 717 123 703 Q137 688 158 688 Q180 688 194 703 Q208 717 209 738 L209 738 ZM387 738 Q386 760 372 774 Q358 788 337 789 Q315 788 301 774 Q287 760 287 738 Q287 717 301 703 Q315 688 337 688 Q358 688 372 703 Q386 717 387 738 L387 738 ZM59 624 L59 0 L438 0 L438 62 L125 62 L125 293 L386 293 L386 357 L125 357 L125 562 L441 562 L441 624 L59 624 Z" /><glyph glyph-name="" unicode="ì" d="M181 791 L142 721 L311 660 L334 702 L181 791 ZM88 623 L88 564 L204 564 L204 58 L81 58 L81 -1 L403 -1 L403 57 L274 57 L274 564 L397 564 L397 623 L88 623 Z" /><glyph glyph-name="" unicode="í" d="M325 791 L173 702 L196 660 L365 721 L325 791 ZM88 623 L88 564 L204 564 L204 58 L81 58 L81 -1 L403 -1 L403 57 L274 57 L274 564 L397 564 L397 623 L88 623 Z" /><glyph glyph-name="" unicode="î" d="M101 692 L129 658 L241 727 L344 656 L377 694 L254 791 L232 791 L101 692 ZM88 623 L88 564 L204 564 L204 58 L81 58 L81 -1 L403 -1 L403 57 L274 57 L274 564 L397 564 L397 623 L88 623 Z" /><glyph glyph-name="" unicode="ï" d="M205 738 Q205 760 191 774 Q176 788 155 789 Q133 788 119 774 Q105 760 104 738 Q105 717 119 703 Q133 688 155 688 Q176 688 191 703 Q205 717 205 738 L205 738 ZM383 738 Q383 760 368 774 Q354 788 333 789 Q312 788 298 774 Q284 760 283 738 Q284 717 298 703 Q312 688 333 688 Q354 688 368 703 Q383 717 383 738 L383 738 ZM88 623 L88 564 L204 564 L204 58 L81 58 L81 -1 L403 -1 L403 57 L274 57 L274 564 L397 564 L397 623 L88 623 Z" /><glyph glyph-name="" unicode="ð" d="M79 623 L79 359 L30 359 L30 301 L79 301 L79 -1 L206 -1 Q239 -1 266 3 Q293 6 319 18 Q391 54 429 134 Q466 214 466 315 Q466 396 441 470 Q415 543 359 586 Q327 610 293 617 Q259 624 218 623 L79 623 ZM143 301 L248 301 L248 359 L143 359 L143 564 L214 564 Q244 566 279 556 Q314 546 346 504 Q374 465 387 412 Q399 360 399 306 Q399 232 375 173 Q352 114 307 83 Q281 65 255 61 Q229 56 203 57 L143 57 L143 301 Z" /><glyph glyph-name="" unicode="ñ" d="M135 683 Q153 713 167 729 Q182 745 201 745 Q232 740 260 707 Q288 674 330 669 Q357 670 380 689 Q404 708 429 740 L392 780 Q376 758 364 743 Q351 728 334 727 Q320 728 308 737 Q296 746 284 759 Q274 771 254 786 Q234 801 204 802 Q175 802 146 781 Q118 759 91 715 L135 683 ZM50 0 L117 0 L117 490 L392 -1 L447 -1 L447 597 Q447 602 448 605 Q449 608 451 611 Q452 613 453 616 Q454 620 454 624 L380 624 L380 161 L118 623 L50 623 L50 0 Z" /><glyph glyph-name="" unicode="ò" d="M181 791 L142 721 L311 660 L334 702 L181 791 ZM471 310 Q472 355 465 408 Q458 462 433 513 Q401 572 353 601 Q305 630 254 630 Q179 633 107 563 Q35 493 29 313 Q34 132 106 60 Q178 -12 254 -10 Q306 -10 354 20 Q402 49 434 111 Q458 162 465 215 Q472 268 471 310 L471 310 ZM251 564 Q285 565 320 542 Q354 519 377 466 Q392 426 397 384 Q402 341 401 301 Q402 269 397 227 Q392 184 373 143 Q351 98 319 78 Q287 58 254 59 Q199 57 150 116 Q102 175 98 322 Q102 459 150 513 Q198 567 251 564 L251 564 Z" /><glyph glyph-name="" unicode="ó" d="M325 791 L173 702 L196 660 L365 721 L325 791 ZM471 310 Q472 355 465 408 Q458 462 433 513 Q401 572 353 601 Q305 630 254 630 Q179 633 107 563 Q35 493 29 313 Q34 132 106 60 Q178 -12 254 -10 Q306 -10 354 20 Q402 49 434 111 Q458 162 465 215 Q472 268 471 310 L471 310 ZM251 564 Q285 565 320 542 Q354 519 377 466 Q392 426 397 384 Q402 341 401 301 Q402 269 397 227 Q392 184 373 143 Q351 98 319 78 Q287 58 254 59 Q199 57 150 116 Q102 175 98 322 Q102 459 150 513 Q198 567 251 564 L251 564 Z" /><glyph glyph-name="" unicode="ô" d="M113 692 L142 658 L253 727 L356 656 L389 694 L266 791 L244 791 L113 692 ZM471 310 Q472 355 465 408 Q458 462 433 513 Q401 572 353 601 Q305 630 254 630 Q179 633 107 563 Q35 493 29 313 Q34 132 106 60 Q178 -12 254 -10 Q306 -10 354 20 Q402 49 434 111 Q458 162 465 215 Q472 268 471 310 L471 310 ZM251 564 Q285 565 320 542 Q354 519 377 466 Q392 426 397 384 Q402 341 401 301 Q402 269 397 227 Q392 184 373 143 Q351 98 319 78 Q287 58 254 59 Q199 57 150 116 Q102 175 98 322 Q102 459 150 513 Q198 567 251 564 L251 564 Z" /><glyph glyph-name="" unicode="õ" d="M135 683 Q153 713 167 729 Q182 745 201 745 Q232 740 260 707 Q288 674 330 669 Q357 670 380 689 Q404 708 429 740 L392 780 Q376 758 364 743 Q351 728 334 727 Q320 728 308 737 Q296 746 284 759 Q274 771 254 786 Q234 801 204 802 Q175 802 146 781 Q118 759 91 715 L135 683 ZM471 310 Q472 355 465 408 Q458 462 433 513 Q401 572 353 601 Q305 630 254 630 Q179 633 107 563 Q35 493 29 313 Q34 132 106 60 Q178 -12 254 -10 Q306 -10 354 20 Q402 49 434 111 Q458 162 465 215 Q472 268 471 310 L471 310 ZM251 564 Q285 565 320 542 Q354 519 377 466 Q392 426 397 384 Q402 341 401 301 Q402 269 397 227 Q392 184 373 143 Q351 98 319 78 Q287 58 254 59 Q199 57 150 116 Q102 175 98 322 Q102 459 150 513 Q198 567 251 564 L251 564 Z" /><glyph glyph-name="" unicode="ö" d="M209 738 Q208 760 194 774 Q180 788 158 789 Q137 788 123 774 Q108 760 108 738 Q108 717 123 703 Q137 688 158 688 Q180 688 194 703 Q208 717 209 738 L209 738 ZM387 738 Q386 760 372 774 Q358 788 337 789 Q315 788 301 774 Q287 760 287 738 Q287 717 301 703 Q315 688 337 688 Q358 688 372 703 Q386 717 387 738 L387 738 ZM471 310 Q472 355 465 408 Q458 462 433 513 Q401 572 353 601 Q305 630 254 630 Q179 633 107 563 Q35 493 29 313 Q34 132 106 60 Q178 -12 254 -10 Q306 -10 354 20 Q402 49 434 111 Q458 162 465 215 Q472 268 471 310 L471 310 ZM251 564 Q285 565 320 542 Q354 519 377 466 Q392 426 397 384 Q402 341 401 301 Q402 269 397 227 Q392 184 373 143 Q351 98 319 78 Q287 58 254 59 Q199 57 150 116 Q102 175 98 322 Q102 459 150 513 Q198 567 251 564 L251 564 Z" /><glyph glyph-name="" unicode="×" d="M382 503 L256 372 L132 503 L85 457 L211 324 L85 193 L129 149 L254 278 L381 145 L427 191 L300 325 L430 459 L382 503 Z" /><glyph glyph-name="" unicode="ø" d="M251 564 Q272 565 294 556 Q316 547 336 528 L132 145 Q117 175 108 219 Q99 263 98 322 Q102 459 150 513 Q198 567 251 564 L251 564 ZM471 310 Q472 355 465 408 Q458 462 433 513 Q424 530 413 545 L469 648 L415 677 L369 590 Q343 610 313 620 Q284 630 254 630 Q179 633 107 563 Q35 493 29 313 Q30 229 48 170 Q65 111 95 74 L36 -36 L88 -63 L138 30 Q166 9 196 0 Q226 -10 254 -10 Q306 -10 354 20 Q402 49 434 111 Q458 162 465 215 Q472 268 471 310 L471 310 ZM374 472 L377 466 Q392 426 397 384 Q402 341 401 301 Q402 269 397 227 Q392 184 373 143 Q351 98 319 78 Q287 58 254 59 Q234 59 212 67 Q191 75 171 92 L374 472 Z" /><glyph glyph-name="" unicode="ù" d="M181 791 L142 721 L311 660 L334 702 L181 791 ZM50 623 L50 215 L50 215 Q49 182 54 150 Q58 118 74 86 Q101 38 148 13 Q195 -11 252 -11 Q307 -11 354 13 Q401 37 429 86 Q446 119 450 151 Q455 184 454 218 L454 623 L387 623 L387 217 Q388 192 385 169 Q383 145 371 121 Q354 85 322 67 Q290 48 253 48 Q215 48 183 67 Q152 86 134 122 Q124 145 121 168 Q119 191 119 214 L119 591 Q119 594 120 597 Q120 600 123 604 Q125 607 127 610 Q129 614 130 618 Q130 621 129 623 L50 623 Z" /><glyph glyph-name="" unicode="ú" d="M325 791 L173 702 L196 660 L365 721 L325 791 ZM50 623 L50 215 L50 215 Q49 182 54 150 Q58 118 74 86 Q101 38 148 13 Q195 -11 252 -11 Q307 -11 354 13 Q401 37 429 86 Q446 119 450 151 Q455 184 454 218 L454 623 L387 623 L387 217 Q388 192 385 169 Q383 145 371 121 Q354 85 322 67 Q290 48 253 48 Q215 48 183 67 Q152 86 134 122 Q124 145 121 168 Q119 191 119 214 L119 591 Q119 594 120 597 Q120 600 123 604 Q125 607 127 610 Q129 614 130 618 Q130 621 129 623 L50 623 Z" /><glyph glyph-name="" unicode="û" d="M113 692 L142 658 L253 727 L356 656 L389 694 L266 791 L244 791 L113 692 ZM50 623 L50 215 L50 215 Q49 182 54 150 Q58 118 74 86 Q101 38 148 13 Q195 -11 252 -11 Q307 -11 354 13 Q401 37 429 86 Q446 119 450 151 Q455 184 454 218 L454 623 L387 623 L387 217 Q388 192 385 169 Q383 145 371 121 Q354 85 322 67 Q290 48 253 48 Q215 48 183 67 Q152 86 134 122 Q124 145 121 168 Q119 191 119 214 L119 591 Q119 594 120 597 Q120 600 123 604 Q125 607 127 610 Q129 614 130 618 Q130 621 129 623 L50 623 Z" /><glyph glyph-name="" unicode="ü" d="M217 738 Q217 760 203 774 Q188 788 167 789 Q146 788 131 774 Q117 760 116 738 Q117 717 131 703 Q146 688 167 688 Q188 688 203 703 Q217 717 217 738 L217 738 ZM395 738 Q395 760 381 774 Q366 788 345 789 Q324 788 310 774 Q296 760 295 738 Q296 717 310 703 Q324 688 345 688 Q366 688 381 703 Q395 717 395 738 L395 738 ZM50 623 L50 215 L50 215 Q49 182 54 150 Q58 118 74 86 Q101 38 148 13 Q195 -11 252 -11 Q307 -11 354 13 Q401 37 429 86 Q446 119 450 151 Q455 184 454 218 L454 623 L387 623 L387 217 Q388 192 385 169 Q383 145 371 121 Q354 85 322 67 Q290 48 253 48 Q215 48 183 67 Q152 86 134 122 Q124 145 121 168 Q119 191 119 214 L119 591 Q119 594 120 597 Q120 600 123 604 Q125 607 127 610 Q129 614 130 618 Q130 621 129 623 L50 623 Z" /><glyph glyph-name="" unicode="ý" d="M325 791 L173 702 L196 660 L365 721 L325 791 ZM28 624 L220 246 L220 0 L296 0 L296 246 L473 623 L399 623 L261 321 L108 624 L28 624 Z" /><glyph glyph-name="" unicode="þ" d="M59 623 L59 0 L129 0 L129 158 L254 158 Q283 157 311 161 Q339 164 368 178 Q411 201 433 241 Q456 282 456 330 Q456 378 433 420 Q411 461 366 485 Q337 499 308 503 Q279 506 249 506 L129 506 L129 595 Q129 598 130 601 Q130 603 132 606 Q134 609 136 612 Q138 615 138 619 Q138 621 137 623 L59 623 ZM129 440 L249 440 Q268 440 287 438 Q306 436 325 427 Q354 412 369 385 Q384 358 384 327 Q384 297 370 271 Q356 246 329 232 Q311 223 293 221 Q275 219 256 219 L129 219 L129 440 Z" /><glyph glyph-name="" unicode="ß" d="M55 0 L123 0 L123 425 Q123 458 127 494 Q132 530 153 561 Q170 587 194 599 Q218 611 243 611 Q289 610 320 578 Q351 545 352 495 Q352 459 334 430 Q317 401 288 388 Q276 382 265 381 Q254 380 243 380 L214 380 L214 323 L244 323 Q268 323 290 319 Q311 316 332 303 Q361 285 379 253 Q397 221 398 181 Q397 125 363 90 Q329 55 280 53 Q261 54 244 59 Q227 65 212 77 L177 21 Q200 5 227 -2 Q253 -10 281 -10 Q360 -9 411 44 Q462 97 464 181 Q464 244 431 292 Q398 340 341 359 Q378 379 399 414 Q420 449 420 493 Q418 566 367 617 Q316 667 239 669 Q187 669 144 641 Q100 613 76 561 Q61 526 58 492 Q55 457 55 423 L55 0 Z" /><glyph glyph-name="" unicode="à" d="M243 699 L180 657 L281 522 L331 552 L243 699 ZM91 403 L126 357 Q155 386 190 397 Q225 409 257 408 Q297 407 320 394 Q342 381 351 364 Q362 345 364 325 Q366 304 366 286 L366 269 L351 269 Q300 270 249 267 Q198 264 154 249 Q100 228 74 192 Q49 157 49 118 Q50 66 90 28 Q130 -9 203 -11 Q245 -11 287 4 Q329 19 367 50 L367 0 L435 0 L435 283 Q436 311 432 338 Q428 365 413 391 Q390 429 348 448 Q307 467 254 467 Q207 467 165 452 Q123 436 91 403 L91 403 ZM369 214 L369 184 Q369 166 365 144 Q360 122 337 98 Q325 83 294 64 Q263 46 217 44 Q172 45 147 68 Q122 91 121 123 Q121 149 140 172 Q159 196 202 207 Q234 214 275 214 Q315 215 352 214 L369 214 Z" /><glyph glyph-name="" unicode="á" d="M292 699 L204 552 L254 522 L355 657 L292 699 ZM91 403 L126 357 Q155 386 190 397 Q225 409 257 408 Q297 407 320 394 Q342 381 351 364 Q362 345 364 325 Q366 304 366 286 L366 269 L351 269 Q300 270 249 267 Q198 264 154 249 Q100 228 74 192 Q49 157 49 118 Q50 66 90 28 Q130 -9 203 -11 Q245 -11 287 4 Q329 19 367 50 L367 0 L435 0 L435 283 Q436 311 432 338 Q428 365 413 391 Q390 429 348 448 Q307 467 254 467 Q207 467 165 452 Q123 436 91 403 L91 403 ZM369 214 L369 184 Q369 166 365 144 Q360 122 337 98 Q325 83 294 64 Q263 46 217 44 Q172 45 147 68 Q122 91 121 123 Q121 149 140 172 Q159 196 202 207 Q234 214 275 214 Q315 215 352 214 L369 214 Z" /><glyph glyph-name="" unicode="â" d="M141 545 L179 510 L260 612 L337 509 L384 544 L274 685 L252 685 L141 545 ZM91 403 L126 357 Q155 386 190 397 Q225 409 257 408 Q297 407 320 394 Q342 381 351 364 Q362 345 364 325 Q366 304 366 286 L366 269 L351 269 Q300 270 249 267 Q198 264 154 249 Q100 228 74 192 Q49 157 49 118 Q50 66 90 28 Q130 -9 203 -11 Q245 -11 287 4 Q329 19 367 50 L367 0 L435 0 L435 283 Q436 311 432 338 Q428 365 413 391 Q390 429 348 448 Q307 467 254 467 Q207 467 165 452 Q123 436 91 403 L91 403 ZM369 214 L369 184 Q369 166 365 144 Q360 122 337 98 Q325 83 294 64 Q263 46 217 44 Q172 45 147 68 Q122 91 121 123 Q121 149 140 172 Q159 196 202 207 Q234 214 275 214 Q315 215 352 214 L369 214 Z" /><glyph glyph-name="" unicode="ã" d="M145 557 Q162 587 177 603 Q191 619 210 619 Q242 614 270 581 Q298 548 340 543 Q367 544 390 563 Q413 582 438 614 L401 654 Q386 632 373 617 Q361 602 343 601 Q329 602 317 611 Q305 620 293 633 Q284 645 264 660 Q244 675 213 676 Q184 676 156 655 Q128 633 100 589 L145 557 ZM91 403 L126 357 Q155 386 190 397 Q225 409 257 408 Q297 407 320 394 Q342 381 351 364 Q362 345 364 325 Q366 304 366 286 L366 269 L351 269 Q300 270 249 267 Q198 264 154 249 Q100 228 74 192 Q49 157 49 118 Q50 66 90 28 Q130 -9 203 -11 Q245 -11 287 4 Q329 19 367 50 L367 0 L435 0 L435 283 Q436 311 432 338 Q428 365 413 391 Q390 429 348 448 Q307 467 254 467 Q207 467 165 452 Q123 436 91 403 L91 403 ZM369 214 L369 184 Q369 166 365 144 Q360 122 337 98 Q325 83 294 64 Q263 46 217 44 Q172 45 147 68 Q122 91 121 123 Q121 149 140 172 Q159 196 202 207 Q234 214 275 214 Q315 215 352 214 L369 214 Z" /><glyph glyph-name="" unicode="ä" d="M226 614 Q226 635 211 650 Q197 664 176 665 Q154 664 140 650 Q126 635 125 614 Q126 593 140 578 Q154 564 176 564 Q197 564 211 578 Q226 593 226 614 L226 614 ZM404 614 Q403 636 389 650 Q375 664 354 665 Q333 664 318 650 Q304 636 304 614 Q304 593 318 578 Q333 564 354 564 Q375 564 389 578 Q403 593 404 614 L404 614 ZM91 403 L126 357 Q155 386 190 397 Q225 409 257 408 Q297 407 320 394 Q342 381 351 364 Q362 345 364 325 Q366 304 366 286 L366 269 L351 269 Q300 270 249 267 Q198 264 154 249 Q100 228 74 192 Q49 157 49 118 Q50 66 90 28 Q130 -9 203 -11 Q245 -11 287 4 Q329 19 367 50 L367 0 L435 0 L435 283 Q436 311 432 338 Q428 365 413 391 Q390 429 348 448 Q307 467 254 467 Q207 467 165 452 Q123 436 91 403 L91 403 ZM369 214 L369 184 Q369 166 365 144 Q360 122 337 98 Q325 83 294 64 Q263 46 217 44 Q172 45 147 68 Q122 91 121 123 Q121 149 140 172 Q159 196 202 207 Q234 214 275 214 Q315 215 352 214 L369 214 Z" /><glyph glyph-name="" unicode="å" d="M348 605 Q347 642 321 667 Q295 692 256 693 Q217 692 191 667 Q166 642 165 605 Q166 568 191 543 Q217 518 256 517 Q295 518 321 543 Q347 568 348 605 L348 605 ZM216 606 Q216 626 228 638 Q240 651 257 652 Q275 651 286 638 Q298 626 299 606 Q298 586 286 573 Q275 560 257 560 Q240 560 228 573 Q216 586 216 606 L216 606 ZM91 403 L126 357 Q155 386 190 397 Q225 409 257 408 Q297 407 320 394 Q342 381 351 364 Q362 345 364 325 Q366 304 366 286 L366 269 L351 269 Q300 270 249 267 Q198 264 154 249 Q100 228 74 192 Q49 157 49 118 Q50 66 90 28 Q130 -9 203 -11 Q245 -11 287 4 Q329 19 367 50 L367 0 L435 0 L435 283 Q436 311 432 338 Q428 365 413 391 Q390 429 348 448 Q307 467 254 467 Q207 467 165 452 Q123 436 91 403 L91 403 ZM369 214 L369 184 Q369 166 365 144 Q360 122 337 98 Q325 83 294 64 Q263 46 217 44 Q172 45 147 68 Q122 91 121 123 Q121 149 140 172 Q159 196 202 207 Q234 214 275 214 Q315 215 352 214 L369 214 Z" /><glyph glyph-name="" unicode="æ" d="M31 412 L66 368 Q81 388 101 399 Q120 411 142 411 Q166 411 185 396 Q205 382 214 356 Q219 344 220 331 Q221 318 221 305 L221 279 L198 278 Q180 278 155 274 Q130 271 102 259 Q55 236 32 200 Q10 163 10 124 Q12 66 49 28 Q86 -10 142 -11 Q178 -11 208 7 Q238 26 255 58 Q276 25 309 7 Q341 -11 380 -11 Q414 -11 443 3 Q473 17 494 42 L459 84 Q446 66 427 57 Q408 48 386 47 Q356 48 331 64 Q306 80 293 109 Q286 125 284 141 Q282 158 282 175 L282 222 L490 230 L490 268 Q491 303 487 339 Q483 375 464 409 Q445 439 418 453 Q391 467 363 467 Q331 467 303 450 Q275 434 258 405 Q241 434 212 450 Q183 467 147 467 Q113 467 83 453 Q53 438 31 412 L31 412 ZM221 219 L221 181 Q221 155 221 135 Q221 114 215 96 Q206 73 188 62 Q169 50 149 50 Q117 51 96 73 Q75 94 74 128 Q74 150 86 170 Q98 191 122 204 Q141 213 161 216 Q180 218 199 218 L221 219 ZM282 279 L282 296 Q282 314 285 334 Q288 354 301 373 Q312 390 328 400 Q344 411 362 411 Q382 411 398 399 Q414 388 423 367 Q430 351 431 336 Q433 320 432 305 L432 285 L282 279 Z" /><glyph glyph-name="" unicode="ç" d="M457 381 Q429 421 385 444 Q341 466 286 466 Q183 464 121 399 Q58 333 56 228 Q58 129 114 64 Q170 -1 260 -10 L250 -85 L280 -85 Q288 -85 298 -86 Q308 -87 316 -92 Q322 -96 325 -100 Q327 -105 327 -109 Q328 -117 319 -125 Q310 -133 281 -134 Q258 -134 232 -126 Q206 -117 182 -98 L157 -140 Q185 -159 216 -168 Q247 -177 276 -177 Q331 -176 357 -153 Q384 -131 384 -103 Q384 -88 376 -76 Q369 -63 355 -56 Q345 -52 335 -50 Q325 -49 316 -48 L299 -47 L304 -10 Q346 -6 383 12 Q420 30 450 61 L408 110 Q385 83 353 69 Q322 55 287 54 Q219 56 175 105 Q132 154 130 236 Q132 315 174 359 Q217 404 281 405 Q339 402 368 377 Q398 352 399 345 Q401 339 401 333 Q400 327 406 322 L457 381 Z" /><glyph glyph-name="" unicode="è" d="M243 699 L180 657 L281 522 L331 552 L243 699 ZM259 468 Q174 468 113 408 Q51 348 49 223 Q51 109 112 49 Q173 -10 268 -10 Q317 -10 360 7 Q402 25 432 60 L392 99 Q369 74 339 61 Q308 48 274 48 Q224 46 175 82 Q126 118 118 218 L443 218 Q447 266 440 306 Q422 396 369 433 Q317 469 259 468 L259 468 ZM121 274 Q134 353 174 384 Q214 414 254 413 Q310 411 344 371 Q377 331 372 274 L121 274 Z" /><glyph glyph-name="" unicode="é" d="M292 699 L204 552 L254 522 L355 657 L292 699 ZM259 468 Q174 468 113 408 Q51 348 49 223 Q51 109 112 49 Q173 -10 268 -10 Q317 -10 360 7 Q402 25 432 60 L392 99 Q369 74 339 61 Q308 48 274 48 Q224 46 175 82 Q126 118 118 218 L443 218 Q447 266 440 306 Q422 396 369 433 Q317 469 259 468 L259 468 ZM121 274 Q134 353 174 384 Q214 414 254 413 Q310 411 344 371 Q377 331 372 274 L121 274 Z" /><glyph glyph-name="" unicode="ê" d="M134 545 L172 510 L253 612 L331 509 L377 544 L267 685 L245 685 L134 545 ZM259 468 Q174 468 113 408 Q51 348 49 223 Q51 109 112 49 Q173 -10 268 -10 Q317 -10 360 7 Q402 25 432 60 L392 99 Q369 74 339 61 Q308 48 274 48 Q224 46 175 82 Q126 118 118 218 L443 218 Q447 266 440 306 Q422 396 369 433 Q317 469 259 468 L259 468 ZM121 274 Q134 353 174 384 Q214 414 254 413 Q310 411 344 371 Q377 331 372 274 L121 274 Z" /><glyph glyph-name="" unicode="ë" d="M215 614 Q214 635 200 650 Q186 664 164 665 Q143 664 129 650 Q114 635 114 614 Q114 593 129 578 Q143 564 164 564 Q186 564 200 578 Q214 593 215 614 L215 614 ZM393 614 Q392 636 378 650 Q364 664 343 665 Q321 664 307 650 Q293 636 293 614 Q293 593 307 578 Q321 564 343 564 Q364 564 378 578 Q392 593 393 614 L393 614 ZM259 468 Q174 468 113 408 Q51 348 49 223 Q51 109 112 49 Q173 -10 268 -10 Q317 -10 360 7 Q402 25 432 60 L392 99 Q369 74 339 61 Q308 48 274 48 Q224 46 175 82 Q126 118 118 218 L443 218 Q447 266 440 306 Q422 396 369 433 Q317 469 259 468 L259 468 ZM121 274 Q134 353 174 384 Q214 414 254 413 Q310 411 344 371 Q377 331 372 274 L121 274 Z" /><glyph glyph-name="" unicode="ì" d="M192 699 L129 657 L230 522 L280 552 L192 699 ZM106 457 L106 399 L217 399 L217 58 L100 58 L100 0 L396 0 L396 58 L289 58 L289 457 L106 457 Z" /><glyph glyph-name="" unicode="í" d="M283 699 L195 552 L245 522 L346 657 L283 699 ZM106 457 L106 399 L217 399 L217 58 L100 58 L100 0 L396 0 L396 58 L289 58 L289 457 L106 457 Z" /><glyph glyph-name="" unicode="î" d="M113 545 L151 510 L232 612 L310 509 L356 544 L246 685 L224 685 L113 545 ZM106 457 L106 399 L217 399 L217 58 L100 58 L100 0 L396 0 L396 58 L289 58 L289 457 L106 457 Z" /><glyph glyph-name="" unicode="ï" d="M203 614 Q202 635 188 650 Q174 664 152 665 Q131 664 117 650 Q102 635 102 614 Q102 593 117 578 Q131 564 152 564 Q174 564 188 578 Q202 593 203 614 L203 614 ZM381 614 Q380 636 366 650 Q352 664 331 665 Q309 664 295 650 Q281 636 280 614 Q281 593 295 578 Q309 564 331 564 Q352 564 366 578 Q380 593 381 614 L381 614 ZM106 457 L106 399 L217 399 L217 58 L100 58 L100 0 L396 0 L396 58 L289 58 L289 457 L106 457 Z" /><glyph glyph-name="" unicode="ð" d="M255 406 Q297 408 341 371 Q384 334 387 232 Q385 129 343 89 Q301 48 256 50 Q200 51 159 98 Q118 145 117 232 Q119 320 160 363 Q202 406 255 406 L255 406 ZM347 570 L432 595 L415 639 L307 610 Q284 631 262 646 Q240 661 220 672 L139 656 Q195 631 241 592 L137 564 L155 516 L283 552 Q310 522 332 488 Q353 453 369 415 Q346 440 315 453 Q284 467 249 467 Q163 465 103 396 Q43 328 40 223 Q43 118 105 54 Q167 -10 256 -12 Q307 -12 350 12 Q393 36 422 82 Q445 123 453 167 Q461 212 460 253 Q459 362 426 440 Q394 519 347 570 L347 570 Z" /><glyph glyph-name="" unicode="ñ" d="M130 557 Q148 587 162 603 Q177 619 196 619 Q227 614 255 581 Q283 548 325 543 Q352 544 375 563 Q398 582 424 614 L387 654 Q371 632 359 617 Q346 602 329 601 Q315 602 303 611 Q291 620 279 633 Q269 645 249 660 Q229 675 199 676 Q169 676 141 655 Q113 633 85 589 L130 557 ZM68 0 L142 0 L142 263 Q141 286 146 304 Q150 323 164 342 Q178 361 207 382 Q237 403 274 405 Q291 405 307 398 Q323 391 336 376 Q354 354 358 327 Q361 300 361 275 L361 0 L432 0 L432 277 L432 277 Q432 304 429 332 Q427 359 415 387 Q397 426 365 447 Q333 468 293 468 Q246 467 207 441 Q167 415 142 376 L142 457 L68 457 L68 0 Z" /><glyph glyph-name="" unicode="ò" d="M243 699 L180 657 L281 522 L331 552 L243 699 ZM460 226 Q457 345 397 406 Q338 467 257 467 Q167 465 105 399 Q43 333 40 225 Q43 119 104 54 Q166 -10 255 -12 Q338 -11 398 50 Q457 112 460 226 L460 226 ZM252 406 Q304 406 344 362 Q385 317 388 223 Q386 137 346 94 Q307 50 255 50 Q199 51 159 98 Q118 146 116 231 Q118 316 158 360 Q197 405 252 406 L252 406 Z" /><glyph glyph-name="" unicode="ó" d="M292 699 L204 552 L254 522 L355 657 L292 699 ZM460 226 Q457 345 397 406 Q338 467 257 467 Q167 465 105 399 Q43 333 40 225 Q43 119 104 54 Q166 -10 255 -12 Q338 -11 398 50 Q457 112 460 226 L460 226 ZM252 406 Q304 406 344 362 Q385 317 388 223 Q386 137 346 94 Q307 50 255 50 Q199 51 159 98 Q118 146 116 231 Q118 316 158 360 Q197 405 252 406 L252 406 Z" /><glyph glyph-name="" unicode="ô" d="M134 545 L172 510 L253 612 L331 509 L377 544 L267 685 L245 685 L134 545 ZM460 226 Q457 345 397 406 Q338 467 257 467 Q167 465 105 399 Q43 333 40 225 Q43 119 104 54 Q166 -10 255 -12 Q338 -11 398 50 Q457 112 460 226 L460 226 ZM252 406 Q304 406 344 362 Q385 317 388 223 Q386 137 346 94 Q307 50 255 50 Q199 51 159 98 Q118 146 116 231 Q118 316 158 360 Q197 405 252 406 L252 406 Z" /><glyph glyph-name="" unicode="õ" d="M135 557 Q153 587 167 603 Q182 619 201 619 Q232 614 260 581 Q288 548 330 543 Q357 544 380 563 Q404 582 429 614 L392 654 Q376 632 364 617 Q351 602 334 601 Q320 602 308 611 Q296 620 284 633 Q274 645 254 660 Q234 675 204 676 Q175 676 146 655 Q118 633 91 589 L135 557 ZM460 226 Q457 345 397 406 Q338 467 257 467 Q167 465 105 399 Q43 333 40 225 Q43 119 104 54 Q166 -10 255 -12 Q338 -11 398 50 Q457 112 460 226 L460 226 ZM252 406 Q304 406 344 362 Q385 317 388 223 Q386 137 346 94 Q307 50 255 50 Q199 51 159 98 Q118 146 116 231 Q118 316 158 360 Q197 405 252 406 L252 406 Z" /><glyph glyph-name="" unicode="ö" d="M213 614 Q213 635 198 650 Q184 664 163 665 Q141 664 127 650 Q113 635 112 614 Q113 593 127 578 Q141 564 163 564 Q184 564 198 578 Q213 593 213 614 L213 614 ZM391 614 Q390 636 376 650 Q362 664 341 665 Q320 664 306 650 Q291 636 291 614 Q291 593 306 578 Q320 564 341 564 Q362 564 376 578 Q390 593 391 614 L391 614 ZM460 226 Q457 345 397 406 Q338 467 257 467 Q167 465 105 399 Q43 333 40 225 Q43 119 104 54 Q166 -10 255 -12 Q338 -11 398 50 Q457 112 460 226 L460 226 ZM252 406 Q304 406 344 362 Q385 317 388 223 Q386 137 346 94 Q307 50 255 50 Q199 51 159 98 Q118 146 116 231 Q118 316 158 360 Q197 405 252 406 L252 406 Z" /><glyph glyph-name="" unicode="÷" d="M71 348 L71 281 L431 281 L431 348 L71 348 ZM300 467 Q300 486 287 499 Q274 511 255 512 Q236 511 224 499 Q211 486 211 467 Q211 448 224 435 Q236 422 255 422 Q274 422 287 435 Q300 448 300 467 L300 467 ZM300 159 Q300 178 287 191 Q274 203 255 204 Q236 203 224 191 Q211 178 210 159 Q211 140 224 127 Q236 114 255 114 Q274 114 287 127 Q300 140 300 159 L300 159 Z" /><glyph glyph-name="" unicode="ø" d="M252 406 Q278 406 304 393 L150 110 Q134 133 125 163 Q117 194 116 231 Q118 316 158 360 Q197 405 252 406 L252 406 ZM460 226 Q460 292 439 339 Q419 387 386 417 L425 490 L372 519 L335 450 Q297 467 257 467 Q167 465 105 399 Q43 333 40 225 Q41 168 61 122 Q80 76 114 44 L70 -37 L122 -64 L162 10 Q184 -1 207 -6 Q230 -12 255 -12 Q338 -11 398 50 Q457 112 460 226 L460 226 ZM351 354 Q368 331 378 299 Q387 266 388 223 Q386 137 346 94 Q307 50 255 50 Q222 50 194 67 L351 354 Z" /><glyph glyph-name="" unicode="ù" d="M243 699 L180 657 L281 522 L331 552 L243 699 ZM63 457 L62 202 Q62 172 64 142 Q67 112 80 82 Q101 37 139 13 Q177 -11 222 -11 Q266 -11 303 10 Q340 32 363 70 L362 35 Q362 18 364 0 L440 0 Q437 10 436 21 Q435 31 435 41 L435 457 L362 457 L362 205 Q363 179 359 158 Q356 136 344 115 Q328 86 300 67 Q272 48 239 47 Q212 48 189 62 Q166 76 152 103 Q140 128 137 153 Q135 179 135 202 L135 457 L63 457 Z" /><glyph glyph-name="" unicode="ú" d="M292 699 L204 552 L254 522 L355 657 L292 699 ZM63 457 L62 202 Q62 172 64 142 Q67 112 80 82 Q101 37 139 13 Q177 -11 222 -11 Q266 -11 303 10 Q340 32 363 70 L362 35 Q362 18 364 0 L440 0 Q437 10 436 21 Q435 31 435 41 L435 457 L362 457 L362 205 Q363 179 359 158 Q356 136 344 115 Q328 86 300 67 Q272 48 239 47 Q212 48 189 62 Q166 76 152 103 Q140 128 137 153 Q135 179 135 202 L135 457 L63 457 Z" /><glyph glyph-name="" unicode="û" d="M134 545 L172 510 L253 612 L331 509 L377 544 L267 685 L245 685 L134 545 ZM63 457 L62 202 Q62 172 64 142 Q67 112 80 82 Q101 37 139 13 Q177 -11 222 -11 Q266 -11 303 10 Q340 32 363 70 L362 35 Q362 18 364 0 L440 0 Q437 10 436 21 Q435 31 435 41 L435 457 L362 457 L362 205 Q363 179 359 158 Q356 136 344 115 Q328 86 300 67 Q272 48 239 47 Q212 48 189 62 Q166 76 152 103 Q140 128 137 153 Q135 179 135 202 L135 457 L63 457 Z" /><glyph glyph-name="" unicode="ü" d="M213 614 Q213 635 198 650 Q184 664 163 665 Q141 664 127 650 Q113 635 112 614 Q113 593 127 578 Q141 564 163 564 Q184 564 198 578 Q213 593 213 614 L213 614 ZM391 614 Q390 636 376 650 Q362 664 341 665 Q320 664 306 650 Q291 636 291 614 Q291 593 306 578 Q320 564 341 564 Q362 564 376 578 Q390 593 391 614 L391 614 ZM63 457 L62 202 Q62 172 64 142 Q67 112 80 82 Q101 37 139 13 Q177 -11 222 -11 Q266 -11 303 10 Q340 32 363 70 L362 35 Q362 18 364 0 L440 0 Q437 10 436 21 Q435 31 435 41 L435 457 L362 457 L362 205 Q363 179 359 158 Q356 136 344 115 Q328 86 300 67 Q272 48 239 47 Q212 48 189 62 Q166 76 152 103 Q140 128 137 153 Q135 179 135 202 L135 457 L63 457 Z" /><glyph glyph-name="" unicode="ý" d="M292 699 L204 552 L254 522 L355 657 L292 699 ZM46 457 L231 2 L217 -32 Q211 -46 203 -59 Q196 -73 185 -85 Q171 -100 154 -107 Q137 -115 121 -115 Q96 -113 83 -103 Q69 -92 68 -87 Q66 -83 65 -79 Q64 -74 60 -71 L22 -135 Q42 -154 68 -164 Q93 -174 121 -174 Q153 -174 183 -162 Q213 -150 236 -124 Q251 -107 259 -89 Q268 -71 275 -52 L418 325 Q443 391 463 457 L388 457 Q383 426 374 396 Q364 365 354 336 L267 91 L133 427 Q131 431 131 435 Q131 440 133 445 Q136 450 135 457 L46 457 Z" /><glyph glyph-name="" unicode="þ" d="M60 665 L60 -167 L134 -167 L134 60 Q157 26 193 7 Q229 -12 271 -12 Q344 -13 402 48 Q459 108 463 234 Q459 354 404 411 Q348 467 277 467 Q233 467 195 445 Q157 424 133 387 L133 632 Q133 643 137 649 Q140 655 140 665 L60 665 ZM251 406 Q286 409 334 374 Q383 339 388 219 Q383 114 335 81 Q287 49 250 52 Q217 52 189 68 Q160 83 146 115 Q136 137 134 169 Q132 200 133 249 Q133 278 135 300 Q138 322 145 339 Q159 370 187 388 Q216 405 251 406 L251 406 Z" /><glyph glyph-name="" unicode="ÿ" d="M213 614 Q213 635 198 650 Q184 664 163 665 Q141 664 127 650 Q113 635 112 614 Q113 593 127 578 Q141 564 163 564 Q184 564 198 578 Q213 593 213 614 L213 614 ZM391 614 Q390 636 376 650 Q362 664 341 665 Q320 664 306 650 Q291 636 291 614 Q291 593 306 578 Q320 564 341 564 Q362 564 376 578 Q390 593 391 614 L391 614 ZM46 457 L231 2 L217 -32 Q211 -46 203 -59 Q196 -73 185 -85 Q171 -100 154 -107 Q137 -115 121 -115 Q96 -113 83 -103 Q69 -92 68 -87 Q66 -83 65 -79 Q64 -74 60 -71 L22 -135 Q42 -154 68 -164 Q93 -174 121 -174 Q153 -174 183 -162 Q213 -150 236 -124 Q251 -107 259 -89 Q268 -71 275 -52 L418 325 Q443 391 463 457 L388 457 Q383 426 374 396 Q364 365 354 336 L267 91 L133 427 Q131 431 131 435 Q131 440 133 445 Q136 450 135 457 L46 457 Z" /><glyph glyph-name="" unicode="&#x2212;" d="M45 343 L45 282 L456 282 L456 343 L45 343 Z" /><glyph glyph-name="" unicode="&#x2019;" d="M306 555 Q305 594 284 615 Q264 637 236 638 Q211 637 195 621 Q179 604 179 581 Q180 561 189 551 Q199 541 207 536 Q214 532 221 524 Q229 516 230 501 Q229 488 224 477 Q219 465 215 459 Q208 447 195 430 Q183 414 165 397 L199 367 Q252 420 279 468 Q306 515 306 555 L306 555 Z" /><glyph glyph-name="" unicode="&#x2018;" d="M182 450 Q183 411 203 389 Q224 367 252 367 Q277 367 293 384 Q309 400 309 424 Q308 444 298 454 Q289 464 281 468 Q274 472 266 480 Q258 488 258 504 Q258 516 263 528 Q268 539 273 545 Q280 558 293 574 Q305 591 323 607 L288 638 Q236 584 209 537 Q182 489 182 450 L182 450 Z" /><glyph glyph-name="" unicode="&#x2cb;" d="M243 699 L180 657 L281 522 L331 552 L243 699 Z" /><glyph glyph-name="" unicode="´" d="M292 699 L204 552 L254 522 L355 657 L292 699 Z" /><glyph glyph-name="" unicode="&#x2c6;" d="M134 545 L172 510 L253 612 L331 509 L377 544 L267 685 L245 685 L134 545 Z" /><glyph glyph-name="" unicode="&#x2dc;" d="M135 557 Q153 587 167 603 Q182 619 201 619 Q232 614 260 581 Q288 548 330 543 Q357 544 380 563 Q404 582 429 614 L392 654 Q376 632 364 617 Q351 602 334 601 Q320 602 308 611 Q296 620 284 633 Q274 645 254 660 Q234 675 204 676 Q175 676 146 655 Q118 633 91 589 L135 557 Z" /><glyph glyph-name="" unicode="&#x2c9;" d="M123 621 L123 565 L377 565 L377 621 L123 621 Z" /><glyph glyph-name="" unicode="&#x2d8;" d="M137 646 L101 601 Q131 565 170 544 Q208 524 250 524 Q296 525 333 547 Q371 569 397 604 L369 646 Q343 612 312 594 Q281 576 250 576 Q212 577 183 597 Q155 618 137 646 L137 646 Z" /><glyph glyph-name="" unicode="&#x2d9;" d="M255 656 Q233 655 218 641 Q203 626 203 605 Q203 583 218 568 Q233 554 255 553 Q277 554 291 568 Q306 583 306 605 Q306 626 291 641 Q277 655 255 656 L255 656 Z" /><glyph glyph-name="" unicode="¨" d="M213 614 Q213 635 198 650 Q184 664 163 665 Q141 664 127 650 Q113 635 112 614 Q113 593 127 578 Q141 564 163 564 Q184 564 198 578 Q213 593 213 614 L213 614 ZM391 614 Q390 636 376 650 Q362 664 341 665 Q320 664 306 650 Q291 636 291 614 Q291 593 306 578 Q320 564 341 564 Q362 564 376 578 Q390 593 391 614 L391 614 Z" /><glyph glyph-name="" unicode="&#x2dd;" d="M214 699 L126 552 L176 522 L277 657 L214 699 ZM369 699 L281 552 L331 522 L432 657 L369 699 Z" /><glyph glyph-name="" unicode="&#x2da;" d="M348 605 Q347 642 321 667 Q295 692 256 693 Q217 692 191 667 Q166 642 165 605 Q166 568 191 543 Q217 518 256 517 Q295 518 321 543 Q347 568 348 605 L348 605 ZM216 606 Q216 626 228 638 Q240 651 257 652 Q275 651 286 638 Q298 626 299 606 Q298 586 286 573 Q275 560 257 560 Q240 560 228 573 Q216 586 216 606 L216 606 Z" /><glyph glyph-name="" unicode="¸" d="M261 0 L250 -85 L280 -85 Q288 -85 298 -86 Q308 -87 316 -92 Q322 -96 325 -100 Q327 -105 327 -109 Q328 -117 319 -125 Q310 -133 281 -134 Q258 -134 232 -126 Q206 -117 182 -98 L157 -140 Q185 -159 216 -168 Q247 -177 276 -177 Q331 -176 357 -153 Q384 -131 384 -103 Q384 -88 376 -76 Q369 -63 355 -56 Q345 -52 335 -50 Q325 -49 316 -48 L299 -47 L305 0 L261 0 Z" /><glyph glyph-name="" unicode="&#x2db;" d="M356 0 Q317 -32 296 -61 Q276 -91 276 -115 Q276 -141 296 -158 Q316 -175 355 -176 Q373 -176 391 -171 Q409 -165 424 -153 L424 -107 Q419 -111 411 -116 Q403 -121 392 -125 Q384 -128 378 -129 Q372 -130 368 -130 Q354 -130 346 -122 Q338 -114 338 -102 Q339 -91 344 -82 Q350 -73 355 -67 Q362 -59 379 -41 Q397 -23 422 0 L356 0 Z" /><glyph glyph-name="" unicode="&#x2c7;" d="M377 658 L339 693 L258 591 L180 694 L134 659 L244 518 L266 518 L377 658 Z" /><glyph glyph-name="" unicode="&#x131;" d="M106 457 L106 399 L217 399 L217 58 L100 58 L100 0 L396 0 L396 58 L289 58 L289 457 L106 457 Z" /><glyph glyph-name="" unicode="&#x2039;" d="M145 253 L145 230 L303 61 L343 101 L215 241 L336 359 L297 400 L145 253 Z" /><glyph glyph-name="" unicode="&#x203a;" d="M343 253 L191 400 L152 359 L273 241 L145 101 L185 61 L343 230 L343 253 Z" /><glyph glyph-name="" unicode="&#x14d;" d="M123 621 L123 565 L377 565 L377 621 L123 621 ZM460 226 Q457 345 397 406 Q338 467 257 467 Q167 465 105 399 Q43 333 40 225 Q43 119 104 54 Q166 -10 255 -12 Q338 -11 398 50 Q457 112 460 226 L460 226 ZM252 406 Q304 406 344 362 Q385 317 388 223 Q386 137 346 94 Q307 50 255 50 Q199 51 159 98 Q118 146 116 231 Q118 316 158 360 Q197 405 252 406 L252 406 Z" /><glyph glyph-name="" unicode="¤" d="M68 492 L125 435 Q111 416 103 393 Q96 370 96 345 Q96 320 103 297 Q111 275 124 256 L68 199 L104 164 L159 220 Q179 205 202 198 Q225 190 251 190 Q276 190 299 197 Q322 205 341 219 L396 164 L432 199 L377 254 Q391 274 398 297 Q406 320 406 345 Q406 371 398 394 Q390 417 376 437 L432 492 L396 527 L340 472 Q321 485 299 493 Q276 500 251 500 Q225 500 202 493 Q179 485 160 471 L104 527 L68 492 ZM251 446 Q293 444 322 416 Q350 388 351 345 Q350 303 322 274 Q293 246 251 245 Q208 246 180 274 Q152 303 150 345 Q152 388 180 416 Q208 444 251 446 L251 446 Z" /><glyph glyph-name="" unicode="¦" d="M217 652 L217 295 L284 295 L284 652 L217 652 ZM284 -151 L284 196 L217 196 L217 -151 L284 -151 Z" /><glyph glyph-name="" unicode="¼" d="M76 -16 L123 -42 L437 638 L389 665 L76 -16 ZM396 242 L236 37 L236 8 L381 8 L381 -70 L427 -70 L427 8 L477 8 L477 45 L427 45 L427 242 L396 242 ZM382 164 L382 45 L288 45 L382 164 ZM146 677 L112 677 L5 619 L18 594 L95 614 L95 374 L146 374 L146 677 Z" /><glyph glyph-name="" unicode="½" d="M76 -16 L123 -42 L437 638 L389 665 L76 -16 ZM263 168 L300 143 Q303 149 304 152 Q305 156 308 160 Q319 174 337 183 Q355 193 379 194 Q408 193 423 179 Q439 164 439 145 Q439 127 427 112 Q415 96 398 82 Q378 68 342 38 Q305 8 270 -38 L270 -73 L494 -73 L494 -22 Q490 -21 487 -23 Q485 -25 483 -26 Q481 -28 479 -29 Q477 -29 475 -29 L329 -29 Q363 7 394 28 Q426 50 450 71 Q460 79 473 98 Q486 116 487 145 Q486 182 458 208 Q429 233 380 235 Q343 234 312 217 Q281 200 263 168 L263 168 ZM146 677 L112 677 L5 619 L18 594 L95 614 L95 374 L146 374 L146 677 Z" /><glyph glyph-name="" unicode="¾" d="M81 -16 L128 -42 L442 638 L394 665 L81 -16 ZM128 684 Q97 684 70 671 Q42 658 22 634 L51 604 Q65 622 85 632 Q105 642 125 642 Q153 641 169 627 Q185 613 185 594 Q186 580 171 567 Q157 554 118 553 Q110 553 102 554 L102 514 Q114 515 126 515 Q171 514 184 499 Q198 483 197 471 Q196 449 176 434 Q156 420 126 419 Q97 420 80 431 Q63 441 60 445 Q55 451 54 456 Q53 462 49 468 L11 426 Q33 401 63 388 Q92 375 125 374 Q174 375 209 401 Q244 427 246 467 Q245 492 229 511 Q213 530 187 535 Q207 542 220 559 Q232 575 232 598 Q231 633 202 658 Q173 683 128 684 L128 684 ZM396 242 L236 37 L236 8 L381 8 L381 -70 L427 -70 L427 8 L477 8 L477 45 L427 45 L427 242 L396 242 ZM382 164 L382 45 L288 45 L382 164 Z" /><glyph glyph-name="" unicode="&#x104;" d="M326 236 L158 236 L238 474 L326 236 ZM15 -1 L84 -1 L144 182 L342 182 L411 0 L418 0 Q379 -32 359 -61 Q338 -91 338 -115 Q338 -141 358 -158 Q378 -175 417 -176 Q436 -176 453 -171 Q471 -165 486 -153 L486 -107 Q481 -111 473 -116 Q465 -121 454 -125 Q446 -128 440 -129 Q434 -130 430 -130 Q416 -130 408 -122 Q401 -114 400 -102 Q401 -91 406 -82 Q412 -73 417 -67 Q424 -59 441 -41 Q459 -23 484 0 L483 0 L243 634 L235 634 L15 -1 Z" /><glyph glyph-name="" unicode="&#x141;" d="M73 623 L73 305 L20 287 L20 226 L73 243 L73 -1 L446 -1 L446 60 L146 60 L146 267 L337 328 L337 392 Q331 389 324 387 Q318 384 312 382 L146 328 L146 589 Q146 601 150 606 Q154 611 155 620 Q155 622 154 623 L73 623 Z" /><glyph glyph-name="" unicode="&#x13d;" d="M423 562 Q422 593 406 610 Q389 628 367 628 Q347 627 334 614 Q322 601 321 582 Q322 566 330 558 Q337 550 343 547 Q349 544 355 537 Q362 531 362 518 Q362 508 358 499 Q354 490 350 485 Q344 475 334 462 Q324 449 310 435 L338 411 Q380 454 401 492 Q423 530 423 562 L423 562 ZM66 623 L66 -1 L439 -1 L439 60 L139 60 L139 589 Q139 596 140 600 Q142 603 144 607 Q145 610 147 614 Q148 618 148 623 L66 623 Z" /><glyph glyph-name="" unicode="&#x15a;" d="M308 791 L155 702 L179 660 L348 721 L308 791 ZM435 549 Q403 587 358 607 Q314 626 262 627 Q176 625 125 579 Q74 533 72 467 Q72 439 86 407 Q100 375 139 345 Q184 314 240 294 Q296 273 333 252 Q363 232 375 209 Q386 187 386 166 Q386 123 351 89 Q317 55 249 53 Q198 54 160 74 Q122 94 101 121 Q98 124 98 127 Q98 129 98 132 Q98 133 97 136 Q97 139 93 142 L52 70 Q89 30 139 10 Q189 -10 247 -10 Q360 -7 408 50 Q456 107 455 170 Q456 195 446 225 Q435 254 407 282 Q364 319 308 340 Q252 361 208 385 Q170 408 156 433 Q143 458 144 478 Q144 515 174 541 Q203 568 257 569 Q300 568 333 551 Q365 534 383 507 Q385 504 385 502 Q386 500 386 498 Q386 493 388 492 Q389 490 391 489 L435 549 Z" /><glyph glyph-name="" unicode="&#x15e;" d="M435 549 Q403 587 358 607 Q314 626 262 627 Q176 625 125 579 Q74 533 72 467 Q72 439 86 407 Q100 375 139 345 Q184 314 240 294 Q296 273 333 252 Q363 232 375 209 Q386 187 386 166 Q386 123 351 89 Q317 55 249 53 Q198 54 160 74 Q122 94 101 121 Q98 124 98 127 Q98 129 98 132 Q98 133 97 136 Q97 139 93 142 L52 70 Q86 33 131 13 Q176 -7 228 -10 L218 -85 L248 -85 Q256 -85 266 -86 Q276 -87 284 -92 Q290 -96 293 -100 Q295 -105 295 -109 Q296 -117 287 -125 Q278 -133 249 -134 Q226 -134 200 -126 Q174 -117 150 -98 L125 -140 Q153 -159 184 -168 Q215 -177 244 -177 Q299 -176 325 -153 Q352 -131 352 -103 Q352 -88 345 -76 Q337 -63 323 -56 Q313 -52 303 -50 Q294 -49 284 -48 L268 -47 L272 -10 Q371 1 413 56 Q456 111 455 170 Q456 195 446 225 Q435 254 407 282 Q364 319 308 340 Q252 361 208 385 Q170 408 156 433 Q143 458 144 478 Q144 515 174 541 Q203 568 257 569 Q300 568 333 551 Q365 534 383 507 Q385 504 385 502 Q386 500 386 498 Q386 493 388 492 Q389 490 391 489 L435 549 Z" /><glyph glyph-name="" unicode="&#x164;" d="M397 755 L369 789 L257 721 L154 791 L121 753 L244 656 L266 656 L397 755 ZM31 624 L31 561 L208 561 L208 -1 L279 -1 L279 561 L463 561 L463 624 L31 624 Z" /><glyph glyph-name="" unicode="&#x179;" d="M308 791 L155 702 L179 660 L348 721 L308 791 ZM62 623 L62 560 L364 560 L50 48 L50 -1 L463 -1 L463 67 Q454 68 448 65 Q442 62 432 61 L138 61 L446 574 L447 623 L62 623 Z" /><glyph glyph-name="" unicode="&#x17b;" d="M255 783 Q233 782 218 768 Q203 753 203 731 Q203 710 218 695 Q233 681 255 680 Q277 681 291 695 Q306 710 306 731 Q306 753 291 768 Q277 782 255 783 L255 783 ZM62 623 L62 560 L364 560 L50 48 L50 -1 L463 -1 L463 67 Q454 68 448 65 Q442 62 432 61 L138 61 L446 574 L447 623 L62 623 Z" /><glyph glyph-name="" unicode="&#x154;" d="M308 791 L155 702 L179 660 L348 721 L308 791 ZM56 623 L56 0 L127 0 L127 275 L248 275 L386 0 L464 0 L320 278 Q378 295 412 342 Q446 389 447 452 Q447 500 425 540 Q402 580 359 602 Q329 617 300 620 Q270 624 240 623 L56 623 ZM127 557 L240 557 Q259 558 278 556 Q297 553 316 544 Q346 529 360 502 Q375 475 375 444 Q375 414 361 389 Q347 364 320 349 Q302 341 284 338 Q266 336 248 337 L127 337 L127 557 Z" /><glyph glyph-name="" unicode="&#x102;" d="M128 784 L91 739 Q122 703 160 682 Q199 662 240 662 Q286 663 324 685 Q362 707 387 742 L359 784 Q333 750 302 732 Q272 714 240 714 Q203 715 174 736 Q145 756 128 784 L128 784 ZM15 -1 L84 -1 L144 182 L342 182 L411 0 L483 0 L243 634 L235 634 L15 -1 ZM326 236 L158 236 L238 474 L326 236 Z" /><glyph glyph-name="" unicode="&#x139;" d="M308 791 L155 702 L179 660 L348 721 L308 791 ZM66 623 L66 -1 L439 -1 L439 60 L139 60 L139 589 Q139 596 140 600 Q142 603 144 607 Q145 610 147 614 Q148 618 148 623 L66 623 Z" /><glyph glyph-name="" unicode="&#x106;" d="M308 791 L155 702 L179 660 L348 721 L308 791 ZM278 628 Q199 632 123 562 Q46 492 41 308 Q46 130 120 59 Q195 -13 277 -10 Q334 -10 382 17 Q430 44 460 92 L408 126 Q386 90 352 70 Q318 50 281 50 Q210 51 161 119 Q111 187 109 314 Q111 439 159 505 Q207 572 275 572 Q312 572 344 552 Q375 533 395 500 Q396 498 397 495 Q398 493 398 489 Q398 486 398 482 Q397 481 398 478 Q399 475 402 472 L469 505 Q442 562 392 595 Q341 628 278 628 L278 628 Z" /><glyph glyph-name="" unicode="&#x10c;" d="M413 755 L385 789 L274 721 L170 791 L137 753 L261 656 L282 656 L413 755 ZM278 628 Q199 632 123 562 Q46 492 41 308 Q46 130 120 59 Q195 -13 277 -10 Q334 -10 382 17 Q430 44 460 92 L408 126 Q386 90 352 70 Q318 50 281 50 Q210 51 161 119 Q111 187 109 314 Q111 439 159 505 Q207 572 275 572 Q312 572 344 552 Q375 533 395 500 Q396 498 397 495 Q398 493 398 489 Q398 486 398 482 Q397 481 398 478 Q399 475 402 472 L469 505 Q442 562 392 595 Q341 628 278 628 L278 628 Z" /><glyph glyph-name="" unicode="&#x118;" d="M59 624 L59 0 L370 0 Q331 -32 311 -61 Q291 -91 291 -115 Q291 -141 311 -158 Q330 -175 369 -176 Q388 -176 406 -171 Q424 -165 438 -153 L438 -107 Q434 -111 426 -116 Q418 -121 406 -125 Q399 -128 393 -129 Q387 -130 382 -130 Q368 -130 361 -122 Q353 -114 353 -102 Q353 -91 359 -82 Q364 -73 370 -67 Q376 -59 394 -41 Q411 -23 437 0 L438 0 L438 62 L125 62 L125 293 L386 293 L386 357 L125 357 L125 562 L441 562 L441 624 L59 624 Z" /><glyph glyph-name="" unicode="&#x11a;" d="M397 755 L369 789 L257 721 L154 791 L121 753 L244 656 L266 656 L397 755 ZM59 624 L59 0 L438 0 L438 62 L125 62 L125 293 L386 293 L386 357 L125 357 L125 562 L441 562 L441 624 L59 624 Z" /><glyph glyph-name="" unicode="&#x10e;" d="M371 755 L343 789 L231 721 L128 791 L95 753 L218 656 L240 656 L371 755 ZM54 623 L54 -1 L187 -1 Q224 -1 257 3 Q289 8 322 24 Q389 60 425 134 Q460 209 460 313 Q460 404 432 477 Q404 549 344 590 Q311 611 276 617 Q240 624 199 623 L54 623 ZM120 564 L195 564 Q225 564 254 558 Q283 552 312 529 Q355 492 373 432 Q390 372 390 303 Q389 215 364 161 Q339 107 300 82 Q271 63 242 59 Q213 54 184 54 L120 54 L120 564 Z" /><glyph glyph-name="" unicode="&#x110;" d="M79 623 L79 359 L30 359 L30 301 L79 301 L79 -1 L206 -1 Q239 -1 266 3 Q293 6 319 18 Q391 54 429 134 Q466 214 466 315 Q466 396 441 470 Q415 543 359 586 Q327 610 293 617 Q259 624 218 623 L79 623 ZM143 301 L248 301 L248 359 L143 359 L143 564 L214 564 Q244 566 279 556 Q314 546 346 504 Q374 465 387 412 Q399 360 399 306 Q399 232 375 173 Q352 114 307 83 Q281 65 255 61 Q229 56 203 57 L143 57 L143 301 Z" /><glyph glyph-name="" unicode="&#x143;" d="M308 791 L155 702 L179 660 L348 721 L308 791 ZM50 0 L117 0 L117 490 L392 -1 L447 -1 L447 597 Q447 602 448 605 Q449 608 451 611 Q452 613 453 616 Q454 620 454 624 L380 624 L380 161 L118 623 L50 623 L50 0 Z" /><glyph glyph-name="" unicode="&#x147;" d="M397 755 L369 789 L257 721 L154 791 L121 753 L244 656 L266 656 L397 755 ZM50 0 L117 0 L117 490 L392 -1 L447 -1 L447 597 Q447 602 448 605 Q449 608 451 611 Q452 613 453 616 Q454 620 454 624 L380 624 L380 161 L118 623 L50 623 L50 0 Z" /><glyph glyph-name="" unicode="&#x150;" d="M411 810 L280 686 L312 645 L457 746 L411 810 ZM233 810 L102 686 L134 645 L280 746 L233 810 ZM471 310 Q472 355 465 408 Q458 462 433 513 Q401 572 353 601 Q305 630 254 630 Q179 633 107 563 Q35 493 29 313 Q34 132 106 60 Q178 -12 254 -10 Q306 -10 354 20 Q402 49 434 111 Q458 162 465 215 Q472 268 471 310 L471 310 ZM251 564 Q285 565 320 542 Q354 519 377 466 Q392 426 397 384 Q402 341 401 301 Q402 269 397 227 Q392 184 373 143 Q351 98 319 78 Q287 58 254 59 Q199 57 150 116 Q102 175 98 322 Q102 459 150 513 Q198 567 251 564 L251 564 Z" /><glyph glyph-name="" unicode="&#x158;" d="M397 755 L369 789 L257 721 L154 791 L121 753 L244 656 L266 656 L397 755 ZM56 623 L56 0 L127 0 L127 275 L248 275 L386 0 L464 0 L320 278 Q378 295 412 342 Q446 389 447 452 Q447 500 425 540 Q402 580 359 602 Q329 617 300 620 Q270 624 240 623 L56 623 ZM127 557 L240 557 Q259 558 278 556 Q297 553 316 544 Q346 529 360 502 Q375 475 375 444 Q375 414 361 389 Q347 364 320 349 Q302 341 284 338 Q266 336 248 337 L127 337 L127 557 Z" /><glyph glyph-name="" unicode="&#x16e;" d="M344 707 Q343 744 318 769 Q292 794 253 795 Q214 794 188 769 Q162 744 161 707 Q162 670 188 645 Q214 620 253 619 Q292 620 318 645 Q343 670 344 707 L344 707 ZM212 707 Q213 727 225 740 Q236 753 254 753 Q271 753 283 740 Q295 727 295 708 Q295 688 283 675 Q271 662 254 662 Q236 662 224 675 Q213 688 212 707 L212 707 ZM50 623 L50 215 L50 215 Q49 182 54 150 Q58 118 74 86 Q101 38 148 13 Q195 -11 252 -11 Q307 -11 354 13 Q401 37 429 86 Q446 119 450 151 Q455 184 454 218 L454 623 L387 623 L387 217 Q388 192 385 169 Q383 145 371 121 Q354 85 322 67 Q290 48 253 48 Q215 48 183 67 Q152 86 134 122 Q124 145 121 168 Q119 191 119 214 L119 591 Q119 594 120 597 Q120 600 123 604 Q125 607 127 610 Q129 614 130 618 Q130 621 129 623 L50 623 Z" /><glyph glyph-name="" unicode="&#x170;" d="M411 810 L280 686 L312 645 L457 746 L411 810 ZM233 810 L102 686 L134 645 L280 746 L233 810 ZM50 623 L50 215 L50 215 Q49 182 54 150 Q58 118 74 86 Q101 38 148 13 Q195 -11 252 -11 Q307 -11 354 13 Q401 37 429 86 Q446 119 450 151 Q455 184 454 218 L454 623 L387 623 L387 217 Q388 192 385 169 Q383 145 371 121 Q354 85 322 67 Q290 48 253 48 Q215 48 183 67 Q152 86 134 122 Q124 145 121 168 Q119 191 119 214 L119 591 Q119 594 120 597 Q120 600 123 604 Q125 607 127 610 Q129 614 130 618 Q130 621 129 623 L50 623 Z" /><glyph glyph-name="" unicode="&#x162;" d="M31 624 L31 561 L208 561 L208 -1 L223 -1 L212 -85 L242 -85 Q250 -85 260 -86 Q270 -87 278 -92 Q284 -96 287 -100 Q289 -105 289 -109 Q290 -117 281 -125 Q272 -133 243 -134 Q220 -134 194 -126 Q168 -117 144 -98 L119 -140 Q147 -159 178 -168 Q209 -177 238 -177 Q293 -176 319 -153 Q346 -131 346 -103 Q346 -88 339 -76 Q331 -63 317 -56 Q307 -52 297 -50 Q287 -49 278 -48 L261 -47 L267 -1 L279 -1 L279 561 L463 561 L463 624 L31 624 Z" /><glyph glyph-name="" unicode="&#x105;" d="M369 214 L369 184 Q369 166 365 144 Q360 122 337 98 Q325 83 294 64 Q263 46 217 44 Q172 45 147 68 Q122 91 121 123 Q121 149 140 172 Q159 196 202 207 Q234 214 275 214 Q315 215 352 214 L369 214 ZM91 403 L126 357 Q155 386 190 397 Q225 409 257 408 Q297 407 320 394 Q342 381 351 364 Q362 345 364 325 Q366 304 366 286 L366 269 L351 269 Q300 270 249 267 Q198 264 154 249 Q100 228 74 192 Q49 157 49 118 Q50 66 90 28 Q130 -9 203 -11 Q245 -11 287 4 Q329 19 367 50 L367 0 L368 0 Q329 -32 309 -61 Q288 -91 288 -115 Q288 -141 308 -158 Q328 -175 367 -176 Q385 -176 403 -171 Q421 -165 436 -153 L436 -107 Q431 -111 423 -116 Q415 -121 404 -125 Q396 -128 390 -129 Q384 -130 380 -130 Q366 -130 358 -122 Q351 -114 350 -102 Q351 -91 356 -82 Q362 -73 367 -67 Q374 -59 391 -41 Q409 -23 434 0 L435 0 L435 283 Q436 311 432 338 Q428 365 413 391 Q390 429 348 448 Q307 467 254 467 Q207 467 165 452 Q123 436 91 403 L91 403 Z" /><glyph glyph-name="" unicode="&#x103;" d="M146 646 L110 601 Q140 565 178 544 Q217 524 258 524 Q304 525 342 547 Q380 569 406 604 L377 646 Q351 612 321 594 Q290 576 258 576 Q221 577 192 597 Q163 618 146 646 L146 646 ZM91 403 L126 357 Q155 386 190 397 Q225 409 257 408 Q297 407 320 394 Q342 381 351 364 Q362 345 364 325 Q366 304 366 286 L366 269 L351 269 Q300 270 249 267 Q198 264 154 249 Q100 228 74 192 Q49 157 49 118 Q50 66 90 28 Q130 -9 203 -11 Q245 -11 287 4 Q329 19 367 50 L367 0 L435 0 L435 283 Q436 311 432 338 Q428 365 413 391 Q390 429 348 448 Q307 467 254 467 Q207 467 165 452 Q123 436 91 403 L91 403 ZM369 214 L369 184 Q369 166 365 144 Q360 122 337 98 Q325 83 294 64 Q263 46 217 44 Q172 45 147 68 Q122 91 121 123 Q121 149 140 172 Q159 196 202 207 Q234 214 275 214 Q315 215 352 214 L369 214 Z" /><glyph glyph-name="" unicode="&#x10d;" d="M457 381 Q429 421 385 444 Q341 466 286 466 Q183 464 121 399 Q58 333 56 228 Q58 123 120 57 Q182 -9 281 -11 Q329 -11 373 7 Q416 26 450 61 L408 110 Q385 83 353 69 Q322 55 287 54 Q219 56 175 105 Q132 154 130 236 Q132 315 174 359 Q217 404 281 405 Q339 402 368 377 Q398 352 399 345 Q401 339 401 333 Q400 327 406 322 L457 381 ZM377 658 L339 693 L258 591 L180 694 L134 659 L244 518 L266 518 L377 658 Z" /><glyph glyph-name="" unicode="&#x10f;" d="M309 390 Q291 427 257 448 Q223 468 181 469 Q109 468 56 407 Q3 346 0 232 Q2 124 50 58 Q98 -8 172 -10 Q214 -10 249 14 Q284 37 306 73 L306 34 Q305 25 306 17 Q307 8 310 0 L381 0 Q379 11 378 21 Q377 32 377 42 L377 665 L309 665 L309 390 ZM185 410 Q214 410 243 392 Q272 374 288 343 Q298 322 301 293 Q304 265 303 220 Q304 189 299 163 Q295 136 281 112 Q266 88 242 71 Q218 54 188 53 Q132 56 101 112 Q70 168 70 241 Q71 316 103 362 Q135 409 185 410 L185 410 ZM509 605 Q508 636 492 653 Q476 671 453 671 Q433 670 421 657 Q408 644 407 625 Q408 610 416 601 Q424 593 430 590 Q435 587 442 580 Q448 574 448 562 Q448 551 444 542 Q440 533 437 528 Q431 518 421 505 Q411 492 396 478 L424 454 Q466 497 487 535 Q509 573 509 605 L509 605 Z" /><glyph glyph-name="" unicode="&#x119;" d="M259 468 Q174 468 113 408 Q52 349 49 226 Q51 112 110 51 Q169 -10 261 -10 Q296 -10 330 -1 Q302 -27 288 -53 Q274 -78 274 -101 Q275 -132 297 -153 Q319 -174 357 -175 Q375 -175 392 -170 Q409 -165 423 -157 L424 -108 Q402 -121 389 -124 Q377 -127 373 -127 Q355 -127 345 -116 Q334 -105 334 -88 Q334 -66 352 -41 Q370 -16 396 16 L432 60 L392 99 Q369 74 339 61 Q308 48 274 48 Q224 46 175 82 Q126 118 118 218 L443 218 Q447 265 440 305 Q422 396 370 433 Q317 469 259 468 L259 468 ZM121 274 Q134 353 174 384 Q214 414 254 413 Q310 411 344 371 Q377 331 372 274 L121 274 Z" /><glyph glyph-name="" unicode="&#x13e;" d="M475 605 Q474 636 457 653 Q441 671 419 671 Q399 670 386 657 Q373 644 373 625 Q374 610 381 601 Q389 593 395 590 Q401 587 407 580 Q413 574 414 562 Q414 551 409 542 Q405 533 402 528 Q396 518 386 505 Q376 492 362 478 L389 454 Q431 497 453 535 Q474 573 475 605 L475 605 ZM67 665 L67 607 L197 607 L197 58 L61 58 L61 0 L404 0 L404 58 L269 58 L269 665 L67 665 Z" /><glyph glyph-name="" unicode="&#x13a;" d="M85 665 L85 607 L214 607 L214 58 L79 58 L79 0 L421 0 L421 58 L287 58 L287 665 L85 665 ZM308 835 L155 745 L179 703 L348 765 L308 835 Z" /><glyph glyph-name="" unicode="&#x144;" d="M292 699 L204 552 L254 522 L355 657 L292 699 ZM68 0 L142 0 L142 263 Q141 286 146 304 Q150 323 164 342 Q178 361 207 382 Q237 403 274 405 Q291 405 307 398 Q323 391 336 376 Q354 354 358 327 Q361 300 361 275 L361 0 L432 0 L432 277 L432 277 Q432 304 429 332 Q427 359 415 387 Q397 426 365 447 Q333 468 293 468 Q246 467 207 441 Q167 415 142 376 L142 457 L68 457 L68 0 Z" /><glyph glyph-name="" unicode="&#x148;" d="M377 658 L339 693 L258 591 L180 694 L134 659 L244 518 L266 518 L377 658 ZM68 0 L142 0 L142 263 Q141 286 146 304 Q150 323 164 342 Q178 361 207 382 Q237 403 274 405 Q291 405 307 398 Q323 391 336 376 Q354 354 358 327 Q361 300 361 275 L361 0 L432 0 L432 277 L432 277 Q432 304 429 332 Q427 359 415 387 Q397 426 365 447 Q333 468 293 468 Q246 467 207 441 Q167 415 142 376 L142 457 L68 457 L68 0 Z" /><glyph glyph-name="" unicode="&#x151;" d="M214 699 L126 552 L176 522 L277 657 L214 699 ZM369 699 L281 552 L331 522 L432 657 L369 699 ZM460 226 Q457 345 397 406 Q338 467 257 467 Q167 465 105 399 Q43 333 40 225 Q43 119 104 54 Q166 -10 255 -12 Q338 -11 398 50 Q457 112 460 226 L460 226 ZM252 406 Q304 406 344 362 Q385 317 388 223 Q386 137 346 94 Q307 50 255 50 Q199 51 159 98 Q118 146 116 231 Q118 316 158 360 Q197 405 252 406 L252 406 Z" /><glyph glyph-name="" unicode="&#x159;" d="M377 658 L339 693 L258 591 L180 694 L134 659 L244 518 L266 518 L377 658 ZM99 457 L99 -1 L172 -1 L172 222 Q171 242 176 267 Q181 292 204 329 Q236 377 271 392 Q307 407 332 406 Q361 405 380 395 Q398 384 408 372 Q412 366 415 360 Q419 354 425 349 L458 418 Q437 440 406 454 Q375 467 336 468 Q285 468 240 443 Q195 418 172 369 L174 457 L99 457 Z" /><glyph glyph-name="" unicode="&#x15b;" d="M292 699 L204 552 L254 522 L355 657 L292 699 ZM432 396 Q400 431 357 449 Q313 468 262 468 Q181 466 134 430 Q87 393 86 340 Q91 281 133 255 Q174 228 198 222 Q227 212 261 202 Q294 192 320 181 Q348 167 357 151 Q367 135 366 122 Q365 90 332 70 Q299 51 249 50 Q190 52 153 76 Q117 99 106 114 Q103 117 103 119 Q103 121 103 124 Q103 126 102 129 Q102 132 98 134 L57 62 Q98 25 147 7 Q197 -11 250 -10 Q344 -8 392 35 Q440 78 440 132 Q441 157 427 184 Q412 212 373 236 Q332 256 286 269 Q239 281 205 296 Q178 309 168 324 Q159 339 160 351 Q161 379 188 396 Q216 413 256 413 Q305 412 337 390 Q370 369 383 351 Q385 348 385 346 Q385 344 385 341 Q385 337 387 335 Q389 333 390 333 L432 396 Z" /><glyph glyph-name="" unicode="&#x107;" d="M292 699 L204 552 L254 522 L355 657 L292 699 ZM457 381 Q429 421 385 444 Q341 466 286 466 Q183 464 121 399 Q58 333 56 228 Q58 123 120 57 Q182 -9 281 -11 Q329 -11 373 7 Q416 26 450 61 L408 110 Q385 83 353 69 Q322 55 287 54 Q219 56 175 105 Q132 154 130 236 Q132 315 174 359 Q217 404 281 405 Q339 402 368 377 Q398 352 399 345 Q401 339 401 333 Q400 327 406 322 L457 381 Z" /><glyph glyph-name="" unicode="&#x15f;" d="M432 396 Q400 431 357 449 Q313 468 262 468 Q181 466 134 430 Q87 393 86 340 Q91 281 133 255 Q174 228 198 222 Q227 212 261 202 Q294 192 320 181 Q348 167 357 151 Q367 135 366 122 Q365 90 332 70 Q299 51 249 50 Q190 52 153 76 Q117 99 106 114 Q103 117 103 119 Q103 121 103 124 Q103 126 102 129 Q102 132 98 134 L57 62 Q95 28 140 10 Q186 -8 234 -10 L224 -85 L254 -85 Q262 -85 272 -86 Q282 -87 290 -92 Q296 -96 299 -100 Q301 -105 301 -109 Q302 -117 293 -125 Q284 -133 256 -134 Q232 -134 206 -126 Q180 -117 156 -98 L131 -140 Q160 -159 190 -168 Q221 -177 250 -177 Q305 -176 331 -153 Q358 -131 358 -103 Q358 -88 351 -76 Q343 -63 329 -56 Q319 -52 309 -50 Q300 -49 290 -48 L274 -47 L278 -9 Q358 0 399 42 Q440 83 440 132 Q441 157 427 184 Q412 212 373 236 Q332 256 286 269 Q239 281 205 296 Q178 309 168 324 Q159 339 160 351 Q161 379 188 396 Q216 413 256 413 Q305 412 337 390 Q370 369 383 351 Q385 348 385 346 Q385 344 385 341 Q385 337 387 335 Q389 333 390 333 L432 396 Z" /><glyph glyph-name="" unicode="&#x163;" d="M188 579 L180 457 L71 457 L70 398 L177 398 Q167 281 167 164 Q167 133 171 101 Q175 68 194 40 Q208 20 229 8 Q250 -4 278 -7 L268 -85 L297 -85 Q306 -85 315 -86 Q325 -87 333 -92 Q339 -96 342 -100 Q344 -105 344 -109 Q345 -117 336 -125 Q327 -133 299 -134 Q276 -134 249 -126 Q223 -117 199 -98 L174 -140 Q203 -159 233 -168 Q264 -177 293 -177 Q348 -176 375 -153 Q401 -131 401 -103 Q401 -88 394 -76 Q386 -63 372 -56 Q362 -52 352 -50 Q343 -49 333 -48 L317 -47 L321 -7 Q356 -3 388 10 Q419 24 444 42 L422 99 Q393 78 367 68 Q341 57 320 58 Q293 57 271 74 Q249 91 243 131 Q242 133 241 152 Q240 171 240 219 Q240 309 249 398 L399 398 L399 457 L249 457 Q250 462 253 502 Q257 542 261 565 Q263 573 266 579 Q269 585 267 592 L188 579 Z" /><glyph glyph-name="" unicode="&#x16f;" d="M348 605 Q347 642 321 667 Q295 692 256 693 Q217 692 191 667 Q166 642 165 605 Q166 568 191 543 Q217 518 256 517 Q295 518 321 543 Q347 568 348 605 L348 605 ZM216 606 Q216 626 228 638 Q240 651 257 652 Q275 651 286 638 Q298 626 299 606 Q298 586 286 573 Q275 560 257 560 Q240 560 228 573 Q216 586 216 606 L216 606 ZM63 457 L62 202 Q62 172 64 142 Q67 112 80 82 Q101 37 139 13 Q177 -11 222 -11 Q266 -11 303 10 Q340 32 363 70 L362 35 Q362 18 364 0 L440 0 Q437 10 436 21 Q435 31 435 41 L435 457 L362 457 L362 205 Q363 179 359 158 Q356 136 344 115 Q328 86 300 67 Q272 48 239 47 Q212 48 189 62 Q166 76 152 103 Q140 128 137 153 Q135 179 135 202 L135 457 L63 457 Z" /><glyph glyph-name="" unicode="&#x171;" d="M214 699 L126 552 L176 522 L277 657 L214 699 ZM369 699 L281 552 L331 522 L432 657 L369 699 ZM63 457 L62 202 Q62 172 64 142 Q67 112 80 82 Q101 37 139 13 Q177 -11 222 -11 Q266 -11 303 10 Q340 32 363 70 L362 35 Q362 18 364 0 L440 0 Q437 10 436 21 Q435 31 435 41 L435 457 L362 457 L362 205 Q363 179 359 158 Q356 136 344 115 Q328 86 300 67 Q272 48 239 47 Q212 48 189 62 Q166 76 152 103 Q140 128 137 153 Q135 179 135 202 L135 457 L63 457 Z" /><glyph glyph-name="" unicode="&#x17c;" d="M71 457 L71 394 L333 394 L50 48 L50 -1 L450 -1 L450 67 Q441 68 435 65 Q429 62 419 61 L148 61 L426 408 L426 457 L71 457 ZM255 656 Q233 655 218 641 Q203 626 203 605 Q203 583 218 568 Q233 554 255 553 Q277 554 291 568 Q306 583 306 605 Q306 626 291 641 Q277 655 255 656 L255 656 Z" /><glyph glyph-name="" unicode="&#x142;" d="M85 665 L85 607 L214 607 L214 345 L135 318 L135 252 L214 279 L214 58 L79 58 L79 0 L421 0 L421 58 L287 58 L287 303 L378 334 L378 407 Q371 402 365 399 Q359 395 351 393 L287 370 L287 665 L85 665 Z" /><glyph glyph-name="" unicode="&#x11b;" d="M377 658 L339 693 L258 591 L180 694 L134 659 L244 518 L266 518 L377 658 ZM259 468 Q174 468 113 408 Q51 348 49 223 Q51 109 112 49 Q173 -10 268 -10 Q317 -10 360 7 Q402 25 432 60 L392 99 Q369 74 339 61 Q308 48 274 48 Q224 46 175 82 Q126 118 118 218 L443 218 Q447 266 440 306 Q422 396 369 433 Q317 469 259 468 L259 468 ZM121 274 Q134 353 174 384 Q214 414 254 413 Q310 411 344 371 Q377 331 372 274 L121 274 Z" /><glyph glyph-name="" unicode="&#x138;" d="M66 457 L66 -1 L139 -1 L139 173 L199 229 L386 -4 Q387 -4 411 -3 Q435 -1 472 -1 Q475 -1 479 -1 L255 273 L447 454 L421 454 Q408 454 394 455 Q381 456 368 459 L139 247 L139 431 Q139 433 139 436 Q140 438 142 441 Q144 444 146 447 Q148 450 149 454 Q149 455 148 457 L66 457 Z" /><glyph glyph-name="" unicode="&#x237;" d="M126 457 L126 398 L296 398 L296 18 Q296 0 294 -18 Q292 -36 284 -55 Q271 -83 246 -97 Q222 -112 192 -112 Q151 -110 129 -92 Q106 -73 104 -67 Q101 -62 100 -57 Q99 -52 95 -48 L48 -110 Q73 -141 109 -158 Q145 -174 188 -174 Q238 -174 281 -152 Q324 -129 348 -83 Q362 -55 366 -26 Q369 2 369 32 L369 457 L126 457 Z" /><glyph glyph-name="" unicode="&#x14b;" d="M68 0 L142 0 L142 263 Q141 286 146 304 Q150 323 164 342 Q178 361 207 382 Q237 403 274 405 Q291 405 307 398 Q323 391 336 376 Q354 354 358 327 Q361 300 361 275 L361 45 Q361 18 358 -11 Q355 -40 339 -66 Q325 -88 305 -98 Q285 -109 264 -109 Q240 -108 225 -100 Q210 -92 208 -88 Q206 -85 205 -81 Q204 -77 199 -75 L165 -142 Q186 -159 211 -167 Q236 -176 262 -176 Q311 -176 351 -149 Q392 -122 414 -70 Q426 -38 429 -7 Q432 25 432 56 L432 277 Q432 304 429 332 Q427 359 415 387 Q397 426 365 447 Q333 468 293 468 Q246 467 207 441 Q167 415 142 376 L142 457 L68 457 L68 0 Z" /><glyph glyph-name="" unicode="&#x201a;" d="M306 20 Q305 58 284 80 Q264 102 236 103 Q211 102 195 85 Q179 69 179 46 Q180 26 189 16 Q199 5 207 1 Q214 -3 221 -11 Q229 -19 230 -34 Q229 -47 224 -58 Q219 -70 215 -76 Q208 -88 195 -105 Q183 -121 165 -138 L199 -168 Q252 -115 279 -67 Q306 -20 306 20 L306 20 Z" /><glyph glyph-name="" unicode="&#x201c;" d="M286 450 Q287 411 307 389 Q327 367 355 367 Q380 367 396 384 Q412 400 413 424 Q412 444 402 454 Q392 464 385 468 Q378 472 370 480 Q362 488 361 504 Q362 516 367 528 Q372 539 376 545 Q383 558 396 574 Q409 591 426 607 L392 638 Q340 584 313 537 Q286 489 286 450 L286 450 ZM79 450 Q80 411 100 389 Q120 367 148 367 Q173 367 189 384 Q205 400 206 424 Q205 444 195 454 Q185 464 178 468 Q170 472 163 480 Q155 488 154 504 Q155 516 160 528 Q165 539 169 545 Q176 558 189 574 Q202 591 219 607 L185 638 Q132 584 106 537 Q79 489 79 450 L79 450 Z" /><glyph glyph-name="" unicode="&#x201d;" d="M202 555 Q201 594 181 615 Q160 637 133 638 Q107 637 91 621 Q76 604 75 581 Q76 561 86 551 Q95 541 103 536 Q110 532 118 524 Q126 516 126 501 Q126 488 121 477 Q116 465 112 459 Q104 447 92 430 Q79 414 61 397 L96 367 Q148 420 175 468 Q202 515 202 555 L202 555 ZM409 555 Q408 594 388 615 Q367 637 340 638 Q315 637 299 621 Q283 604 282 581 Q283 561 293 551 Q303 541 310 536 Q317 532 325 524 Q333 516 333 501 Q333 488 328 477 Q323 465 319 459 Q311 447 299 430 Q286 414 268 397 L303 367 Q355 420 382 468 Q409 515 409 555 L409 555 Z" /><glyph glyph-name="" unicode="&#x201e;" d="M409 20 Q408 58 388 80 Q367 102 340 103 Q315 102 299 85 Q283 69 282 46 Q283 26 293 16 Q303 5 310 1 Q317 -3 325 -11 Q333 -19 333 -34 Q333 -47 328 -58 Q323 -70 319 -76 Q311 -88 299 -105 Q286 -121 268 -138 L303 -168 Q355 -115 382 -67 Q409 -20 409 20 L409 20 ZM202 20 Q201 58 181 80 Q160 102 133 103 Q107 102 91 85 Q76 69 75 46 Q76 26 86 16 Q95 5 103 1 Q110 -3 118 -11 Q126 -19 126 -34 Q126 -47 121 -58 Q116 -70 112 -76 Q104 -88 92 -105 Q79 -121 61 -138 L96 -168 Q148 -115 175 -67 Q202 -20 202 20 L202 20 Z" /><glyph glyph-name="" unicode="&#x2026;" d="M470 46 Q470 70 453 87 Q436 103 411 104 Q386 103 369 87 Q353 70 352 46 Q353 22 369 6 Q386 -11 411 -11 Q436 -11 453 6 Q470 22 470 46 L470 46 ZM125 46 Q125 70 108 87 Q91 103 66 104 Q41 103 24 87 Q7 70 7 46 Q7 22 24 6 Q41 -11 66 -11 Q91 -11 108 6 Q125 22 125 46 L125 46 ZM298 46 Q297 70 280 87 Q264 103 239 104 Q213 103 197 87 Q180 70 179 46 Q180 22 197 6 Q213 -11 239 -11 Q264 -11 280 6 Q297 22 298 46 L298 46 Z" /><glyph glyph-name="" unicode="&#x2191;" d="M59 404 L102 369 L218 513 L218 -34 L285 -34 L285 512 L391 369 L441 402 L268 640 L246 640 L59 404 Z" /><glyph glyph-name="" unicode="&#x2193;" d="M441 203 L398 238 L281 94 L281 640 L215 640 L215 94 L109 238 L59 205 L232 -34 L254 -34 L441 203 Z" /><glyph glyph-name="" unicode="&#x2423;" d="M48 70 L48 -66 L452 -66 L452 70 L404 70 L404 -21 L95 -21 L95 70 L48 70 Z" /><glyph glyph-name="" unicode="&#x11f;" d="M146 646 L110 601 Q140 565 178 544 Q217 524 258 524 Q304 525 342 547 Q380 569 406 604 L377 646 Q351 612 321 594 Q290 576 258 576 Q221 577 192 597 Q163 618 146 646 L146 646 ZM126 314 Q127 357 155 385 Q184 414 227 415 Q269 414 298 385 Q326 357 327 314 Q326 272 298 243 Q269 215 227 214 Q184 215 155 243 Q127 272 126 314 L126 314 ZM231 472 Q161 470 111 424 Q62 379 60 310 Q60 272 78 240 Q96 207 128 186 Q103 165 89 143 Q76 120 76 98 Q76 83 83 66 Q91 49 113 37 Q39 -10 38 -64 Q36 -103 82 -137 Q127 -170 245 -172 Q360 -169 408 -125 Q456 -81 455 -32 Q455 -2 438 25 Q420 51 384 67 Q348 80 308 81 Q269 81 229 80 Q204 80 188 82 Q171 83 164 85 Q151 89 144 97 Q137 105 137 115 Q138 134 151 149 Q164 163 169 167 Q197 156 227 156 Q297 158 343 203 Q390 248 392 313 Q392 334 386 353 Q380 373 369 390 Q387 401 407 407 Q427 412 448 412 Q462 412 475 410 L466 469 Q431 471 399 461 Q366 450 339 428 Q318 449 290 460 Q262 472 231 472 L231 472 ZM161 24 Q174 23 193 21 Q212 20 238 19 Q264 18 289 19 Q315 19 335 16 Q366 11 378 -5 Q390 -21 389 -37 Q389 -52 380 -68 Q370 -84 346 -98 Q321 -111 294 -114 Q267 -118 244 -118 Q227 -118 202 -115 Q176 -113 149 -103 Q122 -91 113 -75 Q104 -59 104 -47 Q105 -22 123 -4 Q141 14 161 24 L161 24 Z" /><glyph glyph-name="" unicode="&#x2074;" d="M302 641 L102 385 L102 350 L284 350 L284 252 L341 252 L341 349 L404 349 L404 396 L341 396 L341 641 L302 641 ZM285 544 L285 396 L167 396 L285 544 Z" /><glyph glyph-name="" unicode="&#x2044;" d="M76 -16 L123 -42 L437 638 L389 665 L76 -16 Z" /><glyph glyph-name="" unicode="&#x14a;" d="M51 0 L124 0 L124 413 Q124 437 128 457 Q133 477 147 498 Q165 523 199 546 Q233 570 274 571 Q302 571 326 557 Q349 542 363 516 Q374 492 376 468 Q378 444 378 422 L378 170 Q378 152 377 133 Q375 114 367 96 Q357 75 339 63 Q321 52 300 52 Q282 53 270 58 Q258 63 256 64 Q253 67 251 70 Q249 73 245 76 L210 14 Q230 2 252 -4 Q274 -11 297 -11 Q341 -10 377 11 Q413 32 432 72 Q444 98 446 123 Q449 149 449 175 L449 424 L449 424 Q449 453 446 483 Q443 513 430 543 Q409 587 371 610 Q333 634 286 634 Q236 634 194 609 Q152 584 124 542 L124 623 L51 623 L51 0 Z" /><glyph glyph-name="" unicode="&#x111;" d="M234 410 Q265 411 300 391 Q335 371 351 321 Q355 306 357 283 Q358 261 358 223 Q358 197 356 177 Q354 157 349 140 Q335 99 304 76 Q273 54 236 53 Q194 51 153 92 Q111 133 108 244 Q111 340 151 376 Q191 412 234 410 L234 410 ZM432 544 L476 544 L476 597 L432 597 L432 637 Q431 641 432 644 Q433 646 436 650 Q437 653 439 657 Q441 660 441 665 L364 665 L364 597 L288 597 L288 544 L364 544 L364 390 Q347 426 313 447 Q278 468 230 469 Q161 470 101 416 Q42 362 38 232 Q41 106 96 48 Q150 -11 220 -10 Q264 -10 301 12 Q339 34 361 73 L361 34 Q361 25 362 17 Q362 8 365 0 L437 0 Q434 11 433 21 Q432 32 432 42 L432 544 Z" /><glyph glyph-name="" unicode="&#x11e;" d="M146 791 L110 745 Q140 709 178 688 Q217 668 258 668 Q304 669 342 691 Q380 713 406 748 L377 790 Q351 756 321 738 Q290 720 258 720 Q221 721 192 742 Q163 762 146 791 L146 791 ZM277 629 Q208 634 126 569 Q43 504 36 304 Q41 130 116 59 Q191 -12 277 -10 Q321 -10 368 7 Q415 23 460 55 L460 299 L282 299 L282 238 L395 238 L395 90 Q369 71 340 61 Q311 52 283 52 Q252 52 221 65 Q190 78 165 106 Q127 152 115 210 Q104 268 105 319 Q105 363 112 403 Q119 444 137 479 Q162 524 199 546 Q237 568 277 568 Q319 567 350 547 Q381 526 396 494 Q398 489 401 484 Q403 479 409 475 L458 525 Q431 574 383 601 Q336 629 277 629 L277 629 Z" /><glyph glyph-name="" unicode="&#x130;" d="M237 791 Q215 791 201 776 Q186 762 186 740 Q186 718 201 704 Q215 689 237 689 Q259 689 274 704 Q289 718 289 740 Q289 762 274 776 Q259 791 237 791 L237 791 ZM88 623 L88 564 L204 564 L204 58 L81 58 L81 -1 L403 -1 L403 57 L274 57 L274 564 L397 564 L397 623 L88 623 Z" /><glyph glyph-name="" unicode="&#x155;" d="M292 699 L204 552 L254 522 L355 657 L292 699 ZM99 457 L99 -1 L172 -1 L172 222 Q171 242 176 267 Q181 292 204 329 Q236 377 271 392 Q307 407 332 406 Q361 405 380 395 Q398 384 408 372 Q412 366 415 360 Q419 354 425 349 L458 418 Q437 440 406 454 Q375 467 336 468 Q285 468 240 443 Q195 418 172 369 L174 457 L99 457 Z" /><glyph glyph-name="" unicode="&#x165;" d="M483 639 Q482 670 466 688 Q450 705 428 706 Q407 705 395 692 Q382 679 382 660 Q382 644 390 636 Q398 628 404 625 Q410 621 416 615 Q422 608 423 596 Q422 586 418 577 Q414 568 411 563 Q405 553 395 540 Q385 526 370 513 L398 489 Q440 531 462 570 Q483 608 483 639 L483 639 ZM162 579 L154 457 L45 457 L44 398 L151 398 Q141 281 142 164 Q141 133 145 101 Q149 68 168 40 Q185 17 211 4 Q237 -9 273 -9 Q314 -8 351 6 Q389 21 419 42 L396 99 Q367 78 341 68 Q315 57 294 58 Q267 57 245 74 Q223 91 217 131 Q216 133 215 152 Q214 171 214 219 Q214 309 223 398 L373 398 L373 457 L224 457 Q224 462 228 502 Q231 542 235 565 Q237 573 240 579 Q243 585 241 592 L162 579 Z" /><glyph glyph-name="" unicode="&#x17a;" d="M292 699 L204 552 L254 522 L355 657 L292 699 ZM71 457 L71 394 L333 394 L50 48 L50 -1 L450 -1 L450 67 Q441 68 435 65 Q429 62 419 61 L148 61 L426 408 L426 457 L71 457 Z" /><glyph glyph-name="" unicode="&#x2022;" d="M341 296 Q340 332 316 355 Q292 379 256 380 Q220 379 196 355 Q172 332 171 296 Q172 261 196 238 Q220 214 256 213 Q292 214 316 238 Q340 261 341 296 L341 296 Z" /><glyph glyph-name="" unicode="&#x192;" d="M480 620 Q459 646 430 659 Q401 673 368 673 Q328 673 293 652 Q258 630 237 589 Q224 561 219 532 Q214 503 212 475 L205 383 L80 383 L80 326 L201 326 L179 27 Q177 4 173 -22 Q169 -48 156 -72 Q145 -92 131 -100 Q118 -108 105 -108 Q92 -107 83 -102 Q73 -96 69 -89 Q67 -85 65 -82 Q63 -78 59 -76 L18 -140 Q34 -157 55 -166 Q76 -175 100 -175 Q131 -175 161 -158 Q191 -140 214 -104 Q231 -74 237 -41 Q244 -9 246 24 L270 326 L398 326 L398 383 L275 383 L281 465 Q283 489 286 516 Q289 542 299 566 Q312 593 331 605 Q350 617 369 616 Q394 616 412 603 Q429 589 436 574 Q438 570 438 567 Q438 565 439 562 Q440 558 442 556 Q445 554 447 554 L480 620 Z" /><glyph glyph-name="" unicode="&#x2020;" d="M217 652 L217 457 L49 457 L49 397 L217 397 L217 -151 L284 -151 L284 397 L450 397 L450 457 L284 457 L284 652 L217 652 Z" /><glyph glyph-name="" unicode="&#x2021;" d="M217 652 L217 457 L49 457 L49 397 L217 397 L217 121 L49 121 L49 61 L217 61 L217 -151 L284 -151 L284 61 L450 61 L450 121 L284 121 L284 397 L450 397 L450 457 L284 457 L284 652 L217 652 Z" /><glyph glyph-name="" unicode="&#x2122;" d="M239 635 L18 635 L18 595 L104 595 L104 320 L149 320 L149 595 L239 595 L239 635 ZM303 635 L268 635 L268 320 L310 320 L310 535 L365 428 L381 427 L410 480 L441 535 L441 320 L483 320 L483 635 L450 635 L412 562 L375 490 L303 635 Z" /></font>
</defs>
</svg>
