<?xml version="1.0" encoding="UTF-8" standalone="no"?>
<svg width="249px" height="146px" viewBox="0 0 249 146" version="1.1" xmlns="http://www.w3.org/2000/svg" xmlns:xlink="http://www.w3.org/1999/xlink" xmlns:sketch="http://www.bohemiancoding.com/sketch/ns">
    <!-- Generator: Sketch 3.3.3 (12081) - http://www.bohemiancoding.com/sketch -->
    <title>bibquery</title>
    <desc>Created with Sketch.</desc>
    <defs></defs>
    <g id="Page-1" stroke="none" stroke-width="1" fill="none" fill-rule="evenodd" sketch:type="MSPage">
        <path d="M215,18 L98,18 L98,43 L127,43 L127,34 L180.916408,34 L144.083326,51 L144.083324,76.625 L170,76.625 L170,63.4824388 L214.499512,44.5 L215,18 Z" id="Rectangle-1" stroke="#A7ADBA" fill="#BF616A" sketch:type="MSShapeGroup"></path>
        <rect id="Rectangle-4" stroke="#A7ADBA" fill="#BF616A" sketch:type="MSShapeGroup" x="143" y="100" width="27" height="18"></rect>
        <path d="M1,0.968 L50.4349407,145.288007 L61.1506071,145.288007 L11.5727908,0.968 L1,0.968 L1,0.968 Z M76.1525399,69.2699441 C80.1530554,67.2694687 86.8682063,60.5535872 86.8682063,48.5507351 L86.8682063,22.1158823 C86.8682063,15.9715651 92.1546017,10.8274856 98.1553748,10.8274856 L104.584775,10.8274856 L104.584775,0.968 L100.012757,0.968 C85.5823263,0.968 76.7240421,9.82724797 76.7240421,24.2592487 L76.7240421,43.97822 C76.7240421,54.6950522 74.5809089,62.5540625 65.4368736,64.9832112 L65.4368736,73.699568 C74.5809089,76.1287167 76.7240421,84.1306181 76.7240421,94.8474503 L76.7240421,113.709075 C76.7240421,128.141076 85.5823263,137.143215 100.012757,137.143215 L104.584775,137.143215 L104.584775,127.283729 L99.1555037,127.283729 C92.1546017,127.283729 86.8682063,121.996759 86.8682063,114.995095 L86.8682063,90.2749352 C86.8682063,78.2720831 80.1530554,71.2704194 76.1525399,69.2699441 L76.1525399,69.2699441 L76.1525399,69.2699441 Z" id="\{" stroke="#A7ADBA" fill="#4F5B66" sketch:type="MSShapeGroup"></path>
        <path d="M219.15254,69.2699441 C223.153055,67.2694687 229.868206,60.5535872 229.868206,48.5507351 L229.868206,22.1158823 C229.868206,15.9715651 235.154602,10.8274856 241.155375,10.8274856 L247.584775,10.8274856 L247.584775,0.968 L243.012757,0.968 C228.582326,0.968 219.724042,9.82724797 219.724042,24.2592487 L219.724042,43.97822 C219.724042,54.6950522 217.580909,62.5540625 208.436874,64.9832112 L208.436874,73.699568 C217.580909,76.1287167 219.724042,84.1306181 219.724042,94.8474503 L219.724042,113.709075 C219.724042,128.141076 228.582326,137.143215 243.012757,137.143215 L247.584775,137.143215 L247.584775,127.283729 L242.155504,127.283729 C235.154602,127.283729 229.868206,121.996759 229.868206,114.995095 L229.868206,90.2749352 C229.868206,78.2720831 223.153055,71.2704194 219.15254,69.2699441 L219.15254,69.2699441 L219.15254,69.2699441 Z" id="}" stroke="#A7ADBA" fill="#4F5B66" sketch:type="MSShapeGroup" transform="translate(228.010824, 69.055607) scale(-1, 1) translate(-228.010824, -69.055607) "></path>
    </g>
</svg>