<svg width="249" height="146" viewBox="0 0 249 146" xmlns="http://www.w3.org/2000/svg"><title>bibquery</title><g fill="none" fill-rule="evenodd" stroke="#A7ADBA"><path d="M215 18H98v25h29v-9h54l-37 17v25.6h26v-13l44.5-19L215 18zM143 100h27v18h-27z" fill="#BF616A"/><path d="M1 1l49.4 144.3h10.8L11.6 1H1zm75.2 68.3c4-2 10.7-8.7 10.7-20.7V22C87 16 92 11 98 11h6.4V1H100C85.6 1 76.7 9.8 76.7 24.3V44c0 10.7-2 18.6-11.3 21v8.7c9.2 2.4 11.3 10.4 11.3 21v19c0 14.4 9 23.4 23.3 23.4h4.6v-9.7h-5.4c-7 0-12.3-5.3-12.3-12.3V90.3c0-12-6.8-19-10.8-21zM237 69.3c-4-2-10.8-8.7-10.8-20.7V22c0-6-5.3-11.2-11.3-11.2h-6.6V1h4.6c14.4 0 23.3 8.8 23.3 23.3V44c0 10.7 2 18.6 11.3 21v8.7c-9.2 2.4-11.3 10.4-11.3 21v19c0 14.4-9 23.4-23.3 23.4h-4.6v-9.7h5.5c7 0 12.2-5.3 12.2-12.3V90.3c0-12 6.7-19 10.7-21z" fill="#4F5B66"/></g></svg>