<svg width="433" height="132" viewBox="0 0 433 132" xmlns="http://www.w3.org/2000/svg"><title>git-do</title><g fill="none" fill-rule="evenodd"><path d="M277 50h-31v32h31c7 27.6 32.2 48 62 48 29.8 0 55-20.4 62-48h31V50h-31c-7-27.6-32.2-48-62-48-29.8 0-55 20.4-62 48zm62 48c17.7 0 32-14.3 32-32s-14.3-32-32-32-32 14.3-32 32 14.3 32 32 32z" stroke="#343D46" fill="#DFE1E8"/><path d="M186 82h-30c-7 27.6-32.2 48-62 48-29.8 0-55-20.4-62-48H1V50h31C39 22.4 64.2 2 94 2c29.8 0 55 20.4 62 48h30V2l80 64-80 64V82zM94 98c17.7 0 32-14.3 32-32s-14.3-32-32-32-32 14.3-32 32 14.3 32 32 32z" stroke="#DFE1E8" fill="#343D46"/></g></svg>