<?xml version="1.0" encoding="UTF-8" standalone="no"?>
<svg width="282px" height="276px" viewBox="0 0 282 276" version="1.1" xmlns="http://www.w3.org/2000/svg" xmlns:xlink="http://www.w3.org/1999/xlink" xmlns:sketch="http://www.bohemiancoding.com/sketch/ns">
    <!-- Generator: Sketch 3.3.3 (12081) - http://www.bohemiancoding.com/sketch -->
    <title>reboot</title>
    <desc>Created with Sketch.</desc>
    <defs></defs>
    <g id="Page-1" stroke="none" stroke-width="1" fill="none" fill-rule="evenodd" sketch:type="MSPage">
        <path d="M33.5145733,59.0183816 C17.4549791,81.403683 8,108.847677 8,138.5 C8,213.886868 69.1131317,275 144.5,275 C219.886868,275 281,213.886868 281,138.5 C281,93.9964486 259.702311,54.4672388 226.743187,29.5486234 L226.743187,29.5486234 L211.817843,49.3552241 C239.246474,69.8713108 257,102.612376 257,139.5 C257,201.632034 206.632034,252 144.5,252 C82.3679656,252 32,201.632034 32,139.5 C32,114.720055 40.0116864,91.8113394 53.5860781,73.2228347 L56.1832704,102.908878 L80.0919431,100.81714 L72.7849387,29.181392 L1.56600616,39.7793807 L5.32043332,63.4839008 L33.5145683,59.0183885 L33.5145733,59.0183816 Z" id="Oval-1" stroke="#4F5B66" fill="#C0C5CE" sketch:type="MSShapeGroup"></path>
        <rect id="Rectangle-1" stroke="#4F5B66" fill="#C0C5CE" sketch:type="MSShapeGroup" x="128" y="1" width="27" height="119"></rect>
    </g>
</svg>