<?xml version="1.0" encoding="UTF-8" standalone="no"?>
<svg width="130px" height="130px" viewBox="0 0 130 130" version="1.1" xmlns="http://www.w3.org/2000/svg" xmlns:xlink="http://www.w3.org/1999/xlink" xmlns:sketch="http://www.bohemiancoding.com/sketch/ns">
    <!-- Generator: Sketch 3.3.3 (12081) - http://www.bohemiancoding.com/sketch -->
    <title>skimmer</title>
    <desc>Created with Sketch.</desc>
    <defs></defs>
    <g id="Page-1" stroke="none" stroke-width="1" fill="none" fill-rule="evenodd" sketch:type="MSPage">
        <circle id="circle" stroke="#4F5B66" stroke-width="2" fill="#BF616A" sketch:type="MSShapeGroup" cx="65" cy="65" r="64"></circle>
        <g id="papers" sketch:type="MSLayerGroup" transform="translate(30.000000, 24.000000)" stroke="#4F5B66" stroke-width="2" fill="#EFF1F5">
            <rect id="r3" sketch:type="MSShapeGroup" x="0" y="20" width="51" height="63"></rect>
            <rect id="r2" sketch:type="MSShapeGroup" x="10" y="10" width="51" height="63"></rect>
            <rect id="r1" sketch:type="MSShapeGroup" x="20" y="0" width="51" height="63"></rect>
        </g>
        <path d="M67,63 C64.2042409,63 61.8550904,65.5495456 61.1890262,69 L61,79 L93,79 L92.8109738,69 C92.1449096,65.5495456 89.7957591,63 87,63 C84.2042409,63 78.2631923,72 77,72 C75.7368077,72 69.7957591,63 67,63 L67,63 L67,63 Z M81,77 L73,77 L77,74 L81,77 L81,77 Z M70,77 L63,77 L63,71 C63,67.6862915 64.790861,65 67,65 C67.8880769,65 75,73 75,73 L70,77 L70,77 Z M84,77 L91,77 L91,71 C91,67.6862915 89.209139,65 87,65 C86.1119231,65 79,73 79,73 L84,77 L84,77 Z" id="pdf-icon" fill="#BF616A" sketch:type="MSShapeGroup"></path>
        <path d="M62,34 L91,34 L91,37 L62,37 L62,34 L62,34 Z M62,43 L91,43 L91,46 L62,46 L62,43 L62,43 Z M62,52 L91,52 L91,55 L62,55 L62,52 L62,52 Z" id="bars" fill="#4F5B66" sketch:type="MSShapeGroup"></path>
    </g>
</svg>