<svg width="90" height="90" viewBox="0 0 90 90" xmlns="http://www.w3.org/2000/svg"><title>spritzr</title><g fill="none" fill-rule="evenodd"><circle stroke="#4F5B66" fill="#EFF1F5" cx="45" cy="45" r="44"/><path d="M44 54.78h9.77c.77 0 1.33.16 1.7.48.36.33.54.84.54 1.55 0 .82-.16 1.37-.5 1.68-.35.3-.98.45-1.9.45H34.33c-.77 0-1.35-.17-1.74-.53-.4-.35-.6-.88-.6-1.6 0-.68.2-1.2.6-1.52.4-.34 1.03-.5 1.88-.5h5.12v-18.9h-2c-1.9 0-3.1-.14-3.57-.45-.47-.3-.7-.85-.7-1.66 0-.7.2-1.2.57-1.55.38-.34.97-.5 1.75-.5h6.72c.53 0 .93.1 1.2.3.28.2.42.5.42.9v5c1.86-2.33 3.8-4.07 5.83-5.2 2.02-1.15 4.2-1.72 6.54-1.72 1.75 0 3.16.35 4.24 1.06 1.1.7 1.63 1.62 1.63 2.74 0 .73-.27 1.37-.8 1.93-.55.56-1.14.84-1.8.84-.44 0-1.2-.3-2.28-.9-1.07-.6-2.02-.9-2.87-.9-1.53 0-3.15.55-4.85 1.64-1.7 1.1-3.58 2.82-5.64 5.18v12.2z" fill="#BF616A"/><path fill="#4F5B66" d="M43 72h4v17h-4zM43 1h4v17h-4z"/></g></svg>