<svg width="348" height="358" viewBox="0 0 348 358" xmlns="http://www.w3.org/2000/svg"><title>wikify</title><g fill="#4F5B66" fill-rule="evenodd" stroke="#A7ADBA" stroke-width="1.5"><path d="M78.27 91.17h27.27c1.56 0 2.82-1.27 2.82-2.82 0 0-.33-23.34-.33-29.82v-.08c0-5.33 1.12-9.97 3.07-13.86l.94-1.76c-.1.02-.2.07-.3.17L58.75 95.46c-.1.1-.16.2-.2.3l2.8-1.36c4.62-2.1 10.22-3.23 16.9-3.23zm212.1-5.7c-2.16-11.58-9.05-17.3-15.28-19.53-6.73-2.43-20.36-4.94-37.5-6.95-13.77-1.63-29.96-1.5-39.74-1.2-1.18-8.03-6.82-15.37-13.13-17.9-16.8-6.76-42.8-5.13-49.46-3.27-5.3 1.48-11.17 4.5-14.44 9.2-2.2 3.1-3.6 7.1-3.6 12.7 0 3.15.07 10.6.15 17.2l.17 12.62c0 5.9-4.8 10.72-10.74 10.72H79.56c-5.82 0-10.26.98-13.66 2.52-3.4 1.53-5.8 3.6-7.64 6.07-3.64 4.88-4.27 10.9-4.26 17.05 0 0 .05 5.02 1.27 14.74 1 7.52 9.17 60.07 16.93 76.05 3 6.23 5.02 8.82 10.93 11.56 13.17 5.63 43.25 11.9 57.35 13.7 14.07 1.78 22.9 5.56 28.17-5.46.02-.02 1.06-2.74 2.48-6.72 4.57-13.83 5.2-26.1 5.2-34.98 0-.9 1.33-.94 1.33 0 0 6.27-1.2 28.45 15.6 34.4 6.6 2.35 20.36 4.44 34.32 6.08 12.63 1.44 21.8 6.4 21.8 38.75 0 19.68-4.15 22.38-25.8 22.38-17.53 0-24.22.46-24.22-13.46 0-11.24 11.14-10.06 19.4-10.06 3.7 0 1-2.74 1-9.68 0-6.9 4.33-10.9.24-11-28.55-.78-45.35-.03-45.35 35.63 0 32.36 12.4 38.37 52.93 38.37 31.77 0 42.97-1.04 56.1-41.68 2.58-8.02 8.86-32.5 12.66-73.62 2.4-26-2.26-104.44-5.96-124.24zM235 172.16c-3.93-.13-7.7.1-11.23.68 1-8 4.3-17.8 16-17.38 12.95.44 14.76 12.66 14.8 20.94-5.45-2.42-12.2-3.97-19.58-4.23z"/><path d="M1 1h73v27.8H33.32v300.4H74V357H1V1zM347 1h-73v27.8h40.68v300.4H274V357h73V1z"/></g></svg>