<?xml version="1.0" standalone="no"?><!DOCTYPE svg PUBLIC "-//W3C//DTD SVG 1.1//EN" "http://www.w3.org/Graphics/SVG/1.1/DTD/svg11.dtd" ><svg xmlns="http://www.w3.org/2000/svg"><metadata></metadata><defs><font id="LaskoDzurovski,Totemt.f.: SkolaSansCn Bold Italic: 2009" horiz-adv-x="1120"><font-face font-family="SkolaSansCn" font-weight="700" font-stretch="normal" units-per-em="1000" panose-1="2 0 8 6 4 0 0 9 0 4" ascent="750" descent="-250" x-height="4" bbox="-117 -216 1056 984" underline-thickness="50" underline-position="-75" unicode-range="U+0000-fb02" /><missing-glyph horiz-adv-x="440" d="M39 0 L398 0 L504 748 L144 748 L39 0 ZM414 543 Q413 604 381 632 Q350 660 306 660 Q276 661 246 649 Q215 637 176 601 L209 539 Q231 559 247 566 Q262 573 279 573 Q298 573 309 560 Q320 547 320 517 Q318 471 286 437 Q255 402 218 380 L206 257 L269 257 L292 345 Q340 374 376 422 Q412 470 414 543 L414 543 ZM174 132 Q174 110 186 95 Q198 81 216 80 Q239 81 257 101 Q274 121 275 150 Q275 172 264 187 Q253 201 234 202 Q211 201 193 181 Q175 161 174 132 L174 132 ZM171 722 L470 722 L372 28 L73 28 L171 722 Z" /><glyph glyph-name="" unicode="" d="" /><glyph glyph-name="" unicode=" " d="" /><glyph glyph-name="" unicode="!" d="M213 228 L304 748 L192 748 L136 228 L213 228 ZM87 62 Q87 33 102 14 Q117 -5 141 -6 Q172 -5 196 22 Q220 48 221 87 Q221 116 206 135 Q190 154 166 155 Q134 154 111 127 Q88 101 87 62 L87 62 Z" /><glyph glyph-name="" unicode="&quot;" d="M176 748 L87 748 L48 479 L137 479 L176 748 ZM330 748 L240 748 L202 479 L290 479 L330 748 Z" /><glyph glyph-name="" unicode="#" d="M128 456 L194 456 L153 291 L79 291 L67 213 L132 213 L82 0 L150 0 L201 213 L281 213 L231 0 L299 0 L350 213 L424 213 L436 291 L370 291 L411 456 L485 456 L497 533 L431 533 L482 748 L414 748 L362 533 L283 533 L333 748 L265 748 L213 533 L139 533 L128 456 ZM263 456 L342 456 L301 291 L221 291 L263 456 Z" /><glyph glyph-name="" unicode="$" d="M193 -106 L283 -106 L298 3 Q386 21 437 84 Q487 146 488 246 Q474 381 373 426 Q272 472 258 546 Q258 584 280 610 Q301 636 339 637 Q373 637 406 619 Q438 600 469 564 L533 669 Q504 701 473 721 Q441 741 404 747 L418 854 L329 854 L314 746 Q225 730 179 669 Q133 607 133 520 Q147 387 241 339 Q336 291 349 218 Q349 170 325 141 Q302 112 260 111 Q226 111 193 130 Q161 148 129 184 L63 79 Q94 44 130 24 Q165 3 208 -2 L193 -106 Z" /><glyph glyph-name="" unicode="%" d="M682 748 L607 754 L148 0 L223 -6 L682 748 ZM107 537 Q108 469 141 424 Q174 380 229 378 Q298 381 350 442 Q401 504 404 594 Q403 662 370 707 Q337 752 283 754 Q212 752 161 690 Q109 628 107 537 L107 537 ZM429 154 Q430 85 463 40 Q496 -4 551 -6 Q621 -3 673 59 Q724 121 727 211 Q726 279 693 324 Q660 369 605 371 Q536 369 484 307 Q432 245 429 154 L429 154 ZM194 550 Q195 594 217 628 Q240 661 270 663 Q295 662 306 638 Q317 614 317 581 Q316 537 294 504 Q272 471 242 469 Q216 470 205 494 Q194 518 194 550 L194 550 ZM517 167 Q518 211 540 245 Q562 278 592 280 Q617 279 629 255 Q640 231 640 198 Q639 154 617 120 Q594 87 564 85 Q539 86 528 110 Q517 134 517 167 L517 167 Z" /><glyph glyph-name="" unicode="&amp;" d="M488 417 Q487 345 461 289 Q434 233 393 193 Q367 230 345 272 Q323 313 306 357 Q374 391 427 447 Q479 503 482 600 Q482 663 444 708 Q406 752 336 754 Q247 752 198 691 Q148 630 147 539 Q147 507 151 476 Q154 445 160 414 Q102 379 61 327 Q20 275 18 190 Q20 97 71 46 Q123 -5 202 -6 Q239 -6 280 7 Q321 20 362 45 Q395 9 428 -22 Q461 -52 493 -75 L562 34 Q541 50 519 70 Q497 91 475 115 Q531 169 566 246 Q601 322 602 417 L488 417 ZM202 110 Q171 110 153 131 Q134 152 133 190 Q134 230 152 258 Q170 286 198 308 Q215 262 235 219 Q255 175 278 137 Q258 124 239 117 Q219 110 202 110 L202 110 ZM262 532 Q262 576 279 606 Q296 637 330 638 Q348 638 360 625 Q372 611 372 588 Q371 545 342 515 Q312 486 267 461 Q265 478 263 496 Q262 514 262 532 L262 532 Z" /><glyph glyph-name="" unicode="&#39;" d="M176 748 L87 748 L48 479 L137 479 L176 748 Z" /><glyph glyph-name="" unicode="(" d="M247 806 Q189 713 132 560 Q74 406 70 178 Q71 69 84 -13 Q97 -94 113 -145 L187 -106 Q176 -63 167 8 Q159 79 158 172 Q162 385 210 532 Q258 679 309 768 L247 806 Z" /><glyph glyph-name="" unicode=")" d="M122 768 Q133 725 142 652 Q151 579 151 486 Q148 268 100 124 Q51 -19 0 -106 L62 -145 Q121 -54 178 96 Q235 246 239 478 Q238 588 225 672 Q212 755 196 806 L122 768 Z" /><glyph glyph-name="" unicode="*" d="M296 552 L409 583 L402 665 L291 610 L296 552 ZM228 609 L137 663 L100 581 L204 551 L228 609 ZM246 508 L282 387 L346 438 L290 544 L246 508 ZM205 542 L114 438 L161 386 L238 505 L205 542 ZM285 613 L319 754 L251 754 L237 613 L285 613 Z" /><glyph glyph-name="" unicode="+" d="M89 287 L250 287 L221 70 L309 70 L339 287 L501 287 L517 389 L356 389 L386 606 L297 606 L267 389 L106 389 L89 287 Z" /><glyph glyph-name="" unicode="," d="M61 66 Q61 38 74 17 Q86 -4 108 -5 L40 -139 L91 -160 Q132 -107 166 -34 Q199 39 201 91 Q201 122 185 143 Q169 163 143 164 Q110 163 86 134 Q62 106 61 66 L61 66 Z" /><glyph glyph-name="" unicode="-" d="M271 241 L288 343 L85 343 L68 241 L271 241 Z" /><glyph glyph-name="" unicode="." d="M60 65 Q60 34 76 15 Q92 -5 117 -6 Q150 -5 175 23 Q200 50 201 91 Q201 122 185 143 Q170 163 144 164 Q111 163 86 134 Q61 106 60 65 L60 65 Z" /><glyph glyph-name="" unicode="/" d="M385 806 L-21 -204 L71 -204 L475 806 L385 806 Z" /><glyph glyph-name="" unicode="0" d="M321 754 Q188 749 119 610 Q49 470 48 254 Q49 128 100 61 Q151 -5 236 -6 Q369 -1 439 138 Q509 278 510 494 Q509 620 458 687 Q406 753 321 754 L321 754 ZM241 110 Q208 110 192 148 Q175 186 175 264 Q179 472 225 557 Q271 641 317 638 Q349 638 366 600 Q383 562 383 484 Q379 276 333 191 Q287 107 241 110 L241 110 Z" /><glyph glyph-name="" unicode="1" d="M34 112 L16 0 L401 0 L418 112 L301 112 L387 748 L297 748 L76 613 L98 529 L225 592 L166 112 L34 112 Z" /><glyph glyph-name="" unicode="2" d="M204 116 L202 120 Q252 195 361 287 Q470 378 483 552 Q483 640 435 696 Q387 752 297 754 Q244 757 191 731 Q138 705 84 620 L166 545 Q185 586 213 611 Q241 637 273 638 Q310 638 327 612 Q344 586 344 536 Q335 419 230 331 Q125 243 30 72 L55 0 L430 0 L449 116 L204 116 Z" /><glyph glyph-name="" unicode="3" d="M205 367 L248 367 Q297 365 316 329 Q334 294 333 253 Q333 188 306 151 Q279 113 230 112 Q195 112 161 130 Q128 148 97 178 L30 71 Q77 31 124 12 Q170 -6 217 -6 Q332 -5 398 67 Q464 139 465 264 Q466 326 435 380 Q404 434 335 451 L335 455 L498 660 L488 748 L143 748 L125 636 L336 636 L338 632 L185 437 L205 367 Z" /><glyph glyph-name="" unicode="4" d="M216 754 Q201 659 158 514 Q114 369 16 205 L32 147 L283 147 L262 0 L392 0 L412 147 L468 147 L485 251 L430 251 L466 525 L344 519 L301 251 L180 251 L179 255 Q243 392 283 523 Q324 654 339 739 L216 754 Z" /><glyph glyph-name="" unicode="5" d="M107 369 L216 369 Q267 369 291 337 Q314 305 314 243 Q314 186 286 149 Q258 111 209 110 Q175 110 143 128 Q112 146 83 176 L16 71 Q62 31 106 12 Q150 -6 196 -6 Q311 -3 379 74 Q446 151 447 272 Q445 377 395 431 Q344 485 263 485 L222 485 L240 632 L435 632 L454 748 L143 748 L90 390 L107 369 Z" /><glyph glyph-name="" unicode="6" d="M318 638 Q356 638 382 625 Q408 611 436 582 L491 679 Q446 720 405 738 Q364 755 322 754 Q189 749 119 610 Q49 470 48 254 Q49 128 101 61 Q152 -5 238 -6 Q351 -3 411 71 Q471 145 472 261 Q469 362 418 415 Q367 469 302 469 Q280 469 251 458 Q222 447 193 424 L188 424 Q208 535 245 587 Q282 639 318 638 L318 638 ZM262 360 Q303 359 326 327 Q349 294 349 245 Q348 191 323 152 Q298 112 258 110 Q217 110 195 143 Q173 175 173 238 Q173 258 174 274 Q175 289 178 315 Q196 338 219 349 Q241 360 262 360 L262 360 Z" /><glyph glyph-name="" unicode="7" d="M457 748 L82 748 L62 636 L325 636 Q274 497 199 329 Q125 161 34 0 L172 -6 Q264 153 349 353 Q433 553 465 672 L457 748 Z" /><glyph glyph-name="" unicode="8" d="M316 755 Q236 755 174 707 Q112 659 109 569 Q109 513 127 475 Q145 436 175 408 Q124 378 86 329 Q48 281 46 208 Q51 80 115 35 Q179 -9 241 -6 Q303 -9 389 42 Q475 92 483 236 Q482 296 453 338 Q424 379 384 407 Q428 438 458 479 Q488 521 489 583 Q484 690 425 724 Q366 758 316 755 L316 755 ZM357 234 Q353 159 315 134 Q276 108 248 110 Q224 108 197 128 Q170 148 168 208 Q170 258 201 290 Q232 323 274 346 Q303 330 329 304 Q355 279 357 234 L357 234 ZM316 652 Q331 653 349 639 Q366 625 368 583 Q367 536 344 510 Q321 483 286 464 Q262 483 247 506 Q232 530 232 569 Q233 609 258 630 Q283 652 316 652 L316 652 Z" /><glyph glyph-name="" unicode="9" d="M221 110 Q183 110 157 123 Q130 137 103 166 L48 69 Q92 28 133 11 Q175 -7 217 -6 Q350 -1 420 138 Q490 278 491 494 Q490 620 438 687 Q386 753 301 754 Q188 751 128 677 Q68 603 67 487 Q70 386 121 333 Q171 279 237 279 Q259 279 287 290 Q316 301 346 324 L351 324 Q331 213 294 161 Q257 109 221 110 L221 110 ZM277 388 Q236 389 213 422 Q190 454 190 503 Q191 557 216 596 Q241 636 281 638 Q322 638 344 606 Q365 573 365 510 Q365 490 365 474 Q364 459 361 433 Q342 410 320 399 Q297 388 277 388 L277 388 Z" /><glyph glyph-name="" unicode=":" d="M56 66 Q57 35 74 15 Q91 -5 118 -6 Q153 -5 178 23 Q204 50 205 90 Q205 122 188 142 Q171 163 144 164 Q109 163 83 135 Q57 106 56 66 L56 66 ZM106 428 Q106 397 123 377 Q139 357 166 356 Q201 357 226 385 Q252 412 253 452 Q253 483 236 504 Q220 524 193 525 Q157 524 132 496 Q107 468 106 428 L106 428 Z" /><glyph glyph-name="" unicode=";" d="M107 428 Q107 397 124 377 Q140 357 168 356 Q203 357 228 385 Q254 412 255 452 Q255 483 238 504 Q221 524 194 525 Q159 524 134 496 Q108 468 107 428 L107 428 ZM59 66 Q59 38 73 17 Q86 -4 110 -5 L40 -139 L93 -160 Q136 -107 170 -35 Q204 38 206 90 Q206 122 189 142 Q173 163 146 164 Q110 163 85 135 Q60 106 59 66 L59 66 Z" /><glyph glyph-name="" unicode="&lt;" d="M437 186 L192 334 L193 338 L475 486 L492 596 L63 387 L47 285 L419 76 L437 186 Z" /><glyph glyph-name="" unicode="=" d="M94 382 L525 382 L541 485 L110 485 L94 382 ZM66 191 L496 191 L513 293 L82 293 L66 191 Z" /><glyph glyph-name="" unicode="&gt;" d="M68 76 L497 285 L513 387 L141 596 L124 486 L369 338 L368 334 L86 186 L68 76 Z" /><glyph glyph-name="" unicode="?" d="M141 228 L220 228 L249 332 Q315 369 366 434 Q417 500 420 599 Q418 680 374 717 Q330 754 269 754 Q226 755 183 733 Q140 711 97 654 L165 582 Q184 610 203 624 Q221 639 242 639 Q257 640 272 623 Q288 605 289 564 Q286 500 242 452 Q197 405 147 376 L141 228 ZM90 63 Q90 33 106 14 Q121 -5 148 -6 Q181 -5 205 21 Q229 47 230 86 Q230 116 214 135 Q198 154 172 155 Q139 154 115 128 Q91 102 90 63 L90 63 Z" /><glyph glyph-name="" unicode="@" d="M476 504 Q380 502 318 425 Q255 347 253 213 Q254 119 293 67 Q331 15 396 14 Q439 16 472 47 Q505 79 530 122 L535 122 Q544 78 570 47 Q596 15 631 14 Q705 13 765 96 Q825 179 829 354 Q826 540 741 621 Q655 702 522 700 Q346 701 222 576 Q99 451 93 185 Q95 3 175 -88 Q256 -179 398 -179 Q442 -179 487 -168 Q532 -158 567 -143 L559 -51 Q528 -66 489 -75 Q450 -85 413 -85 Q296 -87 239 -23 Q182 41 182 197 Q186 404 281 505 Q375 606 508 606 Q622 607 681 544 Q739 480 739 334 Q737 220 711 165 Q685 109 654 109 Q639 109 623 128 Q608 147 607 186 Q607 192 607 201 Q608 210 609 217 L643 453 L570 453 Q551 478 529 491 Q506 504 476 504 L476 504 ZM413 116 Q390 116 377 145 Q363 174 363 226 Q365 318 396 361 Q427 404 459 403 Q477 403 493 392 Q509 380 519 357 L507 268 Q497 198 469 158 Q441 117 413 116 L413 116 Z" /><glyph glyph-name="" unicode="a" d="M396 632 L460 632 L418 307 L261 307 L396 632 ZM191 748 L170 665 L278 644 L-21 0 L117 -6 L203 194 L399 194 L373 0 L501 0 L607 748 L191 748 Z" /><glyph glyph-name="" unicode="b" d="M229 445 L252 636 L358 636 Q386 636 403 613 Q420 591 420 552 Q418 503 395 475 Q371 446 344 445 L229 445 ZM325 331 Q357 330 377 302 Q397 274 398 233 Q400 195 378 155 Q356 115 292 112 L184 112 L211 331 L325 331 ZM549 586 Q549 656 508 701 Q467 746 391 748 L141 748 L36 0 L293 0 Q403 2 464 69 Q525 135 526 236 Q525 291 501 332 Q476 373 436 388 L437 392 Q495 424 522 477 Q549 530 549 586 L549 586 Z" /><glyph glyph-name="" unicode="c" d="M297 110 Q227 111 197 166 Q166 220 167 317 Q167 442 218 538 Q268 633 362 638 Q386 638 407 630 Q427 622 446 609 L440 488 L527 488 L572 679 Q531 714 485 734 Q439 754 381 754 Q212 748 125 617 Q37 487 36 303 Q35 170 95 84 Q154 -3 283 -6 Q340 -7 401 26 Q462 59 511 143 L426 214 Q405 170 372 141 Q340 111 297 110 L297 110 Z" /><glyph glyph-name="" unicode="d" d="M239 0 Q400 6 487 134 Q573 263 574 447 Q574 578 518 662 Q461 745 346 748 L142 748 L36 0 L239 0 ZM184 116 L252 632 L321 632 Q386 631 415 577 Q444 523 444 432 Q443 295 392 207 Q340 119 245 116 L184 116 Z" /><glyph glyph-name="" unicode="e" d="M141 748 L36 0 L454 0 L473 116 L181 116 L211 332 L464 332 L482 445 L229 445 L254 632 L538 632 L557 748 L141 748 Z" /><glyph glyph-name="" unicode="f" d="M515 632 L535 748 L141 748 L36 0 L165 0 L207 310 L439 310 L457 422 L225 422 L252 632 L515 632 Z" /><glyph glyph-name="" unicode="g" d="M588 413 L364 413 L345 299 L448 299 L429 156 Q402 134 377 122 Q352 110 324 110 Q256 111 225 166 Q194 220 195 317 Q196 442 246 538 Q297 633 392 638 Q433 638 467 623 Q500 607 532 576 L602 679 Q561 714 515 734 Q469 754 411 754 Q242 748 153 617 Q65 487 64 303 Q63 170 123 84 Q182 -3 311 -6 Q360 -6 405 10 Q450 25 495 56 L536 56 L588 413 Z" /><glyph glyph-name="" unicode="h" d="M165 0 L211 331 L448 331 L403 0 L532 0 L637 748 L508 748 L467 445 L229 445 L270 748 L141 748 L36 0 L165 0 Z" /><glyph glyph-name="" unicode="i" d="M165 0 L270 748 L141 748 L36 0 L165 0 Z" /><glyph glyph-name="" unicode="j" d="M16 179 Q35 72 86 32 Q138 -8 198 -6 Q281 -5 336 67 Q391 139 410 269 L476 748 L347 748 L277 250 Q268 184 247 147 Q226 111 190 110 Q164 109 147 131 Q130 153 126 204 L16 179 Z" /><glyph glyph-name="" unicode="k" d="M596 748 L450 754 L275 439 L227 439 L270 748 L141 748 L36 0 L164 0 L210 331 L268 331 Q317 241 351 120 Q385 -1 478 -13 Q500 -13 516 -9 Q532 -6 541 -1 L524 105 Q467 112 446 207 Q424 301 375 394 L596 748 Z" /><glyph glyph-name="" unicode="l" d="M181 116 L270 748 L141 748 L36 0 L413 0 L432 116 L181 116 Z" /><glyph glyph-name="" unicode="m" d="M369 168 L544 456 L547 455 L480 -1 L609 -1 L715 748 L619 748 L369 330 L236 748 L141 748 L36 -1 L165 -1 L224 456 L227 458 L315 168 L369 168 Z" /><glyph glyph-name="" unicode="n" d="M445 0 L532 0 L637 748 L508 748 L445 260 L441 259 L225 748 L141 748 L36 0 L165 0 L227 481 L231 483 L445 0 Z" /><glyph glyph-name="" unicode="o" d="M376 754 Q216 749 127 620 Q37 490 36 300 Q36 165 94 81 Q153 -3 269 -6 Q429 -1 518 128 Q608 258 609 448 Q609 583 551 667 Q492 751 376 754 L376 754 ZM360 638 Q422 636 450 577 Q478 517 477 426 Q476 305 424 210 Q373 115 284 110 Q222 112 195 171 Q167 231 168 322 Q169 443 220 538 Q271 633 360 638 L360 638 Z" /><glyph glyph-name="" unicode="p" d="M141 748 L36 0 L165 0 L198 238 L300 238 Q402 241 477 325 Q552 408 556 531 Q555 626 504 686 Q454 746 372 748 L141 748 ZM342 636 Q380 635 402 601 Q425 567 425 515 Q423 444 388 397 Q352 351 304 349 L215 349 L254 636 L342 636 Z" /><glyph glyph-name="" unicode="q" d="M615 448 Q615 583 557 667 Q499 751 382 754 Q222 749 133 620 Q44 490 43 300 Q43 186 88 106 Q132 25 222 -2 Q286 -48 360 -124 Q434 -199 530 -207 Q577 -206 617 -179 Q657 -153 682 -118 L610 -43 Q591 -66 568 -79 Q545 -92 524 -92 Q486 -89 450 -55 Q415 -21 382 14 Q485 54 549 167 Q613 279 615 448 L615 448 ZM290 94 Q223 120 198 176 Q173 231 174 321 Q175 443 226 538 Q278 633 367 638 Q429 635 457 575 Q485 514 484 425 Q484 291 434 206 Q384 122 290 94 L290 94 Z" /><glyph glyph-name="" unicode="r" d="M557 557 Q556 648 512 698 Q467 747 397 748 L141 748 L36 0 L165 0 L206 291 L273 291 Q311 195 348 95 Q384 -5 470 -13 Q493 -13 508 -9 Q524 -6 533 -1 L517 105 Q471 108 449 169 Q427 230 402 307 Q466 333 510 396 Q555 460 557 557 L557 557 ZM369 636 Q394 635 410 608 Q426 581 427 536 Q427 485 400 446 Q372 406 324 404 L224 404 L252 636 L369 636 Z" /><glyph glyph-name="" unicode="s" d="M24 124 Q77 50 126 21 Q176 -7 231 -6 Q333 -5 391 55 Q449 114 450 224 Q435 367 331 416 Q226 465 211 545 Q212 593 238 616 Q264 638 303 638 Q320 638 338 632 Q356 627 375 616 L370 524 L456 524 L495 685 Q461 716 416 735 Q371 754 313 754 Q202 753 144 693 Q86 633 86 532 Q100 392 202 345 Q303 298 317 208 Q316 161 294 136 Q271 110 238 110 Q196 111 165 139 Q134 167 108 211 L24 124 Z" /><glyph glyph-name="" unicode="t" d="M532 748 L83 748 L64 632 L225 632 L138 0 L267 0 L353 632 L514 632 L532 748 Z" /><glyph glyph-name="" unicode="u" d="M476 748 L417 322 Q405 230 368 171 Q331 112 274 110 Q228 111 205 148 Q182 184 182 246 Q182 263 184 283 Q186 302 188 322 L248 748 L119 748 L59 322 Q56 300 54 280 Q52 259 52 240 Q52 128 103 62 Q154 -4 257 -6 Q377 -3 451 86 Q524 176 545 322 L606 748 L476 748 Z" /><glyph glyph-name="" unicode="v" d="M273 158 L199 754 L66 745 L187 0 L312 0 Q384 133 456 317 Q529 500 598 745 L469 754 Q425 581 375 426 Q326 271 277 158 L273 158 Z" /><glyph glyph-name="" unicode="w" d="M584 158 L510 754 L376 745 L409 534 Q377 424 343 329 Q309 233 277 158 L273 158 L199 754 L66 745 L187 0 L309 0 Q343 70 378 150 Q412 229 446 320 L450 320 L498 0 L621 0 Q692 133 766 317 Q839 500 909 745 L780 754 Q737 581 687 426 Q637 271 588 158 L584 158 Z" /><glyph glyph-name="" unicode="x" d="M455 754 Q422 682 389 615 Q355 548 323 492 L250 754 L105 748 L233 394 Q157 293 89 194 Q22 95 -28 0 L120 -6 Q151 54 191 127 Q231 200 287 283 L371 -6 L517 0 L378 378 Q447 472 499 562 Q550 651 596 748 L455 754 Z" /><glyph glyph-name="" unicode="y" d="M67 748 L193 283 L154 0 L283 0 L323 285 Q394 393 449 496 Q504 599 573 748 L430 754 Q390 645 352 558 Q314 472 280 405 L276 405 L212 754 L67 748 Z" /><glyph glyph-name="" unicode="z" d="M-6 61 L39 -13 Q62 6 80 13 Q98 19 119 19 Q154 17 204 -1 Q254 -18 310 -21 Q347 -21 389 -10 Q431 2 462 24 L430 131 Q400 112 376 105 Q351 99 334 99 Q301 101 262 113 Q224 124 187 126 L186 130 L529 683 L519 748 L108 748 L89 636 L349 636 L-6 61 Z" /><glyph glyph-name="" unicode="[" d="M229 -50 L129 -50 L232 711 L329 711 L344 806 L159 806 L25 -145 L213 -145 L229 -50 Z" /><glyph glyph-name="" unicode="\" d="M122 806 L242 -204 L333 -204 L212 806 L122 806 Z" /><glyph glyph-name="" unicode="]" d="M-29 -145 L159 -145 L293 806 L107 806 L92 711 L189 711 L86 -50 L-14 -50 L-29 -145 Z" /><glyph glyph-name="" unicode="^" d="M48 296 L146 296 L315 643 L388 296 L487 296 L382 748 L281 748 L48 296 Z" /><glyph glyph-name="" unicode="_" d="M370 -126 L378 -66 L0 -66 L-9 -126 L370 -126 Z" /><glyph glyph-name="" unicode="`" d="M251 743 L122 743 L194 585 L293 585 L251 743 Z" /><glyph glyph-name="" unicode="a" d="M410 -6 Q423 -6 438 -2 Q454 1 466 7 L482 105 Q454 105 442 114 Q431 124 431 150 Q431 160 432 172 Q433 184 434 196 L473 485 L365 485 Q345 505 319 515 Q292 525 265 525 Q163 523 101 437 Q38 351 36 204 Q37 105 75 50 Q114 -5 177 -6 Q214 -5 250 15 Q285 35 311 69 L315 69 Q325 31 349 12 Q372 -6 410 -6 L410 -6 ZM159 227 Q160 312 189 360 Q218 408 258 409 Q284 409 301 401 Q319 392 335 373 L312 185 Q295 153 271 132 Q248 111 221 110 Q194 110 177 140 Q160 169 159 227 L159 227 Z" /><glyph glyph-name="" unicode="b" d="M265 795 L145 791 L38 37 L129 37 Q150 17 179 6 Q208 -6 246 -6 Q347 -4 413 81 Q480 165 482 314 Q481 414 440 469 Q398 524 322 525 Q295 525 272 512 Q249 499 227 476 L223 476 L265 795 ZM360 291 Q359 206 328 159 Q297 111 254 110 Q230 110 212 121 Q193 131 178 151 L204 358 Q224 382 244 395 Q264 409 290 409 Q321 409 340 378 Q359 347 360 291 L360 291 Z" /><glyph glyph-name="" unicode="c" d="M281 525 Q172 523 105 444 Q38 365 36 226 Q37 115 86 55 Q136 -5 222 -6 Q259 -7 301 10 Q344 26 389 66 L340 156 Q307 128 279 118 Q251 109 234 110 Q201 110 180 141 Q159 172 158 233 Q159 314 191 361 Q223 408 269 409 Q283 409 294 406 Q306 402 316 397 L313 309 L393 309 L420 474 Q392 498 360 512 Q327 525 281 525 L281 525 Z" /><glyph glyph-name="" unicode="d" d="M517 795 L396 791 L354 492 Q335 509 312 517 Q289 525 265 525 Q163 523 101 437 Q38 351 36 204 Q37 105 75 50 Q114 -5 177 -6 Q213 -5 249 15 Q285 35 311 69 L315 69 Q325 31 349 12 Q372 -6 409 -6 Q422 -6 438 -2 Q454 1 466 7 L482 105 Q455 105 443 114 Q431 124 431 150 Q431 160 432 172 Q433 184 434 196 L517 795 ZM159 227 Q160 312 189 360 Q218 408 258 409 Q284 409 301 400 Q319 391 335 372 L312 184 Q295 152 271 131 Q248 111 221 110 Q194 110 177 140 Q160 169 159 227 L159 227 Z" /><glyph glyph-name="" unicode="e" d="M438 381 Q438 443 399 485 Q360 526 279 528 Q173 525 105 440 Q37 355 35 220 Q36 112 85 53 Q133 -5 219 -6 Q283 -6 323 7 Q362 20 397 45 L362 149 Q334 132 303 121 Q273 110 231 110 Q204 108 184 128 Q163 147 162 205 Q248 203 339 237 Q431 271 438 381 L438 381 ZM267 421 Q290 420 301 405 Q313 390 313 367 Q311 323 268 304 Q224 285 166 284 Q175 350 203 386 Q232 421 267 421 L267 421 Z" /><glyph glyph-name="" unicode="f" d="M235 422 L337 422 L352 519 L251 519 L259 589 Q267 645 288 664 Q309 682 330 681 Q345 681 367 675 Q389 670 413 659 L455 755 Q416 776 383 786 Q349 795 316 795 Q265 797 210 753 Q155 709 139 598 L130 519 L54 519 L41 447 L114 428 L59 -3 Q50 -66 20 -86 Q-9 -105 -44 -103 L-39 -203 Q-29 -209 -18 -211 Q-7 -214 3 -214 Q53 -216 106 -171 Q159 -126 178 -11 L235 422 Z" /><glyph glyph-name="" unicode="g" d="M159 227 Q160 312 189 360 Q218 408 258 409 Q283 409 301 400 Q318 390 333 372 L310 184 Q293 152 270 131 Q247 111 220 110 Q193 110 176 140 Q159 170 159 227 L159 227 ZM286 20 Q279 -54 246 -77 Q213 -100 181 -98 Q152 -98 125 -89 Q98 -81 72 -64 L40 -168 Q70 -189 104 -201 Q138 -214 179 -214 Q269 -215 330 -154 Q391 -94 410 40 L471 485 L363 485 Q343 505 317 515 Q292 525 265 525 Q163 523 101 437 Q38 351 36 204 Q37 105 75 50 Q114 -5 177 -6 Q205 -6 233 9 Q260 24 284 49 L288 49 L286 20 Z" /><glyph glyph-name="" unicode="h" d="M356 525 Q322 525 289 507 Q256 490 225 453 L221 453 L269 795 L149 791 L36 0 L157 0 L203 334 Q222 372 247 391 Q272 411 297 411 Q319 412 335 394 Q351 376 352 330 Q352 314 349 293 L308 0 L428 0 L469 286 Q475 331 475 366 Q473 459 437 493 Q402 527 356 525 L356 525 Z" /><glyph glyph-name="" unicode="i" d="M114 670 Q115 639 132 620 Q150 600 176 599 Q214 600 238 627 Q263 655 264 694 Q263 725 246 745 Q228 765 202 766 Q164 765 140 737 Q115 709 114 670 L114 670 ZM229 519 L110 519 L65 193 Q61 166 60 147 Q58 128 58 117 Q59 46 89 20 Q118 -7 161 -6 Q174 -6 190 -2 Q205 1 218 7 L234 105 Q207 105 195 114 Q183 124 183 150 Q183 160 184 172 Q185 184 187 196 L229 519 Z" /><glyph glyph-name="" unicode="j" d="M64 -3 Q54 -66 23 -85 Q-8 -105 -45 -103 L-41 -203 Q-29 -209 -16 -211 Q-3 -214 9 -214 Q59 -216 111 -171 Q164 -126 183 -11 L257 519 L136 519 L64 -3 ZM141 670 Q142 639 159 620 Q176 600 202 599 Q240 600 265 627 Q289 655 290 694 Q289 725 272 745 Q255 765 228 766 Q190 765 166 737 Q142 709 141 670 L141 670 Z" /><glyph glyph-name="" unicode="k" d="M269 795 L149 791 L36 0 L157 0 L199 314 Q223 359 253 384 Q282 409 311 409 Q331 409 340 396 Q350 384 350 365 Q346 318 302 291 Q257 265 218 264 L217 261 Q250 152 290 74 Q330 -4 388 -8 Q399 -8 415 -6 Q430 -3 449 6 L465 99 Q418 97 395 120 Q373 142 352 218 Q419 240 445 292 Q471 345 470 398 Q470 451 441 487 Q413 523 355 525 Q322 525 287 502 Q252 479 223 435 L219 435 L269 795 Z" /><glyph glyph-name="" unicode="l" d="M262 795 L141 791 L58 193 Q55 174 54 157 Q52 140 52 124 Q52 56 78 25 Q104 -6 154 -6 Q167 -6 183 -2 Q199 1 211 7 L226 105 Q199 105 188 114 Q176 124 176 150 Q176 159 177 170 Q178 181 180 196 L262 795 Z" /><glyph glyph-name="" unicode="m" d="M235 519 L121 519 L50 0 L171 0 L217 335 Q234 372 255 391 Q276 411 296 411 Q314 412 329 397 Q343 382 344 343 Q344 336 343 325 Q343 314 341 306 L299 0 L420 0 L466 334 Q483 372 504 391 Q526 411 545 411 Q566 412 580 397 Q594 382 595 342 Q595 326 592 302 Q588 279 585 255 L549 0 L670 0 L710 286 Q716 331 716 366 Q714 459 677 493 Q639 527 586 525 Q556 525 519 506 Q483 487 451 446 Q436 491 412 508 Q387 526 351 525 Q322 525 290 507 Q257 489 230 453 L226 453 L235 519 Z" /><glyph glyph-name="" unicode="n" d="M235 519 L121 519 L50 0 L171 0 L217 338 Q235 371 259 391 Q282 411 308 411 Q329 412 341 397 Q354 382 354 342 Q354 331 351 304 L309 0 L430 0 L470 286 Q476 331 476 366 Q474 459 439 493 Q404 527 356 525 Q328 525 294 506 Q260 488 229 453 L225 453 L235 519 Z" /><glyph glyph-name="" unicode="o" d="M287 525 Q177 524 108 441 Q38 359 36 211 Q37 114 83 55 Q130 -4 211 -6 Q319 -4 389 80 Q459 164 461 311 Q460 408 414 466 Q368 524 287 525 L287 525 ZM268 417 Q302 416 320 383 Q339 350 339 292 Q338 207 307 155 Q276 103 229 102 Q196 102 177 135 Q158 167 158 225 Q159 311 191 363 Q222 416 268 417 L268 417 Z" /><glyph glyph-name="" unicode="p" d="M121 519 L18 -214 L140 -208 L174 41 L177 42 Q195 19 215 6 Q235 -6 255 -6 Q359 -4 424 81 Q489 167 491 315 Q490 414 450 469 Q410 524 346 525 Q319 525 290 506 Q260 488 230 453 L226 453 L235 519 L121 519 ZM298 409 Q329 409 348 378 Q367 347 368 292 Q367 207 336 159 Q305 111 262 110 Q243 110 225 123 Q207 137 193 160 L215 337 Q231 370 253 390 Q274 409 298 409 L298 409 Z" /><glyph glyph-name="" unicode="q" d="M290 49 L254 -214 L376 -208 L473 485 L365 485 Q345 505 319 515 Q292 525 265 525 Q163 523 101 437 Q38 351 36 204 Q37 105 75 50 Q114 -5 177 -6 Q205 -6 234 9 Q262 23 287 50 L290 49 ZM159 227 Q160 312 189 360 Q218 408 258 409 Q284 409 301 400 Q319 391 335 372 L312 185 Q295 153 271 132 Q248 111 221 110 Q194 110 177 140 Q160 169 159 227 L159 227 Z" /><glyph glyph-name="" unicode="r" d="M234 519 L121 519 L47 0 L168 0 L213 329 Q233 366 258 384 Q282 403 308 403 Q320 403 333 400 Q346 397 356 390 L402 512 Q390 519 375 522 Q360 525 345 525 Q291 525 230 453 L226 453 L234 519 Z" /><glyph glyph-name="" unicode="s" d="M234 146 Q234 120 222 107 Q209 94 186 94 Q164 94 135 108 Q105 122 72 157 L15 69 Q62 22 105 6 Q147 -10 183 -9 Q264 -10 312 31 Q360 71 361 159 Q350 267 272 300 Q194 333 183 376 Q184 405 202 417 Q221 428 244 428 Q253 428 264 425 Q275 422 288 415 L286 359 L366 359 L387 486 Q350 507 312 518 Q274 528 238 528 Q142 526 101 479 Q60 432 61 363 Q72 256 148 222 Q223 189 234 146 L234 146 Z" /><glyph glyph-name="" unicode="t" d="M114 428 L84 198 Q79 165 79 141 Q82 56 119 24 Q156 -8 196 -6 Q222 -7 253 2 Q283 11 318 35 L308 131 Q290 119 276 115 Q262 110 248 110 Q233 109 218 120 Q204 131 203 172 Q203 184 206 207 L233 422 L335 422 L351 519 L249 519 L268 644 L189 644 L136 519 L63 519 L50 447 L114 428 Z" /><glyph glyph-name="" unicode="u" d="M217 519 L95 519 L56 233 Q53 211 52 191 Q50 172 50 155 Q53 60 94 26 Q135 -8 181 -6 Q218 -5 254 15 Q289 35 315 69 L319 69 Q329 31 353 12 Q376 -6 414 -6 Q427 -6 442 -2 Q458 1 470 7 L486 105 Q459 105 447 114 Q435 124 435 150 Q435 160 436 172 Q437 184 439 196 L483 519 L362 519 L315 184 Q299 154 276 132 Q252 111 225 110 Q207 108 191 123 Q175 138 174 190 Q174 198 174 207 Q175 216 177 226 L217 519 Z" /><glyph glyph-name="" unicode="v" d="M167 525 L36 519 L115 0 L218 0 Q264 60 345 184 Q426 309 435 412 Q434 474 411 501 Q387 529 349 528 Q336 528 321 524 Q306 520 294 515 L278 416 Q293 417 302 410 Q312 402 312 379 Q308 337 271 262 Q233 186 205 135 L167 525 Z" /><glyph glyph-name="" unicode="w" d="M415 525 L285 519 L310 349 Q295 298 262 237 Q230 176 207 139 L204 140 L167 525 L36 519 L115 0 L218 0 Q237 28 269 77 Q302 125 335 181 L338 180 L363 0 L466 0 Q512 60 594 184 Q675 309 684 412 Q683 474 659 501 Q636 529 598 528 Q585 528 570 524 Q554 520 542 515 L526 416 Q541 417 551 410 Q561 402 561 379 Q557 337 520 262 Q482 187 456 139 L452 140 L415 525 Z" /><glyph glyph-name="" unicode="x" d="M293 -6 L435 0 L328 263 Q368 309 409 373 Q449 437 475 519 L342 525 Q332 475 312 430 Q292 385 270 353 L211 525 L69 519 L173 276 Q125 219 83 151 Q41 83 9 0 L142 -6 Q160 49 184 96 Q208 143 235 182 L293 -6 Z" /><glyph glyph-name="" unicode="y" d="M436 412 Q435 474 411 501 Q387 529 349 528 Q337 528 322 524 Q306 520 294 515 L278 416 Q293 417 302 410 Q312 402 312 379 Q310 336 287 254 Q264 172 238 120 L166 525 L36 519 L144 0 Q110 -55 74 -82 Q38 -109 -9 -109 L-3 -200 Q9 -207 21 -211 Q33 -214 44 -214 Q164 -195 295 18 Q425 230 436 412 L436 412 Z" /><glyph glyph-name="" unicode="z" d="M72 412 L259 412 L260 408 L12 71 L59 -13 Q80 5 97 12 Q114 19 134 19 Q160 17 204 0 Q247 -18 297 -20 Q362 -20 411 24 L382 127 Q359 108 337 102 Q316 96 300 97 Q273 99 247 109 Q221 120 202 121 L201 125 L425 430 L414 519 L89 519 L72 412 Z" /><glyph glyph-name="" unicode="{" d="M149 327 Q169 337 194 373 Q218 408 229 472 L255 654 Q258 681 269 696 Q280 711 297 711 L341 711 L357 806 L313 806 Q252 806 212 764 Q172 723 160 643 L142 512 Q135 455 117 417 Q99 379 59 366 L48 289 Q74 280 85 257 Q95 235 95 201 Q95 174 90 142 L72 14 Q71 4 70 -5 Q69 -15 69 -24 Q69 -83 98 -116 Q126 -148 179 -149 L223 -149 L238 -54 L193 -54 Q179 -54 170 -42 Q162 -30 162 -9 Q162 -6 163 -1 Q163 3 164 6 L189 181 Q190 191 191 201 Q191 211 191 219 Q190 264 176 291 Q163 318 149 327 L149 327 Z" /><glyph glyph-name="" unicode="|" d="M121 -154 L255 806 L167 806 L32 -154 L121 -154 Z" /><glyph glyph-name="" unicode="}" d="M195 329 Q175 319 151 284 Q126 248 116 185 L90 3 Q86 -25 75 -39 Q65 -54 48 -54 L3 -54 L-12 -149 L31 -149 Q92 -149 132 -107 Q172 -66 184 14 L202 145 Q209 202 227 240 Q246 278 285 291 L297 368 Q270 377 260 400 Q249 422 249 456 Q249 482 254 515 L272 643 Q275 663 275 681 Q275 740 247 773 Q218 806 165 806 L122 806 L107 711 L150 711 Q165 711 174 699 Q182 687 182 666 Q182 662 182 658 Q182 654 181 651 L156 475 Q153 455 153 438 Q154 393 168 366 Q181 338 195 329 L195 329 Z" /><glyph glyph-name="" unicode="~" d="M214 365 Q192 366 176 381 Q160 395 152 407 L95 319 Q125 289 146 276 Q168 263 199 263 Q251 266 290 287 Q329 307 359 310 Q381 309 400 293 Q419 278 429 265 L487 353 Q456 383 433 398 Q410 412 374 412 Q324 409 286 389 Q248 368 214 365 L214 365 Z" /><glyph glyph-name="" unicode=" " d="" /><glyph glyph-name="" unicode="¡" d="M135 447 Q135 418 150 398 Q165 379 190 378 Q221 379 245 406 Q268 433 269 472 Q269 501 254 520 Q239 539 214 540 Q183 539 160 512 Q136 486 135 447 L135 447 ZM143 306 L52 -214 L165 -214 L220 306 L143 306 Z" /><glyph glyph-name="" unicode="¢" d="M313 -28 L335 110 Q373 115 401 128 Q429 141 456 160 L426 265 Q400 246 374 233 Q347 220 310 219 Q277 219 258 250 Q239 280 239 340 Q240 429 272 479 Q304 529 349 530 Q386 529 410 517 Q433 504 454 485 L517 589 Q494 607 470 620 Q445 633 408 638 L429 777 L340 777 L319 635 Q227 617 172 535 Q117 453 116 323 Q116 235 150 181 Q184 126 246 113 L225 -28 L313 -28 Z" /><glyph glyph-name="" unicode="£" d="M232 129 Q250 166 258 208 Q265 249 272 323 L407 323 L433 406 L285 406 L291 476 Q302 577 332 609 Q361 640 390 637 Q410 637 434 628 Q457 618 485 598 L535 703 Q507 729 468 741 Q428 754 385 754 Q306 754 248 692 Q190 629 170 503 L156 406 L93 406 L84 348 L143 323 Q130 224 111 164 Q93 104 55 45 L102 -13 Q126 6 147 14 Q168 21 192 21 Q220 19 264 1 Q308 -16 353 -19 Q389 -19 426 -8 Q463 2 494 24 L461 133 Q436 114 413 106 Q390 99 363 99 Q323 101 294 112 Q264 122 233 124 L232 129 Z" /><glyph glyph-name="" unicode="¥" d="M323 0 L357 256 L453 274 L474 328 L385 328 L423 417 L506 431 L527 488 L460 488 L579 748 L442 754 L323 428 L319 428 L287 754 L148 748 L195 488 L121 488 L126 431 L209 417 L224 328 L129 328 L134 274 L229 256 L194 0 L323 0 Z" /><glyph glyph-name="" unicode="§" d="M447 302 Q434 416 343 463 Q251 510 238 584 Q239 619 260 634 Q280 649 305 649 Q325 649 348 633 Q371 616 386 583 L457 643 Q420 706 375 730 Q331 755 296 754 Q235 755 185 712 Q136 668 133 571 Q133 548 140 525 Q147 502 157 482 Q115 449 88 408 Q61 368 60 304 Q73 189 165 144 Q256 99 269 28 Q268 -8 247 -23 Q227 -39 201 -39 Q181 -39 159 -22 Q136 -6 120 27 L49 -34 Q86 -96 131 -120 Q176 -145 210 -144 Q272 -145 322 -101 Q371 -57 374 42 Q374 63 367 84 Q360 105 349 124 Q392 157 419 197 Q446 238 447 302 L447 302 ZM327 291 Q327 264 316 242 Q305 219 284 198 Q247 227 214 253 Q182 278 180 316 Q180 343 191 365 Q202 387 223 408 Q260 378 292 353 Q325 327 327 291 L327 291 Z" /><glyph glyph-name="" unicode="¨" d="M94 656 Q94 630 108 612 Q121 594 143 593 Q174 594 195 619 Q216 643 217 678 Q217 705 202 722 Q187 738 164 739 Q138 738 117 714 Q95 690 94 656 L94 656 ZM265 656 Q265 630 278 612 Q291 594 313 593 Q344 594 365 618 Q386 643 387 678 Q386 705 372 722 Q357 738 335 739 Q308 738 287 714 Q266 689 265 656 L265 656 Z" /><glyph glyph-name="" unicode="©" d="M48 323 Q50 181 121 89 Q192 -3 310 -6 Q456 -1 544 122 Q632 245 634 425 Q632 567 564 659 Q496 751 385 754 Q232 749 141 626 Q50 503 48 323 L48 323 ZM106 331 Q107 480 181 584 Q254 688 381 693 Q480 690 528 612 Q576 533 576 417 Q574 268 502 164 Q430 60 315 55 Q219 55 163 125 Q107 194 106 331 L106 331 ZM393 295 Q377 269 356 255 Q335 240 318 240 Q291 240 273 265 Q255 289 254 334 Q255 409 283 453 Q311 496 355 497 Q368 497 383 493 L380 418 L441 418 L469 539 Q449 560 422 571 Q394 582 368 582 Q288 582 236 518 Q183 454 181 331 Q182 249 218 203 Q255 157 315 156 Q346 156 385 180 Q423 203 447 254 L393 295 Z" /><glyph glyph-name="" unicode="ª" d="M297 422 Q305 422 314 424 Q324 426 331 430 L341 495 Q325 495 318 501 Q311 508 311 524 Q311 529 312 538 Q312 546 313 555 L336 729 L268 729 Q256 742 240 748 Q223 754 206 754 Q143 753 104 699 Q65 646 64 553 Q65 492 88 457 Q112 423 152 422 Q173 422 195 434 Q217 446 233 467 L237 467 Q243 444 258 433 Q273 422 297 422 L297 422 ZM178 499 Q162 499 152 516 Q142 534 142 566 Q143 619 160 648 Q177 677 202 677 Q217 677 228 672 Q239 667 248 657 L235 543 Q222 521 208 510 Q193 499 178 499 L178 499 Z" /><glyph glyph-name="" unicode="«" d="M226 596 L72 367 L70 359 L161 131 L233 183 L167 364 L282 544 L226 596 ZM405 596 L252 367 L250 359 L340 131 L412 183 L346 364 L462 544 L405 596 Z" /><glyph glyph-name="" unicode="¬" d="M361 181 L449 181 L495 497 L84 497 L67 394 L392 394 L361 181 Z" /><glyph glyph-name="" unicode="®" d="M48 323 Q50 181 121 89 Q192 -3 310 -6 Q456 -1 544 122 Q632 245 634 425 Q632 567 564 659 Q496 751 385 754 Q232 749 141 626 Q50 503 48 323 L48 323 ZM106 331 Q107 480 181 584 Q254 688 381 693 Q480 690 528 612 Q576 533 576 417 Q574 268 502 164 Q430 60 315 55 Q219 55 163 125 Q107 194 106 331 L106 331 ZM258 593 L199 170 L269 170 L292 333 L338 333 Q349 265 369 216 Q390 166 432 164 Q438 164 446 165 Q454 167 459 169 L455 233 Q434 233 421 262 Q408 291 398 347 Q439 366 459 404 Q479 441 479 479 Q480 520 458 555 Q436 591 384 593 L258 593 ZM315 520 L368 520 Q389 519 399 502 Q408 486 408 466 Q408 441 394 420 Q380 399 353 398 L301 398 L315 520 Z" /><glyph glyph-name="" unicode="¯" d="M112 704 L100 623 L347 623 L359 704 L112 704 Z" /><glyph glyph-name="" unicode="°" d="M102 560 Q103 501 135 463 Q167 424 215 423 Q276 424 324 476 Q372 527 375 610 Q374 669 342 708 Q310 747 262 748 Q201 746 153 695 Q105 643 102 560 L102 560 ZM169 571 Q170 616 194 646 Q218 676 251 677 Q277 676 292 655 Q308 633 308 600 Q307 555 283 524 Q259 494 226 493 Q200 494 185 516 Q169 538 169 571 L169 571 Z" /><glyph glyph-name="" unicode="±" d="M102 363 L264 363 L245 222 L334 222 L352 363 L513 363 L530 465 L368 465 L387 606 L299 606 L280 465 L119 465 L102 363 ZM78 172 L61 70 L472 70 L489 172 L78 172 Z" /><glyph glyph-name="" unicode="´" d="M149 585 L248 585 L366 743 L237 743 L149 585 Z" /><glyph glyph-name="" unicode="µ" d="M484 519 L363 519 L316 184 Q300 154 277 132 Q253 111 226 110 Q208 108 192 122 Q176 135 175 183 Q175 191 175 200 Q176 209 177 219 L219 519 L96 519 L-6 -208 L115 -208 L145 14 L149 14 Q161 4 178 -1 Q195 -6 212 -6 Q247 -5 272 16 Q296 37 316 69 L320 69 Q330 29 354 11 Q379 -6 414 -6 Q427 -6 443 -2 Q459 1 471 7 L487 105 Q460 105 448 114 Q436 124 436 150 Q436 160 438 171 Q439 183 441 196 L484 519 Z" /><glyph glyph-name="" unicode="¶" d="M413 643 L480 643 L391 0 L500 0 L606 748 L319 748 Q200 746 133 671 Q66 597 65 480 Q67 386 120 329 Q173 272 251 270 L214 -10 Q204 -73 173 -92 Q141 -112 104 -110 L111 -203 Q123 -209 136 -211 Q149 -214 160 -214 Q210 -216 258 -171 Q306 -126 324 -11 L413 643 Z" /><glyph glyph-name="" unicode="·" d="M194 390 Q194 418 179 437 Q165 456 141 457 Q111 456 88 430 Q65 404 64 368 Q64 340 79 322 Q94 303 118 302 Q148 303 170 328 Q193 354 194 390 L194 390 Z" /><glyph glyph-name="" unicode="¸" d="M126 39 Q110 -39 82 -75 Q53 -111 -4 -126 L20 -208 Q103 -196 146 -132 Q189 -69 191 13 L126 39 Z" /><glyph glyph-name="" unicode="º" d="M220 753 Q152 752 109 701 Q65 649 64 557 Q64 497 93 460 Q122 423 173 422 Q240 423 284 476 Q327 528 329 620 Q328 681 299 717 Q270 752 220 753 L220 753 ZM209 682 Q229 682 240 663 Q251 644 251 611 Q250 557 231 526 Q212 495 184 494 Q164 494 153 513 Q142 532 142 565 Q143 619 161 650 Q180 681 209 682 L209 682 Z" /><glyph glyph-name="" unicode="»" d="M106 544 L172 364 L57 183 L113 131 L267 359 L268 367 L178 596 L106 544 ZM286 544 L351 364 L237 183 L293 131 L446 359 L448 367 L357 596 L286 544 Z" /><glyph glyph-name="" unicode="¿" d="M294 312 L215 312 L187 208 Q121 171 70 106 Q19 40 16 -59 Q18 -140 62 -177 Q105 -214 166 -214 Q209 -215 253 -193 Q296 -171 339 -114 L270 -42 Q251 -69 232 -83 Q214 -97 194 -97 Q180 -98 163 -81 Q146 -65 145 -24 Q148 40 193 88 Q238 135 288 164 L294 312 ZM345 477 Q345 506 329 526 Q314 545 287 546 Q254 545 230 519 Q206 493 205 454 Q205 424 221 404 Q237 385 263 384 Q296 385 320 412 Q344 438 345 477 L345 477 Z" /><glyph glyph-name="" unicode="à" d="M396 632 L460 632 L418 307 L261 307 L396 632 ZM191 748 L170 665 L278 644 L-21 0 L117 -6 L203 194 L399 194 L373 0 L501 0 L607 748 L191 748 ZM464 954 L335 954 L407 796 L506 796 L464 954 Z" /><glyph glyph-name="" unicode="á" d="M396 632 L460 632 L418 307 L261 307 L396 632 ZM191 748 L170 665 L278 644 L-21 0 L117 -6 L203 194 L399 194 L373 0 L501 0 L607 748 L191 748 ZM384 795 L483 795 L601 953 L472 953 L384 795 Z" /><glyph glyph-name="" unicode="â" d="M396 632 L460 632 L418 307 L261 307 L396 632 ZM191 748 L170 665 L278 644 L-21 0 L117 -6 L203 194 L399 194 L373 0 L501 0 L607 748 L191 748 ZM515 954 L413 954 L311 796 L391 796 L451 876 L492 796 L571 796 L515 954 Z" /><glyph glyph-name="" unicode="ã" d="M396 632 L460 632 L418 307 L261 307 L396 632 ZM191 748 L170 665 L278 644 L-21 0 L117 -6 L203 194 L399 194 L373 0 L501 0 L607 748 L191 748 ZM570 896 Q552 922 535 930 Q517 938 506 937 Q465 935 440 919 Q416 903 393 901 Q385 901 373 906 Q360 910 346 925 L312 845 Q329 820 347 811 Q364 802 376 803 Q408 805 436 822 Q465 838 488 840 Q496 840 509 835 Q521 830 537 814 L570 896 Z" /><glyph glyph-name="" unicode="ä" d="M396 632 L460 632 L418 307 L261 307 L396 632 ZM191 748 L170 665 L278 644 L-21 0 L117 -6 L203 194 L399 194 L373 0 L501 0 L607 748 L191 748 ZM346 865 Q346 839 360 821 Q373 803 395 802 Q426 803 447 828 Q468 852 469 887 Q469 914 454 931 Q439 947 416 948 Q390 947 369 923 Q347 899 346 865 L346 865 ZM517 865 Q517 839 530 821 Q543 803 565 802 Q596 803 617 827 Q638 852 639 887 Q638 914 624 931 Q609 947 587 948 Q560 947 539 923 Q518 898 517 865 L517 865 Z" /><glyph glyph-name="" unicode="å" d="M396 632 L460 632 L418 307 L261 307 L396 632 ZM191 748 L170 665 L278 644 L-21 0 L117 -6 L203 194 L399 194 L373 0 L501 0 L607 748 L191 748 ZM401 870 Q402 833 420 811 Q438 789 468 789 Q508 790 537 821 Q565 852 566 902 Q566 940 548 962 Q529 984 499 984 Q459 983 431 952 Q402 920 401 870 L401 870 ZM452 878 Q452 900 464 916 Q475 931 491 932 Q502 932 509 921 Q516 910 516 894 Q515 872 504 857 Q493 842 477 841 Q466 841 459 852 Q452 863 452 878 L452 878 Z" /><glyph glyph-name="" unicode="æ" d="M262 307 L396 632 L455 632 L413 307 L262 307 ZM395 194 L370 0 L753 0 L772 116 L518 116 L544 332 L766 332 L784 445 L562 445 L585 632 L837 632 L856 748 L191 748 L170 665 L278 644 L-21 0 L117 -6 L203 194 L395 194 Z" /><glyph glyph-name="" unicode="ç" d="M297 110 Q227 111 197 166 Q166 220 167 317 Q167 442 218 538 Q268 633 362 638 Q386 638 407 630 Q427 622 446 609 L440 488 L527 488 L572 679 Q531 714 485 734 Q439 754 381 754 Q212 748 125 617 Q37 487 36 303 Q36 182 84 98 Q132 15 235 -2 Q221 -56 193 -84 Q166 -113 117 -126 L143 -208 Q219 -197 262 -139 Q304 -81 311 -4 Q363 0 416 34 Q468 68 511 143 L426 214 Q405 170 372 141 Q340 111 297 110 L297 110 Z" /><glyph glyph-name="" unicode="è" d="M141 748 L36 0 L454 0 L473 116 L181 116 L211 332 L464 332 L482 445 L229 445 L254 632 L538 632 L557 748 L141 748 ZM373 953 L244 953 L316 795 L415 795 L373 953 Z" /><glyph glyph-name="" unicode="é" d="M141 748 L36 0 L454 0 L473 116 L181 116 L211 332 L464 332 L482 445 L229 445 L254 632 L538 632 L557 748 L141 748 ZM309 795 L408 795 L526 953 L397 953 L309 795 Z" /><glyph glyph-name="" unicode="ê" d="M141 748 L36 0 L454 0 L473 116 L181 116 L211 332 L464 332 L482 445 L229 445 L254 632 L538 632 L557 748 L141 748 ZM438 954 L336 954 L234 796 L314 796 L374 876 L415 796 L494 796 L438 954 Z" /><glyph glyph-name="" unicode="ë" d="M153 748 L48 0 L466 0 L485 116 L193 116 L223 332 L476 332 L494 445 L241 445 L266 632 L550 632 L569 748 L153 748 ZM238 867 Q238 841 252 823 Q265 805 287 804 Q318 805 339 830 Q360 854 361 889 Q361 916 346 933 Q331 949 308 950 Q282 949 261 925 Q239 901 238 867 L238 867 ZM409 867 Q409 841 422 823 Q435 805 457 804 Q488 805 509 829 Q530 854 531 889 Q530 916 516 933 Q501 949 479 950 Q452 949 431 925 Q410 900 409 867 L409 867 Z" /><glyph glyph-name="" unicode="ñ" d="M445 0 L532 0 L637 748 L508 748 L445 260 L441 259 L225 748 L141 748 L36 0 L165 0 L227 481 L231 483 L445 0 ZM510 898 Q492 924 475 932 Q457 940 446 939 Q405 937 380 921 Q356 905 333 903 Q325 903 313 908 Q300 912 286 927 L252 847 Q269 822 287 813 Q304 804 316 805 Q348 807 376 824 Q405 840 428 842 Q436 842 449 837 Q461 832 477 816 L510 898 Z" /><glyph glyph-name="" unicode="ò" d="M376 754 Q216 749 127 620 Q37 490 36 300 Q36 165 94 81 Q153 -3 269 -6 Q429 -1 518 128 Q608 258 609 448 Q609 583 551 667 Q492 751 376 754 L376 754 ZM360 638 Q422 636 450 577 Q478 517 477 426 Q476 305 424 210 Q373 115 284 110 Q222 112 195 171 Q167 231 168 322 Q169 443 220 538 Q271 633 360 638 L360 638 ZM407 953 L278 953 L350 795 L449 795 L407 953 Z" /><glyph glyph-name="" unicode="ó" d="M376 754 Q216 749 127 620 Q37 490 36 300 Q36 165 94 81 Q153 -3 269 -6 Q429 -1 518 128 Q608 258 609 448 Q609 583 551 667 Q492 751 376 754 L376 754 ZM360 638 Q422 636 450 577 Q478 517 477 426 Q476 305 424 210 Q373 115 284 110 Q222 112 195 171 Q167 231 168 322 Q169 443 220 538 Q271 633 360 638 L360 638 ZM347 794 L446 794 L564 952 L435 952 L347 794 Z" /><glyph glyph-name="" unicode="ô" d="M376 754 Q216 749 127 620 Q37 490 36 300 Q36 165 94 81 Q153 -3 269 -6 Q429 -1 518 128 Q608 258 609 448 Q609 583 551 667 Q492 751 376 754 L376 754 ZM360 638 Q422 636 450 577 Q478 517 477 426 Q476 305 424 210 Q373 115 284 110 Q222 112 195 171 Q167 231 168 322 Q169 443 220 538 Q271 633 360 638 L360 638 ZM471 953 L369 953 L267 795 L347 795 L407 875 L448 795 L527 795 L471 953 Z" /><glyph glyph-name="" unicode="õ" d="M376 754 Q216 749 127 620 Q37 490 36 300 Q36 165 94 81 Q153 -3 269 -6 Q429 -1 518 128 Q608 258 609 448 Q609 583 551 667 Q492 751 376 754 L376 754 ZM360 638 Q422 636 450 577 Q478 517 477 426 Q476 305 424 210 Q373 115 284 110 Q222 112 195 171 Q167 231 168 322 Q169 443 220 538 Q271 633 360 638 L360 638 ZM519 898 Q501 924 484 932 Q466 940 455 939 Q414 937 389 921 Q365 905 342 903 Q334 903 322 908 Q309 912 295 927 L261 847 Q278 822 296 813 Q313 804 325 805 Q357 807 385 824 Q414 840 437 842 Q445 842 458 837 Q470 832 486 816 L519 898 Z" /><glyph glyph-name="" unicode="ö" d="M376 754 Q216 749 127 620 Q37 490 36 300 Q36 165 94 81 Q153 -3 269 -6 Q429 -1 518 128 Q608 258 609 448 Q609 583 551 667 Q492 751 376 754 L376 754 ZM360 638 Q422 636 450 577 Q478 517 477 426 Q476 305 424 210 Q373 115 284 110 Q222 112 195 171 Q167 231 168 322 Q169 443 220 538 Q271 633 360 638 L360 638 ZM263 865 Q263 839 277 821 Q290 803 312 802 Q343 803 364 828 Q385 852 386 887 Q386 914 371 931 Q356 947 333 948 Q307 947 286 923 Q264 899 263 865 L263 865 ZM434 865 Q434 839 447 821 Q460 803 482 802 Q513 803 534 827 Q555 852 556 887 Q555 914 541 931 Q526 947 504 948 Q477 947 456 923 Q435 898 434 865 L434 865 Z" /><glyph glyph-name="" unicode="ø" d="M643 699 L608 754 L542 678 Q513 714 472 734 Q430 754 376 754 Q216 749 127 620 Q37 490 36 300 Q36 251 44 208 Q51 165 67 129 L2 53 L37 -2 L101 72 Q130 35 172 15 Q214 -6 269 -6 Q429 -1 518 128 Q608 258 609 448 Q609 498 601 541 Q593 585 576 622 L643 699 ZM477 426 Q476 305 424 210 Q373 115 284 110 Q251 110 228 128 Q205 145 192 177 L472 501 Q474 484 476 465 Q477 446 477 426 L477 426 ZM360 638 Q392 638 415 621 Q438 603 451 573 L172 250 Q170 267 169 285 Q168 303 168 322 Q169 443 220 538 Q271 633 360 638 L360 638 Z" /><glyph glyph-name="" unicode="ù" d="M476 748 L417 322 Q405 230 368 171 Q331 112 274 110 Q228 111 205 148 Q182 184 182 246 Q182 263 184 283 Q186 302 188 322 L248 748 L119 748 L59 322 Q56 300 54 280 Q52 259 52 240 Q52 128 103 62 Q154 -4 257 -6 Q377 -3 451 86 Q524 176 545 322 L606 748 L476 748 ZM384 954 L255 954 L327 796 L426 796 L384 954 Z" /><glyph glyph-name="" unicode="ú" d="M476 748 L417 322 Q405 230 368 171 Q331 112 274 110 Q228 111 205 148 Q182 184 182 246 Q182 263 184 283 Q186 302 188 322 L248 748 L119 748 L59 322 Q56 300 54 280 Q52 259 52 240 Q52 128 103 62 Q154 -4 257 -6 Q377 -3 451 86 Q524 176 545 322 L606 748 L476 748 ZM314 795 L413 795 L531 953 L402 953 L314 795 Z" /><glyph glyph-name="" unicode="û" d="M476 748 L417 322 Q405 230 368 171 Q331 112 274 110 Q228 111 205 148 Q182 184 182 246 Q182 263 184 283 Q186 302 188 322 L248 748 L119 748 L59 322 Q56 300 54 280 Q52 259 52 240 Q52 128 103 62 Q154 -4 257 -6 Q377 -3 451 86 Q524 176 545 322 L606 748 L476 748 ZM454 954 L352 954 L250 796 L330 796 L390 876 L431 796 L510 796 L454 954 Z" /><glyph glyph-name="" unicode="ü" d="M476 748 L417 322 Q405 230 368 171 Q331 112 274 110 Q228 111 205 148 Q182 184 182 246 Q182 263 184 283 Q186 302 188 322 L248 748 L119 748 L59 322 Q56 300 54 280 Q52 259 52 240 Q52 128 103 62 Q154 -4 257 -6 Q377 -3 451 86 Q524 176 545 322 L606 748 L476 748 ZM245 865 Q245 839 259 821 Q272 803 294 802 Q325 803 346 828 Q367 852 368 887 Q368 914 353 931 Q338 947 315 948 Q289 947 268 923 Q246 899 245 865 L245 865 ZM416 865 Q416 839 429 821 Q442 803 464 802 Q495 803 516 827 Q537 852 538 887 Q537 914 523 931 Q508 947 486 948 Q459 947 438 923 Q417 898 416 865 L416 865 Z" /><glyph glyph-name="" unicode="ß" d="M115 426 L58 -3 Q48 -66 17 -85 Q-14 -105 -51 -103 L-47 -203 Q-35 -209 -22 -211 Q-9 -214 3 -214 Q53 -216 106 -171 Q158 -126 178 -11 L258 568 Q269 632 297 659 Q324 685 347 684 Q373 684 393 667 Q413 651 414 620 Q407 565 357 533 Q307 502 300 424 Q306 351 352 302 Q397 253 403 199 Q402 148 385 129 Q368 109 344 110 Q324 110 309 120 Q293 129 283 141 L230 45 Q253 24 285 10 Q318 -4 352 -5 Q416 -5 472 47 Q527 98 531 201 Q525 304 481 349 Q436 394 430 431 Q437 484 486 512 Q534 541 541 631 Q541 701 498 747 Q454 793 365 795 Q291 796 224 743 Q157 689 137 570 L130 519 L41 519 L30 447 L115 426 Z" /><glyph glyph-name="" unicode="æ" d="M270 525 Q226 525 185 512 Q143 498 102 474 L124 383 Q157 402 184 412 Q210 422 241 422 Q272 422 290 402 Q308 381 308 334 Q308 317 305 296 Q287 306 262 310 Q238 315 222 315 Q106 308 65 242 Q24 177 27 133 Q28 71 60 33 Q92 -5 150 -6 Q206 -6 251 20 Q296 45 328 95 Q351 47 390 21 Q429 -6 483 -6 Q547 -6 586 7 Q625 20 661 45 L626 150 Q598 133 567 122 Q536 110 494 110 Q468 109 447 128 Q426 148 425 205 Q512 203 603 237 Q695 271 702 381 Q702 443 663 485 Q624 526 542 528 Q500 528 463 509 Q425 489 396 454 Q376 488 344 506 Q311 525 270 525 L270 525 ZM207 93 Q182 93 169 109 Q156 125 156 157 Q155 186 171 214 Q186 242 231 244 Q250 244 264 239 Q279 234 294 224 Q283 148 255 120 Q227 92 207 93 L207 93 ZM531 420 Q553 420 565 405 Q578 390 578 367 Q576 323 532 304 Q488 285 429 284 Q438 350 467 385 Q496 420 531 420 L531 420 Z" /><glyph glyph-name="" unicode="ç" d="M281 525 Q172 523 105 444 Q38 365 36 226 Q37 123 80 63 Q123 3 200 -5 Q185 -57 158 -85 Q130 -113 83 -126 L108 -208 Q186 -196 229 -137 Q272 -77 277 0 Q305 7 332 23 Q360 39 389 66 L340 156 Q307 128 279 118 Q251 109 234 110 Q201 110 180 141 Q159 172 158 233 Q159 314 191 361 Q223 408 269 409 Q283 409 294 406 Q306 402 316 397 L308 309 L393 309 L420 474 Q392 498 360 512 Q327 525 281 525 L281 525 Z" /><glyph glyph-name="" unicode="ë" d="M440 381 Q440 443 401 485 Q362 526 281 528 Q175 525 107 440 Q39 355 37 220 Q38 112 87 53 Q135 -5 221 -6 Q285 -6 325 7 Q364 20 399 45 L364 149 Q336 132 305 121 Q275 110 233 110 Q206 108 186 128 Q165 147 164 205 Q250 203 341 237 Q433 271 440 381 L440 381 ZM269 421 Q292 420 303 405 Q315 390 315 367 Q313 323 270 304 Q226 285 168 284 Q177 350 205 386 Q234 421 269 421 L269 421 ZM161 656 Q161 630 175 612 Q188 594 210 593 Q241 594 262 619 Q283 643 284 678 Q284 705 269 722 Q254 738 231 739 Q205 738 184 714 Q162 690 161 656 L161 656 ZM332 656 Q332 630 345 612 Q358 594 380 593 Q411 594 432 618 Q453 643 454 678 Q453 705 439 722 Q424 738 402 739 Q375 738 354 714 Q333 689 332 656 L332 656 Z" /><glyph glyph-name="" unicode="ñ" d="M237 519 L123 519 L52 0 L173 0 L219 338 Q237 371 261 391 Q284 411 310 411 Q331 412 343 397 Q356 382 356 342 Q356 331 353 304 L311 0 L432 0 L472 286 Q478 331 478 366 Q476 459 441 493 Q406 527 358 525 Q330 525 296 506 Q262 488 231 453 L227 453 L237 519 ZM458 684 Q440 710 423 718 Q405 726 394 725 Q353 723 328 707 Q304 691 281 689 Q273 689 261 694 Q248 698 234 713 L200 633 Q217 608 235 599 Q252 590 264 591 Q296 593 324 610 Q353 626 376 628 Q384 628 397 623 Q409 618 425 602 L458 684 Z" /><glyph glyph-name="" unicode="÷" d="M178 104 Q178 72 194 52 Q210 31 237 30 Q270 31 295 60 Q320 88 321 130 Q321 161 305 182 Q289 202 262 203 Q229 202 204 174 Q179 146 178 104 L178 104 ZM243 546 Q243 515 259 494 Q275 474 301 473 Q334 474 359 502 Q384 530 385 572 Q385 604 369 624 Q353 645 327 646 Q294 645 269 616 Q244 588 243 546 L243 546 ZM69 287 L480 287 L496 389 L85 389 L69 287 Z" /><glyph glyph-name="" unicode="ø" d="M487 467 L453 521 L408 473 Q385 498 355 511 Q325 525 287 525 Q177 524 108 441 Q38 359 36 211 Q36 179 42 150 Q47 121 58 96 L17 52 L51 -2 L93 43 Q116 20 145 7 Q175 -6 211 -6 Q319 -4 389 80 Q459 164 461 311 Q461 371 441 418 L487 467 ZM268 417 Q285 417 299 407 Q313 397 322 380 L158 204 Q156 213 156 225 Q157 311 190 363 Q222 416 268 417 L268 417 ZM339 292 Q338 207 307 155 Q276 103 229 102 Q212 102 199 110 Q186 118 177 134 L338 307 Q339 300 339 292 L339 292 Z" /><glyph glyph-name="" unicode="ÿ" d="M436 412 Q435 474 411 501 Q387 529 349 528 Q337 528 322 524 Q306 520 294 515 L278 416 Q293 417 302 410 Q312 402 312 379 Q310 336 287 254 Q264 172 238 120 L166 525 L36 519 L144 0 Q110 -55 74 -82 Q38 -109 -9 -109 L-3 -200 Q9 -207 21 -211 Q33 -214 44 -214 Q164 -195 295 18 Q425 230 436 412 L436 412 ZM99 656 Q99 630 113 612 Q126 594 148 593 Q179 594 200 619 Q221 643 222 678 Q222 705 207 722 Q192 738 169 739 Q143 738 122 714 Q100 690 99 656 L99 656 ZM270 656 Q270 630 283 612 Q296 594 318 593 Q349 594 370 618 Q391 643 392 678 Q391 705 377 722 Q362 738 340 739 Q313 738 292 714 Q271 689 270 656 L270 656 Z" /><glyph glyph-name="" unicode="&#x131;" d="M229 519 L110 519 L65 193 Q61 166 60 147 Q58 128 58 117 Q59 46 89 20 Q118 -7 161 -6 Q174 -6 190 -2 Q205 1 218 7 L234 105 Q207 105 195 114 Q183 124 183 150 Q183 160 184 172 Q185 184 187 196 L229 519 Z" /><glyph glyph-name="" unicode="&#x152;" d="M824 632 L843 748 L441 748 Q427 751 410 753 Q393 754 376 754 Q216 749 127 620 Q37 490 36 300 Q36 165 94 81 Q153 -3 269 -6 Q286 -6 303 -4 Q320 -3 336 0 L738 0 L757 116 L482 116 L508 333 L752 333 L769 445 L527 445 L549 632 L824 632 ZM288 113 Q226 115 196 174 Q167 233 167 320 Q168 444 218 537 Q268 630 357 635 Q374 635 388 633 Q401 631 418 626 L354 122 Q334 117 320 115 Q305 113 288 113 L288 113 Z" /><glyph glyph-name="" unicode="&#x153;" d="M288 525 Q179 524 110 441 Q40 359 38 211 Q39 114 85 55 Q131 -4 213 -6 Q262 -6 304 17 Q347 40 379 81 Q402 39 439 17 Q475 -6 522 -6 Q586 -6 625 7 Q664 20 700 45 L665 150 Q636 133 606 122 Q576 110 534 110 Q507 108 486 128 Q465 147 464 205 Q551 203 643 237 Q735 271 742 381 Q742 443 703 485 Q663 526 582 528 Q535 528 494 506 Q453 484 421 441 Q399 481 365 503 Q332 525 288 525 L288 525 ZM270 416 Q304 415 322 383 Q340 350 340 292 Q339 207 308 156 Q277 104 231 103 Q198 103 179 135 Q160 167 160 225 Q161 311 193 363 Q224 415 270 416 L270 416 ZM570 420 Q592 420 604 405 Q616 390 616 367 Q614 323 571 304 Q527 285 469 284 Q478 350 506 385 Q534 420 570 420 L570 420 Z" /><glyph glyph-name="" unicode="&#x178;" d="M67 748 L193 283 L154 0 L283 0 L323 285 Q394 393 449 496 Q504 599 573 748 L430 754 Q390 645 352 558 Q314 472 280 405 L276 405 L212 754 L67 748 ZM198 865 Q198 839 212 821 Q225 803 247 802 Q278 803 299 828 Q320 852 321 887 Q321 914 306 931 Q291 947 268 948 Q242 947 221 923 Q199 899 198 865 L198 865 ZM369 865 Q369 839 382 821 Q395 803 417 802 Q448 803 469 827 Q490 852 491 887 Q490 914 476 931 Q461 947 439 948 Q412 947 391 923 Q370 898 369 865 L369 865 Z" /><glyph glyph-name="" unicode="&#x192;" d="M198 114 Q188 41 166 12 Q144 -16 111 -15 Q100 -15 88 -11 Q77 -7 68 -1 L20 -107 Q38 -120 60 -126 Q81 -133 115 -133 Q181 -134 239 -87 Q297 -39 314 70 L354 387 L454 387 L481 471 L367 471 L381 588 Q385 628 399 648 Q413 669 440 669 Q467 669 489 653 L536 758 Q521 774 493 782 Q465 790 444 790 Q383 790 331 747 Q278 703 264 610 L247 471 L153 471 L142 406 L234 387 L198 114 Z" /><glyph glyph-name="" unicode="&#x2c6;" d="M300 743 L198 743 L96 585 L176 585 L236 665 L277 585 L356 585 L300 743 Z" /><glyph glyph-name="" unicode="&#x2c7;" d="M376 743 L297 743 L236 662 L196 743 L116 743 L173 585 L274 585 L376 743 Z" /><glyph glyph-name="" unicode="&#x2d8;" d="M117 743 Q117 669 143 630 Q168 591 223 591 Q279 591 320 630 Q361 669 375 743 L312 743 Q302 709 282 691 Q261 672 236 672 Q212 672 196 691 Q181 710 180 743 L117 743 Z" /><glyph glyph-name="" unicode="&#x2d9;" d="M101 652 Q101 626 115 608 Q128 591 151 590 Q181 591 202 615 Q223 639 224 674 Q223 701 209 718 Q194 735 172 735 Q144 734 123 710 Q102 685 101 652 L101 652 Z" /><glyph glyph-name="" unicode="&#x2da;" d="M102 645 Q103 608 121 586 Q139 564 169 564 Q209 565 238 596 Q266 627 267 677 Q267 715 249 737 Q230 759 200 759 Q160 758 132 727 Q103 695 102 645 L102 645 ZM153 653 Q153 675 165 691 Q176 706 192 707 Q203 707 210 696 Q217 685 217 669 Q216 647 205 632 Q194 617 178 616 Q167 616 160 627 Q153 638 153 653 L153 653 Z" /><glyph glyph-name="" unicode="&#x2db;" d="M154 -111 Q128 -111 111 -100 Q93 -88 92 -65 Q92 -40 105 -23 Q117 -6 135 4 L129 58 Q86 47 45 9 Q4 -30 1 -94 Q3 -145 36 -171 Q70 -196 114 -197 L154 -111 Z" /><glyph glyph-name="" unicode="&#x2dc;" d="M360 684 Q342 710 325 718 Q307 726 296 725 Q255 723 230 707 Q206 691 183 689 Q175 689 163 694 Q150 698 136 713 L102 633 Q119 608 137 599 Q154 590 166 591 Q198 593 226 610 Q255 626 278 628 Q286 628 299 623 Q311 618 327 602 L360 684 Z" /><glyph glyph-name="" unicode="&#x2dd;" d="M98 585 L188 585 L293 743 L173 743 L98 585 ZM269 585 L358 585 L463 743 L344 743 L269 585 Z" /><glyph glyph-name="" unicode="&#x3a9;" d="M456 116 L457 120 Q512 176 556 266 Q600 355 602 477 Q601 595 545 673 Q489 751 386 754 Q251 749 166 637 Q80 525 77 361 Q78 282 96 221 Q115 160 141 120 L141 116 L38 116 L19 0 L239 0 L255 97 Q234 134 218 194 Q202 254 201 331 Q202 454 247 544 Q292 633 367 637 Q417 635 442 581 Q467 527 467 445 Q464 324 423 237 Q382 150 336 97 L319 0 L539 0 L558 116 L456 116 Z" /><glyph glyph-name="" unicode="&#x3c0;" d="M397 411 L371 193 Q369 174 367 157 Q365 140 365 124 Q365 56 390 25 Q416 -6 466 -6 Q479 -6 495 -2 Q511 1 523 7 L539 105 Q512 105 500 114 Q488 124 488 150 Q488 160 489 171 Q490 182 492 196 L518 411 L581 411 L599 519 L266 519 Q207 519 167 510 Q127 501 98 484 L102 379 Q116 387 137 395 Q158 403 186 408 Q165 301 137 187 Q108 73 81 0 L197 0 Q225 79 253 193 Q281 306 302 411 L397 411 Z" /><glyph glyph-name="" unicode="&#xfb01;" d="M524 519 L251 519 L258 580 Q265 636 283 660 Q301 685 332 684 Q393 682 438 666 Q483 649 503 636 L544 733 Q515 756 456 775 Q397 794 337 795 Q271 797 214 752 Q157 706 139 589 L130 519 L53 519 L41 447 L114 428 L59 -3 Q50 -66 20 -86 Q-9 -105 -44 -103 L-39 -203 Q-29 -209 -18 -211 Q-7 -214 3 -214 Q53 -216 106 -171 Q159 -126 178 -11 L235 422 L388 422 L360 193 Q358 174 356 157 Q354 140 354 124 Q354 56 380 25 Q405 -6 456 -6 Q469 -6 485 -2 Q500 1 512 7 L529 105 Q502 105 490 114 Q478 124 478 150 Q478 160 479 172 Q480 184 482 196 L524 519 Z" /><glyph glyph-name="" unicode="&#xfb02;" d="M130 519 L53 519 L41 447 L114 428 L59 -3 Q50 -66 20 -86 Q-9 -105 -44 -103 L-39 -203 Q-29 -209 -18 -211 Q-7 -214 3 -214 Q53 -216 106 -171 Q159 -126 178 -11 L235 422 L337 422 L353 519 L251 519 L258 580 Q266 640 288 661 Q311 683 332 682 Q356 682 378 678 Q399 674 418 666 L355 193 Q353 174 351 157 Q349 140 349 124 Q349 56 375 25 Q401 -6 452 -6 Q465 -6 480 -2 Q496 1 508 7 L524 105 Q497 105 485 114 Q473 124 473 150 Q473 160 474 172 Q475 184 477 196 L549 729 Q501 760 444 777 Q388 795 328 795 Q276 797 216 751 Q156 705 138 589 L130 519 Z" /><glyph glyph-name="" unicode="&#x2013;" d="M416 241 L433 343 L54 343 L38 241 L416 241 Z" /><glyph glyph-name="" unicode="&#x2014;" d="M623 241 L640 343 L59 343 L42 241 L623 241 Z" /><glyph glyph-name="" unicode="&#x2018;" d="M210 528 Q210 555 197 577 Q185 598 162 599 L230 732 L180 754 Q138 701 105 628 Q72 555 70 503 Q70 472 86 452 Q101 431 128 430 Q161 431 185 460 Q209 488 210 528 L210 528 Z" /><glyph glyph-name="" unicode="&#x2019;" d="M89 656 Q89 628 103 607 Q116 586 138 585 L70 451 L121 430 Q163 483 195 556 Q227 629 229 681 Q229 712 213 733 Q198 753 173 754 Q140 753 115 724 Q90 696 89 656 L89 656 Z" /><glyph glyph-name="" unicode="&#x201a;" d="M61 66 Q61 38 74 17 Q86 -4 108 -5 L40 -139 L91 -160 Q132 -107 166 -34 Q199 39 201 91 Q201 122 185 143 Q169 163 143 164 Q110 163 86 134 Q62 106 61 66 L61 66 Z" /><glyph glyph-name="" unicode="&#x201c;" d="M211 528 Q211 555 198 577 Q185 598 163 599 L231 732 L180 754 Q138 701 105 628 Q72 555 70 503 Q70 472 86 452 Q101 431 128 430 Q161 431 186 460 Q210 488 211 528 L211 528 ZM401 528 Q401 555 388 577 Q375 598 353 599 L421 732 L369 754 Q328 701 295 628 Q262 555 260 503 Q260 472 276 452 Q291 431 318 430 Q351 431 376 460 Q400 488 401 528 L401 528 Z" /><glyph glyph-name="" unicode="&#x201d;" d="M306 656 Q306 628 319 607 Q332 586 355 585 L287 451 L338 430 Q380 483 412 556 Q445 629 447 681 Q447 712 431 733 Q416 753 390 754 Q357 753 332 724 Q307 696 306 656 L306 656 ZM116 656 Q116 628 130 607 Q143 586 165 585 L97 451 L149 430 Q190 483 223 556 Q255 629 257 681 Q257 712 241 733 Q226 753 200 754 Q166 753 142 724 Q117 696 116 656 L116 656 Z" /><glyph glyph-name="" unicode="&#x201e;" d="M255 66 Q255 38 268 17 Q280 -4 302 -5 L234 -139 L286 -160 Q327 -107 360 -34 Q393 39 395 91 Q395 122 379 143 Q364 163 338 164 Q304 163 280 134 Q256 106 255 66 L255 66 ZM65 66 Q65 38 78 17 Q90 -4 112 -5 L45 -139 L96 -160 Q138 -107 170 -34 Q203 39 205 91 Q205 122 189 143 Q174 163 149 164 Q114 163 90 134 Q66 106 65 66 L65 66 Z" /><glyph glyph-name="" unicode="&#x2020;" d="M297 564 L336 748 L233 748 L220 564 L297 564 ZM204 457 L116 -78 L219 -78 L279 457 L204 457 ZM287 466 L417 450 L436 571 L302 555 L255 510 L287 466 ZM211 555 L83 571 L63 450 L197 466 L244 510 L211 555 Z" /><glyph glyph-name="" unicode="&#x2021;" d="M184 105 L145 -78 L248 -78 L260 105 L184 105 ZM193 204 L64 220 L45 99 L178 115 L226 159 L193 204 ZM269 115 L398 99 L418 220 L284 204 L237 159 L269 115 ZM325 564 L364 748 L262 748 L249 564 L325 564 ZM277 214 L308 457 L233 457 L202 214 L277 214 ZM316 466 L445 450 L464 571 L331 555 L284 510 L316 466 ZM240 555 L111 571 L92 450 L226 466 L273 510 L240 555 Z" /><glyph glyph-name="" unicode="&#x2022;" d="M280 390 Q279 438 256 470 Q233 502 194 503 Q145 501 108 459 Q72 416 70 354 Q71 306 94 276 Q117 245 155 244 Q205 246 242 287 Q278 328 280 390 L280 390 Z" /><glyph glyph-name="" unicode="&#x2026;" d="M71 65 Q71 34 87 15 Q103 -5 129 -6 Q162 -5 187 23 Q212 50 213 91 Q213 122 197 143 Q181 163 155 164 Q122 163 97 134 Q72 106 71 65 L71 65 ZM305 65 Q305 34 321 15 Q337 -5 363 -6 Q396 -5 421 23 Q445 50 446 91 Q446 122 430 143 Q415 163 389 164 Q356 163 331 134 Q306 106 305 65 L305 65 ZM539 65 Q539 34 555 15 Q571 -5 596 -6 Q630 -5 655 23 Q680 50 681 91 Q681 122 665 143 Q649 163 623 164 Q590 163 565 134 Q540 106 539 65 L539 65 Z" /><glyph glyph-name="" unicode="&#x2030;" d="M682 748 L607 752 L149 0 L224 -4 L682 748 ZM107 537 Q108 469 141 424 Q174 380 229 378 Q299 381 351 442 Q402 504 405 594 Q404 662 371 707 Q338 752 284 754 Q213 752 161 690 Q110 628 107 537 L107 537 ZM430 154 Q431 85 464 40 Q497 -4 551 -6 Q621 -3 673 59 Q725 121 728 211 Q727 279 694 324 Q661 369 606 371 Q536 369 484 307 Q433 245 430 154 L430 154 ZM194 550 Q195 594 218 628 Q240 661 271 663 Q296 662 307 638 Q318 614 318 581 Q317 537 295 504 Q272 471 242 469 Q217 470 205 494 Q194 518 194 550 L194 550 ZM517 167 Q518 211 540 245 Q563 278 593 280 Q618 279 629 255 Q640 231 640 198 Q639 154 617 120 Q595 87 564 85 Q539 86 528 110 Q517 134 517 167 L517 167 ZM758 154 Q759 85 792 40 Q826 -4 879 -6 Q950 -3 1002 59 Q1053 121 1056 211 Q1055 279 1022 324 Q989 369 933 371 Q864 369 812 307 Q761 245 758 154 L758 154 ZM845 167 Q846 211 868 245 Q891 278 921 280 Q946 279 958 255 Q969 231 969 198 Q968 154 946 120 Q923 87 892 85 Q867 86 856 110 Q845 134 845 167 L845 167 Z" /><glyph glyph-name="" unicode="&#x2039;" d="M226 596 L72 367 L70 359 L161 131 L233 183 L166 364 L282 544 L226 596 Z" /><glyph glyph-name="" unicode="&#x203a;" d="M106 544 L171 364 L57 183 L113 131 L266 359 L268 367 L178 596 L106 544 Z" /><glyph glyph-name="" unicode="&#x2044;" d="M-48 -6 L412 748 L336 754 L-117 0 L-48 -6 Z" /><glyph glyph-name="" unicode="&#x20ac;" d="M131 254 Q131 129 174 62 Q217 -4 305 -5 Q348 -5 389 11 Q429 28 469 60 L439 167 Q408 138 380 124 Q352 110 324 110 Q290 110 274 148 Q257 185 255 254 L386 254 L408 328 L260 328 Q261 348 264 372 Q266 396 270 414 L425 414 L447 488 L287 488 Q306 566 333 602 Q359 638 393 638 Q421 638 446 626 Q470 614 492 587 L555 694 Q525 722 490 738 Q455 754 411 754 Q322 754 260 687 Q198 619 164 488 L113 488 L97 431 L147 414 Q143 395 140 371 Q138 348 136 328 L92 328 L75 271 L131 254 Z" /><glyph glyph-name="" unicode="&#x2122;" d="M516 465 L611 615 L614 614 L586 412 L644 412 L692 748 L644 748 L529 564 L465 748 L418 748 L371 412 L428 412 L457 614 L460 615 L511 465 L516 465 ZM384 748 L156 748 L147 689 L231 689 L193 412 L251 412 L289 689 L375 689 L384 748 Z" /><glyph glyph-name="" unicode="&#x2202;" d="M316 415 Q341 415 357 399 Q374 382 384 352 Q378 254 353 180 Q328 107 277 103 Q241 103 220 135 Q199 166 199 227 Q200 314 233 364 Q266 414 316 415 L316 415 ZM240 -6 Q372 -8 445 111 Q518 230 519 493 Q517 667 469 733 Q421 798 349 795 Q297 795 250 776 Q203 756 164 723 L206 642 Q220 656 251 671 Q282 687 322 688 Q359 690 384 659 Q408 627 409 545 Q409 529 409 506 Q408 483 407 462 L403 461 Q386 489 362 507 Q337 524 302 525 Q204 523 141 439 Q77 355 75 209 Q76 108 119 51 Q163 -5 240 -6 L240 -6 Z" /><glyph glyph-name="" unicode="&#x2206;" d="M416 748 L290 748 L-16 37 L-5 0 L517 0 L529 37 L416 748 ZM153 116 L319 557 L323 557 L384 116 L153 116 Z" /><glyph glyph-name="" unicode="&#x220f;" d="M236 0 L322 632 L475 632 L388 0 L518 0 L605 632 L665 632 L684 748 L149 748 L130 632 L193 632 L106 0 L236 0 Z" /><glyph glyph-name="" unicode="&#x2211;" d="M113 697 L230 378 L17 51 L21 0 L445 0 L463 116 L213 116 L212 121 L365 373 L285 627 L286 632 L522 632 L541 748 L129 748 L113 697 Z" /><glyph glyph-name="" unicode="&#x221a;" d="M263 -155 L603 846 L522 846 L238 12 L234 12 L213 412 L68 412 L53 316 L128 316 L163 -155 L263 -155 Z" /><glyph glyph-name="" unicode="&#x221e;" d="M476 183 Q535 185 577 235 Q619 285 621 360 Q620 417 593 452 Q566 488 520 489 Q480 488 440 461 Q399 433 359 387 Q332 433 300 461 Q268 488 228 489 Q169 487 127 437 Q84 386 82 311 Q83 255 110 220 Q138 184 184 183 Q224 184 264 211 Q303 239 343 284 Q371 239 404 211 Q436 184 476 183 L476 183 ZM487 260 Q455 261 433 282 Q412 304 396 336 Q421 368 448 390 Q475 411 508 412 Q530 411 543 394 Q556 376 556 348 Q555 310 535 286 Q515 261 487 260 L487 260 ZM195 260 Q174 261 161 279 Q148 296 148 324 Q149 361 169 386 Q189 411 216 412 Q249 411 270 390 Q291 368 307 336 Q282 304 255 282 Q228 261 195 260 L195 260 Z" /><glyph glyph-name="" unicode="&#x222b;" d="M262 735 Q273 806 302 822 Q330 838 365 835 L361 912 Q351 917 340 920 Q329 923 319 923 Q271 925 232 880 Q192 835 174 720 L78 24 Q67 -43 39 -60 Q11 -78 -24 -75 L-20 -152 Q-10 -158 1 -160 Q12 -163 22 -163 Q70 -165 110 -120 Q150 -75 167 40 L262 735 Z" /><glyph glyph-name="" unicode="&#x2248;" d="M213 462 Q191 463 175 478 Q158 492 150 504 L93 416 Q124 386 145 372 Q167 359 198 359 Q249 362 288 383 Q326 403 357 406 Q379 405 399 390 Q418 375 428 362 L486 449 Q455 480 432 494 Q409 509 373 509 Q322 506 284 486 Q247 465 213 462 L213 462 ZM184 270 Q162 271 146 286 Q130 300 121 313 L64 225 Q95 195 116 181 Q138 168 169 168 Q221 171 260 192 Q298 212 329 215 Q351 214 370 198 Q389 183 398 171 L457 258 Q427 289 403 303 Q380 317 343 317 Q293 314 256 294 Q218 273 184 270 L184 270 Z" /><glyph glyph-name="" unicode="&#x2260;" d="M104 382 L301 382 L302 378 L237 293 L92 293 L75 191 L149 191 L150 187 L98 121 L131 82 L215 191 L486 191 L502 293 L303 293 L303 297 L367 382 L515 382 L531 485 L457 485 L457 489 L508 556 L476 594 L391 485 L120 485 L104 382 Z" /><glyph glyph-name="" unicode="&#x2264;" d="M470 171 L488 282 L235 396 L235 400 L515 514 L533 625 L132 449 L116 347 L470 171 ZM447 24 L463 126 L86 126 L70 24 L447 24 Z" /><glyph glyph-name="" unicode="&#x2265;" d="M495 347 L511 449 L158 625 L140 514 L393 400 L392 396 L113 282 L95 171 L495 347 ZM449 24 L465 126 L88 126 L72 24 L449 24 Z" /><glyph glyph-name="" unicode="&#x25ca;" d="M489 374 L380 777 L305 777 L79 374 L189 -29 L263 -29 L489 374 ZM390 374 L249 104 L177 374 L320 642 L390 374 Z" /><glyph glyph-name="" unicode="¦" d="M157 806 L102 407 L190 407 L246 806 L157 806 ZM79 244 L23 -155 L111 -155 L167 244 L79 244 Z" /><glyph glyph-name="" unicode="²" d="M288 301 L299 384 L173 384 L173 389 Q203 434 265 484 Q327 533 334 629 Q334 678 306 712 Q278 746 224 748 Q184 750 151 732 Q119 714 84 651 L154 611 Q169 641 182 652 Q195 664 208 663 Q227 663 236 649 Q244 636 244 616 Q239 548 177 504 Q115 459 54 358 L65 301 L288 301 Z" /><glyph glyph-name="" unicode="³" d="M316 449 Q315 499 294 528 Q273 557 240 572 L240 576 L330 682 L324 748 L129 748 L119 673 L225 673 L227 669 L145 573 L159 518 Q186 518 205 505 Q223 491 224 458 Q223 420 206 404 Q189 388 170 388 Q154 388 137 397 Q119 405 106 418 L61 345 Q87 323 113 312 Q140 301 166 301 Q234 302 274 342 Q315 382 316 449 L316 449 Z" /><glyph glyph-name="" unicode="¹" d="M174 623 L131 301 L225 301 L288 748 L226 748 L100 662 L116 597 L174 623 Z" /><glyph glyph-name="" unicode="¼" d="M161 -6 L620 748 L545 754 L92 0 L161 -6 ZM586 310 L565 172 L498 172 L497 175 Q540 250 565 319 Q591 388 603 449 L512 460 Q500 393 467 314 Q434 235 370 129 L380 92 L555 92 L541 0 L637 0 L649 92 L679 92 L692 172 L658 172 L676 315 L586 310 ZM142 623 L98 301 L197 301 L256 748 L193 748 L68 662 L84 597 L142 623 Z" /><glyph glyph-name="" unicode="½" d="M163 -6 L623 748 L548 754 L96 0 L163 -6 ZM142 623 L98 301 L197 301 L256 748 L193 748 L68 662 L84 597 L142 623 ZM663 0 L674 83 L549 83 L548 87 Q578 132 641 182 Q703 231 710 327 Q710 377 682 411 Q653 446 600 447 Q560 449 527 431 Q494 413 459 350 L530 310 Q545 339 558 351 Q570 362 583 361 Q603 361 611 347 Q619 334 619 314 Q614 247 552 202 Q490 157 429 56 L441 0 L663 0 Z" /><glyph glyph-name="" unicode="¾" d="M179 -6 L637 748 L563 754 L110 0 L179 -6 ZM592 310 L570 172 L503 172 L502 175 Q545 250 570 319 Q596 388 608 449 L518 460 Q505 393 472 314 Q439 235 375 129 L386 92 L561 92 L546 0 L643 0 L654 92 L684 92 L697 172 L664 172 L681 315 L592 310 ZM294 449 Q293 499 272 528 Q251 557 218 572 L218 576 L308 682 L302 748 L107 748 L97 673 L203 673 L205 669 L123 573 L137 518 Q164 518 183 505 Q201 491 202 458 Q201 420 184 404 Q167 388 148 388 Q132 388 115 397 Q97 405 84 418 L39 345 Q65 323 91 312 Q118 301 144 301 Q212 302 253 342 Q293 382 294 449 L294 449 Z" /><glyph glyph-name="" unicode="ð" d="M255 0 Q416 6 503 134 Q590 263 591 447 Q591 578 535 662 Q478 745 362 748 L157 748 L113 431 L54 431 L36 318 L96 318 L52 0 L255 0 ZM200 116 L225 318 L328 318 L346 431 L243 431 L268 632 L331 632 Q396 631 428 577 Q460 523 460 432 Q459 295 408 207 Q356 119 261 116 L200 116 Z" /><glyph glyph-name="" unicode="×" d="M110 91 L264 265 L370 91 L444 163 L338 338 L493 512 L441 586 L287 410 L180 586 L107 512 L214 338 L59 163 L110 91 Z" /><glyph glyph-name="" unicode="ý" d="M67 748 L193 283 L154 0 L283 0 L323 285 Q394 393 449 496 Q504 599 573 748 L430 754 Q390 645 352 558 Q314 472 280 405 L276 405 L212 754 L67 748 ZM270 795 L369 795 L487 953 L358 953 L270 795 Z" /><glyph glyph-name="" unicode="þ" d="M64 0 L193 0 L206 98 L290 98 Q393 101 470 190 Q547 278 551 417 Q550 522 500 585 Q450 649 369 651 L284 651 L298 748 L169 748 L64 0 ZM225 218 L265 531 L330 531 Q372 530 396 494 Q420 459 421 400 Q419 320 381 270 Q343 220 290 218 L225 218 Z" /><glyph glyph-name="" unicode="ð" d="M516 714 L478 766 L386 711 Q354 746 330 763 Q306 781 276 794 L210 707 Q227 698 244 684 Q261 670 275 655 L193 607 L228 551 L322 607 Q345 571 360 530 Q374 489 379 447 L376 446 Q362 473 336 489 Q310 504 274 504 Q177 503 115 425 Q53 348 51 209 Q52 108 96 51 Q139 -5 216 -6 Q348 -6 418 102 Q488 210 489 421 Q489 498 472 559 Q456 619 430 661 L516 714 ZM289 398 Q314 397 331 378 Q347 359 357 329 Q353 238 325 172 Q296 106 240 103 Q210 103 192 133 Q174 163 174 220 Q175 302 208 350 Q240 397 289 398 L289 398 Z" /><glyph glyph-name="" unicode="ý" d="M456 412 Q455 474 431 501 Q407 529 369 528 Q357 528 342 524 Q326 520 314 515 L298 416 Q313 417 322 410 Q332 402 332 379 Q330 336 307 254 Q284 172 258 120 L186 525 L56 519 L164 0 Q130 -55 94 -82 Q58 -109 11 -109 L17 -200 Q29 -207 41 -211 Q53 -214 64 -214 Q184 -195 315 18 Q445 230 456 412 L456 412 ZM219 585 L318 585 L436 743 L307 743 L219 585 Z" /><glyph glyph-name="" unicode="þ" d="M359 301 Q358 216 334 164 Q310 111 272 110 Q249 110 234 121 Q218 132 205 152 L232 366 Q250 387 268 398 Q286 409 310 409 Q333 409 346 381 Q359 352 359 301 L359 301 ZM172 790 L31 -214 L153 -208 L187 36 L190 38 Q207 16 227 5 Q246 -6 266 -6 Q362 -4 421 85 Q480 173 482 322 Q482 418 445 472 Q408 525 341 526 Q320 526 298 515 Q276 503 253 482 L250 483 L293 795 L172 790 Z" /><glyph glyph-name="" unicode="&#x141;" d="M223 116 L252 327 L441 523 L397 577 L269 436 L310 748 L180 748 L119 309 L13 206 L51 147 L102 199 L75 0 L453 0 L471 116 L223 116 Z" /><glyph glyph-name="" unicode="&#x142;" d="M340 499 L296 554 L234 490 L274 795 L152 791 L93 368 L-10 269 L28 210 L80 263 L71 198 Q68 179 66 160 Q64 140 64 124 Q64 56 90 25 Q115 -6 166 -6 Q179 -6 194 -2 Q210 1 222 7 L239 105 Q211 105 199 114 Q188 124 188 150 Q188 160 189 171 Q190 182 192 196 L217 381 L340 499 Z" /><glyph glyph-name="" unicode="&#x160;" d="M31 124 Q84 50 133 21 Q183 -7 238 -6 Q340 -5 398 55 Q456 114 457 224 Q442 367 338 416 Q233 465 218 545 Q219 593 245 616 Q271 638 310 638 Q327 638 345 632 Q363 627 382 616 L377 524 L463 524 L502 685 Q468 716 423 735 Q378 754 320 754 Q209 753 151 693 Q93 633 93 532 Q107 392 209 345 Q310 298 324 208 Q323 161 301 136 Q278 110 245 110 Q203 111 172 139 Q141 167 115 211 L31 124 ZM490 953 L411 953 L350 872 L310 953 L230 953 L287 795 L388 795 L490 953 Z" /><glyph glyph-name="" unicode="&#x161;" d="M237 146 Q237 120 225 107 Q212 94 189 94 Q167 94 138 108 Q108 122 75 157 L18 69 Q65 22 108 6 Q150 -10 186 -9 Q267 -10 315 31 Q363 71 364 159 Q353 267 275 300 Q197 333 186 376 Q187 405 205 417 Q224 428 247 428 Q256 428 267 425 Q278 422 291 415 L289 359 L369 359 L390 486 Q353 507 315 518 Q277 528 241 528 Q145 526 104 479 Q63 432 64 363 Q75 256 151 222 Q226 189 237 146 L237 146 ZM410 743 L331 743 L270 662 L230 743 L150 743 L207 585 L308 585 L410 743 Z" /><glyph glyph-name="" unicode="&#x17d;" d="M-2 61 L43 -13 Q66 6 84 13 Q102 19 123 19 Q158 17 208 -1 Q258 -18 314 -21 Q351 -21 393 -10 Q435 2 466 24 L434 131 Q404 112 380 105 Q355 99 338 99 Q305 101 266 113 Q228 124 191 126 L190 130 L533 683 L523 748 L112 748 L93 636 L353 636 L-2 61 ZM472 953 L393 953 L332 872 L292 953 L212 953 L269 795 L370 795 L472 953 Z" /><glyph glyph-name="" unicode="&#x17e;" d="M74 412 L261 412 L262 408 L14 71 L61 -13 Q82 5 99 12 Q116 19 136 19 Q162 17 206 0 Q249 -18 299 -20 Q364 -20 413 24 L384 127 Q361 108 339 102 Q318 96 302 97 Q275 99 249 109 Q223 120 204 121 L203 125 L427 430 L416 519 L91 519 L74 412 ZM413 743 L334 743 L273 662 L233 743 L153 743 L210 585 L311 585 L413 743 Z" /><glyph glyph-name="" unicode="&#x2212;" d="M89 287 L501 287 L517 389 L106 389 L89 287 Z" /><glyph glyph-name="" unicode="&#x106;" d="M309 795 L409 795 L527 953 L398 953 L309 795 ZM297 110 Q227 111 197 166 Q166 220 167 317 Q167 442 218 538 Q268 633 362 638 Q386 638 407 630 Q427 622 446 609 L440 488 L527 488 L572 679 Q531 714 485 734 Q439 754 381 754 Q212 748 125 617 Q37 487 36 303 Q35 170 95 84 Q154 -3 283 -6 Q340 -7 401 26 Q462 59 511 143 L426 214 Q405 170 372 141 Q340 111 297 110 L297 110 Z" /><glyph glyph-name="" unicode="&#x10c;" d="M534 953 L454 953 L393 872 L354 953 L274 953 L330 795 L433 795 L534 953 ZM297 110 Q227 111 197 166 Q166 220 167 317 Q167 442 218 538 Q268 633 362 638 Q386 638 407 630 Q427 622 446 609 L440 488 L527 488 L572 679 Q531 714 485 734 Q439 754 381 754 Q212 748 125 617 Q37 487 36 303 Q35 170 95 84 Q154 -3 283 -6 Q340 -7 401 26 Q462 59 511 143 L426 214 Q405 170 372 141 Q340 111 297 110 L297 110 Z" /><glyph glyph-name="" unicode="&#x110;" d="M255 0 Q416 6 503 134 Q590 263 591 447 Q591 578 535 662 Q478 745 362 748 L157 748 L113 431 L54 431 L36 318 L96 318 L52 0 L255 0 ZM200 116 L225 318 L328 318 L346 431 L243 431 L268 632 L331 632 Q396 631 428 577 Q460 523 460 432 Q459 295 408 207 Q356 119 261 116 L200 116 Z" /><glyph glyph-name="" unicode="&#x107;" d="M228 585 L328 585 L446 743 L317 743 L228 585 ZM281 525 Q172 523 105 444 Q38 365 36 226 Q37 115 86 55 Q136 -5 222 -6 Q259 -7 301 10 Q344 26 389 66 L340 157 Q307 128 279 119 Q251 109 234 110 Q201 110 180 141 Q159 172 158 233 Q159 314 191 361 Q223 407 269 408 Q283 408 294 405 Q306 401 316 396 L313 309 L393 309 L420 474 Q392 498 360 512 Q327 525 281 525 L281 525 Z" /><glyph glyph-name="" unicode="&#x10d;" d="M431 743 L351 743 L290 662 L251 743 L171 743 L227 585 L330 585 L431 743 ZM420 474 Q392 498 360 512 Q327 525 281 525 Q172 523 105 444 Q38 365 36 226 Q37 115 86 55 Q136 -5 222 -6 Q259 -7 301 10 Q344 26 389 66 L340 157 Q307 128 279 119 Q251 109 234 110 Q201 110 180 141 Q159 172 158 233 Q159 314 191 361 Q223 407 269 408 Q283 408 294 405 Q306 401 316 396 L313 309 L393 309 L420 474 Z" /><glyph glyph-name="" unicode="&#x111;" d="M371 611 L355 492 Q336 509 313 517 Q290 525 266 525 Q165 523 102 437 Q39 351 37 204 Q38 105 77 50 Q115 -5 178 -6 Q215 -5 251 15 Q286 35 312 69 L317 69 Q326 31 350 12 Q373 -6 411 -6 Q424 -6 439 -2 Q455 1 467 7 L483 105 Q455 105 443 114 Q432 124 432 150 Q432 160 433 172 Q434 184 436 196 L492 611 L553 611 L564 685 L503 685 L518 795 L398 791 L382 685 L262 685 L254 620 L371 611 ZM160 227 Q161 312 190 360 Q219 408 259 409 Q285 409 303 400 Q321 391 336 372 L313 184 Q296 152 273 131 Q249 111 223 110 Q195 110 178 140 Q160 169 160 227 L160 227 Z" /><glyph glyph-name="" unicode="&#x403;" d="M499 632 L518 748 L141 748 L36 0 L164 0 L251 632 L499 632 ZM284 795 L383 795 L501 953 L371 953 L284 795 Z" /><glyph glyph-name="" unicode="&#x405;" d="M24 124 Q77 50 126 21 Q176 -7 231 -6 Q333 -5 391 55 Q449 114 450 224 Q435 367 331 416 Q226 465 211 545 Q212 593 238 616 Q264 638 303 638 Q320 638 338 632 Q356 627 375 616 L370 524 L456 524 L495 685 Q461 716 416 735 Q371 754 313 754 Q202 753 144 693 Q86 633 86 532 Q100 392 202 345 Q303 298 317 208 Q316 161 294 136 Q271 110 238 110 Q196 111 165 139 Q134 167 108 211 L24 124 Z" /><glyph glyph-name="" unicode="&#x408;" d="M16 179 Q35 72 86 32 Q138 -8 198 -6 Q281 -5 336 67 Q391 139 410 269 L476 748 L347 748 L277 250 Q268 184 247 150 Q226 115 190 115 Q164 114 148 133 Q132 152 122 204 L16 179 Z" /><glyph glyph-name="" unicode="&#x409;" d="M588 331 Q621 331 641 307 Q661 283 662 240 Q663 195 641 157 Q618 118 560 116 L499 116 L526 331 L588 331 ZM124 748 L111 665 L205 644 L165 416 Q137 256 94 180 Q51 104 -12 105 L-6 -7 Q4 -11 16 -12 Q29 -14 35 -14 Q130 -12 187 89 Q244 191 276 368 L326 632 L438 632 L351 0 L560 0 Q668 2 730 72 Q792 143 793 260 Q793 344 746 394 Q700 444 610 445 L544 445 L585 748 L124 748 Z" /><glyph glyph-name="" unicode="&#x40a;" d="M518 116 L545 331 L608 331 Q641 331 661 307 Q681 283 682 240 Q683 194 660 156 Q638 118 580 116 L518 116 ZM563 445 L605 748 L476 748 L434 445 L229 445 L270 748 L141 748 L36 0 L165 0 L211 331 L416 331 L371 0 L579 0 Q688 2 750 72 Q812 143 813 260 Q813 344 766 394 Q719 444 629 445 L563 445 Z" /><glyph glyph-name="" unicode="&#x40c;" d="M330 795 L429 795 L547 953 L419 953 L330 795 ZM295 439 L227 439 L270 748 L141 748 L36 0 L164 0 L210 331 L288 331 Q332 262 359 132 Q386 2 478 -13 Q490 -13 500 -10 Q511 -8 519 -4 L524 105 Q469 115 456 218 Q444 320 391 394 L503 597 Q520 628 535 637 Q550 646 574 645 L590 745 Q581 750 565 753 Q549 757 527 757 Q490 756 466 735 Q442 713 425 680 L295 439 Z" /><glyph glyph-name="" unicode="&#x40f;" d="M319 -153 L341 0 L532 0 L637 748 L508 748 L421 116 L183 116 L270 748 L141 748 L36 0 L225 0 L202 -162 L319 -153 Z" /><glyph glyph-name="" unicode="&#x410;" d="M398 632 L461 632 L420 307 L264 307 L398 632 ZM192 748 L172 665 L280 644 L-19 0 L120 -6 L205 194 L401 194 L375 0 L504 0 L609 748 L192 748 Z" /><glyph glyph-name="" unicode="&#x411;" d="M36 0 L280 0 Q390 2 452 77 Q515 152 516 271 Q516 358 473 410 Q429 462 346 463 L231 463 L254 632 L510 632 L529 748 L142 748 L36 0 ZM212 348 L310 348 Q344 348 364 322 Q385 297 385 251 Q386 203 362 161 Q339 119 281 116 L183 116 L212 348 Z" /><glyph glyph-name="" unicode="&#x412;" d="M229 445 L254 636 L358 636 Q386 636 403 613 Q420 591 420 552 Q418 503 395 475 Q371 446 344 445 L229 445 ZM325 331 Q357 330 377 302 Q397 274 398 233 Q400 195 378 155 Q356 115 292 112 L182 112 L211 331 L325 331 ZM549 586 Q549 656 508 701 Q467 746 391 748 L141 748 L36 0 L293 0 Q403 2 464 69 Q525 135 526 236 Q525 291 501 332 Q476 373 436 388 L437 392 Q495 424 522 477 Q549 530 549 586 L549 586 Z" /><glyph glyph-name="" unicode="&#x413;" d="M499 632 L518 748 L142 748 L36 0 L165 0 L251 632 L499 632 Z" /><glyph glyph-name="" unicode="&#x414;" d="M-34 -162 L77 -153 L106 0 L424 0 L408 -162 L518 -153 L559 116 L496 116 L582 748 L140 748 L130 665 L220 644 Q188 462 152 334 Q115 205 68 116 L8 116 L-34 -162 ZM337 632 L438 632 L370 116 L203 116 Q240 202 273 331 Q306 460 337 632 L337 632 Z" /><glyph glyph-name="" unicode="&#x415;" d="M145 748 L40 0 L458 0 L477 116 L185 116 L215 332 L468 332 L486 445 L233 445 L258 632 L542 632 L561 748 L145 748 Z" /><glyph glyph-name="" unicode="&#x416;" d="M565 439 L497 439 L540 748 L421 748 L377 439 L310 439 L246 680 Q239 713 221 735 Q204 756 168 757 Q145 757 128 753 Q111 750 100 745 L84 645 Q109 646 124 639 Q139 631 148 600 L205 397 Q141 325 101 220 Q60 116 3 105 L-13 -4 Q-2 -8 13 -10 Q28 -13 47 -13 Q124 1 179 131 Q233 260 283 331 L360 331 L315 0 L435 0 L481 331 L559 331 Q600 262 631 132 Q663 2 746 -13 Q759 -13 769 -10 Q780 -8 788 -4 L793 105 Q743 115 726 218 Q708 320 661 394 L771 597 Q788 628 803 637 Q819 646 843 645 L858 745 Q850 750 834 753 Q818 757 795 757 Q759 756 734 735 Q710 713 693 680 L565 439 Z" /><glyph glyph-name="" unicode="&#x417;" d="M170 -6 Q302 -3 365 65 Q428 133 427 234 Q426 291 402 332 Q378 372 338 387 L338 391 Q395 419 424 473 Q453 526 453 587 Q452 658 406 705 Q359 752 281 754 Q223 754 170 736 Q116 718 73 685 L65 524 L152 524 L171 615 Q191 626 210 632 Q230 638 254 638 Q280 638 299 617 Q318 597 319 560 Q318 507 293 473 Q269 439 231 438 L185 438 L167 331 L226 331 Q259 331 279 306 Q298 282 299 239 Q300 193 275 153 Q251 112 188 109 Q153 109 119 130 Q86 152 57 193 L-12 90 Q25 47 69 21 Q113 -5 170 -6 L170 -6 Z" /><glyph glyph-name="" unicode="&#x418;" d="M467 473 L471 471 L403 0 L532 0 L637 748 L556 748 L206 266 L203 268 L271 748 L142 748 L37 0 L121 0 L467 473 Z" /><glyph glyph-name="" unicode="&#x41a;" d="M295 439 L227 439 L270 748 L141 748 L36 0 L164 0 L210 331 L288 331 Q332 262 359 132 Q386 2 478 -13 Q490 -13 500 -10 Q511 -8 519 -4 L524 105 Q469 115 456 218 Q444 320 391 394 L503 597 Q520 628 535 637 Q550 646 574 645 L590 745 Q581 750 565 753 Q549 757 527 757 Q490 756 466 735 Q442 713 425 680 L295 439 Z" /><glyph glyph-name="" unicode="&#x41b;" d="M35 -14 Q130 -12 187 89 Q244 191 276 368 L326 632 L437 632 L351 0 L480 0 L586 748 L124 748 L111 665 L205 644 L165 416 Q137 256 94 180 Q51 104 -12 105 L-6 -7 Q4 -11 16 -12 Q29 -14 35 -14 L35 -14 Z" /><glyph glyph-name="" unicode="&#x41c;" d="M369 168 L536 456 L539 455 L480 -1 L609 -1 L715 748 L619 748 L369 330 L236 748 L141 748 L36 -1 L165 -1 L224 456 L227 458 L315 168 L369 168 Z" /><glyph glyph-name="" unicode="&#x41d;" d="M165 0 L211 331 L448 331 L403 0 L532 0 L637 748 L508 748 L467 445 L229 445 L270 748 L141 748 L36 0 L165 0 Z" /><glyph glyph-name="" unicode="&#x41e;" d="M376 754 Q216 749 127 620 Q37 490 36 300 Q36 165 94 81 Q153 -3 269 -6 Q429 -1 518 128 Q608 258 609 448 Q609 583 551 667 Q492 751 376 754 L376 754 ZM360 637 Q422 635 450 576 Q478 517 477 426 Q476 305 424 210 Q373 115 284 110 Q222 112 195 171 Q167 231 168 322 Q169 443 220 538 Q271 632 360 637 L360 637 Z" /><glyph glyph-name="" unicode="&#x41f;" d="M165 0 L251 632 L489 632 L403 0 L532 0 L637 748 L141 748 L36 0 L165 0 Z" /><glyph glyph-name="" unicode="&#x420;" d="M141 748 L36 0 L165 0 L198 238 L300 238 Q402 241 477 325 Q552 408 556 531 Q555 626 504 686 Q454 746 372 748 L141 748 ZM342 636 Q380 635 402 601 Q425 567 425 515 Q423 444 388 397 Q352 351 304 349 L215 349 L252 636 L342 636 Z" /><glyph glyph-name="" unicode="&#x421;" d="M297 110 Q227 111 197 166 Q166 220 167 317 Q167 442 218 538 Q268 633 362 638 Q386 638 407 630 Q427 622 446 609 L440 488 L527 488 L572 679 Q531 714 485 734 Q439 754 381 754 Q212 748 125 617 Q37 487 36 303 Q35 170 95 84 Q154 -3 283 -6 Q340 -7 401 26 Q462 59 511 143 L426 214 Q405 170 372 141 Q340 111 297 110 L297 110 Z" /><glyph glyph-name="" unicode="&#x422;" d="M532 748 L83 748 L64 632 L225 632 L138 0 L267 0 L353 632 L514 632 L532 748 Z" /><glyph glyph-name="" unicode="&#x423;" d="M55 -6 Q64 -10 77 -12 Q90 -14 96 -14 Q195 -16 326 167 Q457 351 605 748 L476 754 Q426 617 380 512 Q335 407 292 322 L199 754 L66 748 L200 208 Q156 156 118 130 Q80 105 49 105 L55 -6 Z" /><glyph glyph-name="" unicode="&#x424;" d="M395 0 L406 82 L469 82 Q575 86 654 181 Q732 277 736 420 Q735 528 684 597 Q634 667 552 669 L489 669 L500 748 L377 748 L366 669 L303 669 Q197 666 119 576 Q40 486 36 344 Q37 235 88 160 Q139 85 221 82 L283 82 L272 0 L395 0 ZM520 548 Q563 547 587 506 Q612 466 612 403 Q610 318 571 261 Q531 204 475 202 L426 202 L470 548 L520 548 ZM253 202 Q210 203 185 244 Q160 284 160 347 Q162 432 201 489 Q241 546 297 548 L347 548 L302 202 L253 202 Z" /><glyph glyph-name="" unicode="&#x425;" d="M455 754 Q422 682 389 615 Q355 548 323 492 L250 754 L105 748 L233 394 Q157 293 89 194 Q22 95 -28 0 L120 -6 Q150 54 190 127 Q230 200 287 283 L371 -6 L517 0 L378 378 Q447 472 499 562 Q550 651 596 748 L455 754 Z" /><glyph glyph-name="" unicode="&#x426;" d="M534 -153 L574 116 L512 116 L598 748 L468 748 L382 116 L183 116 L270 748 L141 748 L36 0 L446 0 L424 -162 L534 -153 Z" /><glyph glyph-name="" unicode="&#x427;" d="M375 378 Q347 366 324 362 Q301 357 273 357 Q241 357 220 382 Q200 406 199 453 Q199 470 201 484 Q202 498 205 518 L238 748 L109 748 L72 494 Q70 482 69 468 Q68 453 68 442 Q69 358 114 299 Q160 240 240 237 Q273 237 301 243 Q328 248 355 257 L320 0 L450 0 L555 748 L425 748 L375 378 Z" /><glyph glyph-name="" unicode="&#x428;" d="M36 0 L732 0 L837 748 L708 748 L622 116 L465 116 L551 748 L428 748 L341 116 L184 116 L270 748 L142 748 L36 0 Z" /><glyph glyph-name="" unicode="&#x430;" d="M420 -6 Q433 -6 448 -2 Q464 1 476 7 L492 105 Q465 105 453 114 Q441 124 441 150 Q441 160 442 172 Q443 184 445 196 L484 485 L375 485 Q356 505 329 515 Q303 525 275 525 Q174 523 111 437 Q48 351 46 204 Q47 105 85 50 Q124 -5 187 -6 Q224 -5 260 15 Q295 35 321 69 L325 69 Q335 31 359 12 Q382 -6 420 -6 L420 -6 ZM169 227 Q170 312 199 360 Q228 407 268 408 Q294 408 312 399 Q330 390 345 371 L322 185 Q305 153 282 132 Q258 111 232 110 Q204 110 187 140 Q169 169 169 227 L169 227 Z" /><glyph glyph-name="" unicode="&#x431;" d="M333 647 Q377 663 405 670 Q433 678 482 696 L475 796 Q418 778 385 769 Q352 760 320 750 Q180 698 114 559 Q48 420 49 234 Q50 114 98 54 Q145 -6 224 -6 Q331 -4 400 80 Q469 164 471 311 Q471 409 427 463 Q384 517 303 518 Q284 518 253 505 Q222 493 203 474 L200 476 Q216 542 252 586 Q287 629 333 647 L333 647 ZM279 408 Q314 408 333 377 Q352 347 352 290 Q351 204 320 154 Q289 104 241 103 Q207 104 187 137 Q167 170 167 228 Q167 260 169 288 Q172 316 177 348 Q196 371 225 389 Q254 407 279 408 L279 408 Z" /><glyph glyph-name="" unicode="&#x432;" d="M455 405 Q456 455 419 491 Q383 527 293 529 Q187 527 119 441 Q51 355 49 209 Q50 107 99 49 Q148 -9 236 -10 Q328 -9 383 40 Q439 88 440 174 Q440 209 426 236 Q413 263 387 278 L388 282 Q420 302 438 334 Q455 366 455 405 L455 405 ZM326 176 Q325 142 303 123 Q281 103 246 103 Q224 101 199 123 Q173 144 171 208 Q198 208 230 214 Q263 219 296 231 Q306 226 316 212 Q325 198 326 176 L326 176 ZM282 424 Q304 424 316 410 Q328 396 328 374 Q324 319 274 303 Q224 286 181 288 Q190 354 219 389 Q248 424 282 424 L282 424 Z" /><glyph glyph-name="" unicode="&#x433;" d="M245 389 Q232 347 144 301 Q56 255 43 127 Q45 62 86 28 Q127 -6 179 -6 Q243 -6 282 8 Q321 21 355 45 L321 150 Q296 134 267 122 Q237 111 205 110 Q189 110 181 122 Q172 133 172 151 Q184 213 272 259 Q359 304 371 414 Q370 469 333 498 Q296 528 236 528 Q207 528 168 516 Q130 503 105 485 L134 394 Q154 408 172 417 Q189 425 204 425 Q222 425 234 417 Q245 409 245 389 L245 389 ZM403 628 L417 709 L182 709 L169 628 L403 628 Z" /><glyph glyph-name="" unicode="&#x434;" d="M169 227 Q170 312 199 360 Q228 407 268 408 Q293 408 311 399 Q328 389 343 371 L320 185 Q304 153 281 132 Q257 111 230 110 Q203 110 186 140 Q169 170 169 227 L169 227 ZM296 20 Q287 -53 255 -76 Q223 -100 191 -98 Q163 -98 135 -89 Q108 -81 82 -64 L51 -168 Q80 -189 114 -201 Q148 -214 189 -214 Q279 -215 340 -154 Q401 -94 420 40 L481 485 L373 485 Q354 505 328 515 Q302 525 275 525 Q174 523 111 437 Q48 351 46 204 Q47 105 85 50 Q124 -5 187 -6 Q215 -6 243 9 Q271 24 295 49 L299 49 L296 20 Z" /><glyph glyph-name="" unicode="&#x435;" d="M449 381 Q449 443 410 485 Q371 526 290 528 Q184 525 116 440 Q48 355 46 220 Q47 112 96 53 Q144 -5 230 -6 Q294 -6 334 7 Q373 20 408 45 L373 150 Q345 133 314 122 Q284 110 242 110 Q215 108 195 128 Q174 147 173 205 Q259 203 350 237 Q442 271 449 381 L449 381 ZM278 420 Q301 420 312 405 Q324 390 324 367 Q322 323 279 304 Q235 285 177 284 Q186 350 214 385 Q243 420 278 420 L278 420 Z" /><glyph glyph-name="" unicode="&#x436;" d="M159 298 Q116 234 96 170 Q75 106 16 101 L10 5 Q22 0 37 -3 Q53 -6 69 -6 Q137 1 169 83 Q201 164 244 237 L300 237 L267 0 L388 0 L421 237 L476 237 Q507 166 529 84 Q551 1 621 -6 Q634 -6 650 -2 Q666 1 678 7 L685 105 Q627 109 615 165 Q604 222 572 282 L644 396 Q655 415 670 424 Q684 433 708 433 L718 518 Q706 524 691 528 Q675 531 662 531 Q624 531 597 512 Q570 493 554 462 L480 318 L433 318 L462 520 L342 520 L313 318 L260 318 L224 456 Q216 491 194 511 Q173 531 133 531 Q120 531 104 528 Q87 524 73 518 L63 438 Q89 438 105 430 Q121 421 128 397 L159 298 Z" /><glyph glyph-name="" unicode="&#x437;" d="M227 427 Q258 427 272 413 Q286 399 286 373 Q286 343 266 322 Q246 301 212 300 L178 300 L165 232 L200 232 Q233 231 250 213 Q267 196 267 170 Q266 134 240 113 Q214 92 181 92 Q155 92 128 102 Q100 111 71 133 L21 42 Q49 22 92 6 Q135 -9 176 -10 Q279 -9 335 39 Q390 86 391 169 Q391 205 376 232 Q361 258 333 274 L333 278 Q370 299 389 333 Q407 366 407 409 Q407 457 369 492 Q330 526 253 528 Q213 528 168 518 Q123 507 82 487 L74 359 L155 359 L173 415 Q186 422 200 424 Q214 427 227 427 L227 427 Z" /><glyph glyph-name="" unicode="&#x438;" d="M233 519 L111 519 L72 233 Q69 210 68 191 Q66 172 66 155 Q69 60 109 26 Q150 -8 197 -6 Q233 -5 269 15 Q305 35 331 69 L335 69 Q345 31 369 12 Q392 -6 429 -6 Q442 -6 458 -2 Q474 1 486 7 L502 105 Q474 105 462 114 Q451 124 451 150 Q451 160 452 172 Q453 184 455 196 L498 519 L377 519 L331 184 Q315 154 292 132 Q268 111 241 110 Q223 108 207 123 Q191 138 190 190 Q190 198 190 207 Q191 216 192 226 L233 519 Z" /><glyph glyph-name="" unicode="&#x43a;" d="M435 396 Q446 415 463 424 Q479 433 508 433 L505 518 Q493 524 478 528 Q462 531 449 531 Q412 531 386 512 Q361 493 345 462 L271 318 L217 318 L245 519 L125 519 L51 0 L172 0 L205 237 L265 237 Q296 165 316 83 Q335 1 406 -6 Q419 -6 434 -2 Q450 1 462 7 L476 105 Q419 109 409 165 Q400 222 369 282 L435 396 Z" /><glyph glyph-name="" unicode="&#x43b;" d="M279 411 L369 411 L313 0 L435 0 L508 519 L125 519 L112 448 L169 431 L132 246 Q115 163 87 132 Q58 100 10 102 L14 5 Q28 -3 45 -7 Q62 -10 71 -10 Q130 -9 174 51 Q218 110 239 211 L279 411 Z" /><glyph glyph-name="" unicode="&#x43c;" d="M630 525 L497 519 L356 232 L352 232 L293 525 L123 519 L111 448 L168 432 L105 189 Q93 146 68 125 Q43 104 11 104 L16 5 Q30 -3 46 -7 Q63 -10 73 -10 Q119 -9 157 32 Q194 72 209 138 L245 313 L250 313 L297 44 L348 44 L475 312 L479 312 L462 160 Q460 140 458 127 Q457 115 457 101 Q458 44 484 19 Q510 -7 554 -6 Q568 -6 585 -2 Q603 1 616 7 L633 105 Q604 105 593 114 Q582 124 582 150 Q582 160 583 172 Q584 184 585 196 L630 525 Z" /><glyph glyph-name="" unicode="&#x43d;" d="M246 519 L124 519 L51 0 L172 0 L205 241 L349 241 L345 193 Q339 156 339 124 Q339 56 365 25 Q390 -6 441 -6 Q454 -6 470 -2 Q485 1 497 7 L514 105 Q487 105 475 114 Q463 124 463 150 Q463 160 464 172 Q465 184 467 196 L510 519 L389 519 L363 330 L219 330 L246 519 Z" /><glyph glyph-name="" unicode="&#x43e;" d="M295 525 Q187 524 118 441 Q48 358 46 212 Q47 114 93 55 Q139 -4 221 -6 Q329 -4 399 80 Q469 165 471 310 Q470 409 424 466 Q377 524 295 525 L295 525 ZM280 416 Q313 415 331 383 Q349 351 349 295 Q348 209 316 157 Q285 104 238 103 Q206 103 187 135 Q168 166 168 223 Q169 309 201 362 Q233 415 280 416 L280 416 Z" /><glyph glyph-name="" unicode="&#x43f;" d="M484 628 L498 709 L160 709 L146 628 L484 628 ZM233 519 L111 519 L72 233 Q69 210 68 191 Q66 172 66 155 Q69 60 109 26 Q150 -8 197 -6 Q233 -5 269 15 Q305 35 331 69 L335 69 Q345 31 369 12 Q392 -6 429 -6 Q442 -6 458 -2 Q474 1 486 7 L502 105 Q474 105 462 114 Q451 124 451 150 Q451 160 452 172 Q453 184 455 196 L498 519 L377 519 L331 184 Q315 154 292 132 Q268 111 241 110 Q223 108 207 123 Q191 138 190 190 Q190 198 190 207 Q191 216 192 226 L233 519 Z" /><glyph glyph-name="" unicode="&#x440;" d="M124 519 L20 -214 L142 -208 L177 41 L180 42 Q198 19 218 6 Q238 -6 258 -6 Q362 -4 427 81 Q491 167 493 315 Q492 414 452 469 Q412 524 349 525 Q322 525 293 506 Q263 488 233 453 L229 453 L237 519 L124 519 ZM300 409 Q332 409 351 378 Q370 347 370 292 Q369 207 338 159 Q307 111 265 110 Q245 110 227 123 Q209 137 195 160 L218 337 Q234 370 256 390 Q277 409 300 409 L300 409 Z" /><glyph glyph-name="" unicode="&#x441;" d="M292 525 Q183 523 115 444 Q48 365 46 226 Q47 115 96 55 Q146 -5 233 -6 Q269 -7 312 10 Q354 26 399 66 L351 157 Q318 128 290 119 Q262 109 244 110 Q211 110 190 141 Q170 172 169 233 Q170 314 202 361 Q233 407 279 408 Q293 408 304 405 Q316 401 326 396 L323 309 L403 309 L430 474 Q403 498 371 512 Q339 525 292 525 L292 525 Z" /><glyph glyph-name="" unicode="&#x442;" d="M709 628 L723 709 L160 709 L145 628 L709 628 ZM233 519 L111 519 L72 233 Q69 210 68 191 Q66 172 66 155 Q69 60 109 26 Q150 -8 197 -6 Q228 -6 261 15 Q294 35 326 80 L330 80 Q348 30 380 12 Q412 -7 446 -6 Q478 -5 510 15 Q542 35 564 69 L568 69 Q578 31 602 12 Q625 -6 663 -6 Q676 -6 691 -2 Q707 1 719 7 L735 105 Q708 105 696 114 Q684 124 684 150 Q684 160 685 172 Q687 184 689 196 L732 519 L611 519 L565 184 Q551 154 529 132 Q508 111 483 110 Q467 108 454 123 Q440 138 439 190 Q439 198 440 207 Q440 216 441 226 L483 519 L361 519 L324 243 Q319 203 319 182 Q302 150 279 130 Q256 111 230 110 Q217 108 204 123 Q191 138 190 190 Q190 198 190 207 Q191 216 192 226 L233 519 Z" /><glyph glyph-name="" unicode="&#x443;" d="M471 412 Q470 474 447 501 Q423 529 384 528 Q371 528 356 524 Q341 520 329 515 L314 416 Q328 417 337 410 Q347 402 347 379 Q344 336 311 254 Q278 172 250 120 L179 525 L49 519 L157 0 Q123 -55 87 -82 Q51 -109 4 -109 L10 -200 Q22 -207 34 -211 Q46 -214 57 -214 Q179 -193 319 25 Q459 243 471 412 L471 412 Z" /><glyph glyph-name="" unicode="&#x444;" d="M505 795 L384 790 L340 482 L336 482 Q318 503 300 514 Q282 525 262 525 Q166 523 107 435 Q48 346 46 198 Q47 102 84 48 Q120 -5 187 -6 Q207 -6 229 5 Q250 16 273 38 L277 38 L242 -208 L364 -208 L398 38 L402 38 Q438 -6 476 -6 Q572 -4 631 84 Q690 173 692 321 Q691 418 655 471 Q618 524 552 525 Q532 525 511 514 Q489 503 466 482 L462 482 L505 795 ZM170 218 Q171 305 196 356 Q221 408 256 409 Q279 409 294 397 Q309 385 321 365 L295 154 Q277 134 259 122 Q241 110 217 110 Q195 110 183 139 Q170 167 170 218 L170 218 ZM568 300 Q567 215 543 163 Q518 111 482 110 Q459 110 444 122 Q429 134 416 154 L443 365 Q461 385 479 397 Q497 409 521 409 Q543 409 555 380 Q568 352 568 300 L568 300 Z" /><glyph glyph-name="" unicode="&#x445;" d="M287 -6 L424 0 L316 263 Q368 321 407 378 Q447 436 477 519 L345 525 Q324 465 303 426 Q282 386 258 353 L206 525 L78 519 L175 276 Q130 228 81 156 Q32 85 5 0 L130 -6 Q151 54 176 98 Q201 142 231 182 L287 -6 Z" /><glyph glyph-name="" unicode="&#x446;" d="M336 -185 L442 -179 L516 105 Q475 104 456 117 Q438 129 438 167 Q438 185 441 208 L483 519 L362 519 L315 184 Q299 154 276 132 Q252 111 225 110 Q207 108 191 123 Q175 138 174 190 Q174 198 174 207 Q175 216 177 226 L217 519 L95 519 L56 233 Q53 211 52 191 Q50 172 50 155 Q53 60 94 26 Q135 -8 181 -6 Q217 -6 254 14 Q291 34 324 73 L328 73 Q337 45 351 28 Q364 10 385 5 L336 -185 Z" /><glyph glyph-name="" unicode="&#x447;" d="M64 383 Q61 364 60 348 Q59 331 59 316 Q61 226 96 190 Q132 155 181 156 Q209 156 233 165 Q257 174 286 191 L260 0 L381 0 L455 519 L333 519 L302 289 Q280 276 263 271 Q246 266 231 266 Q207 265 190 279 Q174 294 173 334 Q173 342 175 355 Q176 367 177 379 L198 519 L83 519 L64 383 Z" /><glyph glyph-name="" unicode="&#x448;" d="M222 519 L101 519 L61 233 Q58 211 57 191 Q55 172 55 155 Q58 60 99 26 Q140 -8 186 -6 Q217 -6 250 15 Q283 35 315 80 L319 80 Q337 30 369 12 Q402 -7 436 -6 Q468 -5 500 15 Q531 35 554 69 L558 69 Q568 31 591 12 Q615 -6 652 -6 Q665 -6 681 -2 Q696 1 708 7 L724 105 Q697 105 685 114 Q674 124 674 150 Q674 160 675 172 Q676 184 678 196 L721 519 L600 519 L555 184 Q540 154 519 132 Q497 111 473 110 Q456 108 443 123 Q429 138 428 190 Q428 198 429 207 Q430 216 431 226 L472 519 L351 519 L314 243 Q308 203 308 182 Q292 150 269 130 Q247 111 220 110 Q206 108 193 123 Q180 138 179 190 Q179 198 180 207 Q181 216 182 226 L222 519 Z" /><glyph glyph-name="" unicode="&#x453;" d="M246 389 Q233 347 145 301 Q56 255 43 127 Q45 62 86 28 Q127 -6 180 -6 Q244 -6 282 8 Q321 21 356 45 L321 150 Q297 134 268 122 Q238 111 205 110 Q191 110 182 122 Q173 133 173 151 Q185 213 273 259 Q360 304 372 414 Q371 469 334 498 Q296 528 236 528 Q207 528 168 516 Q130 503 105 485 L134 394 Q155 408 173 417 Q190 425 204 425 Q223 425 234 417 Q246 409 246 389 L246 389 ZM187 585 L287 585 L405 743 L276 743 L187 585 Z" /><glyph glyph-name="" unicode="&#x455;" d="M236 146 Q236 120 224 107 Q211 95 188 95 Q166 95 136 109 Q106 123 73 158 L17 69 Q64 22 106 6 Q149 -10 185 -9 Q266 -10 314 31 Q362 71 363 159 Q352 267 274 300 Q195 333 184 376 Q185 405 203 416 Q222 427 246 427 Q255 427 266 424 Q276 421 289 414 L286 359 L368 359 L389 486 Q352 507 314 518 Q276 528 240 528 Q144 526 103 479 Q62 432 63 363 Q74 256 150 222 Q225 189 236 146 L236 146 Z" /><glyph glyph-name="" unicode="&#x458;" d="M73 -3 Q63 -66 32 -85 Q1 -105 -36 -103 L-32 -203 Q-20 -209 -7 -211 Q6 -214 18 -214 Q68 -216 121 -171 Q173 -126 193 -11 L266 519 L145 519 L73 -3 ZM150 670 Q151 639 168 620 Q185 600 211 599 Q249 600 274 627 Q298 655 299 694 Q298 725 281 745 Q264 765 237 766 Q199 765 175 737 Q151 709 150 670 L150 670 Z" /><glyph glyph-name="" unicode="&#x459;" d="M511 241 Q531 240 542 223 Q553 205 553 177 Q552 136 530 116 Q509 95 483 95 Q465 95 457 104 Q448 114 448 137 Q448 142 449 150 Q449 157 450 165 L460 241 L511 241 ZM125 519 L112 448 L169 431 L132 246 Q115 163 87 132 Q58 100 10 102 L14 5 Q28 -3 45 -7 Q62 -10 71 -10 Q130 -9 174 51 Q218 110 239 211 L279 411 L359 411 L334 195 Q332 175 330 157 Q328 140 328 124 Q328 58 354 26 Q380 -6 435 -6 Q554 -4 609 53 Q664 110 663 192 Q663 254 633 291 Q603 329 547 330 L472 330 L499 519 L125 519 Z" /><glyph glyph-name="" unicode="&#x45a;" d="M466 330 L492 519 L371 519 L345 330 L219 330 L246 519 L124 519 L51 0 L172 0 L205 241 L331 241 L326 193 Q324 174 322 157 Q320 140 320 124 Q320 58 347 26 Q373 -6 428 -6 Q547 -4 603 53 Q658 110 657 192 Q657 254 627 291 Q597 329 541 330 L466 330 ZM477 95 Q459 95 450 104 Q441 114 441 137 Q441 143 442 151 Q443 160 444 168 L454 241 L505 241 Q524 240 535 223 Q546 205 546 177 Q545 136 524 116 Q502 95 477 95 L477 95 Z" /><glyph glyph-name="" unicode="&#x45c;" d="M279 585 L379 585 L497 743 L367 743 L279 585 ZM435 396 Q446 415 463 424 Q479 433 508 433 L505 518 Q493 524 478 528 Q462 531 449 531 Q412 531 386 512 Q361 493 345 462 L271 318 L217 318 L245 519 L125 519 L51 0 L172 0 L205 237 L265 237 Q296 165 316 83 Q335 1 406 -6 Q419 -6 434 -2 Q450 1 462 7 L476 105 Q419 109 409 165 Q400 222 369 282 L435 396 Z" /><glyph glyph-name="" unicode="&#x45f;" d="M162 -214 L273 -208 L289 -36 L192 -60 L162 -214 ZM217 519 L95 519 L56 233 Q53 211 52 191 Q50 172 50 155 Q53 60 94 26 Q135 -8 181 -6 Q218 -5 254 15 Q289 35 315 69 L319 69 Q329 31 353 12 Q376 -6 414 -6 Q427 -6 442 -2 Q458 1 470 7 L486 105 Q459 105 447 114 Q435 124 435 150 Q435 160 436 172 Q437 184 439 196 L483 519 L362 519 L315 184 Q299 154 276 132 Q252 111 225 110 Q207 108 191 123 Q175 138 174 190 Q174 198 174 207 Q175 216 177 226 L217 519 Z" /><glyph glyph-name="" unicode="¤" d="M193 332 Q195 402 230 450 Q266 498 314 500 Q351 499 373 464 Q395 429 396 376 Q394 306 359 258 Q324 211 276 209 Q239 210 216 245 Q194 279 193 332 L193 332 ZM102 73 L165 145 Q184 125 208 115 Q231 104 259 104 Q287 104 313 115 Q340 125 364 145 L409 73 L482 145 L438 216 Q461 255 475 299 Q488 343 488 392 Q488 418 484 444 Q481 470 474 491 L540 563 L488 635 L425 563 Q405 583 381 594 Q358 605 331 605 Q302 605 275 594 Q249 583 225 563 L181 635 L107 563 L152 491 Q129 451 115 408 Q102 365 102 316 Q102 289 106 263 Q109 237 115 217 L50 145 L102 73 Z" /><glyph glyph-name="" unicode="&#x400;" d="M369 953 L240 953 L311 795 L411 795 L369 953 ZM145 748 L40 0 L458 0 L477 116 L185 116 L215 332 L468 332 L486 445 L233 445 L258 632 L542 632 L561 748 L145 748 Z" /><glyph glyph-name="" unicode="&#x40d;" d="M467 473 L471 471 L403 0 L532 0 L637 748 L556 748 L206 266 L203 268 L271 748 L142 748 L37 0 L121 0 L467 473 ZM433 954 L304 954 L376 796 L475 796 L433 954 Z" /><glyph glyph-name="" unicode="&#x450;" d="M299 743 L170 743 L243 585 L342 585 L299 743 ZM439 381 Q439 443 400 483 Q361 524 280 525 Q174 523 106 439 Q39 355 37 209 Q38 107 86 51 Q133 -5 219 -6 Q268 -6 310 7 Q352 20 388 45 L367 136 Q337 117 303 107 Q269 96 236 96 Q198 95 178 118 Q158 141 158 205 Q244 202 338 236 Q431 270 439 381 L439 381 ZM270 424 Q292 424 304 409 Q316 394 316 371 Q314 328 270 309 Q226 289 168 288 Q177 355 206 389 Q234 424 270 424 L270 424 Z" /><glyph glyph-name="" unicode="&#x45d;" d="M297 743 L167 743 L239 585 L339 585 L297 743 ZM217 519 L95 519 L56 233 Q53 211 52 191 Q50 172 50 155 Q53 60 94 26 Q135 -8 181 -6 Q218 -5 254 15 Q289 35 315 69 L319 69 Q329 31 353 12 Q376 -6 414 -6 Q427 -6 442 -2 Q458 1 470 7 L486 105 Q459 105 447 114 Q435 124 435 150 Q435 160 436 172 Q437 184 439 196 L483 519 L362 519 L315 184 Q299 154 276 132 Q252 111 225 110 Q207 108 191 123 Q175 138 174 190 Q174 198 174 207 Q175 216 177 226 L217 519 Z" /><glyph glyph-name="" unicode="" d="" /><glyph glyph-name="" unicode="é" d="M440 381 Q440 443 401 485 Q362 526 281 528 Q175 525 107 440 Q39 355 37 220 Q38 112 87 53 Q135 -5 221 -6 Q285 -6 325 7 Q364 20 399 45 L364 149 Q336 132 305 121 Q275 110 233 110 Q206 108 186 128 Q165 147 164 205 Q250 203 341 237 Q433 271 440 381 L440 381 ZM269 421 Q292 420 303 405 Q315 390 315 367 Q313 323 270 304 Q226 285 168 284 Q177 350 205 386 Q234 421 269 421 L269 421 ZM219 585 L318 585 L436 743 L307 743 L219 585 Z" /><glyph glyph-name="" unicode="è" d="M440 381 Q440 443 401 485 Q362 526 281 528 Q175 525 107 440 Q39 355 37 220 Q38 112 87 53 Q135 -5 221 -6 Q285 -6 325 7 Q364 20 399 45 L364 149 Q336 132 305 121 Q275 110 233 110 Q206 108 186 128 Q165 147 164 205 Q250 203 341 237 Q433 271 440 381 L440 381 ZM269 421 Q292 420 303 405 Q315 390 315 367 Q313 323 270 304 Q226 285 168 284 Q177 350 205 386 Q234 421 269 421 L269 421 ZM336 743 L207 743 L279 585 L378 585 L336 743 Z" /><glyph glyph-name="" unicode="ê" d="M440 381 Q440 443 401 485 Q362 526 281 528 Q175 525 107 440 Q39 355 37 220 Q38 112 87 53 Q135 -5 221 -6 Q285 -6 325 7 Q364 20 399 45 L364 149 Q336 132 305 121 Q275 110 233 110 Q206 108 186 128 Q165 147 164 205 Q250 203 341 237 Q433 271 440 381 L440 381 ZM269 421 Q292 420 303 405 Q315 390 315 367 Q313 323 270 304 Q226 285 168 284 Q177 350 205 386 Q234 421 269 421 L269 421 ZM369 743 L267 743 L165 585 L245 585 L305 665 L346 585 L425 585 L369 743 Z" /><glyph glyph-name="" unicode="ó" d="M287 525 Q177 524 108 441 Q38 359 36 211 Q37 114 83 55 Q130 -4 211 -6 Q319 -4 389 80 Q459 164 461 311 Q460 408 414 466 Q368 524 287 525 L287 525 ZM268 417 Q302 416 320 383 Q339 350 339 292 Q338 207 307 155 Q276 103 229 102 Q196 102 177 135 Q158 167 158 225 Q159 311 191 363 Q222 416 268 417 L268 417 ZM221 585 L320 585 L438 743 L309 743 L221 585 Z" /><glyph glyph-name="" unicode="ò" d="M287 525 Q177 524 108 441 Q38 359 36 211 Q37 114 83 55 Q130 -4 211 -6 Q319 -4 389 80 Q459 164 461 311 Q460 408 414 466 Q368 524 287 525 L287 525 ZM268 417 Q302 416 320 383 Q339 350 339 292 Q338 207 307 155 Q276 103 229 102 Q196 102 177 135 Q158 167 158 225 Q159 311 191 363 Q222 416 268 417 L268 417 ZM303 743 L174 743 L246 585 L345 585 L303 743 Z" /><glyph glyph-name="" unicode="ô" d="M287 525 Q177 524 108 441 Q38 359 36 211 Q37 114 83 55 Q130 -4 211 -6 Q319 -4 389 80 Q459 164 461 311 Q460 408 414 466 Q368 524 287 525 L287 525 ZM268 417 Q302 416 320 383 Q339 350 339 292 Q338 207 307 155 Q276 103 229 102 Q196 102 177 135 Q158 167 158 225 Q159 311 191 363 Q222 416 268 417 L268 417 ZM365 743 L263 743 L161 585 L241 585 L301 665 L342 585 L421 585 L365 743 Z" /><glyph glyph-name="" unicode="ö" d="M287 525 Q177 524 108 441 Q38 359 36 211 Q37 114 83 55 Q130 -4 211 -6 Q319 -4 389 80 Q459 164 461 311 Q460 408 414 466 Q368 524 287 525 L287 525 ZM268 417 Q302 416 320 383 Q339 350 339 292 Q338 207 307 155 Q276 103 229 102 Q196 102 177 135 Q158 167 158 225 Q159 311 191 363 Q222 416 268 417 L268 417 ZM180 656 Q180 630 194 612 Q207 594 229 593 Q260 594 281 619 Q302 643 303 678 Q303 705 288 722 Q273 738 250 739 Q224 738 203 714 Q181 690 180 656 L180 656 ZM351 656 Q351 630 364 612 Q377 594 399 593 Q430 594 451 618 Q472 643 473 678 Q472 705 458 722 Q443 738 421 739 Q394 738 373 714 Q352 689 351 656 L351 656 Z" /><glyph glyph-name="" unicode="õ" d="M287 525 Q177 524 108 441 Q38 359 36 211 Q37 114 83 55 Q130 -4 211 -6 Q319 -4 389 80 Q459 164 461 311 Q460 408 414 466 Q368 524 287 525 L287 525 ZM268 417 Q302 416 320 383 Q339 350 339 292 Q338 207 307 155 Q276 103 229 102 Q196 102 177 135 Q158 167 158 225 Q159 311 191 363 Q222 416 268 417 L268 417 ZM455 684 Q437 710 420 718 Q402 726 391 725 Q350 723 325 707 Q301 691 278 689 Q270 689 258 694 Q245 698 231 713 L197 633 Q214 608 232 599 Q249 590 261 591 Q293 593 321 610 Q350 626 373 628 Q381 628 394 623 Q406 618 422 602 L455 684 Z" /><glyph glyph-name="" unicode="í" d="M165 0 L270 748 L141 748 L36 0 L165 0 ZM132 795 L231 795 L349 953 L220 953 L132 795 Z" /><glyph glyph-name="" unicode="î" d="M165 0 L270 748 L141 748 L36 0 L165 0 ZM282 953 L180 953 L78 795 L158 795 L218 875 L259 795 L338 795 L282 953 Z" /><glyph glyph-name="" unicode="ï" d="M165 0 L270 748 L141 748 L36 0 L165 0 ZM72 867 Q72 841 86 823 Q99 805 121 804 Q152 805 173 830 Q194 854 195 889 Q195 916 180 933 Q165 949 142 950 Q116 949 95 925 Q73 901 72 867 L72 867 ZM243 867 Q243 841 256 823 Q269 805 291 804 Q322 805 343 829 Q364 854 365 889 Q364 916 350 933 Q335 949 313 950 Q286 949 265 925 Q244 900 243 867 L243 867 Z" /><glyph glyph-name="" unicode="ì" d="M165 0 L270 748 L141 748 L36 0 L165 0 ZM226 954 L97 954 L169 796 L268 796 L226 954 Z" /><glyph glyph-name="" unicode="&#xf8ff;" d="M645 530 L727 585 Q730 587 733 588 Q735 589 739 589 Q745 589 750 585 Q754 582 754 575 Q754 573 753 570 Q751 566 749 564 L714 530 L831 530 Q837 530 842 525 Q846 521 846 514 Q846 507 842 504 Q837 500 831 500 L750 500 L754 487 L867 487 Q874 487 877 483 Q881 478 881 473 Q881 465 877 461 Q874 457 867 457 L759 457 L759 443 L844 443 Q850 443 855 439 Q859 436 859 429 Q859 422 855 418 Q850 413 844 413 L754 413 L750 401 L820 401 Q825 401 830 396 Q834 392 834 385 Q834 379 830 375 Q825 370 820 370 L643 370 L643 85 L476 85 L476 370 L299 370 Q294 370 289 375 Q285 379 285 385 Q285 392 289 396 Q294 401 299 401 L369 401 L364 413 L275 413 Q269 413 265 418 Q260 422 260 429 Q260 436 265 439 Q269 443 275 443 L360 443 L360 457 L252 457 Q246 457 242 461 Q238 465 238 473 Q238 478 242 483 Q246 487 252 487 L364 487 L369 500 L288 500 Q282 500 278 504 Q273 507 273 514 Q273 521 278 525 Q282 530 288 530 L405 530 L370 564 Q368 566 366 570 Q365 573 365 575 Q365 582 370 585 Q374 589 380 589 Q388 589 392 585 L474 530 L645 530 ZM919 39 Q924 39 927 36 Q930 33 930 28 Q930 23 927 20 Q924 17 919 17 L905 17 L905 39 L919 39 ZM146 376 Q150 201 267 84 Q384 -33 559 -37 Q734 -33 851 84 Q968 201 972 376 Q968 551 851 668 Q734 785 559 789 Q384 785 267 668 Q150 551 146 376 L146 376 ZM863 17 Q864 -6 879 -21 Q894 -36 917 -37 Q940 -36 956 -21 Q971 -6 972 17 Q971 40 956 56 Q940 71 917 72 Q894 71 879 56 Q864 40 863 17 L863 17 ZM871 17 Q872 36 885 50 Q898 63 917 64 Q936 63 950 50 Q963 36 964 17 Q963 -2 950 -15 Q936 -28 917 -29 Q898 -28 885 -15 Q872 -2 871 17 L871 17 ZM930 -11 L941 -11 L925 9 Q931 11 935 16 Q939 21 939 28 Q939 36 933 42 Q927 48 919 48 L896 48 L896 -11 L905 -11 L905 8 L915 8 L930 -11 Z" /><glyph glyph-name="" unicode="í" d="M228 519 L109 519 L64 193 Q60 166 59 147 Q57 128 57 117 Q58 46 88 20 Q117 -7 160 -6 Q173 -6 189 -2 Q204 1 217 7 L233 105 Q206 105 194 114 Q182 124 182 150 Q182 160 183 172 Q184 184 186 196 L228 519 ZM94 585 L193 585 L311 743 L182 743 L94 585 Z" /><glyph glyph-name="" unicode="ì" d="M229 519 L110 519 L65 193 Q61 166 60 147 Q58 128 58 117 Q59 46 89 20 Q118 -7 161 -6 Q174 -6 190 -2 Q205 1 218 7 L234 105 Q207 105 195 114 Q183 124 183 150 Q183 160 184 172 Q185 184 187 196 L229 519 ZM183 743 L54 743 L126 585 L225 585 L183 743 Z" /><glyph glyph-name="" unicode="î" d="M229 519 L110 519 L65 193 Q61 166 60 147 Q58 128 58 117 Q59 46 89 20 Q118 -7 161 -6 Q174 -6 190 -2 Q205 1 218 7 L234 105 Q207 105 195 114 Q183 124 183 150 Q183 160 184 172 Q185 184 187 196 L229 519 ZM250 743 L148 743 L46 585 L126 585 L186 665 L227 585 L306 585 L250 743 Z" /><glyph glyph-name="" unicode="ï" d="M229 519 L110 519 L65 193 Q61 166 60 147 Q58 128 58 117 Q59 46 89 20 Q118 -7 161 -6 Q174 -6 190 -2 Q205 1 218 7 L234 105 Q207 105 195 114 Q183 124 183 150 Q183 160 184 172 Q185 184 187 196 L229 519 ZM44 656 Q44 630 58 612 Q71 594 93 593 Q124 594 145 619 Q166 643 167 678 Q167 705 152 722 Q137 738 114 739 Q88 738 67 714 Q45 690 44 656 L44 656 ZM215 656 Q215 630 228 612 Q241 594 263 593 Q294 594 315 618 Q336 643 337 678 Q336 705 322 722 Q307 738 285 739 Q258 738 237 714 Q216 689 215 656 L215 656 Z" /><glyph glyph-name="" unicode="á" d="M412 -6 Q425 -6 440 -2 Q456 1 468 7 L484 105 Q456 105 444 114 Q433 124 433 150 Q433 160 434 172 Q435 184 436 196 L475 485 L367 485 Q347 505 321 515 Q294 525 267 525 Q165 523 103 437 Q40 351 38 204 Q39 105 77 50 Q116 -5 179 -6 Q216 -5 252 15 Q287 35 313 69 L317 69 Q327 31 351 12 Q374 -6 412 -6 L412 -6 ZM161 227 Q162 312 191 360 Q220 408 260 409 Q286 409 303 401 Q321 392 337 373 L314 185 Q297 153 273 132 Q250 111 223 110 Q196 110 179 140 Q162 169 161 227 L161 227 ZM256 585 L355 585 L473 743 L344 743 L256 585 Z" /><glyph glyph-name="" unicode="à" d="M412 -6 Q425 -6 440 -2 Q456 1 468 7 L484 105 Q456 105 444 114 Q433 124 433 150 Q433 160 434 172 Q435 184 436 196 L475 485 L367 485 Q347 505 321 515 Q294 525 267 525 Q165 523 103 437 Q40 351 38 204 Q39 105 77 50 Q116 -5 179 -6 Q216 -5 252 15 Q287 35 313 69 L317 69 Q327 31 351 12 Q374 -6 412 -6 L412 -6 ZM161 227 Q162 312 191 360 Q220 408 260 409 Q286 409 303 401 Q321 392 337 373 L314 185 Q297 153 273 132 Q250 111 223 110 Q196 110 179 140 Q162 169 161 227 L161 227 ZM329 743 L200 743 L272 585 L371 585 L329 743 Z" /><glyph glyph-name="" unicode="â" d="M412 -6 Q425 -6 440 -2 Q456 1 468 7 L484 105 Q456 105 444 114 Q433 124 433 150 Q433 160 434 172 Q435 184 436 196 L475 485 L367 485 Q347 505 321 515 Q294 525 267 525 Q165 523 103 437 Q40 351 38 204 Q39 105 77 50 Q116 -5 179 -6 Q216 -5 252 15 Q287 35 313 69 L317 69 Q327 31 351 12 Q374 -6 412 -6 L412 -6 ZM161 227 Q162 312 191 360 Q220 408 260 409 Q286 409 303 401 Q321 392 337 373 L314 185 Q297 153 273 132 Q250 111 223 110 Q196 110 179 140 Q162 169 161 227 L161 227 ZM390 743 L288 743 L186 585 L266 585 L326 665 L367 585 L446 585 L390 743 Z" /><glyph glyph-name="" unicode="ä" d="M412 -6 Q425 -6 440 -2 Q456 1 468 7 L484 105 Q456 105 444 114 Q433 124 433 150 Q433 160 434 172 Q435 184 436 196 L475 485 L367 485 Q347 505 321 515 Q294 525 267 525 Q165 523 103 437 Q40 351 38 204 Q39 105 77 50 Q116 -5 179 -6 Q216 -5 252 15 Q287 35 313 69 L317 69 Q327 31 351 12 Q374 -6 412 -6 L412 -6 ZM161 227 Q162 312 191 360 Q220 408 260 409 Q286 409 303 401 Q321 392 337 373 L314 185 Q297 153 273 132 Q250 111 223 110 Q196 110 179 140 Q162 169 161 227 L161 227 ZM171 656 Q171 630 185 612 Q198 594 220 593 Q251 594 272 619 Q293 643 294 678 Q294 705 279 722 Q264 738 241 739 Q215 738 194 714 Q172 690 171 656 L171 656 ZM342 656 Q342 630 355 612 Q368 594 390 593 Q421 594 442 618 Q463 643 464 678 Q463 705 449 722 Q434 738 412 739 Q385 738 364 714 Q343 689 342 656 L342 656 Z" /><glyph glyph-name="" unicode="ã" d="M412 -6 Q425 -6 440 -2 Q456 1 468 7 L484 105 Q456 105 444 114 Q433 124 433 150 Q433 160 434 172 Q435 184 436 196 L475 485 L367 485 Q347 505 321 515 Q294 525 267 525 Q165 523 103 437 Q40 351 38 204 Q39 105 77 50 Q116 -5 179 -6 Q216 -5 252 15 Q287 35 313 69 L317 69 Q327 31 351 12 Q374 -6 412 -6 L412 -6 ZM161 227 Q162 312 191 360 Q220 408 260 409 Q286 409 303 401 Q321 392 337 373 L314 185 Q297 153 273 132 Q250 111 223 110 Q196 110 179 140 Q162 169 161 227 L161 227 ZM450 684 Q432 710 415 718 Q397 726 386 725 Q345 723 320 707 Q296 691 273 689 Q265 689 253 694 Q240 698 226 713 L192 633 Q209 608 227 599 Q244 590 256 591 Q288 593 316 610 Q345 626 368 628 Q376 628 389 623 Q401 618 417 602 L450 684 Z" /><glyph glyph-name="" unicode="å" d="M412 -6 Q425 -6 440 -2 Q456 1 468 7 L484 105 Q456 105 444 114 Q433 124 433 150 Q433 160 434 172 Q435 184 436 196 L475 485 L367 485 Q347 505 321 515 Q294 525 267 525 Q165 523 103 437 Q40 351 38 204 Q39 105 77 50 Q116 -5 179 -6 Q216 -5 252 15 Q287 35 313 69 L317 69 Q327 31 351 12 Q374 -6 412 -6 L412 -6 ZM161 227 Q162 312 191 360 Q220 408 260 409 Q286 409 303 401 Q321 392 337 373 L314 185 Q297 153 273 132 Q250 111 223 110 Q196 110 179 140 Q162 169 161 227 L161 227 ZM239 645 Q240 608 258 586 Q276 564 306 564 Q346 565 375 596 Q403 627 404 677 Q404 715 386 737 Q367 759 337 759 Q297 758 269 727 Q240 695 239 645 L239 645 ZM290 653 Q290 675 302 691 Q313 706 329 707 Q340 707 347 696 Q354 685 354 669 Q353 647 342 632 Q331 617 315 616 Q304 616 297 627 Q290 638 290 653 L290 653 Z" /><glyph glyph-name="" unicode="ú" d="M217 519 L95 519 L56 233 Q53 211 52 191 Q50 172 50 155 Q53 60 94 26 Q135 -8 181 -6 Q218 -5 254 15 Q289 35 315 69 L319 69 Q329 31 353 12 Q376 -6 414 -6 Q427 -6 442 -2 Q458 1 470 7 L486 105 Q459 105 447 114 Q435 124 435 150 Q435 160 436 172 Q437 184 439 196 L483 519 L362 519 L315 184 Q299 154 276 132 Q252 111 225 110 Q207 108 191 123 Q175 138 174 190 Q174 198 174 207 Q175 216 177 226 L217 519 ZM245 585 L344 585 L462 743 L333 743 L245 585 Z" /><glyph glyph-name="" unicode="ù" d="M217 519 L95 519 L56 233 Q53 211 52 191 Q50 172 50 155 Q53 60 94 26 Q135 -8 181 -6 Q218 -5 254 15 Q289 35 315 69 L319 69 Q329 31 353 12 Q376 -6 414 -6 Q427 -6 442 -2 Q458 1 470 7 L486 105 Q459 105 447 114 Q435 124 435 150 Q435 160 436 172 Q437 184 439 196 L483 519 L362 519 L315 184 Q299 154 276 132 Q252 111 225 110 Q207 108 191 123 Q175 138 174 190 Q174 198 174 207 Q175 216 177 226 L217 519 ZM317 743 L188 743 L260 585 L359 585 L317 743 Z" /><glyph glyph-name="" unicode="û" d="M217 519 L95 519 L56 233 Q53 211 52 191 Q50 172 50 155 Q53 60 94 26 Q135 -8 181 -6 Q218 -5 254 15 Q289 35 315 69 L319 69 Q329 31 353 12 Q376 -6 414 -6 Q427 -6 442 -2 Q458 1 470 7 L486 105 Q459 105 447 114 Q435 124 435 150 Q435 160 436 172 Q437 184 439 196 L483 519 L362 519 L315 184 Q299 154 276 132 Q252 111 225 110 Q207 108 191 123 Q175 138 174 190 Q174 198 174 207 Q175 216 177 226 L217 519 ZM381 743 L279 743 L177 585 L257 585 L317 665 L358 585 L437 585 L381 743 Z" /><glyph glyph-name="" unicode="ü" d="M217 519 L95 519 L56 233 Q53 211 52 191 Q50 172 50 155 Q53 60 94 26 Q135 -8 181 -6 Q218 -5 254 15 Q289 35 315 69 L319 69 Q329 31 353 12 Q376 -6 414 -6 Q427 -6 442 -2 Q458 1 470 7 L486 105 Q459 105 447 114 Q435 124 435 150 Q435 160 436 172 Q437 184 439 196 L483 519 L362 519 L315 184 Q299 154 276 132 Q252 111 225 110 Q207 108 191 123 Q175 138 174 190 Q174 198 174 207 Q175 216 177 226 L217 519 ZM172 656 Q172 630 186 612 Q199 594 221 593 Q252 594 273 619 Q294 643 295 678 Q295 705 280 722 Q265 738 242 739 Q216 738 195 714 Q173 690 172 656 L172 656 ZM343 656 Q343 630 356 612 Q369 594 391 593 Q422 594 443 618 Q464 643 465 678 Q464 705 450 722 Q435 738 413 739 Q386 738 365 714 Q344 689 343 656 L343 656 Z" /></font>
</defs>
</svg>
