<?xml version="1.0" standalone="no"?><!DOCTYPE svg PUBLIC "-//W3C//DTD SVG 1.1//EN" "http://www.w3.org/Graphics/SVG/1.1/DTD/svg11.dtd" ><svg xmlns="http://www.w3.org/2000/svg"><metadata></metadata><defs><font id="LaskoDzurovski,Totemt.f.: SkolaSansCn Regular Italic: 2009" horiz-adv-x="1120"><font-face font-family="SkolaSansCn" font-weight="400" font-stretch="normal" units-per-em="1000" panose-1="2 0 5 6 4 0 0 9 0 4" ascent="750" descent="-250" x-height="4" bbox="-143 -217 980 975" underline-thickness="50" underline-position="-75" unicode-range="U+0000-fb02" /><missing-glyph horiz-adv-x="429" d="M30 0 L386 0 L490 748 L134 748 L30 0 ZM396 545 Q395 605 365 634 Q335 662 292 662 Q264 663 236 649 Q208 636 174 603 L199 556 Q223 579 240 588 Q258 597 275 597 Q299 597 315 581 Q331 564 332 529 Q330 478 297 442 Q263 405 220 378 L207 254 L254 254 L275 350 Q321 378 358 425 Q394 471 396 545 L396 545 ZM179 125 Q179 107 188 95 Q197 83 212 83 Q231 84 245 100 Q259 116 260 140 Q260 158 251 170 Q241 182 226 182 Q207 181 194 165 Q180 149 179 125 L179 125 ZM161 722 L457 722 L359 28 L63 28 L161 722 Z" /><glyph glyph-name="" unicode="" d="" /><glyph glyph-name="" unicode=" " d="" /><glyph glyph-name="" unicode="!" d="M189 219 L274 748 L195 748 L134 219 L189 219 ZM87 50 Q87 26 98 10 Q110 -5 130 -6 Q155 -5 173 16 Q191 37 192 69 Q192 94 180 109 Q169 125 149 125 Q124 124 106 103 Q88 81 87 50 L87 50 Z" /><glyph glyph-name="" unicode="&quot;" d="M148 748 L84 748 L48 496 L112 496 L148 748 ZM273 748 L209 748 L173 496 L238 496 L273 748 Z" /><glyph glyph-name="" unicode="#" d="M109 455 L181 455 L141 290 L62 290 L53 230 L125 230 L71 0 L123 0 L178 230 L274 230 L220 0 L272 0 L326 230 L405 230 L414 290 L341 290 L381 455 L461 455 L470 515 L397 515 L452 748 L400 748 L345 515 L249 515 L303 748 L252 748 L197 515 L118 515 L109 455 ZM233 455 L330 455 L290 290 L193 290 L233 455 Z" /><glyph glyph-name="" unicode="$" d="M171 -103 L233 -103 L248 3 Q330 14 381 71 Q431 127 432 226 Q417 359 314 409 Q211 459 196 550 Q197 603 226 640 Q256 676 309 678 Q346 678 377 659 Q409 640 439 605 L481 668 Q451 701 420 721 Q389 740 351 745 L366 850 L304 850 L289 744 Q207 732 163 677 Q118 622 117 537 Q131 407 231 358 Q331 308 345 211 Q344 147 312 109 Q280 71 223 70 Q148 70 87 142 L42 80 Q73 44 109 25 Q145 5 186 2 L171 -103 Z" /><glyph glyph-name="" unicode="%" d="M642 748 L588 754 L118 0 L175 -6 L642 748 ZM99 553 Q100 489 130 447 Q161 406 211 404 Q274 406 322 464 Q370 521 372 605 Q371 669 341 711 Q311 752 261 754 Q196 752 149 694 Q101 636 99 553 L99 553 ZM393 143 Q394 79 424 37 Q454 -4 503 -6 Q568 -4 616 54 Q663 111 665 195 Q664 259 634 301 Q604 342 554 344 Q490 342 443 284 Q395 226 393 143 L393 143 ZM161 562 Q162 613 189 650 Q216 688 253 690 Q282 689 296 661 Q311 634 311 595 Q310 544 282 507 Q255 470 219 468 Q190 469 175 496 Q161 523 161 562 L161 562 ZM453 151 Q455 202 482 240 Q510 278 546 280 Q575 279 590 251 Q605 224 605 186 Q604 134 576 97 Q548 60 511 58 Q482 59 468 86 Q453 113 453 151 L453 151 Z" /><glyph glyph-name="" unicode="&amp;" d="M488 417 Q486 334 456 268 Q425 202 378 156 Q345 204 317 258 Q288 313 268 372 Q335 411 388 468 Q441 524 444 616 Q444 673 412 713 Q381 752 322 754 Q245 752 201 697 Q158 641 157 556 Q157 519 162 482 Q168 445 176 408 Q115 370 72 315 Q29 261 27 174 Q28 89 74 42 Q119 -5 190 -6 Q230 -6 274 11 Q318 28 360 61 Q425 -16 485 -61 L527 8 Q504 25 479 50 Q454 75 429 105 Q486 161 522 240 Q559 319 560 417 L488 417 ZM190 66 Q150 67 125 95 Q100 124 99 174 Q100 231 129 270 Q159 309 201 339 Q221 279 249 223 Q276 166 308 118 Q278 94 248 80 Q217 66 190 66 L190 66 ZM231 553 Q231 608 253 644 Q274 681 317 682 Q342 681 358 661 Q374 640 374 611 Q372 551 335 512 Q297 473 244 440 Q238 468 235 497 Q231 525 231 553 L231 553 Z" /><glyph glyph-name="" unicode="&#39;" d="M149 748 L84 748 L48 496 L113 496 L149 748 Z" /><glyph glyph-name="" unicode="(" d="M248 806 Q190 714 133 560 Q76 406 72 178 Q73 69 86 -13 Q99 -94 115 -145 L167 -114 Q154 -69 145 5 Q135 79 134 176 Q138 392 187 539 Q237 687 290 776 L248 806 Z" /><glyph glyph-name="" unicode=")" d="M102 776 Q114 730 124 655 Q134 579 135 481 Q131 261 82 117 Q32 -26 -22 -114 L20 -145 Q79 -55 135 96 Q191 246 195 478 Q194 587 182 671 Q169 755 153 806 L102 776 Z" /><glyph glyph-name="" unicode="*" d="M276 554 L399 592 L395 653 L270 596 L276 554 ZM224 596 L121 653 L94 591 L205 555 L224 596 ZM207 548 L107 429 L142 391 L231 521 L207 548 ZM237 520 L279 391 L327 429 L271 547 L237 520 ZM266 601 L301 754 L249 754 L230 601 L266 601 Z" /><glyph glyph-name="" unicode="+" d="M71 302 L238 302 L207 77 L269 77 L299 302 L465 302 L477 374 L311 374 L342 599 L281 599 L249 374 L83 374 L71 302 Z" /><glyph glyph-name="" unicode="," d="M48 50 Q48 29 58 12 Q68 -4 88 -5 L24 -138 L62 -156 Q91 -114 123 -44 Q154 27 157 71 Q157 96 145 112 Q133 128 113 129 Q87 128 68 105 Q49 83 48 50 L48 50 Z" /><glyph glyph-name="" unicode="-" d="M262 256 L274 328 L73 328 L61 256 L262 256 Z" /><glyph glyph-name="" unicode="." d="M48 51 Q48 26 60 11 Q72 -5 93 -6 Q119 -5 138 17 Q157 39 158 71 Q158 96 146 112 Q134 128 113 129 Q87 128 68 105 Q49 83 48 51 L48 51 Z" /><glyph glyph-name="" unicode="/" d="M376 806 L-24 -204 L39 -204 L439 806 L376 806 Z" /><glyph glyph-name="" unicode="0" d="M304 754 Q181 748 115 600 Q49 451 48 238 Q49 119 95 57 Q140 -6 220 -6 Q343 0 410 149 Q476 297 477 510 Q476 629 430 691 Q384 754 304 754 L304 754 ZM223 66 Q178 66 154 109 Q129 152 129 244 Q133 466 187 574 Q241 682 302 682 Q347 682 371 639 Q395 596 395 504 Q391 282 338 174 Q284 66 223 66 L223 66 Z" /><glyph glyph-name="" unicode="1" d="M27 72 L16 0 L375 0 L386 72 L259 72 L351 748 L287 748 L99 630 L115 577 L251 652 L175 72 L27 72 Z" /><glyph glyph-name="" unicode="2" d="M135 74 L134 77 Q208 187 320 287 Q431 387 442 552 Q442 643 397 698 Q352 753 268 754 Q229 757 180 732 Q132 708 85 626 L136 579 Q164 633 195 658 Q225 682 257 682 Q307 682 332 646 Q356 610 356 542 Q346 407 233 308 Q120 209 22 45 L39 0 L390 0 L402 74 L135 74 Z" /><glyph glyph-name="" unicode="3" d="M186 391 L229 391 Q284 390 314 353 Q344 316 344 249 Q343 167 307 118 Q270 68 206 67 Q167 67 133 86 Q100 104 67 139 L22 73 Q67 31 109 13 Q151 -6 198 -6 Q304 -4 365 66 Q425 137 426 257 Q425 343 383 393 Q342 444 271 451 L270 455 L456 696 L447 748 L125 748 L114 676 L346 676 L348 672 L169 440 L186 391 Z" /><glyph glyph-name="" unicode="4" d="M247 754 Q228 657 174 507 Q120 357 16 205 L30 155 L290 155 L268 0 L349 0 L370 155 L440 155 L450 223 L381 223 L422 525 L346 519 L300 223 L119 223 L118 226 Q203 369 254 509 Q304 649 323 739 L247 754 Z" /><glyph glyph-name="" unicode="5" d="M106 403 L218 403 Q275 403 305 364 Q335 325 335 253 Q334 174 297 121 Q260 68 196 66 Q157 66 125 85 Q92 104 60 138 L16 73 Q60 31 101 13 Q142 -6 188 -6 Q296 -4 356 73 Q417 149 418 269 Q417 371 368 424 Q319 477 239 477 L177 477 L202 674 L417 674 L430 748 L141 748 L93 421 L106 403 Z" /><glyph glyph-name="" unicode="6" d="M306 682 Q341 682 369 667 Q396 651 424 614 L462 675 Q421 722 384 739 Q348 755 309 754 Q184 748 116 600 Q49 451 48 238 Q49 119 96 57 Q143 -6 224 -6 Q320 -3 377 71 Q434 144 435 258 Q434 352 389 410 Q344 467 273 469 Q238 468 205 450 Q172 431 147 401 L142 401 Q162 529 206 605 Q250 680 306 682 L306 682 ZM254 399 Q304 398 331 356 Q357 314 357 249 Q356 180 323 125 Q289 69 235 66 Q184 66 156 106 Q128 147 128 233 Q128 257 129 276 Q130 294 134 322 Q158 360 189 379 Q220 399 254 399 L254 399 Z" /><glyph glyph-name="" unicode="7" d="M431 748 L82 748 L69 676 L351 676 Q305 534 221 346 Q137 157 42 0 L129 -6 Q213 125 307 343 Q402 561 439 702 L431 748 Z" /><glyph glyph-name="" unicode="8" d="M300 755 Q227 755 171 710 Q114 666 111 583 Q112 519 136 479 Q160 439 195 413 Q133 382 87 333 Q40 283 38 196 Q43 75 102 33 Q162 -9 219 -6 Q278 -9 357 41 Q435 91 443 235 Q441 302 409 343 Q377 383 334 410 Q384 440 419 483 Q454 526 455 598 Q450 694 398 726 Q345 758 300 755 L300 755 ZM363 234 Q358 133 309 98 Q260 64 223 66 Q189 64 153 91 Q117 118 114 196 Q116 266 160 306 Q204 345 261 373 Q300 351 330 320 Q361 290 363 234 L363 234 ZM300 688 Q323 689 350 671 Q377 653 379 598 Q378 539 346 505 Q314 472 268 448 Q234 470 212 500 Q190 530 189 583 Q191 633 224 660 Q256 688 300 688 L300 688 Z" /><glyph glyph-name="" unicode="9" d="M203 66 Q168 66 141 81 Q113 97 86 134 L48 73 Q89 26 125 10 Q162 -7 201 -6 Q326 0 393 149 Q461 297 462 510 Q461 629 414 691 Q367 754 285 754 Q189 751 132 678 Q75 604 74 490 Q76 396 121 338 Q166 281 237 279 Q271 280 304 298 Q337 317 363 347 L367 347 Q347 219 303 144 Q259 68 203 66 L203 66 ZM256 349 Q206 350 179 392 Q152 434 152 499 Q153 568 187 624 Q220 679 275 682 Q326 682 353 642 Q381 601 381 515 Q381 491 380 472 Q379 453 375 426 Q351 388 320 369 Q289 349 256 349 L256 349 Z" /><glyph glyph-name="" unicode=":" d="M46 51 Q46 26 59 11 Q72 -5 93 -6 Q120 -5 139 17 Q159 39 160 71 Q160 96 147 112 Q134 128 113 129 Q87 128 67 105 Q47 83 46 51 L46 51 ZM100 447 Q100 422 113 407 Q126 391 147 390 Q174 391 193 413 Q213 435 214 467 Q214 492 201 508 Q188 524 168 525 Q140 524 121 501 Q101 479 100 447 L100 447 Z" /><glyph glyph-name="" unicode=";" d="M107 447 Q107 422 120 407 Q132 391 154 390 Q180 391 200 413 Q219 435 220 467 Q220 492 208 508 Q195 524 174 525 Q147 524 127 501 Q108 479 107 447 L107 447 ZM55 51 Q55 29 65 13 Q75 -4 95 -5 L30 -138 L69 -156 Q99 -114 132 -44 Q164 27 167 71 Q167 96 154 112 Q141 128 120 129 Q94 128 75 105 Q56 83 55 51 L55 51 Z" /><glyph glyph-name="" unicode="&lt;" d="M412 153 L138 334 L139 338 L459 519 L472 595 L56 372 L45 300 L400 77 L412 153 Z" /><glyph glyph-name="" unicode="=" d="M79 384 L482 384 L493 456 L91 456 L79 384 ZM55 220 L458 220 L469 291 L67 291 L55 220 Z" /><glyph glyph-name="" unicode="&gt;" d="M56 77 L471 300 L482 372 L127 595 L115 519 L389 338 L389 334 L68 153 L56 77 Z" /><glyph glyph-name="" unicode="?" d="M164 219 L222 219 L245 332 Q307 368 361 434 Q415 499 418 599 Q416 680 375 717 Q333 754 276 754 Q238 755 200 735 Q162 715 120 667 L163 617 Q190 651 214 666 Q239 682 262 682 Q294 682 315 657 Q336 632 337 580 Q334 507 285 453 Q235 399 179 364 L164 219 ZM118 50 Q118 26 131 10 Q143 -5 164 -6 Q189 -5 208 16 Q227 37 228 69 Q228 93 216 109 Q204 124 184 125 Q157 124 138 103 Q119 81 118 50 L118 50 Z" /><glyph glyph-name="" unicode="@" d="M464 504 Q373 502 313 420 Q253 339 251 209 Q252 117 287 66 Q321 15 380 14 Q425 17 460 57 Q495 97 518 144 L523 144 Q527 98 549 57 Q571 16 610 13 Q681 12 735 97 Q788 181 791 357 Q788 541 708 622 Q628 702 502 700 Q335 701 216 573 Q97 446 92 176 Q94 -2 170 -90 Q247 -179 380 -179 Q422 -179 466 -170 Q509 -161 544 -147 L537 -85 Q507 -98 466 -107 Q426 -116 387 -116 Q272 -117 213 -44 Q154 28 154 185 Q159 413 259 526 Q358 638 496 638 Q606 639 667 569 Q728 499 729 343 Q727 209 696 144 Q665 79 625 79 Q603 80 588 110 Q574 140 573 187 Q573 205 576 228 L608 449 L555 449 Q537 476 516 490 Q494 504 464 504 L464 504 ZM390 82 Q359 83 342 118 Q324 154 324 219 Q327 328 368 384 Q410 440 453 440 Q475 440 494 424 Q513 408 526 379 L516 306 Q501 204 464 144 Q427 83 390 82 L390 82 Z" /><glyph glyph-name="" unicode="a" d="M378 674 L483 674 L432 286 L210 286 L378 674 ZM210 748 L198 696 L302 679 L-10 0 L75 -6 L173 216 L420 216 L391 0 L471 0 L576 748 L210 748 Z" /><glyph glyph-name="" unicode="b" d="M191 425 L222 676 L368 676 Q412 675 433 644 Q453 613 453 565 Q451 506 418 466 Q384 427 347 425 L191 425 ZM340 351 Q380 349 405 314 Q430 279 431 229 Q432 177 399 126 Q365 76 282 72 L143 72 L179 351 L340 351 ZM533 586 Q533 656 495 701 Q456 746 381 748 L155 748 L50 0 L280 0 Q390 2 450 69 Q510 135 511 237 Q510 290 485 332 Q460 374 422 388 L423 392 Q480 424 507 477 Q533 530 533 586 L533 586 Z" /><glyph glyph-name="" unicode="c" d="M288 66 Q204 68 168 136 Q131 204 132 311 Q133 457 194 567 Q254 676 363 682 Q397 682 424 669 Q451 656 474 637 L469 515 L523 515 L556 679 Q516 714 472 734 Q427 754 372 754 Q216 748 133 616 Q51 484 50 300 Q50 168 105 83 Q161 -3 279 -6 Q335 -6 393 26 Q451 58 493 127 L439 174 Q411 125 373 96 Q335 67 288 66 L288 66 Z" /><glyph glyph-name="" unicode="d" d="M236 0 Q394 6 480 134 Q566 263 567 447 Q567 577 512 661 Q457 745 345 748 L154 748 L50 0 L236 0 ZM144 74 L222 674 L334 674 Q414 672 450 606 Q487 539 486 435 Q485 285 421 182 Q357 78 243 74 L144 74 Z" /><glyph glyph-name="" unicode="e" d="M156 748 L52 0 L437 0 L450 74 L142 74 L178 354 L444 354 L456 425 L190 425 L225 674 L520 674 L532 748 L156 748 Z" /><glyph glyph-name="" unicode="f" d="M513 674 L526 748 L155 748 L50 0 L131 0 L177 342 L437 342 L449 412 L189 412 L222 674 L513 674 Z" /><glyph glyph-name="" unicode="g" d="M561 391 L351 391 L339 317 L470 317 L444 123 Q406 95 371 81 Q336 66 297 66 Q217 68 181 136 Q144 204 145 311 Q146 457 209 567 Q272 676 385 682 Q430 682 466 665 Q502 648 532 616 L579 679 Q539 714 494 734 Q450 754 394 754 Q235 748 150 616 Q65 484 64 300 Q63 168 119 83 Q174 -3 292 -6 Q339 -6 385 10 Q431 25 482 59 L515 59 L561 391 Z" /><glyph glyph-name="" unicode="h" d="M131 0 L179 351 L474 351 L427 0 L507 0 L611 748 L531 748 L486 425 L191 425 L235 748 L155 748 L50 0 L131 0 Z" /><glyph glyph-name="" unicode="i" d="M131 0 L235 748 L155 748 L50 0 L131 0 Z" /><glyph glyph-name="" unicode="j" d="M16 156 Q27 72 69 33 Q110 -6 171 -6 Q267 -2 313 75 Q359 152 370 249 L439 748 L359 748 L288 246 Q281 182 255 126 Q230 70 168 66 Q131 66 111 93 Q91 120 87 169 L16 156 Z" /><glyph glyph-name="" unicode="k" d="M550 748 L459 754 L252 425 L190 425 L234 748 L155 748 L50 0 L130 0 L180 356 L250 356 Q310 276 348 141 Q386 6 472 -9 Q486 -9 496 -6 Q506 -4 512 -1 L502 65 Q437 76 409 192 Q380 308 316 398 L550 748 Z" /><glyph glyph-name="" unicode="l" d="M143 74 L235 748 L155 748 L50 0 L406 0 L418 74 L143 74 Z" /><glyph glyph-name="" unicode="m" d="M361 222 L576 547 L579 546 L504 0 L583 0 L687 748 L635 748 L361 326 L206 748 L155 748 L50 0 L131 0 L203 552 L206 553 L325 222 L361 222 Z" /><glyph glyph-name="" unicode="n" d="M462 0 L507 0 L611 748 L531 748 L455 180 L452 178 L197 748 L155 748 L50 0 L131 0 L205 562 L209 563 L462 0 Z" /><glyph glyph-name="" unicode="o" d="M381 754 Q226 748 139 618 Q52 488 50 300 Q50 167 107 82 Q163 -3 275 -6 Q430 0 517 130 Q605 261 606 448 Q606 581 550 666 Q494 751 381 754 L381 754 ZM374 682 Q452 679 488 609 Q524 538 524 433 Q522 288 458 180 Q393 72 283 66 Q205 69 168 140 Q132 210 132 316 Q134 460 199 568 Q264 676 374 682 L374 682 Z" /><glyph glyph-name="" unicode="p" d="M155 748 L50 0 L131 0 L166 254 L296 254 Q390 257 459 337 Q528 418 531 537 Q530 628 485 687 Q440 746 366 748 L155 748 ZM352 676 Q398 674 423 632 Q449 589 449 526 Q447 443 404 385 Q360 327 302 325 L177 325 L223 676 L352 676 Z" /><glyph glyph-name="" unicode="q" d="M607 448 Q607 581 551 666 Q495 751 383 754 Q228 748 141 618 Q53 488 52 302 Q52 192 97 110 Q142 27 236 -6 Q301 -50 374 -120 Q447 -191 546 -199 Q594 -198 633 -171 Q672 -145 698 -110 L650 -62 Q630 -90 602 -108 Q574 -125 544 -126 Q485 -122 437 -79 Q388 -36 344 4 Q448 37 525 143 Q603 249 607 448 L607 448 ZM281 52 Q204 80 168 148 Q133 216 133 313 Q135 459 200 568 Q265 677 375 682 Q456 678 491 605 Q527 531 526 430 Q523 254 453 168 Q383 82 281 52 L281 52 Z" /><glyph glyph-name="" unicode="r" d="M539 562 Q538 652 496 700 Q455 748 388 748 L155 748 L50 0 L131 0 L173 303 L293 303 Q333 207 370 103 Q406 0 483 -9 Q496 -9 506 -6 Q516 -4 523 -1 L513 65 Q460 70 433 148 Q407 226 374 314 Q441 337 489 401 Q537 465 539 562 L539 562 ZM379 676 Q416 675 437 642 Q458 608 458 548 Q457 484 417 431 Q378 377 317 374 L184 374 L224 676 L379 676 Z" /><glyph glyph-name="" unicode="s" d="M24 119 Q67 52 115 23 Q164 -7 220 -6 Q317 -5 374 52 Q431 108 432 209 Q416 367 302 410 Q187 454 171 560 Q173 624 207 653 Q242 682 289 682 Q315 682 339 671 Q363 661 386 644 L377 539 L432 539 L465 681 Q431 714 388 734 Q344 753 294 754 Q205 754 150 702 Q94 651 92 554 Q108 406 221 366 Q333 326 349 201 Q348 136 313 101 Q278 66 225 66 Q181 66 144 94 Q107 121 78 172 L24 119 Z" /><glyph glyph-name="" unicode="t" d="M521 748 L77 748 L64 674 L246 674 L155 0 L235 0 L326 674 L509 674 L521 748 Z" /><glyph glyph-name="" unicode="u" d="M514 748 L455 322 Q439 211 391 140 Q343 68 270 66 Q206 67 177 115 Q149 162 149 241 Q149 260 151 280 Q153 301 156 322 L215 748 L134 748 L75 322 Q72 300 71 278 Q69 257 69 237 Q69 127 116 61 Q163 -4 260 -6 Q374 -3 444 87 Q515 177 535 322 L595 748 L514 748 Z" /><glyph glyph-name="" unicode="v" d="M247 102 L153 754 L70 747 L192 0 L268 0 Q349 143 424 325 Q499 506 562 747 L482 754 Q441 578 378 402 Q315 225 251 102 L247 102 Z" /><glyph glyph-name="" unicode="w" d="M555 102 L461 754 L378 747 L415 513 Q377 395 335 288 Q293 181 251 102 L247 102 L153 754 L70 747 L192 0 L271 0 Q317 84 357 178 Q398 271 437 377 L441 377 L500 0 L579 0 Q660 143 734 325 Q807 506 870 747 L790 754 Q748 578 685 402 Q622 225 559 102 L555 102 Z" /><glyph glyph-name="" unicode="x" d="M463 754 Q433 688 390 610 Q348 533 299 458 L203 754 L113 748 L243 397 Q156 276 91 178 Q26 79 -14 0 L79 -6 Q109 57 159 142 Q209 227 277 325 L387 -6 L478 0 L335 385 Q407 488 460 578 Q513 668 552 748 L463 754 Z" /><glyph glyph-name="" unicode="y" d="M77 748 L215 287 L176 0 L256 0 L295 286 Q372 402 429 502 Q486 602 559 748 L469 754 Q416 630 364 531 Q311 431 270 363 L266 363 L169 754 L77 748 Z" /><glyph glyph-name="" unicode="z" d="M-1 36 L34 -9 Q53 12 71 21 Q88 29 109 29 Q148 26 198 6 Q247 -14 301 -17 Q336 -17 373 -6 Q409 4 438 24 L417 92 Q385 73 358 66 Q330 59 313 59 Q272 61 230 78 Q188 95 136 97 L135 101 L511 706 L502 748 L119 748 L108 676 L397 676 L-1 36 Z" /><glyph glyph-name="" unicode="[" d="M199 -80 L100 -80 L212 741 L309 741 L318 806 L161 806 L28 -145 L188 -145 L199 -80 Z" /><glyph glyph-name="" unicode="\" d="M116 806 L235 -204 L299 -204 L179 806 L116 806 Z" /><glyph glyph-name="" unicode="]" d="M-18 -145 L142 -145 L274 806 L117 806 L106 741 L203 741 L91 -80 L-7 -80 L-18 -145 Z" /><glyph glyph-name="" unicode="^" d="M48 296 L115 296 L301 673 L384 296 L451 296 L346 748 L280 748 L48 296 Z" /><glyph glyph-name="" unicode="_" d="M363 -126 L370 -74 L-5 -74 L-12 -126 L363 -126 Z" /><glyph glyph-name="" unicode="`" d="M224 735 L134 735 L209 585 L274 585 L224 735 Z" /><glyph glyph-name="" unicode="a" d="M414 -6 Q425 -6 435 -4 Q446 -1 455 3 L465 66 Q439 65 426 75 Q413 86 413 119 Q413 127 414 139 Q415 150 416 162 L459 477 L389 477 Q366 502 335 513 Q305 525 272 525 Q175 523 114 437 Q52 351 50 203 Q51 104 89 49 Q127 -5 192 -6 Q229 -6 266 15 Q304 35 336 74 L340 74 Q346 34 366 14 Q385 -6 414 -6 L414 -6 ZM129 218 Q131 325 169 388 Q208 451 265 453 Q300 453 324 441 Q349 429 371 402 L340 161 Q314 120 283 93 Q252 67 217 66 Q176 66 153 105 Q129 144 129 218 L129 218 Z" /><glyph glyph-name="" unicode="b" d="M241 795 L164 792 L60 43 L121 43 Q146 20 178 7 Q209 -6 247 -6 Q343 -4 406 82 Q470 167 472 316 Q471 415 432 470 Q392 524 322 525 Q288 525 258 506 Q227 488 199 457 L195 457 L241 795 ZM394 301 Q392 194 353 131 Q313 68 254 66 Q220 66 195 80 Q170 94 149 122 L181 368 Q208 405 238 429 Q269 452 304 453 Q346 452 370 412 Q394 371 394 301 L394 301 Z" /><glyph glyph-name="" unicode="c" d="M285 525 Q182 523 117 444 Q52 364 50 226 Q51 116 99 55 Q146 -5 229 -6 Q270 -6 307 9 Q344 23 382 54 L350 114 Q292 66 238 66 Q188 66 159 106 Q129 146 128 227 Q129 327 171 389 Q212 451 276 453 Q299 453 316 446 Q333 440 347 429 L336 322 L392 322 L418 474 Q392 496 361 510 Q330 525 285 525 L285 525 Z" /><glyph glyph-name="" unicode="d" d="M503 795 L426 792 L383 480 Q361 503 332 514 Q303 525 272 525 Q175 523 114 437 Q52 351 50 203 Q51 104 89 49 Q127 -5 192 -6 Q229 -6 266 15 Q304 35 336 74 L340 74 Q346 34 366 14 Q385 -6 414 -6 Q425 -6 435 -4 Q446 -1 454 3 L465 66 Q439 65 426 75 Q413 86 413 119 Q413 127 414 139 Q415 150 416 162 L503 795 ZM128 218 Q130 325 169 388 Q208 451 265 453 Q300 453 325 441 Q349 429 371 401 L340 159 Q314 117 283 92 Q252 67 217 66 Q176 66 152 105 Q129 144 128 218 L128 218 Z" /><glyph glyph-name="" unicode="e" d="M424 387 Q424 447 389 486 Q354 525 281 526 Q185 524 119 440 Q53 355 50 212 Q51 108 96 52 Q140 -5 220 -6 Q276 -6 314 8 Q351 21 386 45 L362 111 Q333 92 302 80 Q270 67 229 66 Q187 64 159 96 Q132 128 131 214 Q236 211 327 245 Q418 279 424 387 L424 387 ZM274 457 Q307 456 326 435 Q345 413 345 380 Q345 329 294 300 Q242 272 134 268 Q145 361 184 409 Q224 457 274 457 L274 457 Z" /><glyph glyph-name="" unicode="f" d="M217 454 L329 454 L341 519 L228 519 L241 621 Q248 673 272 699 Q296 725 323 725 Q347 725 368 717 Q389 709 409 695 L438 754 Q409 773 380 784 Q350 795 315 795 Q264 795 220 752 Q177 710 164 625 L151 519 L70 519 L61 471 L140 456 L75 -32 Q65 -100 36 -122 Q6 -145 -30 -143 L-26 -206 Q-18 -210 -8 -212 Q1 -214 9 -214 Q53 -215 95 -171 Q137 -127 152 -32 L217 454 Z" /><glyph glyph-name="" unicode="g" d="M128 218 Q130 325 169 388 Q208 451 265 453 Q298 453 321 439 Q345 425 362 399 L330 159 Q307 117 277 92 Q247 67 214 66 Q174 67 151 106 Q128 146 128 218 L128 218 ZM310 16 Q295 -82 253 -112 Q211 -142 176 -139 Q150 -139 126 -131 Q101 -123 79 -107 L54 -175 Q79 -193 108 -203 Q137 -214 172 -214 Q243 -217 304 -166 Q366 -115 388 24 L450 477 L380 477 Q358 502 330 513 Q302 525 272 525 Q175 523 114 437 Q52 351 50 203 Q51 104 89 49 Q127 -5 192 -6 Q223 -6 255 13 Q286 32 313 64 L316 63 L310 16 Z" /><glyph glyph-name="" unicode="h" d="M328 525 Q297 526 264 508 Q230 490 194 447 L190 447 L237 795 L161 792 L50 0 L127 0 L175 356 Q205 410 238 432 Q270 454 298 453 Q330 454 351 430 Q372 405 373 343 Q373 333 372 323 Q371 312 370 299 L329 0 L405 0 L446 296 Q452 335 452 366 Q450 460 412 494 Q374 527 328 525 L328 525 Z" /><glyph glyph-name="" unicode="i" d="M127 684 Q127 662 140 646 Q152 631 172 630 Q199 631 217 652 Q235 673 236 703 Q236 725 223 740 Q211 755 191 756 Q164 755 146 735 Q128 714 127 684 L127 684 ZM199 519 L122 519 L75 161 Q73 142 71 128 Q69 113 69 103 Q70 41 94 17 Q117 -7 149 -6 Q171 -6 189 3 L200 66 Q174 65 161 75 Q148 86 148 119 Q148 127 149 139 Q150 150 151 162 L199 519 Z" /><glyph glyph-name="" unicode="j" d="M74 -32 Q63 -100 33 -122 Q2 -145 -35 -143 L-31 -206 Q-22 -210 -11 -212 Q-1 -214 7 -214 Q52 -215 93 -171 Q134 -127 149 -32 L226 519 L148 519 L74 -32 ZM153 684 Q153 662 166 646 Q178 631 198 630 Q225 631 244 652 Q262 673 263 703 Q263 725 250 740 Q237 755 217 756 Q190 755 172 735 Q154 714 153 684 L153 684 Z" /><glyph glyph-name="" unicode="k" d="M237 795 L161 792 L50 0 L127 0 L171 317 Q212 384 248 418 Q285 453 317 453 Q344 452 356 436 Q368 420 368 398 Q366 343 320 306 Q273 269 209 268 L208 265 Q245 161 288 79 Q332 -2 383 -7 Q391 -7 402 -5 Q413 -3 424 3 L435 63 Q396 59 367 91 Q339 122 296 234 Q373 249 409 302 Q445 355 445 415 Q445 461 419 493 Q394 524 339 525 Q305 525 265 495 Q225 466 188 405 L184 405 L237 795 Z" /><glyph glyph-name="" unicode="l" d="M234 795 L158 792 L71 161 Q66 131 66 106 Q67 46 88 20 Q109 -7 145 -6 Q166 -6 186 3 L196 66 Q171 65 158 75 Q145 86 145 119 Q145 127 146 139 Q147 150 148 162 L234 795 Z" /><glyph glyph-name="" unicode="m" d="M202 519 L129 519 L58 0 L135 0 L183 357 Q212 411 241 432 Q270 454 290 453 Q315 454 336 431 Q357 407 358 349 Q358 340 357 328 Q357 316 355 304 L313 0 L390 0 L438 356 Q467 410 496 432 Q526 454 546 453 Q573 454 593 431 Q614 408 615 348 Q615 332 613 310 Q611 287 606 256 L570 0 L647 0 L687 296 Q693 335 693 366 Q691 460 653 494 Q614 527 567 525 Q541 526 502 506 Q464 486 425 432 Q411 486 382 506 Q353 526 318 525 Q293 526 261 508 Q229 490 197 448 L193 448 L202 519 Z" /><glyph glyph-name="" unicode="n" d="M201 519 L129 519 L58 0 L135 0 L184 365 Q212 410 244 432 Q275 453 303 453 Q335 454 355 431 Q374 407 375 348 Q375 332 371 303 L329 0 L406 0 L447 296 Q450 315 451 333 Q452 350 452 366 Q450 460 412 494 Q374 527 327 525 Q300 525 266 507 Q231 489 195 448 L191 448 L201 519 Z" /><glyph glyph-name="" unicode="o" d="M290 525 Q186 524 119 441 Q52 358 50 211 Q51 111 95 53 Q139 -5 216 -6 Q319 -4 386 80 Q453 165 455 311 Q454 411 410 468 Q367 524 290 525 L290 525 ZM278 456 Q328 455 353 413 Q378 370 378 298 Q376 193 334 129 Q292 65 228 63 Q181 63 155 103 Q128 143 128 219 Q130 326 172 390 Q214 454 278 456 L278 456 Z" /><glyph glyph-name="" unicode="p" d="M131 519 L30 -214 L107 -208 L144 60 L147 61 Q167 30 193 12 Q219 -6 249 -6 Q347 -4 410 81 Q472 167 474 315 Q473 415 435 470 Q396 524 327 525 Q300 525 267 507 Q235 489 198 448 L194 448 L203 519 L131 519 ZM301 453 Q346 452 371 411 Q396 371 396 300 Q394 194 355 131 Q315 68 256 66 Q224 67 200 90 Q175 113 158 150 L185 364 Q212 409 243 431 Q274 453 301 453 L301 453 Z" /><glyph glyph-name="" unicode="q" d="M324 64 L287 -214 L364 -208 L459 477 L389 477 Q366 502 335 513 Q305 525 272 525 Q175 523 114 437 Q52 351 50 203 Q51 104 89 49 Q127 -5 192 -6 Q257 -6 321 65 L324 64 ZM129 218 Q131 325 169 388 Q208 451 265 453 Q300 453 325 441 Q349 429 371 401 L340 161 Q314 120 283 93 Q252 67 217 66 Q176 66 153 105 Q129 144 129 218 L129 218 Z" /><glyph glyph-name="" unicode="r" d="M202 519 L129 519 L55 0 L132 0 L181 354 Q211 408 243 428 Q276 448 304 447 Q314 447 326 444 Q337 441 346 436 L377 515 Q365 520 350 523 Q335 525 323 525 Q296 526 264 508 Q232 491 196 448 L192 448 L202 519 Z" /><glyph glyph-name="" unicode="s" d="M262 149 Q262 107 241 84 Q220 60 182 60 Q158 59 128 73 Q97 86 65 123 L24 67 Q68 21 107 6 Q147 -8 180 -7 Q249 -7 294 32 Q340 71 342 155 Q330 263 245 292 Q159 321 147 384 Q148 420 171 440 Q194 460 227 460 Q247 460 262 456 Q277 451 292 441 L292 373 L344 373 L363 481 Q332 502 299 514 Q265 526 225 526 Q149 525 109 484 Q69 443 69 377 Q81 273 166 243 Q250 212 262 149 L262 149 Z" /><glyph glyph-name="" unicode="t" d="M132 456 L96 180 Q92 150 92 128 Q94 53 128 23 Q161 -7 198 -6 Q221 -6 250 3 Q280 12 315 37 L305 99 Q281 82 261 74 Q241 66 226 66 Q207 64 189 79 Q171 94 170 146 Q170 154 171 164 Q172 173 173 184 L209 454 L325 454 L337 519 L219 519 L237 644 L189 644 L146 519 L67 519 L58 471 L132 456 Z" /><glyph glyph-name="" unicode="u" d="M180 519 L103 519 L63 224 Q60 204 59 187 Q58 170 58 155 Q61 60 100 26 Q139 -8 183 -6 Q220 -6 258 15 Q296 35 328 74 L332 74 Q339 34 358 14 Q377 -6 405 -6 Q416 -6 426 -4 Q437 -1 447 3 L457 66 Q431 65 418 75 Q405 86 405 119 Q405 127 406 139 Q407 150 409 162 L456 519 L380 519 L331 160 Q305 119 274 93 Q243 67 207 66 Q182 64 160 84 Q138 104 136 177 Q136 196 139 221 L180 519 Z" /><glyph glyph-name="" unicode="v" d="M133 525 L50 519 L137 0 L215 0 Q268 79 339 208 Q410 337 417 430 Q416 484 397 505 Q377 527 347 526 Q339 526 329 523 Q319 521 310 517 L299 454 Q316 455 327 447 Q339 439 339 411 Q335 358 287 257 Q239 156 195 79 L133 525 Z" /><glyph glyph-name="" unicode="w" d="M378 525 L296 519 L325 342 Q302 279 265 207 Q227 134 197 83 L194 84 L133 525 L50 519 L137 0 L211 0 Q237 42 272 104 Q307 166 340 230 L344 230 L382 0 L460 0 Q513 79 584 208 Q655 337 662 430 Q661 484 642 505 Q623 527 592 526 Q583 526 573 523 Q563 521 555 517 L544 454 Q562 455 573 447 Q584 439 584 411 Q580 358 533 258 Q485 157 442 83 L438 84 L378 525 Z" /><glyph glyph-name="" unicode="x" d="M308 -6 L399 0 L287 270 Q329 316 372 378 Q416 439 441 519 L358 525 Q345 471 313 419 Q280 366 249 328 L177 525 L87 519 L188 279 Q131 213 85 146 Q40 79 12 0 L97 -6 Q117 59 153 115 Q189 170 228 219 L308 -6 Z" /><glyph glyph-name="" unicode="y" d="M419 430 Q418 484 399 505 Q379 527 348 526 Q340 526 330 523 Q320 521 311 517 L300 454 Q318 455 329 447 Q340 439 340 411 Q337 358 299 254 Q261 151 218 73 L134 525 L52 519 L160 0 Q111 -78 71 -112 Q31 -146 -12 -145 L-9 -204 Q-1 -209 8 -211 Q18 -214 25 -214 Q136 -192 272 36 Q407 264 419 430 L419 430 Z" /><glyph glyph-name="" unicode="z" d="M88 449 L301 449 L302 445 L18 41 L54 -9 Q70 11 86 20 Q103 29 122 29 Q152 26 195 7 Q238 -13 288 -16 Q318 -16 343 -6 Q367 4 389 24 L365 88 Q342 69 325 63 Q308 57 290 58 Q258 60 225 76 Q193 92 156 94 L155 98 L411 466 L399 519 L99 519 L88 449 Z" /><glyph glyph-name="" unicode="{" d="M119 328 Q139 338 163 373 Q188 407 198 471 L222 658 Q228 699 247 720 Q265 741 289 741 L326 741 L336 806 L307 806 Q247 806 208 767 Q169 727 157 643 L138 503 Q131 446 113 408 Q95 371 57 358 L48 297 Q74 288 85 265 Q95 243 95 209 Q95 183 90 150 L72 17 Q69 -3 69 -21 Q69 -80 97 -113 Q125 -146 177 -147 L207 -147 L217 -82 L183 -82 Q159 -82 146 -64 Q132 -46 132 -15 Q132 -10 133 -3 Q133 3 134 8 L157 181 Q159 191 159 201 Q160 211 160 219 Q159 263 146 291 Q133 319 119 328 L119 328 Z" /><glyph glyph-name="" unicode="|" d="M93 -154 L226 806 L165 806 L32 -154 L93 -154 Z" /><glyph glyph-name="" unicode="}" d="M205 331 Q185 321 161 286 Q137 251 127 188 L102 1 Q96 -40 78 -61 Q59 -82 36 -82 L-2 -82 L-12 -147 L17 -147 Q78 -147 117 -107 Q156 -68 168 16 L187 156 Q194 213 211 251 Q229 288 267 301 L276 362 Q251 371 240 394 Q230 416 230 450 Q230 476 235 509 L253 642 Q254 652 255 661 Q256 671 256 680 Q256 739 228 772 Q200 805 147 806 L117 806 L108 741 L140 741 Q164 741 178 723 Q192 705 192 674 Q192 670 192 663 Q191 656 191 651 L167 479 Q166 469 165 459 Q164 448 164 440 Q165 396 178 368 Q191 340 205 331 L205 331 Z" /><glyph glyph-name="" unicode="~" d="M201 350 Q177 351 162 364 Q147 377 131 395 L91 333 Q120 304 141 291 Q161 278 191 278 Q240 281 279 302 Q317 322 348 325 Q372 324 389 311 Q405 297 422 279 L462 340 Q433 369 412 383 Q390 397 359 397 Q315 394 276 374 Q238 353 201 350 L201 350 Z" /><glyph glyph-name="" unicode=" " d="" /><glyph glyph-name="" unicode="¡" d="M126 464 Q126 440 138 424 Q150 409 170 408 Q195 409 214 431 Q232 453 233 484 Q233 509 221 524 Q209 540 188 540 Q163 539 145 517 Q127 496 126 464 L126 464 ZM130 315 L45 -214 L124 -214 L185 315 L130 315 Z" /><glyph glyph-name="" unicode="¢" d="M261 -16 L279 110 Q316 113 345 126 Q374 140 401 160 L380 228 Q354 208 326 195 Q299 182 261 182 Q211 182 184 220 Q158 259 158 336 Q160 442 203 505 Q247 567 313 568 Q350 567 375 555 Q399 542 421 523 L462 589 Q439 607 414 621 Q390 635 353 638 L371 764 L309 764 L292 637 Q197 624 140 541 Q82 458 80 322 Q81 230 117 175 Q153 121 218 111 L200 -16 L261 -16 Z" /><glyph glyph-name="" unicode="£" d="M157 103 Q179 146 191 195 Q203 245 213 337 L373 337 L393 396 L223 396 L234 492 Q247 594 280 637 Q313 680 351 679 Q379 679 404 669 Q428 659 453 637 L489 703 Q461 729 428 741 Q394 754 351 754 Q281 754 229 691 Q176 628 157 503 L142 396 L71 396 L65 356 L133 337 Q120 230 98 163 Q76 96 31 29 L66 -9 Q85 13 104 23 Q122 33 145 33 Q181 30 229 9 Q276 -13 321 -16 Q395 -15 447 24 L423 91 Q398 72 378 65 Q358 59 326 59 Q291 62 249 79 Q207 97 158 99 L157 103 Z" /><glyph glyph-name="" unicode="¥" d="M278 0 L315 270 L428 282 L442 320 L335 320 L387 432 L478 441 L493 480 L414 480 L543 748 L458 754 L295 380 L291 380 L226 754 L139 748 L196 480 L113 480 L116 441 L206 432 L229 320 L118 320 L122 282 L235 270 L197 0 L278 0 Z" /><glyph glyph-name="" unicode="§" d="M417 301 Q404 405 311 457 Q217 508 204 596 Q205 637 229 660 Q253 684 291 684 Q314 684 340 666 Q366 647 382 605 L433 645 Q405 704 365 729 Q325 755 290 754 Q225 753 181 710 Q137 666 135 587 Q135 557 143 533 Q152 509 166 488 Q119 449 94 406 Q69 364 69 306 Q82 199 175 149 Q268 99 281 18 Q280 -25 256 -50 Q232 -75 194 -76 Q172 -76 146 -57 Q120 -39 104 3 L52 -37 Q80 -96 121 -121 Q161 -147 195 -146 Q261 -145 305 -100 Q349 -55 351 27 Q351 54 342 76 Q334 99 320 119 Q366 157 391 200 Q417 243 417 301 L417 301 ZM341 291 Q341 258 324 227 Q307 196 274 166 Q229 202 189 234 Q148 265 145 315 Q145 349 162 380 Q179 410 211 441 Q256 403 297 370 Q338 337 341 291 L341 291 Z" /><glyph glyph-name="" unicode="¨" d="M99 653 Q99 632 110 618 Q120 604 138 603 Q161 604 177 623 Q194 643 195 670 Q195 691 183 704 Q172 718 154 718 Q133 717 116 698 Q100 679 99 653 L99 653 ZM255 653 Q255 632 266 618 Q276 604 294 603 Q317 604 333 623 Q350 642 351 670 Q351 691 339 704 Q328 718 310 718 Q289 717 272 698 Q256 679 255 653 L255 653 Z" /><glyph glyph-name="" unicode="©" d="M48 331 Q50 186 119 92 Q189 -3 304 -6 Q448 -1 537 120 Q625 240 628 417 Q626 562 558 656 Q489 751 378 754 Q229 749 140 628 Q50 508 48 331 L48 331 ZM92 335 Q94 488 171 594 Q247 700 375 705 Q473 702 528 620 Q583 538 584 413 Q582 260 505 154 Q428 48 306 43 Q209 45 151 123 Q93 201 92 335 L92 335 ZM399 276 Q381 249 357 234 Q333 218 311 218 Q276 218 253 249 Q231 279 230 336 Q232 425 270 475 Q308 525 362 526 Q383 526 406 518 L397 431 L445 431 L469 553 Q449 570 422 580 Q394 589 368 589 Q287 589 232 523 Q176 458 174 332 Q175 248 212 202 Q249 156 312 155 Q340 154 376 174 Q412 194 440 241 L399 276 Z" /><glyph glyph-name="" unicode="ª" d="M292 422 Q299 422 305 423 Q311 424 317 427 L325 475 Q309 474 301 481 Q293 488 293 508 Q293 514 294 523 Q294 531 295 541 L320 725 L276 725 Q262 740 243 747 Q224 754 203 754 Q142 753 104 699 Q65 645 64 552 Q64 490 88 456 Q111 422 152 422 Q173 422 196 433 Q218 444 237 466 L241 466 Q247 443 261 432 Q274 422 292 422 L292 422 ZM165 477 Q144 477 131 498 Q118 519 118 558 Q119 623 143 660 Q166 697 201 698 Q233 698 258 673 L240 529 Q218 498 199 487 Q179 476 165 477 L165 477 Z" /><glyph glyph-name="" unicode="«" d="M204 592 L52 367 L51 359 L140 133 L190 171 L120 364 L242 554 L204 592 ZM371 592 L219 367 L218 359 L308 133 L357 171 L287 364 L409 554 L371 592 Z" /><glyph glyph-name="" unicode="¬" d="M365 195 L425 195 L467 482 L73 482 L61 411 L395 411 L365 195 Z" /><glyph glyph-name="" unicode="®" d="M48 331 Q50 186 119 92 Q189 -3 304 -6 Q448 -1 537 120 Q625 240 628 417 Q626 562 558 656 Q489 751 378 754 Q229 749 140 628 Q50 508 48 331 L48 331 ZM92 335 Q94 488 171 594 Q247 700 375 705 Q473 702 528 620 Q583 538 584 413 Q582 260 505 154 Q428 48 306 43 Q209 45 151 123 Q93 201 92 335 L92 335 ZM260 600 L200 163 L251 163 L275 337 L336 337 Q347 266 368 214 Q388 163 433 160 Q445 160 456 165 L451 212 Q421 213 407 250 Q393 286 383 345 Q428 363 452 403 Q475 443 475 483 Q475 525 454 561 Q432 598 382 600 L260 600 ZM302 544 L371 544 Q398 543 409 521 Q420 499 420 474 Q420 445 402 419 Q384 392 347 390 L283 390 L302 544 Z" /><glyph glyph-name="" unicode="¯" d="M102 690 L93 629 L301 629 L311 690 L102 690 Z" /><glyph glyph-name="" unicode="°" d="M100 574 Q101 519 129 484 Q157 448 201 447 Q257 449 300 497 Q344 546 346 620 Q345 675 316 711 Q288 747 244 748 Q188 746 145 697 Q102 649 100 574 L100 574 ZM149 582 Q150 630 176 662 Q202 694 236 695 Q263 694 280 671 Q296 647 296 612 Q295 565 269 534 Q244 502 209 501 Q182 502 166 524 Q149 547 149 582 L149 582 Z" /><glyph glyph-name="" unicode="±" d="M88 369 L255 369 L234 211 L294 211 L316 369 L482 369 L493 441 L326 441 L349 599 L288 599 L266 441 L99 441 L88 369 ZM59 149 L48 77 L441 77 L453 149 L59 149 Z" /><glyph glyph-name="" unicode="´" d="M107 585 L172 585 L291 735 L200 735 L107 585 Z" /><glyph glyph-name="" unicode="µ" d="M460 519 L384 519 L335 160 Q310 119 279 94 Q248 69 212 68 Q187 66 163 82 Q140 98 138 159 Q138 169 138 179 Q139 190 141 203 L185 519 L108 519 L7 -213 L84 -209 L116 35 L120 35 Q137 11 160 2 Q183 -7 203 -6 Q235 -6 269 16 Q302 37 332 74 L336 74 Q343 30 363 12 Q383 -7 410 -6 Q421 -6 431 -4 Q442 -1 451 3 L461 66 Q436 65 423 75 Q410 86 410 119 Q410 127 410 138 Q411 148 413 162 L460 519 Z" /><glyph glyph-name="" unicode="¶" d="M360 679 L453 679 L360 0 L430 0 L534 748 L296 748 Q198 745 136 672 Q73 598 71 488 Q73 402 119 347 Q164 292 235 290 L192 -35 Q181 -103 151 -125 Q121 -148 84 -146 L88 -206 Q97 -210 107 -212 Q118 -214 126 -214 Q170 -215 210 -171 Q250 -127 264 -32 L360 679 Z" /><glyph glyph-name="" unicode="·" d="M170 388 Q170 413 158 429 Q147 444 127 445 Q101 444 83 422 Q65 400 64 370 Q64 346 76 330 Q88 315 108 314 Q132 315 151 336 Q169 358 170 388 L170 388 Z" /><glyph glyph-name="" unicode="¸" d="M114 23 Q104 -48 76 -89 Q49 -131 -4 -144 L14 -199 Q86 -187 121 -130 Q156 -73 159 6 L114 23 Z" /><glyph glyph-name="" unicode="º" d="M214 754 Q149 753 107 701 Q65 649 64 557 Q64 496 92 460 Q119 424 167 423 Q231 424 273 477 Q315 529 317 621 Q316 682 289 718 Q261 753 214 754 L214 754 ZM206 700 Q231 700 246 678 Q262 656 262 617 Q261 552 237 515 Q213 477 174 476 Q149 477 134 499 Q119 522 119 561 Q120 626 144 663 Q168 699 206 700 L206 700 Z" /><glyph glyph-name="" unicode="»" d="M96 554 L167 364 L44 171 L81 133 L234 359 L236 367 L145 592 L96 554 ZM263 554 L334 364 L212 171 L249 133 L402 359 L403 367 L313 592 L263 554 Z" /><glyph glyph-name="" unicode="¿" d="M273 321 L217 321 L193 208 Q132 172 77 106 Q23 41 19 -59 Q21 -140 62 -177 Q104 -214 162 -214 Q199 -215 237 -195 Q275 -175 317 -127 L274 -77 Q247 -110 225 -124 Q202 -138 179 -138 Q149 -138 126 -115 Q102 -91 101 -40 Q104 33 153 87 Q202 141 259 176 L273 321 ZM319 490 Q319 514 307 530 Q295 545 274 546 Q248 545 229 524 Q210 503 209 471 Q209 447 222 431 Q234 415 255 414 Q281 415 300 437 Q318 459 319 490 L319 490 Z" /><glyph glyph-name="" unicode="à" d="M378 674 L483 674 L432 286 L210 286 L378 674 ZM210 748 L198 696 L302 679 L-10 0 L75 -6 L173 216 L420 216 L391 0 L471 0 L576 748 L210 748 ZM446 946 L356 946 L431 796 L496 796 L446 946 Z" /><glyph glyph-name="" unicode="á" d="M378 674 L483 674 L432 286 L210 286 L378 674 ZM210 748 L198 696 L302 679 L-10 0 L75 -6 L173 216 L420 216 L391 0 L471 0 L576 748 L210 748 ZM407 796 L472 796 L591 946 L500 946 L407 796 Z" /><glyph glyph-name="" unicode="â" d="M378 674 L483 674 L432 286 L210 286 L378 674 ZM210 748 L198 696 L302 679 L-10 0 L75 -6 L173 216 L420 216 L391 0 L471 0 L576 748 L210 748 ZM509 945 L431 945 L332 795 L387 795 L461 889 L510 795 L565 795 L509 945 Z" /><glyph glyph-name="" unicode="ã" d="M378 674 L483 674 L432 286 L210 286 L378 674 ZM210 748 L198 696 L302 679 L-10 0 L75 -6 L173 216 L420 216 L391 0 L471 0 L576 748 L210 748 ZM566 888 Q548 911 530 918 Q513 926 502 925 Q465 923 440 906 Q416 888 395 886 Q386 886 375 891 Q364 897 353 910 L322 855 Q337 834 353 825 Q369 817 383 817 Q411 819 438 836 Q465 853 490 855 Q497 856 509 851 Q521 846 538 830 L566 888 Z" /><glyph glyph-name="" unicode="ä" d="M378 674 L483 674 L432 286 L210 286 L378 674 ZM210 748 L198 696 L302 679 L-10 0 L75 -6 L173 216 L420 216 L391 0 L471 0 L576 748 L210 748 ZM353 861 Q353 840 364 826 Q374 812 392 811 Q415 812 431 831 Q448 851 449 878 Q449 899 437 912 Q426 926 408 926 Q387 925 370 906 Q354 887 353 861 L353 861 ZM509 861 Q509 840 520 826 Q530 812 548 811 Q571 812 587 831 Q604 850 605 878 Q605 899 593 912 Q582 926 564 926 Q543 925 526 906 Q510 887 509 861 L509 861 Z" /><glyph glyph-name="" unicode="å" d="M378 674 L483 674 L432 286 L210 286 L378 674 ZM210 748 L198 696 L302 679 L-10 0 L75 -6 L173 216 L420 216 L391 0 L471 0 L576 748 L210 748 ZM406 867 Q407 833 423 811 Q440 790 467 789 Q507 790 532 820 Q556 850 557 896 Q557 931 540 953 Q523 974 495 975 Q457 974 432 944 Q407 913 406 867 L406 867 ZM446 874 Q447 897 459 915 Q471 932 489 933 Q502 932 510 920 Q518 907 518 890 Q517 865 505 849 Q492 832 474 831 Q462 832 454 844 Q446 856 446 874 L446 874 Z" /><glyph glyph-name="" unicode="æ" d="M210 286 L378 674 L465 674 L414 286 L210 286 ZM402 216 L374 0 L729 0 L742 74 L466 74 L503 354 L747 354 L758 425 L515 425 L546 674 L812 674 L824 748 L210 748 L198 696 L302 679 L-10 0 L75 -6 L173 216 L402 216 Z" /><glyph glyph-name="" unicode="ç" d="M288 66 Q204 68 168 136 Q131 204 132 311 Q133 457 194 567 Q254 676 363 682 Q397 682 424 669 Q451 656 474 637 L469 515 L523 515 L556 679 Q516 714 472 734 Q427 754 372 754 Q216 748 133 616 Q51 484 50 300 Q50 176 98 93 Q146 9 247 -4 Q236 -61 209 -96 Q183 -132 137 -144 L154 -199 Q223 -188 258 -134 Q292 -81 298 -5 Q351 -2 403 31 Q455 63 493 127 L439 174 Q411 125 373 96 Q335 67 288 66 L288 66 Z" /><glyph glyph-name="" unicode="è" d="M156 748 L52 0 L437 0 L450 74 L142 74 L178 354 L444 354 L456 425 L190 425 L225 674 L520 674 L532 748 L156 748 ZM351 945 L261 945 L336 795 L401 795 L351 945 Z" /><glyph glyph-name="" unicode="é" d="M156 748 L52 0 L437 0 L450 74 L142 74 L178 354 L444 354 L456 425 L190 425 L225 674 L520 674 L532 748 L156 748 ZM320 795 L385 795 L504 945 L413 945 L320 795 Z" /><glyph glyph-name="" unicode="ê" d="M156 748 L52 0 L437 0 L450 74 L142 74 L178 354 L444 354 L456 425 L190 425 L225 674 L520 674 L532 748 L156 748 ZM426 945 L348 945 L249 795 L304 795 L378 889 L427 795 L482 795 L426 945 Z" /><glyph glyph-name="" unicode="ë" d="M161 748 L57 0 L442 0 L455 74 L147 74 L183 354 L449 354 L461 425 L195 425 L230 674 L525 674 L537 748 L161 748 ZM250 863 Q250 842 261 828 Q271 814 289 813 Q312 814 328 833 Q345 853 346 880 Q346 901 334 914 Q323 928 305 928 Q284 927 267 908 Q251 889 250 863 L250 863 ZM406 863 Q406 842 417 828 Q427 814 445 813 Q468 814 484 833 Q501 852 502 880 Q502 901 490 914 Q479 928 461 928 Q440 927 423 908 Q407 889 406 863 L406 863 Z" /><glyph glyph-name="" unicode="ñ" d="M462 0 L507 0 L611 748 L531 748 L455 180 L452 178 L197 748 L155 748 L50 0 L131 0 L205 562 L209 563 L462 0 ZM509 891 Q491 914 473 921 Q456 929 445 928 Q408 926 383 909 Q359 891 338 889 Q329 889 318 894 Q307 900 296 913 L265 858 Q280 837 296 828 Q312 820 326 820 Q354 822 381 839 Q408 856 433 858 Q440 859 452 854 Q464 849 481 833 L509 891 Z" /><glyph glyph-name="" unicode="ò" d="M381 754 Q226 748 139 618 Q52 488 50 300 Q50 167 107 82 Q163 -3 275 -6 Q430 0 517 130 Q605 261 606 448 Q606 581 550 666 Q494 751 381 754 L381 754 ZM374 682 Q452 679 488 609 Q524 538 524 433 Q522 288 458 180 Q393 72 283 66 Q205 69 168 140 Q132 210 132 316 Q134 460 199 568 Q264 676 374 682 L374 682 ZM391 945 L301 945 L376 795 L441 795 L391 945 Z" /><glyph glyph-name="" unicode="ó" d="M381 754 Q226 748 139 618 Q52 488 50 300 Q50 167 107 82 Q163 -3 275 -6 Q430 0 517 130 Q605 261 606 448 Q606 581 550 666 Q494 751 381 754 L381 754 ZM374 682 Q452 679 488 609 Q524 538 524 433 Q522 288 458 180 Q393 72 283 66 Q205 69 168 140 Q132 210 132 316 Q134 460 199 568 Q264 676 374 682 L374 682 ZM367 795 L432 795 L551 945 L460 945 L367 795 Z" /><glyph glyph-name="" unicode="ô" d="M381 754 Q226 748 139 618 Q52 488 50 300 Q50 167 107 82 Q163 -3 275 -6 Q430 0 517 130 Q605 261 606 448 Q606 581 550 666 Q494 751 381 754 L381 754 ZM374 682 Q452 679 488 609 Q524 538 524 433 Q522 288 458 180 Q393 72 283 66 Q205 69 168 140 Q132 210 132 316 Q134 460 199 568 Q264 676 374 682 L374 682 ZM461 945 L383 945 L284 795 L339 795 L413 889 L462 795 L517 795 L461 945 Z" /><glyph glyph-name="" unicode="õ" d="M381 754 Q226 748 139 618 Q52 488 50 300 Q50 167 107 82 Q163 -3 275 -6 Q430 0 517 130 Q605 261 606 448 Q606 581 550 666 Q494 751 381 754 L381 754 ZM374 682 Q452 679 488 609 Q524 538 524 433 Q522 288 458 180 Q393 72 283 66 Q205 69 168 140 Q132 210 132 316 Q134 460 199 568 Q264 676 374 682 L374 682 ZM520 889 Q502 912 484 919 Q467 927 456 926 Q419 924 394 907 Q370 889 349 887 Q340 887 329 892 Q318 898 307 911 L276 856 Q291 835 307 826 Q323 818 337 818 Q365 820 392 837 Q419 854 444 856 Q451 857 463 852 Q475 847 492 831 L520 889 Z" /><glyph glyph-name="" unicode="ö" d="M381 754 Q226 748 139 618 Q52 488 50 300 Q50 167 107 82 Q163 -3 275 -6 Q430 0 517 130 Q605 261 606 448 Q606 581 550 666 Q494 751 381 754 L381 754 ZM374 682 Q452 679 488 609 Q524 538 524 433 Q522 288 458 180 Q393 72 283 66 Q205 69 168 140 Q132 210 132 316 Q134 460 199 568 Q264 676 374 682 L374 682 ZM294 863 Q294 842 305 828 Q315 814 333 813 Q356 814 372 833 Q389 853 390 880 Q390 901 378 914 Q367 928 349 928 Q328 927 311 908 Q295 889 294 863 L294 863 ZM450 863 Q450 842 461 828 Q471 814 489 813 Q512 814 528 833 Q545 852 546 880 Q546 901 534 914 Q523 928 505 928 Q484 927 467 908 Q451 889 450 863 L450 863 Z" /><glyph glyph-name="" unicode="ø" d="M630 713 L603 754 L541 677 Q513 713 473 734 Q433 754 381 754 Q226 748 139 618 Q52 488 50 300 Q50 247 60 199 Q69 152 88 113 L26 36 L54 -4 L114 71 Q142 35 183 15 Q223 -6 275 -6 Q430 0 517 130 Q605 261 606 448 Q606 502 596 549 Q587 597 567 635 L630 713 ZM524 433 Q522 288 458 180 Q393 72 283 66 Q244 66 215 85 Q187 104 168 138 L507 561 Q515 532 520 500 Q524 468 524 433 L524 433 ZM374 682 Q413 682 441 663 Q469 643 487 610 L148 188 Q140 216 136 248 Q132 281 132 316 Q134 460 199 568 Q264 676 374 682 L374 682 Z" /><glyph glyph-name="" unicode="ù" d="M514 748 L455 322 Q439 211 391 140 Q343 68 270 66 Q206 67 177 115 Q149 162 149 241 Q149 260 151 280 Q153 301 156 322 L215 748 L134 748 L75 322 Q72 300 71 278 Q69 257 69 237 Q69 127 116 61 Q163 -4 260 -6 Q374 -3 444 87 Q515 177 535 322 L595 748 L514 748 ZM368 945 L278 945 L353 795 L418 795 L368 945 Z" /><glyph glyph-name="" unicode="ú" d="M514 748 L455 322 Q439 211 391 140 Q343 68 270 66 Q206 67 177 115 Q149 162 149 241 Q149 260 151 280 Q153 301 156 322 L215 748 L134 748 L75 322 Q72 300 71 278 Q69 257 69 237 Q69 127 116 61 Q163 -4 260 -6 Q374 -3 444 87 Q515 177 535 322 L595 748 L514 748 ZM329 795 L394 795 L513 945 L422 945 L329 795 Z" /><glyph glyph-name="" unicode="û" d="M514 748 L455 322 Q439 211 391 140 Q343 68 270 66 Q206 67 177 115 Q149 162 149 241 Q149 260 151 280 Q153 301 156 322 L215 748 L134 748 L75 322 Q72 300 71 278 Q69 257 69 237 Q69 127 116 61 Q163 -4 260 -6 Q374 -3 444 87 Q515 177 535 322 L595 748 L514 748 ZM442 945 L364 945 L265 795 L320 795 L394 889 L443 795 L498 795 L442 945 Z" /><glyph glyph-name="" unicode="ü" d="M514 748 L455 322 Q439 211 391 140 Q343 68 270 66 Q206 67 177 115 Q149 162 149 241 Q149 260 151 280 Q153 301 156 322 L215 748 L134 748 L75 322 Q72 300 71 278 Q69 257 69 237 Q69 127 116 61 Q163 -4 260 -6 Q374 -3 444 87 Q515 177 535 322 L595 748 L514 748 ZM264 863 Q264 842 275 828 Q285 814 303 813 Q326 814 342 833 Q359 853 360 880 Q360 901 348 914 Q337 928 319 928 Q298 927 281 908 Q265 889 264 863 L264 863 ZM420 863 Q420 842 431 828 Q441 814 459 813 Q482 814 498 833 Q515 852 516 880 Q516 901 504 914 Q493 928 475 928 Q454 927 437 908 Q421 889 420 863 L420 863 Z" /><glyph glyph-name="" unicode="ß" d="M137 455 L72 -32 Q62 -100 31 -122 Q0 -145 -36 -143 L-33 -206 Q-23 -210 -13 -212 Q-2 -214 6 -214 Q51 -215 92 -171 Q134 -127 149 -32 L232 572 Q243 644 274 684 Q305 724 343 725 Q380 725 403 706 Q425 686 426 647 Q418 582 360 555 Q301 528 293 439 Q301 375 356 319 Q411 263 419 196 Q418 124 391 94 Q364 65 328 66 Q305 66 286 77 Q266 88 251 105 L214 46 Q236 23 266 9 Q296 -6 329 -6 Q393 -6 444 44 Q496 93 499 193 Q491 298 437 350 Q382 401 374 448 Q382 507 441 535 Q499 563 507 653 Q507 718 468 756 Q430 794 354 795 Q281 794 226 736 Q171 677 155 573 L148 519 L60 519 L52 471 L137 455 Z" /><glyph glyph-name="" unicode="æ" d="M268 525 Q226 525 187 510 Q148 496 111 473 L127 413 Q159 432 189 444 Q219 456 252 456 Q292 456 314 428 Q336 399 336 339 Q336 327 335 315 Q334 302 332 288 Q306 302 277 309 Q248 315 228 315 Q108 308 71 241 Q34 174 38 133 Q38 71 71 33 Q103 -5 161 -6 Q205 -7 255 19 Q305 45 344 115 Q362 58 401 26 Q439 -5 495 -6 Q551 -6 589 8 Q627 21 661 45 L638 113 Q609 94 577 82 Q546 69 504 68 Q463 66 435 98 Q408 130 407 214 Q511 211 603 245 Q694 279 700 387 Q700 447 665 486 Q629 525 556 526 Q510 526 468 500 Q426 474 395 424 Q381 470 348 497 Q316 524 268 525 L268 525 ZM192 61 Q157 61 139 82 Q120 104 120 148 Q119 183 142 220 Q165 258 229 261 Q254 261 277 254 Q300 246 323 232 Q307 131 265 95 Q223 59 192 61 L192 61 ZM550 455 Q583 454 602 434 Q621 413 621 380 Q621 329 570 300 Q518 272 410 268 Q421 361 460 408 Q500 455 550 455 L550 455 Z" /><glyph glyph-name="" unicode="ç" d="M285 525 Q182 523 117 444 Q52 364 50 226 Q51 123 93 63 Q134 3 208 -5 Q197 -61 170 -97 Q144 -132 98 -144 L116 -199 Q185 -188 220 -134 Q254 -80 260 -3 Q295 0 324 15 Q353 29 382 54 L350 114 Q292 66 238 66 Q188 66 159 106 Q129 146 128 227 Q129 327 171 389 Q212 451 276 453 Q299 453 316 446 Q333 440 347 429 L336 322 L392 322 L418 474 Q392 496 361 510 Q330 525 285 525 L285 525 Z" /><glyph glyph-name="" unicode="ë" d="M430 387 Q430 447 395 486 Q360 525 287 526 Q191 524 125 440 Q59 355 56 212 Q57 108 102 52 Q146 -5 226 -6 Q282 -6 320 8 Q357 21 392 45 L368 111 Q339 92 308 80 Q276 67 235 66 Q193 64 165 96 Q138 128 137 214 Q242 211 333 245 Q424 279 430 387 L430 387 ZM280 457 Q313 456 332 435 Q351 413 351 380 Q351 329 300 300 Q248 272 140 268 Q151 361 190 409 Q230 457 280 457 L280 457 ZM185 653 Q185 632 196 618 Q206 604 224 603 Q247 604 263 623 Q280 643 281 670 Q281 691 269 704 Q258 718 240 718 Q219 717 202 698 Q186 679 185 653 L185 653 ZM341 653 Q341 632 352 618 Q362 604 380 603 Q403 604 419 623 Q436 642 437 670 Q437 691 425 704 Q414 718 396 718 Q375 717 358 698 Q342 679 341 653 L341 653 Z" /><glyph glyph-name="" unicode="ñ" d="M208 519 L136 519 L65 0 L142 0 L191 365 Q219 410 251 432 Q282 453 310 453 Q342 454 362 431 Q381 407 382 348 Q382 332 378 303 L336 0 L413 0 L454 296 Q457 315 458 333 Q459 350 459 366 Q457 460 419 494 Q381 527 334 525 Q307 525 273 507 Q238 489 202 448 L198 448 L208 519 ZM452 665 Q434 688 416 695 Q399 703 388 702 Q351 700 326 683 Q302 665 281 663 Q272 663 261 668 Q250 674 239 687 L208 632 Q223 611 239 602 Q255 594 269 594 Q297 596 324 613 Q351 630 376 632 Q383 633 395 628 Q407 623 424 607 L452 665 Z" /><glyph glyph-name="" unicode="÷" d="M176 118 Q176 92 190 75 Q203 58 224 57 Q251 58 271 82 Q291 105 292 140 Q292 165 279 182 Q265 199 244 200 Q217 199 197 176 Q177 152 176 118 L176 118 ZM236 536 Q236 511 249 494 Q262 478 283 477 Q310 478 330 501 Q350 524 351 558 Q351 583 338 601 Q325 618 304 619 Q277 618 257 594 Q237 570 236 536 L236 536 ZM61 302 L455 302 L467 374 L74 374 L61 302 Z" /><glyph glyph-name="" unicode="ø" d="M471 484 L445 523 L404 475 Q383 499 354 512 Q325 525 290 525 Q186 524 119 441 Q52 358 50 211 Q50 139 74 87 L30 35 L57 -4 L100 47 Q121 21 151 8 Q180 -6 216 -6 Q319 -4 386 80 Q453 165 455 311 Q455 348 449 379 Q442 410 430 435 L471 484 ZM378 298 Q376 193 334 129 Q292 65 228 63 Q178 63 151 108 L371 366 Q378 336 378 298 L378 298 ZM278 456 Q302 456 321 445 Q339 434 352 414 L133 157 Q130 171 129 186 Q128 202 128 219 Q130 326 172 390 Q214 454 278 456 L278 456 Z" /><glyph glyph-name="" unicode="ÿ" d="M419 430 Q418 484 399 505 Q379 527 348 526 Q340 526 330 523 Q320 521 311 517 L300 454 Q318 455 329 447 Q340 439 340 411 Q337 358 299 254 Q261 151 218 73 L134 525 L52 519 L160 0 Q111 -78 71 -112 Q31 -146 -12 -145 L-9 -204 Q-1 -209 8 -211 Q18 -214 25 -214 Q136 -192 272 36 Q407 264 419 430 L419 430 ZM119 653 Q119 632 130 618 Q140 604 158 603 Q181 604 197 623 Q214 643 215 670 Q215 691 203 704 Q192 718 174 718 Q153 717 136 698 Q120 679 119 653 L119 653 ZM275 653 Q275 632 286 618 Q296 604 314 603 Q337 604 353 623 Q370 642 371 670 Q371 691 359 704 Q348 718 330 718 Q309 717 292 698 Q276 679 275 653 L275 653 Z" /><glyph glyph-name="" unicode="&#x131;" d="M199 519 L122 519 L75 161 Q73 142 71 128 Q69 113 69 103 Q70 41 94 17 Q117 -7 149 -6 Q171 -6 189 3 L200 66 Q174 65 161 75 Q148 86 148 119 Q148 127 149 139 Q150 150 151 162 L199 519 Z" /><glyph glyph-name="" unicode="&#x152;" d="M812 674 L823 748 L461 748 Q443 751 423 753 Q402 754 381 754 Q226 748 139 618 Q52 488 50 300 Q50 167 106 82 Q163 -3 275 -6 Q295 -6 318 -4 Q340 -3 359 0 L719 0 L731 74 L442 74 L479 355 L736 355 L747 425 L490 425 L522 674 L812 674 ZM284 70 Q206 73 169 142 Q131 211 131 315 Q133 460 198 566 Q263 673 373 678 Q392 678 408 677 Q424 676 441 672 L363 76 Q343 72 324 71 Q305 70 284 70 L284 70 Z" /><glyph glyph-name="" unicode="&#x153;" d="M297 525 Q193 524 127 441 Q60 358 58 211 Q59 111 103 53 Q146 -5 223 -6 Q279 -5 325 25 Q371 56 403 109 Q422 55 459 25 Q497 -5 550 -6 Q605 -6 643 8 Q681 21 716 45 L691 113 Q662 94 631 82 Q600 69 558 68 Q517 66 489 97 Q462 128 461 214 Q565 211 657 245 Q748 279 754 387 Q754 447 718 486 Q683 525 610 526 Q559 526 514 498 Q469 469 438 412 Q420 465 384 495 Q348 525 297 525 L297 525 ZM286 454 Q336 453 360 412 Q385 370 385 298 Q384 193 342 130 Q300 67 235 65 Q188 65 162 104 Q136 143 136 219 Q138 326 180 389 Q222 452 286 454 L286 454 ZM604 455 Q637 454 655 434 Q674 413 674 380 Q674 329 623 300 Q572 272 464 268 Q474 361 514 408 Q553 455 604 455 L604 455 Z" /><glyph glyph-name="" unicode="&#x178;" d="M77 748 L215 287 L176 0 L256 0 L295 286 Q372 402 429 502 Q486 602 559 748 L469 754 Q416 630 364 531 Q311 431 270 363 L266 363 L169 754 L77 748 ZM217 864 Q217 843 228 829 Q238 815 256 814 Q279 815 295 834 Q312 854 313 881 Q313 902 301 915 Q290 929 272 929 Q251 928 234 909 Q218 890 217 864 L217 864 ZM373 864 Q373 843 384 829 Q394 815 412 814 Q435 815 451 834 Q468 853 469 881 Q469 902 457 915 Q446 929 428 929 Q407 928 390 909 Q374 890 373 864 L373 864 Z" /><glyph glyph-name="" unicode="&#x192;" d="M176 68 Q167 -1 148 -30 Q129 -59 96 -58 Q85 -58 73 -54 Q62 -50 52 -41 L19 -107 Q35 -120 54 -127 Q73 -133 98 -133 Q156 -133 197 -89 Q237 -46 250 44 L301 412 L407 412 L427 471 L310 471 L328 608 Q335 661 351 687 Q368 714 400 714 Q429 714 453 694 L485 758 Q470 774 446 782 Q422 790 402 790 Q342 789 303 742 Q263 696 253 622 L232 471 L135 471 L127 428 L223 412 L176 68 Z" /><glyph glyph-name="" unicode="&#x2c6;" d="M268 735 L190 735 L91 585 L146 585 L220 679 L269 585 L324 585 L268 735 Z" /><glyph glyph-name="" unicode="&#x2c7;" d="M334 735 L279 735 L205 641 L156 735 L101 735 L157 585 L235 585 L334 735 Z" /><glyph glyph-name="" unicode="&#x2d8;" d="M102 735 Q102 669 126 634 Q150 598 199 598 Q249 598 286 634 Q323 669 337 735 L290 735 Q279 696 258 679 Q237 661 208 661 Q181 661 165 680 Q149 699 148 735 L102 735 Z" /><glyph glyph-name="" unicode="&#x2d9;" d="M93 652 Q93 631 104 617 Q114 603 132 603 Q155 604 172 623 Q188 641 189 669 Q189 690 177 704 Q166 718 148 718 Q126 717 110 698 Q94 679 93 652 L93 652 Z" /><glyph glyph-name="" unicode="&#x2da;" d="M93 654 Q94 620 110 598 Q127 577 154 576 Q194 577 219 607 Q243 637 244 683 Q244 718 227 740 Q210 761 182 762 Q144 761 119 731 Q94 700 93 654 L93 654 ZM133 661 Q134 684 146 702 Q158 719 176 720 Q189 719 197 707 Q205 694 205 677 Q204 652 192 636 Q179 619 161 618 Q149 619 141 631 Q133 643 133 661 L133 661 Z" /><glyph glyph-name="" unicode="&#x2db;" d="M128 -125 Q103 -125 85 -113 Q68 -102 67 -77 Q68 -43 86 -21 Q103 0 126 9 L122 54 Q82 43 44 6 Q7 -32 4 -93 Q6 -141 34 -164 Q63 -187 100 -189 L128 -125 Z" /><glyph glyph-name="" unicode="&#x2dc;" d="M338 665 Q320 688 302 695 Q285 703 274 702 Q237 700 212 683 Q188 665 167 663 Q158 663 147 668 Q136 674 125 687 L94 632 Q109 611 125 602 Q141 594 155 594 Q183 596 210 613 Q237 630 262 632 Q269 633 281 628 Q293 623 310 607 L338 665 Z" /><glyph glyph-name="" unicode="&#x2dd;" d="M92 585 L152 585 L265 735 L179 735 L92 585 ZM236 585 L296 585 L409 735 L323 735 L236 585 Z" /><glyph glyph-name="" unicode="&#x3a9;" d="M426 74 L427 78 Q487 135 534 237 Q581 339 584 471 Q583 592 532 671 Q480 751 385 754 Q258 749 175 631 Q93 513 90 342 Q91 256 110 189 Q130 121 159 78 L159 74 L52 74 L40 0 L230 0 L240 61 Q211 99 190 168 Q169 237 168 327 Q170 468 227 571 Q284 674 376 679 Q439 677 470 612 Q501 548 501 451 Q498 313 447 214 Q396 115 339 61 L329 0 L520 0 L531 74 L426 74 Z" /><glyph glyph-name="" unicode="&#x3c0;" d="M386 449 L349 161 Q344 131 344 106 Q345 46 366 20 Q387 -7 423 -6 Q434 -6 444 -4 Q455 -1 464 3 L475 66 Q449 65 435 75 Q422 86 422 119 Q422 127 423 139 Q424 150 426 162 L462 449 L525 449 L537 519 L235 519 Q187 519 156 512 Q124 505 103 492 L106 424 Q118 431 138 438 Q158 445 188 447 Q169 336 138 209 Q107 81 77 0 L152 0 Q183 87 213 213 Q243 340 262 449 L386 449 Z" /><glyph glyph-name="" unicode="&#xfb01;" d="M490 519 L227 519 L238 600 Q246 661 270 693 Q294 726 330 726 Q382 725 419 712 Q456 699 479 685 L506 745 Q477 765 432 779 Q386 794 333 795 Q272 795 224 749 Q176 703 162 604 L151 519 L70 519 L61 471 L140 456 L75 -32 Q65 -100 36 -122 Q6 -145 -30 -143 L-27 -206 Q-18 -210 -8 -212 Q1 -214 9 -214 Q53 -215 95 -171 Q137 -127 152 -32 L217 454 L403 454 L365 161 Q361 131 361 106 Q362 46 383 20 Q404 -7 440 -6 Q450 -6 461 -4 Q471 -1 481 3 L491 66 Q465 65 452 75 Q439 86 439 119 Q439 127 440 139 Q441 150 442 162 L490 519 Z" /><glyph glyph-name="" unicode="&#xfb02;" d="M151 519 L70 519 L60 471 L140 456 L75 -32 Q65 -100 36 -122 Q6 -145 -30 -143 L-27 -206 Q-18 -210 -8 -212 Q1 -214 9 -214 Q53 -215 95 -171 Q137 -127 152 -32 L217 454 L329 454 L341 519 L227 519 L238 600 Q247 662 272 694 Q298 726 327 726 Q355 726 379 720 Q402 714 421 706 L348 161 Q343 131 343 106 Q344 46 365 20 Q386 -7 422 -6 Q443 -6 464 3 L473 66 Q447 65 434 75 Q422 86 422 119 Q422 127 423 139 Q424 150 425 162 L503 743 Q466 765 422 780 Q378 794 325 795 Q272 795 224 746 Q177 697 162 604 L151 519 Z" /><glyph glyph-name="" unicode="&#x2013;" d="M397 258 L408 326 L34 326 L22 258 L397 258 Z" /><glyph glyph-name="" unicode="&#x2014;" d="M598 258 L610 326 L36 326 L24 258 L598 258 Z" /><glyph glyph-name="" unicode="&#x2018;" d="M186 548 Q186 570 175 586 Q165 602 145 603 L209 737 L172 754 Q142 712 111 642 Q79 571 76 527 Q76 502 88 486 Q100 470 120 469 Q146 470 166 493 Q185 516 186 548 L186 548 Z" /><glyph glyph-name="" unicode="&#x2019;" d="M99 675 Q99 654 110 637 Q120 621 140 620 L76 487 L114 469 Q143 511 175 581 Q206 652 209 696 Q209 721 197 737 Q185 753 164 754 Q138 753 119 730 Q100 708 99 675 L99 675 Z" /><glyph glyph-name="" unicode="&#x201a;" d="M48 50 Q48 29 58 12 Q68 -4 88 -5 L24 -138 L62 -156 Q91 -114 123 -44 Q154 27 157 71 Q157 96 145 112 Q133 128 113 129 Q87 128 68 105 Q49 83 48 50 L48 50 Z" /><glyph glyph-name="" unicode="&#x201c;" d="M186 548 Q186 570 176 586 Q166 602 146 603 L209 737 L172 754 Q142 712 111 642 Q79 571 76 527 Q76 502 88 486 Q100 470 121 469 Q147 470 166 493 Q185 516 186 548 L186 548 ZM348 548 Q348 570 338 586 Q328 602 308 603 L372 737 L334 754 Q304 712 273 642 Q241 571 238 527 Q238 502 250 486 Q262 470 283 469 Q309 470 328 493 Q347 516 348 548 L348 548 Z" /><glyph glyph-name="" unicode="&#x201d;" d="M273 675 Q273 654 283 637 Q293 621 313 620 L249 487 L287 469 Q317 511 349 581 Q381 652 384 696 Q384 721 371 737 Q359 753 339 754 Q313 753 293 730 Q274 708 273 675 L273 675 ZM110 675 Q110 654 120 637 Q131 621 151 620 L87 487 L125 469 Q155 511 187 581 Q218 652 221 696 Q221 721 209 737 Q197 753 176 754 Q150 753 130 730 Q111 708 110 675 L110 675 Z" /><glyph glyph-name="" unicode="&#x201e;" d="M214 50 Q214 29 224 12 Q233 -4 252 -5 L190 -138 L227 -156 Q257 -114 289 -44 Q321 27 324 71 Q324 96 311 112 Q299 128 279 129 Q253 128 234 105 Q215 83 214 50 L214 50 ZM51 50 Q51 29 61 12 Q71 -4 90 -5 L27 -138 L65 -156 Q95 -114 127 -44 Q158 27 161 71 Q161 96 149 112 Q137 128 116 129 Q90 128 71 105 Q52 83 51 50 L51 50 Z" /><glyph glyph-name="" unicode="&#x2020;" d="M267 554 L304 748 L232 748 L216 554 L267 554 ZM204 473 L117 -78 L189 -78 L254 473 L204 473 ZM261 483 L402 470 L415 555 L272 542 L240 512 L261 483 ZM207 542 L66 555 L53 470 L197 483 L229 512 L207 542 Z" /><glyph glyph-name="" unicode="&#x2021;" d="M184 115 L145 -78 L218 -78 L234 115 L184 115 ZM189 187 L48 200 L35 115 L178 128 L211 157 L189 187 ZM243 128 L384 115 L397 200 L253 187 L221 157 L243 128 ZM295 554 L333 748 L261 748 L244 554 L295 554 ZM247 198 L283 473 L232 473 L196 198 L247 198 ZM290 483 L431 470 L444 555 L300 542 L268 512 L290 483 ZM236 542 L95 555 L82 470 L226 483 L257 512 L236 542 Z" /><glyph glyph-name="" unicode="&#x2022;" d="M255 384 Q255 427 234 456 Q214 484 179 485 Q136 484 104 448 Q72 412 70 356 Q71 314 91 286 Q111 259 145 258 Q189 259 221 294 Q253 328 255 384 L255 384 Z" /><glyph glyph-name="" unicode="&#x2026;" d="M56 51 Q56 26 68 11 Q80 -5 101 -6 Q127 -5 146 17 Q166 39 167 71 Q167 96 154 112 Q142 128 121 129 Q95 128 76 105 Q57 83 56 51 L56 51 ZM285 51 Q285 26 297 11 Q309 -5 329 -6 Q355 -5 374 17 Q393 39 394 71 Q394 96 382 112 Q370 128 350 129 Q324 128 305 105 Q286 83 285 51 L285 51 ZM512 51 Q512 26 524 11 Q536 -5 557 -6 Q583 -5 602 17 Q621 39 622 71 Q622 96 610 112 Q598 128 577 129 Q551 128 532 105 Q513 83 512 51 L512 51 Z" /><glyph glyph-name="" unicode="&#x2030;" d="M645 748 L590 752 L120 0 L177 -4 L645 748 ZM102 553 Q103 489 133 447 Q163 406 213 404 Q276 406 324 464 Q372 521 374 605 Q373 669 343 711 Q313 752 263 754 Q199 752 152 694 Q104 636 102 553 L102 553 ZM395 143 Q396 79 426 37 Q456 -4 506 -6 Q571 -4 618 54 Q666 111 668 195 Q667 259 637 301 Q606 342 556 344 Q492 342 445 284 Q397 226 395 143 L395 143 ZM163 562 Q164 613 191 650 Q218 688 255 690 Q284 689 299 661 Q313 634 313 595 Q312 544 284 507 Q257 470 221 468 Q192 469 177 496 Q163 523 163 562 L163 562 ZM456 151 Q457 202 485 240 Q512 278 548 280 Q577 279 592 251 Q606 224 606 186 Q605 134 577 97 Q550 60 513 58 Q485 59 470 86 Q456 113 456 151 L456 151 ZM707 143 Q708 79 738 37 Q768 -4 818 -6 Q883 -4 930 54 Q978 111 980 195 Q979 259 948 301 Q917 342 867 344 Q804 342 757 284 Q709 226 707 143 L707 143 ZM769 151 Q770 202 797 240 Q824 278 861 280 Q890 279 904 251 Q919 224 919 186 Q918 134 890 97 Q862 60 825 58 Q797 59 783 86 Q769 113 769 151 L769 151 Z" /><glyph glyph-name="" unicode="&#x2039;" d="M204 592 L51 367 L51 359 L140 133 L190 171 L119 364 L242 554 L204 592 Z" /><glyph glyph-name="" unicode="&#x203a;" d="M96 554 L167 364 L44 171 L81 133 L234 359 L236 367 L145 592 L96 554 Z" /><glyph glyph-name="" unicode="&#x2044;" d="M-90 -6 L358 748 L302 754 L-143 0 L-90 -6 Z" /><glyph glyph-name="" unicode="&#x20ac;" d="M99 265 Q99 135 139 65 Q179 -5 259 -6 Q301 -6 339 10 Q378 25 417 59 L396 127 Q363 98 331 83 Q299 68 268 68 Q222 69 200 120 Q178 172 177 265 L339 265 L357 320 L180 320 Q182 343 186 373 Q189 403 194 425 L383 425 L401 479 L207 479 Q231 584 269 632 Q307 681 352 680 Q384 681 409 670 Q434 660 458 633 L499 700 Q470 726 437 740 Q403 754 360 754 Q281 754 221 686 Q162 618 128 479 L71 479 L61 440 L115 425 Q110 400 107 373 Q104 345 102 320 L52 320 L41 280 L99 265 Z" /><glyph glyph-name="" unicode="&#x2122;" d="M504 476 L603 635 L606 634 L576 416 L621 416 L667 748 L633 748 L514 557 L447 748 L414 748 L367 416 L412 416 L441 634 L445 635 L499 476 L504 476 ZM367 748 L142 748 L134 701 L225 701 L185 416 L229 416 L269 701 L359 701 L367 748 Z" /><glyph glyph-name="" unicode="&#x2202;" d="M300 453 Q332 452 354 428 Q376 405 389 367 Q386 248 350 159 Q314 70 251 65 Q205 65 179 104 Q152 143 152 220 Q153 326 195 389 Q236 452 300 453 L300 453 ZM230 -6 Q341 -8 410 112 Q479 231 481 496 Q479 670 432 734 Q384 799 317 795 Q272 794 233 777 Q195 760 166 733 L195 680 Q210 695 238 710 Q265 724 301 725 Q353 726 380 682 Q408 637 408 530 Q408 510 407 489 Q407 467 405 444 L402 443 Q387 480 359 502 Q332 524 296 525 Q200 523 138 440 Q76 356 74 210 Q75 109 116 52 Q157 -5 230 -6 L230 -6 Z" /><glyph glyph-name="" unicode="&#x2206;" d="M364 748 L288 748 L-16 29 L-7 0 L481 0 L491 29 L364 748 ZM89 74 L309 633 L313 633 L400 74 L89 74 Z" /><glyph glyph-name="" unicode="&#x220f;" d="M178 0 L270 674 L472 674 L380 0 L460 0 L552 674 L613 674 L625 748 L141 748 L128 674 L189 674 L98 0 L178 0 Z" /><glyph glyph-name="" unicode="&#x2211;" d="M121 712 L258 380 L22 36 L27 0 L431 0 L443 74 L148 74 L148 78 L345 376 L230 670 L231 674 L510 674 L523 748 L132 748 L121 712 Z" /><glyph glyph-name="" unicode="&#x221a;" d="M214 -155 L541 846 L484 846 L208 -2 L204 -2 L175 408 L58 408 L47 339 L118 339 L158 -155 L214 -155 Z" /><glyph glyph-name="" unicode="&#x221e;" d="M443 195 Q497 197 535 243 Q573 289 575 358 Q574 409 550 443 Q525 476 483 477 Q445 476 407 449 Q369 422 332 378 Q308 422 278 449 Q248 476 209 477 Q155 475 117 429 Q79 382 77 313 Q78 262 103 229 Q128 196 169 195 Q208 196 245 223 Q283 249 320 293 Q345 249 375 223 Q405 196 443 195 L443 195 ZM453 256 Q419 257 397 280 Q375 302 359 336 Q385 370 413 393 Q441 415 474 416 Q497 415 511 397 Q525 378 525 348 Q524 309 503 283 Q482 257 453 256 L453 256 ZM178 256 Q156 257 142 275 Q128 294 128 324 Q129 363 150 389 Q171 415 200 416 Q233 415 255 393 Q276 370 293 336 Q268 302 240 280 Q212 257 178 256 L178 256 Z" /><glyph glyph-name="" unicode="&#x222b;" d="M240 726 Q251 798 281 819 Q310 839 345 837 L341 890 Q333 894 324 896 Q314 898 307 898 Q263 899 228 855 Q193 811 179 716 L81 9 Q70 -62 41 -84 Q12 -105 -24 -103 L-21 -156 Q-12 -160 -2 -162 Q7 -164 14 -164 Q58 -164 93 -120 Q128 -76 142 18 L240 726 Z" /><glyph glyph-name="" unicode="&#x2248;" d="M197 433 Q173 434 158 447 Q143 460 127 478 L87 417 Q116 387 137 374 Q157 361 187 361 Q236 364 275 385 Q313 405 344 408 Q368 407 386 394 Q403 380 418 363 L458 423 Q429 453 408 467 Q386 480 355 480 Q311 477 272 457 Q234 436 197 433 L197 433 ZM173 268 Q150 269 134 282 Q119 296 103 313 L64 252 Q93 223 113 210 Q134 197 163 197 Q212 200 251 221 Q289 241 320 244 Q344 243 362 230 Q379 216 394 198 L434 259 Q405 288 384 302 Q362 315 330 315 Q286 312 248 292 Q210 271 173 268 L173 268 Z" /><glyph glyph-name="" unicode="&#x2260;" d="M84 384 L280 384 L280 380 L207 291 L71 291 L60 220 L141 220 L141 216 L88 152 L114 116 L201 220 L454 220 L464 291 L267 291 L267 295 L340 384 L477 384 L489 456 L407 456 L407 460 L461 525 L435 561 L347 456 L95 456 L84 384 Z" /><glyph glyph-name="" unicode="&#x2264;" d="M424 152 L436 231 L186 385 L187 389 L477 544 L488 623 L116 421 L104 353 L424 152 ZM409 41 L420 113 L69 113 L58 41 L409 41 Z" /><glyph glyph-name="" unicode="&#x2265;" d="M458 353 L470 421 L151 623 L138 544 L388 389 L387 385 L98 231 L85 152 L458 353 ZM418 41 L429 113 L78 113 L68 41 L418 41 Z" /><glyph glyph-name="" unicode="&#x25ca;" d="M486 374 L364 777 L312 777 L76 374 L199 -29 L249 -29 L486 374 ZM418 378 L237 59 L143 372 L324 688 L418 378 Z" /><glyph glyph-name="" unicode="¦" d="M163 806 L109 407 L170 407 L225 806 L163 806 ZM86 244 L30 -155 L92 -155 L147 244 L86 244 Z" /><glyph glyph-name="" unicode="²" d="M270 317 L277 372 L125 372 L124 376 Q168 443 236 490 Q303 537 310 635 Q310 683 282 715 Q254 747 203 748 Q175 750 144 734 Q113 719 82 665 L127 639 Q146 670 163 681 Q179 693 195 692 Q223 692 236 675 Q250 658 250 629 Q244 552 174 506 Q105 461 46 353 L57 317 L270 317 Z" /><glyph glyph-name="" unicode="³" d="M295 462 Q294 510 269 541 Q244 571 208 578 L208 582 L307 704 L302 748 L125 748 L117 698 L233 698 L235 694 L143 577 L156 538 Q191 539 213 522 Q234 505 235 464 Q234 412 214 392 Q194 371 166 372 Q149 372 128 381 Q107 390 93 405 L64 357 Q87 336 115 327 Q142 317 163 317 Q222 317 258 354 Q294 391 295 462 L295 462 Z" /><glyph glyph-name="" unicode="¹" d="M180 667 L143 317 L205 317 L254 748 L209 748 L102 676 L116 631 L180 667 Z" /><glyph glyph-name="" unicode="¼" d="M133 -6 L581 748 L527 754 L83 0 L133 -6 ZM543 287 L524 151 L433 151 L432 154 Q469 220 496 285 Q523 350 541 426 L482 437 Q465 358 435 288 Q404 217 348 125 L360 95 L517 95 L508 0 L567 0 L578 95 L610 95 L619 151 L586 151 L602 292 L543 287 ZM161 667 L123 317 L185 317 L234 748 L189 748 L82 676 L96 631 L161 667 Z" /><glyph glyph-name="" unicode="½" d="M129 -6 L577 748 L524 754 L79 0 L129 -6 ZM161 667 L122 317 L184 317 L234 748 L189 748 L82 676 L95 631 L161 667 ZM613 0 L620 55 L468 55 L468 60 Q512 126 578 173 Q645 221 652 319 Q652 366 624 398 Q597 430 546 431 Q518 433 487 417 Q456 402 425 348 L470 322 Q489 353 505 364 Q521 376 537 375 Q565 375 579 358 Q593 341 593 312 Q587 235 518 190 Q448 145 389 37 L400 0 L613 0 Z" /><glyph glyph-name="" unicode="¾" d="M168 -6 L615 748 L561 754 L117 0 L168 -6 ZM568 287 L549 151 L458 151 L457 154 Q494 220 521 285 Q548 350 566 426 L507 437 Q490 358 459 288 Q428 217 373 125 L384 95 L541 95 L532 0 L592 0 L603 95 L635 95 L644 151 L610 151 L627 292 L568 287 ZM280 462 Q279 510 254 541 Q229 571 193 578 L193 582 L292 704 L287 748 L109 748 L102 698 L218 698 L220 694 L128 577 L141 538 Q176 539 198 522 Q219 505 220 464 Q219 412 199 392 Q179 371 151 372 Q134 372 113 381 Q92 390 78 405 L49 357 Q72 336 100 327 Q127 317 148 317 Q207 317 243 354 Q279 391 280 462 L280 462 Z" /><glyph glyph-name="" unicode="ð" d="M248 0 Q406 6 491 134 Q577 263 578 447 Q578 577 523 661 Q469 745 357 748 L166 748 L119 413 L62 413 L50 341 L108 341 L62 0 L248 0 ZM154 74 L189 341 L326 341 L337 413 L200 413 L234 674 L342 674 Q422 672 460 606 Q497 539 497 435 Q496 285 431 182 Q367 78 254 74 L154 74 Z" /><glyph glyph-name="" unicode="×" d="M94 107 L253 287 L362 107 L413 157 L304 338 L463 518 L427 569 L269 388 L160 569 L109 518 L218 338 L60 157 L94 107 Z" /><glyph glyph-name="" unicode="ý" d="M77 748 L215 287 L176 0 L256 0 L295 286 Q372 402 429 502 Q486 602 559 748 L469 754 Q416 630 364 531 Q311 431 270 363 L266 363 L169 754 L77 748 ZM275 795 L340 795 L459 945 L368 945 L275 795 Z" /><glyph glyph-name="" unicode="þ" d="M76 0 L157 0 L172 108 L278 108 Q373 110 447 194 Q521 278 525 419 Q523 523 476 582 Q428 641 354 642 L247 642 L261 748 L181 748 L76 0 ZM185 184 L235 566 L334 566 Q382 565 413 523 Q443 482 444 408 Q441 307 393 246 Q344 186 281 184 L185 184 Z" /><glyph glyph-name="" unicode="ð" d="M491 721 L462 760 L369 703 Q340 740 311 760 Q283 780 248 793 L207 733 Q236 722 261 705 Q285 687 303 665 L219 612 L245 569 L336 626 Q361 579 372 530 Q383 481 383 442 L380 441 Q363 477 335 496 Q306 516 270 516 Q175 515 114 434 Q52 354 50 210 Q51 109 92 52 Q133 -5 206 -6 Q317 -6 385 104 Q452 214 454 427 Q454 501 440 560 Q425 619 401 662 L491 721 ZM275 446 Q306 445 331 418 Q356 391 369 353 Q366 237 326 153 Q286 69 221 65 Q177 65 152 103 Q127 141 127 217 Q129 321 170 383 Q212 445 275 446 L275 446 Z" /><glyph glyph-name="" unicode="ý" d="M441 430 Q440 484 421 505 Q401 527 370 526 Q362 526 352 523 Q342 521 333 517 L322 454 Q340 455 351 447 Q362 439 362 411 Q359 358 321 254 Q283 151 240 73 L156 525 L74 519 L182 0 Q133 -78 93 -112 Q53 -146 10 -145 L13 -204 Q21 -209 30 -211 Q40 -214 47 -214 Q158 -192 294 36 Q429 264 441 430 L441 430 ZM227 585 L292 585 L411 735 L320 735 L227 585 Z" /><glyph glyph-name="" unicode="þ" d="M386 311 Q385 205 351 138 Q316 70 253 68 Q225 68 204 84 Q183 99 166 130 L198 385 Q224 416 250 433 Q277 451 305 451 Q346 450 366 413 Q386 376 386 311 L386 311 ZM180 789 L40 -214 L117 -208 L153 49 L156 50 Q176 24 199 9 Q222 -6 247 -6 Q346 -4 404 86 Q462 176 463 324 Q463 419 427 472 Q390 524 321 525 Q293 525 267 510 Q240 495 215 468 L212 470 L257 795 L180 789 Z" /><glyph glyph-name="" unicode="&#x141;" d="M174 74 L205 294 L411 507 L379 547 L217 376 L266 748 L185 748 L123 297 L29 204 L57 160 L111 215 L82 0 L438 0 L449 74 L174 74 Z" /><glyph glyph-name="" unicode="&#x142;" d="M290 464 L258 504 L194 438 L241 795 L164 792 L104 362 L12 273 L39 228 L93 283 L78 172 Q76 156 74 138 Q73 119 73 106 Q73 46 94 20 Q115 -7 151 -6 Q161 -6 172 -4 Q182 -1 192 3 L202 66 Q176 65 163 75 Q151 86 151 119 Q151 136 154 162 L181 358 L290 464 Z" /><glyph glyph-name="" unicode="&#x160;" d="M49 119 Q92 52 140 23 Q189 -7 245 -6 Q342 -5 399 52 Q456 108 457 209 Q441 367 327 410 Q212 454 196 560 Q198 624 232 653 Q267 682 314 682 Q340 682 364 671 Q388 661 411 644 L402 539 L457 539 L490 681 Q456 714 413 734 Q369 753 319 754 Q230 754 175 702 Q119 651 117 554 Q133 406 246 366 Q358 326 374 201 Q373 136 338 101 Q303 66 250 66 Q206 66 169 94 Q132 121 103 172 L49 119 ZM476 945 L421 945 L347 851 L298 945 L243 945 L299 795 L377 795 L476 945 Z" /><glyph glyph-name="" unicode="&#x161;" d="M272 149 Q272 107 251 84 Q230 60 192 60 Q168 59 138 73 Q107 86 75 123 L34 67 Q78 21 117 6 Q157 -8 190 -7 Q259 -7 304 32 Q350 71 352 155 Q340 263 255 292 Q169 321 157 384 Q158 420 181 440 Q204 460 237 460 Q257 460 272 456 Q287 451 302 441 L302 373 L354 373 L373 481 Q342 502 309 514 Q275 526 235 526 Q159 525 119 484 Q79 443 79 377 Q91 273 176 243 Q260 212 272 149 L272 149 ZM394 735 L339 735 L265 641 L216 735 L161 735 L217 585 L295 585 L394 735 Z" /><glyph glyph-name="" unicode="&#x17d;" d="M11 36 L46 -9 Q65 12 83 21 Q100 29 121 29 Q160 26 210 6 Q259 -14 313 -17 Q348 -17 385 -6 Q421 4 450 24 L429 92 Q397 73 370 66 Q342 59 325 59 Q284 61 242 78 Q200 95 148 97 L147 101 L523 706 L514 748 L131 748 L120 676 L409 676 L11 36 ZM461 945 L406 945 L332 851 L283 945 L228 945 L284 795 L362 795 L461 945 Z" /><glyph glyph-name="" unicode="&#x17e;" d="M95 449 L308 449 L309 445 L25 41 L61 -9 Q77 11 93 20 Q110 29 129 29 Q159 26 202 7 Q245 -13 295 -16 Q325 -16 350 -6 Q374 4 396 24 L372 88 Q349 69 332 63 Q315 57 297 58 Q265 60 232 76 Q200 92 163 94 L162 98 L418 466 L406 519 L106 519 L95 449 ZM405 735 L350 735 L276 641 L227 735 L172 735 L228 585 L306 585 L405 735 Z" /><glyph glyph-name="" unicode="&#x2212;" d="M71 302 L465 302 L477 374 L83 374 L71 302 Z" /><glyph glyph-name="" unicode="&#x106;" d="M323 795 L388 795 L506 945 L416 945 L323 795 ZM288 66 Q204 68 168 136 Q131 204 132 311 Q133 457 194 567 Q254 676 363 682 Q397 682 424 669 Q451 656 474 637 L469 515 L523 515 L556 679 Q516 714 472 734 Q427 754 372 754 Q216 748 133 616 Q51 484 50 300 Q50 168 105 83 Q161 -3 279 -6 Q335 -6 393 26 Q451 58 493 127 L439 174 Q411 125 373 96 Q335 67 288 66 L288 66 Z" /><glyph glyph-name="" unicode="&#x10c;" d="M513 945 L458 945 L383 851 L335 945 L280 945 L336 795 L413 795 L513 945 ZM288 66 Q204 68 168 136 Q131 204 132 311 Q133 457 194 567 Q254 676 363 682 Q397 682 424 669 Q451 656 474 637 L469 515 L523 515 L556 679 Q516 714 472 734 Q427 754 372 754 Q216 748 133 616 Q51 484 50 300 Q50 168 105 83 Q161 -3 279 -6 Q335 -6 393 26 Q451 58 493 127 L439 174 Q411 125 373 96 Q335 67 288 66 L288 66 Z" /><glyph glyph-name="" unicode="&#x110;" d="M248 0 Q406 6 491 134 Q577 263 578 447 Q578 577 523 661 Q469 745 357 748 L166 748 L119 413 L62 413 L50 341 L108 341 L62 0 L248 0 ZM154 74 L189 341 L326 341 L337 413 L200 413 L234 674 L342 674 Q422 672 460 606 Q497 539 497 435 Q496 285 431 182 Q367 78 254 74 L154 74 Z" /><glyph glyph-name="" unicode="&#x107;" d="M249 585 L314 585 L432 735 L341 735 L249 585 ZM285 525 Q182 523 117 444 Q52 364 50 226 Q51 116 99 55 Q146 -5 229 -6 Q270 -6 307 9 Q344 23 382 54 L350 117 Q292 68 238 68 Q188 68 159 107 Q129 146 128 227 Q129 327 171 388 Q212 448 276 450 Q299 450 316 444 Q333 438 347 427 L336 322 L392 322 L418 474 Q392 496 361 510 Q330 525 285 525 L285 525 Z" /><glyph glyph-name="" unicode="&#x10d;" d="M423 735 L367 735 L292 641 L243 735 L189 735 L245 585 L323 585 L423 735 ZM418 474 Q392 496 361 510 Q330 525 285 525 Q182 523 117 444 Q52 364 50 226 Q51 116 99 55 Q146 -5 229 -6 Q270 -6 307 9 Q344 23 382 54 L350 117 Q292 68 238 68 Q188 68 159 107 Q129 146 128 227 Q129 327 171 388 Q212 448 276 450 Q299 450 316 444 Q333 438 347 427 L337 322 L395 322 L418 474 Z" /><glyph glyph-name="" unicode="&#x111;" d="M407 624 L389 480 Q366 503 338 514 Q309 525 278 525 Q181 523 120 437 Q58 351 56 203 Q57 104 95 49 Q133 -5 198 -6 Q234 -6 272 15 Q310 35 342 74 L346 74 Q353 34 372 14 Q390 -6 419 -6 Q430 -6 440 -4 Q451 -1 460 3 L470 66 Q444 65 431 75 Q419 86 419 119 Q419 127 420 139 Q421 150 422 162 L484 624 L545 624 L554 681 L493 681 L509 795 L432 792 L416 681 L289 681 L283 630 L407 624 ZM134 218 Q136 325 175 388 Q214 451 270 453 Q305 453 330 441 Q354 429 376 401 L345 159 Q320 117 289 92 Q258 67 222 66 Q182 66 158 105 Q135 144 134 218 L134 218 Z" /><glyph glyph-name="" unicode="&#x403;" d="M494 674 L506 748 L154 748 L50 0 L130 0 L222 674 L494 674 ZM292 796 L357 796 L476 946 L385 946 L292 796 Z" /><glyph glyph-name="" unicode="&#x405;" d="M24 119 Q67 52 115 23 Q164 -7 220 -6 Q317 -5 374 52 Q431 108 432 209 Q416 367 302 410 Q187 454 171 560 Q173 624 207 653 Q242 682 289 682 Q315 682 339 671 Q363 661 386 644 L377 539 L432 539 L465 681 Q431 714 388 734 Q344 753 294 754 Q205 754 150 702 Q94 651 92 554 Q108 406 221 366 Q333 326 349 201 Q348 136 313 101 Q278 66 225 66 Q181 66 144 94 Q107 121 78 172 L24 119 Z" /><glyph glyph-name="" unicode="&#x408;" d="M16 156 Q27 72 69 33 Q110 -6 171 -6 Q267 -2 313 75 Q359 152 370 249 L439 748 L359 748 L288 246 Q281 182 255 128 Q230 73 168 69 Q132 69 112 94 Q92 119 85 169 L16 156 Z" /><glyph glyph-name="" unicode="&#x409;" d="M619 351 Q662 351 687 321 Q712 291 713 235 Q712 164 677 120 Q641 75 582 74 L493 74 L530 351 L619 351 ZM335 674 L493 674 L401 0 L579 0 Q670 1 732 66 Q794 131 796 248 Q795 333 751 379 Q707 424 633 425 L542 425 L586 748 L168 748 L157 696 L257 680 L171 329 Q136 189 94 127 Q52 65 2 66 L8 -4 Q14 -7 22 -8 Q31 -9 36 -9 Q106 -8 158 73 Q209 155 245 305 L335 674 Z" /><glyph glyph-name="" unicode="&#x40a;" d="M480 74 L516 351 L606 351 Q649 351 674 321 Q699 291 700 235 Q699 164 663 120 Q628 75 569 74 L480 74 ZM528 425 L572 748 L492 748 L448 425 L191 425 L235 748 L155 748 L50 0 L131 0 L179 351 L436 351 L388 0 L565 0 Q656 1 718 66 Q780 131 783 248 Q782 333 737 379 Q693 424 619 425 L528 425 Z" /><glyph glyph-name="" unicode="&#x40c;" d="M329 796 L394 796 L513 946 L422 946 L329 796 ZM272 425 L190 425 L234 748 L155 748 L50 0 L130 0 L180 356 L270 356 Q323 285 359 146 Q394 7 472 -9 Q481 -9 489 -7 Q496 -5 502 -3 L502 65 Q444 77 419 197 Q393 316 335 398 L485 633 Q505 665 520 676 Q536 686 558 685 L568 747 Q562 750 552 753 Q541 755 527 755 Q497 754 477 736 Q456 717 438 688 L272 425 Z" /><glyph glyph-name="" unicode="&#x40f;" d="M294 -149 L315 0 L507 0 L611 748 L531 748 L438 74 L143 74 L235 748 L155 748 L50 0 L240 0 L218 -156 L294 -149 Z" /><glyph glyph-name="" unicode="&#x410;" d="M387 674 L493 674 L442 286 L219 286 L387 674 ZM220 748 L207 696 L312 679 L-1 0 L84 -6 L182 216 L430 216 L400 0 L481 0 L585 748 L220 748 Z" /><glyph glyph-name="" unicode="&#x411;" d="M50 0 L280 0 Q377 2 440 74 Q502 146 504 263 Q503 350 461 400 Q418 451 343 452 L194 452 L222 674 L500 674 L513 748 L154 748 L50 0 ZM182 378 L323 378 Q372 377 396 343 Q421 309 421 250 Q420 178 384 127 Q347 76 283 74 L142 74 L182 378 Z" /><glyph glyph-name="" unicode="&#x412;" d="M191 425 L222 676 L368 676 Q412 675 433 644 Q453 613 453 565 Q451 506 418 466 Q384 427 347 425 L191 425 ZM340 351 Q380 349 405 314 Q430 279 431 229 Q432 177 399 126 Q365 76 282 72 L143 72 L179 351 L340 351 ZM533 586 Q533 656 495 701 Q456 746 381 748 L155 748 L50 0 L280 0 Q390 2 450 69 Q510 135 511 237 Q510 290 485 332 Q460 374 422 388 L423 392 Q480 424 507 477 Q533 530 533 586 L533 586 Z" /><glyph glyph-name="" unicode="&#x413;" d="M494 674 L507 748 L154 748 L50 0 L131 0 L222 674 L494 674 Z" /><glyph glyph-name="" unicode="&#x414;" d="M-25 -156 L47 -149 L71 0 L453 0 L434 -156 L506 -149 L539 74 L477 74 L570 748 L170 748 L157 696 L258 680 Q214 479 168 325 Q122 170 66 74 L9 74 L-25 -156 ZM333 674 L478 674 L398 74 L153 74 Q200 161 245 320 Q291 479 333 674 L333 674 Z" /><glyph glyph-name="" unicode="&#x415;" d="M156 748 L52 0 L437 0 L450 74 L142 74 L178 354 L444 354 L456 425 L190 425 L225 674 L520 674 L532 748 L156 748 Z" /><glyph glyph-name="" unicode="&#x416;" d="M546 425 L464 425 L509 748 L433 748 L388 425 L308 425 L227 688 Q219 717 203 736 Q188 754 158 755 Q144 755 133 753 Q122 750 114 747 L105 685 Q127 686 142 676 Q156 667 166 634 L242 400 Q169 322 120 200 Q70 78 9 65 L-2 -2 Q4 -4 14 -7 Q24 -9 36 -9 Q113 6 170 144 Q228 281 291 356 L377 356 L329 0 L405 0 L454 356 L545 356 Q595 285 629 146 Q662 7 737 -9 Q746 -9 756 -7 Q766 -5 772 -3 L768 65 Q713 77 689 197 Q665 316 609 398 L740 633 Q758 666 774 676 Q790 686 813 685 L823 747 Q816 750 806 753 Q796 755 783 755 Q752 754 731 736 Q709 718 693 688 L546 425 Z" /><glyph glyph-name="" unicode="&#x417;" d="M187 -6 Q304 -4 365 63 Q425 129 425 232 Q424 290 400 330 Q375 371 337 387 L338 391 Q389 414 423 468 Q456 523 457 597 Q457 664 416 708 Q376 752 298 754 Q246 754 193 735 Q140 716 101 681 L94 539 L148 539 L169 644 Q193 662 223 672 Q252 682 283 682 Q327 681 351 652 Q374 623 374 581 Q372 513 336 468 Q299 424 255 422 L185 422 L173 351 L250 351 Q292 350 318 318 Q343 285 344 230 Q344 164 308 116 Q272 68 194 66 Q157 65 120 88 Q83 111 50 165 L2 105 Q35 57 81 26 Q128 -5 187 -6 L187 -6 Z" /><glyph glyph-name="" unicode="&#x418;" d="M502 540 L505 539 L429 0 L510 0 L614 748 L577 748 L164 196 L161 197 L238 748 L157 748 L53 0 L93 0 L502 540 Z" /><glyph glyph-name="" unicode="&#x41a;" d="M272 425 L190 425 L234 748 L155 748 L50 0 L130 0 L180 356 L270 356 Q323 285 359 146 Q394 7 472 -9 Q481 -9 489 -7 Q496 -5 502 -3 L502 65 Q444 77 419 197 Q393 316 335 398 L485 633 Q505 665 520 676 Q536 686 558 685 L568 747 Q562 750 552 753 Q541 755 527 755 Q497 754 477 736 Q456 717 438 688 L272 425 Z" /><glyph glyph-name="" unicode="&#x41b;" d="M36 -9 Q106 -8 158 73 Q209 155 245 305 L335 674 L494 674 L402 0 L482 0 L587 748 L168 748 L157 696 L257 680 L171 329 Q136 189 94 127 Q52 65 2 66 L8 -4 Q14 -7 22 -8 Q31 -9 36 -9 L36 -9 Z" /><glyph glyph-name="" unicode="&#x41c;" d="M361 222 L576 547 L579 546 L504 0 L583 0 L687 748 L635 748 L361 326 L206 748 L155 748 L50 0 L131 0 L203 552 L206 553 L325 222 L361 222 Z" /><glyph glyph-name="" unicode="&#x41d;" d="M131 0 L179 351 L474 351 L427 0 L507 0 L611 748 L531 748 L486 425 L191 425 L235 748 L155 748 L50 0 L131 0 Z" /><glyph glyph-name="" unicode="&#x41e;" d="M381 754 Q226 748 139 618 Q52 488 50 300 Q50 167 107 82 Q163 -3 275 -6 Q430 0 517 130 Q605 261 606 448 Q606 581 550 666 Q494 751 381 754 L381 754 ZM374 679 Q452 676 488 607 Q524 538 524 433 Q522 288 458 181 Q393 73 283 68 Q205 71 168 141 Q132 211 132 316 Q134 460 199 567 Q264 674 374 679 L374 679 Z" /><glyph glyph-name="" unicode="&#x41f;" d="M131 0 L223 674 L518 674 L427 0 L507 0 L611 748 L155 748 L50 0 L131 0 Z" /><glyph glyph-name="" unicode="&#x420;" d="M155 748 L50 0 L131 0 L166 254 L296 254 Q390 257 459 337 Q528 418 531 537 Q530 628 485 687 Q440 746 366 748 L155 748 ZM352 676 Q398 674 423 632 Q449 589 449 526 Q447 443 404 385 Q360 327 302 325 L177 325 L223 676 L352 676 Z" /><glyph glyph-name="" unicode="&#x421;" d="M288 66 Q204 68 168 136 Q131 204 132 311 Q133 457 194 567 Q254 676 363 682 Q397 682 424 669 Q451 656 474 637 L469 515 L523 515 L556 679 Q516 714 472 734 Q427 754 372 754 Q216 748 133 616 Q51 484 50 300 Q50 168 105 83 Q161 -3 279 -6 Q335 -6 393 26 Q451 58 493 127 L439 174 Q411 125 373 96 Q335 67 288 66 L288 66 Z" /><glyph glyph-name="" unicode="&#x422;" d="M521 748 L77 748 L64 674 L246 674 L155 0 L235 0 L326 674 L509 674 L521 748 Z" /><glyph glyph-name="" unicode="&#x423;" d="M58 -3 Q64 -6 73 -7 Q81 -9 86 -9 Q166 -12 291 170 Q416 351 570 748 L488 754 Q434 609 382 493 Q331 377 273 271 L149 754 L64 748 L215 200 Q174 140 131 103 Q89 67 52 66 L58 -3 Z" /><glyph glyph-name="" unicode="&#x424;" d="M363 0 L374 84 L439 84 Q545 88 623 183 Q700 279 704 422 Q703 529 653 599 Q602 668 520 670 L456 670 L468 748 L390 748 L378 670 L315 670 Q209 667 132 573 Q54 480 50 338 Q51 230 101 158 Q151 87 233 84 L297 84 L285 0 L363 0 ZM504 594 Q560 592 592 541 Q624 489 625 411 Q623 306 570 235 Q518 163 445 160 L386 160 L444 594 L504 594 ZM249 160 Q194 162 161 213 Q129 265 128 343 Q130 447 183 519 Q235 591 309 594 L366 594 L308 160 L249 160 Z" /><glyph glyph-name="" unicode="&#x425;" d="M463 754 Q433 688 390 610 Q348 533 299 458 L203 754 L113 748 L243 397 Q156 276 91 178 Q26 79 -14 0 L79 -6 Q109 57 159 142 Q209 227 277 325 L387 -6 L478 0 L335 385 Q407 488 460 578 Q513 668 552 748 L463 754 Z" /><glyph glyph-name="" unicode="&#x426;" d="M506 -149 L539 74 L476 74 L568 748 L488 748 L396 74 L143 74 L235 748 L155 748 L50 0 L456 0 L434 -156 L506 -149 Z" /><glyph glyph-name="" unicode="&#x427;" d="M391 348 Q357 338 329 332 Q301 327 269 327 Q224 327 195 356 Q165 385 164 443 Q164 463 165 477 Q166 492 168 510 L202 748 L121 748 L86 500 Q84 486 83 469 Q82 452 82 442 Q82 367 123 312 Q165 256 250 253 Q286 253 316 258 Q346 263 377 273 L341 0 L421 0 L526 748 L445 748 L391 348 Z" /><glyph glyph-name="" unicode="&#x428;" d="M50 0 L690 0 L794 748 L713 748 L621 74 L421 74 L513 748 L435 748 L343 74 L142 74 L235 748 L154 748 L50 0 Z" /><glyph glyph-name="" unicode="&#x430;" d="M418 -6 Q439 -6 459 3 L469 66 Q443 65 430 75 Q417 86 417 119 Q417 127 418 139 Q419 150 420 162 L463 477 L393 477 Q369 502 339 513 Q309 525 276 525 Q179 523 118 437 Q56 351 54 203 Q55 104 93 49 Q131 -5 196 -6 Q233 -6 270 15 Q308 35 340 74 L344 74 Q351 34 370 14 Q389 -6 418 -6 L418 -6 ZM133 218 Q135 324 173 387 Q212 449 269 450 Q304 450 328 438 Q352 426 375 399 L344 161 Q318 120 287 94 Q256 69 220 68 Q180 68 157 106 Q133 144 133 218 L133 218 Z" /><glyph glyph-name="" unicode="&#x431;" d="M318 681 Q359 696 391 705 Q423 713 468 728 L463 796 Q411 778 378 769 Q345 760 314 751 Q186 707 121 558 Q55 410 55 221 Q56 112 100 53 Q144 -5 220 -6 Q321 -4 386 80 Q452 164 454 311 Q453 411 412 466 Q371 521 297 522 Q270 522 230 504 Q190 486 164 456 L161 458 Q182 547 223 603 Q264 660 318 681 L318 681 ZM283 450 Q330 449 354 409 Q378 369 378 298 Q377 192 336 129 Q295 66 232 65 Q185 65 158 105 Q132 145 131 221 Q131 263 134 298 Q138 333 145 372 Q175 404 211 426 Q247 449 283 450 L283 450 Z" /><glyph glyph-name="" unicode="&#x432;" d="M432 403 Q433 455 398 490 Q363 526 286 527 Q190 525 124 440 Q58 354 55 207 Q56 106 103 49 Q150 -7 226 -8 Q308 -7 362 40 Q417 87 419 174 Q418 212 403 239 Q387 265 362 276 L363 280 Q395 300 413 331 Q432 363 432 403 L432 403 ZM345 174 Q344 121 312 93 Q280 65 235 65 Q199 64 168 97 Q137 131 135 214 Q158 214 203 221 Q249 228 300 243 Q317 238 331 220 Q344 203 345 174 L345 174 ZM280 457 Q313 456 332 438 Q350 419 350 389 Q341 310 260 288 Q179 266 140 269 Q152 360 192 408 Q233 457 280 457 L280 457 Z" /><glyph glyph-name="" unicode="&#x433;" d="M259 412 Q246 361 153 305 Q60 250 47 120 Q49 63 84 29 Q118 -5 168 -6 Q222 -6 258 9 Q294 23 326 45 L303 114 Q278 96 249 82 Q220 69 184 68 Q158 69 144 87 Q130 106 130 132 Q143 225 236 275 Q328 326 341 424 Q340 475 309 501 Q277 526 229 526 Q199 526 168 513 Q136 499 113 478 L136 418 Q155 436 173 446 Q191 457 211 457 Q234 457 247 446 Q259 435 259 412 L259 412 ZM376 637 L385 695 L164 695 L156 637 L376 637 Z" /><glyph glyph-name="" unicode="&#x434;" d="M132 218 Q134 324 173 387 Q212 449 269 450 Q301 450 325 437 Q349 423 365 397 L334 161 Q311 120 281 94 Q251 69 218 68 Q177 68 155 107 Q132 146 132 218 L132 218 ZM314 16 Q299 -82 257 -112 Q215 -142 180 -139 Q154 -139 130 -131 Q105 -123 83 -107 L58 -175 Q83 -193 111 -203 Q140 -214 176 -214 Q247 -217 308 -166 Q370 -115 392 24 L454 477 L383 477 Q362 502 334 513 Q306 525 276 525 Q179 523 118 437 Q56 351 54 203 Q55 104 93 49 Q131 -5 196 -6 Q227 -6 259 13 Q290 32 316 64 L319 63 L314 16 Z" /><glyph glyph-name="" unicode="&#x435;" d="M429 387 Q429 447 393 486 Q358 525 285 526 Q189 524 123 440 Q57 355 54 212 Q55 108 100 52 Q144 -5 224 -6 Q280 -6 318 8 Q355 21 390 45 L366 113 Q337 94 306 82 Q274 69 233 68 Q191 66 163 97 Q136 128 135 214 Q240 211 332 245 Q423 279 429 387 L429 387 ZM278 455 Q311 454 330 434 Q349 413 349 380 Q349 329 298 300 Q246 272 138 268 Q149 361 189 408 Q228 455 278 455 L278 455 Z" /><glyph glyph-name="" unicode="&#x436;" d="M192 290 Q136 215 108 142 Q81 68 17 63 L9 2 Q17 -1 27 -3 Q38 -6 49 -6 Q122 2 158 89 Q195 176 246 250 L308 250 L273 0 L349 0 L384 250 L452 250 Q485 185 507 94 Q529 3 595 -6 Q605 -6 618 -4 Q632 -1 640 3 L636 66 Q578 72 566 143 Q553 215 512 283 L600 430 Q611 448 625 456 Q639 463 661 463 L667 520 Q659 525 649 527 Q638 529 629 529 Q599 529 578 513 Q557 497 543 471 L452 306 L392 306 L421 519 L345 519 L315 306 L258 306 L204 458 Q192 492 173 510 Q153 529 121 529 Q112 529 101 527 Q90 525 81 520 L79 465 Q101 466 117 458 Q132 450 141 422 L192 290 Z" /><glyph glyph-name="" unicode="&#x437;" d="M227 458 Q262 458 282 441 Q301 424 301 392 Q300 357 274 329 Q248 301 202 299 L161 299 L152 247 L192 247 Q242 246 263 221 Q284 197 283 165 Q281 114 248 87 Q216 60 174 60 Q140 60 112 71 Q83 82 56 103 L23 44 Q51 22 88 8 Q126 -7 171 -7 Q255 -7 308 38 Q360 83 362 169 Q361 209 343 237 Q324 265 294 277 L294 281 Q333 299 356 333 Q378 366 379 412 Q379 461 343 493 Q308 525 242 526 Q200 526 159 514 Q118 502 85 481 L77 373 L141 373 L151 439 Q167 449 186 454 Q205 458 227 458 L227 458 Z" /><glyph glyph-name="" unicode="&#x438;" d="M196 519 L119 519 L79 224 Q76 204 75 187 Q74 170 74 155 Q77 60 116 26 Q155 -8 199 -6 Q236 -6 274 15 Q312 35 344 74 L348 74 Q355 34 374 14 Q393 -6 421 -6 Q432 -6 442 -4 Q453 -1 463 3 L473 66 Q447 65 434 75 Q421 86 421 119 Q421 127 422 139 Q423 150 425 162 L472 519 L396 519 L347 160 Q321 119 290 93 Q259 67 223 66 Q198 64 176 84 Q154 104 152 177 Q152 196 155 221 L196 519 Z" /><glyph glyph-name="" unicode="&#x43a;" d="M405 430 Q416 448 431 456 Q446 463 470 463 L470 520 Q462 525 451 527 Q441 529 432 529 Q402 529 381 513 Q361 497 348 471 L257 306 L182 306 L211 519 L134 519 L62 0 L138 0 L173 250 L255 250 Q295 180 311 91 Q328 2 397 -6 Q407 -6 418 -4 Q428 -1 436 3 L441 66 Q379 72 371 143 Q363 214 320 283 L405 430 Z" /><glyph glyph-name="" unicode="&#x43b;" d="M250 449 L374 449 L313 0 L390 0 L462 519 L122 519 L115 474 L177 457 L122 202 Q108 137 82 101 Q55 66 10 65 L13 2 Q22 -2 33 -5 Q44 -7 51 -7 Q106 -3 142 58 Q178 118 193 189 L250 449 Z" /><glyph glyph-name="" unicode="&#x43c;" d="M594 525 L513 519 L335 196 L331 196 L276 525 L137 519 L129 474 L193 461 L112 178 Q99 130 75 100 Q51 69 13 68 L16 2 Q26 -2 38 -5 Q50 -7 57 -7 Q105 -3 137 50 Q169 103 183 158 L236 358 L240 358 L293 46 L316 46 L489 357 L493 357 L466 146 Q464 130 463 119 Q463 108 463 96 Q464 40 485 17 Q507 -7 539 -6 Q550 -6 561 -4 Q573 -1 582 3 L593 66 Q567 65 554 75 Q541 86 541 119 Q541 127 542 138 Q543 149 545 162 L594 525 Z" /><glyph glyph-name="" unicode="&#x43d;" d="M211 519 L134 519 L62 0 L138 0 L174 255 L371 255 L361 161 Q358 146 357 132 Q356 119 356 106 Q356 46 378 20 Q399 -7 435 -6 Q445 -6 455 -4 Q466 -1 475 3 L486 66 Q460 65 447 75 Q434 86 434 119 Q434 127 435 139 Q436 150 438 162 L485 519 L409 519 L381 315 L183 315 L211 519 Z" /><glyph glyph-name="" unicode="&#x43e;" d="M299 525 Q193 523 125 439 Q56 354 54 205 Q55 108 97 52 Q139 -5 215 -6 Q320 -4 389 83 Q458 169 461 318 Q460 414 418 469 Q375 524 299 525 L299 525 ZM288 454 Q335 453 359 414 Q383 375 383 306 Q381 198 337 132 Q293 67 227 65 Q182 65 157 102 Q132 139 132 212 Q134 320 178 386 Q222 452 288 454 L288 454 Z" /><glyph glyph-name="" unicode="&#x43f;" d="M460 637 L470 695 L164 695 L154 637 L460 637 ZM196 519 L119 519 L79 224 Q76 204 75 187 Q74 170 74 155 Q77 60 116 26 Q155 -8 199 -6 Q236 -6 274 15 Q312 35 344 74 L348 74 Q355 34 374 14 Q393 -6 421 -6 Q432 -6 442 -4 Q453 -1 463 3 L473 66 Q447 65 434 75 Q421 86 421 119 Q421 127 422 139 Q423 150 425 162 L472 519 L396 519 L347 160 Q321 119 290 93 Q259 67 223 66 Q198 64 176 84 Q154 104 152 177 Q152 196 155 221 L196 519 Z" /><glyph glyph-name="" unicode="&#x440;" d="M136 519 L34 -214 L112 -208 L149 60 L152 61 Q172 30 198 12 Q225 -6 255 -6 Q352 -4 415 81 Q477 167 479 315 Q478 415 440 470 Q401 524 332 525 Q305 525 272 507 Q240 489 203 448 L199 448 L209 519 L136 519 ZM307 453 Q351 452 376 411 Q402 371 402 300 Q400 194 360 131 Q320 68 261 66 Q229 67 205 90 Q180 113 163 150 L190 364 Q218 409 249 431 Q280 453 307 453 L307 453 Z" /><glyph glyph-name="" unicode="&#x441;" d="M288 525 Q185 523 120 444 Q56 364 54 226 Q55 116 103 55 Q150 -5 233 -6 Q273 -6 311 9 Q348 23 385 54 L354 117 Q296 68 242 68 Q192 68 162 107 Q133 146 132 227 Q133 327 175 388 Q216 448 280 450 Q303 450 320 444 Q337 438 351 427 L339 322 L396 322 L422 474 Q395 496 364 510 Q334 525 288 525 L288 525 Z" /><glyph glyph-name="" unicode="&#x442;" d="M698 637 L707 695 L164 695 L154 637 L698 637 ZM197 519 L120 519 L79 224 Q76 204 75 187 Q74 170 74 155 Q77 60 116 26 Q155 -8 199 -6 Q232 -6 269 17 Q306 40 340 89 L344 89 Q360 34 393 13 Q426 -7 460 -6 Q492 -6 526 15 Q559 35 588 74 L592 74 Q598 34 617 14 Q635 -6 666 -6 Q677 -6 687 -4 Q698 -1 707 3 L717 66 Q691 65 678 75 Q666 86 666 119 Q666 127 667 139 Q668 150 669 162 L716 519 L640 519 L592 160 Q569 119 541 94 Q513 69 481 68 Q457 65 435 85 Q414 105 412 177 Q412 187 412 197 Q413 208 415 221 L457 519 L381 519 L341 228 Q335 191 335 165 Q311 119 281 94 Q251 68 219 68 Q196 65 175 85 Q153 105 152 177 Q152 187 153 198 Q154 208 156 221 L197 519 Z" /><glyph glyph-name="" unicode="&#x443;" d="M437 430 Q436 484 417 505 Q397 527 366 526 Q358 526 348 523 Q338 521 329 517 L318 454 Q336 455 347 447 Q358 439 358 411 Q355 358 313 254 Q271 151 227 73 L142 525 L60 519 L168 0 Q119 -78 79 -112 Q39 -146 -4 -145 L0 -204 Q7 -209 17 -211 Q27 -214 33 -214 Q145 -191 285 40 Q424 270 437 430 L437 430 Z" /><glyph glyph-name="" unicode="&#x444;" d="M481 795 L403 792 L358 468 L354 468 Q335 495 314 510 Q292 525 265 525 Q169 523 112 433 Q55 343 54 195 Q55 100 90 47 Q126 -6 191 -7 Q216 -7 243 8 Q270 23 296 50 L300 50 L264 -212 L341 -208 L376 50 L380 50 Q399 23 422 8 Q445 -7 470 -7 Q566 -4 623 86 Q680 176 681 324 Q681 419 645 471 Q609 524 544 525 Q517 525 490 510 Q464 495 439 468 L435 468 L481 795 ZM135 208 Q136 314 170 382 Q205 449 262 451 Q290 451 309 432 Q328 413 345 381 L313 136 Q288 106 261 87 Q234 69 206 68 Q170 69 153 106 Q135 143 135 208 L135 208 ZM600 310 Q599 204 565 137 Q531 70 473 68 Q445 69 426 87 Q407 106 390 136 L422 381 Q447 413 474 432 Q501 451 530 451 Q565 450 583 413 Q600 375 600 310 L600 310 Z" /><glyph glyph-name="" unicode="&#x445;" d="M305 -6 L392 0 L281 270 Q327 320 367 377 Q406 434 442 519 L359 525 Q331 458 302 412 Q274 365 243 328 L174 525 L91 519 L188 279 Q144 232 97 164 Q50 97 10 0 L91 -6 Q123 71 157 124 Q190 177 225 219 L305 -6 Z" /><glyph glyph-name="" unicode="&#x446;" d="M350 -184 L420 -179 L479 66 Q443 65 425 76 Q406 87 406 126 Q406 134 407 145 Q408 156 410 167 L456 519 L380 519 L331 160 Q305 119 274 93 Q243 67 207 66 Q182 64 160 84 Q138 104 136 177 Q136 196 139 221 L180 519 L102 519 L63 224 Q60 204 59 187 Q58 170 58 155 Q61 60 100 26 Q139 -8 183 -6 Q219 -6 258 14 Q296 35 332 75 L336 75 Q342 40 356 22 Q369 5 393 -1 L350 -184 Z" /><glyph glyph-name="" unicode="&#x447;" d="M74 371 Q73 358 72 346 Q71 334 71 323 Q72 245 107 209 Q141 173 191 174 Q218 174 244 183 Q270 191 297 206 L270 0 L347 0 L419 519 L342 519 L308 274 Q283 259 261 253 Q238 246 219 246 Q186 245 166 265 Q146 284 145 331 Q145 338 146 350 Q147 362 149 375 L169 519 L95 519 L74 371 Z" /><glyph glyph-name="" unicode="&#x448;" d="M197 519 L120 519 L79 224 Q76 204 75 187 Q74 170 74 155 Q77 60 116 26 Q155 -8 199 -6 Q232 -6 269 17 Q306 40 340 89 L344 89 Q360 34 393 13 Q426 -7 460 -6 Q492 -6 526 15 Q559 35 588 74 L592 74 Q598 34 617 14 Q635 -6 666 -6 Q677 -6 687 -4 Q698 -1 707 3 L717 66 Q691 65 678 75 Q666 86 666 119 Q666 127 667 139 Q668 150 669 162 L716 519 L640 519 L592 160 Q569 119 541 94 Q513 69 481 68 Q457 65 435 85 Q414 105 412 177 Q412 187 412 197 Q413 208 415 221 L457 519 L381 519 L341 228 Q335 191 335 165 Q311 119 281 94 Q251 68 219 68 Q196 65 175 85 Q153 105 152 177 Q152 187 153 198 Q154 208 156 221 L197 519 Z" /><glyph glyph-name="" unicode="&#x453;" d="M260 412 Q247 361 154 305 Q60 250 47 120 Q49 63 84 29 Q120 -5 170 -6 Q224 -6 260 9 Q296 23 327 45 L305 114 Q280 96 250 82 Q221 69 185 68 Q160 69 146 87 Q131 106 131 132 Q144 225 237 275 Q329 326 342 424 Q341 475 310 501 Q278 526 230 526 Q199 526 169 513 Q138 499 114 478 L136 418 Q156 436 174 446 Q192 457 212 457 Q235 457 248 446 Q260 435 260 412 L260 412 ZM189 585 L254 585 L372 735 L282 735 L189 585 Z" /><glyph glyph-name="" unicode="&#x455;" d="M272 149 Q272 107 251 84 Q230 60 192 60 Q168 59 138 73 Q107 86 75 123 L34 67 Q78 21 117 6 Q157 -8 190 -7 Q259 -7 304 32 Q350 71 352 155 Q340 263 255 292 Q169 321 157 384 Q158 420 181 440 Q204 460 237 460 Q257 460 272 456 Q287 451 302 441 L302 373 L354 373 L373 481 Q342 502 309 514 Q275 526 235 526 Q159 525 119 484 Q79 443 79 377 Q91 273 176 243 Q260 212 272 149 L272 149 Z" /><glyph glyph-name="" unicode="&#x458;" d="M78 -32 Q67 -100 37 -122 Q6 -145 -31 -143 L-27 -206 Q-18 -210 -8 -212 Q3 -214 11 -214 Q56 -215 97 -171 Q138 -127 153 -32 L230 519 L152 519 L78 -32 ZM157 684 Q157 662 170 646 Q182 631 201 630 Q229 631 248 652 Q266 673 267 703 Q267 725 254 740 Q241 755 221 756 Q194 755 176 735 Q158 714 157 684 L157 684 Z" /><glyph glyph-name="" unicode="&#x459;" d="M250 449 L369 449 L333 161 Q328 131 328 106 Q328 50 352 22 Q376 -6 430 -6 Q525 -4 574 49 Q623 101 623 184 Q622 245 593 280 Q563 314 514 315 L430 315 L458 519 L122 519 L115 474 L177 457 L122 202 Q108 137 82 101 Q55 66 10 65 L13 2 Q22 -2 33 -5 Q44 -7 51 -7 Q106 -3 142 58 Q178 118 193 189 L250 449 ZM494 255 Q523 254 537 232 Q551 209 551 172 Q550 118 522 89 Q494 60 455 60 Q430 59 417 70 Q405 81 405 113 Q405 120 405 129 Q406 138 407 149 L422 255 L494 255 Z" /><glyph glyph-name="" unicode="&#x45a;" d="M434 315 L462 519 L385 519 L357 315 L183 315 L211 519 L134 519 L62 0 L138 0 L174 255 L347 255 L336 161 Q332 131 332 106 Q332 50 356 22 Q380 -6 434 -6 Q529 -4 578 49 Q627 101 627 184 Q626 245 597 280 Q568 314 519 315 L434 315 ZM459 60 Q434 59 421 70 Q408 81 408 113 Q408 120 409 129 Q410 138 411 149 L425 255 L498 255 Q527 254 541 232 Q555 209 555 172 Q554 118 526 89 Q498 60 459 60 L459 60 Z" /><glyph glyph-name="" unicode="&#x45c;" d="M271 585 L336 585 L454 735 L363 735 L271 585 ZM405 430 Q416 448 431 456 Q446 463 470 463 L470 520 Q462 525 451 527 Q441 529 432 529 Q402 529 381 513 Q361 497 348 471 L257 306 L182 306 L211 519 L134 519 L62 0 L138 0 L173 250 L255 250 Q295 180 311 91 Q328 2 397 -6 Q407 -6 418 -4 Q428 -1 436 3 L441 66 Q379 72 371 143 Q363 214 320 283 L405 430 Z" /><glyph glyph-name="" unicode="&#x45f;" d="M167 -214 L243 -209 L261 -51 L196 -65 L167 -214 ZM196 519 L119 519 L79 224 Q76 204 75 187 Q74 170 74 155 Q77 60 116 26 Q155 -8 199 -6 Q236 -6 274 15 Q312 35 344 74 L348 74 Q355 34 374 14 Q393 -6 421 -6 Q432 -6 442 -4 Q453 -1 463 3 L473 66 Q447 65 434 75 Q421 86 421 119 Q421 127 422 139 Q423 150 425 162 L472 519 L396 519 L347 160 Q321 119 290 93 Q259 67 223 66 Q198 64 176 84 Q154 104 152 177 Q152 196 155 221 L196 519 Z" /><glyph glyph-name="" unicode="¤" d="M162 327 Q164 413 209 472 Q253 531 313 533 Q360 532 389 489 Q417 446 418 380 Q416 295 371 237 Q326 178 266 176 Q219 177 191 220 Q163 262 162 327 L162 327 ZM89 83 L152 154 Q172 131 198 117 Q223 104 255 104 Q285 104 315 117 Q344 130 371 154 L414 83 L465 133 L421 204 Q450 244 465 291 Q481 338 481 393 Q481 423 476 452 Q471 481 462 504 L526 575 L490 625 L427 554 Q407 578 382 592 Q356 605 325 605 Q293 605 264 592 Q234 578 208 554 L165 625 L115 575 L159 504 Q131 464 115 417 Q99 370 99 317 Q99 286 104 256 Q109 226 118 204 L54 133 L89 83 Z" /><glyph glyph-name="" unicode="&#x400;" d="M339 945 L249 945 L324 795 L389 795 L339 945 ZM156 748 L52 0 L437 0 L450 74 L142 74 L178 354 L444 354 L456 425 L190 425 L225 674 L520 674 L532 748 L156 748 Z" /><glyph glyph-name="" unicode="&#x40d;" d="M398 946 L308 946 L383 796 L448 796 L398 946 ZM502 540 L505 539 L429 0 L510 0 L614 748 L577 748 L164 196 L161 197 L238 748 L157 748 L53 0 L93 0 L502 540 Z" /><glyph glyph-name="" unicode="&#x450;" d="M287 735 L196 735 L271 585 L336 585 L287 735 ZM429 387 Q429 447 393 485 Q358 524 285 525 Q189 523 124 439 Q58 354 55 207 Q56 106 101 50 Q145 -5 224 -6 Q272 -6 311 8 Q350 21 386 45 L369 108 Q338 87 305 75 Q272 62 235 62 Q187 60 161 93 Q134 125 134 214 Q238 211 331 245 Q423 278 429 387 L429 387 ZM280 457 Q313 456 331 436 Q350 415 350 382 Q350 330 299 302 Q248 274 140 270 Q150 362 189 410 Q229 457 280 457 L280 457 Z" /><glyph glyph-name="" unicode="&#x45d;" d="M289 735 L198 735 L274 585 L339 585 L289 735 ZM196 519 L119 519 L79 224 Q76 204 75 187 Q74 170 74 155 Q77 60 116 26 Q155 -8 199 -6 Q236 -6 274 15 Q312 35 344 74 L348 74 Q355 34 374 14 Q393 -6 421 -6 Q432 -6 442 -4 Q453 -1 463 3 L473 66 Q447 65 434 75 Q421 86 421 119 Q421 127 422 139 Q423 150 425 162 L472 519 L396 519 L347 160 Q321 119 290 93 Q259 67 223 66 Q198 64 176 84 Q154 104 152 177 Q152 196 155 221 L196 519 Z" /><glyph glyph-name="" unicode="" d="" /><glyph glyph-name="" unicode="é" d="M430 387 Q430 447 395 486 Q360 525 287 526 Q191 524 125 440 Q59 355 56 212 Q57 108 102 52 Q146 -5 226 -6 Q282 -6 320 8 Q357 21 392 45 L368 111 Q339 92 308 80 Q276 67 235 66 Q193 64 165 96 Q138 128 137 214 Q242 211 333 245 Q424 279 430 387 L430 387 ZM280 457 Q313 456 332 435 Q351 413 351 380 Q351 329 300 300 Q248 272 140 268 Q151 361 190 409 Q230 457 280 457 L280 457 ZM247 585 L312 585 L431 735 L340 735 L247 585 Z" /><glyph glyph-name="" unicode="è" d="M430 387 Q430 447 395 486 Q360 525 287 526 Q191 524 125 440 Q59 355 56 212 Q57 108 102 52 Q146 -5 226 -6 Q282 -6 320 8 Q357 21 392 45 L368 111 Q339 92 308 80 Q276 67 235 66 Q193 64 165 96 Q138 128 137 214 Q242 211 333 245 Q424 279 430 387 L430 387 ZM280 457 Q313 456 332 435 Q351 413 351 380 Q351 329 300 300 Q248 272 140 268 Q151 361 190 409 Q230 457 280 457 L280 457 ZM311 735 L221 735 L296 585 L361 585 L311 735 Z" /><glyph glyph-name="" unicode="ê" d="M430 387 Q430 447 395 486 Q360 525 287 526 Q191 524 125 440 Q59 355 56 212 Q57 108 102 52 Q146 -5 226 -6 Q282 -6 320 8 Q357 21 392 45 L368 111 Q339 92 308 80 Q276 67 235 66 Q193 64 165 96 Q138 128 137 214 Q242 211 333 245 Q424 279 430 387 L430 387 ZM280 457 Q313 456 332 435 Q351 413 351 380 Q351 329 300 300 Q248 272 140 268 Q151 361 190 409 Q230 457 280 457 L280 457 ZM360 735 L282 735 L183 585 L238 585 L312 679 L361 585 L416 585 L360 735 Z" /><glyph glyph-name="" unicode="ó" d="M290 525 Q186 524 119 441 Q52 358 50 211 Q51 111 95 53 Q139 -5 216 -6 Q319 -4 386 80 Q453 165 455 311 Q454 411 410 468 Q367 524 290 525 L290 525 ZM278 456 Q328 455 353 413 Q378 370 378 298 Q376 193 334 129 Q292 65 228 63 Q181 63 155 103 Q128 143 128 219 Q130 326 172 390 Q214 454 278 456 L278 456 ZM252 585 L317 585 L436 735 L345 735 L252 585 Z" /><glyph glyph-name="" unicode="ò" d="M290 525 Q186 524 119 441 Q52 358 50 211 Q51 111 95 53 Q139 -5 216 -6 Q319 -4 386 80 Q453 165 455 311 Q454 411 410 468 Q367 524 290 525 L290 525 ZM278 456 Q328 455 353 413 Q378 370 378 298 Q376 193 334 129 Q292 65 228 63 Q181 63 155 103 Q128 143 128 219 Q130 326 172 390 Q214 454 278 456 L278 456 ZM293 735 L203 735 L278 585 L343 585 L293 735 Z" /><glyph glyph-name="" unicode="ô" d="M290 525 Q186 524 119 441 Q52 358 50 211 Q51 111 95 53 Q139 -5 216 -6 Q319 -4 386 80 Q453 165 455 311 Q454 411 410 468 Q367 524 290 525 L290 525 ZM278 456 Q328 455 353 413 Q378 370 378 298 Q376 193 334 129 Q292 65 228 63 Q181 63 155 103 Q128 143 128 219 Q130 326 172 390 Q214 454 278 456 L278 456 ZM355 735 L277 735 L178 585 L233 585 L307 679 L356 585 L411 585 L355 735 Z" /><glyph glyph-name="" unicode="ö" d="M290 525 Q186 524 119 441 Q52 358 50 211 Q51 111 95 53 Q139 -5 216 -6 Q319 -4 386 80 Q453 165 455 311 Q454 411 410 468 Q367 524 290 525 L290 525 ZM278 456 Q328 455 353 413 Q378 370 378 298 Q376 193 334 129 Q292 65 228 63 Q181 63 155 103 Q128 143 128 219 Q130 326 172 390 Q214 454 278 456 L278 456 ZM199 653 Q199 632 210 618 Q220 604 238 603 Q261 604 277 623 Q294 643 295 670 Q295 691 283 704 Q272 718 254 718 Q233 717 216 698 Q200 679 199 653 L199 653 ZM355 653 Q355 632 366 618 Q376 604 394 603 Q417 604 433 623 Q450 642 451 670 Q451 691 439 704 Q428 718 410 718 Q389 717 372 698 Q356 679 355 653 L355 653 Z" /><glyph glyph-name="" unicode="õ" d="M290 525 Q186 524 119 441 Q52 358 50 211 Q51 111 95 53 Q139 -5 216 -6 Q319 -4 386 80 Q453 165 455 311 Q454 411 410 468 Q367 524 290 525 L290 525 ZM278 456 Q328 455 353 413 Q378 370 378 298 Q376 193 334 129 Q292 65 228 63 Q181 63 155 103 Q128 143 128 219 Q130 326 172 390 Q214 454 278 456 L278 456 ZM447 665 Q429 688 411 695 Q394 703 383 702 Q346 700 321 683 Q297 665 276 663 Q267 663 256 668 Q245 674 234 687 L203 632 Q218 611 234 602 Q250 594 264 594 Q292 596 319 613 Q346 630 371 632 Q378 633 390 628 Q402 623 419 607 L447 665 Z" /><glyph glyph-name="" unicode="í" d="M131 0 L235 748 L155 748 L50 0 L131 0 ZM146 795 L211 795 L330 945 L239 945 L146 795 Z" /><glyph glyph-name="" unicode="î" d="M131 0 L235 748 L155 748 L50 0 L131 0 ZM258 945 L180 945 L81 795 L136 795 L210 889 L259 795 L314 795 L258 945 Z" /><glyph glyph-name="" unicode="ï" d="M131 0 L235 748 L155 748 L50 0 L131 0 ZM83 866 Q83 845 94 831 Q104 817 122 816 Q145 817 161 836 Q178 856 179 883 Q179 904 167 917 Q156 931 138 931 Q117 930 100 911 Q84 892 83 866 L83 866 ZM239 866 Q239 845 250 831 Q260 817 278 816 Q301 817 317 836 Q334 855 335 883 Q335 904 323 917 Q312 931 294 931 Q273 930 256 911 Q240 892 239 866 L239 866 Z" /><glyph glyph-name="" unicode="ì" d="M131 0 L235 748 L155 748 L50 0 L131 0 ZM191 945 L101 945 L176 795 L241 795 L191 945 Z" /><glyph glyph-name="" unicode="&#xf8ff;" d="M645 530 L727 585 Q730 587 733 588 Q735 589 739 589 Q745 589 750 585 Q754 582 754 575 Q754 573 753 570 Q751 566 749 564 L714 530 L831 530 Q837 530 842 525 Q846 521 846 514 Q846 507 842 504 Q837 500 831 500 L750 500 L754 487 L867 487 Q874 487 877 483 Q881 478 881 473 Q881 465 877 461 Q874 457 867 457 L759 457 L759 443 L844 443 Q850 443 855 439 Q859 436 859 429 Q859 422 855 418 Q850 413 844 413 L754 413 L750 401 L820 401 Q825 401 830 396 Q834 392 834 385 Q834 379 830 375 Q825 370 820 370 L643 370 L643 85 L476 85 L476 370 L299 370 Q294 370 289 375 Q285 379 285 385 Q285 392 289 396 Q294 401 299 401 L369 401 L364 413 L275 413 Q269 413 265 418 Q260 422 260 429 Q260 436 265 439 Q269 443 275 443 L360 443 L360 457 L252 457 Q246 457 242 461 Q238 465 238 473 Q238 478 242 483 Q246 487 252 487 L364 487 L369 500 L288 500 Q282 500 278 504 Q273 507 273 514 Q273 521 278 525 Q282 530 288 530 L405 530 L370 564 Q368 566 366 570 Q365 573 365 575 Q365 582 370 585 Q374 589 380 589 Q388 589 392 585 L474 530 L645 530 ZM919 39 Q924 39 927 36 Q930 33 930 28 Q930 23 927 20 Q924 17 919 17 L905 17 L905 39 L919 39 ZM146 376 Q150 201 267 84 Q384 -33 559 -37 Q734 -33 851 84 Q968 201 972 376 Q968 551 851 668 Q734 785 559 789 Q384 785 267 668 Q150 551 146 376 L146 376 ZM863 17 Q864 -6 879 -21 Q894 -36 917 -37 Q940 -36 956 -21 Q971 -6 972 17 Q971 40 956 56 Q940 71 917 72 Q894 71 879 56 Q864 40 863 17 L863 17 ZM871 17 Q872 36 885 50 Q898 63 917 64 Q936 63 950 50 Q963 36 964 17 Q963 -2 950 -15 Q936 -28 917 -29 Q898 -28 885 -15 Q872 -2 871 17 L871 17 ZM930 -11 L941 -11 L925 9 Q931 11 935 16 Q939 21 939 28 Q939 36 933 42 Q927 48 919 48 L896 48 L896 -11 L905 -11 L905 8 L915 8 L930 -11 Z" /><glyph glyph-name="" unicode="í" d="M199 519 L122 519 L75 161 Q73 142 71 128 Q69 113 69 103 Q70 41 94 17 Q117 -7 149 -6 Q171 -6 189 3 L200 66 Q174 65 161 75 Q148 86 148 119 Q148 127 149 139 Q150 150 151 162 L199 519 ZM107 585 L172 585 L291 735 L200 735 L107 585 Z" /><glyph glyph-name="" unicode="ì" d="M199 519 L122 519 L75 161 Q73 142 71 128 Q69 113 69 103 Q70 41 94 17 Q117 -7 149 -6 Q171 -6 189 3 L200 66 Q174 65 161 75 Q148 86 148 119 Q148 127 149 139 Q150 150 151 162 L199 519 ZM164 735 L74 735 L149 585 L214 585 L164 735 Z" /><glyph glyph-name="" unicode="î" d="M199 519 L122 519 L75 161 Q73 142 71 128 Q69 113 69 103 Q70 41 94 17 Q117 -7 149 -6 Q171 -6 189 3 L200 66 Q174 65 161 75 Q148 86 148 119 Q148 127 149 139 Q150 150 151 162 L199 519 ZM227 735 L149 735 L50 585 L105 585 L179 679 L228 585 L283 585 L227 735 Z" /><glyph glyph-name="" unicode="ï" d="M199 519 L122 519 L75 161 Q73 142 71 128 Q69 113 69 103 Q70 41 94 17 Q117 -7 149 -6 Q171 -6 189 3 L200 66 Q174 65 161 75 Q148 86 148 119 Q148 127 149 139 Q150 150 151 162 L199 519 ZM50 653 Q50 632 61 618 Q71 604 89 603 Q112 604 128 623 Q145 643 146 670 Q146 691 134 704 Q123 718 105 718 Q84 717 67 698 Q51 679 50 653 L50 653 ZM206 653 Q206 632 217 618 Q227 604 245 603 Q268 604 284 623 Q301 642 302 670 Q302 691 290 704 Q279 718 261 718 Q240 717 223 698 Q207 679 206 653 L206 653 Z" /><glyph glyph-name="" unicode="á" d="M421 -6 Q432 -6 442 -4 Q453 -1 462 3 L472 66 Q446 65 433 75 Q420 86 420 119 Q420 127 421 139 Q422 150 423 162 L466 477 L396 477 Q373 502 342 513 Q312 525 279 525 Q182 523 121 437 Q59 351 57 203 Q58 104 96 49 Q134 -5 199 -6 Q236 -6 273 15 Q311 35 343 74 L347 74 Q353 34 373 14 Q392 -6 421 -6 L421 -6 ZM136 218 Q138 325 176 388 Q215 451 272 453 Q307 453 331 441 Q356 429 378 402 L347 161 Q321 120 290 93 Q259 67 224 66 Q183 66 160 105 Q136 144 136 218 L136 218 ZM279 585 L344 585 L463 735 L372 735 L279 585 Z" /><glyph glyph-name="" unicode="à" d="M421 -6 Q432 -6 442 -4 Q453 -1 462 3 L472 66 Q446 65 433 75 Q420 86 420 119 Q420 127 421 139 Q422 150 423 162 L466 477 L396 477 Q373 502 342 513 Q312 525 279 525 Q182 523 121 437 Q59 351 57 203 Q58 104 96 49 Q134 -5 199 -6 Q236 -6 273 15 Q311 35 343 74 L347 74 Q353 34 373 14 Q392 -6 421 -6 L421 -6 ZM136 218 Q138 325 176 388 Q215 451 272 453 Q307 453 331 441 Q356 429 378 402 L347 161 Q321 120 290 93 Q259 67 224 66 Q183 66 160 105 Q136 144 136 218 L136 218 ZM314 735 L224 735 L299 585 L364 585 L314 735 Z" /><glyph glyph-name="" unicode="â" d="M421 -6 Q432 -6 442 -4 Q453 -1 462 3 L472 66 Q446 65 433 75 Q420 86 420 119 Q420 127 421 139 Q422 150 423 162 L466 477 L396 477 Q373 502 342 513 Q312 525 279 525 Q182 523 121 437 Q59 351 57 203 Q58 104 96 49 Q134 -5 199 -6 Q236 -6 273 15 Q311 35 343 74 L347 74 Q353 34 373 14 Q392 -6 421 -6 L421 -6 ZM136 218 Q138 325 176 388 Q215 451 272 453 Q307 453 331 441 Q356 429 378 402 L347 161 Q321 120 290 93 Q259 67 224 66 Q183 66 160 105 Q136 144 136 218 L136 218 ZM384 735 L306 735 L207 585 L262 585 L336 679 L385 585 L440 585 L384 735 Z" /><glyph glyph-name="" unicode="ä" d="M421 -6 Q432 -6 442 -4 Q453 -1 462 3 L472 66 Q446 65 433 75 Q420 86 420 119 Q420 127 421 139 Q422 150 423 162 L466 477 L396 477 Q373 502 342 513 Q312 525 279 525 Q182 523 121 437 Q59 351 57 203 Q58 104 96 49 Q134 -5 199 -6 Q236 -6 273 15 Q311 35 343 74 L347 74 Q353 34 373 14 Q392 -6 421 -6 L421 -6 ZM136 218 Q138 325 176 388 Q215 451 272 453 Q307 453 331 441 Q356 429 378 402 L347 161 Q321 120 290 93 Q259 67 224 66 Q183 66 160 105 Q136 144 136 218 L136 218 ZM196 653 Q196 632 207 618 Q217 604 235 603 Q258 604 274 623 Q291 643 292 670 Q292 691 280 704 Q269 718 251 718 Q230 717 213 698 Q197 679 196 653 L196 653 ZM352 653 Q352 632 363 618 Q373 604 391 603 Q414 604 430 623 Q447 642 448 670 Q448 691 436 704 Q425 718 407 718 Q386 717 369 698 Q353 679 352 653 L352 653 Z" /><glyph glyph-name="" unicode="ã" d="M421 -6 Q432 -6 442 -4 Q453 -1 462 3 L472 66 Q446 65 433 75 Q420 86 420 119 Q420 127 421 139 Q422 150 423 162 L466 477 L396 477 Q373 502 342 513 Q312 525 279 525 Q182 523 121 437 Q59 351 57 203 Q58 104 96 49 Q134 -5 199 -6 Q236 -6 273 15 Q311 35 343 74 L347 74 Q353 34 373 14 Q392 -6 421 -6 L421 -6 ZM136 218 Q138 325 176 388 Q215 451 272 453 Q307 453 331 441 Q356 429 378 402 L347 161 Q321 120 290 93 Q259 67 224 66 Q183 66 160 105 Q136 144 136 218 L136 218 ZM453 665 Q435 688 417 695 Q400 703 389 702 Q352 700 327 683 Q303 665 282 663 Q273 663 262 668 Q251 674 240 687 L209 632 Q224 611 240 602 Q256 594 270 594 Q298 596 325 613 Q352 630 377 632 Q384 633 396 628 Q408 623 425 607 L453 665 Z" /><glyph glyph-name="" unicode="å" d="M421 -6 Q432 -6 442 -4 Q453 -1 462 3 L472 66 Q446 65 433 75 Q420 86 420 119 Q420 127 421 139 Q422 150 423 162 L466 477 L396 477 Q373 502 342 513 Q312 525 279 525 Q182 523 121 437 Q59 351 57 203 Q58 104 96 49 Q134 -5 199 -6 Q236 -6 273 15 Q311 35 343 74 L347 74 Q353 34 373 14 Q392 -6 421 -6 L421 -6 ZM136 218 Q138 325 176 388 Q215 451 272 453 Q307 453 331 441 Q356 429 378 402 L347 161 Q321 120 290 93 Q259 67 224 66 Q183 66 160 105 Q136 144 136 218 L136 218 ZM254 654 Q255 620 271 598 Q288 577 315 576 Q355 577 380 607 Q404 637 405 683 Q405 718 388 740 Q371 761 343 762 Q305 761 280 731 Q255 700 254 654 L254 654 ZM294 661 Q295 684 307 702 Q319 719 337 720 Q350 719 358 707 Q366 694 366 677 Q365 652 353 636 Q340 619 322 618 Q310 619 302 631 Q294 643 294 661 L294 661 Z" /><glyph glyph-name="" unicode="ú" d="M180 519 L103 519 L63 224 Q60 204 59 187 Q58 170 58 155 Q61 60 100 26 Q139 -8 183 -6 Q220 -6 258 15 Q296 35 328 74 L332 74 Q339 34 358 14 Q377 -6 405 -6 Q416 -6 426 -4 Q437 -1 447 3 L457 66 Q431 65 418 75 Q405 86 405 119 Q405 127 406 139 Q407 150 409 162 L456 519 L380 519 L331 160 Q305 119 274 93 Q243 67 207 66 Q182 64 160 84 Q138 104 136 177 Q136 196 139 221 L180 519 ZM257 585 L322 585 L441 735 L350 735 L257 585 Z" /><glyph glyph-name="" unicode="ù" d="M180 519 L103 519 L63 224 Q60 204 59 187 Q58 170 58 155 Q61 60 100 26 Q139 -8 183 -6 Q220 -6 258 15 Q296 35 328 74 L332 74 Q339 34 358 14 Q377 -6 405 -6 Q416 -6 426 -4 Q437 -1 447 3 L457 66 Q431 65 418 75 Q405 86 405 119 Q405 127 406 139 Q407 150 409 162 L456 519 L380 519 L331 160 Q305 119 274 93 Q243 67 207 66 Q182 64 160 84 Q138 104 136 177 Q136 196 139 221 L180 519 ZM295 735 L205 735 L280 585 L345 585 L295 735 Z" /><glyph glyph-name="" unicode="û" d="M180 519 L103 519 L63 224 Q60 204 59 187 Q58 170 58 155 Q61 60 100 26 Q139 -8 183 -6 Q220 -6 258 15 Q296 35 328 74 L332 74 Q339 34 358 14 Q377 -6 405 -6 Q416 -6 426 -4 Q437 -1 447 3 L457 66 Q431 65 418 75 Q405 86 405 119 Q405 127 406 139 Q407 150 409 162 L456 519 L380 519 L331 160 Q305 119 274 93 Q243 67 207 66 Q182 64 160 84 Q138 104 136 177 Q136 196 139 221 L180 519 ZM361 735 L283 735 L184 585 L239 585 L313 679 L362 585 L417 585 L361 735 Z" /><glyph glyph-name="" unicode="ü" d="M180 519 L103 519 L63 224 Q60 204 59 187 Q58 170 58 155 Q61 60 100 26 Q139 -8 183 -6 Q220 -6 258 15 Q296 35 328 74 L332 74 Q339 34 358 14 Q377 -6 405 -6 Q416 -6 426 -4 Q437 -1 447 3 L457 66 Q431 65 418 75 Q405 86 405 119 Q405 127 406 139 Q407 150 409 162 L456 519 L380 519 L331 160 Q305 119 274 93 Q243 67 207 66 Q182 64 160 84 Q138 104 136 177 Q136 196 139 221 L180 519 ZM186 653 Q186 632 197 618 Q207 604 225 603 Q248 604 264 623 Q281 643 282 670 Q282 691 270 704 Q259 718 241 718 Q220 717 203 698 Q187 679 186 653 L186 653 ZM342 653 Q342 632 353 618 Q363 604 381 603 Q404 604 420 623 Q437 642 438 670 Q438 691 426 704 Q415 718 397 718 Q376 717 359 698 Q343 679 342 653 L342 653 Z" /></font>
</defs>
</svg>
