<?xml version="1.0" standalone="no"?><!DOCTYPE svg PUBLIC "-//W3C//DTD SVG 1.1//EN" "http://www.w3.org/Graphics/SVG/1.1/DTD/svg11.dtd" ><svg xmlns="http://www.w3.org/2000/svg"><metadata></metadata><defs><font id="LaskoDzurovski,Totemt.f.: SkolaSansCn Medium Italic: 2009" horiz-adv-x="1120"><font-face font-family="SkolaSansCn" font-weight="500" font-stretch="normal" units-per-em="1000" panose-1="2 0 6 6 4 0 0 9 0 4" ascent="750" descent="-250" x-height="4" bbox="-130 -216 1018 979" underline-thickness="50" underline-position="-75" unicode-range="U+0000-fb02" /><missing-glyph horiz-adv-x="434" d="M34 0 L392 0 L497 748 L139 748 L34 0 ZM405 544 Q404 604 373 633 Q342 661 299 661 Q270 662 240 649 Q211 637 175 602 L204 547 Q227 568 243 577 Q260 585 277 585 Q298 585 312 570 Q326 555 326 523 Q324 474 291 439 Q259 403 219 379 L207 255 L261 255 L283 347 Q330 376 367 423 Q403 470 405 544 L405 544 ZM176 128 Q176 108 187 95 Q197 82 214 81 Q235 82 251 100 Q266 118 267 145 Q267 165 257 178 Q247 192 230 192 Q209 191 193 173 Q177 155 176 128 L176 128 ZM166 722 L463 722 L365 28 L68 28 L166 722 Z" /><glyph glyph-name="" unicode="" d="" /><glyph glyph-name="" unicode=" " d="" /><glyph glyph-name="" unicode="!" d="M201 223 L289 748 L193 748 L135 223 L201 223 ZM87 56 Q87 29 100 12 Q113 -5 135 -6 Q163 -5 184 19 Q205 43 206 78 Q206 105 192 122 Q179 139 157 140 Q129 139 109 115 Q88 91 87 56 L87 56 Z" /><glyph glyph-name="" unicode="&quot;" d="M162 748 L85 748 L48 487 L124 487 L162 748 ZM301 748 L224 748 L187 487 L264 487 L301 748 Z" /><glyph glyph-name="" unicode="#" d="M118 455 L187 455 L147 290 L70 290 L60 221 L128 221 L76 0 L136 0 L189 221 L277 221 L225 0 L285 0 L338 221 L414 221 L425 290 L355 290 L396 455 L473 455 L483 524 L414 524 L467 748 L407 748 L353 524 L266 524 L318 748 L258 748 L205 524 L128 524 L118 455 ZM248 455 L336 455 L295 290 L207 290 L248 455 Z" /><glyph glyph-name="" unicode="$" d="M182 -105 L258 -105 L273 3 Q358 18 409 77 Q459 137 460 236 Q445 370 344 418 Q242 465 227 548 Q227 594 253 625 Q279 656 324 657 Q359 657 391 639 Q423 620 454 584 L507 668 Q477 700 446 721 Q415 741 377 746 L392 852 L316 852 L301 745 Q216 731 171 673 Q125 614 125 528 Q139 397 236 348 Q333 299 347 214 Q346 158 318 125 Q290 91 241 90 Q205 90 172 109 Q139 127 108 163 L52 79 Q83 44 119 24 Q155 4 197 0 L182 -105 Z" /><glyph glyph-name="" unicode="%" d="M662 748 L597 754 L133 0 L199 -6 L662 748 ZM103 545 Q104 479 136 436 Q167 393 220 391 Q286 393 336 453 Q385 512 388 599 Q387 665 356 709 Q324 752 272 754 Q204 752 155 692 Q105 632 103 545 L103 545 ZM411 148 Q412 82 444 39 Q475 -4 527 -6 Q595 -4 644 56 Q694 116 696 203 Q695 269 663 312 Q632 355 579 357 Q513 355 463 295 Q414 235 411 148 L411 148 ZM177 556 Q178 604 203 639 Q228 674 261 676 Q288 675 301 649 Q314 624 314 588 Q313 540 288 505 Q263 470 230 468 Q202 469 190 495 Q177 520 177 556 L177 556 ZM485 159 Q486 207 511 242 Q536 278 569 280 Q596 279 609 253 Q622 227 622 192 Q621 144 596 108 Q571 73 537 71 Q510 72 498 98 Q485 123 485 159 L485 159 Z" /><glyph glyph-name="" unicode="&amp;" d="M488 417 Q486 340 458 278 Q429 217 385 174 Q356 216 331 265 Q305 313 287 364 Q354 401 407 457 Q460 514 463 608 Q463 668 428 710 Q393 752 329 754 Q246 752 199 694 Q153 635 152 547 Q152 513 156 479 Q160 445 168 411 Q108 374 66 321 Q24 268 22 182 Q24 93 72 44 Q121 -5 196 -6 Q234 -6 276 9 Q319 24 361 53 Q393 15 426 -15 Q458 -45 489 -68 L544 21 Q522 38 499 60 Q475 83 452 110 Q508 165 544 243 Q580 321 581 417 L488 417 ZM196 88 Q160 88 138 113 Q117 138 116 182 Q117 230 140 264 Q164 297 199 323 Q217 270 242 221 Q266 171 293 127 Q268 109 243 99 Q218 88 196 88 L196 88 ZM246 542 Q246 591 265 625 Q285 659 323 660 Q345 659 359 643 Q373 626 373 599 Q372 548 338 513 Q304 479 255 450 Q251 473 249 496 Q246 519 246 542 L246 542 Z" /><glyph glyph-name="" unicode="&#39;" d="M162 748 L85 748 L48 487 L125 487 L162 748 Z" /><glyph glyph-name="" unicode="(" d="M247 806 Q189 713 132 560 Q75 406 71 178 Q72 69 85 -13 Q98 -94 114 -145 L177 -110 Q165 -66 156 7 Q147 79 146 174 Q150 388 199 536 Q247 683 299 772 L247 806 Z" /><glyph glyph-name="" unicode=")" d="M112 772 Q123 727 133 653 Q142 579 143 483 Q139 264 90 121 Q41 -23 -11 -110 L41 -145 Q100 -55 156 96 Q213 246 217 478 Q216 587 203 671 Q190 755 174 806 L112 772 Z" /><glyph glyph-name="" unicode="*" d="M284 553 L403 587 L397 659 L278 602 L284 553 ZM241 512 L279 389 L336 433 L281 544 L241 512 ZM225 602 L128 658 L96 586 L204 553 L225 602 ZM204 544 L109 433 L150 388 L234 513 L204 544 ZM274 608 L309 754 L249 754 L232 608 L274 608 Z" /><glyph glyph-name="" unicode="+" d="M80 294 L244 294 L214 73 L289 73 L319 294 L483 294 L497 381 L333 381 L364 602 L289 602 L258 381 L94 381 L80 294 Z" /><glyph glyph-name="" unicode="," d="M54 58 Q54 33 66 15 Q77 -4 98 -5 L32 -139 L76 -158 Q111 -111 144 -39 Q177 33 179 81 Q179 109 165 127 Q151 145 128 146 Q98 145 76 119 Q55 94 54 58 L54 58 Z" /><glyph glyph-name="" unicode="-" d="M266 248 L281 335 L79 335 L64 248 L266 248 Z" /><glyph glyph-name="" unicode="." d="M54 58 Q54 30 68 13 Q82 -5 105 -6 Q135 -5 156 20 Q178 44 179 81 Q179 109 165 127 Q152 145 128 146 Q98 145 77 120 Q55 94 54 58 L54 58 Z" /><glyph glyph-name="" unicode="/" d="M380 806 L-23 -204 L55 -204 L457 806 L380 806 Z" /><glyph glyph-name="" unicode="0" d="M312 754 Q185 748 117 605 Q49 461 48 246 Q49 123 98 59 Q146 -6 228 -6 Q356 0 424 143 Q492 287 493 502 Q492 624 443 689 Q395 753 312 754 L312 754 ZM232 88 Q193 88 173 128 Q152 169 152 254 Q156 469 206 565 Q256 662 309 660 Q347 660 368 619 Q389 579 389 494 Q385 279 335 183 Q285 86 232 88 L232 88 Z" /><glyph glyph-name="" unicode="1" d="M30 92 L16 0 L388 0 L402 92 L280 92 L369 748 L292 748 L87 621 L106 553 L238 622 L170 92 L30 92 Z" /><glyph glyph-name="" unicode="2" d="M169 95 L168 98 Q230 190 340 286 Q450 382 462 552 Q462 641 415 697 Q369 752 282 754 Q236 757 185 732 Q135 707 84 623 L151 562 Q174 609 204 634 Q233 660 265 660 Q308 660 329 629 Q350 598 350 539 Q341 413 232 320 Q122 226 26 58 L47 0 L410 0 L425 95 L169 95 Z" /><glyph glyph-name="" unicode="3" d="M195 379 L238 379 Q290 378 314 341 Q338 305 338 251 Q338 178 306 134 Q275 90 218 89 Q181 89 147 108 Q113 126 82 158 L26 72 Q72 31 116 12 Q160 -6 207 -6 Q318 -4 381 67 Q444 138 445 260 Q445 334 409 386 Q372 439 303 451 L302 455 L477 678 L467 748 L134 748 L119 656 L341 656 L343 652 L177 438 L195 379 Z" /><glyph glyph-name="" unicode="4" d="M231 754 Q214 658 166 510 Q117 363 16 205 L31 151 L286 151 L265 0 L370 0 L391 151 L454 151 L467 237 L405 237 L444 525 L345 519 L300 237 L149 237 L148 240 Q223 380 268 516 Q314 651 331 739 L231 754 Z" /><glyph glyph-name="" unicode="5" d="M106 386 L217 386 Q271 386 298 350 Q324 314 324 248 Q323 180 291 135 Q259 90 202 88 Q166 88 134 107 Q102 125 71 157 L16 72 Q61 31 103 12 Q146 -6 192 -6 Q303 -3 367 73 Q431 150 432 270 Q431 374 381 427 Q331 481 251 481 L199 481 L221 653 L426 653 L442 748 L142 748 L91 405 L106 386 Z" /><glyph glyph-name="" unicode="6" d="M312 660 Q349 660 375 646 Q402 631 430 598 L476 677 Q434 721 395 738 Q356 755 315 754 Q186 748 117 605 Q49 461 48 246 Q49 123 98 59 Q147 -6 231 -6 Q335 -3 394 71 Q452 145 453 259 Q451 357 403 412 Q355 468 287 469 Q259 469 228 454 Q197 439 170 412 L165 412 Q185 532 225 596 Q266 659 312 660 L312 660 ZM258 379 Q303 378 328 341 Q353 304 353 247 Q352 185 323 138 Q293 91 246 88 Q200 88 175 124 Q150 161 150 235 Q150 258 152 274 Q153 291 156 318 Q177 349 204 364 Q231 379 258 379 L258 379 Z" /><glyph glyph-name="" unicode="7" d="M444 748 L82 748 L65 656 L338 656 Q289 515 210 337 Q130 159 38 0 L150 -6 Q238 139 328 348 Q417 557 452 687 L444 748 Z" /><glyph glyph-name="" unicode="8" d="M308 755 Q231 755 172 708 Q113 662 110 576 Q111 516 131 477 Q152 437 185 410 Q128 380 86 331 Q44 282 42 202 Q47 77 109 34 Q170 -9 230 -6 Q290 -9 372 41 Q455 91 463 235 Q461 299 431 340 Q400 381 359 408 Q406 439 438 481 Q471 524 472 590 Q467 692 411 725 Q356 758 308 755 L308 755 ZM360 234 Q356 146 312 116 Q268 86 235 88 Q206 86 175 110 Q144 133 141 202 Q143 262 180 298 Q218 334 267 359 Q301 340 330 312 Q358 284 360 234 L360 234 ZM308 670 Q327 671 349 655 Q371 638 373 590 Q372 537 345 507 Q317 477 277 456 Q248 476 229 503 Q211 530 210 576 Q212 621 241 645 Q270 670 308 670 L308 670 Z" /><glyph glyph-name="" unicode="9" d="M212 88 Q175 88 149 102 Q122 117 94 150 L48 71 Q90 27 129 10 Q168 -7 209 -6 Q338 0 407 143 Q475 287 476 502 Q475 624 426 689 Q377 753 293 754 Q189 751 130 677 Q71 603 70 488 Q72 391 121 336 Q169 280 237 279 Q265 279 296 294 Q326 309 354 335 L359 335 Q339 216 299 152 Q258 89 212 88 L212 88 ZM266 368 Q221 369 196 406 Q171 443 171 501 Q172 562 201 610 Q230 657 278 660 Q324 660 348 624 Q373 587 373 512 Q373 490 372 473 Q371 456 368 429 Q347 399 320 384 Q293 368 266 368 L266 368 Z" /><glyph glyph-name="" unicode=":" d="M51 58 Q51 30 66 13 Q81 -5 105 -6 Q136 -5 159 19 Q181 44 182 80 Q182 108 167 127 Q152 145 128 146 Q98 145 75 120 Q52 94 51 58 L51 58 ZM103 437 Q103 409 118 392 Q132 374 156 373 Q187 374 210 398 Q232 423 233 459 Q233 487 218 506 Q204 524 180 525 Q148 524 126 499 Q104 473 103 437 L103 437 Z" /><glyph glyph-name="" unicode=";" d="M107 437 Q107 409 122 392 Q136 374 161 373 Q191 374 214 398 Q236 423 237 459 Q237 487 223 506 Q208 524 184 525 Q153 524 131 499 Q108 473 107 437 L107 437 ZM57 58 Q57 33 69 15 Q80 -4 102 -5 L35 -139 L81 -158 Q118 -111 151 -39 Q184 32 186 80 Q186 108 171 127 Q157 145 133 146 Q102 145 80 120 Q58 94 57 58 L57 58 Z" /><glyph glyph-name="" unicode="&lt;" d="M424 169 L165 334 L166 338 L467 502 L482 595 L59 379 L46 292 L409 76 L424 169 Z" /><glyph glyph-name="" unicode="=" d="M86 383 L503 383 L517 470 L100 470 L86 383 ZM60 205 L477 205 L491 292 L74 292 L60 205 Z" /><glyph glyph-name="" unicode="&gt;" d="M62 76 L484 292 L497 379 L134 595 L119 502 L379 338 L378 334 L77 169 L62 76 Z" /><glyph glyph-name="" unicode="?" d="M155 223 L221 223 L247 332 Q311 368 363 434 Q416 499 419 599 Q417 680 374 717 Q331 754 272 754 Q232 755 191 734 Q151 712 108 660 L164 599 Q187 630 208 645 Q230 660 252 660 Q276 660 294 639 Q312 618 313 572 Q310 504 263 453 Q216 402 163 370 L155 223 ZM104 56 Q104 29 118 12 Q132 -5 156 -6 Q185 -5 206 19 Q228 42 229 77 Q229 104 215 122 Q201 139 178 140 Q148 139 126 115 Q105 91 104 56 L104 56 Z" /><glyph glyph-name="" unicode="@" d="M470 504 Q376 502 315 422 Q254 343 252 211 Q253 118 290 66 Q326 15 388 14 Q432 16 466 52 Q500 88 524 133 L529 133 Q535 88 559 52 Q583 15 620 13 Q693 12 750 96 Q807 179 810 355 Q807 541 724 621 Q642 702 512 700 Q340 701 219 575 Q97 448 92 180 Q94 1 172 -89 Q251 -179 389 -179 Q432 -179 476 -169 Q520 -160 555 -145 L548 -68 Q517 -82 477 -91 Q438 -101 400 -101 Q284 -103 226 -34 Q168 34 168 191 Q173 408 270 515 Q367 622 502 622 Q614 623 674 556 Q733 489 734 338 Q732 214 703 154 Q674 94 639 94 Q620 95 606 119 Q591 144 590 186 Q590 194 590 204 Q591 214 592 222 L625 451 L562 451 Q544 477 522 490 Q500 504 470 504 L470 504 ZM401 99 Q374 99 359 132 Q343 164 343 222 Q346 323 382 372 Q418 421 456 421 Q476 421 493 407 Q510 394 522 368 L511 287 Q499 201 466 151 Q433 100 401 99 L401 99 Z" /><glyph glyph-name="" unicode="a" d="M387 653 L471 653 L425 296 L235 296 L387 653 ZM200 748 L184 680 L290 661 L-16 0 L96 -6 L188 205 L409 205 L382 0 L486 0 L591 748 L200 748 Z" /><glyph glyph-name="" unicode="b" d="M210 435 L237 656 L363 656 Q399 655 418 628 Q436 602 436 558 Q434 504 406 470 Q378 436 345 435 L210 435 ZM332 341 Q368 340 391 308 Q413 276 414 231 Q415 186 388 141 Q360 95 287 92 L163 92 L195 341 L332 341 ZM541 586 Q541 656 501 701 Q461 746 386 748 L148 748 L43 0 L286 0 Q396 2 457 69 Q517 135 518 236 Q517 290 492 332 Q467 373 429 388 L430 392 Q487 424 514 477 Q541 530 541 586 L541 586 Z" /><glyph glyph-name="" unicode="c" d="M292 88 Q215 90 182 151 Q148 212 149 314 Q150 449 205 552 Q261 655 362 660 Q391 660 415 649 Q439 639 460 623 L454 501 L525 501 L564 679 Q523 714 478 734 Q432 754 376 754 Q214 748 129 616 Q44 485 43 301 Q42 169 100 83 Q157 -3 281 -6 Q338 -7 397 26 Q456 58 502 135 L432 194 Q408 147 373 118 Q337 89 292 88 L292 88 Z" /><glyph glyph-name="" unicode="d" d="M237 0 Q397 6 483 134 Q569 263 570 447 Q570 577 515 661 Q459 745 345 748 L148 748 L43 0 L237 0 ZM164 95 L237 653 L327 653 Q399 651 432 591 Q465 531 465 433 Q464 290 406 194 Q348 99 244 95 L164 95 Z" /><glyph glyph-name="" unicode="e" d="M147 748 L43 0 L444 0 L460 95 L161 95 L195 343 L453 343 L468 435 L210 435 L240 653 L528 653 L543 748 L147 748 Z" /><glyph glyph-name="" unicode="f" d="M514 653 L530 748 L148 748 L43 0 L148 0 L192 326 L438 326 L453 417 L207 417 L237 653 L514 653 Z" /><glyph glyph-name="" unicode="g" d="M576 402 L357 402 L342 308 L457 308 L434 142 Q402 117 373 103 Q344 88 310 88 Q236 90 203 151 Q169 212 170 314 Q171 449 228 552 Q284 655 388 660 Q432 660 466 644 Q501 628 532 596 L590 679 Q550 714 505 734 Q459 754 402 754 Q238 748 151 616 Q65 485 64 301 Q63 169 121 83 Q178 -3 301 -6 Q349 -6 394 9 Q439 25 487 57 L526 57 L576 402 Z" /><glyph glyph-name="" unicode="h" d="M148 0 L195 341 L461 341 L415 0 L519 0 L624 748 L519 748 L476 435 L210 435 L252 748 L148 748 L43 0 L148 0 Z" /><glyph glyph-name="" unicode="i" d="M148 0 L252 748 L148 748 L43 0 L148 0 Z" /><glyph glyph-name="" unicode="j" d="M16 167 Q31 72 77 32 Q123 -7 184 -6 Q273 -3 324 71 Q375 145 390 259 L457 748 L353 748 L282 248 Q274 183 251 137 Q228 90 179 88 Q147 88 129 112 Q110 136 106 186 L16 167 Z" /><glyph glyph-name="" unicode="k" d="M573 748 L454 754 L263 432 L208 432 L252 748 L148 748 L43 0 L147 0 L195 343 L259 343 Q313 259 349 130 Q385 2 475 -11 Q493 -11 506 -8 Q519 -5 526 -1 L513 85 Q452 94 427 199 Q402 304 345 396 L573 748 Z" /><glyph glyph-name="" unicode="l" d="M163 95 L252 748 L148 748 L43 0 L409 0 L425 95 L163 95 Z" /><glyph glyph-name="" unicode="m" d="M365 195 L564 501 L567 500 L492 -1 L596 -1 L701 748 L627 748 L365 328 L221 748 L148 748 L43 -1 L148 -1 L213 504 L216 505 L320 195 L365 195 Z" /><glyph glyph-name="" unicode="n" d="M458 0 L519 0 L624 748 L519 748 L450 220 L446 218 L206 748 L148 748 L43 0 L148 0 L216 521 L220 523 L458 0 Z" /><glyph glyph-name="" unicode="o" d="M378 754 Q221 749 133 619 Q45 489 43 300 Q43 166 101 81 Q158 -3 272 -6 Q429 -1 518 129 Q606 259 607 448 Q607 582 550 667 Q493 751 378 754 L378 754 ZM367 660 Q437 658 469 593 Q501 527 500 429 Q499 296 441 195 Q383 93 283 88 Q213 90 181 156 Q150 221 150 319 Q151 452 209 553 Q267 655 367 660 L367 660 Z" /><glyph glyph-name="" unicode="p" d="M148 748 L43 0 L148 0 L182 246 L298 246 Q396 249 468 331 Q540 412 543 534 Q542 627 494 686 Q447 746 369 748 L148 748 ZM347 656 Q389 655 413 616 Q437 578 437 520 Q435 443 396 391 Q356 339 303 337 L196 337 L237 656 L347 656 Z" /><glyph glyph-name="" unicode="q" d="M611 448 Q611 582 554 667 Q497 751 382 754 Q225 749 137 619 Q48 489 47 301 Q47 189 92 108 Q137 26 229 -4 Q293 -49 367 -122 Q440 -195 538 -203 Q585 -202 625 -175 Q664 -149 690 -114 L630 -53 Q611 -78 585 -93 Q559 -109 534 -109 Q486 -106 444 -67 Q402 -29 363 9 Q466 46 537 155 Q608 264 611 448 L611 448 ZM285 73 Q213 100 183 162 Q152 224 153 317 Q154 451 213 553 Q271 655 371 660 Q442 657 474 590 Q506 522 505 427 Q503 272 443 187 Q383 102 285 73 L285 73 Z" /><glyph glyph-name="" unicode="r" d="M548 559 Q547 650 504 699 Q461 747 392 748 L148 748 L43 0 L148 0 L189 297 L283 297 Q322 200 359 99 Q395 -3 476 -11 Q494 -11 507 -8 Q520 -5 528 -1 L515 85 Q466 89 441 159 Q416 228 388 310 Q453 335 500 399 Q546 462 548 559 L548 559 ZM374 656 Q405 655 423 625 Q442 594 442 542 Q441 485 408 438 Q375 392 320 389 L204 389 L238 656 L374 656 Z" /><glyph glyph-name="" unicode="s" d="M24 121 Q72 51 120 22 Q169 -7 225 -6 Q324 -5 382 53 Q440 111 441 216 Q425 366 316 413 Q207 459 191 552 Q192 609 223 635 Q253 660 296 660 Q317 660 338 652 Q360 644 380 630 L373 531 L444 531 L480 683 Q446 715 401 734 Q357 754 303 754 Q204 753 147 697 Q90 642 89 543 Q104 399 211 355 Q318 312 333 204 Q332 148 303 118 Q274 88 231 88 Q188 89 154 116 Q120 144 93 191 L24 121 Z" /><glyph glyph-name="" unicode="t" d="M526 748 L80 748 L64 653 L235 653 L146 0 L251 0 L339 653 L511 653 L526 748 Z" /><glyph glyph-name="" unicode="u" d="M495 748 L436 322 Q422 220 380 155 Q337 90 272 88 Q217 89 191 131 Q165 173 165 243 Q165 261 167 281 Q169 300 172 322 L231 748 L126 748 L67 322 Q64 300 62 279 Q60 258 60 238 Q60 127 109 61 Q158 -4 258 -6 Q376 -3 448 87 Q520 177 540 322 L600 748 L495 748 Z" /><glyph glyph-name="" unicode="v" d="M260 130 L176 754 L68 746 L189 0 L288 0 Q365 138 439 321 Q514 503 580 746 L475 754 Q433 580 377 414 Q321 248 265 130 L260 130 Z" /><glyph glyph-name="" unicode="w" d="M569 130 L485 754 L377 746 L412 523 Q377 409 339 308 Q301 207 264 130 L260 130 L176 754 L68 746 L189 0 L290 0 Q330 77 368 164 Q405 250 442 348 L446 348 L500 0 L599 0 Q675 138 749 321 Q823 503 889 746 L785 754 Q743 580 686 414 Q629 248 573 130 L569 130 Z" /><glyph glyph-name="" unicode="x" d="M459 754 Q427 684 389 612 Q351 540 311 475 L226 754 L109 748 L238 395 Q156 285 90 186 Q24 87 -21 0 L99 -6 Q129 55 174 134 Q219 213 282 304 L379 -6 L497 0 L356 381 Q427 479 479 569 Q531 659 574 748 L459 754 Z" /><glyph glyph-name="" unicode="y" d="M72 748 L204 285 L165 0 L269 0 L309 285 Q383 397 439 499 Q495 600 566 748 L449 754 Q403 638 358 544 Q312 451 275 384 L271 384 L190 754 L72 748 Z" /><glyph glyph-name="" unicode="z" d="M-4 48 L36 -11 Q57 9 75 17 Q93 24 114 24 Q151 21 201 3 Q250 -16 305 -19 Q341 -19 381 -8 Q420 3 450 24 L423 111 Q393 92 366 85 Q340 79 323 79 Q286 81 246 95 Q206 109 161 111 L160 115 L520 694 L510 748 L113 748 L98 656 L373 656 L-4 48 Z" /><glyph glyph-name="" unicode="[" d="M214 -65 L114 -65 L222 726 L319 726 L331 806 L160 806 L26 -145 L200 -145 L214 -65 Z" /><glyph glyph-name="" unicode="\" d="M119 806 L238 -204 L316 -204 L195 806 L119 806 Z" /><glyph glyph-name="" unicode="]" d="M-24 -145 L150 -145 L283 806 L112 806 L99 726 L196 726 L88 -65 L-11 -65 L-24 -145 Z" /><glyph glyph-name="" unicode="^" d="M48 296 L130 296 L308 658 L386 296 L469 296 L364 748 L280 748 L48 296 Z" /><glyph glyph-name="" unicode="_" d="M366 -126 L374 -70 L-3 -70 L-11 -126 L366 -126 Z" /><glyph glyph-name="" unicode="`" d="M237 739 L128 739 L201 585 L283 585 L237 739 Z" /><glyph glyph-name="" unicode="a" d="M412 -6 Q424 -6 436 -3 Q449 0 460 5 L473 85 Q446 84 434 95 Q422 105 422 134 Q422 143 423 155 Q424 167 425 179 L466 481 L377 481 Q356 503 327 514 Q298 525 268 525 Q169 523 107 437 Q45 351 43 203 Q44 104 82 49 Q120 -5 184 -6 Q221 -6 258 15 Q295 35 323 71 L327 71 Q335 32 357 13 Q379 -6 412 -6 L412 -6 ZM144 222 Q146 318 179 374 Q213 430 261 431 Q292 431 313 421 Q333 411 353 387 L326 173 Q304 136 277 113 Q250 89 219 88 Q185 88 165 122 Q144 156 144 222 L144 222 Z" /><glyph glyph-name="" unicode="b" d="M253 795 L154 791 L49 40 L125 40 Q148 18 178 6 Q208 -6 246 -6 Q344 -4 410 81 Q475 166 477 315 Q476 414 436 469 Q395 524 322 525 Q291 525 265 509 Q238 493 213 466 L209 466 L253 795 ZM377 296 Q375 200 340 145 Q304 89 254 88 Q224 88 203 100 Q181 113 163 136 L192 363 Q216 394 241 412 Q266 431 297 431 Q334 430 355 395 Q377 359 377 296 L377 296 Z" /><glyph glyph-name="" unicode="c" d="M283 525 Q177 523 111 444 Q45 364 43 226 Q44 115 92 55 Q141 -5 225 -6 Q264 -6 304 9 Q344 24 385 60 L345 135 Q314 108 286 98 Q258 88 236 88 Q195 88 169 123 Q144 159 143 230 Q144 321 181 375 Q217 430 272 431 Q291 431 305 426 Q319 421 331 413 L327 315 L392 315 L419 474 Q392 497 360 511 Q329 525 283 525 L283 525 Z" /><glyph glyph-name="" unicode="d" d="M510 795 L411 791 L368 486 Q348 506 322 515 Q296 525 268 525 Q169 523 107 437 Q45 351 43 203 Q44 104 82 49 Q120 -5 184 -6 Q221 -6 258 15 Q295 35 323 71 L327 71 Q335 32 357 13 Q379 -6 411 -6 Q423 -6 436 -3 Q449 0 460 5 L473 85 Q446 84 434 95 Q422 105 422 134 Q422 143 423 155 Q424 167 425 179 L510 795 ZM143 222 Q145 318 179 374 Q213 430 261 431 Q292 431 313 421 Q334 410 353 386 L326 171 Q304 134 277 112 Q250 89 219 88 Q185 88 164 122 Q144 156 143 222 L143 222 Z" /><glyph glyph-name="" unicode="e" d="M431 384 Q431 445 394 485 Q357 525 280 527 Q179 525 112 440 Q45 355 42 216 Q43 110 90 53 Q136 -5 219 -6 Q279 -6 318 7 Q356 20 391 45 L362 130 Q333 112 302 100 Q271 88 230 88 Q195 86 171 112 Q147 137 146 209 Q242 207 333 241 Q424 275 431 384 L431 384 ZM270 439 Q298 438 313 420 Q329 401 329 373 Q328 326 281 302 Q233 278 150 276 Q160 356 194 397 Q227 439 270 439 L270 439 Z" /><glyph glyph-name="" unicode="f" d="M226 438 L333 438 L346 519 L239 519 L250 605 Q258 658 280 681 Q302 704 326 703 Q346 703 367 696 Q389 689 411 677 L446 754 Q412 774 381 785 Q350 795 315 795 Q264 796 215 753 Q166 709 151 611 L140 519 L62 519 L51 459 L127 442 L67 -18 Q57 -83 28 -104 Q-1 -125 -37 -123 L-33 -205 Q-24 -209 -13 -212 Q-3 -214 6 -214 Q53 -215 101 -171 Q148 -127 165 -22 L226 438 Z" /><glyph glyph-name="" unicode="g" d="M143 222 Q145 318 179 374 Q213 430 261 431 Q290 431 311 419 Q332 408 347 385 L320 171 Q300 134 274 112 Q247 89 217 88 Q183 88 163 123 Q143 158 143 222 L143 222 ZM298 18 Q285 -68 249 -95 Q212 -121 178 -119 Q151 -119 125 -110 Q99 -102 75 -86 L47 -172 Q74 -191 105 -202 Q137 -214 175 -214 Q256 -216 317 -160 Q378 -105 399 32 L460 481 L371 481 Q350 503 323 514 Q296 525 268 525 Q169 523 107 437 Q45 351 43 203 Q44 104 82 49 Q120 -5 184 -6 Q214 -6 243 11 Q273 28 298 56 L302 56 L298 18 Z" /><glyph glyph-name="" unicode="h" d="M342 525 Q309 525 276 507 Q243 489 209 450 L205 450 L253 795 L155 791 L43 0 L142 0 L189 345 Q214 390 242 411 Q271 432 297 432 Q324 433 343 412 Q361 391 362 336 Q362 318 359 296 L318 0 L416 0 L457 291 Q463 333 463 366 Q461 459 424 493 Q388 527 342 525 L342 525 Z" /><glyph glyph-name="" unicode="i" d="M120 677 Q121 650 136 632 Q151 615 174 614 Q206 615 228 639 Q249 663 250 698 Q249 725 234 743 Q219 760 196 761 Q164 760 142 736 Q121 712 120 677 L120 677 ZM214 519 L116 519 L70 177 Q67 153 65 137 Q63 120 63 110 Q64 44 91 18 Q118 -7 155 -6 Q167 -6 179 -3 Q192 0 203 5 L217 85 Q190 84 178 95 Q165 105 165 134 Q165 143 166 155 Q167 167 169 179 L214 519 Z" /><glyph glyph-name="" unicode="j" d="M69 -18 Q59 -83 28 -104 Q-3 -125 -40 -123 L-36 -205 Q-25 -209 -14 -212 Q-2 -214 8 -214 Q55 -215 102 -171 Q149 -127 166 -22 L241 519 L142 519 L69 -18 ZM147 677 Q148 650 162 632 Q177 615 200 614 Q232 615 254 639 Q275 663 276 698 Q276 725 261 743 Q246 760 222 761 Q190 760 169 736 Q148 712 147 677 L147 677 Z" /><glyph glyph-name="" unicode="k" d="M253 795 L155 791 L43 0 L142 0 L185 315 Q217 371 250 401 Q283 431 314 431 Q337 430 348 416 Q359 402 359 381 Q356 331 310 299 Q265 267 213 266 L212 263 Q247 156 289 76 Q331 -4 385 -8 Q395 -8 408 -6 Q422 -3 436 4 L450 81 Q407 78 381 105 Q356 132 324 226 Q396 244 427 297 Q458 349 457 406 Q457 455 430 490 Q403 524 347 525 Q313 525 276 498 Q239 472 205 420 L201 420 L253 795 Z" /><glyph glyph-name="" unicode="l" d="M248 795 L149 791 L64 177 Q59 144 59 115 Q59 51 83 22 Q106 -6 149 -6 Q161 -6 174 -3 Q187 0 198 5 L211 85 Q185 84 172 95 Q160 105 160 134 Q161 152 164 179 L248 795 Z" /><glyph glyph-name="" unicode="m" d="M218 519 L125 519 L54 0 L153 0 L200 346 Q222 391 248 412 Q273 432 293 432 Q314 433 332 414 Q350 395 351 346 Q351 338 350 327 Q350 315 348 305 L306 0 L405 0 L452 345 Q475 390 500 411 Q526 432 545 432 Q569 433 587 414 Q604 395 605 345 Q605 329 602 306 Q599 282 595 255 L559 0 L658 0 L698 291 Q704 333 704 366 Q702 459 664 493 Q627 527 576 525 Q548 526 511 506 Q473 486 438 439 Q423 488 397 507 Q370 526 334 525 Q308 525 276 507 Q244 489 214 450 L210 450 L218 519 Z" /><glyph glyph-name="" unicode="n" d="M218 519 L125 519 L54 0 L153 0 L200 351 Q223 390 251 411 Q278 432 305 432 Q332 433 348 414 Q364 394 364 345 Q364 338 363 327 Q363 317 361 303 L319 0 L418 0 L458 291 Q464 333 464 366 Q462 459 425 493 Q389 527 341 525 Q313 525 280 507 Q246 488 212 450 L208 450 L218 519 Z" /><glyph glyph-name="" unicode="o" d="M288 525 Q181 524 113 441 Q45 358 43 211 Q44 113 89 54 Q134 -5 213 -6 Q319 -4 387 80 Q456 164 458 311 Q457 410 412 467 Q367 524 288 525 L288 525 ZM273 436 Q314 435 336 397 Q358 360 358 295 Q357 200 320 142 Q283 84 228 82 Q188 82 166 119 Q143 155 143 222 Q144 318 181 376 Q218 434 273 436 L273 436 Z" /><glyph glyph-name="" unicode="p" d="M126 519 L24 -214 L123 -208 L159 50 L162 51 Q181 24 204 9 Q227 -6 252 -6 Q353 -4 417 81 Q480 167 482 315 Q481 414 442 469 Q402 524 336 525 Q309 525 278 507 Q247 488 214 450 L210 450 L219 519 L126 519 ZM299 431 Q337 430 359 395 Q382 359 382 296 Q381 200 345 145 Q310 89 259 88 Q233 88 212 107 Q191 125 175 155 L200 350 Q221 389 248 410 Q274 431 299 431 L299 431 Z" /><glyph glyph-name="" unicode="q" d="M307 56 L270 -214 L370 -208 L466 481 L377 481 Q356 503 327 514 Q298 525 268 525 Q169 523 107 437 Q45 351 43 203 Q44 104 82 49 Q120 -5 184 -6 Q214 -6 245 10 Q275 26 304 57 L307 56 ZM144 222 Q146 318 179 374 Q213 430 261 431 Q292 431 313 421 Q334 410 353 386 L326 173 Q304 136 277 113 Q250 89 219 88 Q185 88 165 122 Q144 156 144 222 L144 222 Z" /><glyph glyph-name="" unicode="r" d="M218 519 L125 519 L51 0 L150 0 L197 341 Q221 386 250 406 Q279 425 306 425 Q317 425 329 422 Q342 419 351 413 L389 513 Q377 520 362 522 Q347 525 334 525 Q307 525 277 507 Q246 489 213 450 L209 450 L218 519 Z" /><glyph glyph-name="" unicode="s" d="M248 147 Q248 113 231 95 Q215 77 184 77 Q161 76 131 90 Q101 104 68 140 L19 68 Q64 21 106 6 Q147 -9 181 -8 Q256 -8 303 31 Q350 71 351 157 Q339 265 258 296 Q177 327 165 380 Q166 412 187 428 Q207 444 235 444 Q250 444 263 441 Q276 437 290 428 L286 366 L355 366 L375 483 Q341 504 305 516 Q269 527 231 527 Q145 525 105 481 Q65 437 65 370 Q76 265 157 232 Q237 200 248 147 L248 147 Z" /><glyph glyph-name="" unicode="t" d="M123 442 L90 189 Q85 158 85 134 Q88 54 123 24 Q159 -7 197 -6 Q221 -7 251 2 Q281 11 316 36 L306 115 Q285 100 268 94 Q251 88 237 88 Q219 86 203 100 Q187 113 186 159 Q186 166 187 175 Q188 184 189 195 L221 438 L330 438 L344 519 L234 519 L252 644 L189 644 L141 519 L65 519 L54 459 L123 442 Z" /><glyph glyph-name="" unicode="u" d="M198 519 L99 519 L59 228 Q56 207 55 189 Q54 171 54 155 Q57 60 97 26 Q137 -8 182 -6 Q219 -6 256 15 Q293 35 321 71 L325 71 Q333 32 355 13 Q377 -6 409 -6 Q421 -6 434 -3 Q447 0 458 5 L471 85 Q444 84 432 95 Q420 105 420 134 Q420 143 421 155 Q422 167 424 179 L469 519 L371 519 L323 172 Q302 137 275 113 Q248 89 216 88 Q194 86 175 103 Q156 121 155 183 Q155 192 155 202 Q156 212 158 223 L198 519 Z" /><glyph glyph-name="" unicode="v" d="M150 525 L43 519 L126 0 L221 0 Q271 69 345 196 Q418 323 426 421 Q425 479 404 503 Q382 528 348 527 Q337 527 325 524 Q312 521 302 516 L288 435 Q304 436 314 428 Q325 420 325 395 Q321 348 278 259 Q235 171 200 107 L150 525 Z" /><glyph glyph-name="" unicode="w" d="M396 525 L290 519 L317 345 Q298 288 263 222 Q228 155 202 111 L199 112 L150 525 L43 519 L126 0 L213 0 Q236 35 270 90 Q305 145 338 205 L342 205 L372 0 L472 0 Q521 69 593 196 Q666 323 673 421 Q672 479 651 503 Q629 528 595 527 Q584 527 571 524 Q558 521 548 516 L535 435 Q551 436 561 428 Q572 420 572 395 Q568 347 526 260 Q484 172 449 111 L445 112 L396 525 Z" /><glyph glyph-name="" unicode="x" d="M300 -6 L417 0 L307 266 Q348 312 390 375 Q433 438 458 519 L350 525 Q338 473 312 424 Q286 375 259 340 L194 525 L78 519 L180 277 Q127 215 84 148 Q40 81 10 0 L119 -6 Q138 54 168 105 Q198 157 231 200 L300 -6 Z" /><glyph glyph-name="" unicode="y" d="M427 421 Q426 479 404 503 Q382 528 348 527 Q338 527 325 524 Q313 521 302 516 L289 435 Q305 436 315 428 Q326 420 326 395 Q324 347 293 254 Q262 161 228 96 L150 525 L44 519 L152 0 Q110 -67 72 -97 Q34 -127 -11 -127 L-6 -202 Q4 -208 15 -211 Q26 -214 34 -214 Q150 -193 283 27 Q415 247 427 421 L427 421 Z" /><glyph glyph-name="" unicode="z" d="M80 430 L280 430 L281 426 L15 56 L56 -11 Q74 8 91 16 Q108 24 128 24 Q156 21 199 3 Q242 -15 292 -18 Q323 -18 350 -7 Q377 3 400 24 L373 107 Q350 88 331 82 Q312 76 295 77 Q266 79 236 92 Q207 105 179 107 L178 111 L418 448 L406 519 L94 519 L80 430 Z" /><glyph glyph-name="" unicode="{" d="M134 327 Q154 337 178 373 Q203 408 213 471 L238 656 Q243 691 258 708 Q272 726 293 726 L333 726 L346 806 L310 806 Q249 806 210 765 Q170 725 158 643 L140 507 Q133 450 115 413 Q97 375 58 362 L48 293 Q74 284 85 261 Q95 239 95 205 Q95 178 90 146 L72 15 Q69 -5 69 -23 Q69 -82 97 -115 Q125 -147 178 -148 L215 -148 L227 -68 L188 -68 Q169 -68 158 -53 Q147 -38 147 -12 Q147 -8 148 -2 Q148 3 149 7 L173 181 Q174 191 175 201 Q175 211 175 219 Q174 263 161 291 Q148 318 134 327 L134 327 Z" /><glyph glyph-name="" unicode="|" d="M107 -154 L240 806 L166 806 L32 -154 L107 -154 Z" /><glyph glyph-name="" unicode="}" d="M200 330 Q180 320 156 284 Q131 249 121 186 L96 2 Q91 -32 77 -50 Q62 -68 42 -68 L0 -68 L-12 -148 L24 -148 Q85 -148 124 -107 Q164 -67 176 15 L194 150 Q201 207 219 245 Q237 283 276 296 L286 365 Q260 374 249 397 Q239 419 239 453 Q239 479 244 512 L262 642 Q265 662 265 680 Q265 739 237 772 Q209 805 156 806 L119 806 L107 726 L145 726 Q165 726 176 711 Q187 696 187 670 Q187 666 187 661 Q186 655 186 651 L161 477 Q160 467 159 457 Q158 447 158 439 Q159 395 173 367 Q186 339 200 330 L200 330 Z" /><glyph glyph-name="" unicode="~" d="M207 357 Q184 358 169 372 Q153 386 141 401 L93 326 Q122 296 143 283 Q164 270 195 270 Q245 273 284 294 Q323 314 353 317 Q376 316 394 302 Q412 287 425 272 L474 346 Q444 376 422 390 Q400 404 366 404 Q319 401 281 381 Q243 360 207 357 L207 357 Z" /><glyph glyph-name="" unicode=" " d="" /><glyph glyph-name="" unicode="¡" d="M130 455 Q130 429 144 411 Q157 394 180 393 Q208 394 229 419 Q250 443 251 478 Q251 505 237 522 Q224 539 201 540 Q173 539 152 515 Q131 491 130 455 L130 455 ZM136 310 L48 -214 L144 -214 L202 310 L136 310 Z" /><glyph glyph-name="" unicode="¢" d="M287 -22 L307 110 Q345 114 373 127 Q401 140 428 160 L403 246 Q377 227 350 214 Q322 201 285 200 Q243 200 221 235 Q198 269 198 338 Q200 436 238 492 Q275 548 331 549 Q368 548 392 536 Q416 523 437 504 L489 589 Q466 607 442 621 Q417 634 380 638 L400 770 L324 770 L305 636 Q212 620 156 538 Q100 455 98 322 Q99 232 134 178 Q169 123 232 112 L212 -22 L287 -22 Z" /><glyph glyph-name="" unicode="£" d="M194 116 Q214 155 224 201 Q234 247 242 330 L390 330 L413 401 L254 401 L262 484 Q273 585 305 622 Q337 660 370 658 Q394 658 418 648 Q442 638 469 617 L512 703 Q484 729 448 741 Q411 754 368 754 Q294 754 238 691 Q182 628 163 503 L149 401 L82 401 L74 352 L138 330 Q125 227 105 163 Q85 100 43 37 L84 -11 Q105 10 125 19 Q144 27 168 27 Q200 24 246 5 Q292 -15 337 -18 Q373 -18 407 -7 Q441 3 470 24 L442 112 Q417 93 395 86 Q374 79 344 79 Q307 81 271 95 Q235 109 195 111 L194 116 Z" /><glyph glyph-name="" unicode="¥" d="M300 0 L336 263 L440 278 L458 324 L360 324 L405 424 L492 436 L510 484 L437 484 L561 748 L450 754 L309 404 L305 404 L256 754 L143 748 L195 484 L117 484 L121 436 L207 424 L226 324 L123 324 L128 278 L232 263 L195 0 L300 0 Z" /><glyph glyph-name="" unicode="§" d="M432 301 Q419 410 327 460 Q234 509 221 590 Q222 628 244 647 Q266 666 298 666 Q319 666 344 649 Q368 631 384 594 L445 644 Q412 705 370 730 Q327 755 293 754 Q230 754 183 711 Q136 667 134 579 Q134 553 142 529 Q149 505 161 485 Q117 449 91 407 Q65 365 64 305 Q77 194 170 146 Q262 99 275 23 Q274 -17 252 -37 Q229 -58 197 -58 Q177 -58 152 -40 Q128 -22 112 15 L50 -36 Q83 -96 126 -121 Q168 -146 202 -145 Q266 -145 313 -100 Q360 -56 362 34 Q362 58 354 80 Q346 102 334 121 Q379 157 405 199 Q431 241 432 301 L432 301 ZM334 291 Q334 260 320 234 Q306 207 279 182 Q238 215 201 243 Q164 271 162 315 Q162 345 176 372 Q190 398 217 424 Q258 391 295 361 Q331 332 334 291 L334 291 Z" /><glyph glyph-name="" unicode="¨" d="M96 654 Q96 631 108 615 Q120 599 140 598 Q167 599 186 621 Q205 643 206 674 Q206 698 192 713 Q179 728 159 728 Q135 727 116 706 Q97 684 96 654 L96 654 ZM260 654 Q260 631 272 615 Q283 599 303 598 Q330 599 349 621 Q368 642 369 674 Q369 698 355 713 Q342 728 322 728 Q298 727 279 706 Q261 684 260 654 L260 654 Z" /><glyph glyph-name="" unicode="©" d="M48 327 Q50 183 120 90 Q190 -3 307 -6 Q451 -1 540 121 Q628 243 631 421 Q629 565 561 658 Q492 751 381 754 Q230 749 140 627 Q50 505 48 327 L48 327 ZM99 333 Q101 484 176 589 Q250 694 378 699 Q477 696 528 616 Q580 536 580 415 Q578 264 504 159 Q429 54 310 49 Q213 50 157 124 Q100 198 99 333 L99 333 ZM396 285 Q379 259 356 244 Q333 229 314 229 Q283 229 263 257 Q243 284 242 335 Q243 417 276 464 Q309 510 358 511 Q376 511 394 505 L385 424 L443 424 L469 546 Q449 565 422 575 Q394 585 368 585 Q287 585 233 520 Q179 456 177 331 Q178 248 215 202 Q251 156 313 155 Q343 155 380 177 Q417 199 443 247 L396 285 Z" /><glyph glyph-name="" unicode="ª" d="M294 422 Q302 422 309 424 Q317 425 324 428 L333 485 Q317 485 309 491 Q302 498 302 516 Q302 521 303 530 Q303 538 304 548 L328 727 L272 727 Q258 741 241 747 Q223 754 204 754 Q143 753 104 699 Q65 645 64 552 Q64 491 88 457 Q111 423 152 422 Q173 422 195 434 Q217 445 235 466 L239 466 Q245 443 259 432 Q273 422 294 422 L294 422 ZM171 488 Q153 488 142 507 Q130 526 130 562 Q131 621 151 654 Q172 687 201 687 Q217 687 229 682 Q242 676 253 665 L237 536 Q220 509 203 499 Q186 488 171 488 L171 488 Z" /><glyph glyph-name="" unicode="«" d="M215 594 L62 367 L60 359 L150 132 L211 177 L143 364 L262 549 L215 594 ZM388 594 L235 367 L234 359 L324 132 L384 177 L316 364 L435 549 L388 594 Z" /><glyph glyph-name="" unicode="¬" d="M363 188 L437 188 L481 489 L78 489 L64 402 L393 402 L363 188 Z" /><glyph glyph-name="" unicode="®" d="M48 327 Q50 183 120 90 Q190 -3 307 -6 Q451 -1 540 121 Q628 243 631 421 Q629 565 561 658 Q492 751 381 754 Q230 749 140 627 Q50 505 48 327 L48 327 ZM99 333 Q101 484 176 589 Q250 694 378 699 Q477 696 528 616 Q580 536 580 415 Q578 264 504 159 Q429 54 310 49 Q213 50 157 124 Q100 198 99 333 L99 333 ZM259 596 L199 166 L260 166 L283 335 L337 335 Q348 266 368 215 Q388 164 432 162 Q438 162 445 163 Q452 165 457 167 L453 222 Q427 223 413 256 Q400 288 390 346 Q433 364 455 403 Q477 442 477 481 Q478 522 456 558 Q434 594 383 596 L259 596 ZM308 532 L369 532 Q393 531 404 512 Q414 492 414 470 Q414 443 398 419 Q382 396 350 394 L292 394 L308 532 Z" /><glyph glyph-name="" unicode="¯" d="M107 697 L96 626 L324 626 L335 697 L107 697 Z" /><glyph glyph-name="" unicode="°" d="M101 567 Q102 510 132 473 Q162 436 208 435 Q266 437 312 486 Q357 536 360 615 Q359 672 329 709 Q298 747 253 748 Q194 746 149 696 Q103 646 101 567 L101 567 ZM159 576 Q160 622 185 654 Q210 685 243 686 Q270 685 286 663 Q302 640 302 606 Q301 560 276 529 Q251 498 217 497 Q191 498 175 520 Q159 542 159 576 L159 576 Z" /><glyph glyph-name="" unicode="±" d="M95 366 L259 366 L239 216 L314 216 L334 366 L497 366 L511 453 L347 453 L368 602 L293 602 L273 453 L109 453 L95 366 ZM68 160 L54 73 L456 73 L471 160 L68 160 Z" /><glyph glyph-name="" unicode="´" d="M128 585 L210 585 L328 739 L218 739 L128 585 Z" /><glyph glyph-name="" unicode="µ" d="M472 519 L373 519 L325 172 Q305 137 278 113 Q251 90 219 89 Q197 87 177 102 Q157 117 156 171 Q156 179 156 190 Q157 200 159 211 L202 519 L102 519 L0 -208 L99 -208 L130 24 L137 24 Q151 6 172 0 Q192 -6 208 -6 Q238 -5 268 16 Q298 38 323 71 L327 71 Q336 29 358 12 Q380 -6 412 -6 Q424 -6 437 -3 Q450 0 461 5 L474 85 Q447 84 435 95 Q423 105 423 134 Q423 143 424 154 Q425 165 427 179 L472 519 Z" /><glyph glyph-name="" unicode="¶" d="M386 661 L466 661 L375 0 L465 0 L570 748 L307 748 Q199 745 134 671 Q70 597 68 484 Q70 394 119 338 Q168 282 243 280 L203 -23 Q193 -89 162 -109 Q131 -130 94 -128 L99 -205 Q110 -209 121 -212 Q133 -214 143 -214 Q190 -215 234 -171 Q278 -127 294 -22 L386 661 Z" /><glyph glyph-name="" unicode="·" d="M182 389 Q182 415 169 433 Q155 450 134 451 Q106 450 86 426 Q65 402 64 369 Q64 343 78 326 Q91 309 113 308 Q140 309 160 332 Q181 356 182 389 L182 389 Z" /><glyph glyph-name="" unicode="¸" d="M120 31 Q107 -44 79 -83 Q51 -122 -4 -135 L17 -204 Q94 -192 134 -132 Q173 -71 175 9 L120 31 Z" /><glyph glyph-name="" unicode="º" d="M217 753 Q150 752 108 701 Q65 649 64 557 Q64 496 92 460 Q120 423 170 422 Q235 423 278 476 Q321 528 323 620 Q322 681 294 717 Q266 752 217 753 L217 753 ZM207 691 Q230 691 243 670 Q256 650 256 614 Q255 555 234 520 Q213 486 179 485 Q156 485 143 506 Q130 527 130 563 Q131 622 152 656 Q173 690 207 691 L207 691 Z" /><glyph glyph-name="" unicode="»" d="M101 549 L169 364 L50 177 L97 132 L250 359 L252 367 L161 594 L101 549 ZM274 549 L342 364 L224 177 L271 132 L424 359 L425 367 L335 594 L274 549 Z" /><glyph glyph-name="" unicode="¿" d="M281 316 L216 316 L190 208 Q126 171 73 106 Q20 40 17 -59 Q19 -140 62 -177 Q104 -214 164 -214 Q204 -215 245 -194 Q285 -173 328 -121 L272 -60 Q249 -90 228 -104 Q208 -118 186 -118 Q164 -119 144 -99 Q124 -79 123 -32 Q126 36 173 87 Q220 138 273 170 L281 316 ZM332 483 Q332 510 318 528 Q304 545 280 546 Q251 545 229 521 Q208 497 207 462 Q207 435 221 417 Q235 400 259 399 Q289 400 310 424 Q331 448 332 483 L332 483 Z" /><glyph glyph-name="" unicode="à" d="M387 653 L471 653 L425 296 L235 296 L387 653 ZM200 748 L184 680 L290 661 L-16 0 L96 -6 L188 205 L409 205 L382 0 L486 0 L591 748 L200 748 ZM454 950 L345 950 L418 796 L500 796 L454 950 Z" /><glyph glyph-name="" unicode="á" d="M387 653 L471 653 L425 296 L235 296 L387 653 ZM200 748 L184 680 L290 661 L-16 0 L96 -6 L188 205 L409 205 L382 0 L486 0 L591 748 L200 748 ZM395 795 L477 795 L595 949 L485 949 L395 795 Z" /><glyph glyph-name="" unicode="â" d="M387 653 L471 653 L425 296 L235 296 L387 653 ZM200 748 L184 680 L290 661 L-16 0 L96 -6 L188 205 L409 205 L382 0 L486 0 L591 748 L200 748 ZM512 949 L422 949 L321 795 L389 795 L456 882 L501 795 L568 795 L512 949 Z" /><glyph glyph-name="" unicode="ã" d="M387 653 L471 653 L425 296 L235 296 L387 653 ZM200 748 L184 680 L290 661 L-16 0 L96 -6 L188 205 L409 205 L382 0 L486 0 L591 748 L200 748 ZM568 891 Q550 916 532 923 Q515 931 504 930 Q465 928 440 912 Q416 895 394 893 Q386 893 374 898 Q362 903 349 917 L317 849 Q333 826 350 817 Q366 809 379 809 Q409 811 437 828 Q464 845 489 847 Q497 847 509 842 Q521 837 537 821 L568 891 Z" /><glyph glyph-name="" unicode="ä" d="M387 653 L471 653 L425 296 L235 296 L387 653 ZM200 748 L184 680 L290 661 L-16 0 L96 -6 L188 205 L409 205 L382 0 L486 0 L591 748 L200 748 ZM349 862 Q349 839 361 823 Q373 807 393 806 Q420 807 439 829 Q458 851 459 882 Q459 906 445 921 Q432 936 412 936 Q388 935 369 914 Q350 892 349 862 L349 862 ZM513 862 Q513 839 525 823 Q536 807 556 806 Q583 807 602 829 Q621 850 622 882 Q622 906 608 921 Q595 936 575 936 Q551 935 532 914 Q514 892 513 862 L513 862 Z" /><glyph glyph-name="" unicode="å" d="M387 653 L471 653 L425 296 L235 296 L387 653 ZM200 748 L184 680 L290 661 L-16 0 L96 -6 L188 205 L409 205 L382 0 L486 0 L591 748 L200 748 ZM403 868 Q404 832 421 811 Q439 790 467 789 Q507 790 534 820 Q560 851 561 899 Q561 936 543 957 Q526 979 497 979 Q458 978 431 947 Q404 916 403 868 L403 868 ZM449 876 Q450 899 461 915 Q473 931 490 932 Q502 931 510 920 Q517 908 517 892 Q516 869 504 853 Q492 837 475 836 Q464 836 456 848 Q449 859 449 876 L449 876 Z" /><glyph glyph-name="" unicode="æ" d="M236 296 L387 653 L460 653 L413 296 L236 296 ZM398 205 L372 0 L741 0 L757 95 L492 95 L523 343 L756 343 L771 435 L538 435 L565 653 L824 653 L840 748 L200 748 L184 680 L290 661 L-16 0 L96 -6 L188 205 L398 205 Z" /><glyph glyph-name="" unicode="ç" d="M292 88 Q215 90 182 151 Q148 212 149 314 Q150 449 205 552 Q261 655 362 660 Q391 660 415 649 Q439 639 460 623 L454 501 L525 501 L564 679 Q523 714 478 734 Q432 754 376 754 Q214 748 129 616 Q44 485 43 301 Q43 179 91 95 Q139 12 241 -3 Q228 -58 201 -90 Q174 -123 127 -135 L148 -204 Q221 -192 259 -137 Q298 -81 304 -5 Q357 -1 409 32 Q461 65 502 135 L432 194 Q408 147 373 118 Q337 89 292 88 L292 88 Z" /><glyph glyph-name="" unicode="è" d="M147 748 L43 0 L444 0 L460 95 L161 95 L195 343 L453 343 L468 435 L210 435 L240 653 L528 653 L543 748 L147 748 ZM361 949 L252 949 L325 795 L407 795 L361 949 Z" /><glyph glyph-name="" unicode="é" d="M147 748 L43 0 L444 0 L460 95 L161 95 L195 343 L453 343 L468 435 L210 435 L240 653 L528 653 L543 748 L147 748 ZM314 795 L396 795 L514 949 L404 949 L314 795 Z" /><glyph glyph-name="" unicode="ê" d="M147 748 L43 0 L444 0 L460 95 L161 95 L195 343 L453 343 L468 435 L210 435 L240 653 L528 653 L543 748 L147 748 ZM432 949 L342 949 L241 795 L309 795 L376 882 L421 795 L488 795 L432 949 Z" /><glyph glyph-name="" unicode="ë" d="M155 748 L51 0 L452 0 L468 95 L169 95 L203 343 L461 343 L476 435 L218 435 L248 653 L536 653 L551 748 L155 748 ZM243 864 Q243 841 255 825 Q267 809 287 808 Q314 809 333 831 Q352 853 353 884 Q353 908 339 923 Q326 938 306 938 Q282 937 263 916 Q244 894 243 864 L243 864 ZM407 864 Q407 841 419 825 Q430 809 450 808 Q477 809 496 831 Q515 852 516 884 Q516 908 502 923 Q489 938 469 938 Q445 937 426 916 Q408 894 407 864 L407 864 Z" /><glyph glyph-name="" unicode="ñ" d="M458 0 L519 0 L624 748 L519 748 L450 220 L446 218 L206 748 L148 748 L43 0 L148 0 L216 521 L220 523 L458 0 ZM509 894 Q491 919 473 926 Q456 934 445 933 Q406 931 381 915 Q357 898 335 896 Q327 896 315 901 Q303 906 290 920 L258 852 Q274 829 291 820 Q307 812 320 812 Q350 814 378 831 Q405 848 430 850 Q438 850 450 845 Q462 840 478 824 L509 894 Z" /><glyph glyph-name="" unicode="ò" d="M378 754 Q221 749 133 619 Q45 489 43 300 Q43 166 101 81 Q158 -3 272 -6 Q429 -1 518 129 Q606 259 607 448 Q607 582 550 667 Q493 751 378 754 L378 754 ZM367 660 Q437 658 469 593 Q501 527 500 429 Q499 296 441 195 Q383 93 283 88 Q213 90 181 156 Q150 221 150 319 Q151 452 209 553 Q267 655 367 660 L367 660 ZM398 949 L289 949 L362 795 L444 795 L398 949 Z" /><glyph glyph-name="" unicode="ó" d="M378 754 Q221 749 133 619 Q45 489 43 300 Q43 166 101 81 Q158 -3 272 -6 Q429 -1 518 129 Q606 259 607 448 Q607 582 550 667 Q493 751 378 754 L378 754 ZM367 660 Q437 658 469 593 Q501 527 500 429 Q499 296 441 195 Q383 93 283 88 Q213 90 181 156 Q150 221 150 319 Q151 452 209 553 Q267 655 367 660 L367 660 ZM357 794 L439 794 L557 948 L447 948 L357 794 Z" /><glyph glyph-name="" unicode="ô" d="M378 754 Q221 749 133 619 Q45 489 43 300 Q43 166 101 81 Q158 -3 272 -6 Q429 -1 518 129 Q606 259 607 448 Q607 582 550 667 Q493 751 378 754 L378 754 ZM367 660 Q437 658 469 593 Q501 527 500 429 Q499 296 441 195 Q383 93 283 88 Q213 90 181 156 Q150 221 150 319 Q151 452 209 553 Q267 655 367 660 L367 660 ZM466 949 L376 949 L275 795 L343 795 L410 882 L455 795 L522 795 L466 949 Z" /><glyph glyph-name="" unicode="õ" d="M378 754 Q221 749 133 619 Q45 489 43 300 Q43 166 101 81 Q158 -3 272 -6 Q429 -1 518 129 Q606 259 607 448 Q607 582 550 667 Q493 751 378 754 L378 754 ZM367 660 Q437 658 469 593 Q501 527 500 429 Q499 296 441 195 Q383 93 283 88 Q213 90 181 156 Q150 221 150 319 Q151 452 209 553 Q267 655 367 660 L367 660 ZM519 893 Q501 918 483 925 Q466 933 455 932 Q416 930 391 914 Q367 897 345 895 Q337 895 325 900 Q313 905 300 919 L268 851 Q284 828 301 819 Q317 811 330 811 Q360 813 388 830 Q415 847 440 849 Q448 849 460 844 Q472 839 488 823 L519 893 Z" /><glyph glyph-name="" unicode="ö" d="M378 754 Q221 749 133 619 Q45 489 43 300 Q43 166 101 81 Q158 -3 272 -6 Q429 -1 518 129 Q606 259 607 448 Q607 582 550 667 Q493 751 378 754 L378 754 ZM367 660 Q437 658 469 593 Q501 527 500 429 Q499 296 441 195 Q383 93 283 88 Q213 90 181 156 Q150 221 150 319 Q151 452 209 553 Q267 655 367 660 L367 660 ZM278 863 Q278 840 290 824 Q302 808 322 807 Q349 808 368 830 Q387 852 388 883 Q388 907 374 922 Q361 937 341 937 Q317 936 298 915 Q279 893 278 863 L278 863 ZM442 863 Q442 840 454 824 Q465 808 485 807 Q512 808 531 830 Q550 851 551 883 Q551 907 537 922 Q524 937 504 937 Q480 936 461 915 Q443 893 442 863 L442 863 Z" /><glyph glyph-name="" unicode="ø" d="M636 706 L605 754 L541 678 Q513 714 472 734 Q431 754 378 754 Q221 749 133 619 Q45 489 43 300 Q43 249 51 204 Q60 159 77 121 L13 44 L45 -3 L107 72 Q136 35 177 15 Q218 -6 272 -6 Q429 -1 518 129 Q606 259 607 448 Q607 500 598 546 Q589 591 571 629 L636 706 ZM500 429 Q499 296 441 195 Q383 93 283 88 Q247 88 221 107 Q195 125 179 158 L490 531 Q495 508 498 482 Q500 456 500 429 L500 429 ZM367 660 Q402 660 428 642 Q453 624 469 591 L159 219 Q154 242 152 267 Q150 292 150 319 Q151 452 209 553 Q267 655 367 660 L367 660 Z" /><glyph glyph-name="" unicode="ù" d="M495 748 L436 322 Q422 220 380 155 Q337 90 272 88 Q217 89 191 131 Q165 173 165 243 Q165 261 167 281 Q169 300 172 322 L231 748 L126 748 L67 322 Q64 300 62 279 Q60 258 60 238 Q60 127 109 61 Q158 -4 258 -6 Q376 -3 448 87 Q520 177 540 322 L600 748 L495 748 ZM375 949 L266 949 L339 795 L421 795 L375 949 Z" /><glyph glyph-name="" unicode="ú" d="M495 748 L436 322 Q422 220 380 155 Q337 90 272 88 Q217 89 191 131 Q165 173 165 243 Q165 261 167 281 Q169 300 172 322 L231 748 L126 748 L67 322 Q64 300 62 279 Q60 258 60 238 Q60 127 109 61 Q158 -4 258 -6 Q376 -3 448 87 Q520 177 540 322 L600 748 L495 748 ZM321 795 L403 795 L521 949 L411 949 L321 795 Z" /><glyph glyph-name="" unicode="û" d="M495 748 L436 322 Q422 220 380 155 Q337 90 272 88 Q217 89 191 131 Q165 173 165 243 Q165 261 167 281 Q169 300 172 322 L231 748 L126 748 L67 322 Q64 300 62 279 Q60 258 60 238 Q60 127 109 61 Q158 -4 258 -6 Q376 -3 448 87 Q520 177 540 322 L600 748 L495 748 ZM448 949 L358 949 L257 795 L325 795 L392 882 L437 795 L504 795 L448 949 Z" /><glyph glyph-name="" unicode="ü" d="M495 748 L436 322 Q422 220 380 155 Q337 90 272 88 Q217 89 191 131 Q165 173 165 243 Q165 261 167 281 Q169 300 172 322 L231 748 L126 748 L67 322 Q64 300 62 279 Q60 258 60 238 Q60 127 109 61 Q158 -4 258 -6 Q376 -3 448 87 Q520 177 540 322 L600 748 L495 748 ZM254 863 Q254 840 266 824 Q278 808 298 807 Q325 808 344 830 Q363 852 364 883 Q364 907 350 922 Q337 937 317 937 Q293 936 274 915 Q255 893 254 863 L254 863 ZM418 863 Q418 840 430 824 Q441 808 461 807 Q488 808 507 830 Q526 851 527 883 Q527 907 513 922 Q500 937 480 937 Q456 936 437 915 Q419 893 418 863 L418 863 Z" /><glyph glyph-name="" unicode="ß" d="M126 440 L65 -18 Q55 -83 24 -104 Q-7 -125 -43 -123 L-40 -205 Q-29 -209 -18 -212 Q-6 -214 4 -214 Q51 -215 99 -171 Q146 -127 163 -22 L245 570 Q255 637 285 671 Q314 704 345 704 Q377 704 398 686 Q419 668 420 633 Q412 573 358 544 Q304 514 296 431 Q303 363 354 311 Q404 258 411 197 Q410 136 388 111 Q366 87 336 88 Q314 88 297 98 Q280 108 267 123 L222 45 Q244 23 275 9 Q307 -5 340 -6 Q404 -6 458 45 Q512 96 515 197 Q508 301 459 349 Q409 397 402 439 Q410 495 463 523 Q516 551 524 642 Q524 709 483 752 Q442 794 359 795 Q285 795 225 739 Q164 683 146 571 L139 519 L50 519 L41 459 L126 440 Z" /><glyph glyph-name="" unicode="æ" d="M269 525 Q226 525 186 511 Q146 497 106 473 L125 398 Q158 417 186 428 Q214 439 246 439 Q282 439 302 415 Q322 390 322 336 Q322 316 318 292 Q296 304 269 310 Q243 315 225 315 Q107 308 68 242 Q29 175 32 133 Q33 71 65 33 Q97 -5 155 -6 Q205 -7 253 19 Q300 45 336 105 Q356 53 395 24 Q434 -6 489 -6 Q549 -6 587 7 Q626 20 661 45 L632 131 Q603 113 572 101 Q541 89 499 89 Q465 88 441 113 Q417 139 416 209 Q511 207 603 241 Q694 275 701 384 Q701 445 664 485 Q626 525 549 527 Q504 527 465 504 Q425 481 395 439 Q378 479 346 502 Q313 525 269 525 L269 525 ZM199 77 Q170 77 154 96 Q138 115 138 152 Q137 184 156 217 Q176 249 230 252 Q251 252 270 246 Q289 240 308 228 Q295 140 260 108 Q225 75 199 77 L199 77 ZM540 437 Q568 436 583 419 Q599 401 599 373 Q598 326 550 302 Q502 278 419 276 Q429 356 463 396 Q497 437 540 437 L540 437 Z" /><glyph glyph-name="" unicode="ç" d="M283 525 Q177 523 111 444 Q45 364 43 226 Q44 123 86 63 Q128 3 204 -5 Q191 -59 164 -91 Q137 -123 90 -135 L112 -204 Q185 -192 224 -136 Q263 -79 268 -2 Q299 3 328 19 Q356 34 385 60 L345 135 Q314 108 286 98 Q258 88 236 88 Q195 88 169 123 Q144 159 143 230 Q144 321 181 375 Q217 430 272 431 Q291 431 305 426 Q319 421 331 413 L322 315 L392 315 L419 474 Q392 497 360 511 Q329 525 283 525 L283 525 Z" /><glyph glyph-name="" unicode="ë" d="M435 384 Q435 445 398 485 Q361 525 284 527 Q183 525 116 440 Q49 355 46 216 Q47 110 94 53 Q140 -5 223 -6 Q283 -6 322 7 Q360 20 395 45 L366 130 Q337 112 306 100 Q275 88 234 88 Q199 86 175 112 Q151 137 150 209 Q246 207 337 241 Q428 275 435 384 L435 384 ZM274 439 Q302 438 317 420 Q333 401 333 373 Q332 326 285 302 Q237 278 154 276 Q164 356 198 397 Q231 439 274 439 L274 439 ZM172 654 Q172 631 184 615 Q196 599 216 598 Q243 599 262 621 Q281 643 282 674 Q282 698 268 713 Q255 728 235 728 Q211 727 192 706 Q173 684 172 654 L172 654 ZM336 654 Q336 631 348 615 Q359 599 379 598 Q406 599 425 621 Q444 642 445 674 Q445 698 431 713 Q418 728 398 728 Q374 727 355 706 Q337 684 336 654 L336 654 Z" /><glyph glyph-name="" unicode="ñ" d="M222 519 L129 519 L58 0 L157 0 L204 351 Q227 390 255 411 Q282 432 309 432 Q336 433 352 414 Q368 394 368 345 Q368 338 367 327 Q367 317 365 303 L323 0 L422 0 L462 291 Q468 333 468 366 Q466 459 429 493 Q393 527 345 525 Q317 525 284 507 Q250 488 216 450 L212 450 L222 519 ZM455 674 Q437 699 419 706 Q402 714 391 713 Q352 711 327 695 Q303 678 281 676 Q273 676 261 681 Q249 686 236 700 L204 632 Q220 609 237 600 Q253 592 266 592 Q296 594 324 611 Q351 628 376 630 Q384 630 396 625 Q408 620 424 604 L455 674 Z" /><glyph glyph-name="" unicode="÷" d="M177 111 Q177 82 192 63 Q206 44 230 43 Q260 44 282 70 Q305 96 306 135 Q306 163 291 182 Q277 200 253 201 Q223 200 201 174 Q178 149 177 111 L177 111 ZM239 541 Q239 513 254 494 Q268 476 292 475 Q322 476 344 502 Q367 527 368 565 Q368 593 353 612 Q339 631 315 632 Q285 631 263 605 Q240 579 239 541 L239 541 ZM65 294 L467 294 L481 381 L79 381 L65 294 Z" /><glyph glyph-name="" unicode="ø" d="M482 475 L452 522 L407 472 Q385 498 355 511 Q325 525 288 525 Q181 524 113 441 Q45 358 43 211 Q43 140 67 89 L26 43 L57 -3 L98 43 Q120 19 149 7 Q178 -6 213 -6 Q319 -4 387 80 Q456 164 458 311 Q458 343 452 372 Q447 401 437 424 L482 475 ZM273 436 Q295 436 311 425 Q327 413 338 393 L146 178 Q143 198 143 222 Q144 318 181 376 Q218 434 273 436 L273 436 ZM358 295 Q357 200 320 142 Q283 84 228 82 Q188 83 165 119 L356 333 Q358 315 358 295 L358 295 Z" /><glyph glyph-name="" unicode="ÿ" d="M427 421 Q426 479 404 503 Q382 528 348 527 Q338 527 325 524 Q313 521 302 516 L289 435 Q305 436 315 428 Q326 420 326 395 Q324 347 293 254 Q262 161 228 96 L150 525 L44 519 L152 0 Q110 -67 72 -97 Q34 -127 -11 -127 L-6 -202 Q4 -208 15 -211 Q26 -214 34 -214 Q150 -193 283 27 Q415 247 427 421 L427 421 ZM108 654 Q108 631 120 615 Q132 599 152 598 Q179 599 198 621 Q217 643 218 674 Q218 698 204 713 Q191 728 171 728 Q147 727 128 706 Q109 684 108 654 L108 654 ZM272 654 Q272 631 284 615 Q295 599 315 598 Q342 599 361 621 Q380 642 381 674 Q381 698 367 713 Q354 728 334 728 Q310 727 291 706 Q273 684 272 654 L272 654 Z" /><glyph glyph-name="" unicode="&#x131;" d="M214 519 L116 519 L70 177 Q67 153 65 137 Q63 120 63 110 Q64 44 91 18 Q118 -7 155 -6 Q167 -6 179 -3 Q192 0 203 5 L217 85 Q190 84 178 95 Q165 105 165 134 Q165 143 166 155 Q167 167 169 179 L214 519 Z" /><glyph glyph-name="" unicode="&#x152;" d="M818 653 L833 748 L451 748 Q435 751 416 753 Q397 754 378 754 Q221 749 133 619 Q45 489 43 300 Q43 166 100 81 Q157 -3 272 -6 Q290 -6 310 -4 Q330 -3 347 0 L728 0 L744 95 L462 95 L493 344 L744 344 L758 435 L508 435 L535 653 L818 653 ZM286 91 Q216 94 182 158 Q149 222 149 317 Q150 452 208 551 Q266 651 365 656 Q383 656 397 655 Q412 653 429 649 L358 99 Q338 95 322 93 Q305 91 286 91 L286 91 Z" /><glyph glyph-name="" unicode="&#x153;" d="M292 525 Q186 524 118 441 Q50 358 48 211 Q49 113 94 54 Q138 -5 218 -6 Q270 -5 314 21 Q358 48 391 95 Q412 47 449 21 Q486 -6 536 -6 Q595 -6 634 7 Q672 20 708 45 L678 131 Q649 113 618 101 Q588 89 546 89 Q512 87 488 112 Q463 137 462 209 Q558 207 650 241 Q741 275 748 384 Q748 445 710 485 Q672 525 596 527 Q547 527 504 502 Q461 476 429 426 Q409 473 374 499 Q339 525 292 525 L292 525 ZM278 435 Q319 434 341 397 Q362 360 362 295 Q361 200 325 143 Q288 85 233 84 Q193 84 171 120 Q148 155 148 222 Q149 318 186 376 Q223 434 278 435 L278 435 ZM587 437 Q614 436 630 419 Q645 401 645 373 Q644 326 597 302 Q549 278 466 276 Q476 356 510 396 Q544 437 587 437 L587 437 Z" /><glyph glyph-name="" unicode="&#x178;" d="M72 748 L204 285 L165 0 L269 0 L309 285 Q383 397 439 499 Q495 600 566 748 L449 754 Q403 638 358 544 Q312 451 275 384 L271 384 L190 754 L72 748 ZM207 864 Q207 841 219 825 Q231 809 251 808 Q278 809 297 831 Q316 853 317 884 Q317 908 303 923 Q290 938 270 938 Q246 937 227 916 Q208 894 207 864 L207 864 ZM371 864 Q371 841 383 825 Q394 809 414 808 Q441 809 460 831 Q479 852 480 884 Q480 908 466 923 Q453 938 433 938 Q409 937 390 916 Q372 894 371 864 L371 864 Z" /><glyph glyph-name="" unicode="&#x192;" d="M187 91 Q177 20 157 -9 Q137 -38 103 -37 Q92 -37 80 -33 Q69 -29 60 -21 L19 -107 Q37 -120 57 -127 Q77 -133 106 -133 Q168 -134 217 -88 Q267 -43 282 57 L327 399 L430 399 L454 471 L338 471 L354 598 Q360 644 375 667 Q390 691 420 691 Q447 691 471 673 L510 758 Q495 774 470 782 Q444 790 423 790 Q362 789 317 744 Q271 699 258 616 L239 471 L144 471 L134 417 L228 399 L187 91 Z" /><glyph glyph-name="" unicode="&#x2c6;" d="M284 739 L194 739 L93 585 L161 585 L228 672 L273 585 L340 585 L284 739 Z" /><glyph glyph-name="" unicode="&#x2c7;" d="M355 739 L288 739 L220 651 L176 739 L108 739 L165 585 L254 585 L355 739 Z" /><glyph glyph-name="" unicode="&#x2d8;" d="M109 739 Q109 669 134 632 Q159 594 211 594 Q264 594 303 632 Q342 669 356 739 L301 739 Q290 702 269 684 Q249 666 222 666 Q197 666 181 685 Q165 704 164 739 L109 739 Z" /><glyph glyph-name="" unicode="&#x2d9;" d="M97 652 Q97 628 109 612 Q121 597 141 596 Q168 597 187 619 Q205 640 206 671 Q206 695 193 711 Q180 726 160 726 Q135 725 117 704 Q98 682 97 652 L97 652 Z" /><glyph glyph-name="" unicode="&#x2da;" d="M97 649 Q98 613 115 592 Q133 571 161 570 Q201 571 228 601 Q254 632 255 680 Q255 717 237 738 Q220 760 191 760 Q152 759 125 728 Q98 697 97 649 L97 649 ZM143 657 Q144 680 155 696 Q167 712 184 713 Q196 712 204 701 Q211 689 211 673 Q210 650 198 634 Q186 618 169 617 Q158 617 150 629 Q143 640 143 657 L143 657 Z" /><glyph glyph-name="" unicode="&#x2db;" d="M141 -118 Q115 -118 98 -106 Q80 -95 79 -71 Q80 -41 95 -22 Q110 -3 130 6 L125 56 Q84 45 44 7 Q5 -31 2 -94 Q4 -143 35 -167 Q66 -192 107 -193 L141 -118 Z" /><glyph glyph-name="" unicode="&#x2dc;" d="M349 674 Q331 699 313 706 Q296 714 285 713 Q246 711 221 695 Q197 678 175 676 Q167 676 155 681 Q143 686 130 700 L98 632 Q114 609 131 600 Q147 592 160 592 Q190 594 218 611 Q245 628 270 630 Q278 630 290 625 Q302 620 318 604 L349 674 Z" /><glyph glyph-name="" unicode="&#x2dd;" d="M95 585 L170 585 L279 739 L176 739 L95 585 ZM252 585 L327 585 L436 739 L333 739 L252 585 Z" /><glyph glyph-name="" unicode="&#x3a9;" d="M441 95 L442 99 Q499 155 545 251 Q590 347 593 474 Q592 593 539 672 Q485 751 385 754 Q254 749 170 634 Q86 519 83 351 Q84 269 103 205 Q122 141 150 99 L150 95 L45 95 L29 0 L234 0 L247 79 Q222 116 204 181 Q185 245 184 329 Q185 461 237 557 Q288 653 371 658 Q428 656 456 597 Q484 537 484 448 Q481 319 435 226 Q389 133 337 79 L324 0 L529 0 L544 95 L441 95 Z" /><glyph glyph-name="" unicode="&#x3c0;" d="M391 430 L360 177 Q358 159 356 144 Q354 129 354 115 Q354 51 378 22 Q401 -6 444 -6 Q456 -6 469 -3 Q482 0 493 5 L507 85 Q480 84 468 95 Q455 105 455 134 Q455 143 456 155 Q457 167 459 179 L490 430 L553 430 L568 519 L250 519 Q197 519 162 511 Q126 502 100 488 L104 401 Q117 409 138 416 Q158 424 187 427 Q167 318 137 197 Q108 77 79 0 L174 0 Q204 83 233 203 Q262 323 282 430 L391 430 Z" /><glyph glyph-name="" unicode="&#xfb01;" d="M507 519 L239 519 L248 590 Q256 648 277 676 Q298 705 331 705 Q387 704 428 689 Q470 673 491 660 L525 739 Q496 760 444 777 Q391 794 335 795 Q271 796 219 750 Q166 704 150 596 L140 519 L61 519 L51 459 L127 442 L67 -18 Q57 -83 28 -104 Q-1 -125 -37 -123 L-33 -205 Q-24 -209 -13 -212 Q-3 -214 6 -214 Q53 -215 101 -171 Q148 -127 165 -22 L226 438 L395 438 L362 177 Q360 160 358 145 Q357 129 357 115 Q357 51 381 22 Q404 -6 448 -6 Q460 -6 472 -3 Q485 0 496 5 L510 85 Q483 84 471 95 Q458 105 458 134 Q458 143 459 155 Q460 167 462 179 L507 519 Z" /><glyph glyph-name="" unicode="&#xfb02;" d="M140 519 L61 519 L50 459 L127 442 L67 -18 Q57 -83 28 -104 Q-1 -125 -37 -123 L-33 -205 Q-24 -209 -13 -212 Q-3 -214 6 -214 Q53 -215 101 -171 Q148 -127 165 -22 L226 438 L333 438 L347 519 L239 519 L248 590 Q257 650 281 677 Q304 704 329 704 Q355 704 378 699 Q400 694 419 686 L351 177 Q349 160 347 145 Q346 129 346 115 Q346 51 370 22 Q393 -6 437 -6 Q449 -6 462 -3 Q475 0 486 5 L498 85 Q471 84 459 95 Q447 105 447 134 Q447 143 448 155 Q449 167 451 179 L526 736 Q483 763 433 779 Q382 795 326 795 Q273 796 220 748 Q167 701 150 596 L140 519 Z" /><glyph glyph-name="" unicode="&#x2013;" d="M406 249 L420 334 L44 334 L30 249 L406 249 Z" /><glyph glyph-name="" unicode="&#x2014;" d="M610 249 L625 334 L47 334 L33 249 L610 249 Z" /><glyph glyph-name="" unicode="&#x2018;" d="M198 538 Q198 562 186 581 Q174 600 153 601 L219 734 L176 754 Q140 707 108 635 Q75 563 73 515 Q73 487 87 469 Q100 450 124 449 Q154 450 175 476 Q197 502 198 538 L198 538 Z" /><glyph glyph-name="" unicode="&#x2019;" d="M94 665 Q94 641 106 622 Q118 603 139 602 L73 469 L117 449 Q152 496 185 568 Q217 640 219 688 Q219 716 205 735 Q191 753 168 754 Q138 753 117 727 Q95 701 94 665 L94 665 Z" /><glyph glyph-name="" unicode="&#x201a;" d="M54 58 Q54 33 66 15 Q77 -4 98 -5 L32 -139 L76 -158 Q111 -111 144 -39 Q177 33 179 81 Q179 109 165 127 Q151 145 128 146 Q98 145 76 119 Q55 94 54 58 L54 58 Z" /><glyph glyph-name="" unicode="&#x201c;" d="M198 538 Q198 562 187 581 Q175 600 154 601 L220 734 L176 754 Q140 707 108 635 Q75 563 73 515 Q73 487 87 469 Q100 450 124 449 Q154 450 176 476 Q197 502 198 538 L198 538 ZM374 538 Q374 562 363 581 Q351 600 330 601 L396 734 L351 754 Q316 707 284 635 Q251 563 249 515 Q249 487 263 469 Q276 450 300 449 Q330 450 352 476 Q373 502 374 538 L374 538 Z" /><glyph glyph-name="" unicode="&#x201d;" d="M289 665 Q289 641 301 622 Q313 603 334 602 L268 469 L312 449 Q348 496 380 568 Q413 640 415 688 Q415 716 401 735 Q387 753 364 754 Q334 753 312 727 Q290 701 289 665 L289 665 ZM113 665 Q113 641 125 622 Q137 603 158 602 L92 469 L137 449 Q172 496 205 568 Q237 640 239 688 Q239 716 225 735 Q211 753 188 754 Q158 753 136 727 Q114 701 113 665 L113 665 Z" /><glyph glyph-name="" unicode="&#x201e;" d="M234 58 Q234 33 245 15 Q257 -4 277 -5 L212 -139 L256 -158 Q291 -111 324 -39 Q357 33 359 81 Q359 109 345 127 Q331 145 308 146 Q278 145 256 119 Q235 94 234 58 L234 58 ZM58 58 Q58 33 69 15 Q81 -4 101 -5 L36 -139 L80 -158 Q116 -111 148 -39 Q181 33 183 81 Q183 109 169 127 Q155 145 132 146 Q102 145 80 119 Q59 94 58 58 L58 58 Z" /><glyph glyph-name="" unicode="&#x2020;" d="M282 559 L320 748 L232 748 L218 559 L282 559 ZM204 465 L116 -78 L204 -78 L266 465 L204 465 ZM274 474 L409 460 L425 563 L287 548 L247 511 L274 474 ZM209 548 L74 563 L58 460 L197 474 L236 511 L209 548 Z" /><glyph glyph-name="" unicode="&#x2021;" d="M184 110 L145 -78 L233 -78 L247 110 L184 110 ZM191 195 L56 210 L40 107 L178 121 L218 158 L191 195 ZM256 121 L391 107 L407 210 L268 195 L229 158 L256 121 ZM310 559 L348 748 L261 748 L246 559 L310 559 ZM262 206 L295 465 L232 465 L199 206 L262 206 ZM303 474 L438 460 L454 563 L315 548 L276 511 L303 474 ZM238 548 L103 563 L87 460 L226 474 L265 511 L238 548 Z" /><glyph glyph-name="" unicode="&#x2022;" d="M267 387 Q267 432 245 463 Q223 493 186 494 Q140 493 106 453 Q72 414 70 355 Q71 310 92 281 Q114 252 150 251 Q197 252 231 290 Q265 328 267 387 L267 387 Z" /><glyph glyph-name="" unicode="&#x2026;" d="M63 58 Q63 30 77 13 Q91 -5 115 -6 Q145 -5 167 20 Q189 44 190 81 Q190 109 175 127 Q161 145 138 146 Q108 145 86 120 Q64 94 63 58 L63 58 ZM295 58 Q295 30 309 13 Q322 -5 346 -6 Q376 -5 397 20 Q419 44 420 81 Q420 109 406 127 Q392 145 369 146 Q339 145 318 120 Q296 94 295 58 L295 58 ZM525 58 Q525 30 539 13 Q553 -5 576 -6 Q606 -5 628 20 Q650 44 651 81 Q651 109 637 127 Q623 145 600 146 Q570 145 548 120 Q526 94 525 58 L525 58 Z" /><glyph glyph-name="" unicode="&#x2030;" d="M663 748 L598 751 L134 0 L200 -3 L663 748 ZM104 545 Q105 479 137 436 Q168 393 221 391 Q287 393 337 453 Q386 512 389 599 Q388 665 357 709 Q325 752 273 754 Q206 752 156 692 Q107 632 104 545 L104 545 ZM412 148 Q413 82 445 39 Q476 -4 528 -6 Q596 -4 646 56 Q696 116 698 203 Q697 269 665 312 Q634 355 581 357 Q514 355 464 295 Q415 235 412 148 L412 148 ZM178 556 Q179 604 204 639 Q229 674 263 676 Q290 675 303 649 Q315 624 315 588 Q314 540 289 505 Q264 470 231 468 Q204 469 191 495 Q178 520 178 556 L178 556 ZM486 159 Q487 207 512 242 Q537 278 570 280 Q598 279 610 253 Q623 227 623 192 Q622 144 597 108 Q572 73 538 71 Q512 72 499 98 Q486 123 486 159 L486 159 ZM732 148 Q733 82 765 39 Q797 -4 848 -6 Q916 -4 966 56 Q1016 116 1018 203 Q1017 269 985 312 Q953 355 900 357 Q834 355 784 295 Q735 235 732 148 L732 148 ZM807 159 Q808 207 833 242 Q858 278 891 280 Q918 279 931 253 Q944 227 944 192 Q943 144 918 108 Q892 73 858 71 Q832 72 819 98 Q807 123 807 159 L807 159 Z" /><glyph glyph-name="" unicode="&#x2039;" d="M215 594 L61 367 L60 359 L150 132 L211 177 L142 364 L262 549 L215 594 Z" /><glyph glyph-name="" unicode="&#x203a;" d="M101 549 L169 364 L50 177 L97 132 L250 359 L252 367 L161 594 L101 549 Z" /><glyph glyph-name="" unicode="&#x2044;" d="M-69 -6 L385 748 L319 754 L-130 0 L-69 -6 Z" /><glyph glyph-name="" unicode="&#x20ac;" d="M115 259 Q115 132 156 63 Q197 -5 282 -6 Q324 -6 364 10 Q403 26 443 59 L417 147 Q354 89 296 89 Q256 90 237 134 Q217 178 216 259 L362 259 L382 324 L220 324 Q222 345 225 372 Q228 399 232 419 L404 419 L424 483 L247 483 Q269 575 301 617 Q332 660 372 659 Q402 659 427 648 Q451 637 475 610 L527 697 Q497 724 463 739 Q429 754 385 754 Q301 754 240 686 Q179 618 146 483 L92 483 L79 435 L131 419 Q127 397 124 372 Q121 346 119 324 L72 324 L58 275 L115 259 Z" /><glyph glyph-name="" unicode="&#x2122;" d="M510 470 L607 625 L610 624 L581 414 L632 414 L679 748 L638 748 L521 560 L456 748 L416 748 L369 414 L420 414 L449 624 L452 625 L505 470 L510 470 ZM375 748 L149 748 L140 695 L228 695 L189 414 L240 414 L279 695 L367 695 L375 748 Z" /><glyph glyph-name="" unicode="&#x2202;" d="M308 434 Q336 434 355 413 Q375 393 386 359 Q381 251 351 169 Q320 88 264 84 Q222 84 199 119 Q175 154 175 223 Q176 320 214 377 Q251 433 308 434 L308 434 ZM235 -6 Q357 -8 428 111 Q498 230 500 494 Q498 668 450 733 Q403 798 333 795 Q284 794 242 776 Q199 758 165 728 L200 661 Q215 676 244 690 Q273 705 311 706 Q356 707 382 670 Q408 632 409 537 Q409 520 408 497 Q408 475 406 453 L402 452 Q386 485 360 505 Q334 524 299 525 Q202 523 139 439 Q76 355 74 209 Q75 108 117 52 Q160 -5 235 -6 L235 -6 Z" /><glyph glyph-name="" unicode="&#x2206;" d="M390 748 L284 748 L-16 33 L-6 0 L499 0 L510 33 L390 748 ZM121 95 L314 595 L318 595 L392 95 L121 95 Z" /><glyph glyph-name="" unicode="&#x220f;" d="M207 0 L296 653 L473 653 L384 0 L489 0 L578 653 L639 653 L654 748 L145 748 L129 653 L191 653 L102 0 L207 0 Z" /><glyph glyph-name="" unicode="&#x2211;" d="M117 704 L244 379 L19 43 L24 0 L438 0 L453 95 L180 95 L180 99 L355 374 L257 648 L258 653 L516 653 L532 748 L130 748 L117 704 Z" /><glyph glyph-name="" unicode="&#x221a;" d="M238 -155 L572 846 L503 846 L223 5 L219 5 L194 410 L63 410 L50 327 L123 327 L160 -155 L238 -155 Z" /><glyph glyph-name="" unicode="&#x221e;" d="M459 189 Q516 191 556 239 Q596 287 598 359 Q597 413 571 447 Q545 482 501 483 Q462 482 423 455 Q384 427 345 382 Q320 427 289 455 Q258 482 218 483 Q162 481 122 433 Q81 384 79 312 Q80 258 106 224 Q133 190 176 189 Q216 190 254 217 Q293 244 331 288 Q358 244 389 217 Q420 190 459 189 L459 189 ZM470 258 Q437 259 415 281 Q393 303 377 336 Q402 369 430 391 Q458 413 491 414 Q513 413 526 395 Q540 376 540 348 Q539 310 519 284 Q498 259 470 258 L470 258 ZM186 258 Q165 259 152 277 Q138 295 138 324 Q139 362 160 387 Q180 413 208 414 Q241 413 262 391 Q283 369 300 336 Q275 303 247 281 Q219 259 186 258 L186 258 Z" /><glyph glyph-name="" unicode="&#x222b;" d="M251 730 Q262 802 291 820 Q320 839 355 836 L351 901 Q342 906 332 908 Q321 910 313 910 Q267 911 230 867 Q192 823 176 718 L79 16 Q68 -54 40 -72 Q11 -91 -24 -89 L-21 -154 Q-11 -159 -1 -162 Q10 -164 18 -164 Q64 -165 101 -121 Q138 -76 154 29 L251 730 Z" /><glyph glyph-name="" unicode="&#x2248;" d="M205 447 Q184 448 167 462 Q151 476 138 491 L90 416 Q120 386 141 373 Q161 360 192 360 Q242 363 281 384 Q320 404 350 407 Q373 406 392 392 Q410 377 423 362 L472 436 Q442 466 420 480 Q398 494 364 494 Q316 491 278 471 Q240 450 205 447 L205 447 ZM178 269 Q158 270 141 284 Q125 298 112 313 L64 238 Q93 208 114 195 Q135 182 166 182 Q216 185 255 206 Q294 226 324 229 Q347 228 365 214 Q383 199 396 184 L445 258 Q416 288 393 302 Q370 316 336 316 Q289 313 251 293 Q213 272 178 269 L178 269 Z" /><glyph glyph-name="" unicode="&#x2260;" d="M94 383 L290 383 L291 379 L222 292 L81 292 L67 205 L145 205 L145 201 L93 136 L122 99 L208 205 L470 205 L483 292 L285 292 L285 296 L353 383 L496 383 L510 470 L432 470 L432 474 L484 540 L455 577 L369 470 L107 470 L94 383 Z" /><glyph glyph-name="" unicode="&#x2264;" d="M447 161 L462 256 L210 390 L211 394 L496 529 L510 624 L124 435 L110 350 L447 161 ZM428 32 L441 119 L77 119 L64 32 L428 32 Z" /><glyph glyph-name="" unicode="&#x2265;" d="M476 350 L490 435 L154 624 L139 529 L390 394 L389 390 L105 256 L90 161 L476 350 ZM433 32 L447 119 L83 119 L70 32 L433 32 Z" /><glyph glyph-name="" unicode="&#x25ca;" d="M487 374 L372 777 L308 777 L77 374 L194 -29 L256 -29 L487 374 ZM404 376 L243 81 L160 373 L322 665 L404 376 Z" /><glyph glyph-name="" unicode="¦" d="M160 806 L105 407 L180 407 L235 806 L160 806 ZM82 244 L26 -155 L101 -155 L157 244 L82 244 Z" /><glyph glyph-name="" unicode="²" d="M279 309 L288 378 L149 378 L148 382 Q186 438 250 486 Q315 535 322 632 Q322 680 294 713 Q266 747 213 748 Q179 750 148 733 Q116 716 83 658 L140 625 Q157 655 172 666 Q187 678 201 677 Q225 677 236 662 Q247 646 247 622 Q241 550 176 505 Q110 460 50 355 L61 309 L279 309 Z" /><glyph glyph-name="" unicode="³" d="M305 455 Q304 504 281 534 Q259 564 224 575 L224 579 L318 693 L313 748 L127 748 L118 685 L229 685 L231 681 L144 575 L157 528 Q188 529 208 513 Q228 498 229 461 Q228 416 210 398 Q192 379 168 380 Q152 380 132 389 Q113 397 99 411 L62 351 Q86 329 113 319 Q140 309 164 309 Q228 310 266 348 Q304 386 305 455 L305 455 Z" /><glyph glyph-name="" unicode="¹" d="M177 645 L132 309 L210 309 L271 748 L217 748 L101 669 L116 614 L177 645 Z" /><glyph glyph-name="" unicode="¼" d="M152 -6 L605 748 L541 754 L92 0 L152 -6 ZM564 298 L544 161 L465 161 L464 164 Q504 235 530 302 Q557 369 572 437 L497 448 Q482 376 451 301 Q419 226 359 127 L370 93 L536 93 L527 0 L602 0 L613 93 L644 93 L655 161 L622 161 L639 303 L564 298 ZM152 645 L106 309 L184 309 L245 748 L191 748 L75 669 L90 614 L152 645 Z" /><glyph glyph-name="" unicode="½" d="M146 -6 L600 748 L536 754 L87 0 L146 -6 ZM151 645 L105 309 L183 309 L245 748 L191 748 L75 669 L89 614 L151 645 ZM638 0 L647 69 L508 69 L508 73 Q545 129 610 177 Q674 226 681 323 Q681 371 653 404 Q625 438 573 439 Q539 441 507 424 Q475 407 442 349 L500 316 Q517 346 532 357 Q546 369 560 368 Q584 368 595 353 Q606 337 606 313 Q601 241 535 196 Q469 151 409 46 L420 0 L638 0 Z" /><glyph glyph-name="" unicode="¾" d="M173 -6 L626 748 L562 754 L113 0 L173 -6 ZM580 298 L559 161 L480 161 L479 164 Q519 235 545 302 Q572 369 587 437 L512 448 Q497 376 466 301 Q434 226 374 127 L385 93 L551 93 L542 0 L617 0 L628 93 L659 93 L670 161 L637 161 L654 303 L580 298 ZM287 455 Q286 504 263 534 Q240 564 205 575 L205 579 L300 693 L294 748 L108 748 L99 685 L210 685 L212 681 L125 575 L139 528 Q170 529 190 513 Q210 498 211 461 Q210 416 191 398 Q173 379 149 380 Q133 380 114 389 Q94 397 81 411 L44 351 Q68 329 95 319 Q122 309 146 309 Q210 310 248 348 Q286 386 287 455 L287 455 Z" /><glyph glyph-name="" unicode="ð" d="M251 0 Q410 6 497 134 Q583 263 584 447 Q584 577 529 661 Q473 745 359 748 L161 748 L116 422 L58 422 L43 329 L102 329 L57 0 L251 0 ZM177 95 L207 329 L327 329 L341 422 L221 422 L251 653 L336 653 Q409 651 443 591 Q478 531 478 433 Q477 290 419 194 Q361 99 257 95 L177 95 Z" /><glyph glyph-name="" unicode="×" d="M102 99 L258 276 L366 99 L428 160 L321 338 L478 515 L434 577 L278 399 L170 577 L108 515 L216 338 L59 160 L102 99 Z" /><glyph glyph-name="" unicode="ý" d="M72 748 L204 285 L165 0 L269 0 L309 285 Q383 397 439 499 Q495 600 566 748 L449 754 Q403 638 358 544 Q312 451 275 384 L271 384 L190 754 L72 748 ZM273 795 L355 795 L473 949 L363 949 L273 795 Z" /><glyph glyph-name="" unicode="þ" d="M70 0 L175 0 L189 103 L284 103 Q383 106 458 192 Q534 278 538 418 Q536 522 487 583 Q438 645 361 646 L265 646 L279 748 L175 748 L70 0 ZM205 201 L250 548 L332 548 Q377 547 404 509 Q431 470 432 404 Q430 313 387 258 Q343 203 285 201 L205 201 Z" /><glyph glyph-name="" unicode="ð" d="M503 717 L470 763 L377 707 Q346 743 320 762 Q294 780 262 793 L208 720 Q231 710 251 694 Q270 678 286 660 L203 609 L234 560 L326 616 Q350 575 364 530 Q377 484 380 444 L378 443 Q363 475 335 492 Q308 510 272 510 Q176 509 114 430 Q52 351 50 209 Q51 108 93 52 Q136 -5 211 -6 Q332 -6 401 103 Q470 211 471 424 Q471 499 455 559 Q440 619 415 661 L503 717 ZM282 422 Q310 421 331 398 Q352 375 363 341 Q360 238 325 163 Q291 88 230 84 Q193 84 172 118 Q150 152 150 218 Q151 311 189 366 Q226 421 282 422 L282 422 Z" /><glyph glyph-name="" unicode="ý" d="M448 421 Q447 479 425 503 Q403 528 369 527 Q359 527 346 524 Q334 521 323 516 L310 435 Q326 436 336 428 Q347 420 347 395 Q345 347 314 254 Q283 161 249 96 L171 525 L65 519 L173 0 Q131 -67 93 -97 Q55 -127 10 -127 L15 -202 Q25 -208 36 -211 Q47 -214 55 -214 Q171 -193 304 27 Q436 247 448 421 L448 421 ZM213 585 L295 585 L413 739 L303 739 L213 585 Z" /><glyph glyph-name="" unicode="þ" d="M372 306 Q371 210 342 151 Q312 91 262 89 Q237 89 219 102 Q200 115 185 141 L215 375 Q237 401 259 416 Q281 430 307 430 Q339 429 355 397 Q372 364 372 306 L372 306 ZM176 789 L35 -214 L135 -208 L170 42 L173 43 Q192 19 213 7 Q233 -6 256 -6 Q354 -4 412 85 Q471 174 472 323 Q472 418 435 471 Q399 524 331 525 Q306 525 282 512 Q258 498 234 475 L231 476 L275 795 L176 789 Z" /><glyph glyph-name="" unicode="&#x141;" d="M198 95 L228 310 L426 515 L388 562 L243 406 L288 748 L182 748 L121 303 L21 205 L54 153 L106 207 L78 0 L445 0 L460 95 L198 95 Z" /><glyph glyph-name="" unicode="&#x142;" d="M315 481 L277 529 L214 464 L257 795 L158 791 L98 365 L1 271 L33 219 L86 273 L74 185 Q72 167 70 149 Q68 130 68 115 Q68 51 92 22 Q115 -6 158 -6 Q170 -6 183 -3 Q196 0 207 5 L220 85 Q193 84 181 95 Q169 105 169 134 Q169 152 173 179 L199 369 L315 481 Z" /><glyph glyph-name="" unicode="&#x160;" d="M40 121 Q88 51 136 22 Q185 -7 241 -6 Q340 -5 398 53 Q456 111 457 216 Q441 366 332 413 Q223 459 207 552 Q208 609 239 635 Q269 660 312 660 Q333 660 354 652 Q376 644 396 630 L389 531 L460 531 L496 683 Q462 715 417 734 Q373 754 319 754 Q220 753 163 697 Q106 642 105 543 Q120 399 227 355 Q334 312 349 204 Q348 148 319 118 Q290 88 247 88 Q204 89 170 116 Q136 144 109 191 L40 121 ZM483 949 L416 949 L348 861 L304 949 L236 949 L293 795 L382 795 L483 949 Z" /><glyph glyph-name="" unicode="&#x161;" d="M254 147 Q254 113 237 95 Q221 77 190 77 Q167 76 137 90 Q107 104 74 140 L25 68 Q70 21 112 6 Q153 -9 187 -8 Q262 -8 309 31 Q356 71 357 157 Q345 265 264 296 Q183 327 171 380 Q172 412 193 428 Q213 444 241 444 Q256 444 269 441 Q282 437 296 428 L292 366 L361 366 L381 483 Q347 504 311 516 Q275 527 237 527 Q151 525 111 481 Q71 437 71 370 Q82 265 163 232 Q243 200 254 147 L254 147 ZM402 739 L335 739 L267 651 L223 739 L155 739 L212 585 L301 585 L402 739 Z" /><glyph glyph-name="" unicode="&#x17d;" d="M4 48 L44 -11 Q65 9 83 17 Q101 24 122 24 Q159 21 209 3 Q258 -16 313 -19 Q349 -19 389 -8 Q428 3 458 24 L431 111 Q401 92 374 85 Q348 79 331 79 Q294 81 254 95 Q214 109 169 111 L168 115 L528 694 L518 748 L121 748 L106 656 L381 656 L4 48 ZM466 949 L399 949 L331 861 L287 949 L219 949 L276 795 L365 795 L466 949 Z" /><glyph glyph-name="" unicode="&#x17e;" d="M84 430 L284 430 L285 426 L19 56 L60 -11 Q78 8 95 16 Q112 24 132 24 Q160 21 203 3 Q246 -15 296 -18 Q327 -18 354 -7 Q381 3 404 24 L377 107 Q354 88 335 82 Q316 76 299 77 Q270 79 240 92 Q211 105 183 107 L182 111 L422 448 L410 519 L98 519 L84 430 ZM409 739 L342 739 L274 651 L230 739 L162 739 L219 585 L308 585 L409 739 Z" /><glyph glyph-name="" unicode="&#x2212;" d="M80 294 L483 294 L497 381 L94 381 L80 294 Z" /><glyph glyph-name="" unicode="&#x106;" d="M316 795 L398 795 L516 949 L407 949 L316 795 ZM292 88 Q215 90 182 151 Q148 212 149 314 Q150 449 205 552 Q261 655 362 660 Q391 660 415 649 Q439 639 460 623 L454 501 L525 501 L564 679 Q523 714 478 734 Q432 754 376 754 Q214 748 129 616 Q44 485 43 301 Q42 169 100 83 Q157 -3 281 -6 Q338 -7 397 26 Q456 58 502 135 L432 194 Q408 147 373 118 Q337 89 292 88 L292 88 Z" /><glyph glyph-name="" unicode="&#x10c;" d="M523 949 L456 949 L388 861 L344 949 L277 949 L333 795 L423 795 L523 949 ZM292 88 Q215 90 182 151 Q148 212 149 314 Q150 449 205 552 Q261 655 362 660 Q391 660 415 649 Q439 639 460 623 L454 501 L525 501 L564 679 Q523 714 478 734 Q432 754 376 754 Q214 748 129 616 Q44 485 43 301 Q42 169 100 83 Q157 -3 281 -6 Q338 -7 397 26 Q456 58 502 135 L432 194 Q408 147 373 118 Q337 89 292 88 L292 88 Z" /><glyph glyph-name="" unicode="&#x110;" d="M251 0 Q410 6 497 134 Q583 263 584 447 Q584 577 529 661 Q473 745 359 748 L161 748 L116 422 L58 422 L43 329 L102 329 L57 0 L251 0 ZM177 95 L207 329 L327 329 L341 422 L221 422 L251 653 L336 653 Q409 651 443 591 Q478 531 478 433 Q477 290 419 194 Q361 99 257 95 L177 95 Z" /><glyph glyph-name="" unicode="&#x107;" d="M238 585 L321 585 L439 739 L329 739 L238 585 ZM283 525 Q177 523 111 444 Q45 364 43 226 Q44 115 92 55 Q141 -5 225 -6 Q264 -6 304 9 Q344 24 385 60 L345 137 Q314 110 286 100 Q258 89 236 89 Q195 89 169 124 Q144 159 143 230 Q144 321 181 374 Q217 428 272 429 Q291 429 305 424 Q319 419 331 411 L327 315 L392 315 L419 474 Q392 497 360 511 Q329 525 283 525 L283 525 Z" /><glyph glyph-name="" unicode="&#x10d;" d="M427 739 L359 739 L291 651 L247 739 L180 739 L236 585 L326 585 L427 739 ZM419 474 Q392 497 360 511 Q329 525 283 525 Q177 523 111 444 Q45 364 43 226 Q44 115 92 55 Q141 -5 225 -6 Q264 -6 304 9 Q344 24 385 60 L345 137 Q314 110 286 100 Q258 89 236 89 Q195 89 169 124 Q144 159 143 230 Q144 321 181 374 Q217 428 272 429 Q291 429 305 424 Q319 419 331 411 L327 315 L394 315 L419 474 Z" /><glyph glyph-name="" unicode="&#x111;" d="M389 617 L372 486 Q351 506 325 515 Q299 525 272 525 Q173 523 111 437 Q48 351 46 203 Q47 104 86 49 Q124 -5 188 -6 Q224 -6 261 15 Q298 35 327 71 L331 71 Q339 32 360 13 Q382 -6 415 -6 Q427 -6 439 -3 Q452 0 463 5 L476 85 Q449 84 437 95 Q425 105 425 134 Q425 143 426 155 Q427 167 429 179 L488 617 L549 617 L559 683 L498 683 L513 795 L415 791 L399 683 L275 683 L268 626 L389 617 ZM147 222 Q149 318 182 374 Q216 430 264 431 Q295 431 316 421 Q337 410 356 386 L329 171 Q307 134 280 112 Q254 89 222 88 Q188 88 168 122 Q147 156 147 222 L147 222 Z" /><glyph glyph-name="" unicode="&#x403;" d="M496 653 L512 748 L147 748 L43 0 L147 0 L236 653 L496 653 ZM288 795 L370 795 L488 949 L378 949 L288 795 Z" /><glyph glyph-name="" unicode="&#x405;" d="M24 121 Q72 51 120 22 Q169 -7 225 -6 Q324 -5 382 53 Q440 111 441 216 Q425 366 316 413 Q207 459 191 552 Q192 609 223 635 Q253 660 296 660 Q317 660 338 652 Q360 644 380 630 L373 531 L444 531 L480 683 Q446 715 401 734 Q357 754 303 754 Q204 753 147 697 Q90 642 89 543 Q104 399 211 355 Q318 312 333 204 Q332 148 303 118 Q274 88 231 88 Q188 89 154 116 Q120 144 93 191 L24 121 Z" /><glyph glyph-name="" unicode="&#x408;" d="M16 167 Q31 72 77 32 Q123 -7 184 -6 Q273 -3 324 71 Q375 145 390 259 L457 748 L353 748 L282 248 Q274 183 251 139 Q228 94 179 92 Q148 92 130 114 Q112 136 103 186 L16 167 Z" /><glyph glyph-name="" unicode="&#x409;" d="M603 341 Q641 341 664 314 Q686 287 687 237 Q687 179 658 138 Q629 97 571 95 L496 95 L528 341 L603 341 ZM330 653 L465 653 L376 0 L569 0 Q669 1 731 69 Q792 136 794 254 Q793 338 748 386 Q703 434 621 435 L543 435 L585 748 L146 748 L130 680 L231 662 L169 372 Q137 222 94 153 Q51 84 -5 85 L1 -6 Q8 -9 19 -10 Q30 -12 35 -12 Q118 -10 173 82 Q227 174 262 338 L330 653 Z" /><glyph glyph-name="" unicode="&#x40a;" d="M499 95 L530 341 L607 341 Q645 341 668 314 Q690 287 691 237 Q691 178 662 138 Q633 97 574 95 L499 95 ZM545 435 L588 748 L484 748 L441 435 L210 435 L252 748 L148 748 L43 0 L148 0 L195 341 L426 341 L379 0 L572 0 Q672 1 734 69 Q796 136 798 254 Q797 338 752 386 Q706 434 624 435 L545 435 Z" /><glyph glyph-name="" unicode="&#x40c;" d="M332 795 L414 795 L533 949 L423 949 L332 795 ZM283 432 L208 432 L252 748 L148 748 L43 0 L147 0 L195 343 L279 343 Q326 274 359 139 Q393 4 475 -11 Q486 -11 494 -9 Q503 -7 510 -4 L513 85 Q459 96 437 207 Q416 318 363 396 L489 615 Q507 647 522 657 Q537 666 561 665 L574 746 Q566 750 553 753 Q540 756 522 756 Q489 755 466 735 Q443 715 426 684 L283 432 Z" /><glyph glyph-name="" unicode="&#x40f;" d="M306 -151 L328 0 L519 0 L624 748 L519 748 L430 95 L163 95 L252 748 L148 748 L43 0 L232 0 L210 -159 L306 -151 Z" /><glyph glyph-name="" unicode="&#x410;" d="M392 653 L477 653 L431 296 L241 296 L392 653 ZM206 748 L189 680 L296 661 L-10 0 L102 -6 L193 205 L415 205 L387 0 L492 0 L597 748 L206 748 Z" /><glyph glyph-name="" unicode="&#x411;" d="M43 0 L280 0 Q384 2 446 76 Q508 149 510 267 Q509 354 466 405 Q423 456 344 457 L212 457 L236 653 L505 653 L521 748 L148 748 L43 0 ZM197 363 L316 363 Q358 362 380 332 Q403 302 403 250 Q403 190 373 144 Q343 98 282 95 L162 95 L197 363 Z" /><glyph glyph-name="" unicode="&#x412;" d="M210 435 L237 656 L363 656 Q399 655 418 628 Q436 602 436 558 Q434 504 406 470 Q378 436 345 435 L210 435 ZM332 341 Q368 340 391 308 Q413 276 414 231 Q415 186 388 141 Q360 95 287 92 L163 92 L195 341 L332 341 ZM541 586 Q541 656 501 701 Q461 746 386 748 L148 748 L43 0 L286 0 Q396 2 457 69 Q517 135 518 236 Q517 290 492 332 Q467 373 429 388 L430 392 Q487 424 514 477 Q541 530 541 586 L541 586 Z" /><glyph glyph-name="" unicode="&#x413;" d="M496 653 L512 748 L148 748 L43 0 L148 0 L236 653 L496 653 Z" /><glyph glyph-name="" unicode="&#x414;" d="M-30 -159 L62 -151 L88 0 L438 0 L421 -159 L512 -151 L549 95 L486 95 L576 748 L155 748 L138 680 L239 662 Q201 471 160 329 Q118 187 67 95 L8 95 L-30 -159 ZM335 653 L458 653 L384 95 L178 95 Q220 181 259 325 Q298 469 335 653 L335 653 Z" /><glyph glyph-name="" unicode="&#x415;" d="M150 748 L46 0 L447 0 L463 95 L164 95 L198 343 L456 343 L471 435 L213 435 L243 653 L531 653 L546 748 L150 748 Z" /><glyph glyph-name="" unicode="&#x416;" d="M545 432 L480 432 L524 748 L427 748 L382 432 L319 432 L246 684 Q238 715 222 735 Q206 755 173 756 Q155 756 141 753 Q126 750 117 746 L104 665 Q128 666 143 658 Q158 649 167 617 L233 398 Q162 323 115 210 Q68 97 6 85 L-8 -3 Q0 -6 13 -8 Q26 -11 41 -11 Q121 4 180 137 Q238 270 297 343 L368 343 L322 0 L420 0 L467 343 L542 343 Q589 274 624 139 Q658 4 741 -11 Q764 -10 777 -4 L780 85 Q724 96 702 207 Q680 318 625 396 L745 615 Q763 647 779 657 Q795 666 818 665 L830 746 Q823 750 810 753 Q797 756 779 756 Q745 755 722 735 Q700 715 683 684 L545 432 Z" /><glyph glyph-name="" unicode="&#x417;" d="M178 -6 Q303 -4 365 64 Q426 131 426 233 Q425 290 401 331 Q376 371 337 387 L338 391 Q392 416 423 470 Q454 524 455 592 Q454 661 411 706 Q367 752 289 754 Q234 754 181 735 Q128 717 87 683 L79 531 L150 531 L170 629 Q192 644 216 652 Q240 660 268 660 Q304 659 325 635 Q346 610 346 570 Q344 509 314 470 Q284 431 243 430 L185 430 L170 341 L238 341 Q275 340 298 312 Q320 283 321 234 Q322 178 292 134 Q261 90 191 87 Q155 87 119 109 Q84 131 53 179 L-5 97 Q30 52 75 23 Q120 -5 178 -6 L178 -6 Z" /><glyph glyph-name="" unicode="&#x418;" d="M485 506 L489 505 L416 0 L521 0 L625 748 L571 748 L185 231 L182 232 L254 748 L149 748 L45 0 L102 0 L485 506 Z" /><glyph glyph-name="" unicode="&#x41a;" d="M283 432 L208 432 L252 748 L148 748 L43 0 L147 0 L195 343 L279 343 Q326 274 359 139 Q393 4 475 -11 Q486 -11 494 -9 Q503 -7 510 -4 L513 85 Q459 96 437 207 Q416 318 363 396 L489 615 Q507 647 522 657 Q537 666 561 665 L574 746 Q566 750 553 753 Q540 756 522 756 Q489 755 466 735 Q443 715 426 684 L283 432 Z" /><glyph glyph-name="" unicode="&#x41b;" d="M330 653 L465 653 L376 0 L481 0 L586 748 L146 748 L130 680 L231 662 L169 372 Q137 222 94 153 Q51 84 -5 85 L1 -6 Q8 -9 19 -10 Q30 -12 35 -12 Q118 -10 173 82 Q227 174 262 338 L330 653 Z" /><glyph glyph-name="" unicode="&#x41c;" d="M365 195 L564 501 L567 500 L492 -1 L596 -1 L701 748 L627 748 L365 328 L221 748 L148 748 L43 -1 L148 -1 L213 504 L216 505 L320 195 L365 195 Z" /><glyph glyph-name="" unicode="&#x41d;" d="M148 0 L195 341 L461 341 L415 0 L519 0 L624 748 L519 748 L476 435 L210 435 L252 748 L148 748 L43 0 L148 0 Z" /><glyph glyph-name="" unicode="&#x41e;" d="M378 754 Q221 749 133 619 Q45 489 43 300 Q43 166 101 81 Q158 -3 272 -6 Q429 -1 518 129 Q606 259 607 448 Q607 582 550 667 Q493 751 378 754 L378 754 ZM367 658 Q437 656 469 592 Q501 527 500 429 Q499 296 441 195 Q383 94 283 89 Q213 91 181 156 Q150 221 150 319 Q151 452 209 552 Q267 653 367 658 L367 658 Z" /><glyph glyph-name="" unicode="&#x41f;" d="M148 0 L237 653 L503 653 L415 0 L519 0 L624 748 L148 748 L43 0 L148 0 Z" /><glyph glyph-name="" unicode="&#x420;" d="M148 748 L43 0 L148 0 L182 246 L298 246 Q396 249 468 331 Q540 412 543 534 Q542 627 494 686 Q447 746 369 748 L148 748 ZM347 656 Q389 655 413 616 Q437 578 437 520 Q435 443 396 391 Q356 339 303 337 L196 337 L237 656 L347 656 Z" /><glyph glyph-name="" unicode="&#x421;" d="M292 88 Q215 90 182 151 Q148 212 149 314 Q150 449 205 552 Q261 655 362 660 Q391 660 415 649 Q439 639 460 623 L454 501 L525 501 L564 679 Q523 714 478 734 Q432 754 376 754 Q214 748 129 616 Q44 485 43 301 Q42 169 100 83 Q157 -3 281 -6 Q338 -7 397 26 Q456 58 502 135 L432 194 Q408 147 373 118 Q337 89 292 88 L292 88 Z" /><glyph glyph-name="" unicode="&#x422;" d="M526 748 L80 748 L64 653 L235 653 L146 0 L251 0 L339 653 L511 653 L526 748 Z" /><glyph glyph-name="" unicode="&#x423;" d="M56 -5 Q64 -8 75 -10 Q85 -12 91 -12 Q180 -14 308 168 Q436 351 587 748 L482 754 Q430 613 381 502 Q333 391 282 296 L174 754 L65 748 L207 204 Q165 147 124 116 Q84 85 50 85 L56 -5 Z" /><glyph glyph-name="" unicode="&#x424;" d="M379 0 L390 83 L454 83 Q560 87 638 182 Q716 278 720 421 Q719 528 668 598 Q618 667 536 669 L472 669 L484 748 L383 748 L372 669 L309 669 Q203 666 125 574 Q47 483 43 341 Q44 232 95 159 Q145 86 227 83 L290 83 L278 0 L379 0 ZM512 571 Q561 569 589 524 Q617 478 618 407 Q616 312 570 248 Q524 184 460 181 L406 181 L457 571 L512 571 ZM251 181 Q202 183 173 229 Q145 274 144 345 Q146 439 192 504 Q238 568 303 571 L356 571 L305 181 L251 181 Z" /><glyph glyph-name="" unicode="&#x425;" d="M459 754 Q427 684 389 612 Q351 540 311 475 L226 754 L109 748 L238 395 Q156 285 90 186 Q24 87 -21 0 L99 -6 Q129 55 174 134 Q219 213 282 304 L379 -6 L497 0 L356 381 Q427 479 479 569 Q531 659 574 748 L459 754 Z" /><glyph glyph-name="" unicode="&#x426;" d="M520 -151 L556 95 L494 95 L583 748 L478 748 L389 95 L163 95 L252 748 L148 748 L43 0 L451 0 L429 -159 L520 -151 Z" /><glyph glyph-name="" unicode="&#x427;" d="M383 363 Q352 352 326 347 Q301 342 271 342 Q233 342 207 369 Q182 395 181 448 Q181 466 182 480 Q183 494 186 514 L220 748 L115 748 L79 497 Q77 484 76 468 Q75 452 75 442 Q75 362 119 305 Q162 248 245 245 Q279 245 308 250 Q337 255 366 265 L330 0 L435 0 L540 748 L435 748 L383 363 Z" /><glyph glyph-name="" unicode="&#x428;" d="M43 0 L711 0 L815 748 L710 748 L621 95 L443 95 L532 748 L431 748 L342 95 L163 95 L252 748 L148 748 L43 0 Z" /><glyph glyph-name="" unicode="&#x430;" d="M419 -6 Q431 -6 443 -3 Q456 0 467 5 L480 85 Q453 84 441 95 Q429 105 429 134 Q429 143 430 155 Q431 167 432 179 L473 481 L384 481 Q363 503 334 514 Q305 525 275 525 Q176 523 114 437 Q52 351 50 203 Q51 104 89 49 Q127 -5 191 -6 Q228 -6 265 15 Q302 35 330 71 L334 71 Q342 32 364 13 Q386 -6 419 -6 L419 -6 ZM151 222 Q153 318 186 373 Q220 428 268 429 Q299 429 320 419 Q341 408 360 385 L333 173 Q311 136 284 113 Q257 90 226 89 Q192 89 172 123 Q151 156 151 222 L151 222 Z" /><glyph glyph-name="" unicode="&#x431;" d="M325 664 Q368 679 398 687 Q428 695 475 712 L469 796 Q414 778 381 769 Q348 760 317 750 Q183 702 117 558 Q52 414 52 227 Q53 113 99 54 Q144 -6 222 -6 Q326 -4 393 80 Q460 164 462 311 Q461 410 419 465 Q377 519 300 520 Q277 519 242 504 Q206 489 184 465 L181 467 Q200 544 237 594 Q275 644 325 664 L325 664 ZM281 429 Q322 428 343 393 Q365 358 365 294 Q364 198 328 141 Q292 85 236 84 Q196 84 173 121 Q149 157 149 224 Q149 261 152 292 Q154 324 161 360 Q186 387 218 408 Q250 428 281 429 L281 429 Z" /><glyph glyph-name="" unicode="&#x432;" d="M443 404 Q444 454 408 490 Q372 526 289 528 Q188 526 121 440 Q54 355 52 208 Q53 106 101 49 Q149 -8 231 -9 Q318 -8 372 39 Q427 87 429 174 Q429 211 414 237 Q399 263 374 277 L375 281 Q407 301 425 333 Q443 365 443 404 L443 404 ZM335 175 Q334 131 307 108 Q280 84 240 84 Q212 83 183 110 Q155 137 153 211 Q177 211 217 217 Q256 224 298 237 Q311 232 323 216 Q334 200 335 175 L335 175 ZM281 440 Q308 440 324 423 Q339 407 339 381 Q332 314 267 295 Q201 276 160 278 Q171 356 206 398 Q240 440 281 440 L281 440 Z" /><glyph glyph-name="" unicode="&#x433;" d="M252 400 Q239 354 149 303 Q58 252 45 123 Q47 62 85 28 Q122 -6 173 -6 Q232 -6 270 8 Q307 21 340 45 L312 132 Q287 115 258 102 Q228 90 194 89 Q174 90 162 105 Q151 119 151 141 Q164 219 254 267 Q343 314 356 419 Q355 472 321 499 Q286 527 232 527 Q203 527 168 514 Q133 501 109 481 L135 406 Q154 422 172 431 Q190 441 207 441 Q228 441 240 431 Q252 422 252 400 L252 400 ZM389 632 L401 702 L173 702 L162 632 L389 632 Z" /><glyph glyph-name="" unicode="&#x434;" d="M150 222 Q152 318 186 373 Q220 428 268 429 Q297 429 318 417 Q339 406 354 384 L327 173 Q307 136 281 113 Q254 90 224 89 Q190 89 170 124 Q150 158 150 222 L150 222 ZM305 18 Q292 -68 256 -95 Q219 -121 185 -119 Q158 -119 132 -110 Q106 -102 82 -86 L54 -172 Q81 -191 112 -202 Q144 -214 182 -214 Q263 -216 324 -160 Q385 -105 406 32 L467 481 L378 481 Q357 503 330 514 Q303 525 275 525 Q176 523 114 437 Q52 351 50 203 Q51 104 89 49 Q127 -5 191 -6 Q221 -6 250 11 Q280 28 305 56 L309 56 L305 18 Z" /><glyph glyph-name="" unicode="&#x435;" d="M439 384 Q439 445 402 485 Q364 525 287 527 Q186 525 119 440 Q52 355 50 216 Q51 110 98 53 Q144 -5 227 -6 Q287 -6 325 7 Q364 20 399 45 L369 131 Q341 113 310 101 Q279 89 237 89 Q203 87 179 112 Q155 137 154 209 Q249 207 341 241 Q432 275 439 384 L439 384 ZM278 437 Q306 436 321 419 Q336 401 336 373 Q335 326 288 302 Q240 278 157 276 Q167 356 201 396 Q235 437 278 437 L278 437 Z" /><glyph glyph-name="" unicode="&#x436;" d="M160 294 Q116 224 94 156 Q71 87 16 82 L9 3 Q19 -1 32 -3 Q45 -6 59 -6 Q124 1 155 86 Q187 170 230 243 L304 243 L270 0 L368 0 L402 243 L474 243 Q505 174 525 88 Q545 2 608 -6 Q619 -6 632 -3 Q646 0 656 5 L660 85 Q607 90 596 154 Q585 218 552 282 L632 413 Q643 432 657 440 Q671 448 694 448 L702 519 Q693 524 680 527 Q667 530 655 530 Q621 530 597 512 Q573 495 558 466 L476 312 L412 312 L441 519 L343 519 L314 312 L244 312 L204 457 Q194 492 173 511 Q152 530 117 530 Q106 530 92 527 Q78 524 67 519 L61 451 Q85 452 100 444 Q116 435 124 409 L160 294 Z" /><glyph glyph-name="" unicode="&#x437;" d="M227 442 Q260 442 277 427 Q293 411 293 382 Q293 350 270 325 Q247 300 207 299 L169 299 L158 239 L196 239 Q237 238 256 217 Q275 196 275 167 Q273 124 244 100 Q215 76 177 76 Q147 76 119 86 Q91 96 63 118 L22 43 Q50 21 90 7 Q130 -8 173 -9 Q267 -8 321 38 Q375 84 376 169 Q376 207 359 234 Q342 261 313 275 L313 279 Q351 299 372 332 Q393 366 393 410 Q393 459 356 492 Q318 526 247 527 Q207 527 164 516 Q120 504 83 484 L75 366 L143 366 L162 427 Q176 435 193 439 Q209 442 227 442 L227 442 Z" /><glyph glyph-name="" unicode="&#x438;" d="M214 519 L115 519 L75 228 Q72 207 71 189 Q70 171 70 155 Q73 60 113 26 Q153 -8 198 -6 Q235 -6 272 15 Q309 35 337 71 L341 71 Q349 32 371 13 Q393 -6 425 -6 Q437 -6 450 -3 Q463 0 474 5 L487 85 Q460 84 448 95 Q436 105 436 134 Q436 143 437 155 Q438 167 440 179 L485 519 L387 519 L339 172 Q318 137 291 113 Q264 89 232 88 Q210 86 191 103 Q172 121 171 183 Q171 192 171 202 Q172 212 174 223 L214 519 Z" /><glyph glyph-name="" unicode="&#x43a;" d="M420 413 Q432 432 448 440 Q464 448 491 448 L488 519 Q478 524 465 527 Q452 530 440 530 Q406 530 384 512 Q361 495 346 466 L264 312 L199 312 L228 519 L129 519 L56 0 L155 0 L189 243 L260 243 Q294 172 314 87 Q333 2 401 -6 Q413 -6 426 -3 Q439 0 449 5 L458 85 Q400 90 390 154 Q380 217 344 282 L420 413 Z" /><glyph glyph-name="" unicode="&#x43b;" d="M263 430 L371 430 L313 0 L412 0 L485 519 L122 519 L112 461 L171 444 L127 224 Q112 150 85 116 Q57 82 10 83 L13 3 Q25 -3 39 -6 Q53 -9 61 -9 Q118 -6 158 54 Q198 114 216 200 L263 430 Z" /><glyph glyph-name="" unicode="&#x43c;" d="M612 525 L494 519 L348 223 L344 223 L298 525 L135 519 L125 461 L185 446 L108 183 Q95 138 71 112 Q47 87 12 86 L16 3 Q27 -3 42 -6 Q57 -9 65 -9 Q112 -6 146 41 Q180 88 196 148 L245 335 L250 335 L290 45 L337 45 L482 333 L486 333 L464 153 Q462 135 461 123 Q460 111 460 98 Q461 42 484 18 Q508 -7 546 -6 Q559 -6 573 -3 Q588 0 599 5 L613 85 Q585 84 573 95 Q561 105 561 134 Q562 152 565 179 L612 525 Z" /><glyph glyph-name="" unicode="&#x43d;" d="M228 519 L129 519 L56 0 L155 0 L189 248 L360 248 L352 181 Q350 162 348 145 Q347 129 347 115 Q347 51 371 22 Q394 -6 438 -6 Q450 -6 462 -3 Q475 0 486 5 L500 85 Q473 84 461 95 Q448 105 448 134 Q448 143 449 154 Q450 165 452 179 L497 519 L399 519 L372 322 L201 322 L228 519 Z" /><glyph glyph-name="" unicode="&#x43e;" d="M297 525 Q190 523 121 440 Q52 356 50 208 Q51 111 95 53 Q139 -5 218 -6 Q325 -4 394 81 Q464 167 466 314 Q465 411 421 468 Q376 524 297 525 L297 525 ZM284 435 Q324 434 345 399 Q366 363 366 300 Q365 203 327 144 Q289 86 232 84 Q194 84 172 118 Q150 152 150 217 Q151 315 189 374 Q227 433 284 435 L284 435 Z" /><glyph glyph-name="" unicode="&#x43f;" d="M472 632 L484 702 L162 702 L150 632 L472 632 ZM214 519 L115 519 L75 228 Q72 207 71 189 Q70 171 70 155 Q73 60 113 26 Q153 -8 198 -6 Q235 -6 272 15 Q309 35 337 71 L341 71 Q349 32 371 13 Q393 -6 425 -6 Q437 -6 450 -3 Q463 0 474 5 L487 85 Q460 84 448 95 Q436 105 436 134 Q436 143 437 155 Q438 167 440 179 L485 519 L387 519 L339 172 Q318 137 291 113 Q264 89 232 88 Q210 86 191 103 Q172 121 171 183 Q171 201 174 223 L214 519 Z" /><glyph glyph-name="" unicode="&#x440;" d="M130 519 L27 -214 L127 -208 L163 50 L166 51 Q185 24 208 9 Q231 -6 256 -6 Q357 -4 421 81 Q484 167 486 315 Q485 414 446 469 Q406 524 340 525 Q313 525 282 507 Q251 488 218 450 L214 450 L223 519 L130 519 ZM303 431 Q341 430 363 395 Q386 359 386 296 Q384 200 349 145 Q313 89 263 88 Q237 88 216 107 Q195 125 179 155 L204 350 Q226 389 252 410 Q278 431 303 431 L303 431 Z" /><glyph glyph-name="" unicode="&#x441;" d="M290 525 Q184 523 118 444 Q52 364 50 226 Q51 115 100 55 Q148 -5 233 -6 Q271 -6 311 9 Q351 24 392 60 L352 137 Q321 110 293 100 Q265 89 243 89 Q201 89 176 124 Q151 159 150 230 Q151 321 188 374 Q224 428 279 429 Q298 429 312 424 Q326 419 338 411 L334 315 L399 315 L426 474 Q399 497 367 511 Q336 525 290 525 L290 525 Z" /><glyph glyph-name="" unicode="&#x442;" d="M703 632 L715 702 L162 702 L149 632 L703 632 ZM215 519 L115 519 L75 228 Q72 207 71 189 Q70 171 70 155 Q73 60 113 26 Q153 -8 198 -6 Q230 -6 265 15 Q300 37 333 84 L337 84 Q354 32 386 12 Q419 -7 453 -6 Q485 -6 518 15 Q550 35 576 71 L580 71 Q597 -6 664 -6 Q676 -6 689 -3 Q702 0 713 5 L726 85 Q699 84 687 95 Q675 105 675 134 Q675 143 676 155 Q677 167 679 179 L724 519 L625 519 L578 172 Q559 137 535 113 Q510 90 482 89 Q462 87 444 104 Q426 121 425 183 Q425 201 428 223 L470 519 L371 519 L332 235 Q330 216 328 200 Q327 185 327 173 Q307 134 280 112 Q254 89 224 89 Q206 87 189 104 Q172 121 171 183 Q171 192 171 202 Q172 212 174 223 L215 519 Z" /><glyph glyph-name="" unicode="&#x443;" d="M454 421 Q453 479 431 503 Q409 528 375 527 Q364 527 352 524 Q340 521 329 516 L316 435 Q331 436 342 428 Q352 420 352 395 Q349 347 312 254 Q274 161 238 96 L160 525 L54 519 L162 0 Q121 -67 83 -97 Q44 -127 0 -127 L5 -202 Q14 -208 25 -211 Q36 -214 45 -214 Q162 -192 302 32 Q441 257 454 421 L454 421 Z" /><glyph glyph-name="" unicode="&#x444;" d="M493 795 L393 791 L349 475 L345 475 Q326 498 307 512 Q287 525 263 525 Q168 523 110 434 Q52 345 50 196 Q51 101 87 47 Q123 -6 189 -7 Q211 -7 235 7 Q260 20 284 44 L288 44 L254 -208 L352 -208 L387 44 L391 44 Q410 20 431 7 Q451 -7 473 -7 Q569 -5 627 85 Q685 174 686 322 Q685 418 649 471 Q613 524 548 525 Q524 525 500 512 Q476 498 452 475 L448 475 L493 795 ZM152 213 Q153 309 183 369 Q213 428 259 430 Q284 430 301 414 Q318 399 333 373 L304 145 Q282 119 260 104 Q237 89 211 89 Q182 90 167 122 Q152 155 152 213 L152 213 ZM584 305 Q583 209 554 150 Q524 91 477 89 Q452 89 435 104 Q418 119 403 145 L432 373 Q454 399 476 414 Q499 430 525 430 Q554 429 569 396 Q584 363 584 305 L584 305 Z" /><glyph glyph-name="" unicode="&#x445;" d="M296 -6 L408 0 L298 266 Q347 320 387 378 Q426 435 459 519 L352 525 Q327 462 303 418 Q278 375 250 340 L190 525 L84 519 L181 277 Q137 230 89 160 Q41 91 7 0 L110 -6 Q137 62 166 111 Q196 160 228 200 L296 -6 Z" /><glyph glyph-name="" unicode="&#x446;" d="M343 -185 L431 -179 L497 85 Q459 84 440 96 Q422 108 422 146 Q422 164 425 187 L469 519 L371 519 L323 172 Q302 137 275 113 Q248 89 216 88 Q194 86 175 103 Q156 121 155 183 Q155 192 155 202 Q156 212 158 223 L198 519 L98 519 L59 228 Q56 207 55 189 Q54 171 54 155 Q57 60 97 26 Q137 -8 182 -6 Q218 -6 256 14 Q293 34 328 74 L332 74 Q340 42 354 24 Q368 6 389 2 L343 -185 Z" /><glyph glyph-name="" unicode="&#x447;" d="M69 377 Q67 361 66 347 Q65 332 65 319 Q67 235 102 200 Q136 164 186 165 Q213 165 238 174 Q263 182 291 198 L265 0 L364 0 L437 519 L337 519 L305 281 Q281 268 262 262 Q242 256 225 256 Q196 255 178 272 Q160 289 159 332 Q159 340 160 352 Q161 365 163 377 L183 519 L89 519 L69 377 Z" /><glyph glyph-name="" unicode="&#x448;" d="M215 519 L116 519 L76 228 Q70 186 70 155 Q73 60 113 26 Q153 -8 198 -6 Q230 -6 265 15 Q300 37 333 84 L337 84 Q354 32 386 12 Q419 -7 453 -6 Q485 -6 518 15 Q551 35 576 71 L580 71 Q588 32 609 13 Q631 -6 665 -6 Q677 -6 689 -3 Q702 0 713 5 L726 85 Q699 84 687 95 Q675 105 675 134 Q675 143 676 155 Q677 167 679 179 L724 519 L626 519 L579 172 Q560 137 535 113 Q511 90 482 89 Q462 87 444 104 Q426 121 425 183 Q425 201 428 223 L470 519 L371 519 L333 235 Q327 197 327 173 Q307 134 281 112 Q254 89 225 89 Q207 87 189 104 Q172 121 171 183 Q171 202 174 223 L215 519 Z" /><glyph glyph-name="" unicode="&#x453;" d="M253 400 Q240 354 149 303 Q58 252 45 123 Q47 62 85 28 Q124 -6 175 -6 Q234 -6 271 8 Q308 21 341 45 L313 132 Q288 115 259 102 Q229 90 195 89 Q175 90 164 105 Q152 119 152 141 Q165 219 255 267 Q344 314 357 419 Q356 472 322 499 Q287 527 233 527 Q203 527 168 514 Q134 501 109 481 L135 406 Q155 422 173 431 Q191 441 208 441 Q229 441 241 431 Q253 422 253 400 L253 400 ZM188 585 L270 585 L388 739 L279 739 L188 585 Z" /><glyph glyph-name="" unicode="&#x455;" d="M253 147 Q253 113 236 96 Q219 78 189 78 Q166 77 136 92 Q106 106 73 141 L24 68 Q69 21 110 6 Q151 -9 186 -8 Q261 -8 308 31 Q355 71 356 157 Q344 265 263 296 Q181 327 169 380 Q170 412 191 427 Q212 442 240 442 Q255 442 267 439 Q280 435 294 426 L290 366 L360 366 L380 483 Q346 504 310 516 Q274 527 236 527 Q150 525 110 481 Q70 437 70 370 Q81 265 162 232 Q242 200 253 147 L253 147 Z" /><glyph glyph-name="" unicode="&#x458;" d="M75 -18 Q65 -83 34 -104 Q3 -125 -34 -123 L-30 -205 Q-19 -209 -8 -212 Q4 -214 14 -214 Q61 -215 109 -171 Q156 -127 173 -22 L248 519 L148 519 L75 -18 ZM153 677 Q154 650 168 632 Q183 615 206 614 Q239 615 261 639 Q282 663 283 698 Q282 725 267 743 Q252 760 229 761 Q197 760 175 736 Q154 712 153 677 L153 677 Z" /><glyph glyph-name="" unicode="&#x459;" d="M263 430 L364 430 L333 178 Q328 144 328 115 Q328 54 353 24 Q378 -6 432 -6 Q539 -4 591 51 Q643 106 643 188 Q643 249 613 285 Q583 321 530 322 L451 322 L478 519 L122 519 L112 461 L171 444 L127 224 Q112 150 85 116 Q57 82 10 83 L13 3 Q25 -3 39 -6 Q53 -9 61 -9 Q118 -6 158 54 Q198 114 216 200 L263 430 ZM502 248 Q526 247 539 227 Q552 207 552 174 Q551 127 526 102 Q502 77 469 77 Q447 76 437 87 Q426 97 426 125 Q426 131 427 140 Q427 148 428 157 L441 248 L502 248 Z" /><glyph glyph-name="" unicode="&#x45a;" d="M450 322 L477 519 L378 519 L351 322 L201 322 L228 519 L129 519 L56 0 L155 0 L189 248 L339 248 L331 177 Q329 160 327 145 Q326 129 326 115 Q326 54 351 24 Q377 -6 431 -6 Q538 -4 590 51 Q642 106 642 188 Q641 249 612 285 Q582 321 530 322 L450 322 ZM468 77 Q446 76 435 87 Q424 97 424 125 Q424 131 425 140 Q426 148 427 157 L439 248 L501 248 Q525 247 538 227 Q550 207 550 174 Q549 127 524 102 Q500 77 468 77 L468 77 Z" /><glyph glyph-name="" unicode="&#x45c;" d="M268 585 L350 585 L468 739 L358 739 L268 585 ZM420 413 Q432 432 448 440 Q464 448 491 448 L488 519 Q478 524 465 527 Q452 530 440 530 Q406 530 384 512 Q361 495 346 466 L264 312 L199 312 L228 519 L129 519 L56 0 L155 0 L189 243 L260 243 Q294 172 314 87 Q333 2 401 -6 Q413 -6 426 -3 Q439 0 449 5 L458 85 Q400 90 390 154 Q380 217 344 282 L420 413 Z" /><glyph glyph-name="" unicode="&#x45f;" d="M173 -214 L267 -209 L284 -44 L203 -63 L173 -214 ZM215 519 L115 519 L76 228 Q70 186 70 155 Q73 60 113 26 Q153 -8 198 -6 Q235 -6 272 15 Q309 35 338 71 L342 71 Q350 32 372 13 Q393 -6 426 -6 Q438 -6 451 -3 Q464 0 475 5 L488 85 Q461 84 449 95 Q436 105 436 134 Q436 143 437 155 Q438 167 440 179 L486 519 L387 519 L339 172 Q319 137 292 113 Q265 89 233 88 Q211 86 192 103 Q172 121 171 183 Q171 202 174 223 L215 519 Z" /><glyph glyph-name="" unicode="¤" d="M177 329 Q179 407 219 460 Q259 514 313 516 Q355 515 381 476 Q406 437 407 378 Q405 300 365 247 Q325 194 271 192 Q229 193 203 232 Q178 270 177 329 L177 329 ZM95 78 L158 149 Q178 128 202 116 Q227 104 257 104 Q286 104 314 116 Q341 127 367 149 L411 78 L473 139 L429 210 Q455 249 470 295 Q484 340 484 392 Q484 420 480 448 Q476 476 468 497 L533 569 L489 630 L426 558 Q406 580 381 592 Q357 605 328 605 Q297 605 269 592 Q241 580 216 558 L173 630 L111 569 L155 497 Q129 457 115 413 Q100 368 100 316 Q100 287 104 259 Q108 231 116 210 L52 139 L95 78 Z" /><glyph glyph-name="" unicode="&#x400;" d="M354 949 L244 949 L317 795 L400 795 L354 949 ZM150 748 L46 0 L447 0 L463 95 L164 95 L198 343 L456 343 L471 435 L213 435 L243 653 L531 653 L546 748 L150 748 Z" /><glyph glyph-name="" unicode="&#x40d;" d="M485 506 L489 505 L416 0 L521 0 L625 748 L571 748 L185 231 L182 232 L254 748 L149 748 L45 0 L102 0 L485 506 ZM415 950 L306 950 L379 796 L461 796 L415 950 Z" /><glyph glyph-name="" unicode="&#x450;" d="M293 739 L183 739 L257 585 L339 585 L293 739 ZM434 384 Q434 445 397 484 Q359 524 282 525 Q181 523 115 439 Q48 354 46 208 Q47 106 93 50 Q139 -5 221 -6 Q270 -6 310 7 Q351 20 387 45 L368 122 Q337 102 304 91 Q270 79 235 79 Q193 77 170 105 Q146 133 146 209 Q241 206 334 240 Q427 274 434 384 L434 384 ZM275 440 Q302 439 318 422 Q333 404 333 376 Q332 329 284 305 Q237 281 154 279 Q164 359 198 399 Q232 440 275 440 L275 440 Z" /><glyph glyph-name="" unicode="&#x45d;" d="M299 739 L188 739 L262 585 L345 585 L299 739 ZM214 519 L115 519 L75 228 Q72 207 71 189 Q70 171 70 155 Q73 60 113 26 Q153 -8 198 -6 Q235 -6 272 15 Q309 35 337 71 L341 71 Q349 32 371 13 Q393 -6 425 -6 Q437 -6 450 -3 Q463 0 474 5 L487 85 Q460 84 448 95 Q436 105 436 134 Q437 152 440 179 L485 519 L387 519 L339 172 Q318 137 291 113 Q264 89 232 88 Q210 86 191 103 Q172 121 171 183 Q171 192 171 202 Q172 212 174 223 L214 519 Z" /><glyph glyph-name="" unicode="" d="" /><glyph glyph-name="" unicode="é" d="M435 384 Q435 445 398 485 Q361 525 284 527 Q183 525 116 440 Q49 355 46 216 Q47 110 94 53 Q140 -5 223 -6 Q283 -6 322 7 Q360 20 395 45 L366 130 Q337 112 306 100 Q275 88 234 88 Q199 86 175 112 Q151 137 150 209 Q246 207 337 241 Q428 275 435 384 L435 384 ZM274 439 Q302 438 317 420 Q333 401 333 373 Q332 326 285 302 Q237 278 154 276 Q164 356 198 397 Q231 439 274 439 L274 439 ZM233 585 L315 585 L433 739 L323 739 L233 585 Z" /><glyph glyph-name="" unicode="è" d="M435 384 Q435 445 398 485 Q361 525 284 527 Q183 525 116 440 Q49 355 46 216 Q47 110 94 53 Q140 -5 223 -6 Q283 -6 322 7 Q360 20 395 45 L366 130 Q337 112 306 100 Q275 88 234 88 Q199 86 175 112 Q151 137 150 209 Q246 207 337 241 Q428 275 435 384 L435 384 ZM274 439 Q302 438 317 420 Q333 401 333 373 Q332 326 285 302 Q237 278 154 276 Q164 356 198 397 Q231 439 274 439 L274 439 ZM323 739 L214 739 L287 585 L369 585 L323 739 Z" /><glyph glyph-name="" unicode="ê" d="M435 384 Q435 445 398 485 Q361 525 284 527 Q183 525 116 440 Q49 355 46 216 Q47 110 94 53 Q140 -5 223 -6 Q283 -6 322 7 Q360 20 395 45 L366 130 Q337 112 306 100 Q275 88 234 88 Q199 86 175 112 Q151 137 150 209 Q246 207 337 241 Q428 275 435 384 L435 384 ZM274 439 Q302 438 317 420 Q333 401 333 373 Q332 326 285 302 Q237 278 154 276 Q164 356 198 397 Q231 439 274 439 L274 439 ZM364 739 L274 739 L173 585 L241 585 L308 672 L353 585 L420 585 L364 739 Z" /><glyph glyph-name="" unicode="ó" d="M288 525 Q181 524 113 441 Q45 358 43 211 Q44 113 89 54 Q134 -5 213 -6 Q319 -4 387 80 Q456 164 458 311 Q457 410 412 467 Q367 524 288 525 L288 525 ZM273 436 Q314 435 336 397 Q358 360 358 295 Q357 200 320 142 Q283 84 228 82 Q188 82 166 119 Q143 155 143 222 Q144 318 181 376 Q218 434 273 436 L273 436 ZM236 585 L318 585 L436 739 L326 739 L236 585 Z" /><glyph glyph-name="" unicode="ò" d="M288 525 Q181 524 113 441 Q45 358 43 211 Q44 113 89 54 Q134 -5 213 -6 Q319 -4 387 80 Q456 164 458 311 Q457 410 412 467 Q367 524 288 525 L288 525 ZM273 436 Q314 435 336 397 Q358 360 358 295 Q357 200 320 142 Q283 84 228 82 Q188 82 166 119 Q143 155 143 222 Q144 318 181 376 Q218 434 273 436 L273 436 ZM297 739 L188 739 L261 585 L343 585 L297 739 Z" /><glyph glyph-name="" unicode="ô" d="M288 525 Q181 524 113 441 Q45 358 43 211 Q44 113 89 54 Q134 -5 213 -6 Q319 -4 387 80 Q456 164 458 311 Q457 410 412 467 Q367 524 288 525 L288 525 ZM273 436 Q314 435 336 397 Q358 360 358 295 Q357 200 320 142 Q283 84 228 82 Q188 82 166 119 Q143 155 143 222 Q144 318 181 376 Q218 434 273 436 L273 436 ZM360 739 L270 739 L169 585 L237 585 L304 672 L349 585 L416 585 L360 739 Z" /><glyph glyph-name="" unicode="ö" d="M288 525 Q181 524 113 441 Q45 358 43 211 Q44 113 89 54 Q134 -5 213 -6 Q319 -4 387 80 Q456 164 458 311 Q457 410 412 467 Q367 524 288 525 L288 525 ZM273 436 Q314 435 336 397 Q358 360 358 295 Q357 200 320 142 Q283 84 228 82 Q188 82 166 119 Q143 155 143 222 Q144 318 181 376 Q218 434 273 436 L273 436 ZM189 654 Q189 631 201 615 Q213 599 233 598 Q260 599 279 621 Q298 643 299 674 Q299 698 285 713 Q272 728 252 728 Q228 727 209 706 Q190 684 189 654 L189 654 ZM353 654 Q353 631 365 615 Q376 599 396 598 Q423 599 442 621 Q461 642 462 674 Q462 698 448 713 Q435 728 415 728 Q391 727 372 706 Q354 684 353 654 L353 654 Z" /><glyph glyph-name="" unicode="õ" d="M288 525 Q181 524 113 441 Q45 358 43 211 Q44 113 89 54 Q134 -5 213 -6 Q319 -4 387 80 Q456 164 458 311 Q457 410 412 467 Q367 524 288 525 L288 525 ZM273 436 Q314 435 336 397 Q358 360 358 295 Q357 200 320 142 Q283 84 228 82 Q188 82 166 119 Q143 155 143 222 Q144 318 181 376 Q218 434 273 436 L273 436 ZM451 674 Q433 699 415 706 Q398 714 387 713 Q348 711 323 695 Q299 678 277 676 Q269 676 257 681 Q245 686 232 700 L200 632 Q216 609 233 600 Q249 592 262 592 Q292 594 320 611 Q347 628 372 630 Q380 630 392 625 Q404 620 420 604 L451 674 Z" /><glyph glyph-name="" unicode="í" d="M148 0 L252 748 L148 748 L43 0 L148 0 ZM139 795 L221 795 L339 949 L229 949 L139 795 Z" /><glyph glyph-name="" unicode="î" d="M148 0 L252 748 L148 748 L43 0 L148 0 ZM270 949 L180 949 L79 795 L147 795 L214 882 L259 795 L326 795 L270 949 Z" /><glyph glyph-name="" unicode="ï" d="M148 0 L252 748 L148 748 L43 0 L148 0 ZM77 866 Q77 843 89 827 Q101 811 121 810 Q148 811 167 833 Q186 855 187 886 Q187 910 173 925 Q160 940 140 940 Q116 939 97 918 Q78 896 77 866 L77 866 ZM241 866 Q241 843 253 827 Q264 811 284 810 Q311 811 330 833 Q349 854 350 886 Q350 910 336 925 Q323 940 303 940 Q279 939 260 918 Q242 896 241 866 L241 866 Z" /><glyph glyph-name="" unicode="ì" d="M148 0 L252 748 L148 748 L43 0 L148 0 ZM208 949 L99 949 L172 795 L254 795 L208 949 Z" /><glyph glyph-name="" unicode="&#xf8ff;" d="M645 530 L727 585 Q730 587 733 588 Q735 589 739 589 Q745 589 750 585 Q754 582 754 575 Q754 573 753 570 Q751 566 749 564 L714 530 L831 530 Q837 530 842 525 Q846 521 846 514 Q846 507 842 504 Q837 500 831 500 L750 500 L754 487 L867 487 Q874 487 877 483 Q881 478 881 473 Q881 465 877 461 Q874 457 867 457 L759 457 L759 443 L844 443 Q850 443 855 439 Q859 436 859 429 Q859 422 855 418 Q850 413 844 413 L754 413 L750 401 L820 401 Q825 401 830 396 Q834 392 834 385 Q834 379 830 375 Q825 370 820 370 L643 370 L643 85 L476 85 L476 370 L299 370 Q294 370 289 375 Q285 379 285 385 Q285 392 289 396 Q294 401 299 401 L369 401 L364 413 L275 413 Q269 413 265 418 Q260 422 260 429 Q260 436 265 439 Q269 443 275 443 L360 443 L360 457 L252 457 Q246 457 242 461 Q238 465 238 473 Q238 478 242 483 Q246 487 252 487 L364 487 L369 500 L288 500 Q282 500 278 504 Q273 507 273 514 Q273 521 278 525 Q282 530 288 530 L405 530 L370 564 Q368 566 366 570 Q365 573 365 575 Q365 582 370 585 Q374 589 380 589 Q388 589 392 585 L474 530 L645 530 ZM919 39 Q924 39 927 36 Q930 33 930 28 Q930 23 927 20 Q924 17 919 17 L905 17 L905 39 L919 39 ZM146 376 Q150 201 267 84 Q384 -33 559 -37 Q734 -33 851 84 Q968 201 972 376 Q968 551 851 668 Q734 785 559 789 Q384 785 267 668 Q150 551 146 376 L146 376 ZM863 17 Q864 -6 879 -21 Q894 -36 917 -37 Q940 -36 956 -21 Q971 -6 972 17 Q971 40 956 56 Q940 71 917 72 Q894 71 879 56 Q864 40 863 17 L863 17 ZM871 17 Q872 36 885 50 Q898 63 917 64 Q936 63 950 50 Q963 36 964 17 Q963 -2 950 -15 Q936 -28 917 -29 Q898 -28 885 -15 Q872 -2 871 17 L871 17 ZM930 -11 L941 -11 L925 9 Q931 11 935 16 Q939 21 939 28 Q939 36 933 42 Q927 48 919 48 L896 48 L896 -11 L905 -11 L905 8 L915 8 L930 -11 Z" /><glyph glyph-name="" unicode="í" d="M213 519 L115 519 L69 177 Q66 153 64 137 Q62 120 62 110 Q63 44 90 18 Q117 -7 154 -6 Q166 -6 178 -3 Q191 0 202 5 L216 85 Q189 84 177 95 Q164 105 164 134 Q164 143 165 155 Q166 167 168 179 L213 519 ZM100 585 L182 585 L300 739 L190 739 L100 585 Z" /><glyph glyph-name="" unicode="ì" d="M214 519 L116 519 L70 177 Q67 153 65 137 Q63 120 63 110 Q64 44 91 18 Q118 -7 155 -6 Q167 -6 179 -3 Q192 0 203 5 L217 85 Q190 84 178 95 Q165 105 165 134 Q165 143 166 155 Q167 167 169 179 L214 519 ZM173 739 L64 739 L137 585 L219 585 L173 739 Z" /><glyph glyph-name="" unicode="î" d="M214 519 L116 519 L70 177 Q67 153 65 137 Q63 120 63 110 Q64 44 91 18 Q118 -7 155 -6 Q167 -6 179 -3 Q192 0 203 5 L217 85 Q190 84 178 95 Q165 105 165 134 Q165 143 166 155 Q167 167 169 179 L214 519 ZM238 739 L148 739 L47 585 L115 585 L182 672 L227 585 L294 585 L238 739 Z" /><glyph glyph-name="" unicode="ï" d="M214 519 L116 519 L70 177 Q67 153 65 137 Q63 120 63 110 Q64 44 91 18 Q118 -7 155 -6 Q167 -6 179 -3 Q192 0 203 5 L217 85 Q190 84 178 95 Q165 105 165 134 Q165 143 166 155 Q167 167 169 179 L214 519 ZM46 654 Q46 631 58 615 Q70 599 90 598 Q117 599 136 621 Q155 643 156 674 Q156 698 142 713 Q129 728 109 728 Q85 727 66 706 Q47 684 46 654 L46 654 ZM210 654 Q210 631 222 615 Q233 599 253 598 Q280 599 299 621 Q318 642 319 674 Q319 698 305 713 Q292 728 272 728 Q248 727 229 706 Q211 684 210 654 L210 654 Z" /><glyph glyph-name="" unicode="á" d="M416 -6 Q428 -6 440 -3 Q453 0 464 5 L477 85 Q450 84 438 95 Q426 105 426 134 Q426 143 427 155 Q428 167 429 179 L470 481 L381 481 Q360 503 331 514 Q302 525 272 525 Q173 523 111 437 Q49 351 47 203 Q48 104 86 49 Q124 -5 188 -6 Q225 -6 262 15 Q299 35 327 71 L331 71 Q339 32 361 13 Q383 -6 416 -6 L416 -6 ZM148 222 Q150 318 183 374 Q217 430 265 431 Q296 431 317 421 Q337 411 357 387 L330 173 Q308 136 281 113 Q254 89 223 88 Q189 88 169 122 Q148 156 148 222 L148 222 ZM267 585 L349 585 L467 739 L357 739 L267 585 Z" /><glyph glyph-name="" unicode="à" d="M416 -6 Q428 -6 440 -3 Q453 0 464 5 L477 85 Q450 84 438 95 Q426 105 426 134 Q426 143 427 155 Q428 167 429 179 L470 481 L381 481 Q360 503 331 514 Q302 525 272 525 Q173 523 111 437 Q49 351 47 203 Q48 104 86 49 Q124 -5 188 -6 Q225 -6 262 15 Q299 35 327 71 L331 71 Q339 32 361 13 Q383 -6 416 -6 L416 -6 ZM148 222 Q150 318 183 374 Q217 430 265 431 Q296 431 317 421 Q337 411 357 387 L330 173 Q308 136 281 113 Q254 89 223 88 Q189 88 169 122 Q148 156 148 222 L148 222 ZM321 739 L212 739 L285 585 L367 585 L321 739 Z" /><glyph glyph-name="" unicode="â" d="M416 -6 Q428 -6 440 -3 Q453 0 464 5 L477 85 Q450 84 438 95 Q426 105 426 134 Q426 143 427 155 Q428 167 429 179 L470 481 L381 481 Q360 503 331 514 Q302 525 272 525 Q173 523 111 437 Q49 351 47 203 Q48 104 86 49 Q124 -5 188 -6 Q225 -6 262 15 Q299 35 327 71 L331 71 Q339 32 361 13 Q383 -6 416 -6 L416 -6 ZM148 222 Q150 318 183 374 Q217 430 265 431 Q296 431 317 421 Q337 411 357 387 L330 173 Q308 136 281 113 Q254 89 223 88 Q189 88 169 122 Q148 156 148 222 L148 222 ZM387 739 L297 739 L196 585 L264 585 L331 672 L376 585 L443 585 L387 739 Z" /><glyph glyph-name="" unicode="ä" d="M416 -6 Q428 -6 440 -3 Q453 0 464 5 L477 85 Q450 84 438 95 Q426 105 426 134 Q426 143 427 155 Q428 167 429 179 L470 481 L381 481 Q360 503 331 514 Q302 525 272 525 Q173 523 111 437 Q49 351 47 203 Q48 104 86 49 Q124 -5 188 -6 Q225 -6 262 15 Q299 35 327 71 L331 71 Q339 32 361 13 Q383 -6 416 -6 L416 -6 ZM148 222 Q150 318 183 374 Q217 430 265 431 Q296 431 317 421 Q337 411 357 387 L330 173 Q308 136 281 113 Q254 89 223 88 Q189 88 169 122 Q148 156 148 222 L148 222 ZM183 654 Q183 631 195 615 Q207 599 227 598 Q254 599 273 621 Q292 643 293 674 Q293 698 279 713 Q266 728 246 728 Q222 727 203 706 Q184 684 183 654 L183 654 ZM347 654 Q347 631 359 615 Q370 599 390 598 Q417 599 436 621 Q455 642 456 674 Q456 698 442 713 Q429 728 409 728 Q385 727 366 706 Q348 684 347 654 L347 654 Z" /><glyph glyph-name="" unicode="ã" d="M416 -6 Q428 -6 440 -3 Q453 0 464 5 L477 85 Q450 84 438 95 Q426 105 426 134 Q426 143 427 155 Q428 167 429 179 L470 481 L381 481 Q360 503 331 514 Q302 525 272 525 Q173 523 111 437 Q49 351 47 203 Q48 104 86 49 Q124 -5 188 -6 Q225 -6 262 15 Q299 35 327 71 L331 71 Q339 32 361 13 Q383 -6 416 -6 L416 -6 ZM148 222 Q150 318 183 374 Q217 430 265 431 Q296 431 317 421 Q337 411 357 387 L330 173 Q308 136 281 113 Q254 89 223 88 Q189 88 169 122 Q148 156 148 222 L148 222 ZM451 674 Q433 699 415 706 Q398 714 387 713 Q348 711 323 695 Q299 678 277 676 Q269 676 257 681 Q245 686 232 700 L200 632 Q216 609 233 600 Q249 592 262 592 Q292 594 320 611 Q347 628 372 630 Q380 630 392 625 Q404 620 420 604 L451 674 Z" /><glyph glyph-name="" unicode="å" d="M416 -6 Q428 -6 440 -3 Q453 0 464 5 L477 85 Q450 84 438 95 Q426 105 426 134 Q426 143 427 155 Q428 167 429 179 L470 481 L381 481 Q360 503 331 514 Q302 525 272 525 Q173 523 111 437 Q49 351 47 203 Q48 104 86 49 Q124 -5 188 -6 Q225 -6 262 15 Q299 35 327 71 L331 71 Q339 32 361 13 Q383 -6 416 -6 L416 -6 ZM148 222 Q150 318 183 374 Q217 430 265 431 Q296 431 317 421 Q337 411 357 387 L330 173 Q308 136 281 113 Q254 89 223 88 Q189 88 169 122 Q148 156 148 222 L148 222 ZM246 649 Q247 613 264 592 Q282 571 310 570 Q350 571 377 601 Q403 632 404 680 Q404 717 386 738 Q369 760 340 760 Q301 759 274 728 Q247 697 246 649 L246 649 ZM292 657 Q293 680 304 696 Q316 712 333 713 Q345 712 353 701 Q360 689 360 673 Q359 650 347 634 Q335 618 318 617 Q307 617 299 629 Q292 640 292 657 L292 657 Z" /><glyph glyph-name="" unicode="ú" d="M198 519 L99 519 L59 228 Q56 207 55 189 Q54 171 54 155 Q57 60 97 26 Q137 -8 182 -6 Q219 -6 256 15 Q293 35 321 71 L325 71 Q333 32 355 13 Q377 -6 409 -6 Q421 -6 434 -3 Q447 0 458 5 L471 85 Q444 84 432 95 Q420 105 420 134 Q420 143 421 155 Q422 167 424 179 L469 519 L371 519 L323 172 Q302 137 275 113 Q248 89 216 88 Q194 86 175 103 Q156 121 155 183 Q155 192 155 202 Q156 212 158 223 L198 519 ZM251 585 L333 585 L451 739 L341 739 L251 585 Z" /><glyph glyph-name="" unicode="ù" d="M198 519 L99 519 L59 228 Q56 207 55 189 Q54 171 54 155 Q57 60 97 26 Q137 -8 182 -6 Q219 -6 256 15 Q293 35 321 71 L325 71 Q333 32 355 13 Q377 -6 409 -6 Q421 -6 434 -3 Q447 0 458 5 L471 85 Q444 84 432 95 Q420 105 420 134 Q420 143 421 155 Q422 167 424 179 L469 519 L371 519 L323 172 Q302 137 275 113 Q248 89 216 88 Q194 86 175 103 Q156 121 155 183 Q155 192 155 202 Q156 212 158 223 L198 519 ZM305 739 L196 739 L269 585 L351 585 L305 739 Z" /><glyph glyph-name="" unicode="û" d="M198 519 L99 519 L59 228 Q56 207 55 189 Q54 171 54 155 Q57 60 97 26 Q137 -8 182 -6 Q219 -6 256 15 Q293 35 321 71 L325 71 Q333 32 355 13 Q377 -6 409 -6 Q421 -6 434 -3 Q447 0 458 5 L471 85 Q444 84 432 95 Q420 105 420 134 Q420 143 421 155 Q422 167 424 179 L469 519 L371 519 L323 172 Q302 137 275 113 Q248 89 216 88 Q194 86 175 103 Q156 121 155 183 Q155 192 155 202 Q156 212 158 223 L198 519 ZM371 739 L281 739 L180 585 L248 585 L315 672 L360 585 L427 585 L371 739 Z" /><glyph glyph-name="" unicode="ü" d="M198 519 L99 519 L59 228 Q56 207 55 189 Q54 171 54 155 Q57 60 97 26 Q137 -8 182 -6 Q219 -6 256 15 Q293 35 321 71 L325 71 Q333 32 355 13 Q377 -6 409 -6 Q421 -6 434 -3 Q447 0 458 5 L471 85 Q444 84 432 95 Q420 105 420 134 Q420 143 421 155 Q422 167 424 179 L469 519 L371 519 L323 172 Q302 137 275 113 Q248 89 216 88 Q194 86 175 103 Q156 121 155 183 Q155 192 155 202 Q156 212 158 223 L198 519 ZM178 654 Q178 631 190 615 Q202 599 222 598 Q249 599 268 621 Q287 643 288 674 Q288 698 274 713 Q261 728 241 728 Q217 727 198 706 Q179 684 178 654 L178 654 ZM342 654 Q342 631 354 615 Q365 599 385 598 Q412 599 431 621 Q450 642 451 674 Q451 698 437 713 Q424 728 404 728 Q380 727 361 706 Q343 684 342 654 L342 654 Z" /></font>
</defs>
</svg>
