<?xml version="1.0" encoding="utf-8"?>
<!-- Generator: Adobe Illustrator 16.0.0, SVG Export Plug-In . SVG Version: 6.00 Build 0)  -->
<!DOCTYPE svg PUBLIC "-//W3C//DTD SVG 1.1//EN" "http://www.w3.org/Graphics/SVG/1.1/DTD/svg11.dtd">
<svg version="1.1" xmlns="http://www.w3.org/2000/svg" xmlns:xlink="http://www.w3.org/1999/xlink" x="0px" y="0px" width="1428px"
	 height="625px" viewBox="0 0 1428 625" enable-background="new 0 0 1428 625" xml:space="preserve">
<g id="Layer_1">
	<g>
		<g>
			<g>
				<path fill="#FFFFFF" stroke="#000000" stroke-width="5" stroke-miterlimit="10" d="M211.974,590.571
					c-5.061,1.42-54.82,12.603-88.608-6.053c0,0-6.547,9.458,35.936,26.883c22.032,5.453,47.276,1.445,53.064-19.123
					C211.974,590.571,211.974,590.571,211.974,590.571z"/>
				<path fill="#FFFFFF" stroke="#000000" stroke-width="5" stroke-miterlimit="10" d="M106.288,388.494
					c0,0-30.674,26.857-30.313,31.646c-1.312,7.029-0.319-30.79-0.319-30.79L106.288,388.494z"/>
			</g>
			<path fill="#FFFFFF" stroke="#000000" stroke-width="5" stroke-miterlimit="10" d="M14.532,344.014
				c0,0,15.542,93.479,20.467,120.776c4.925,27.299,11.768,53.722,40.424,83.516c28.657,29.793,112.61,63.206,192.161,4.951
				c72.23-64.646,33.208-137.852,33.208-137.852c-2.545-11.294,9.23-10.874,9.23-10.874s44.443,3.705,58.821,3.98
				c13.274-1.886,13.728-14.606,13.728-14.606l-58.451-1.137c-13.25-5.425-0.396-8.741-0.396-8.741l70.085-1.043
				c14.021-16.247-3.461-28.662-3.461-28.662s-43.652,0.569-48.591,0.158s-10.513,0.454-12.225-7.747
				c-16.288-79.118-109.59-62.716-127.787-37.686c-15.393,16.669-8.593,65.851-8.593,65.851l-4.929,5.957
				c111.845,64.83,21.43,159.962,15.465,161.873c-5.964,1.911-10.751-2.741-7.463-8.992c32.587-27.614,64.268-102.667-11.72-141.22
				c-81.959-29.804-108.305,54.401-110.325,59.926c-5.268,3.994-10.43-0.309-10.43-0.309s-0.358-42.937-0.759-78.093
				C48.518,330.129,14.532,344.014,14.532,344.014z M290.124,356.503c-8.134,7.575-20.868,7.122-28.442-1.012
				c-7.575-8.134-7.122-20.869,1.012-28.443s20.868-7.122,28.443,1.012S298.259,348.928,290.124,356.503z"/>
		</g>
		<circle cx="276.159" cy="342.202" r="19.978"/>
	</g>
	<g>
		<g>
			<g>
				<path fill="#FFFFFF" stroke="#000000" stroke-width="5" stroke-miterlimit="10" d="M1396.911,455.952
					c0.878,5.182,6.742,55.844-15.375,87.473c0,0,8.712,7.51,30.525-32.896c7.75-21.333,6.431-46.858-13.412-54.788
					C1396.911,455.952,1396.911,455.952,1396.911,455.952z"/>
				<path fill="#FFFFFF" stroke="#000000" stroke-width="5" stroke-miterlimit="10" d="M1176.565,530.362
					c0,0,21.279,34.775,26.06,35.23c6.706,2.481-30.399-4.896-30.399-4.896L1176.565,530.362z"/>
			</g>
			<path fill="#FFFFFF" stroke="#000000" stroke-width="5" stroke-miterlimit="10" d="M1117.201,613.269
				c0,0,94.761,0.499,122.498,0.264c27.738-0.234,54.938-2.508,89.151-25.711c34.212-23.201,81.348-100.291,37.394-188.551
				c-51.494-82.127-130.246-56.054-130.246-56.054c-11.563,0.598-9.155-10.937-9.155-10.937s11.172-43.176,13.876-57.3
				c0.387-13.402-12.072-16.001-12.072-16.001l-11.011,57.416c-7.589,12.142-8.682-1.088-8.682-1.088l10.83-69.251
				c-13.64-16.568-28.834-1.438-28.834-1.438s-6.825,43.12-8.066,47.917c-1.241,4.798-1.331,10.438-9.703,10.738
				c-80.733,2.667-80.354,97.398-58.764,119.568c13.824,17.99,63.447,19.611,63.447,19.611l5.036,5.865
				c82.819-99.263,161.282,5.945,162.156,12.146c0.873,6.202-4.521,10.133-10.126,5.834
				c-21.702-36.789-90.312-80.712-141.167-12.344c-43.241,75.734,35.291,115.948,40.395,118.874
				c3.046,5.868-2.067,10.228-2.067,10.228s-42.38-6.912-77.097-12.467C1109.267,577.425,1117.201,613.269,1117.201,613.269z
				 M1176.141,343.763c6.089,9.298,3.487,21.773-5.811,27.862c-9.299,6.089-21.772,3.488-27.862-5.811
				c-6.089-9.298-3.487-21.772,5.811-27.861C1157.577,331.863,1170.051,334.465,1176.141,343.763z"/>
		</g>
		<circle cx="1159.122" cy="354.609" r="19.978"/>
	</g>
	<path fill="none" stroke="#000000" stroke-width="5" stroke-miterlimit="10" d="M1392.588,457.989
		c0.859,5.074,6.603,54.69-15.059,85.666c0,0,8.532,7.355,29.896-32.217c7.589-20.891,6.297-45.891-13.136-53.656
		C1392.588,457.989,1392.588,457.989,1392.588,457.989z"/>
	<path fill="none" stroke="#000000" stroke-width="5" stroke-miterlimit="10" d="M1181.07,528.538c0,0,20.84,34.059,25.521,34.503
		c6.568,2.431-29.771-4.794-29.771-4.794L1181.07,528.538z"/>
	<path fill="none" stroke="#000000" stroke-width="5" stroke-miterlimit="10" d="M1123.433,611.233c0,0,92.804,0.49,119.969,0.26
		s53.804-2.457,87.31-25.18s79.668-98.221,36.622-184.658c-50.431-80.432-127.557-54.896-127.557-54.896
		c-11.323,0.585-8.966-10.711-8.966-10.711s10.94-42.285,13.589-56.117c0.379-13.125-11.823-15.67-11.823-15.67l-10.783,56.23
		c-7.432,11.891-8.502-1.065-8.502-1.065l10.606-67.821c-13.358-16.226-28.239-1.408-28.239-1.408s-6.684,42.229-7.899,46.928
		c-1.216,4.698-1.304,10.222-9.502,10.516c-79.066,2.611-78.696,95.387-57.551,117.099c13.541,17.621,62.135,19.206,62.137,19.206
		l4.933,5.744c81.109-97.213,157.951,5.823,158.807,11.896c0.855,6.074-4.427,9.924-9.916,5.714
		c-20.664-35.029-87.702-80.047-138.252-12.089c-42.349,74.171,34.563,113.554,39.561,116.419
		c2.983,5.747-2.024,10.017-2.024,10.017s-41.505-6.77-75.505-12.209C1115.662,576.13,1123.433,611.233,1123.433,611.233z
		 M1181.154,347.294c5.964,9.106,3.416,21.323-5.689,27.287c-9.107,5.963-21.323,3.416-27.287-5.69
		c-5.963-9.106-3.416-21.323,5.69-27.286C1162.975,335.641,1175.191,338.188,1181.154,347.294z"/>
	<g>
		<g>
			<path fill="none" stroke="#000000" stroke-width="5" stroke-miterlimit="10" d="M210.559,586.496
				c-4.882,1.37-52.893,12.158-85.493-5.841c0,0-6.317,9.125,34.673,25.938c21.257,5.261,45.613,1.395,51.199-18.452
				C210.559,586.496,210.559,586.496,210.559,586.496z"/>
			<path fill="none" stroke="#000000" stroke-width="5" stroke-miterlimit="10" d="M109.186,390.462
				c0,0-29.595,25.913-29.247,30.533c-1.266,6.782-0.309-29.708-0.309-29.708L109.186,390.462z"/>
		</g>
		<path fill="none" stroke="#000000" stroke-width="5" stroke-miterlimit="10" d="M20.656,347.546c0,0,14.995,90.191,19.747,116.531
			c4.751,26.338,11.354,51.832,39.003,80.578s108.651,60.984,185.405,4.777c69.691-62.373,32.04-133.006,32.04-133.006
			c-2.455-10.897,8.906-10.491,8.906-10.491s42.881,3.575,56.753,3.841c12.808-1.82,13.245-14.093,13.245-14.093l-56.396-1.097
			c-12.785-5.234-0.383-8.434-0.383-8.434l67.621-1.006c13.529-15.676-3.34-27.654-3.34-27.654s-42.117,0.549-46.882,0.152
			c-4.765-0.397-10.143,0.438-11.794-7.475c-15.716-76.336-105.737-60.511-123.295-36.36c-14.851,16.083-8.291,63.536-8.291,63.536
			l-4.755,5.747c107.913,62.551,20.676,154.339,14.921,156.182c-5.754,1.844-10.373-2.645-7.2-8.676
			c31.441-26.644,62.008-99.057-11.308-136.256c-79.078-28.756-104.498,52.488-106.447,57.819
			c-5.083,3.854-10.063-0.297-10.063-0.297s-0.347-41.428-0.732-75.348C53.446,334.149,20.656,347.546,20.656,347.546z
			 M286.56,359.596c-7.848,7.309-20.135,6.872-27.443-0.977s-6.871-20.135,0.977-27.443c7.848-7.309,20.135-6.871,27.443,0.977
			S294.408,352.287,286.56,359.596z"/>
	</g>
</g>
<g id="Layer_3">
	<g>
		<path fill="#1D1D1B" d="M978.772,336.346l-1.77,0.018c-0.104,0.001-0.105,0.121,0,0.122l1.77,0.017
			C978.908,336.504,978.908,336.345,978.772,336.346z"/>
		<path fill="none" stroke="#1D1D1B" stroke-width="0" stroke-linecap="round" stroke-linejoin="round" d="M977.888,336.433
			c0.016,0,0.016-0.017,0-0.017"/>
		<path fill="#1D1D1B" d="M1127.184,159.623c-2.669-6.127-6.121-12.043-10.794-17.5c-9.678-11.301-24.121-19.609-39.189-26.667
			c-16.779-7.86-34.415-15.276-53.282-19.994c-19.21-4.802-39.41-5.733-59.541-5.705c-22.279,0.031-44.569,0.764-66.777,2.092
			c-21.067,1.26-42.591,2.623-62.754,7.629c-15.215,3.778-29.304,9.71-41.755,17.204c-27.122,16.323-45.426,39.559-53.514,64.653
			c-8.825,27.383-7.975,59.809,6.903,86.003c7.465,13.146,20.242,23.546,34.257,33.056c14.247,9.667,28.989,19.472,46.518,25.73
			c17.913,6.396,37.646,9.876,57.049,12.748c20.344,3.012,41.022,4.989,61.744,5.739c7.208,0.26,14.41,0.303,21.613,0.214
			c10.537,18.767,34.116,33.119,60.979,37.126c4.219,0.628,12.655,2.487,16.497,0.546c4.309-2.176-0.681-6.946-2.042-9.288
			c-5.994-10.308-12.208-22.577-11.236-34.199c29.695-3.126,59.237-12.315,77.864-30.368c8.542-8.277,14.158-17.93,18.252-27.884
			c9.849-19.043,13.553-40.203,14.988-60.096C1144.519,199.103,1140.521,177.947,1127.184,159.623z M1043.271,104.827
			c16.896,6.197,33.993,13.513,48.658,22.344c7.913,4.766,14.574,10.169,19.967,16.234c-1.051-0.879-2.12-1.75-3.232-2.607
			c-13.277-10.231-29.038-18.552-45.228-26.035c-18.221-8.42-37.505-15.58-58.425-19.425c-2.041-0.376-4.096-0.718-6.156-1.044
			C1014.304,96.072,1029.024,99.603,1043.271,104.827z M777.001,131.989c22.808-19.496,52.677-30.754,86.858-34.624
			c1.676-0.19,3.359-0.355,5.042-0.526c-32.042,5.177-60.988,16.622-84.178,34.197c-21.416,16.233-37.078,36.786-43.946,58.967
			C745.914,168.728,757.77,148.427,777.001,131.989z M873.808,99.133c-13.211,2.182-26.258,5.073-38.741,8.892
			c2.982-1.02,5.996-1.986,9.063-2.86C853.762,102.424,863.713,100.532,873.808,99.133z M744.854,188.934
			c-2.539,9.78-3.486,19.83-2.857,29.826c-0.504,0.65-1.01,1.302-1.507,1.956c-0.049-0.76-0.118-1.518-0.146-2.278
			C739.98,208.449,741.592,198.538,744.854,188.934z M751.607,258.677c-1.154-2.187-2.255-4.387-3.241-6.618
			c0.378-0.544,0.763-1.083,1.144-1.625c0.976,2.308,2.056,4.59,3.216,6.846C752.352,257.745,751.979,258.212,751.607,258.677z
			 M753.146,258.093c1.075,2.045,2.241,4.059,3.466,6.051c-0.356,0.463-0.699,0.935-1.048,1.399
			c-1.251-2.014-2.445-4.046-3.552-6.105C752.389,258.99,752.768,258.542,753.146,258.093z M748.045,251.346
			c-4.18-9.651-6.758-19.679-7.503-29.818c0.516-0.581,1.021-1.17,1.531-1.754c0.743,10.092,3.106,20.115,7.062,29.74
			C748.763,250.122,748.4,250.733,748.045,251.346z M752.286,270.037c-7.399-11.097-11.549-23.441-13.395-35.968
			c2.021,9.418,5.545,18.665,10.415,27.515c-0.05,0.134,0.038,0.253,0.18,0.314c1.228,2.216,2.553,4.402,3.946,6.565
			c-0.375,0.522-0.773,1.035-1.139,1.56C752.289,270.028,752.29,270.032,752.286,270.037z M766.809,286.36
			c-5.696-4.854-10.378-10.195-14.215-15.865c0.162,0.032,0.341-0.002,0.448-0.145c0.283-0.381,0.585-0.752,0.871-1.129
			c0.126,0.191,0.24,0.388,0.368,0.58c4.509,6.778,9.858,13.262,15.923,19.353C769.061,288.227,767.912,287.3,766.809,286.36z
			 M771.902,286.409c-6.083-6.283-11.376-12.996-15.815-20.006c0.356-0.457,0.699-0.919,1.06-1.375
			c1.536,2.444,3.184,4.846,4.953,7.197c5.412,7.188,11.784,13.842,18.97,19.921c-0.435,0.576-0.877,1.15-1.305,1.729
			C777.026,291.473,774.397,288.987,771.902,286.409z M857.207,331.249c-29.988-6.611-56.449-19.229-76.661-36.692
			c0.063-0.033,0.121-0.076,0.169-0.134c0.426-0.507,0.849-1.014,1.274-1.521c5.092,4.233,10.588,8.176,16.433,11.818
			c-0.282,0.356-0.576,0.706-0.857,1.063c-0.371,0.471,0.586,0.881,0.979,0.425c0.268-0.307,0.533-0.618,0.8-0.926
			c6.492,3.986,13.421,7.589,20.704,10.808c-0.017,0.023-0.033,0.045-0.049,0.068c-0.178,0.268,0.331,0.497,0.545,0.236
			c0.017-0.022,0.034-0.044,0.054-0.065c6.185,2.71,12.619,5.151,19.292,7.273c4.29,1.364,8.634,2.612,13.024,3.753
			c0.077,0.21,0.442,0.33,0.66,0.163c6.549,1.684,13.204,3.12,19.927,4.362c-0.211,0.22-0.413,0.444-0.626,0.663
			c-0.453,0.468,0.57,0.887,1.027,0.446c0.299-0.287,0.578-0.585,0.873-0.874c3.492,0.631,7.005,1.204,10.533,1.732
			c-0.334,0.411-0.675,0.819-1.007,1.23c-0.302,0.375,0.474,0.708,0.785,0.343c0.406-0.476,0.801-0.954,1.206-1.428
			c16.156,2.376,32.625,3.718,49.048,4.466c-0.106,0.123-0.212,0.245-0.32,0.367C908.756,338.389,882.597,336.847,857.207,331.249z
			 M969.763,342.026c-0.771-1.432-3.854-0.882-3.275,0.568c-11.096-0.105-22.183-0.47-33.232-1.136
			c3.392,0.037,6.775,0.047,10.145,0.03c10.583-0.054,21.129-0.397,31.688-0.931c-0.025,0.689,0.055,1.378,0.181,2.065
			c-1.719,0.005-3.438,0.008-5.155,0C970.001,342.422,969.871,342.227,969.763,342.026z M936.385,338.849
			c0.098-0.11,0.195-0.22,0.294-0.33c3.991,0.174,7.98,0.324,11.96,0.434c0.611,0.018,1.22,0.018,1.829,0.03
			C945.773,338.963,941.077,338.92,936.385,338.849z M971.078,339.025c0.027-0.027,0.053-0.055,0.08-0.082
			c1.382-0.02,2.764-0.037,4.145-0.054c-0.014,0.055-0.018,0.111-0.029,0.167c-0.059-0.006-0.107-0.025-0.174-0.025
			C973.761,339.028,972.419,339.028,971.078,339.025z M971.372,344.777c1.49-0.029,2.979-0.071,4.469-0.113
			c2.645,7.049,11.841,13.734,18.075,18.166c9.133,6.491,19.839,11.719,31.419,15.464
			C1001.566,373.803,981.585,361.301,971.372,344.777z M1040.255,377.671c0.255,2.553-3.977,1.113-6.613,0.344
			c1.006,0.187,2.015,0.364,3.031,0.526c1.642,0.261,3.182-1.014,2.247-2.173c-9.188-11.39-14.937-23.949-17.341-37.018
			c0.09,0.077,0.191,0.148,0.309,0.207c1.444,6.805,3.689,13.494,6.868,19.995c2.021,4.132,4.383,8.179,7.061,12.1
			C1036.863,373.187,1040.091,376.021,1040.255,377.671z M1024.141,333.362c1.951,0.295,3.9,0.52,5.849,0.692
			c-0.296,0.677-0.53,1.365-0.738,2.057c-1.528,0.158-3.06,0.297-4.593,0.422C1024.466,335.478,1024.291,334.421,1024.141,333.362z
			 M1032.338,359.534c-3.213-6.452-5.558-13.13-7.058-19.929c1.095-0.083,2.191-0.173,3.288-0.272
			c-0.756,5.943,0.965,12.199,2.914,17.88C1031.75,357.99,1032.051,358.76,1032.338,359.534z M1028.212,329.462
			c3.139-4.289,6.66-8.364,10.824-12.202c0.361-0.334-0.265-0.815-0.644-0.479c-4.428,3.917-8.267,8.171-11.287,12.755
			c-2.771,0.169-5.566,0.258-8.389,0.241c-1.483-0.008-1.89,1.106-1.319,1.834c-0.013,0.07-0.05,0.125-0.048,0.204
			c0.429,15.225,5.954,29.794,15.818,43.049c-5.605-1.126-11.03-2.666-16.192-4.6c1.358-1.327,2.567-2.723,3.595-4.229
			c0.339-0.499-0.65-0.938-1.016-0.44c-1.086,1.478-2.309,2.897-3.66,4.247c-2.561-0.996-5.062-2.078-7.475-3.27
			c2.376-2.933,4.643-5.919,6.79-8.945c0.269-0.378-0.471-0.702-0.774-0.335c-2.404,2.893-4.725,5.833-6.908,8.824
			c-1.852-0.941-3.671-1.923-5.419-2.982c-1.066-0.646-2.13-1.316-3.187-2.01c2.711-3.82,5.521-7.596,8.505-11.304
			c0.359-0.445-0.557-0.835-0.931-0.404c-3.111,3.58-5.947,7.264-8.502,11.073c-2.783-1.874-5.489-3.899-7.931-6.085
			c2.868-4.523,6.154-8.871,9.968-13.006c0.361-0.393-0.476-0.732-0.846-0.367c-3.977,3.93-7.302,8.122-9.973,12.591
			c-2.541-2.372-4.772-4.908-6.474-7.597c2.346-3.062,4.672-6.123,7.337-9.063c0.324-0.359-0.442-0.679-0.774-0.336
			c-2.572,2.661-5.074,5.462-7.166,8.4c-1.258-2.186-2.172-4.463-2.604-6.83c-0.116-0.635-0.967-0.679-1.546-0.398
			c-0.117-0.299-0.44-0.547-0.978-0.571c-0.245-0.252-0.795-0.279-1.084-0.033c-0.98-0.024-1.98-0.063-2.965-0.09
			c2.39-2.509,4.677-5.078,7.086-7.575c0.274-0.285-0.366-0.658-0.66-0.378c-2.699,2.562-5.388,5.169-7.765,7.913
			c-3.838-0.108-7.675-0.214-11.546-0.351c4.355-5.644,8.816-11.124,14.197-16.294c0.577-0.556-0.443-1.349-1.06-0.787
			c-5.71,5.187-10.829,10.87-14.452,17.031c-3.663-0.132-7.329-0.266-11.01-0.435c5.563-5.584,10.668-11.395,15.204-17.477
			c0.428-0.574-0.738-1.081-1.186-0.514c-4.84,6.134-9.989,12.108-15.506,17.917c-2.386-0.113-4.771-0.226-7.16-0.357
			c4.181-4.698,8.346-9.405,12.451-14.142c0.408-0.47-0.591-0.895-1.003-0.436c-4.32,4.811-8.575,9.652-12.814,14.503
			c-4.084-0.231-8.173-0.491-12.259-0.79c5.705-6.014,11.21-12.127,16.675-18.263c0.397-0.445-0.55-0.843-0.953-0.415
			c-5.793,6.144-11.542,12.307-17.081,18.577c-3.721-0.278-7.438-0.577-11.146-0.921c3.711-4.015,7.366-8.057,10.935-12.143
			c0.416-0.476-0.592-0.899-1.016-0.441c-3.804,4.118-7.521,8.278-11.178,12.469c-3.932-0.375-7.857-0.778-11.762-1.243
			c6.104-7.167,12.07-14.387,17.858-21.697c0.399-0.504-0.635-0.948-1.053-0.457c-6.095,7.18-12,14.436-17.778,21.76
			c-0.075,0.096-0.083,0.185-0.063,0.268c-3.402-0.413-6.791-0.857-10.162-1.348c4.166-4.928,8.29-9.873,12.351-14.849
			c0.352-0.431-0.548-0.817-0.905-0.394c-4.226,5.002-8.384,10.032-12.501,15.083c-3.388-0.501-6.764-1.034-10.112-1.623
			c3.537-3.698,6.775-7.539,9.724-11.526c0.386-0.522-0.67-0.982-1.076-0.467c-3.157,4.008-6.511,7.919-10.049,11.742
			c-3.225-0.58-6.433-1.187-9.609-1.858c4.153-4.995,8.336-9.972,12.76-14.84c0.436-0.481-0.601-0.921-1.039-0.453
			c-4.57,4.881-8.905,9.877-12.835,15.059c-3.299-0.709-6.579-1.45-9.818-2.264c4.409-6.099,9.143-12.031,14.306-17.808
			c0.357-0.399-0.497-0.759-0.858-0.374c-5.359,5.722-10.176,11.713-14.383,17.941c-3.749-0.958-7.46-1.987-11.113-3.103
			c5.683-7.07,11.474-14.073,17.772-20.855c0.405-0.439-0.546-0.84-0.955-0.416c-6.495,6.719-12.546,13.669-17.771,20.976
			c-3.481-1.079-6.92-2.223-10.301-3.456c4.469-6.25,8.853-12.508,13.765-18.584c0.34-0.421-0.538-0.799-0.884-0.384
			c-4.993,6.024-9.771,12.216-13.685,18.68c-3.007-1.112-5.976-2.285-8.894-3.531c4.979-6.219,9.692-12.565,14.573-18.825
			c0.309-0.395-0.507-0.747-0.823-0.357c-5.023,6.192-10.013,12.436-14.504,18.86c-7.137-3.082-14.001-6.565-20.507-10.535
			c5.649-6.545,11.273-13.104,16.96-19.634c0.438-0.505-0.629-0.955-1.076-0.468c-5.866,6.377-11.519,12.867-16.887,19.482
			c-2.984-1.854-5.9-3.801-8.729-5.865c5.478-7.06,10.955-14.113,16.674-21.07c0.42-0.511-0.645-0.968-1.076-0.468
			c-5.871,6.79-11.43,13.74-16.479,20.888c-2.298-1.704-4.562-3.455-6.747-5.308c6.451-7.715,12.868-15.44,19.676-22.991
			c0.444-0.493-0.614-0.94-1.063-0.462c-6.892,7.354-13.581,14.845-19.632,22.603c-0.186-0.161-0.379-0.309-0.563-0.47
			c-2.038-1.783-3.987-3.618-5.855-5.5c5.926-6.938,11.48-14.056,17.1-21.132c0.446-0.56-0.718-1.063-1.172-0.509
			c-5.653,6.894-11.381,13.768-16.747,20.788c-1.554-1.596-3.062-3.219-4.5-4.878c0.13-0.031,0.258-0.086,0.354-0.193
			c6.042-6.708,11.995-13.457,18.201-20.083c0.522-0.559-0.697-1.075-1.222-0.531c-6.291,6.528-12.414,13.155-18.018,20.023
			c-2.275-2.671-4.404-5.417-6.38-8.228c5.202-5.847,10.582-11.601,16.156-17.257c0.401-0.408-0.507-0.789-0.906-0.394
			c-5.55,5.486-10.788,11.127-15.752,16.911c-1.413-2.047-2.764-4.118-4.019-6.227c3.592-4.348,7.362-8.611,11.363-12.768
			c0.396-0.411-0.509-0.791-0.906-0.395c-3.95,3.954-7.598,8.038-11.011,12.231c-1.167-2.003-2.287-4.024-3.308-6.075
			c5.19-6.082,10.49-12.111,15.945-18.062c0.398-0.433-0.545-0.834-0.942-0.409c-5.364,5.756-10.515,11.603-15.443,17.559
			c-1.167-2.403-2.245-4.832-3.211-7.289c5.491-7.506,11.447-14.754,18.333-21.664c0.457-0.46-0.572-0.891-1.028-0.445
			c-6.74,6.563-12.8,13.527-17.786,20.903c-0.887-2.344-1.685-4.707-2.389-7.088c5.651-6.364,10.959-12.902,16.337-19.392
			c0.332-0.401-0.511-0.763-0.847-0.368c-5.31,6.238-10.699,12.454-15.765,18.806c-0.966-3.39-1.766-6.807-2.353-10.246
			c4.512-5.892,9.338-11.609,14.937-16.986c0.362-0.349-0.284-0.845-0.664-0.494c-5.513,5.114-10.471,10.521-14.482,16.345
			c-0.535-3.384-0.892-6.782-1.057-10.184c4.808-5.67,9.435-11.436,14.092-17.165c0.35-0.431-0.554-0.821-0.908-0.394
			c-4.438,5.36-8.922,10.719-13.252,16.138c-0.092-2.803-0.057-5.606,0.107-8.404c0.986-1.104,1.743-2.641,2.521-3.653
			c1.456-1.895,2.993-3.754,4.602-5.581c3.598-4.08,7.564-7.958,11.838-11.662c0.443-0.383-0.299-0.944-0.752-0.558
			c-6.972,5.937-13.242,12.412-18.076,19.441c0.362-4.452,1.048-8.884,2.075-13.263c3.318-3.543,6.218-7.34,9.639-10.833
			c4.654-4.754,9.562-9.369,14.469-13.978c0.494-0.464-0.369-1.129-0.891-0.662c-7.483,6.724-16.411,13.92-22.287,21.831
			c5.229-18.746,16.718-36.393,34.981-50.585c23.153-17.994,55.116-28.197,87.237-33.883c36.998-6.548,76.433-8.271,113.959-3.229
			c67.479,9.065,129.31,43.727,141.682,95.921c7.152,30.173,4.784,64.036-15.237,91.371c-9.205,12.568-22.496,23.337-38.374,30.96
			c1.806-2.157,3.592-4.324,5.35-6.507c0.279-0.347-0.432-0.65-0.725-0.314c-2.239,2.565-4.427,5.149-6.593,7.745
			c-4.235,1.938-8.641,3.666-13.203,5.132c3.379-3.211,6.519-6.563,9.396-10.027c0.372-0.446-0.563-0.845-0.942-0.409
			c-3.327,3.817-6.879,7.488-10.571,11.094c-4.777,1.44-9.706,2.618-14.765,3.488c3.923-4.708,7.807-9.436,11.623-14.195
			c0.324-0.404-0.516-0.767-0.847-0.368c-4.054,4.893-8.032,9.813-11.967,14.757
			C1035.854,328.743,1032.062,329.195,1028.212,329.462z M1021.476,337.421c-0.074,0.091-0.138,0.186-0.188,0.282
			c-0.29-1.794-0.525-3.597-0.689-5.408c0.025,0.001,0.052,0.001,0.077,0.002c-0.003,0.063-0.009,0.126,0,0.198
			C1020.892,334.144,1021.169,335.785,1021.476,337.421z M1032.349,335.769c0.104-0.508,0.198-1.017,0.336-1.521
			c3.294,0.194,6.574,0.207,9.83,0.07C1039.153,334.884,1035.761,335.369,1032.349,335.769z M1126.659,273.375
			c-1.927,4.461-4.155,8.848-6.776,13.113c-14.59,23.751-45.233,44.744-81.186,44.979c4.242-0.538,8.415-1.333,12.513-2.315
			c0.135,0.073,0.316,0.083,0.471-0.042c0.037-0.031,0.072-0.065,0.11-0.096c5.253-1.286,10.365-2.916,15.289-4.839
			c0.149,0.01,0.306-0.03,0.411-0.151c0.007-0.009,0.014-0.017,0.021-0.026c14.573-5.758,27.465-14.086,37.376-23.707
			c22.758-22.089,30.228-50.845,29.391-78.136c-0.842-27.499-9.294-54.066-32.304-76.078
			c-20.843-19.939-49.915-34.694-81.839-43.088c-17.075-4.489-34.826-7.225-52.801-8.528c18.759,0.832,37.39,3.271,55.003,8.251
			c18.761,5.305,36.35,13.136,52.788,21.631c15.627,8.077,30.367,17.423,41.664,28.893c2.139,2.171,4.107,4.412,5.919,6.711
			c5.8,12.763,8.349,26.375,10.069,39.737C1135.851,223.54,1135.379,249.599,1126.659,273.375z M1138.681,219.621
			c-0.312-13.141-2.07-26.271-4.988-39.227c-0.231-1.025-0.476-2.053-0.726-3.079c2.213,5.28,3.77,10.729,4.699,16.27
			C1139.111,202.202,1139.275,210.924,1138.681,219.621z"/>
		<path fill="#1D1D1B" d="M827.627,289.11c-2.898,3.389-5.785,6.782-8.625,10.199c-2.466,2.967-5.47,5.912-7.093,9.192
			c-0.115,0.234,0.332,0.406,0.55,0.238c3.269-2.522,5.521-5.833,8.036-8.783c2.893-3.391,5.737-6.803,8.569-10.22
			C829.63,289.055,828.2,288.44,827.627,289.11z"/>
	</g>
	<path fill="#1D1D1B" d="M454.861,278.025l1.896,0.019c0.112,0.001,0.113,0.129,0,0.13l-1.896,0.018
		C454.716,278.194,454.716,278.024,454.861,278.025z"/>
	<path fill="none" stroke="#1D1D1B" stroke-width="0" stroke-linecap="round" stroke-linejoin="round" d="M455.809,278.117
		c-0.017,0-0.017-0.018,0-0.018"/>
	<g>
		<path fill="#1D1D1B" d="M278.983,154.108c1.537,21.31,5.505,43.975,16.055,64.374c4.386,10.663,10.401,21.002,19.552,29.869
			c19.953,19.338,51.597,29.181,83.406,32.53c1.041,12.449-5.615,25.591-12.036,36.633c-1.459,2.509-6.803,7.618-2.188,9.949
			c4.115,2.079,13.152,0.088,17.672-0.585c28.773-4.292,54.031-19.667,65.319-39.769c7.716,0.096,15.43,0.05,23.151-0.229
			c22.197-0.804,44.348-2.921,66.139-6.148c20.785-3.076,41.922-6.804,61.11-13.655c18.776-6.705,34.568-17.208,49.829-27.562
			c15.013-10.187,28.699-21.328,36.696-35.409c15.937-28.06,16.848-62.793,7.394-92.125c-8.664-26.88-28.27-51.771-57.323-69.255
			c-13.337-8.027-28.43-14.381-44.727-18.429c-21.599-5.362-44.654-6.822-67.221-8.172c-23.788-1.423-47.665-2.207-71.531-2.241
			c-21.563-0.03-43.202,0.967-63.779,6.111c-20.21,5.054-39.101,12.998-57.074,21.417c-16.141,7.56-31.613,16.459-41.979,28.564
			c-5.006,5.846-8.704,12.183-11.563,18.747C281.601,108.351,277.317,131.012,278.983,154.108z M433.35,18.743
			c-2.207,0.348-4.408,0.715-6.595,1.118c-22.409,4.119-43.065,11.789-62.583,20.808c-17.342,8.015-34.224,16.929-48.446,27.889
			c-1.192,0.917-2.337,1.851-3.463,2.792c5.777-6.496,12.912-12.284,21.388-17.39c15.709-9.459,34.023-17.295,52.123-23.934
			C401.032,24.43,416.801,20.648,433.35,18.743z M709.796,121.266c-7.356-23.761-24.133-45.776-47.074-63.165
			c-24.839-18.826-55.846-31.086-90.168-36.631c1.803,0.183,3.605,0.36,5.4,0.563c36.614,4.146,68.61,16.205,93.041,37.089
			C691.595,76.73,704.295,98.476,709.796,121.266z M599.089,30.388c3.285,0.936,6.513,1.971,9.707,3.064
			c-13.372-4.09-27.347-7.188-41.498-9.525C578.11,25.425,588.771,27.452,599.089,30.388z M710.261,151.723
			c-0.029,0.815-0.104,1.626-0.156,2.44c-0.533-0.7-1.075-1.397-1.615-2.095c0.673-10.708-0.341-21.473-3.061-31.949
			C708.925,130.408,710.65,141.023,710.261,151.723z M696.998,193.332c1.243-2.417,2.399-4.861,3.445-7.334
			c0.408,0.58,0.819,1.158,1.225,1.74c-1.057,2.39-2.236,4.748-3.472,7.089C697.798,194.329,697.399,193.829,696.998,193.332z
			 M697.764,195.643c-1.186,2.206-2.465,4.383-3.805,6.54c-0.375-0.498-0.742-1.003-1.124-1.499
			c1.312-2.134,2.561-4.291,3.712-6.481C696.953,194.682,697.359,195.162,697.764,195.643z M700.846,185.012
			c4.236-10.31,6.767-21.047,7.563-31.857c0.547,0.626,1.087,1.257,1.64,1.879c-0.799,10.86-3.561,21.602-8.038,31.94
			C701.632,186.317,701.243,185.663,700.846,185.012z M697.462,206.98c-0.392-0.563-0.819-1.112-1.221-1.671
			c1.493-2.317,2.912-4.659,4.227-7.033c0.153-0.066,0.248-0.193,0.193-0.336c5.216-9.479,8.991-19.385,11.156-29.473
			c-1.978,13.418-6.423,26.642-14.349,38.528C697.465,206.99,697.466,206.986,697.462,206.98z M678.275,227.473
			c6.496-6.524,12.227-13.47,17.057-20.73c0.137-0.206,0.26-0.417,0.394-0.622c0.307,0.404,0.63,0.802,0.933,1.21
			c0.115,0.153,0.307,0.19,0.48,0.156c-4.11,6.073-9.125,11.795-15.227,16.994C680.73,225.487,679.5,226.479,678.275,227.473z
			 M668.035,232.529c-0.458-0.62-0.932-1.235-1.398-1.852c7.697-6.511,14.523-13.64,20.32-21.339
			c1.896-2.519,3.66-5.091,5.306-7.709c0.387,0.488,0.753,0.984,1.135,1.473c-4.755,7.51-10.425,14.7-16.941,21.431
			C673.783,227.295,670.968,229.957,668.035,232.529z M501.729,280.682c-0.115-0.131-0.229-0.262-0.343-0.393
			c17.592-0.801,35.232-2.239,52.539-4.784c0.434,0.508,0.856,1.02,1.292,1.529c0.334,0.392,1.164,0.036,0.841-0.367
			c-0.355-0.44-0.721-0.878-1.078-1.318c3.779-0.566,7.541-1.179,11.283-1.855c0.317,0.309,0.616,0.628,0.935,0.936
			c0.491,0.472,1.586,0.023,1.101-0.478c-0.227-0.234-0.444-0.474-0.67-0.709c7.201-1.332,14.33-2.869,21.346-4.673
			c0.232,0.179,0.624,0.05,0.706-0.174c4.703-1.222,9.356-2.559,13.952-4.021c7.148-2.274,14.04-4.888,20.666-7.791
			c0.021,0.022,0.039,0.046,0.057,0.069c0.229,0.279,0.774,0.034,0.584-0.252c-0.018-0.025-0.035-0.048-0.053-0.073
			c7.802-3.449,15.224-7.308,22.178-11.578c0.286,0.331,0.57,0.663,0.856,0.992c0.421,0.488,1.446,0.049,1.049-0.456
			c-0.301-0.382-0.617-0.757-0.919-1.138c6.261-3.902,12.149-8.125,17.604-12.66c0.455,0.543,0.908,1.086,1.365,1.629
			c0.051,0.062,0.114,0.108,0.18,0.143c-21.65,18.707-49.994,32.222-82.118,39.304C557.883,278.561,529.861,280.213,501.729,280.682
			z M464.138,284.748c-1.84,0.009-3.681,0.005-5.521,0c0.134-0.737,0.22-1.475,0.193-2.212c11.31,0.571,22.607,0.939,33.943,0.997
			c3.609,0.019,7.233,0.007,10.866-0.032c-11.836,0.713-23.712,1.104-35.598,1.217c0.619-1.554-2.683-2.142-3.508-0.608
			C464.396,284.324,464.258,284.533,464.138,284.748z M485.181,280.849c0.653-0.013,1.305-0.013,1.96-0.032
			c4.263-0.118,8.535-0.279,12.811-0.465c0.106,0.118,0.21,0.235,0.315,0.353C495.239,280.782,490.209,280.828,485.181,280.849z
			 M458.795,280.901c-0.071,0-0.123,0.02-0.186,0.027c-0.012-0.06-0.017-0.12-0.032-0.179c1.479,0.018,2.959,0.036,4.439,0.058
			c0.029,0.028,0.057,0.059,0.086,0.087C461.668,280.897,460.229,280.897,458.795,280.901z M404.984,322.959
			c12.404-4.012,23.872-9.612,33.656-16.565c6.677-4.747,16.528-11.908,19.361-19.459c1.596,0.044,3.19,0.09,4.786,0.121
			C451.849,304.756,430.445,318.148,404.984,322.959z M393.758,315.845c2.868-4.201,5.397-8.535,7.562-12.961
			c3.406-6.964,5.811-14.128,7.358-21.418c0.125-0.063,0.233-0.139,0.33-0.222c-2.576,13.999-8.734,27.452-18.575,39.652
			c-1.001,1.241,0.649,2.607,2.407,2.327c1.089-0.174,2.17-0.364,3.247-0.563c-2.824,0.824-7.357,2.366-7.083-0.368
			C389.179,320.524,392.635,317.488,393.758,315.845z M405.71,278.225c-1.643-0.135-3.282-0.284-4.92-0.452
			c-0.223-0.741-0.474-1.479-0.791-2.204c2.087-0.184,4.175-0.425,6.265-0.741C406.104,275.963,405.916,277.095,405.71,278.225z
			 M398.399,300.377c2.088-6.086,3.931-12.788,3.122-19.153c1.175,0.107,2.35,0.203,3.523,0.292
			c-1.607,7.282-4.119,14.436-7.561,21.347C397.791,302.034,398.113,301.208,398.399,300.377z M389.722,269.232
			c-4.215-5.295-8.477-10.566-12.818-15.807c-0.355-0.427-1.255-0.039-0.907,0.394c4.088,5.098,8.248,10.162,12.45,15.206
			c-5.419-0.932-10.698-2.193-15.815-3.736c-3.955-3.862-7.761-7.794-11.323-11.883c-0.407-0.467-1.409-0.04-1.01,0.438
			c3.083,3.71,6.445,7.301,10.064,10.741c-4.886-1.571-9.605-3.421-14.143-5.497c-2.32-2.781-4.663-5.549-7.062-8.296
			c-0.313-0.359-1.076-0.034-0.777,0.337c1.883,2.338,3.797,4.66,5.731,6.97c-17.008-8.165-31.245-19.701-41.106-33.163
			c-21.446-29.282-23.983-65.555-16.321-97.875c13.252-55.91,79.484-93.038,151.766-102.749c40.197-5.401,82.439-3.554,122.07,3.459
			c34.407,6.09,68.646,17.02,93.447,36.294c19.563,15.203,31.87,34.105,37.471,54.186c-6.294-8.474-15.858-16.183-23.874-23.384
			c-0.559-0.501-1.483,0.211-0.954,0.708c5.257,4.937,10.514,9.88,15.499,14.972c3.665,3.742,6.771,7.809,10.326,11.604
			c1.1,4.691,1.834,9.438,2.222,14.208c-5.178-7.531-11.895-14.466-19.362-20.826c-0.485-0.413-1.281,0.187-0.806,0.598
			c4.578,3.967,8.826,8.122,12.68,12.492c1.724,1.956,3.371,3.948,4.93,5.978c0.833,1.084,1.644,2.73,2.7,3.914
			c0.177,2.997,0.214,5.999,0.115,9.002c-4.638-5.805-9.441-11.545-14.195-17.287c-0.379-0.458-1.347-0.04-0.972,0.421
			c4.989,6.137,9.945,12.313,15.095,18.386c-0.176,3.645-0.558,7.284-1.132,10.909c-4.297-6.238-9.607-12.031-15.513-17.508
			c-0.407-0.377-1.099,0.155-0.711,0.528c5.997,5.76,11.167,11.885,16,18.196c-0.629,3.683-1.485,7.343-2.52,10.975
			c-5.427-6.804-11.199-13.461-16.887-20.144c-0.36-0.423-1.262-0.036-0.907,0.394c5.76,6.952,11.446,13.955,17.5,20.772
			c-0.754,2.55-1.609,5.082-2.559,7.592c-5.341-7.901-11.833-15.36-19.052-22.391c-0.489-0.478-1.591-0.017-1.102,0.477
			c7.376,7.401,13.756,15.166,19.638,23.206c-1.034,2.632-2.189,5.233-3.439,7.808c-5.279-6.38-10.796-12.643-16.542-18.809
			c-0.426-0.456-1.436-0.026-1.009,0.438c5.843,6.375,11.52,12.833,17.08,19.348c-1.094,2.197-2.294,4.362-3.543,6.508
			c-3.656-4.492-7.563-8.866-11.795-13.101c-0.425-0.425-1.396-0.018-0.971,0.422c4.287,4.453,8.325,9.02,12.172,13.677
			c-1.344,2.258-2.791,4.478-4.305,6.67c-5.317-6.196-10.928-12.239-16.873-18.115c-0.428-0.424-1.401-0.015-0.971,0.421
			c5.971,6.059,11.734,12.222,17.306,18.485c-2.117,3.01-4.397,5.952-6.834,8.813c-6.003-7.357-12.562-14.457-19.301-21.449
			c-0.561-0.583-1.867-0.03-1.308,0.568c6.647,7.099,13.023,14.328,19.496,21.513c0.103,0.114,0.239,0.174,0.378,0.208
			c-1.541,1.776-3.156,3.515-4.821,5.225c-5.748-7.52-11.883-14.883-17.939-22.268c-0.486-0.593-1.733-0.054-1.255,0.545
			c6.02,7.58,11.97,15.204,18.316,22.636c-2.001,2.016-4.089,3.981-6.271,5.891c-0.197,0.173-0.404,0.332-0.603,0.504
			c-6.482-8.311-13.647-16.335-21.029-24.212c-0.48-0.512-1.615-0.033-1.139,0.495c7.293,8.088,14.166,16.363,21.076,24.627
			c-2.341,1.984-4.766,3.86-7.227,5.686c-5.41-7.656-11.364-15.102-17.653-22.375c-0.462-0.535-1.602-0.046-1.153,0.501
			c6.126,7.453,11.994,15.008,17.861,22.57c-3.031,2.211-6.155,4.296-9.352,6.283c-5.75-7.086-11.805-14.038-18.088-20.869
			c-0.48-0.521-1.624-0.04-1.153,0.501c6.091,6.995,12.116,14.02,18.168,21.032c-6.97,4.253-14.322,7.983-21.968,11.285
			c-4.811-6.881-10.155-13.57-15.536-20.203c-0.34-0.418-1.212-0.041-0.882,0.382c5.229,6.705,10.277,13.503,15.611,20.165
			c-3.126,1.334-6.307,2.591-9.527,3.783c-4.193-6.924-9.31-13.557-14.66-20.01c-0.37-0.445-1.31-0.04-0.946,0.411
			c5.262,6.509,9.958,13.212,14.744,19.907c-3.621,1.321-7.305,2.547-11.034,3.702c-5.597-7.827-12.079-15.271-19.035-22.468
			c-0.439-0.456-1.458-0.025-1.023,0.444c6.747,7.266,12.95,14.767,19.037,22.34c-3.914,1.194-7.888,2.297-11.904,3.323
			c-4.506-6.671-9.666-13.09-15.406-19.218c-0.387-0.413-1.303-0.028-0.92,0.4c5.532,6.188,10.602,12.542,15.324,19.075
			c-3.469,0.872-6.982,1.666-10.517,2.425c-4.209-5.55-8.853-10.902-13.748-16.13c-0.471-0.501-1.581-0.031-1.113,0.485
			c4.738,5.214,9.219,10.545,13.668,15.896c-3.403,0.719-6.839,1.369-10.293,1.99c-3.79-4.094-7.383-8.284-10.765-12.578
			c-0.435-0.551-1.566-0.059-1.153,0.501c3.158,4.271,6.626,8.385,10.417,12.346c-3.587,0.63-7.203,1.201-10.833,1.738
			c-4.409-5.411-8.864-10.798-13.39-16.156c-0.383-0.455-1.346-0.04-0.97,0.421c4.35,5.331,8.768,10.628,13.229,15.906
			c-3.61,0.526-7.241,1.001-10.885,1.444c0.021-0.089,0.012-0.185-0.068-0.287c-6.189-7.845-12.515-15.617-19.044-23.309
			c-0.447-0.526-1.555-0.05-1.127,0.49c6.2,7.83,12.59,15.564,19.129,23.242c-4.182,0.498-8.387,0.929-12.599,1.331
			c-3.918-4.489-7.898-8.946-11.974-13.357c-0.454-0.491-1.533-0.038-1.088,0.472c3.823,4.377,7.738,8.707,11.713,13.007
			c-3.972,0.369-7.955,0.689-11.94,0.987c-5.933-6.716-12.091-13.319-18.297-19.899c-0.432-0.458-1.447-0.032-1.021,0.444
			c5.854,6.573,11.751,13.122,17.862,19.563c-4.377,0.32-8.757,0.598-13.132,0.846c-4.541-5.196-9.099-10.383-13.726-15.536
			c-0.442-0.492-1.511-0.037-1.075,0.466c4.397,5.074,8.859,10.117,13.337,15.149c-2.56,0.141-5.115,0.261-7.669,0.382
			c-5.91-6.222-11.426-12.621-16.61-19.192c-0.479-0.607-1.728-0.064-1.27,0.551c4.859,6.515,10.329,12.739,16.287,18.721
			c-3.943,0.181-7.87,0.324-11.793,0.466c-3.881-6.6-9.365-12.687-15.481-18.243c-0.661-0.602-1.753,0.248-1.134,0.843
			c5.763,5.539,10.542,11.409,15.207,17.455c-4.146,0.146-8.256,0.26-12.367,0.375c-2.547-2.938-5.427-5.732-8.317-8.476
			c-0.315-0.3-1.002,0.1-0.707,0.405c2.58,2.675,5.03,5.426,7.59,8.114c-1.054,0.029-2.126,0.071-3.176,0.096
			c-0.31-0.263-0.899-0.235-1.161,0.036c-0.575,0.026-0.922,0.292-1.047,0.612c-0.621-0.302-1.532-0.254-1.657,0.426
			c-0.463,2.535-1.442,4.974-2.79,7.316c-2.241-3.146-4.921-6.148-7.676-8.998c-0.356-0.367-1.177-0.024-0.829,0.36
			c2.854,3.149,5.346,6.428,7.858,9.708c-1.822,2.88-4.212,5.597-6.935,8.138c-2.861-4.788-6.423-9.278-10.682-13.487
			c-0.397-0.392-1.294-0.028-0.907,0.393c4.085,4.429,7.605,9.087,10.678,13.932c-2.615,2.342-5.514,4.511-8.495,6.519
			c-2.737-4.08-5.775-8.026-9.107-11.861c-0.401-0.462-1.381-0.044-0.997,0.433c3.195,3.972,6.206,8.017,9.11,12.108
			c-1.132,0.744-2.272,1.462-3.414,2.154c-1.873,1.134-3.82,2.186-5.804,3.194c-2.339-3.204-4.826-6.353-7.4-9.452
			c-0.326-0.392-1.117-0.046-0.83,0.36c2.301,3.241,4.729,6.439,7.274,9.582c-2.585,1.277-5.264,2.437-8.006,3.502
			c-1.448-1.445-2.758-2.966-3.921-4.549c-0.392-0.533-1.451-0.062-1.088,0.472c1.1,1.612,2.395,3.108,3.851,4.529
			c-5.53,2.073-11.341,3.721-17.346,4.928c10.567-14.198,16.485-29.805,16.944-46.113c0.002-0.083-0.037-0.144-0.051-0.218
			c0.612-0.78,0.176-1.973-1.413-1.965c-3.022,0.019-6.018-0.077-8.985-0.258c-3.236-4.91-7.349-9.468-12.091-13.663
			c-0.406-0.36-1.077,0.155-0.69,0.513c4.46,4.112,8.233,8.476,11.595,13.071C397.779,270.365,393.718,269.88,389.722,269.232z
			 M409.977,273.9c0.009-0.076,0.004-0.144,0-0.212c0.027-0.001,0.055-0.001,0.083-0.002c-0.176,1.939-0.427,3.871-0.739,5.792
			c-0.054-0.104-0.122-0.205-0.201-0.303C409.447,277.423,409.744,275.665,409.977,273.9z M386.583,275.851
			c3.487,0.147,7.001,0.133,10.529-0.075c0.148,0.54,0.248,1.085,0.36,1.629C393.817,276.978,390.183,276.458,386.583,275.851z
			 M289.894,131.635c1.844-14.313,4.573-28.894,10.786-42.565c1.94-2.462,4.05-4.863,6.34-7.188
			c12.101-12.287,27.891-22.298,44.63-30.95c17.609-9.1,36.449-17.488,56.545-23.17c18.867-5.334,38.825-7.948,58.919-8.838
			c-19.254,1.396-38.269,4.326-56.56,9.135c-34.195,8.992-65.337,24.797-87.663,46.154c-24.648,23.58-33.702,52.038-34.604,81.494
			c-0.897,29.234,7.105,60.037,31.482,83.698c10.617,10.305,24.426,19.226,40.037,25.394c0.006,0.009,0.015,0.018,0.021,0.028
			c0.113,0.129,0.279,0.172,0.44,0.161c5.273,2.061,10.751,3.807,16.377,5.184c0.041,0.033,0.078,0.069,0.118,0.103
			c0.166,0.134,0.359,0.122,0.504,0.044c4.39,1.052,8.859,1.903,13.404,2.479c-38.511-0.251-71.336-22.738-86.965-48.18
			c-2.808-4.569-5.195-9.268-7.258-14.047C287.107,185.103,286.603,157.189,289.894,131.635z M284.658,125.101
			c0.996-5.935,2.664-11.772,5.033-17.428c-0.267,1.1-0.528,2.2-0.777,3.298c-3.125,13.879-5.01,27.943-5.344,42.02
			C282.934,143.675,283.11,134.332,284.658,125.101z"/>
		<path fill="#1D1D1B" d="M616.766,227.426c3.104,3.631,6.196,7.266,9.238,10.925c2.642,3.178,5.859,6.333,7.599,9.846
			c0.123,0.251-0.356,0.435-0.59,0.255c-3.501-2.702-5.914-6.249-8.607-9.408c-3.099-3.633-6.146-7.287-9.18-10.948
			C614.62,227.367,616.151,226.709,616.766,227.426z"/>
	</g>
</g>
<g id="Layer_2" display="none">
	<path display="inline" fill="#1D1D1B" d="M-224.221,764.441c6.208,7.262,12.393,14.531,18.476,21.851
		c5.284,6.355,11.719,12.665,15.197,19.692c0.247,0.502-0.711,0.869-1.179,0.511c-7.003-5.404-11.829-12.497-17.215-18.816
		c-6.198-7.266-12.292-14.574-18.359-21.896C-228.513,764.324-225.45,763.008-224.221,764.441z"/>
	<path display="inline" fill="#1D1D1B" d="M-187.15,728.39c6.208,7.262,12.393,14.531,18.476,21.851
		c5.284,6.355,11.719,12.665,15.197,19.692c0.247,0.502-0.711,0.869-1.179,0.511c-7.003-5.404-11.829-12.497-17.215-18.816
		c-6.198-7.266-12.292-14.574-18.359-21.896C-191.442,728.272-188.379,726.956-187.15,728.39z"/>
	<path display="inline" fill="#1D1D1B" d="M-179.815,719.087c6.208,7.262,12.393,14.531,18.476,21.851
		c5.284,6.355,11.719,12.665,15.197,19.692c0.247,0.502-0.711,0.869-1.179,0.511c-7.003-5.404-11.829-12.497-17.215-18.816
		c-6.198-7.266-12.292-14.574-18.359-21.896C-184.107,718.97-181.044,717.653-179.815,719.087z"/>
	<path display="inline" fill="#1D1D1B" d="M-194.101,735.399c6.208,7.262,12.393,14.531,18.476,21.851
		c5.284,6.355,11.719,12.665,15.197,19.692c0.247,0.502-0.711,0.869-1.179,0.511c-7.003-5.404-11.829-12.497-17.215-18.816
		c-6.198-7.266-12.292-14.574-18.359-21.896C-198.393,735.282-195.33,733.966-194.101,735.399z"/>
	<path display="inline" fill="#1D1D1B" d="M-202.466,745.831c6.208,7.262,12.393,14.531,18.476,21.851
		c5.284,6.355,11.719,12.665,15.197,19.692c0.247,0.502-0.711,0.869-1.179,0.511c-7.003-5.404-11.829-12.497-17.215-18.816
		c-6.198-7.266-12.292-14.574-18.359-21.896C-206.758,745.714-203.695,744.397-202.466,745.831z"/>
	<path display="inline" fill="#1D1D1B" d="M-212.636,754.433c6.208,7.262,12.393,14.531,18.476,21.851
		c5.284,6.355,11.719,12.665,15.197,19.692c0.247,0.502-0.711,0.869-1.179,0.511c-7.003-5.404-11.829-12.497-17.215-18.816
		c-6.198-7.266-12.292-14.574-18.359-21.896C-216.928,754.315-213.865,752.999-212.636,754.433z"/>
</g>
</svg>
