<?xml version="1.0" encoding="UTF-8" standalone="no"?>
<svg width="304px" height="464px" viewBox="0 0 304 464" version="1.1" xmlns="http://www.w3.org/2000/svg" xmlns:xlink="http://www.w3.org/1999/xlink">
    <!-- Generator: Sketch 41.2 (35397) - http://www.bohemiancoding.com/sketch -->
    <title>fractal</title>
    <desc>Created with Sketch.</desc>
    <defs></defs>
    <g id="Page-1" stroke="none" stroke-width="1" fill="none" fill-rule="evenodd" stroke-linecap="round" stroke-linejoin="round">
        <g id="Group" transform="translate(2.000000, -24.000000)" stroke="#4A4A4A" stroke-width="4">
            <g id="fractal" transform="translate(0.000000, 26.000000)">
                <path d="M100,360 L100,340 L80,340 L80,360 M80,360 L60,360 L60,380 L80,380 M80,380 L80,420 L60,420 L60,400 L100,400 M100,400 L100,420 L160,420 L160,400 M120,400 L120,460 L100,460 L100,440 L140,440 L140,400 L120,400 Z M220,400 L160,400 L220,400 Z M200,360 L200,460 L180,460 L180,440 L220,440 L220,420 L180,420 L180,360 L160,360 L160,380 L220,380 L220,400 M200,360 L220,360 L220,260 L200,260 M200,280 L200,340 L240,340 L240,280 L200,280 Z M200,320 L240,320 L200,320 Z M200,300 L240,300 L200,300 Z M240,320 L240,300 L260,300 L260,320 L240,320 Z M260,340 L260,320 L280,320 L280,340 L260,340 Z M280,320 L280,300 L300,300 L300,320 L280,320 Z M280,360 L280,340 L300,340 L300,360 L280,360 Z M260,380 L260,360 L280,360 L280,380 L260,380 Z M240,280 L240,260 L260,260 L260,280 L240,280 Z M180,320 L180,300 L200,300 L200,320 L180,320 Z M160,300 L160,280 L180,280 L180,300 L160,300 Z" id="bottom"></path>
                <path d="M100,40 L120,40 L120,20 L100,20 M100,20 L100,0 L80,0 L80,20 M80,20 L40,20 L40,0 L60,0 L60,40 M60,40 L40,40 L40,100 L60,100 M60,60 L0,60 L0,40 L20,40 L20,80 L60,80 L60,60 Z M100,140 L0,140 L0,120 L20,120 L20,160 L40,160 L40,120 L100,120 L100,100 L80,100 L80,160 L60,160 M60,160 L60,100 L60,160 Z M100,140 L100,160 L200,160 L200,140 M180,140 L120,140 L120,180 L180,180 L180,140 Z M140,140 L140,180 L140,140 Z M160,140 L160,180 L160,140 Z M140,180 L160,180 L160,200 L140,200 L140,180 Z M120,200 L140,200 L140,220 L120,220 L120,200 Z M140,220 L160,220 L160,240 L140,240 L140,220 Z M100,220 L120,220 L120,240 L100,240 L100,220 Z M80,200 L100,200 L100,220 L80,220 L80,200 Z M180,180 L200,180 L200,200 L180,200 L180,180 Z M140,120 L160,120 L160,140 L140,140 L140,120 Z M160,100 L180,100 L180,120 L160,120 L160,100 Z" id="top"></path>
                <path d="M240,160 L240,140 L260,140 L260,160 L240,160 Z M260,180 L260,160 L280,160 L280,180 L260,180 Z M280,160 L280,140 L300,140 L300,160 L280,160 Z M280,200 L280,180 L300,180 L300,200 L280,200 Z M260,220 L260,200 L280,200 L280,220 L260,220 Z M240,120 L240,100 L260,100 L260,120 L240,120 Z M220,140 L220,120 L240,120 L240,140 L220,140 Z M220,160 L220,140 L240,140 L240,160 L220,160 Z M200,160 L200,140 L220,140 L220,160 L200,160 Z M200,180 L200,160 L220,160 L220,180 L200,180 Z M220,180 L220,160 L240,160 L240,180 L220,180 Z M200,200 L200,180 L220,180 L220,200 L200,200 Z M200,240 L200,220 L220,220 L220,240 L200,240 Z M180,240 L180,220 L200,220 L200,240 L180,240 Z M180,220 L180,200 L200,200 L200,220 L180,220 Z M160,220 L160,200 L180,200 L180,220 L160,220 Z M200,240 L200,260" id="middle"></path>
            </g>
        </g>
    </g>
</svg>