<?xml version="1.0" encoding="utf-8"?>
<!-- Generator: Adobe Illustrator 16.0.0, SVG Export Plug-In . SVG Version: 6.00 Build 0)  -->
<!DOCTYPE svg PUBLIC "-//W3C//DTD SVG 1.1//EN" "http://www.w3.org/Graphics/SVG/1.1/DTD/svg11.dtd">
<svg version="1.1" xmlns="http://www.w3.org/2000/svg" xmlns:xlink="http://www.w3.org/1999/xlink" x="0px" y="0px" width="864px"
	 height="504px" viewBox="0 0 864 504" enable-background="new 0 0 864 504" xml:space="preserve">
<g id="Mind">
	<g>
		<path fill="#bf616a" d="M362.011,178.338v55.903H337.28V143.49h4.364l16.002,21.538V143.49h4.486l24.731,29.161l24.853-29.161
			h4.364v86.396h16.002V143.49h4.364v90.751h-24.73v-84.097l-22.67,26.5h-4.364l-22.67-26.741v21.659l25.822,32.55l-3.152,2.541
			L362.011,178.338z M357.646,229.885v-57.718l-16.002-21.538v79.256H357.646z"/>
		<path fill="#bf616a" d="M471.359,229.885v-68.487h4.364v72.843h-24.731V143.49h24.731v4.356h-20.366v82.04H471.359z"/>
		<path fill="#bf616a" d="M562.768,234.241l-16.003-27.467v27.467H542.4l-27.398-46.102v46.102h-24.731V143.49h4.364v86.396h16.003
			v-46.102h6.789l24.974,41.988v-26.5l-31.156-53.604l3.758-2.178l27.398,47.191V143.49h24.731v90.751H562.768z M546.765,198.183
			l16.003,27.588v-77.925h-16.003V198.183z"/>
		<path fill="#bf616a" d="M663.267,188.865c0,25.773-17.699,45.376-44.007,45.376h-37.582v-56.145h4.365v51.789h33.217
			c23.519,0,39.643-17.545,39.643-41.02c0-23.474-16.124-41.02-39.643-41.02h-12.851v13.552h10.426
			c13.093,0,24.853,13.31,24.853,27.467s-11.76,27.468-24.853,27.468h-14.79v-50.579h-20.367v-4.356h20.367V143.49h17.215
			C645.567,143.49,663.267,163.092,663.267,188.865z M606.409,211.977h10.426c11.518,0,20.488-11.737,20.488-23.111
			c0-11.374-8.971-23.111-20.488-23.111h-10.426V211.977z"/>
	</g>
</g>
<g id="ractaled">
	<g>
		<path fill="#bf616a" d="M185.361,96.286V49.337h20.316V23.443h21.887c7.86,0,13.544,7.623,13.544,15.125
			c0,3.872-1.572,7.744-4.111,10.527l7.014,14.157c8.707-4.84,14.39-13.915,14.39-24.685c0-16.335-12.939-28.798-29.99-28.798
			h-43.05V5.535h43.05c19.106,0,34.222,14.036,34.222,33.033c0,12.584-6.651,22.991-16.688,28.557l14.511,29.162h-27.571
			L221.76,71.602h-16.083V53.693h-15.962V91.93h20.315v4.356H185.361z M224.299,67.246h4.111c4.232,0,8.223-0.726,11.851-2.178
			l-8.465-17.061c3.023-2.057,4.958-6.171,4.958-9.438c0-4.477-3.627-10.769-9.19-10.769H210.03v21.539h6.288L224.299,67.246z
			 M213.537,53.693h-3.507v13.552h9.674L213.537,53.693z M235.545,91.93h18.018l-11.367-22.991
			c-4.232,1.694-8.949,2.662-13.786,2.662h-2.056L235.545,91.93z"/>
		<path fill="#bf616a" d="M292.619,82.855l4.958-16.819h-15.357l-9.07,25.895h19.711v4.356h-25.878L279.196,61.8h19.59l9.433-32.67
			h6.53l9.795,36.906h-22.492l-3.628,12.463h30.594l4.232,13.431h16.688L320.794,9.77h-18.623l-14.027,39.689l-4.112-1.331
			l15.116-42.593h24.669l32.167,90.751h-25.878l-4.232-13.431H292.619z M303.26,61.8h15.72l-7.498-28.314L303.26,61.8z"/>
		<path fill="#bf616a" d="M362.147,50.91c0,23.837,19.227,43.077,43.05,43.077c13.785,0,26.604-6.776,34.463-17.424l-13.785-8.107
			c-5.805,6.292-13.06,9.559-20.678,9.559c-21.042,0-39.664-15.972-39.664-37.269s18.623-37.269,39.664-37.269
			c17.292,0,32.409,9.317,40.631,23.111l-21.163,12.705c-3.99-6.534-11.246-11.132-19.469-11.132
			c-12.577,0-22.734,10.164-22.734,22.748h-4.354c0-15.004,12.093-27.104,27.088-27.104c7.618,0,14.874,3.267,20.678,9.559
			l13.785-8.107C431.8,14.61,418.499,7.833,405.197,7.833c-18.623,0-35.311,14.036-35.311,32.913s16.688,32.913,35.311,32.913
			c8.223,0,15.479-4.598,19.469-11.132l21.163,12.706c-8.223,13.794-23.339,23.111-40.631,23.111
			c-26.241,0-47.403-21.175-47.403-47.433H362.147z"/>
		<path fill="#bf616a" d="M526.723,5.535v22.264h-4.354V9.891h-65.543v13.552h45.105v72.843h-24.668V40.867h4.354V91.93h15.961
			V27.799h-45.105V5.535H526.723z"/>
		<path fill="#bf616a" d="M546.068,82.855l4.959-16.819H535.67L526.6,91.93h19.711v4.356h-25.879L532.646,61.8h19.59l9.432-32.67
			h6.531l9.795,36.906h-22.492l-3.629,12.463h30.594l4.232,13.431h16.689L574.244,9.77h-18.623l-14.027,39.689l-4.111-1.331
			L552.6,5.535h24.668l32.166,90.751h-25.877l-4.232-13.431H546.068z M556.711,61.8h15.721l-7.498-28.314L556.711,61.8z"/>
		<path fill="#bf616a" d="M618.498,78.257V5.535h24.67v54.935h-4.232V9.77H622.73v64.252h61.672v22.264h-65.904V91.93h61.672V78.257
			H618.498z"/>
		<path fill="#bf616a" d="M761.551,27.799h-47.766v-4.356h43.412V9.891h-59.375V40.02h55.385V61.8h-35.068v12.222h43.412v22.264
			h-68.082V57.444h4.354V91.93h59.375V78.378h-43.412V57.444h35.068V44.376l-55.385-0.121V5.535h68.082V27.799z"/>
		<path fill="#bf616a" d="M854.416,50.91c0,25.773-17.654,45.376-43.896,45.376h-37.486V40.141h4.354V91.93h33.133
			c23.461,0,39.543-17.545,39.543-41.02c0-23.474-16.082-41.02-39.543-41.02h-12.816v13.552h10.398
			c13.061,0,24.791,13.31,24.791,27.467s-11.73,27.468-24.791,27.468H793.35V27.799h-20.316v-4.356h20.316V5.535h17.17
			C836.762,5.535,854.416,25.137,854.416,50.91z M797.703,74.022h10.398c11.488,0,20.438-11.737,20.438-23.112
			c0-11.374-8.949-23.111-20.438-23.111h-10.398V74.022z"/>
	</g>
</g>
<g id="F_copy_2_1_" enable-background="new    ">
	<g id="F_copy_2">
		<g>
			<path fill="#bf616a" d="M178.8,30.24V5.52h-66l0.006,45.086l20.328,0.121L133.2,66.72l-20.394-0.044L112.8,71.04h20.4v20.88
				h-20.4v4.32h24.72v-25.2h32.88l0.002-24.668H137.49l0.03-16.132H178.8z M166.046,50.728l0.034,15.992h-28.56l-0.03-15.992
				H166.046z M133.2,25.92l-0.066,20.452h-15.972L117.12,9.84h57.36v16.08H133.2z"/>
		</g>
	</g>
</g>
<g id="NEWEST_DRAGON_1_">
	<g id="NEWEST_DRAGON_copy_1_">
		<g id="Shape_5">
			<g>
				<rect x="112.8" y="66.72" fill-rule="evenodd" clip-rule="evenodd" fill="#343C45" width="24.72" height="4.32"/>
			</g>
		</g>
		<g id="Shape_5_copy">
			<g>
				<rect x="133.2" y="46.32" fill="#343C45" width="4.32" height="24.72"/>
			</g>
		</g>
		<g id="Shape_5_copy_2">
			<g>
				<rect x="112.8" y="25.92" fill="#343C45" width="4.32" height="24.72"/>
			</g>
		</g>
		<g id="Shape_5_copy_3">
			<g>
				<rect x="112.8" y="46.32" fill="#343C45" width="24.72" height="4.32"/>
			</g>
		</g>
		<g id="Shape_5_copy_4">
			<g>
				<rect x="72" y="25.92" fill="#343C45" width="4.32" height="24.72"/>
			</g>
		</g>
		<g id="Shape_5_copy_5">
			<g>
				<rect x="72" y="46.32" fill="#343C45" width="24.72" height="4.32"/>
			</g>
		</g>
		<g id="Shape_5_copy_6">
			<g>
				<rect x="92.4" y="25.92" fill="#343C45" width="24.72" height="4.32"/>
			</g>
		</g>
		<g id="Shape_5_copy_7">
			<g>
				<rect x="92.4" y="25.92" fill="#343C45" width="4.32" height="24.72"/>
			</g>
		</g>
		<g id="Shape_5_copy_8">
			<g>
				<rect x="31.2" y="66.72" fill="#343C45" width="4.32" height="24.72"/>
			</g>
		</g>
		<g id="Shape_5_copy_9">
			<g>
				<rect x="31.2" y="87.12" fill="#343C45" width="24.72" height="4.32"/>
			</g>
		</g>
		<g id="Shape_5_copy_10">
			<g>
				<rect x="51.6" y="66.72" fill="#343C45" width="24.72" height="4.32"/>
			</g>
		</g>
		<g id="Shape_5_copy_11">
			<g>
				<rect x="51.6" y="66.72" fill="#343C45" width="4.32" height="24.72"/>
			</g>
		</g>
		<g id="Shape_5_copy_12">
			<g>
				<rect x="51.6" y="25.92" fill="#343C45" width="24.72" height="4.32"/>
			</g>
		</g>
		<g id="Shape_5_copy_13">
			<g>
				<rect x="51.6" y="25.92" fill="#343C45" width="4.32" height="24.72"/>
			</g>
		</g>
		<g id="Shape_5_copy_14">
			<g>
				<rect x="72" y="46.32" fill="#343C45" width="4.32" height="24.72"/>
			</g>
		</g>
		<g id="Shape_5_copy_15">
			<g>
				<rect x="51.6" y="46.32" fill="#343C45" width="24.72" height="4.32"/>
			</g>
		</g>
		<g id="Shape_5_copy_16">
			<g>
				<rect x="31.2" y="148.32" fill="#343C45" width="4.32" height="24.72"/>
			</g>
		</g>
		<g id="Shape_5_copy_17">
			<g>
				<rect x="31.2" y="168.72" fill="#343C45" width="24.72" height="4.32"/>
			</g>
		</g>
		<g id="Shape_5_copy_18">
			<g>
				<rect x="51.6" y="148.32" fill="#343C45" width="24.72" height="4.32"/>
			</g>
		</g>
		<g id="Shape_5_copy_19">
			<g>
				<rect x="51.6" y="148.32" fill="#343C45" width="4.32" height="24.72"/>
			</g>
		</g>
		<g id="Shape_5_copy_20">
			<g>
				<rect x="51.6" y="107.52" fill="#343C45" width="24.72" height="4.32"/>
			</g>
		</g>
		<g id="Shape_5_copy_21">
			<g>
				<rect x="51.6" y="107.52" fill="#343C45" width="4.32" height="24.72"/>
			</g>
		</g>
		<g id="Shape_5_copy_22">
			<g>
				<rect x="72" y="127.92" fill="#343C45" width="4.32" height="24.72"/>
			</g>
		</g>
		<g id="Shape_5_copy_23">
			<g>
				<rect x="51.6" y="127.92" fill="#343C45" width="24.72" height="4.32"/>
			</g>
		</g>
		<g id="Shape_5_copy_24">
			<g>
				<rect x="10.8" y="66.72" fill="#343C45" width="24.72" height="4.32"/>
			</g>
		</g>
		<g id="Shape_5_copy_25">
			<g>
				<rect x="10.8" y="66.72" fill="#343C45" width="4.32" height="24.72"/>
			</g>
		</g>
		<g id="Shape_5_copy_26">
			<g>
				<rect x="31.2" y="87.12" fill="#343C45" width="4.32" height="24.72"/>
			</g>
		</g>
		<g id="Shape_5_copy_27">
			<g>
				<rect x="10.8" y="87.12" fill="#343C45" width="24.72" height="4.32"/>
			</g>
		</g>
		<g id="Shape_5_copy_28">
			<g>
				<rect x="72" y="87.12" fill="#343C45" width="4.32" height="24.72"/>
			</g>
		</g>
		<g id="Shape_5_copy_29">
			<g>
				<rect x="51.6" y="87.12" fill="#343C45" width="24.72" height="4.32"/>
			</g>
		</g>
		<g id="Shape_5_copy_30">
			<g>
				<rect x="31.2" y="107.52" fill="#343C45" width="24.72" height="4.32"/>
			</g>
		</g>
		<g id="Shape_5_copy_31">
			<g>
				<rect x="51.6" y="87.12" fill="#343C45" width="4.32" height="24.72"/>
			</g>
		</g>
		<g id="Shape_5_copy_32">
			<g>
				<rect x="112.8" y="229.92" fill="#343C45" width="4.32" height="24.72"/>
			</g>
		</g>
		<g id="Shape_5_copy_33">
			<g>
				<rect x="112.8" y="250.32" fill="#343C45" width="24.72" height="4.32"/>
			</g>
		</g>
		<g id="Shape_5_copy_34">
			<g>
				<rect x="133.2" y="229.92" fill="#343C45" width="24.72" height="4.32"/>
			</g>
		</g>
		<g id="Shape_5_copy_35">
			<g>
				<rect x="133.2" y="229.92" fill="#343C45" width="4.32" height="24.72"/>
			</g>
		</g>
		<g id="Shape_5_copy_36">
			<g>
				<rect x="133.2" y="189.12" fill="#343C45" width="24.72" height="4.32"/>
			</g>
		</g>
		<g id="Shape_5_copy_37">
			<g>
				<rect x="133.2" y="189.12" fill="#343C45" width="4.32" height="24.72"/>
			</g>
		</g>
		<g id="Shape_5_copy_38">
			<g>
				<rect x="153.6" y="209.52" fill="#343C45" width="4.32" height="24.72"/>
			</g>
		</g>
		<g id="Shape_5_copy_39">
			<g>
				<rect x="133.2" y="209.52" fill="#343C45" width="24.72" height="4.32"/>
			</g>
		</g>
		<g id="Shape_5_copy_40">
			<g>
				<rect x="92.4" y="148.32" fill="#343C45" width="24.72" height="4.32"/>
			</g>
		</g>
		<g id="Shape_5_copy_41">
			<g>
				<rect x="92.4" y="148.32" fill="#343C45" width="4.32" height="24.72"/>
			</g>
		</g>
		<g id="Shape_5_copy_42">
			<g>
				<rect x="112.8" y="168.72" fill="#343C45" width="4.32" height="24.72"/>
			</g>
		</g>
		<g id="Shape_5_copy_43">
			<g>
				<rect x="92.4" y="168.72" fill="#343C45" width="24.72" height="4.32"/>
			</g>
		</g>
		<g id="Shape_5_copy_44">
			<g>
				<rect x="153.6" y="168.72" fill="#343C45" width="4.32" height="24.72"/>
			</g>
		</g>
		<g id="Shape_5_copy_45">
			<g>
				<rect x="133.2" y="168.72" fill="#343C45" width="24.72" height="4.32"/>
			</g>
		</g>
		<g id="Shape_5_copy_46">
			<g>
				<rect x="112.8" y="189.12" fill="#343C45" width="24.72" height="4.32"/>
			</g>
		</g>
		<g id="Shape_5_copy_47">
			<g>
				<rect x="133.2" y="168.72" fill="#343C45" width="4.32" height="24.72"/>
			</g>
		</g>
		<g id="Shape_5_copy_48">
			<g>
				<rect x="10.8" y="148.32" fill="#343C45" width="24.72" height="4.32"/>
			</g>
		</g>
		<g id="Shape_5_copy_49">
			<g>
				<rect x="10.8" y="148.32" fill="#343C45" width="4.32" height="24.72"/>
			</g>
		</g>
		<g id="Shape_5_copy_50">
			<g>
				<rect x="31.2" y="168.72" fill="#343C45" width="4.32" height="24.72"/>
			</g>
		</g>
		<g id="Shape_5_copy_51">
			<g>
				<rect x="10.8" y="168.72" fill="#343C45" width="24.72" height="4.32"/>
			</g>
		</g>
		<g id="Shape_5_copy_52">
			<g>
				<rect x="72" y="168.72" fill="#343C45" width="4.32" height="24.72"/>
			</g>
		</g>
		<g id="Shape_5_copy_53">
			<g>
				<rect x="51.6" y="168.72" fill="#343C45" width="24.72" height="4.32"/>
			</g>
		</g>
		<g id="Shape_5_copy_54">
			<g>
				<rect x="31.2" y="189.12" fill="#343C45" width="24.72" height="4.32"/>
			</g>
		</g>
		<g id="Shape_5_copy_55">
			<g>
				<rect x="51.6" y="168.72" fill="#343C45" width="4.32" height="24.72"/>
			</g>
		</g>
		<g id="Shape_5_copy_56">
			<g>
				<rect x="112.8" y="127.92" fill="#343C45" width="4.32" height="24.72"/>
			</g>
		</g>
		<g id="Shape_5_copy_57">
			<g>
				<rect x="92.4" y="127.92" fill="#343C45" width="24.72" height="4.32"/>
			</g>
		</g>
		<g id="Shape_5_copy_58">
			<g>
				<rect x="72" y="148.32" fill="#343C45" width="24.72" height="4.32"/>
			</g>
		</g>
		<g id="Shape_5_copy_59">
			<g>
				<rect x="92.4" y="127.92" fill="#343C45" width="4.32" height="24.72"/>
			</g>
		</g>
		<g id="Shape_5_copy_60">
			<g>
				<rect x="72" y="189.12" fill="#343C45" width="24.72" height="4.32"/>
			</g>
		</g>
		<g id="Shape_5_copy_61">
			<g>
				<rect x="92.4" y="168.72" fill="#343C45" width="4.32" height="24.72"/>
			</g>
		</g>
		<g id="Shape_5_copy_62">
			<g>
				<rect x="72" y="148.32" fill="#343C45" width="4.32" height="24.72"/>
			</g>
		</g>
		<g id="Shape_5_copy_63">
			<g>
				<rect x="72" y="168.72" fill="#343C45" width="24.72" height="4.32"/>
			</g>
		</g>
		<g id="Shape_5_copy_64">
			<g>
				<rect x="276" y="229.92" fill="#343C45" width="4.32" height="24.72"/>
			</g>
		</g>
		<g id="Shape_5_copy_65">
			<g>
				<rect x="276" y="250.32" fill="#343C45" width="24.72" height="4.32"/>
			</g>
		</g>
		<g id="Shape_5_copy_66">
			<g>
				<rect x="296.4" y="229.92" fill="#343C45" width="24.72" height="4.32"/>
			</g>
		</g>
		<g id="Shape_5_copy_67">
			<g>
				<rect x="296.4" y="229.92" fill="#343C45" width="4.32" height="24.72"/>
			</g>
		</g>
		<g id="Shape_5_copy_68">
			<g>
				<rect x="296.4" y="189.12" fill="#343C45" width="24.72" height="4.32"/>
			</g>
		</g>
		<g id="Shape_5_copy_69">
			<g>
				<rect x="296.4" y="189.12" fill="#343C45" width="4.32" height="24.72"/>
			</g>
		</g>
		<g id="Shape_5_copy_70">
			<g>
				<rect x="316.8" y="209.52" fill="#343C45" width="4.32" height="24.72"/>
			</g>
		</g>
		<g id="Shape_5_copy_71">
			<g>
				<rect x="296.4" y="209.52" fill="#343C45" width="24.72" height="4.32"/>
			</g>
		</g>
		<g id="Shape_5_copy_72">
			<g>
				<rect x="255.6" y="148.32" fill="#343C45" width="24.72" height="4.32"/>
			</g>
		</g>
		<g id="Shape_5_copy_73">
			<g>
				<rect x="255.6" y="148.32" fill="#343C45" width="4.32" height="24.72"/>
			</g>
		</g>
		<g id="Shape_5_copy_74">
			<g>
				<rect x="276" y="168.72" fill="#343C45" width="4.32" height="24.72"/>
			</g>
		</g>
		<g id="Shape_5_copy_75">
			<g>
				<rect x="255.6" y="168.72" fill="#343C45" width="24.72" height="4.32"/>
			</g>
		</g>
		<g id="Shape_5_copy_76">
			<g>
				<rect x="316.8" y="168.72" fill="#343C45" width="4.32" height="24.72"/>
			</g>
		</g>
		<g id="Shape_5_copy_77">
			<g>
				<rect x="296.4" y="168.72" fill="#343C45" width="24.72" height="4.32"/>
			</g>
		</g>
		<g id="Shape_5_copy_78">
			<g>
				<rect x="276" y="189.12" fill="#343C45" width="24.72" height="4.32"/>
			</g>
		</g>
		<g id="Shape_5_copy_79">
			<g>
				<rect x="296.4" y="168.72" fill="#343C45" width="4.32" height="24.72"/>
			</g>
		</g>
		<g id="Shape_5_copy_80">
			<g>
				<rect x="174" y="148.32" fill="#343C45" width="24.72" height="4.32"/>
			</g>
		</g>
		<g id="Shape_5_copy_81">
			<g>
				<rect x="174" y="148.32" fill="#343C45" width="4.32" height="24.72"/>
			</g>
		</g>
		<g id="Shape_5_copy_82">
			<g>
				<rect x="194.4" y="168.72" fill="#343C45" width="4.32" height="24.72"/>
			</g>
		</g>
		<g id="Shape_5_copy_83">
			<g>
				<rect x="174" y="168.72" fill="#343C45" width="24.72" height="4.32"/>
			</g>
		</g>
		<g id="Shape_5_copy_84">
			<g>
				<rect x="235.2" y="168.72" fill="#343C45" width="4.32" height="24.72"/>
			</g>
		</g>
		<g id="Shape_5_copy_85">
			<g>
				<rect x="214.8" y="168.72" fill="#343C45" width="24.72" height="4.32"/>
			</g>
		</g>
		<g id="Shape_5_copy_86">
			<g>
				<rect x="194.4" y="189.12" fill="#343C45" width="24.72" height="4.32"/>
			</g>
		</g>
		<g id="Shape_5_copy_87">
			<g>
				<rect x="214.8" y="168.72" fill="#343C45" width="4.32" height="24.72"/>
			</g>
		</g>
		<g id="Shape_5_copy_88">
			<g>
				<rect x="276" y="127.92" fill="#343C45" width="4.32" height="24.72"/>
			</g>
		</g>
		<g id="Shape_5_copy_89">
			<g>
				<rect x="255.6" y="127.92" fill="#343C45" width="24.72" height="4.32"/>
			</g>
		</g>
		<g id="Shape_5_copy_90">
			<g>
				<rect x="235.2" y="148.32" fill="#343C45" width="24.72" height="4.32"/>
			</g>
		</g>
		<g id="Shape_5_copy_91">
			<g>
				<rect x="255.6" y="127.92" fill="#343C45" width="4.32" height="24.72"/>
			</g>
		</g>
		<g id="Shape_5_copy_92">
			<g>
				<rect x="235.2" y="189.12" fill="#343C45" width="24.72" height="4.32"/>
			</g>
		</g>
		<g id="Shape_5_copy_93">
			<g>
				<rect x="255.6" y="168.72" fill="#343C45" width="4.32" height="24.72"/>
			</g>
		</g>
		<g id="Shape_5_copy_94">
			<g>
				<rect x="235.2" y="148.32" fill="#343C45" width="4.32" height="24.72"/>
			</g>
		</g>
		<g id="Shape_5_copy_95">
			<g>
				<rect x="235.2" y="168.72" fill="#343C45" width="24.72" height="4.32"/>
			</g>
		</g>
		<g id="Shape_5_copy_96">
			<g>
				<rect x="92.4" y="229.92" fill="#343C45" width="24.72" height="4.32"/>
			</g>
		</g>
		<g id="Shape_5_copy_97">
			<g>
				<rect x="92.4" y="229.92" fill="#343C45" width="4.32" height="24.72"/>
			</g>
		</g>
		<g id="Shape_5_copy_98">
			<g>
				<rect x="112.8" y="250.32" fill="#343C45" width="4.32" height="24.72"/>
			</g>
		</g>
		<g id="Shape_5_copy_99">
			<g>
				<rect x="92.4" y="250.32" fill="#343C45" width="24.72" height="4.32"/>
			</g>
		</g>
		<g id="Shape_5_copy_100">
			<g>
				<rect x="153.6" y="250.32" fill="#343C45" width="4.32" height="24.72"/>
			</g>
		</g>
		<g id="Shape_5_copy_101">
			<g>
				<rect x="133.2" y="250.32" fill="#343C45" width="24.72" height="4.32"/>
			</g>
		</g>
		<g id="Shape_5_copy_102">
			<g>
				<rect x="112.8" y="270.72" fill="#343C45" width="24.72" height="4.32"/>
			</g>
		</g>
		<g id="Shape_5_copy_103">
			<g>
				<rect x="133.2" y="250.32" fill="#343C45" width="4.32" height="24.72"/>
			</g>
		</g>
		<g id="Shape_5_copy_104">
			<g>
				<rect x="194.4" y="209.52" fill="#343C45" width="4.32" height="24.72"/>
			</g>
		</g>
		<g id="Shape_5_copy_105">
			<g>
				<rect x="174" y="209.52" fill="#343C45" width="24.72" height="4.32"/>
			</g>
		</g>
		<g id="Shape_5_copy_106">
			<g>
				<rect x="153.6" y="229.92" fill="#343C45" width="24.72" height="4.32"/>
			</g>
		</g>
		<g id="Shape_5_copy_107">
			<g>
				<rect x="174" y="209.52" fill="#343C45" width="4.32" height="24.72"/>
			</g>
		</g>
		<g id="Shape_5_copy_108">
			<g>
				<rect x="153.6" y="270.72" fill="#343C45" width="24.72" height="4.32"/>
			</g>
		</g>
		<g id="Shape_5_copy_109">
			<g>
				<rect x="174" y="250.32" fill="#343C45" width="4.32" height="24.72"/>
			</g>
		</g>
		<g id="Shape_5_copy_110">
			<g>
				<rect x="153.6" y="229.92" fill="#343C45" width="4.32" height="24.72"/>
			</g>
		</g>
		<g id="Shape_5_copy_111">
			<g>
				<rect x="153.6" y="250.32" fill="#343C45" width="24.72" height="4.32"/>
			</g>
		</g>
		<g id="Shape_5_copy_112">
			<g>
				<rect x="194.4" y="127.92" fill="#343C45" width="4.32" height="24.72"/>
			</g>
		</g>
		<g id="Shape_5_copy_113">
			<g>
				<rect x="174" y="127.92" fill="#343C45" width="24.72" height="4.32"/>
			</g>
		</g>
		<g id="Shape_5_copy_114">
			<g>
				<rect x="153.6" y="148.32" fill="#343C45" width="24.72" height="4.32"/>
			</g>
		</g>
		<g id="Shape_5_copy_115">
			<g>
				<rect x="174" y="127.92" fill="#343C45" width="4.32" height="24.72"/>
			</g>
		</g>
		<g id="Shape_5_copy_116">
			<g>
				<rect x="153.6" y="189.12" fill="#343C45" width="24.72" height="4.32"/>
			</g>
		</g>
		<g id="Shape_5_copy_117">
			<g>
				<rect x="174" y="168.72" fill="#343C45" width="4.32" height="24.72"/>
			</g>
		</g>
		<g id="Shape_5_copy_118">
			<g>
				<rect x="153.6" y="148.32" fill="#343C45" width="4.32" height="24.72"/>
			</g>
		</g>
		<g id="Shape_5_copy_119">
			<g>
				<rect x="153.6" y="168.72" fill="#343C45" width="24.72" height="4.32"/>
			</g>
		</g>
		<g id="Shape_5_copy_120">
			<g>
				<rect x="194.4" y="229.92" fill="#343C45" width="24.72" height="4.32"/>
			</g>
		</g>
		<g id="Shape_5_copy_121">
			<g>
				<rect x="214.8" y="209.52" fill="#343C45" width="4.32" height="24.72"/>
			</g>
		</g>
		<g id="Shape_5_copy_122">
			<g>
				<rect x="194.4" y="189.12" fill="#343C45" width="4.32" height="24.72"/>
			</g>
		</g>
		<g id="Shape_5_copy_123">
			<g>
				<rect x="194.4" y="209.52" fill="#343C45" width="24.72" height="4.32"/>
			</g>
		</g>
		<g id="Shape_5_copy_124">
			<g>
				<rect x="153.6" y="189.12" fill="#343C45" width="4.32" height="24.72"/>
			</g>
		</g>
		<g id="Shape_5_copy_125">
			<g>
				<rect x="153.6" y="209.52" fill="#343C45" width="24.72" height="4.32"/>
			</g>
		</g>
		<g id="Shape_5_copy_126">
			<g>
				<rect x="174" y="189.12" fill="#343C45" width="24.72" height="4.32"/>
			</g>
		</g>
		<g id="Shape_5_copy_127">
			<g>
				<rect x="174" y="189.12" fill="#343C45" width="4.32" height="24.72"/>
			</g>
		</g>
	</g>
	<g id="Shape_5_1_">
		<g>
			<rect x="112.8" y="372.72" fill="#343C45" width="4.32" height="24.721"/>
		</g>
	</g>
	<g id="Shape_5_copy_1_">
		<g>
			<rect x="92.4" y="372.72" fill="#343C45" width="24.72" height="4.32"/>
		</g>
	</g>
	<g id="Shape_5_copy_2_1_">
		<g>
			<rect x="72" y="393.12" fill="#343C45" width="24.72" height="4.32"/>
		</g>
	</g>
	<g id="Shape_5_copy_3_1_">
		<g>
			<rect x="92.4" y="372.72" fill="#343C45" width="4.32" height="24.721"/>
		</g>
	</g>
	<g id="Shape_5_copy_4_1_">
		<g>
			<rect x="72" y="433.92" fill="#343C45" width="24.72" height="4.32"/>
		</g>
	</g>
	<g id="Shape_5_copy_5_1_">
		<g>
			<rect x="92.4" y="413.52" fill="#343C45" width="4.32" height="24.721"/>
		</g>
	</g>
	<g id="Shape_5_copy_6_1_">
		<g>
			<rect x="72" y="393.12" fill="#343C45" width="4.32" height="24.72"/>
		</g>
	</g>
	<g id="Shape_5_copy_7_1_">
		<g>
			<rect x="72" y="413.52" fill="#343C45" width="24.72" height="4.32"/>
		</g>
	</g>
	<g id="Shape_5_copy_8_1_">
		<g>
			<rect x="112.8" y="474.72" fill="#343C45" width="24.72" height="4.32"/>
		</g>
	</g>
	<g id="Shape_5_copy_9_1_">
		<g>
			<rect x="133.2" y="454.32" fill="#343C45" width="4.32" height="24.72"/>
		</g>
	</g>
	<g id="Shape_5_copy_10_1_">
		<g>
			<rect x="112.8" y="433.92" fill="#343C45" width="4.32" height="24.72"/>
		</g>
	</g>
	<g id="Shape_5_copy_11_1_">
		<g>
			<rect x="112.8" y="454.32" fill="#343C45" width="24.72" height="4.319"/>
		</g>
	</g>
	<g id="Shape_5_copy_12_1_">
		<g>
			<rect x="72" y="433.92" fill="#343C45" width="4.32" height="24.72"/>
		</g>
	</g>
	<g id="Shape_5_copy_13_1_">
		<g>
			<rect x="72" y="454.32" fill="#343C45" width="24.72" height="4.319"/>
		</g>
	</g>
	<g id="Shape_5_copy_14_1_">
		<g>
			<rect x="92.4" y="433.92" fill="#343C45" width="24.72" height="4.32"/>
		</g>
	</g>
	<g id="Shape_5_copy_15_1_">
		<g>
			<rect x="92.4" y="433.92" fill="#343C45" width="4.32" height="24.72"/>
		</g>
	</g>
	<g id="Shape_5_copy_16_1_">
		<g>
			<rect x="194.4" y="474.72" fill="#343C45" width="24.72" height="4.32"/>
		</g>
	</g>
	<g id="Shape_5_copy_17_1_">
		<g>
			<rect x="214.8" y="454.32" fill="#343C45" width="4.32" height="24.72"/>
		</g>
	</g>
	<g id="Shape_5_copy_18_1_">
		<g>
			<rect x="194.4" y="433.92" fill="#343C45" width="4.32" height="24.72"/>
		</g>
	</g>
	<g id="Shape_5_copy_19_1_">
		<g>
			<rect x="194.4" y="454.32" fill="#343C45" width="24.72" height="4.319"/>
		</g>
	</g>
	<g id="Shape_5_copy_20_1_">
		<g>
			<rect x="153.6" y="433.92" fill="#343C45" width="4.32" height="24.72"/>
		</g>
	</g>
	<g id="Shape_5_copy_21_1_">
		<g>
			<rect x="153.6" y="454.32" fill="#343C45" width="24.72" height="4.319"/>
		</g>
	</g>
	<g id="Shape_5_copy_22_1_">
		<g>
			<rect x="174" y="433.92" fill="#343C45" width="24.72" height="4.32"/>
		</g>
	</g>
	<g id="Shape_5_copy_23_1_">
		<g>
			<rect x="174" y="433.92" fill="#343C45" width="4.32" height="24.72"/>
		</g>
	</g>
	<g id="Shape_5_copy_24_1_">
		<g>
			<rect x="112.8" y="474.72" fill="#343C45" width="4.32" height="24.721"/>
		</g>
	</g>
	<g id="Shape_5_copy_25_1_">
		<g>
			<rect x="112.8" y="495.12" fill="#343C45" width="24.72" height="4.32"/>
		</g>
	</g>
	<g id="Shape_5_copy_26_1_">
		<g>
			<rect x="133.2" y="474.72" fill="#343C45" width="24.72" height="4.32"/>
		</g>
	</g>
	<g id="Shape_5_copy_27_1_">
		<g>
			<rect x="133.2" y="474.72" fill="#343C45" width="4.32" height="24.721"/>
		</g>
	</g>
	<g id="Shape_5_copy_28_1_">
		<g>
			<rect x="133.2" y="433.92" fill="#343C45" width="24.72" height="4.32"/>
		</g>
	</g>
	<g id="Shape_5_copy_29_1_">
		<g>
			<rect x="133.2" y="433.92" fill="#343C45" width="4.32" height="24.72"/>
		</g>
	</g>
	<g id="Shape_5_copy_30_1_">
		<g>
			<rect x="153.6" y="454.32" fill="#343C45" width="4.32" height="24.72"/>
		</g>
	</g>
	<g id="Shape_5_copy_31_1_">
		<g>
			<rect x="133.2" y="454.32" fill="#343C45" width="24.72" height="4.319"/>
		</g>
	</g>
	<g id="Shape_5_copy_32_1_">
		<g>
			<rect x="276" y="393.12" fill="#343C45" width="24.72" height="4.32"/>
		</g>
	</g>
	<g id="Shape_5_copy_33_1_">
		<g>
			<rect x="296.4" y="372.72" fill="#343C45" width="4.32" height="24.721"/>
		</g>
	</g>
	<g id="Shape_5_copy_34_1_">
		<g>
			<rect x="276" y="352.32" fill="#343C45" width="4.32" height="24.72"/>
		</g>
	</g>
	<g id="Shape_5_copy_35_1_">
		<g>
			<rect x="276" y="372.72" fill="#343C45" width="24.72" height="4.32"/>
		</g>
	</g>
	<g id="Shape_5_copy_36_1_">
		<g>
			<rect x="235.2" y="352.32" fill="#343C45" width="4.32" height="24.72"/>
		</g>
	</g>
	<g id="Shape_5_copy_37_1_">
		<g>
			<rect x="235.2" y="372.72" fill="#343C45" width="24.72" height="4.32"/>
		</g>
	</g>
	<g id="Shape_5_copy_38_1_">
		<g>
			<rect x="255.6" y="352.32" fill="#343C45" width="24.72" height="4.319"/>
		</g>
	</g>
	<g id="Shape_5_copy_39_1_">
		<g>
			<rect x="255.6" y="352.32" fill="#343C45" width="4.32" height="24.72"/>
		</g>
	</g>
	<g id="Shape_5_copy_40_1_">
		<g>
			<rect x="194.4" y="393.12" fill="#343C45" width="4.32" height="24.72"/>
		</g>
	</g>
	<g id="Shape_5_copy_41_1_">
		<g>
			<rect x="194.4" y="413.52" fill="#343C45" width="24.72" height="4.32"/>
		</g>
	</g>
	<g id="Shape_5_copy_42_1_">
		<g>
			<rect x="214.8" y="393.12" fill="#343C45" width="24.72" height="4.32"/>
		</g>
	</g>
	<g id="Shape_5_copy_43_1_">
		<g>
			<rect x="214.8" y="393.12" fill="#343C45" width="4.32" height="24.72"/>
		</g>
	</g>
	<g id="Shape_5_copy_44_1_">
		<g>
			<rect x="214.8" y="352.32" fill="#343C45" width="24.72" height="4.319"/>
		</g>
	</g>
	<g id="Shape_5_copy_45_1_">
		<g>
			<rect x="214.8" y="352.32" fill="#343C45" width="4.32" height="24.72"/>
		</g>
	</g>
	<g id="Shape_5_copy_46_1_">
		<g>
			<rect x="235.2" y="372.72" fill="#343C45" width="4.32" height="24.721"/>
		</g>
	</g>
	<g id="Shape_5_copy_47_1_">
		<g>
			<rect x="214.8" y="372.72" fill="#343C45" width="24.72" height="4.32"/>
		</g>
	</g>
	<g id="Shape_5_copy_48_1_">
		<g>
			<rect x="194.4" y="474.72" fill="#343C45" width="4.32" height="24.721"/>
		</g>
	</g>
	<g id="Shape_5_copy_49_1_">
		<g>
			<rect x="194.4" y="495.12" fill="#343C45" width="24.72" height="4.32"/>
		</g>
	</g>
	<g id="Shape_5_copy_50_1_">
		<g>
			<rect x="214.8" y="474.72" fill="#343C45" width="24.72" height="4.32"/>
		</g>
	</g>
	<g id="Shape_5_copy_51_1_">
		<g>
			<rect x="214.8" y="474.72" fill="#343C45" width="4.32" height="24.721"/>
		</g>
	</g>
	<g id="Shape_5_copy_52_1_">
		<g>
			<rect x="214.8" y="433.92" fill="#343C45" width="24.72" height="4.32"/>
		</g>
	</g>
	<g id="Shape_5_copy_53_1_">
		<g>
			<rect x="214.8" y="433.92" fill="#343C45" width="4.32" height="24.72"/>
		</g>
	</g>
	<g id="Shape_5_copy_54_1_">
		<g>
			<rect x="235.2" y="454.32" fill="#343C45" width="4.32" height="24.72"/>
		</g>
	</g>
	<g id="Shape_5_copy_55_1_">
		<g>
			<rect x="214.8" y="454.32" fill="#343C45" width="24.72" height="4.319"/>
		</g>
	</g>
	<g id="Shape_5_copy_56_1_">
		<g>
			<rect x="174" y="393.12" fill="#343C45" width="24.72" height="4.32"/>
		</g>
	</g>
	<g id="Shape_5_copy_57_1_">
		<g>
			<rect x="174" y="393.12" fill="#343C45" width="4.32" height="24.72"/>
		</g>
	</g>
	<g id="Shape_5_copy_58_1_">
		<g>
			<rect x="194.4" y="413.52" fill="#343C45" width="4.32" height="24.721"/>
		</g>
	</g>
	<g id="Shape_5_copy_59_1_">
		<g>
			<rect x="174" y="413.52" fill="#343C45" width="24.72" height="4.32"/>
		</g>
	</g>
	<g id="Shape_5_copy_60_1_">
		<g>
			<rect x="235.2" y="413.52" fill="#343C45" width="4.32" height="24.721"/>
		</g>
	</g>
	<g id="Shape_5_copy_61_1_">
		<g>
			<rect x="214.8" y="413.52" fill="#343C45" width="24.72" height="4.32"/>
		</g>
	</g>
	<g id="Shape_5_copy_62_1_">
		<g>
			<rect x="194.4" y="433.92" fill="#343C45" width="24.72" height="4.32"/>
		</g>
	</g>
	<g id="Shape_5_copy_63_1_">
		<g>
			<rect x="214.8" y="413.52" fill="#343C45" width="4.32" height="24.721"/>
		</g>
	</g>
	<g id="Shape_5_copy_64_1_">
		<g>
			<rect x="276" y="229.92" fill="#343C45" width="24.72" height="4.32"/>
		</g>
	</g>
	<g id="Shape_5_copy_65_1_">
		<g>
			<rect x="296.4" y="209.52" fill="#343C45" width="4.32" height="24.72"/>
		</g>
	</g>
	<g id="Shape_5_copy_66_1_">
		<g>
			<rect x="276" y="189.12" fill="#343C45" width="4.32" height="24.72"/>
		</g>
	</g>
	<g id="Shape_5_copy_67_1_">
		<g>
			<rect x="276" y="209.52" fill="#343C45" width="24.72" height="4.32"/>
		</g>
	</g>
	<g id="Shape_5_copy_68_1_">
		<g>
			<rect x="235.2" y="189.12" fill="#343C45" width="4.32" height="24.72"/>
		</g>
	</g>
	<g id="Shape_5_copy_69_1_">
		<g>
			<rect x="235.2" y="209.52" fill="#343C45" width="24.72" height="4.32"/>
		</g>
	</g>
	<g id="Shape_5_copy_70_1_">
		<g>
			<rect x="255.6" y="189.12" fill="#343C45" width="24.72" height="4.32"/>
		</g>
	</g>
	<g id="Shape_5_copy_71_1_">
		<g>
			<rect x="255.6" y="189.12" fill="#343C45" width="4.32" height="24.72"/>
		</g>
	</g>
	<g id="Shape_5_copy_72_1_">
		<g>
			<rect x="194.4" y="229.92" fill="#343C45" width="4.32" height="24.72"/>
		</g>
	</g>
	<g id="Shape_5_copy_73_1_">
		<g>
			<rect x="194.4" y="250.32" fill="#343C45" width="24.72" height="4.32"/>
		</g>
	</g>
	<g id="Shape_5_copy_74_1_">
		<g>
			<rect x="214.8" y="229.92" fill="#343C45" width="24.72" height="4.32"/>
		</g>
	</g>
	<g id="Shape_5_copy_75_1_">
		<g>
			<rect x="214.8" y="229.92" fill="#343C45" width="4.32" height="24.72"/>
		</g>
	</g>
	<g id="Shape_5_copy_76_1_">
		<g>
			<rect x="214.8" y="189.12" fill="#343C45" width="24.72" height="4.32"/>
		</g>
	</g>
	<g id="Shape_5_copy_77_1_">
		<g>
			<rect x="214.8" y="189.12" fill="#343C45" width="4.32" height="24.72"/>
		</g>
	</g>
	<g id="Shape_5_copy_78_1_">
		<g>
			<rect x="235.2" y="209.52" fill="#343C45" width="4.32" height="24.72"/>
		</g>
	</g>
	<g id="Shape_5_copy_79_1_">
		<g>
			<rect x="214.8" y="209.52" fill="#343C45" width="24.72" height="4.32"/>
		</g>
	</g>
	<g id="Shape_5_copy_80_1_">
		<g>
			<rect x="194.4" y="311.52" fill="#343C45" width="4.32" height="24.721"/>
		</g>
	</g>
	<g id="Shape_5_copy_81_1_">
		<g>
			<rect x="194.4" y="331.92" fill="#343C45" width="24.72" height="4.32"/>
		</g>
	</g>
	<g id="Shape_5_copy_82_1_">
		<g>
			<rect x="214.8" y="311.52" fill="#343C45" width="24.72" height="4.32"/>
		</g>
	</g>
	<g id="Shape_5_copy_83_1_">
		<g>
			<rect x="214.8" y="311.52" fill="#343C45" width="4.32" height="24.721"/>
		</g>
	</g>
	<g id="Shape_5_copy_84_1_">
		<g>
			<rect x="214.8" y="270.72" fill="#343C45" width="24.72" height="4.32"/>
		</g>
	</g>
	<g id="Shape_5_copy_85_1_">
		<g>
			<rect x="214.8" y="270.72" fill="#343C45" width="4.32" height="24.721"/>
		</g>
	</g>
	<g id="Shape_5_copy_86_1_">
		<g>
			<rect x="235.2" y="291.12" fill="#343C45" width="4.32" height="24.72"/>
		</g>
	</g>
	<g id="Shape_5_copy_87_1_">
		<g>
			<rect x="214.8" y="291.12" fill="#343C45" width="24.72" height="4.32"/>
		</g>
	</g>
	<g id="Shape_5_copy_88_1_">
		<g>
			<rect x="174" y="229.92" fill="#343C45" width="24.72" height="4.32"/>
		</g>
	</g>
	<g id="Shape_5_copy_89_1_">
		<g>
			<rect x="174" y="229.92" fill="#343C45" width="4.32" height="24.72"/>
		</g>
	</g>
	<g id="Shape_5_copy_90_1_">
		<g>
			<rect x="194.4" y="250.32" fill="#343C45" width="4.32" height="24.72"/>
		</g>
	</g>
	<g id="Shape_5_copy_91_1_">
		<g>
			<rect x="174" y="250.32" fill="#343C45" width="24.72" height="4.32"/>
		</g>
	</g>
	<g id="Shape_5_copy_92_1_">
		<g>
			<rect x="235.2" y="250.32" fill="#343C45" width="4.32" height="24.72"/>
		</g>
	</g>
	<g id="Shape_5_copy_93_1_">
		<g>
			<rect x="214.8" y="250.32" fill="#343C45" width="24.72" height="4.32"/>
		</g>
	</g>
	<g id="Shape_5_copy_94_1_">
		<g>
			<rect x="194.4" y="270.72" fill="#343C45" width="24.72" height="4.32"/>
		</g>
	</g>
	<g id="Shape_5_copy_95_1_">
		<g>
			<rect x="214.8" y="250.32" fill="#343C45" width="4.32" height="24.72"/>
		</g>
	</g>
	<g id="Shape_5_copy_96_1_">
		<g>
			<rect x="276" y="393.12" fill="#343C45" width="4.32" height="24.72"/>
		</g>
	</g>
	<g id="Shape_5_copy_97_1_">
		<g>
			<rect x="276" y="413.52" fill="#343C45" width="24.72" height="4.32"/>
		</g>
	</g>
	<g id="Shape_5_copy_98_1_">
		<g>
			<rect x="296.4" y="393.12" fill="#343C45" width="24.72" height="4.32"/>
		</g>
	</g>
	<g id="Shape_5_copy_99_1_">
		<g>
			<rect x="296.4" y="393.12" fill="#343C45" width="4.32" height="24.72"/>
		</g>
	</g>
	<g id="Shape_5_copy_100_1_">
		<g>
			<rect x="296.4" y="352.32" fill="#343C45" width="24.72" height="4.319"/>
		</g>
	</g>
	<g id="Shape_5_copy_101_1_">
		<g>
			<rect x="296.4" y="352.32" fill="#343C45" width="4.32" height="24.72"/>
		</g>
	</g>
	<g id="Shape_5_copy_102_1_">
		<g>
			<rect x="316.8" y="372.72" fill="#343C45" width="4.32" height="24.721"/>
		</g>
	</g>
	<g id="Shape_5_copy_103_1_">
		<g>
			<rect x="296.4" y="372.72" fill="#343C45" width="24.72" height="4.32"/>
		</g>
	</g>
	<g id="Shape_5_copy_104_1_">
		<g>
			<rect x="255.6" y="311.52" fill="#343C45" width="24.72" height="4.32"/>
		</g>
	</g>
	<g id="Shape_5_copy_105_1_">
		<g>
			<rect x="255.6" y="311.52" fill="#343C45" width="4.32" height="24.721"/>
		</g>
	</g>
	<g id="Shape_5_copy_106_1_">
		<g>
			<rect x="276" y="331.92" fill="#343C45" width="4.32" height="24.72"/>
		</g>
	</g>
	<g id="Shape_5_copy_107_1_">
		<g>
			<rect x="255.6" y="331.92" fill="#343C45" width="24.72" height="4.32"/>
		</g>
	</g>
	<g id="Shape_5_copy_108_1_">
		<g>
			<rect x="316.8" y="331.92" fill="#343C45" width="4.32" height="24.72"/>
		</g>
	</g>
	<g id="Shape_5_copy_109_1_">
		<g>
			<rect x="296.4" y="331.92" fill="#343C45" width="24.72" height="4.32"/>
		</g>
	</g>
	<g id="Shape_5_copy_110_1_">
		<g>
			<rect x="276" y="352.32" fill="#343C45" width="24.72" height="4.319"/>
		</g>
	</g>
	<g id="Shape_5_copy_111_1_">
		<g>
			<rect x="296.4" y="331.92" fill="#343C45" width="4.32" height="24.72"/>
		</g>
	</g>
	<g id="Shape_5_copy_112_1_">
		<g>
			<rect x="174" y="311.52" fill="#343C45" width="24.72" height="4.32"/>
		</g>
	</g>
	<g id="Shape_5_copy_113_1_">
		<g>
			<rect x="174" y="311.52" fill="#343C45" width="4.32" height="24.721"/>
		</g>
	</g>
	<g id="Shape_5_copy_114_1_">
		<g>
			<rect x="194.4" y="331.92" fill="#343C45" width="4.32" height="24.72"/>
		</g>
	</g>
	<g id="Shape_5_copy_115_1_">
		<g>
			<rect x="174" y="331.92" fill="#343C45" width="24.72" height="4.32"/>
		</g>
	</g>
	<g id="Shape_5_copy_116_1_">
		<g>
			<rect x="235.2" y="331.92" fill="#343C45" width="4.32" height="24.72"/>
		</g>
	</g>
	<g id="Shape_5_copy_117_1_">
		<g>
			<rect x="214.8" y="331.92" fill="#343C45" width="24.72" height="4.32"/>
		</g>
	</g>
	<g id="Shape_5_copy_118_1_">
		<g>
			<rect x="194.4" y="352.32" fill="#343C45" width="24.72" height="4.319"/>
		</g>
	</g>
	<g id="Shape_5_copy_119_1_">
		<g>
			<rect x="214.8" y="331.92" fill="#343C45" width="4.32" height="24.72"/>
		</g>
	</g>
	<g id="Shape_5_copy_120_1_">
		<g>
			<rect x="276" y="291.12" fill="#343C45" width="4.32" height="24.72"/>
		</g>
	</g>
	<g id="Shape_5_copy_121_1_">
		<g>
			<rect x="255.6" y="291.12" fill="#343C45" width="24.72" height="4.32"/>
		</g>
	</g>
	<g id="Shape_5_copy_122_1_">
		<g>
			<rect x="235.2" y="311.52" fill="#343C45" width="24.72" height="4.32"/>
		</g>
	</g>
	<g id="Shape_5_copy_123_1_">
		<g>
			<rect x="255.6" y="291.12" fill="#343C45" width="4.32" height="24.72"/>
		</g>
	</g>
	<g id="Shape_5_copy_124_1_">
		<g>
			<rect x="235.2" y="352.32" fill="#343C45" width="24.72" height="4.319"/>
		</g>
	</g>
	<g id="Shape_5_copy_125_1_">
		<g>
			<rect x="255.6" y="331.92" fill="#343C45" width="4.32" height="24.72"/>
		</g>
	</g>
	<g id="Shape_5_copy_126_1_">
		<g>
			<rect x="235.2" y="311.52" fill="#343C45" width="4.32" height="24.721"/>
		</g>
	</g>
	<g id="Shape_5_copy_127_1_">
		<g>
			<rect x="235.2" y="331.92" fill="#343C45" width="24.72" height="4.32"/>
		</g>
	</g>
</g>
</svg>
