<?xml version="1.0" encoding="utf-8"?>
<!-- Generator: Adobe Illustrator 16.0.0, SVG Export Plug-In . SVG Version: 6.00 Build 0)  -->
<!DOCTYPE svg PUBLIC "-//W3C//DTD SVG 1.1//EN" "http://www.w3.org/Graphics/SVG/1.1/DTD/svg11.dtd">
<svg version="1.1" xmlns="http://www.w3.org/2000/svg" xmlns:xlink="http://www.w3.org/1999/xlink" x="0px" y="0px"
	 width="716.781px" height="463.784px" viewBox="0 0 716.781 463.784" enable-background="new 0 0 716.781 463.784"
	 xml:space="preserve">
<g id="Mind">
</g>
<g id="ractaled">
</g>
<g id="F_copy_2_1_" enable-background="new    ">
</g>
<g id="NEWEST_DRAGON_1_">
	<g id="NEWEST_DRAGON_copy_1_">
	</g>
	<text transform="matrix(1.0019 0 0 1 271.2759 223.0024)" fill="#BF616A" font-family="'Kelso-Bold'" font-size="100.6629">Mind</text>
	<text transform="matrix(0.9993 0 0 1 144.9053 108.2349)" fill="#BF616A" font-family="'Kelso-Bold'" font-size="100.6629">ractaled</text>
	<g id="F_copy_2">
		<g>
			<path fill="#BF616A" d="M145.483,53.291V32.725H90.576l0.005,37.509l16.911,0.101l0.056,13.304l-16.966-0.036l-0.005,3.631
				h16.972v17.37H90.576v3.595h20.565V87.233h27.354l0.001-20.522h-27.381l0.025-13.42H145.483z M134.873,70.334l0.028,13.304
				h-23.76l-0.025-13.304H134.873z M107.548,49.697l-0.056,17.014H94.205L94.17,36.319h47.72v13.378H107.548z"/>
		</g>
	</g>
	<g id="Shape_5">
		<g>
			<rect x="90.576" y="83.638" fill-rule="evenodd" clip-rule="evenodd" fill="#282828" width="20.565" height="3.595"/>
		</g>
	</g>
	<g id="Shape_5_copy">
		<g>
			<rect x="107.548" y="66.667" fill="#282828" width="3.593" height="20.565"/>
		</g>
	</g>
	<g id="Shape_5_copy_2">
		<g>
			<rect x="90.576" y="49.697" fill="#282828" width="3.594" height="20.564"/>
		</g>
	</g>
	<g id="Shape_5_copy_3">
		<g>
			<rect x="90.576" y="66.667" fill="#282828" width="20.565" height="3.594"/>
		</g>
	</g>
	<g id="Shape_5_copy_4">
		<g>
			<rect x="56.634" y="49.697" fill="#282828" width="3.593" height="20.564"/>
		</g>
	</g>
	<g id="Shape_5_copy_5">
		<g>
			<rect x="56.634" y="66.667" fill="#282828" width="20.564" height="3.594"/>
		</g>
	</g>
	<g id="Shape_5_copy_6">
		<g>
			<rect x="73.605" y="49.697" fill="#282828" width="20.565" height="3.594"/>
		</g>
	</g>
	<g id="Shape_5_copy_7">
		<g>
			<rect x="73.605" y="49.697" fill="#282828" width="3.594" height="20.564"/>
		</g>
	</g>
	<g id="Shape_5_copy_8">
		<g>
			<rect x="22.691" y="83.638" fill="#282828" width="3.593" height="20.565"/>
		</g>
	</g>
	<g id="Shape_5_copy_9">
		<g>
			<rect x="22.691" y="100.61" fill="#282828" width="20.565" height="3.594"/>
		</g>
	</g>
	<g id="Shape_5_copy_10">
		<g>
			<rect x="39.662" y="83.638" fill="#282828" width="20.565" height="3.595"/>
		</g>
	</g>
	<g id="Shape_5_copy_11">
		<g>
			<rect x="39.662" y="83.638" fill="#282828" width="3.594" height="20.565"/>
		</g>
	</g>
	<g id="Shape_5_copy_12">
		<g>
			<rect x="39.662" y="49.697" fill="#282828" width="20.565" height="3.594"/>
		</g>
	</g>
	<g id="Shape_5_copy_13">
		<g>
			<rect x="39.662" y="49.697" fill="#282828" width="3.594" height="20.564"/>
		</g>
	</g>
	<g id="Shape_5_copy_14">
		<g>
			<rect x="56.634" y="66.667" fill="#282828" width="3.593" height="20.565"/>
		</g>
	</g>
	<g id="Shape_5_copy_15">
		<g>
			<rect x="39.662" y="66.667" fill="#282828" width="20.565" height="3.594"/>
		</g>
	</g>
	<g id="Shape_5_copy_16">
		<g>
			<rect x="22.691" y="151.524" fill="#282828" width="3.593" height="20.565"/>
		</g>
	</g>
	<g id="Shape_5_copy_17">
		<g>
			<rect x="22.691" y="168.495" fill="#282828" width="20.565" height="3.595"/>
		</g>
	</g>
	<g id="Shape_5_copy_18">
		<g>
			<rect x="39.662" y="151.524" fill="#282828" width="20.565" height="3.594"/>
		</g>
	</g>
	<g id="Shape_5_copy_19">
		<g>
			<rect x="39.662" y="151.524" fill="#282828" width="3.594" height="20.565"/>
		</g>
	</g>
	<g id="Shape_5_copy_20">
		<g>
			<rect x="39.662" y="117.582" fill="#282828" width="20.565" height="3.593"/>
		</g>
	</g>
	<g id="Shape_5_copy_21">
		<g>
			<rect x="39.662" y="117.582" fill="#282828" width="3.594" height="20.565"/>
		</g>
	</g>
	<g id="Shape_5_copy_22">
		<g>
			<rect x="56.634" y="134.552" fill="#282828" width="3.593" height="20.565"/>
		</g>
	</g>
	<g id="Shape_5_copy_23">
		<g>
			<rect x="39.662" y="134.552" fill="#282828" width="20.565" height="3.595"/>
		</g>
	</g>
	<g id="Shape_5_copy_24">
		<g>
			<rect x="5.72" y="83.638" fill="#282828" width="20.565" height="3.595"/>
		</g>
	</g>
	<g id="Shape_5_copy_25">
		<g>
			<rect x="5.72" y="83.638" fill="#282828" width="3.594" height="20.565"/>
		</g>
	</g>
	<g id="Shape_5_copy_26">
		<g>
			<rect x="22.691" y="100.61" fill="#282828" width="3.593" height="20.564"/>
		</g>
	</g>
	<g id="Shape_5_copy_27">
		<g>
			<rect x="5.72" y="100.61" fill="#282828" width="20.565" height="3.594"/>
		</g>
	</g>
	<g id="Shape_5_copy_28">
		<g>
			<rect x="56.634" y="100.61" fill="#282828" width="3.593" height="20.564"/>
		</g>
	</g>
	<g id="Shape_5_copy_29">
		<g>
			<rect x="39.662" y="100.61" fill="#282828" width="20.565" height="3.594"/>
		</g>
	</g>
	<g id="Shape_5_copy_30">
		<g>
			<rect x="22.691" y="117.582" fill="#282828" width="20.565" height="3.593"/>
		</g>
	</g>
	<g id="Shape_5_copy_31">
		<g>
			<rect x="39.662" y="100.61" fill="#282828" width="3.594" height="20.564"/>
		</g>
	</g>
	<g id="Shape_5_copy_32">
		<g>
			<rect x="90.576" y="219.409" fill="#282828" width="3.594" height="20.565"/>
		</g>
	</g>
	<g id="Shape_5_copy_33">
		<g>
			<rect x="90.576" y="236.38" fill="#282828" width="20.565" height="3.594"/>
		</g>
	</g>
	<g id="Shape_5_copy_34">
		<g>
			<rect x="107.548" y="219.409" fill="#282828" width="20.565" height="3.595"/>
		</g>
	</g>
	<g id="Shape_5_copy_35">
		<g>
			<rect x="107.548" y="219.409" fill="#282828" width="3.593" height="20.565"/>
		</g>
	</g>
	<g id="Shape_5_copy_36">
		<g>
			<rect x="107.548" y="185.466" fill="#282828" width="20.565" height="3.594"/>
		</g>
	</g>
	<g id="Shape_5_copy_37">
		<g>
			<rect x="107.548" y="185.466" fill="#282828" width="3.593" height="20.565"/>
		</g>
	</g>
	<g id="Shape_5_copy_38">
		<g>
			<rect x="124.519" y="202.438" fill="#282828" width="3.594" height="20.565"/>
		</g>
	</g>
	<g id="Shape_5_copy_39">
		<g>
			<rect x="107.548" y="202.438" fill="#282828" width="20.565" height="3.594"/>
		</g>
	</g>
	<g id="Shape_5_copy_40">
		<g>
			<rect x="73.605" y="151.524" fill="#282828" width="20.565" height="3.594"/>
		</g>
	</g>
	<g id="Shape_5_copy_41">
		<g>
			<rect x="73.605" y="151.524" fill="#282828" width="3.594" height="20.565"/>
		</g>
	</g>
	<g id="Shape_5_copy_42">
		<g>
			<rect x="90.576" y="168.495" fill="#282828" width="3.594" height="20.565"/>
		</g>
	</g>
	<g id="Shape_5_copy_43">
		<g>
			<rect x="73.605" y="168.495" fill="#282828" width="20.565" height="3.595"/>
		</g>
	</g>
	<g id="Shape_5_copy_44">
		<g>
			<rect x="124.519" y="168.495" fill="#282828" width="3.594" height="20.565"/>
		</g>
	</g>
	<g id="Shape_5_copy_45">
		<g>
			<rect x="107.548" y="168.495" fill="#282828" width="20.565" height="3.595"/>
		</g>
	</g>
	<g id="Shape_5_copy_46">
		<g>
			<rect x="90.576" y="185.466" fill="#282828" width="20.565" height="3.594"/>
		</g>
	</g>
	<g id="Shape_5_copy_47">
		<g>
			<rect x="107.548" y="168.495" fill="#282828" width="3.593" height="20.565"/>
		</g>
	</g>
	<g id="Shape_5_copy_48">
		<g>
			<rect x="5.72" y="151.524" fill="#282828" width="20.565" height="3.594"/>
		</g>
	</g>
	<g id="Shape_5_copy_49">
		<g>
			<rect x="5.72" y="151.524" fill="#282828" width="3.594" height="20.565"/>
		</g>
	</g>
	<g id="Shape_5_copy_50">
		<g>
			<rect x="22.691" y="168.495" fill="#282828" width="3.593" height="20.565"/>
		</g>
	</g>
	<g id="Shape_5_copy_51">
		<g>
			<rect x="5.72" y="168.495" fill="#282828" width="20.565" height="3.595"/>
		</g>
	</g>
	<g id="Shape_5_copy_52">
		<g>
			<rect x="56.634" y="168.495" fill="#282828" width="3.593" height="20.565"/>
		</g>
	</g>
	<g id="Shape_5_copy_53">
		<g>
			<rect x="39.662" y="168.495" fill="#282828" width="20.565" height="3.595"/>
		</g>
	</g>
	<g id="Shape_5_copy_54">
		<g>
			<rect x="22.691" y="185.466" fill="#282828" width="20.565" height="3.594"/>
		</g>
	</g>
	<g id="Shape_5_copy_55">
		<g>
			<rect x="39.662" y="168.495" fill="#282828" width="3.594" height="20.565"/>
		</g>
	</g>
	<g id="Shape_5_copy_56">
		<g>
			<rect x="90.576" y="134.552" fill="#282828" width="3.594" height="20.565"/>
		</g>
	</g>
	<g id="Shape_5_copy_57">
		<g>
			<rect x="73.605" y="134.552" fill="#282828" width="20.565" height="3.595"/>
		</g>
	</g>
	<g id="Shape_5_copy_58">
		<g>
			<rect x="56.634" y="151.524" fill="#282828" width="20.564" height="3.594"/>
		</g>
	</g>
	<g id="Shape_5_copy_59">
		<g>
			<rect x="73.605" y="134.552" fill="#282828" width="3.594" height="20.565"/>
		</g>
	</g>
	<g id="Shape_5_copy_60">
		<g>
			<rect x="56.634" y="185.466" fill="#282828" width="20.564" height="3.594"/>
		</g>
	</g>
	<g id="Shape_5_copy_61">
		<g>
			<rect x="73.605" y="168.495" fill="#282828" width="3.594" height="20.565"/>
		</g>
	</g>
	<g id="Shape_5_copy_62">
		<g>
			<rect x="56.634" y="151.524" fill="#282828" width="3.593" height="20.565"/>
		</g>
	</g>
	<g id="Shape_5_copy_63">
		<g>
			<rect x="56.634" y="168.495" fill="#282828" width="20.564" height="3.595"/>
		</g>
	</g>
	<g id="Shape_5_copy_64">
		<g>
			<rect x="226.347" y="219.409" fill="#282828" width="3.594" height="20.565"/>
		</g>
	</g>
	<g id="Shape_5_copy_65">
		<g>
			<rect x="226.347" y="236.38" fill="#282828" width="20.564" height="3.594"/>
		</g>
	</g>
	<g id="Shape_5_copy_66">
		<g>
			<rect x="243.317" y="219.409" fill="#282828" width="20.565" height="3.595"/>
		</g>
	</g>
	<g id="Shape_5_copy_67">
		<g>
			<rect x="243.317" y="219.409" fill="#282828" width="3.594" height="20.565"/>
		</g>
	</g>
	<g id="Shape_5_copy_68">
		<g>
			<rect x="243.317" y="185.466" fill="#282828" width="20.565" height="3.594"/>
		</g>
	</g>
	<g id="Shape_5_copy_69">
		<g>
			<rect x="243.317" y="185.466" fill="#282828" width="3.594" height="20.565"/>
		</g>
	</g>
	<g id="Shape_5_copy_70">
		<g>
			<rect x="260.289" y="202.438" fill="#282828" width="3.594" height="20.565"/>
		</g>
	</g>
	<g id="Shape_5_copy_71">
		<g>
			<rect x="243.317" y="202.438" fill="#282828" width="20.565" height="3.594"/>
		</g>
	</g>
	<g id="Shape_5_copy_72">
		<g>
			<rect x="209.376" y="151.524" fill="#282828" width="20.564" height="3.594"/>
		</g>
	</g>
	<g id="Shape_5_copy_73">
		<g>
			<rect x="209.376" y="151.524" fill="#282828" width="3.593" height="20.565"/>
		</g>
	</g>
	<g id="Shape_5_copy_74">
		<g>
			<rect x="226.347" y="168.495" fill="#282828" width="3.594" height="20.565"/>
		</g>
	</g>
	<g id="Shape_5_copy_75">
		<g>
			<rect x="209.376" y="168.495" fill="#282828" width="20.564" height="3.595"/>
		</g>
	</g>
	<g id="Shape_5_copy_76">
		<g>
			<rect x="260.289" y="168.495" fill="#282828" width="3.594" height="20.565"/>
		</g>
	</g>
	<g id="Shape_5_copy_77">
		<g>
			<rect x="243.317" y="168.495" fill="#282828" width="20.565" height="3.595"/>
		</g>
	</g>
	<g id="Shape_5_copy_78">
		<g>
			<rect x="226.347" y="185.466" fill="#282828" width="20.564" height="3.594"/>
		</g>
	</g>
	<g id="Shape_5_copy_79">
		<g>
			<rect x="243.317" y="168.495" fill="#282828" width="3.594" height="20.565"/>
		</g>
	</g>
	<g id="Shape_5_copy_80">
		<g>
			<rect x="141.49" y="151.524" fill="#282828" width="20.565" height="3.594"/>
		</g>
	</g>
	<g id="Shape_5_copy_81">
		<g>
			<rect x="141.49" y="151.524" fill="#282828" width="3.594" height="20.565"/>
		</g>
	</g>
	<g id="Shape_5_copy_82">
		<g>
			<rect x="158.461" y="168.495" fill="#282828" width="3.595" height="20.565"/>
		</g>
	</g>
	<g id="Shape_5_copy_83">
		<g>
			<rect x="141.49" y="168.495" fill="#282828" width="20.565" height="3.595"/>
		</g>
	</g>
	<g id="Shape_5_copy_84">
		<g>
			<rect x="192.404" y="168.495" fill="#282828" width="3.594" height="20.565"/>
		</g>
	</g>
	<g id="Shape_5_copy_85">
		<g>
			<rect x="175.433" y="168.495" fill="#282828" width="20.565" height="3.595"/>
		</g>
	</g>
	<g id="Shape_5_copy_86">
		<g>
			<rect x="158.461" y="185.466" fill="#282828" width="20.565" height="3.594"/>
		</g>
	</g>
	<g id="Shape_5_copy_87">
		<g>
			<rect x="175.433" y="168.495" fill="#282828" width="3.594" height="20.565"/>
		</g>
	</g>
	<g id="Shape_5_copy_88">
		<g>
			<rect x="226.347" y="134.552" fill="#282828" width="3.594" height="20.565"/>
		</g>
	</g>
	<g id="Shape_5_copy_89">
		<g>
			<rect x="209.376" y="134.552" fill="#282828" width="20.564" height="3.595"/>
		</g>
	</g>
	<g id="Shape_5_copy_90">
		<g>
			<rect x="192.404" y="151.524" fill="#282828" width="20.564" height="3.594"/>
		</g>
	</g>
	<g id="Shape_5_copy_91">
		<g>
			<rect x="209.376" y="134.552" fill="#282828" width="3.593" height="20.565"/>
		</g>
	</g>
	<g id="Shape_5_copy_92">
		<g>
			<rect x="192.404" y="185.466" fill="#282828" width="20.564" height="3.594"/>
		</g>
	</g>
	<g id="Shape_5_copy_93">
		<g>
			<rect x="209.376" y="168.495" fill="#282828" width="3.593" height="20.565"/>
		</g>
	</g>
	<g id="Shape_5_copy_94">
		<g>
			<rect x="192.404" y="151.524" fill="#282828" width="3.594" height="20.565"/>
		</g>
	</g>
	<g id="Shape_5_copy_95">
		<g>
			<rect x="192.404" y="168.495" fill="#282828" width="20.564" height="3.595"/>
		</g>
	</g>
	<g id="Shape_5_copy_96">
		<g>
			<rect x="73.605" y="219.409" fill="#282828" width="20.565" height="3.595"/>
		</g>
	</g>
	<g id="Shape_5_copy_97">
		<g>
			<rect x="73.605" y="219.409" fill="#282828" width="3.594" height="20.565"/>
		</g>
	</g>
	<g id="Shape_5_copy_98">
		<g>
			<rect x="90.576" y="236.38" fill="#282828" width="3.594" height="20.564"/>
		</g>
	</g>
	<g id="Shape_5_copy_99">
		<g>
			<rect x="73.605" y="236.38" fill="#282828" width="20.565" height="3.594"/>
		</g>
	</g>
	<g id="Shape_5_copy_100">
		<g>
			<rect x="124.519" y="236.38" fill="#282828" width="3.594" height="20.564"/>
		</g>
	</g>
	<g id="Shape_5_copy_101">
		<g>
			<rect x="107.548" y="236.38" fill="#282828" width="20.565" height="3.594"/>
		</g>
	</g>
	<g id="Shape_5_copy_102">
		<g>
			<rect x="90.576" y="253.352" fill="#282828" width="20.565" height="3.593"/>
		</g>
	</g>
	<g id="Shape_5_copy_103">
		<g>
			<rect x="107.548" y="236.38" fill="#282828" width="3.593" height="20.564"/>
		</g>
	</g>
	<g id="Shape_5_copy_104">
		<g>
			<rect x="158.461" y="202.438" fill="#282828" width="3.595" height="20.565"/>
		</g>
	</g>
	<g id="Shape_5_copy_105">
		<g>
			<rect x="141.49" y="202.438" fill="#282828" width="20.565" height="3.594"/>
		</g>
	</g>
	<g id="Shape_5_copy_106">
		<g>
			<rect x="124.519" y="219.409" fill="#282828" width="20.565" height="3.595"/>
		</g>
	</g>
	<g id="Shape_5_copy_107">
		<g>
			<rect x="141.49" y="202.438" fill="#282828" width="3.594" height="20.565"/>
		</g>
	</g>
	<g id="Shape_5_copy_108">
		<g>
			<rect x="124.519" y="253.352" fill="#282828" width="20.565" height="3.593"/>
		</g>
	</g>
	<g id="Shape_5_copy_109">
		<g>
			<rect x="141.49" y="236.38" fill="#282828" width="3.594" height="20.564"/>
		</g>
	</g>
	<g id="Shape_5_copy_110">
		<g>
			<rect x="124.519" y="219.409" fill="#282828" width="3.594" height="20.565"/>
		</g>
	</g>
	<g id="Shape_5_copy_111">
		<g>
			<rect x="124.519" y="236.38" fill="#282828" width="20.565" height="3.594"/>
		</g>
	</g>
	<g id="Shape_5_copy_112">
		<g>
			<rect x="158.461" y="134.552" fill="#282828" width="3.595" height="20.565"/>
		</g>
	</g>
	<g id="Shape_5_copy_113">
		<g>
			<rect x="141.49" y="134.552" fill="#282828" width="20.565" height="3.595"/>
		</g>
	</g>
	<g id="Shape_5_copy_114">
		<g>
			<rect x="124.519" y="151.524" fill="#282828" width="20.565" height="3.594"/>
		</g>
	</g>
	<g id="Shape_5_copy_115">
		<g>
			<rect x="141.49" y="134.552" fill="#282828" width="3.594" height="20.565"/>
		</g>
	</g>
	<g id="Shape_5_copy_116">
		<g>
			<rect x="124.519" y="185.466" fill="#282828" width="20.565" height="3.594"/>
		</g>
	</g>
	<g id="Shape_5_copy_117">
		<g>
			<rect x="141.49" y="168.495" fill="#282828" width="3.594" height="20.565"/>
		</g>
	</g>
	<g id="Shape_5_copy_118">
		<g>
			<rect x="124.519" y="151.524" fill="#282828" width="3.594" height="20.565"/>
		</g>
	</g>
	<g id="Shape_5_copy_119">
		<g>
			<rect x="124.519" y="168.495" fill="#282828" width="20.565" height="3.595"/>
		</g>
	</g>
	<g id="Shape_5_copy_120">
		<g>
			<rect x="158.461" y="219.409" fill="#282828" width="20.565" height="3.595"/>
		</g>
	</g>
	<g id="Shape_5_copy_121">
		<g>
			<rect x="175.433" y="202.438" fill="#282828" width="3.594" height="20.565"/>
		</g>
	</g>
	<g id="Shape_5_copy_122">
		<g>
			<rect x="158.461" y="185.466" fill="#282828" width="3.595" height="20.565"/>
		</g>
	</g>
	<g id="Shape_5_copy_123">
		<g>
			<rect x="158.461" y="202.438" fill="#282828" width="20.565" height="3.594"/>
		</g>
	</g>
	<g id="Shape_5_copy_124">
		<g>
			<rect x="124.519" y="185.466" fill="#282828" width="3.594" height="20.565"/>
		</g>
	</g>
	<g id="Shape_5_copy_125">
		<g>
			<rect x="124.519" y="202.438" fill="#282828" width="20.565" height="3.594"/>
		</g>
	</g>
	<g id="Shape_5_copy_126">
		<g>
			<rect x="141.49" y="185.466" fill="#282828" width="20.565" height="3.594"/>
		</g>
	</g>
	<g id="Shape_5_copy_127">
		<g>
			<rect x="141.49" y="185.466" fill="#282828" width="3.594" height="20.565"/>
		</g>
	</g>
	<g id="Shape_5_1_">
		<g>
			<rect x="90.576" y="338.208" fill="#282828" width="3.594" height="20.566"/>
		</g>
	</g>
	<g id="Shape_5_copy_1_">
		<g>
			<rect x="73.605" y="338.208" fill="#282828" width="20.565" height="3.595"/>
		</g>
	</g>
	<g id="Shape_5_copy_2_1_">
		<g>
			<rect x="56.634" y="355.18" fill="#282828" width="20.564" height="3.594"/>
		</g>
	</g>
	<g id="Shape_5_copy_3_1_">
		<g>
			<rect x="73.605" y="338.208" fill="#282828" width="3.594" height="20.566"/>
		</g>
	</g>
	<g id="Shape_5_copy_4_1_">
		<g>
			<rect x="56.634" y="389.123" fill="#282828" width="20.564" height="3.593"/>
		</g>
	</g>
	<g id="Shape_5_copy_5_1_">
		<g>
			<rect x="73.605" y="372.15" fill="#282828" width="3.594" height="20.565"/>
		</g>
	</g>
	<g id="Shape_5_copy_6_1_">
		<g>
			<rect x="56.634" y="355.18" fill="#282828" width="3.593" height="20.564"/>
		</g>
	</g>
	<g id="Shape_5_copy_7_1_">
		<g>
			<rect x="56.634" y="372.15" fill="#282828" width="20.564" height="3.595"/>
		</g>
	</g>
	<g id="Shape_5_copy_8_1_">
		<g>
			<rect x="90.576" y="423.065" fill="#282828" width="20.565" height="3.593"/>
		</g>
	</g>
	<g id="Shape_5_copy_9_1_">
		<g>
			<rect x="107.548" y="406.093" fill="#282828" width="3.593" height="20.564"/>
		</g>
	</g>
	<g id="Shape_5_copy_10_1_">
		<g>
			<rect x="90.576" y="389.123" fill="#282828" width="3.594" height="20.564"/>
		</g>
	</g>
	<g id="Shape_5_copy_11_1_">
		<g>
			<rect x="90.576" y="406.093" fill="#282828" width="20.565" height="3.594"/>
		</g>
	</g>
	<g id="Shape_5_copy_12_1_">
		<g>
			<rect x="56.634" y="389.123" fill="#282828" width="3.593" height="20.564"/>
		</g>
	</g>
	<g id="Shape_5_copy_13_1_">
		<g>
			<rect x="56.634" y="406.093" fill="#282828" width="20.564" height="3.594"/>
		</g>
	</g>
	<g id="Shape_5_copy_14_1_">
		<g>
			<rect x="73.605" y="389.123" fill="#282828" width="20.565" height="3.593"/>
		</g>
	</g>
	<g id="Shape_5_copy_15_1_">
		<g>
			<rect x="73.605" y="389.123" fill="#282828" width="3.594" height="20.564"/>
		</g>
	</g>
	<g id="Shape_5_copy_16_1_">
		<g>
			<rect x="158.461" y="423.065" fill="#282828" width="20.565" height="3.593"/>
		</g>
	</g>
	<g id="Shape_5_copy_17_1_">
		<g>
			<rect x="175.433" y="406.093" fill="#282828" width="3.594" height="20.564"/>
		</g>
	</g>
	<g id="Shape_5_copy_18_1_">
		<g>
			<rect x="158.461" y="389.123" fill="#282828" width="3.595" height="20.564"/>
		</g>
	</g>
	<g id="Shape_5_copy_19_1_">
		<g>
			<rect x="158.461" y="406.093" fill="#282828" width="20.565" height="3.594"/>
		</g>
	</g>
	<g id="Shape_5_copy_20_1_">
		<g>
			<rect x="124.519" y="389.123" fill="#282828" width="3.594" height="20.564"/>
		</g>
	</g>
	<g id="Shape_5_copy_21_1_">
		<g>
			<rect x="124.519" y="406.093" fill="#282828" width="20.565" height="3.594"/>
		</g>
	</g>
	<g id="Shape_5_copy_22_1_">
		<g>
			<rect x="141.49" y="389.123" fill="#282828" width="20.565" height="3.593"/>
		</g>
	</g>
	<g id="Shape_5_copy_23_1_">
		<g>
			<rect x="141.49" y="389.123" fill="#282828" width="3.594" height="20.564"/>
		</g>
	</g>
	<g id="Shape_5_copy_24_1_">
		<g>
			<rect x="90.576" y="423.065" fill="#282828" width="3.594" height="20.564"/>
		</g>
	</g>
	<g id="Shape_5_copy_25_1_">
		<g>
			<rect x="90.576" y="440.036" fill="#282828" width="20.565" height="3.594"/>
		</g>
	</g>
	<g id="Shape_5_copy_26_1_">
		<g>
			<rect x="107.548" y="423.065" fill="#282828" width="20.565" height="3.593"/>
		</g>
	</g>
	<g id="Shape_5_copy_27_1_">
		<g>
			<rect x="107.548" y="423.065" fill="#282828" width="3.593" height="20.564"/>
		</g>
	</g>
	<g id="Shape_5_copy_28_1_">
		<g>
			<rect x="107.548" y="389.123" fill="#282828" width="20.565" height="3.593"/>
		</g>
	</g>
	<g id="Shape_5_copy_29_1_">
		<g>
			<rect x="107.548" y="389.123" fill="#282828" width="3.593" height="20.564"/>
		</g>
	</g>
	<g id="Shape_5_copy_30_1_">
		<g>
			<rect x="124.519" y="406.093" fill="#282828" width="3.594" height="20.564"/>
		</g>
	</g>
	<g id="Shape_5_copy_31_1_">
		<g>
			<rect x="107.548" y="406.093" fill="#282828" width="20.565" height="3.594"/>
		</g>
	</g>
	<g id="Shape_5_copy_32_1_">
		<g>
			<rect x="226.347" y="355.18" fill="#282828" width="20.564" height="3.594"/>
		</g>
	</g>
	<g id="Shape_5_copy_33_1_">
		<g>
			<rect x="243.317" y="338.208" fill="#282828" width="3.594" height="20.566"/>
		</g>
	</g>
	<g id="Shape_5_copy_34_1_">
		<g>
			<rect x="226.347" y="321.237" fill="#282828" width="3.594" height="20.565"/>
		</g>
	</g>
	<g id="Shape_5_copy_35_1_">
		<g>
			<rect x="226.347" y="338.208" fill="#282828" width="20.564" height="3.595"/>
		</g>
	</g>
	<g id="Shape_5_copy_36_1_">
		<g>
			<rect x="192.404" y="321.237" fill="#282828" width="3.594" height="20.565"/>
		</g>
	</g>
	<g id="Shape_5_copy_37_1_">
		<g>
			<rect x="192.404" y="338.208" fill="#282828" width="20.564" height="3.595"/>
		</g>
	</g>
	<g id="Shape_5_copy_38_1_">
		<g>
			<rect x="209.376" y="321.237" fill="#282828" width="20.564" height="3.594"/>
		</g>
	</g>
	<g id="Shape_5_copy_39_1_">
		<g>
			<rect x="209.376" y="321.237" fill="#282828" width="3.593" height="20.565"/>
		</g>
	</g>
	<g id="Shape_5_copy_40_1_">
		<g>
			<rect x="158.461" y="355.18" fill="#282828" width="3.595" height="20.564"/>
		</g>
	</g>
	<g id="Shape_5_copy_41_1_">
		<g>
			<rect x="158.461" y="372.15" fill="#282828" width="20.565" height="3.595"/>
		</g>
	</g>
	<g id="Shape_5_copy_42_1_">
		<g>
			<rect x="175.433" y="355.18" fill="#282828" width="20.565" height="3.594"/>
		</g>
	</g>
	<g id="Shape_5_copy_43_1_">
		<g>
			<rect x="175.433" y="355.18" fill="#282828" width="3.594" height="20.564"/>
		</g>
	</g>
	<g id="Shape_5_copy_44_1_">
		<g>
			<rect x="175.433" y="321.237" fill="#282828" width="20.565" height="3.594"/>
		</g>
	</g>
	<g id="Shape_5_copy_45_1_">
		<g>
			<rect x="175.433" y="321.237" fill="#282828" width="3.594" height="20.565"/>
		</g>
	</g>
	<g id="Shape_5_copy_46_1_">
		<g>
			<rect x="192.404" y="338.208" fill="#282828" width="3.594" height="20.566"/>
		</g>
	</g>
	<g id="Shape_5_copy_47_1_">
		<g>
			<rect x="175.433" y="338.208" fill="#282828" width="20.565" height="3.595"/>
		</g>
	</g>
	<g id="Shape_5_copy_48_1_">
		<g>
			<rect x="158.461" y="423.065" fill="#282828" width="3.595" height="20.564"/>
		</g>
	</g>
	<g id="Shape_5_copy_49_1_">
		<g>
			<rect x="158.461" y="440.036" fill="#282828" width="20.565" height="3.594"/>
		</g>
	</g>
	<g id="Shape_5_copy_50_1_">
		<g>
			<rect x="175.433" y="423.065" fill="#282828" width="20.565" height="3.593"/>
		</g>
	</g>
	<g id="Shape_5_copy_51_1_">
		<g>
			<rect x="175.433" y="423.065" fill="#282828" width="3.594" height="20.564"/>
		</g>
	</g>
	<g id="Shape_5_copy_52_1_">
		<g>
			<rect x="175.433" y="389.123" fill="#282828" width="20.565" height="3.593"/>
		</g>
	</g>
	<g id="Shape_5_copy_53_1_">
		<g>
			<rect x="175.433" y="389.123" fill="#282828" width="3.594" height="20.564"/>
		</g>
	</g>
	<g id="Shape_5_copy_54_1_">
		<g>
			<rect x="192.404" y="406.093" fill="#282828" width="3.594" height="20.564"/>
		</g>
	</g>
	<g id="Shape_5_copy_55_1_">
		<g>
			<rect x="175.433" y="406.093" fill="#282828" width="20.565" height="3.594"/>
		</g>
	</g>
	<g id="Shape_5_copy_56_1_">
		<g>
			<rect x="141.49" y="355.18" fill="#282828" width="20.565" height="3.594"/>
		</g>
	</g>
	<g id="Shape_5_copy_57_1_">
		<g>
			<rect x="141.49" y="355.18" fill="#282828" width="3.594" height="20.564"/>
		</g>
	</g>
	<g id="Shape_5_copy_58_1_">
		<g>
			<rect x="158.461" y="372.15" fill="#282828" width="3.595" height="20.565"/>
		</g>
	</g>
	<g id="Shape_5_copy_59_1_">
		<g>
			<rect x="141.49" y="372.15" fill="#282828" width="20.565" height="3.595"/>
		</g>
	</g>
	<g id="Shape_5_copy_60_1_">
		<g>
			<rect x="192.404" y="372.15" fill="#282828" width="3.594" height="20.565"/>
		</g>
	</g>
	<g id="Shape_5_copy_61_1_">
		<g>
			<rect x="175.433" y="372.15" fill="#282828" width="20.565" height="3.595"/>
		</g>
	</g>
	<g id="Shape_5_copy_62_1_">
		<g>
			<rect x="158.461" y="389.123" fill="#282828" width="20.565" height="3.593"/>
		</g>
	</g>
	<g id="Shape_5_copy_63_1_">
		<g>
			<rect x="175.433" y="372.15" fill="#282828" width="3.594" height="20.565"/>
		</g>
	</g>
	<g id="Shape_5_copy_64_1_">
		<g>
			<rect x="226.347" y="219.409" fill="#282828" width="20.564" height="3.595"/>
		</g>
	</g>
	<g id="Shape_5_copy_65_1_">
		<g>
			<rect x="243.317" y="202.438" fill="#282828" width="3.594" height="20.565"/>
		</g>
	</g>
	<g id="Shape_5_copy_66_1_">
		<g>
			<rect x="226.347" y="185.466" fill="#282828" width="3.594" height="20.565"/>
		</g>
	</g>
	<g id="Shape_5_copy_67_1_">
		<g>
			<rect x="226.347" y="202.438" fill="#282828" width="20.564" height="3.594"/>
		</g>
	</g>
	<g id="Shape_5_copy_68_1_">
		<g>
			<rect x="192.404" y="185.466" fill="#282828" width="3.594" height="20.565"/>
		</g>
	</g>
	<g id="Shape_5_copy_69_1_">
		<g>
			<rect x="192.404" y="202.438" fill="#282828" width="20.564" height="3.594"/>
		</g>
	</g>
	<g id="Shape_5_copy_70_1_">
		<g>
			<rect x="209.376" y="185.466" fill="#282828" width="20.564" height="3.594"/>
		</g>
	</g>
	<g id="Shape_5_copy_71_1_">
		<g>
			<rect x="209.376" y="185.466" fill="#282828" width="3.593" height="20.565"/>
		</g>
	</g>
	<g id="Shape_5_copy_72_1_">
		<g>
			<rect x="158.461" y="219.409" fill="#282828" width="3.595" height="20.565"/>
		</g>
	</g>
	<g id="Shape_5_copy_73_1_">
		<g>
			<rect x="158.461" y="236.38" fill="#282828" width="20.565" height="3.594"/>
		</g>
	</g>
	<g id="Shape_5_copy_74_1_">
		<g>
			<rect x="175.433" y="219.409" fill="#282828" width="20.565" height="3.595"/>
		</g>
	</g>
	<g id="Shape_5_copy_75_1_">
		<g>
			<rect x="175.433" y="219.409" fill="#282828" width="3.594" height="20.565"/>
		</g>
	</g>
	<g id="Shape_5_copy_76_1_">
		<g>
			<rect x="175.433" y="185.466" fill="#282828" width="20.565" height="3.594"/>
		</g>
	</g>
	<g id="Shape_5_copy_77_1_">
		<g>
			<rect x="175.433" y="185.466" fill="#282828" width="3.594" height="20.565"/>
		</g>
	</g>
	<g id="Shape_5_copy_78_1_">
		<g>
			<rect x="192.404" y="202.438" fill="#282828" width="3.594" height="20.565"/>
		</g>
	</g>
	<g id="Shape_5_copy_79_1_">
		<g>
			<rect x="175.433" y="202.438" fill="#282828" width="20.565" height="3.594"/>
		</g>
	</g>
	<g id="Shape_5_copy_80_1_">
		<g>
			<rect x="158.461" y="287.293" fill="#282828" width="3.595" height="20.566"/>
		</g>
	</g>
	<g id="Shape_5_copy_81_1_">
		<g>
			<rect x="158.461" y="304.265" fill="#282828" width="20.565" height="3.595"/>
		</g>
	</g>
	<g id="Shape_5_copy_82_1_">
		<g>
			<rect x="175.433" y="287.293" fill="#282828" width="20.565" height="3.594"/>
		</g>
	</g>
	<g id="Shape_5_copy_83_1_">
		<g>
			<rect x="175.433" y="287.293" fill="#282828" width="3.594" height="20.566"/>
		</g>
	</g>
	<g id="Shape_5_copy_84_1_">
		<g>
			<rect x="175.433" y="253.352" fill="#282828" width="20.565" height="3.593"/>
		</g>
	</g>
	<g id="Shape_5_copy_85_1_">
		<g>
			<rect x="175.433" y="253.352" fill="#282828" width="3.594" height="20.565"/>
		</g>
	</g>
	<g id="Shape_5_copy_86_1_">
		<g>
			<rect x="192.404" y="270.323" fill="#282828" width="3.594" height="20.564"/>
		</g>
	</g>
	<g id="Shape_5_copy_87_1_">
		<g>
			<rect x="175.433" y="270.323" fill="#282828" width="20.565" height="3.595"/>
		</g>
	</g>
	<g id="Shape_5_copy_88_1_">
		<g>
			<rect x="141.49" y="219.409" fill="#282828" width="20.565" height="3.595"/>
		</g>
	</g>
	<g id="Shape_5_copy_89_1_">
		<g>
			<rect x="141.49" y="219.409" fill="#282828" width="3.594" height="20.565"/>
		</g>
	</g>
	<g id="Shape_5_copy_90_1_">
		<g>
			<rect x="158.461" y="236.38" fill="#282828" width="3.595" height="20.564"/>
		</g>
	</g>
	<g id="Shape_5_copy_91_1_">
		<g>
			<rect x="141.49" y="236.38" fill="#282828" width="20.565" height="3.594"/>
		</g>
	</g>
	<g id="Shape_5_copy_92_1_">
		<g>
			<rect x="192.404" y="236.38" fill="#282828" width="3.594" height="20.564"/>
		</g>
	</g>
	<g id="Shape_5_copy_93_1_">
		<g>
			<rect x="175.433" y="236.38" fill="#282828" width="20.565" height="3.594"/>
		</g>
	</g>
	<g id="Shape_5_copy_94_1_">
		<g>
			<rect x="158.461" y="253.352" fill="#282828" width="20.565" height="3.593"/>
		</g>
	</g>
	<g id="Shape_5_copy_95_1_">
		<g>
			<rect x="175.433" y="236.38" fill="#282828" width="3.594" height="20.564"/>
		</g>
	</g>
	<g id="Shape_5_copy_96_1_">
		<g>
			<rect x="226.347" y="355.18" fill="#282828" width="3.594" height="20.564"/>
		</g>
	</g>
	<g id="Shape_5_copy_97_1_">
		<g>
			<rect x="226.347" y="372.15" fill="#282828" width="20.564" height="3.595"/>
		</g>
	</g>
	<g id="Shape_5_copy_98_1_">
		<g>
			<rect x="243.317" y="355.18" fill="#282828" width="20.565" height="3.594"/>
		</g>
	</g>
	<g id="Shape_5_copy_99_1_">
		<g>
			<rect x="243.317" y="355.18" fill="#282828" width="3.594" height="20.564"/>
		</g>
	</g>
	<g id="Shape_5_copy_100_1_">
		<g>
			<rect x="243.317" y="321.237" fill="#282828" width="20.565" height="3.594"/>
		</g>
	</g>
	<g id="Shape_5_copy_101_1_">
		<g>
			<rect x="243.317" y="321.237" fill="#282828" width="3.594" height="20.565"/>
		</g>
	</g>
	<g id="Shape_5_copy_102_1_">
		<g>
			<rect x="260.289" y="338.208" fill="#282828" width="3.594" height="20.566"/>
		</g>
	</g>
	<g id="Shape_5_copy_103_1_">
		<g>
			<rect x="243.317" y="338.208" fill="#282828" width="20.565" height="3.595"/>
		</g>
	</g>
	<g id="Shape_5_copy_104_1_">
		<g>
			<rect x="209.376" y="287.293" fill="#282828" width="20.564" height="3.594"/>
		</g>
	</g>
	<g id="Shape_5_copy_105_1_">
		<g>
			<rect x="209.376" y="287.293" fill="#282828" width="3.593" height="20.566"/>
		</g>
	</g>
	<g id="Shape_5_copy_106_1_">
		<g>
			<rect x="226.347" y="304.265" fill="#282828" width="3.594" height="20.565"/>
		</g>
	</g>
	<g id="Shape_5_copy_107_1_">
		<g>
			<rect x="209.376" y="304.265" fill="#282828" width="20.564" height="3.595"/>
		</g>
	</g>
	<g id="Shape_5_copy_108_1_">
		<g>
			<rect x="260.289" y="304.265" fill="#282828" width="3.594" height="20.565"/>
		</g>
	</g>
	<g id="Shape_5_copy_109_1_">
		<g>
			<rect x="243.317" y="304.265" fill="#282828" width="20.565" height="3.595"/>
		</g>
	</g>
	<g id="Shape_5_copy_110_1_">
		<g>
			<rect x="226.347" y="321.237" fill="#282828" width="20.564" height="3.594"/>
		</g>
	</g>
	<g id="Shape_5_copy_111_1_">
		<g>
			<rect x="243.317" y="304.265" fill="#282828" width="3.594" height="20.565"/>
		</g>
	</g>
	<g id="Shape_5_copy_112_1_">
		<g>
			<rect x="141.49" y="287.293" fill="#282828" width="20.565" height="3.594"/>
		</g>
	</g>
	<g id="Shape_5_copy_113_1_">
		<g>
			<rect x="141.49" y="287.293" fill="#282828" width="3.594" height="20.566"/>
		</g>
	</g>
	<g id="Shape_5_copy_114_1_">
		<g>
			<rect x="158.461" y="304.265" fill="#282828" width="3.595" height="20.565"/>
		</g>
	</g>
	<g id="Shape_5_copy_115_1_">
		<g>
			<rect x="141.49" y="304.265" fill="#282828" width="20.565" height="3.595"/>
		</g>
	</g>
	<g id="Shape_5_copy_116_1_">
		<g>
			<rect x="192.404" y="304.265" fill="#282828" width="3.594" height="20.565"/>
		</g>
	</g>
	<g id="Shape_5_copy_117_1_">
		<g>
			<rect x="175.433" y="304.265" fill="#282828" width="20.565" height="3.595"/>
		</g>
	</g>
	<g id="Shape_5_copy_118_1_">
		<g>
			<rect x="158.461" y="321.237" fill="#282828" width="20.565" height="3.594"/>
		</g>
	</g>
	<g id="Shape_5_copy_119_1_">
		<g>
			<rect x="175.433" y="304.265" fill="#282828" width="3.594" height="20.565"/>
		</g>
	</g>
	<g id="Shape_5_copy_120_1_">
		<g>
			<rect x="226.347" y="270.323" fill="#282828" width="3.594" height="20.564"/>
		</g>
	</g>
	<g id="Shape_5_copy_121_1_">
		<g>
			<rect x="209.376" y="270.323" fill="#282828" width="20.564" height="3.595"/>
		</g>
	</g>
	<g id="Shape_5_copy_122_1_">
		<g>
			<rect x="192.404" y="287.293" fill="#282828" width="20.564" height="3.594"/>
		</g>
	</g>
	<g id="Shape_5_copy_123_1_">
		<g>
			<rect x="209.376" y="270.323" fill="#282828" width="3.593" height="20.564"/>
		</g>
	</g>
	<g id="Shape_5_copy_124_1_">
		<g>
			<rect x="192.404" y="321.237" fill="#282828" width="20.564" height="3.594"/>
		</g>
	</g>
	<g id="Shape_5_copy_125_1_">
		<g>
			<rect x="209.376" y="304.265" fill="#282828" width="3.593" height="20.565"/>
		</g>
	</g>
	<g id="Shape_5_copy_126_1_">
		<g>
			<rect x="192.404" y="287.293" fill="#282828" width="3.594" height="20.566"/>
		</g>
	</g>
	<g id="Shape_5_copy_127_1_">
		<g>
			<rect x="192.404" y="304.265" fill="#282828" width="20.564" height="3.595"/>
		</g>
	</g>
</g>
</svg>
