<?xml version="1.0" encoding="UTF-8" standalone="no"?>
<svg width="842px" height="488px" viewBox="0 0 842 488" version="1.1" xmlns="http://www.w3.org/2000/svg" xmlns:xlink="http://www.w3.org/1999/xlink">
    <!-- Generator: Sketch 41.2 (35397) - http://www.bohemiancoding.com/sketch -->
    <title>Group</title>
    <desc>Created with Sketch.</desc>
    <defs></defs>
    <g id="Page-1" stroke="none" stroke-width="1" fill="none" fill-rule="evenodd">
        <g id="Group" transform="translate(2.000000, 0.000000)">
            <g id="MIND" transform="translate(318.000000, 137.000000)" fill="#BF616A">
                <path d="M25,91.3 L0.3,91.3 L0.3,0.5 L4.6,0.5 L20.6,22 L20.6,0.5 L25.1,0.5 L50.1,29.7 L74.8,0.5 L79.2,0.5 L79.2,87 L95.2,87 L95.2,0.5 L99.6,0.5 L99.6,91.2 L74.9,91.2 L74.9,7.2 L52,33.5 L47.7,33.5 L25,7 L25,28.6 L50.8,61.1 L47.8,63.8 L25,35.4 L25,91.3 Z M20.6,86.9 L20.6,29 L4.6,7.4 L4.6,87 L20.6,87 L20.6,86.9 Z M134.4,87 L134.4,18.4 L138.7,18.4 L138.7,91.2 L114,91.2 L114,0.5 L138.7,0.5 L138.7,4.8 L118.4,4.8 L118.4,86.8 L134.4,86.8 L134.4,87 Z M225.8,91.2 L209.8,63.8 L209.8,91.2 L205.4,91.2 L178,45.2 L178,91.2 L153.3,91.2 L153.3,0.5 L157.6,0.5 L157.6,87 L173.6,87 L173.6,40.8 L180.4,40.8 L205.4,82.8 L205.4,56.3 L174.2,2.7 L178,0.5 L205.4,47.7 L205.4,0.5 L230,0.5 L230,91.2 L226,91.2 L225.8,91.2 Z M209.8,55.2 L225.8,82.8 L225.8,4.8 L209.8,4.8 L209.8,55.2 Z M326.3,46 C326.3,71.6 308.6,91.2 282.3,91.2 L244.7,91.2 L244.7,35.2 L249,35.2 L249,86.9 L282.3,86.9 C305.8,86.9 321.9,69.2 321.9,45.9 C321.9,22.3 305.7,4.7 282.2,4.7 L269.2,4.7 L269.2,18.3 L280,18.3 C293,18.3 305,31.6 305,45.8 C305,60 293,73.1 280,73.1 L265,73.1 L265,22.6 L244.7,22.6 L244.7,18.2 L265,18.2 L265,0.2 L282.3,0.2 C308.6,0.2 326.3,19.9 326.3,45.7 L326.3,46 Z M269.3,69 L280,69 C291.6,69 300.5,57.2 300.5,46 C300.5,34.5 291.5,22.8 280,22.8 L269.6,22.8 L269.6,69 L269.3,69 Z" id="Shape"></path>
            </g>
            <g id="RACTELED" transform="translate(170.000000, 0.000000)" fill="#BF616A">
                <path d="M0.4,93.3 L0.4,46.3 L20.7,46.3 L20.7,20.3 L42.7,20.3 C50.4,20.3 56.1,28.1 56.1,35.6 C56.1,39.4 54.6,43.3 52.1,46.1 L59.1,60.4 C67.8,55.4 73.5,46.4 73.5,35.7 C73.5,19.3 60.5,6.9 43.5,6.9 L0.5,6.9 L0.5,2.5 L43.5,2.5 C62.5,2.5 77.7,16.5 77.7,35.5 C77.7,48.2 71.1,58.5 61,64.1 L75.5,93.4 L48,93.4 L36.8,68.7 L20.8,68.7 L20.8,50.7 L4.8,50.7 L4.8,89 L25,89 L25,93.3 L0.4,93.3 Z M39.4,64.3 L43.4,64.3 C47.6,64.3 51.6,63.5 55.4,62.1 L46.8,45.1 C49.8,43.1 51.8,38.9 51.8,35.7 C51.8,31.2 48.1,24.9 42.6,24.9 L25,24.9 L25,46.4 L31.3,46.4 L39.3,64.4 L39.4,64.3 Z M28.4,50.7 L25,50.7 L25,64.2 L34.7,64.2 L28.5,50.7 L28.4,50.7 Z M50.4,88.9 L68.6,88.9 L57.2,65.9 C53,67.5 48.2,68.5 43.4,68.5 L41.4,68.5 L50.4,88.8 L50.4,88.9 Z M107.6,80 L112.6,63 L97.2,63 L88.2,89 L108,89 L108,93.3 L82,93.3 L94.2,58.8 L113.8,58.8 L123.2,26.1 L129.7,26.1 L139.5,63.1 L117,63.1 L113.4,75.6 L144,75.6 L148.2,89 L165,89 L135.7,6.7 L117.1,6.7 L103.1,46.4 L99,45 L114,2.5 L139,2.5 L171,93.3 L145,93.3 L141,80 L107.6,80 Z M118.3,58.8 L134,58.8 L126.5,30.5 L118.3,58.8 Z M177,48 C177,71.7 196.4,91 220.2,91 C234,91 246.8,84.2 254.7,73.6 L240.9,65.6 C234.9,71.6 227.7,75 220.1,75 C199.1,75 180.4,59 180.4,37.7 C180.4,16.4 199.1,0.5 220.1,0.5 C237.4,0.5 252.5,9.8 260.7,23.5 L239.7,36.3 C235.7,29.8 228.3,25.3 220.1,25.3 C207.5,25.3 197.4,35.3 197.4,47.9 L193,47.9 C193,32.9 205.2,20.7 220.2,20.7 C227.8,20.7 235.2,24 240.9,30.3 L254.6,22.3 C246.6,11.5 233.4,4.7 220.1,4.7 C201.5,4.7 184.8,18.7 184.8,37.7 C184.8,56.7 201.4,70.7 220,70.7 C228.2,70.7 235.5,66 239.5,59.4 L260.5,72.1 C252.5,85.9 237.3,95.1 220,95.1 C193.8,95.1 172.6,74.1 172.6,47.8 L176.9,47.8 L177,48 Z M341.7,2.5 L341.7,24.8 L337.4,24.8 L337.4,6.8 L271.8,6.8 L271.8,20.4 L316.8,20.4 L316.8,93.4 L292.3,93.4 L292.3,37.8 L296.6,37.8 L296.6,88.8 L312.6,88.8 L312.6,24.7 L267.6,24.7 L267.6,2.5 L341.6,2.5 L341.7,2.5 Z M361,80 L366,63 L350.7,63 L341.7,89 L361.3,89 L361.3,93.3 L335.3,93.3 L347.6,58.8 L367.2,58.8 L376.7,26.1 L383.2,26.1 L393,63.1 L370.5,63.1 L367,75.5 L397.5,75.5 L401.7,88.9 L418.4,88.9 L389.2,6.7 L370.6,6.7 L356.6,46.4 L352.6,45 L367.6,2.5 L392.3,2.5 L424.3,93.3 L398.6,93.3 L394.3,80 L361,80 Z M371.7,58.8 L387.4,58.8 L380,30.5 L371.7,58.8 Z M433.5,75.3 L433.5,2.5 L458.2,2.5 L458.2,57.5 L454,57.5 L454,6.8 L437.7,6.8 L437.7,71 L499.4,71 L499.4,93.3 L433.4,93.3 L433.4,89 L495.2,89 L495.2,75.2 L433.5,75.2 L433.5,75.3 Z M576.6,24.8 L528.8,24.8 L528.8,20.4 L572.2,20.4 L572.2,7 L512.8,7 L512.8,37 L568.2,37 L568.2,58.8 L533.2,58.8 L533.2,71 L576.6,71 L576.6,93.3 L508.6,93.3 L508.6,54.3 L512.8,54.3 L512.8,89 L572.2,89 L572.2,75.3 L528.8,75.3 L528.8,54.3 L563.8,54.3 L563.8,41.3 L508.5,41.3 L508.5,2.3 L576.5,2.3 L576.5,25 L576.6,24.8 Z M669.4,48 C669.4,73.7 651.8,93.3 625.4,93.3 L588,93.3 L588,37 L592.4,37 L592.4,89 L625.4,89 C649,89 665.1,71.4 665.1,48 C665.1,24.4 649.1,7 625.6,7 L612.8,7 L612.8,20.4 L623,20.4 C636.2,20.4 648,33.8 648,47.9 C648,62 636,75.3 623,75.3 L608.4,75.3 L608.4,24.8 L588,24.8 L588,20.4 L608.3,20.4 L608.3,2.4 L625.5,2.4 C651.8,2.4 669.5,22.1 669.5,47.9 L669.4,48 Z M612.7,71 L623,71 C634.6,71 643.5,59.3 643.5,48 C643.5,36.5 634.5,24.8 623.1,24.8 L612.8,24.8 L612.8,71 L612.7,71 Z" id="Shape"></path>
            </g>
            <path d="M163.8,27.2 L163.8,2.5 L97.8,2.5 L97.8,47.5 L118.1,47.7 L118.3,63.7 L97.9,63.7 L97.9,68 L118.3,68 L118.3,89 L97.9,89 L97.9,93 L122.6,93 L122.6,68 L155.6,68 L155.6,43.4 L122.6,43.4 L122.6,27.2 L163.9,27.2 L163.8,27.2 Z M151,47.7 L151,63.7 L122.5,63.7 L122.5,47.7 L151,47.7 Z M118.2,23 L118.2,43.4 L102.2,43.4 L102.2,6.8 L159.5,6.8 L159.5,22.8 L118.2,22.8 L118.2,23 Z" id="F" fill="#BF616A"></path>
            <g id="fractal" transform="translate(0.000000, 26.000000)" stroke="#4A4A4A" stroke-width="4" stroke-linecap="round" stroke-linejoin="round">
                <path d="M100,360 L100,340 L80,340 L80,360 M80,360 L60,360 L60,380 L80,380 M80,380 L80,420 L60,420 L60,400 L100,400 M100,400 L100,420 L160,420 L160,400 M120,400 L120,460 L100,460 L100,440 L140,440 L140,400 L120,400 Z M220,400 L160,400 L220,400 Z M200,360 L200,460 L180,460 L180,440 L220,440 L220,420 L180,420 L180,360 L160,360 L160,380 L220,380 L220,400 M200,360 L220,360 L220,260 L200,260 M200,280 L200,340 L240,340 L240,280 L200,280 Z M200,320 L240,320 L200,320 Z M200,300 L240,300 L200,300 Z M240,320 L240,300 L260,300 L260,320 L240,320 Z M260,340 L260,320 L280,320 L280,340 L260,340 Z M280,320 L280,300 L300,300 L300,320 L280,320 Z M280,360 L280,340 L300,340 L300,360 L280,360 Z M260,380 L260,360 L280,360 L280,380 L260,380 Z M240,280 L240,260 L260,260 L260,280 L240,280 Z M180,320 L180,300 L200,300 L200,320 L180,320 Z M160,300 L160,280 L180,280 L180,300 L160,300 Z" id="bottom"></path>
                <path d="M100,40 L120,40 L120,20 L100,20 M100,20 L100,0 L80,0 L80,20 M80,20 L40,20 L40,0 L60,0 L60,40 M60,40 L40,40 L40,100 L60,100 M60,60 L0,60 L0,40 L20,40 L20,80 L60,80 L60,60 Z M100,140 L0,140 L0,120 L20,120 L20,160 L40,160 L40,120 L100,120 L100,100 L80,100 L80,160 L60,160 M60,160 L60,100 L60,160 Z M100,140 L100,160 L200,160 L200,140 M180,140 L120,140 L120,180 L180,180 L180,140 Z M140,140 L140,180 L140,140 Z M160,140 L160,180 L160,140 Z M140,180 L160,180 L160,200 L140,200 L140,180 Z M120,200 L140,200 L140,220 L120,220 L120,200 Z M140,220 L160,220 L160,240 L140,240 L140,220 Z M100,220 L120,220 L120,240 L100,240 L100,220 Z M80,200 L100,200 L100,220 L80,220 L80,200 Z M180,180 L200,180 L200,200 L180,200 L180,180 Z M140,120 L160,120 L160,140 L140,140 L140,120 Z M160,100 L180,100 L180,120 L160,120 L160,100 Z" id="top"></path>
                <path d="M240,160 L240,140 L260,140 L260,160 L240,160 Z M260,180 L260,160 L280,160 L280,180 L260,180 Z M280,160 L280,140 L300,140 L300,160 L280,160 Z M280,200 L280,180 L300,180 L300,200 L280,200 Z M260,220 L260,200 L280,200 L280,220 L260,220 Z M240,120 L240,100 L260,100 L260,120 L240,120 Z M220,140 L220,120 L240,120 L240,140 L220,140 Z M220,160 L220,140 L240,140 L240,160 L220,160 Z M200,160 L200,140 L220,140 L220,160 L200,160 Z M200,180 L200,160 L220,160 L220,180 L200,180 Z M220,180 L220,160 L240,160 L240,180 L220,180 Z M200,200 L200,180 L220,180 L220,200 L200,200 Z M200,240 L200,220 L220,220 L220,240 L200,240 Z M180,240 L180,220 L200,220 L200,240 L180,240 Z M180,220 L180,200 L200,200 L200,220 L180,220 Z M160,220 L160,200 L180,200 L180,220 L160,220 Z M200,240 L200,260" id="middle"></path>
            </g>
        </g>
    </g>
</svg>