<?xml version="1.0" standalone="no"?><!DOCTYPE svg PUBLIC "-//W3C//DTD SVG 1.1//EN" "http://www.w3.org/Graphics/SVG/1.1/DTD/svg11.dtd" ><svg xmlns="http://www.w3.org/2000/svg"><metadata></metadata><defs><font id="LaskoDzurovski,Totemt.f.: SkolaSansCn Black Italic: 2009" horiz-adv-x="1151"><font-face font-family="SkolaSansCn" font-weight="900" font-stretch="normal" units-per-em="1000" panose-1="2 0 5 6 5 0 0 9 0 4" ascent="750" descent="-250" x-height="4" bbox="-97 -217 1113 992" underline-thickness="50" underline-position="-75" unicode-range="U+0000-fb02" /><missing-glyph horiz-adv-x="449" d="M46 0 L408 0 L515 748 L152 748 L46 0 ZM428 542 Q427 603 395 631 Q363 659 317 659 Q286 660 253 649 Q221 638 178 600 L216 526 Q238 544 252 550 Q266 555 282 555 Q297 555 304 544 Q311 534 311 509 Q309 465 278 433 Q248 401 216 382 L206 260 L280 260 L304 342 Q354 371 390 420 Q426 469 428 542 L428 542 ZM171 137 Q171 112 185 95 Q198 79 219 78 Q246 79 266 102 Q286 125 287 157 Q287 182 274 199 Q261 215 239 216 Q212 215 192 193 Q172 170 171 137 L171 137 ZM179 722 L480 722 L382 28 L80 28 L179 722 Z" /><glyph glyph-name="" unicode="" d="" /><glyph glyph-name="" unicode=" " d="" /><glyph glyph-name="" unicode="!" d="M231 234 L326 748 L189 748 L138 234 L231 234 ZM88 72 Q88 38 105 17 Q122 -5 150 -6 Q186 -5 213 26 Q241 56 242 100 Q242 134 224 156 Q207 177 178 178 Q142 177 116 146 Q89 116 88 72 L88 72 Z" /><glyph glyph-name="" unicode="&quot;" d="M197 748 L90 748 L48 466 L156 466 L197 748 ZM372 748 L264 748 L223 466 L330 466 L372 748 Z" /><glyph glyph-name="" unicode="#" d="M142 457 L203 457 L162 291 L91 291 L77 201 L137 201 L90 0 L171 0 L219 201 L287 201 L239 0 L320 0 L368 201 L439 201 L453 291 L392 291 L434 457 L504 457 L518 547 L457 547 L505 748 L424 748 L375 547 L308 547 L356 748 L275 748 L226 547 L155 547 L142 457 ZM285 457 L352 457 L310 291 L243 291 L285 457 Z" /><glyph glyph-name="" unicode="$" d="M210 -109 L321 -109 L336 2 Q428 25 479 93 Q530 162 531 262 Q517 398 418 440 Q319 482 305 543 Q305 569 320 588 Q335 606 361 607 Q393 607 427 588 Q460 570 492 533 L573 669 Q543 700 511 721 Q480 741 443 749 L458 857 L348 857 L332 748 Q237 728 191 662 Q145 596 145 508 Q158 372 249 326 Q339 279 352 223 Q352 188 335 165 Q318 142 288 141 Q255 141 225 160 Q194 180 161 215 L78 79 Q110 45 146 23 Q181 2 225 -4 L210 -109 Z" /><glyph glyph-name="" unicode="%" d="M711 748 L621 754 L171 0 L260 -6 L711 748 ZM112 526 Q113 454 148 407 Q183 360 242 358 Q317 361 372 426 Q426 490 429 586 Q428 658 393 705 Q358 752 300 754 Q225 751 170 687 Q115 622 112 526 L112 526 ZM457 163 Q458 90 493 43 Q528 -4 586 -6 Q661 -3 716 62 Q770 127 773 223 Q772 295 737 342 Q702 389 644 391 Q569 388 515 324 Q460 259 457 163 L457 163 ZM219 541 Q220 580 238 610 Q257 640 283 642 Q305 641 314 620 Q322 598 322 571 Q321 532 303 502 Q285 472 259 470 Q236 471 227 492 Q219 514 219 541 L219 541 ZM564 178 Q565 217 583 247 Q601 277 627 279 Q650 278 659 257 Q667 235 667 208 Q666 168 648 138 Q629 108 603 106 Q581 107 572 129 Q564 150 564 178 L564 178 Z" /><glyph glyph-name="" unicode="&amp;" d="M489 417 Q488 353 464 304 Q441 255 404 221 Q384 250 367 282 Q349 313 334 345 Q403 376 455 431 Q507 486 510 587 Q510 656 467 704 Q425 752 346 754 Q249 751 195 687 Q141 622 140 526 Q140 471 148 418 Q92 387 53 336 Q14 285 12 203 Q14 104 70 49 Q126 -5 211 -6 Q246 -6 284 4 Q323 14 363 34 Q398 -2 432 -32 Q466 -63 499 -86 L588 54 Q569 68 549 85 Q529 102 509 122 Q564 175 599 250 Q633 324 634 417 L489 417 ZM211 142 Q187 142 173 158 Q158 174 158 203 Q158 229 168 249 Q178 268 196 284 Q210 249 225 216 Q240 183 256 152 Q231 142 211 142 L211 142 ZM286 516 Q286 552 298 579 Q311 605 339 606 Q352 606 361 598 Q371 589 371 570 Q371 539 348 517 Q325 495 285 476 Q286 485 286 496 Q286 506 286 516 L286 516 Z" /><glyph glyph-name="" unicode="&#39;" d="M197 748 L90 748 L48 466 L155 466 L197 748 Z" /><glyph glyph-name="" unicode="(" d="M247 806 Q188 713 131 559 Q73 405 69 177 Q70 69 83 -13 Q96 -94 112 -145 L202 -100 Q193 -58 185 11 Q177 80 177 169 Q181 381 228 527 Q275 673 323 762 L247 806 Z" /><glyph glyph-name="" unicode=")" d="M138 762 Q147 720 155 650 Q163 579 163 489 Q160 272 113 130 Q66 -13 16 -100 L93 -145 Q153 -54 210 97 Q267 247 271 479 Q270 588 257 672 Q244 755 228 806 L138 762 Z" /><glyph glyph-name="" unicode="*" d="M234 619 L150 678 L106 581 L207 549 L234 619 ZM212 537 L136 444 L200 383 L262 496 L212 537 ZM259 754 L241 626 L305 626 L353 754 L259 754 ZM332 554 L436 577 L422 673 L314 619 L332 554 ZM400 445 L330 542 L276 498 L315 384 L400 445 Z" /><glyph glyph-name="" unicode="+" d="M103 275 L260 275 L231 64 L340 64 L369 275 L527 275 L547 401 L390 401 L419 612 L310 612 L281 401 L123 401 L103 275 Z" /><glyph glyph-name="" unicode="," d="M70 77 Q70 45 85 21 Q100 -4 124 -5 L52 -139 L113 -164 Q163 -102 197 -27 Q232 47 233 106 Q233 141 215 165 Q196 189 166 190 Q127 188 99 156 Q71 123 70 77 L70 77 Z" /><glyph glyph-name="" unicode="-" d="M278 229 L299 355 L94 355 L73 229 L278 229 Z" /><glyph glyph-name="" unicode="." d="M69 76 Q70 41 88 18 Q106 -5 136 -6 Q175 -5 204 27 Q233 59 234 106 Q234 141 216 165 Q197 189 167 190 Q128 189 99 156 Q70 123 69 76 L69 76 Z" /><glyph glyph-name="" unicode="/" d="M391 806 L-18 -204 L95 -204 L502 806 L391 806 Z" /><glyph glyph-name="" unicode="0" d="M333 754 Q193 750 121 618 Q48 485 48 266 Q50 135 105 65 Q160 -5 249 -6 Q390 -2 462 130 Q535 263 535 482 Q533 613 478 683 Q422 753 333 754 L333 754 ZM255 142 Q231 142 220 177 Q209 212 209 279 Q213 478 254 545 Q294 611 328 606 Q351 606 362 571 Q373 536 373 469 Q369 270 329 204 Q289 137 255 142 L255 142 Z" /><glyph glyph-name="" unicode="1" d="M39 142 L16 0 L421 0 L443 142 L333 142 L414 748 L305 748 L58 601 L86 493 L206 547 L159 142 L39 142 Z" /><glyph glyph-name="" unicode="2" d="M255 148 L253 152 Q286 200 393 286 Q500 371 514 551 Q514 639 463 695 Q413 752 318 754 Q255 757 199 730 Q143 703 84 615 L189 520 Q200 550 227 577 Q254 604 286 606 Q313 606 325 587 Q336 568 336 531 Q328 427 229 348 Q129 269 35 93 L66 0 L459 0 L484 148 L255 148 Z" /><glyph glyph-name="" unicode="3" d="M220 348 L262 348 Q307 344 317 311 Q327 277 325 256 Q325 204 306 175 Q286 146 248 145 Q216 146 183 164 Q149 181 120 207 L35 69 Q85 30 134 12 Q184 -6 232 -6 Q353 -5 423 68 Q493 140 494 269 Q496 313 473 370 Q451 426 384 450 L384 454 L530 632 L519 748 L156 748 L133 606 L329 606 L331 602 L196 435 L220 348 Z" /><glyph glyph-name="" unicode="4" d="M193 754 Q182 660 146 520 Q111 379 16 205 L33 142 L278 142 L258 0 L424 0 L443 142 L489 142 L511 273 L466 273 L499 525 L343 519 L301 273 L226 273 L225 277 Q273 409 306 534 Q338 658 352 739 L193 754 Z" /><glyph glyph-name="" unicode="5" d="M107 343 L215 343 Q261 343 280 317 Q300 290 299 236 Q299 196 277 170 Q256 143 219 142 Q189 143 158 161 Q126 178 100 204 L16 69 Q63 30 110 12 Q157 -6 203 -6 Q324 -3 396 75 Q467 153 469 274 Q467 381 415 436 Q362 491 281 491 L256 491 L269 600 L449 600 L473 748 L144 748 L88 367 L107 343 Z" /><glyph glyph-name="" unicode="6" d="M326 606 Q367 606 392 594 Q418 581 446 557 L513 681 Q466 720 422 737 Q377 754 332 754 Q192 750 120 618 Q48 485 48 266 Q50 135 105 65 Q159 -5 248 -6 Q375 -3 437 72 Q499 146 499 263 Q495 370 440 420 Q385 470 323 469 Q312 470 286 465 Q260 460 228 442 L222 442 Q243 540 275 574 Q306 608 326 606 L326 606 ZM268 331 Q302 330 322 305 Q342 280 342 242 Q341 200 323 172 Q305 143 275 142 Q241 143 224 169 Q207 196 207 242 Q207 259 207 272 Q208 284 210 310 Q225 322 241 327 Q257 331 268 331 L268 331 Z" /><glyph glyph-name="" unicode="7" d="M476 748 L81 748 L56 606 L306 606 Q251 468 184 316 Q116 163 29 0 L205 -6 Q303 175 381 361 Q458 547 485 650 L476 748 Z" /><glyph glyph-name="" unicode="8" d="M327 756 Q242 756 177 705 Q111 654 107 559 Q107 509 121 471 Q135 433 161 405 Q117 374 85 327 Q53 280 51 217 Q56 83 124 37 Q192 -9 257 -6 Q322 -9 413 42 Q504 94 513 237 Q512 292 485 334 Q458 375 421 404 Q461 436 488 476 Q514 516 515 572 Q509 686 445 723 Q381 759 327 756 L327 756 ZM352 234 Q349 180 319 160 Q288 141 267 142 Q251 141 231 156 Q211 171 209 217 Q210 251 232 279 Q253 306 283 326 Q306 314 328 292 Q350 271 352 234 L352 234 ZM327 626 Q336 627 347 616 Q358 604 359 572 Q358 534 342 513 Q325 492 300 476 Q283 493 273 511 Q264 530 264 559 Q265 591 284 608 Q303 626 327 626 L327 626 Z" /><glyph glyph-name="" unicode="9" d="M235 142 Q195 142 169 155 Q144 167 115 191 L48 67 Q95 28 139 11 Q184 -6 229 -6 Q368 -2 440 130 Q513 263 513 482 Q511 613 457 683 Q402 753 313 754 Q186 751 124 677 Q61 602 61 485 Q65 378 120 328 Q176 278 238 279 Q249 278 275 283 Q301 288 333 306 L339 306 Q318 208 286 174 Q255 140 235 142 L235 142 ZM293 417 Q259 418 239 443 Q219 468 218 506 Q219 548 237 576 Q256 605 286 606 Q320 605 337 579 Q354 552 354 506 Q354 489 354 477 Q353 464 351 438 Q336 426 320 422 Q303 417 293 417 L293 417 Z" /><glyph glyph-name="" unicode=":" d="M64 77 Q65 41 84 18 Q104 -5 136 -6 Q177 -5 207 27 Q238 59 239 105 Q238 141 219 165 Q199 189 167 190 Q126 189 96 156 Q65 123 64 77 L64 77 ZM110 413 Q111 377 130 354 Q149 331 181 330 Q222 331 252 363 Q282 395 283 441 Q283 477 263 501 Q244 524 212 525 Q171 524 141 492 Q111 459 110 413 L110 413 Z" /><glyph glyph-name="" unicode=";" d="M107 413 Q107 377 127 354 Q146 331 179 330 Q220 331 250 363 Q280 395 281 441 Q281 477 261 501 Q242 524 209 525 Q169 524 139 492 Q109 459 107 413 L107 413 ZM63 78 Q63 45 79 21 Q95 -4 121 -5 L47 -139 L111 -164 Q164 -102 199 -28 Q235 46 236 105 Q236 141 216 165 Q197 189 165 190 Q123 189 94 156 Q64 124 63 78 L63 78 Z" /><glyph glyph-name="" unicode="&lt;" d="M456 211 L233 334 L234 338 L486 461 L508 597 L69 399 L49 273 L434 75 L456 211 Z" /><glyph glyph-name="" unicode="=" d="M105 381 L557 381 L576 507 L125 507 L105 381 ZM74 169 L525 169 L545 295 L94 295 L74 169 Z" /><glyph glyph-name="" unicode="&gt;" d="M78 75 L517 273 L537 399 L152 597 L130 461 L354 338 L353 334 L100 211 L78 75 Z" /><glyph glyph-name="" unicode="?" d="M121 234 L219 234 L251 332 Q321 370 370 435 Q419 500 421 598 Q419 679 373 717 Q327 754 263 754 Q216 755 170 731 Q123 707 79 644 L167 556 Q180 579 194 593 Q208 607 227 607 Q229 608 241 597 Q252 586 254 553 Q251 496 210 453 Q168 410 123 385 L121 234 ZM68 73 Q69 39 87 17 Q106 -5 136 -6 Q175 -5 203 25 Q231 55 232 99 Q232 133 213 155 Q195 177 164 178 Q126 177 98 147 Q69 117 68 73 L68 73 Z" /><glyph glyph-name="" unicode="@" d="M484 504 Q385 503 321 428 Q257 353 255 215 Q256 120 298 68 Q339 15 409 14 Q450 15 482 41 Q514 66 540 106 L545 106 Q557 62 586 38 Q614 14 647 14 Q722 13 788 96 Q853 178 857 352 Q854 539 765 621 Q676 702 536 700 Q354 701 226 578 Q99 455 93 192 Q95 7 179 -86 Q263 -179 411 -179 Q456 -179 503 -167 Q549 -156 585 -139 L575 -25 Q544 -41 507 -51 Q469 -61 432 -61 Q313 -64 257 -7 Q201 50 202 207 Q206 398 297 490 Q387 582 516 582 Q634 584 691 525 Q747 466 747 328 Q745 229 723 181 Q700 132 676 132 Q666 131 650 141 Q635 152 633 185 Q633 190 633 196 Q633 203 634 208 L669 456 L581 456 Q562 479 539 492 Q515 504 484 504 L484 504 ZM431 142 Q414 142 404 165 Q393 188 393 231 Q395 312 418 344 Q441 377 464 376 Q479 376 492 368 Q505 360 513 341 L500 239 Q493 194 472 168 Q452 142 431 142 L431 142 Z" /><glyph glyph-name="" unicode="a" d="M409 600 L442 600 L407 322 L300 322 L409 600 ZM176 748 L148 642 L260 617 L-29 0 L149 -6 L226 178 L383 178 L360 0 L524 0 L630 748 L176 748 Z" /><glyph glyph-name="" unicode="b" d="M258 460 L274 606 L350 606 Q367 606 381 591 Q394 575 395 543 Q394 502 377 481 Q361 460 341 460 L258 460 ZM314 316 Q340 315 357 292 Q373 270 374 235 Q376 208 363 177 Q349 145 300 142 L214 142 L235 316 L314 316 ZM560 586 Q559 656 517 701 Q475 746 398 748 L131 748 L25 0 L302 0 Q414 2 475 69 Q536 135 537 236 Q536 292 512 333 Q488 374 446 388 L447 392 Q506 424 533 477 Q560 530 560 586 L560 586 Z" /><glyph glyph-name="" unicode="c" d="M303 142 Q245 142 219 187 Q193 233 193 322 Q193 431 236 516 Q278 601 361 606 Q378 606 394 601 Q410 596 425 587 L413 467 L529 467 L584 679 Q543 714 495 734 Q448 754 388 754 Q209 748 117 619 Q25 489 25 306 Q24 172 87 85 Q149 -3 287 -6 Q345 -8 408 26 Q470 60 524 154 L416 245 Q400 204 372 174 Q344 143 303 142 L303 142 Z" /><glyph glyph-name="" unicode="d" d="M241 0 Q405 6 492 134 Q579 263 580 447 Q580 578 523 662 Q465 745 346 748 L132 748 L25 0 L241 0 ZM215 148 L274 600 L312 600 Q366 599 390 555 Q413 511 413 429 Q413 303 371 227 Q328 150 247 148 L215 148 Z" /><glyph glyph-name="" unicode="e" d="M130 748 L24 0 L468 0 L492 148 L210 148 L234 316 L480 316 L503 460 L258 460 L276 600 L553 600 L577 748 L130 748 Z" /><glyph glyph-name="" unicode="f" d="M517 600 L541 748 L131 748 L25 0 L191 0 L229 286 L440 286 L464 430 L253 430 L274 600 L517 600 Z" /><glyph glyph-name="" unicode="g" d="M602 430 L373 430 L349 286 L432 286 L422 177 Q403 160 384 151 Q364 142 344 142 Q285 142 258 187 Q232 233 232 322 Q232 431 274 516 Q315 601 397 606 Q436 606 468 592 Q499 578 531 546 L620 679 Q578 714 530 734 Q483 754 424 754 Q247 748 156 619 Q64 489 64 306 Q63 172 126 85 Q188 -3 326 -6 Q377 -6 421 10 Q465 25 507 54 L546 54 L602 430 Z" /><glyph glyph-name="" unicode="h" d="M190 0 L234 316 L429 316 L385 0 L550 0 L656 748 L491 748 L452 460 L257 460 L296 748 L131 748 L25 0 L190 0 Z" /><glyph glyph-name="" unicode="i" d="M190 0 L296 748 L131 748 L25 0 L190 0 Z" /><glyph glyph-name="" unicode="j" d="M16 196 Q40 71 99 31 Q158 -9 218 -6 Q291 -7 353 61 Q415 129 439 284 L504 748 L339 748 L268 254 Q257 184 240 162 Q223 140 207 142 Q189 141 174 159 Q160 178 156 230 L16 196 Z" /><glyph glyph-name="" unicode="k" d="M631 748 L443 754 L292 449 L254 449 L296 748 L131 748 L25 0 L190 0 L233 312 L282 312 Q322 215 353 105 Q385 -6 482 -16 Q511 -16 531 -11 Q551 -7 562 -1 L540 136 Q489 141 474 218 Q458 295 419 390 L631 748 Z" /><glyph glyph-name="" unicode="l" d="M214 148 L296 748 L131 748 L25 0 L418 0 L442 148 L214 148 Z" /><glyph glyph-name="" unicode="m" d="M376 128 L518 387 L521 386 L463 -1 L629 -1 L735 748 L608 748 L376 334 L258 748 L131 748 L25 -1 L191 -1 L239 385 L242 387 L308 128 L376 128 Z" /><glyph glyph-name="" unicode="n" d="M449 0 L550 0 L656 748 L491 748 L437 321 L433 319 L229 748 L131 748 L25 0 L190 0 L244 420 L247 422 L449 0 Z" /><glyph glyph-name="" unicode="o" d="M372 754 Q208 749 117 621 Q26 492 25 299 Q25 163 85 80 Q145 -4 264 -6 Q428 -1 519 127 Q610 256 611 449 Q611 585 551 668 Q491 752 372 754 L372 754 ZM349 606 Q399 604 421 553 Q443 501 442 421 Q441 316 400 232 Q358 147 285 142 Q235 144 214 195 Q193 247 194 327 Q195 432 235 516 Q276 601 349 606 L349 606 Z" /><glyph glyph-name="" unicode="p" d="M131 748 L25 0 L191 0 L222 226 L302 226 Q411 229 491 315 Q570 400 574 526 Q572 624 518 685 Q464 746 377 748 L131 748 ZM335 606 Q367 605 386 578 Q406 550 406 507 Q405 445 376 407 Q346 369 306 368 L244 368 L274 606 L335 606 Z" /><glyph glyph-name="" unicode="q" d="M621 449 Q621 585 562 668 Q502 752 382 754 Q218 749 128 621 Q37 492 36 299 Q36 181 80 102 Q124 23 212 0 Q274 -48 348 -127 Q422 -206 517 -214 Q565 -213 605 -186 Q645 -160 671 -125 L579 -28 Q563 -47 543 -56 Q523 -66 509 -66 Q487 -64 461 -37 Q435 -10 411 22 Q513 67 567 184 Q621 301 621 449 L621 449 ZM297 126 Q237 150 220 196 Q202 242 204 327 Q205 432 246 516 Q287 601 360 606 Q409 604 431 553 Q453 501 453 421 Q454 318 420 235 Q385 152 297 126 L297 126 Z" /><glyph glyph-name="" unicode="r" d="M571 553 Q570 646 524 697 Q477 747 404 748 L131 748 L25 0 L191 0 L230 282 L259 282 Q295 185 332 88 Q368 -9 461 -16 Q490 -16 510 -11 Q530 -7 541 -1 L519 136 Q479 138 460 185 Q442 232 424 301 Q484 330 526 393 Q569 456 571 553 L571 553 ZM361 606 Q378 605 390 583 Q402 561 403 526 Q403 486 386 457 Q368 427 329 426 L253 426 L274 606 L361 606 Z" /><glyph glyph-name="" unicode="s" d="M24 128 Q84 47 134 20 Q184 -8 240 -6 Q345 -5 404 57 Q463 120 464 235 Q450 366 353 419 Q256 472 242 534 Q242 571 262 588 Q281 606 314 606 Q324 606 338 603 Q351 600 367 594 L364 513 L474 513 L518 688 Q482 718 436 736 Q390 754 327 754 Q199 752 140 685 Q80 619 81 515 Q94 382 187 330 Q280 277 293 213 Q292 180 279 161 Q266 142 247 142 Q207 143 180 172 Q153 201 130 240 L24 128 Z" /><glyph glyph-name="" unicode="t" d="M541 748 L88 748 L64 600 L209 600 L126 0 L291 0 L373 600 L518 600 L541 748 Z" /><glyph glyph-name="" unicode="u" d="M448 748 L388 322 Q377 243 349 193 Q321 144 278 142 Q244 143 226 172 Q207 201 207 249 Q207 266 209 284 Q211 302 213 322 L273 748 L107 748 L47 322 Q44 301 42 281 Q40 261 40 242 Q40 129 93 63 Q146 -4 254 -6 Q380 -3 456 87 Q532 177 553 322 L614 748 L448 748 Z" /><glyph glyph-name="" unicode="v" d="M293 201 L233 754 L62 744 L183 0 L335 0 Q400 126 475 311 Q550 495 625 744 L460 754 Q414 582 374 444 Q334 306 297 201 L293 201 Z" /><glyph glyph-name="" unicode="w" d="M606 201 L546 754 L375 744 L405 549 Q376 446 349 359 Q322 272 297 201 L293 201 L233 754 L62 744 L183 0 L335 0 Q362 59 392 129 Q421 198 453 278 L457 278 L497 0 L648 0 Q713 126 788 311 Q864 495 938 744 L773 754 Q727 582 687 444 Q647 306 610 201 L606 201 Z" /><glyph glyph-name="" unicode="x" d="M448 754 Q415 678 387 619 Q360 560 340 517 L285 754 L99 748 L226 392 Q157 305 88 206 Q19 107 -39 0 L151 -6 Q181 51 214 115 Q247 180 294 251 L358 -6 L546 0 L411 372 Q478 461 527 550 Q576 639 628 748 L448 754 Z" /><glyph glyph-name="" unicode="y" d="M59 748 L177 279 L138 0 L303 0 L343 284 Q410 388 464 493 Q517 598 584 748 L400 754 Q371 656 344 579 Q317 502 288 437 L284 437 L245 754 L59 748 Z" /><glyph glyph-name="" unicode="z" d="M-11 80 L42 -16 Q69 1 87 7 Q105 12 126 12 Q158 10 209 -6 Q259 -22 316 -24 Q355 -24 401 -12 Q448 0 479 23 L440 160 Q411 141 389 135 Q366 129 350 130 Q323 131 287 139 Q250 147 226 148 L225 152 L542 665 L531 748 L99 748 L75 606 L313 606 L-11 80 Z" /><glyph glyph-name="" unicode="[" d="M251 -27 L150 -27 L247 688 L345 688 L364 806 L157 806 L22 -145 L231 -145 L251 -27 Z" /><glyph glyph-name="" unicode="\" d="M126 806 L247 -204 L359 -204 L237 806 L126 806 Z" /><glyph glyph-name="" unicode="]" d="M-37 -145 L172 -145 L307 806 L100 806 L81 688 L179 688 L82 -27 L-18 -27 L-37 -145 Z" /><glyph glyph-name="" unicode="^" d="M48 296 L170 296 L325 621 L390 296 L513 296 L409 748 L282 748 L48 296 Z" /><glyph glyph-name="" unicode="_" d="M376 -126 L385 -60 L3 -60 L-6 -126 L376 -126 Z" /><glyph glyph-name="" unicode="`" d="M271 748 L114 748 L183 585 L308 585 L271 748 Z" /><glyph glyph-name="" unicode="a" d="M406 -6 Q421 -6 440 -2 Q460 2 474 10 L494 134 Q465 134 454 144 Q443 154 444 174 Q444 184 445 197 Q446 210 448 222 L484 491 L347 491 Q330 508 306 517 Q283 525 259 525 Q154 523 91 438 Q27 352 25 205 Q26 105 65 50 Q104 -5 166 -6 Q202 -5 237 15 Q271 36 292 66 L297 66 Q309 29 336 12 Q363 -6 406 -6 L406 -6 ZM182 234 Q183 303 205 340 Q226 377 252 377 Q272 377 285 370 Q297 364 308 351 L291 203 Q280 178 263 161 Q246 143 225 142 Q207 142 195 166 Q182 189 182 234 L182 234 Z" /><glyph glyph-name="" unicode="b" d="M284 795 L130 790 L22 32 L134 32 Q153 16 180 5 Q207 -6 246 -6 Q350 -4 419 80 Q487 164 490 313 Q489 413 446 469 Q402 524 323 525 Q300 525 283 517 Q265 508 247 491 L243 491 L284 795 ZM334 284 Q333 215 309 179 Q285 142 254 142 Q237 142 224 151 Q210 160 199 173 L221 351 Q235 364 248 370 Q260 377 280 377 Q302 377 318 353 Q333 329 334 284 L334 284 Z" /><glyph glyph-name="" unicode="c" d="M279 525 Q165 523 96 444 Q27 365 25 226 Q26 115 76 55 Q127 -5 216 -6 Q251 -7 298 11 Q344 28 395 75 L333 188 Q297 156 269 148 Q241 141 231 142 Q211 142 196 166 Q182 190 181 238 Q182 304 207 341 Q231 377 263 377 Q271 377 278 376 Q286 375 293 372 L289 300 L393 300 L421 474 Q393 500 360 512 Q326 525 279 525 L279 525 Z" /><glyph glyph-name="" unicode="d" d="M527 795 L374 790 L332 501 Q316 513 297 519 Q278 525 259 525 Q154 523 91 438 Q27 352 25 205 Q26 105 65 50 Q104 -5 166 -6 Q202 -5 237 15 Q271 36 292 66 L297 66 Q309 29 336 12 Q363 -6 406 -6 Q421 -6 440 -2 Q460 2 474 10 L494 134 Q466 134 455 144 Q444 154 444 174 Q444 184 445 197 Q446 210 448 222 L527 795 ZM182 234 Q183 303 205 340 Q226 377 252 377 Q272 377 285 370 Q297 364 308 351 L291 203 Q280 178 263 161 Q246 143 225 142 Q207 142 195 166 Q182 189 182 234 L182 234 Z" /><glyph glyph-name="" unicode="e" d="M449 377 Q449 441 407 485 Q365 528 278 530 Q164 527 95 441 Q26 355 24 226 Q25 115 77 55 Q128 -5 219 -6 Q290 -6 330 7 Q370 20 406 45 L362 177 Q334 162 305 152 Q275 142 233 142 Q218 141 202 151 Q186 161 185 198 Q258 195 349 230 Q441 265 449 377 L449 377 ZM261 393 Q276 393 283 383 Q290 372 290 357 Q286 320 249 307 Q211 295 190 296 Q198 343 218 368 Q238 393 261 393 L261 393 Z" /><glyph glyph-name="" unicode="f" d="M249 399 L342 399 L361 519 L268 519 L273 565 Q282 622 301 636 Q321 650 336 648 Q344 648 367 644 Q390 641 416 631 L468 755 Q421 778 385 787 Q348 795 316 795 Q266 798 205 753 Q145 708 120 578 L114 519 L41 519 L26 429 L95 407 L46 18 Q37 -40 9 -57 Q-20 -75 -55 -73 L-49 -201 Q-38 -208 -26 -211 Q-13 -214 -1 -214 Q52 -217 114 -172 Q177 -126 198 5 L249 399 Z" /><glyph glyph-name="" unicode="g" d="M182 234 Q183 303 205 340 Q226 377 252 377 Q272 377 286 370 Q299 364 312 351 L294 203 Q283 178 265 161 Q247 143 225 142 Q207 142 195 166 Q183 189 182 234 L182 234 ZM268 24 Q259 -30 237 -50 Q214 -69 184 -68 Q153 -68 124 -58 Q95 -48 66 -31 L30 -163 Q64 -186 101 -200 Q139 -214 184 -214 Q288 -214 349 -146 Q410 -78 427 52 L487 491 L351 491 Q333 508 308 517 Q284 525 259 525 Q154 523 91 438 Q27 352 25 205 Q26 105 65 50 Q104 -5 166 -6 Q191 -6 218 6 Q244 18 266 38 L270 38 L268 24 Z" /><glyph glyph-name="" unicode="h" d="M377 525 Q340 525 309 507 Q277 489 249 457 L245 457 L292 795 L140 790 L25 0 L180 0 L223 318 Q235 343 254 361 Q274 378 297 379 Q311 380 323 367 Q335 355 336 320 Q336 307 334 289 L293 0 L446 0 L486 279 Q493 329 493 366 Q491 459 457 493 Q423 527 377 525 L377 525 Z" /><glyph glyph-name="" unicode="i" d="M105 659 Q106 623 127 599 Q147 576 179 575 Q225 576 254 609 Q283 641 284 688 Q283 724 262 749 Q242 773 210 774 Q164 773 135 739 Q106 706 105 659 L105 659 ZM252 519 L100 519 L58 218 Q54 184 51 161 Q49 138 49 128 Q50 51 85 22 Q120 -7 171 -6 Q186 -6 205 -2 Q224 2 239 10 L259 134 Q230 134 219 144 Q208 154 209 174 Q209 184 210 197 Q211 210 213 222 L252 519 Z" /><glyph glyph-name="" unicode="j" d="M57 18 Q48 -40 16 -57 Q-16 -75 -53 -73 L-48 -201 Q-34 -208 -19 -211 Q-4 -214 11 -214 Q64 -217 125 -171 Q186 -125 209 5 L281 519 L126 519 L57 18 ZM132 659 Q133 623 154 599 Q174 576 206 575 Q252 576 281 609 Q310 641 311 688 Q310 724 289 749 Q269 773 237 774 Q191 773 162 739 Q133 706 132 659 L132 659 Z" /><glyph glyph-name="" unicode="k" d="M292 795 L140 790 L25 0 L180 0 L221 312 Q232 341 256 359 Q280 377 306 377 Q320 377 328 367 Q337 358 337 341 Q332 299 289 280 Q245 260 225 260 L223 257 Q253 145 291 70 Q328 -6 392 -9 Q406 -9 424 -6 Q443 -3 467 9 L488 125 Q436 124 417 141 Q398 158 393 206 Q453 233 472 286 Q490 338 488 386 Q488 443 458 483 Q427 523 366 525 Q335 525 304 507 Q273 489 250 457 L246 457 L292 795 Z" /><glyph glyph-name="" unicode="l" d="M282 795 L128 790 L48 218 Q45 196 43 176 Q41 156 41 138 Q41 65 70 29 Q99 -6 161 -6 Q176 -6 195 -2 Q215 2 229 10 L249 134 Q221 134 210 144 Q199 154 199 174 Q199 184 200 197 Q201 210 203 222 L282 795 Z" /><glyph glyph-name="" unicode="m" d="M259 519 L115 519 L45 0 L199 0 L242 318 Q250 343 265 361 Q280 378 300 379 Q313 380 323 371 Q333 362 334 338 Q334 334 333 323 Q332 313 331 308 L289 0 L443 0 L486 318 Q494 343 510 361 Q525 378 545 379 Q561 380 570 372 Q579 364 579 338 Q579 321 575 297 Q572 272 570 254 L534 0 L688 0 L727 279 Q734 329 734 366 Q733 459 695 493 Q658 527 600 525 Q567 525 532 506 Q496 488 471 457 Q455 495 434 511 Q412 526 375 525 Q343 525 311 507 Q279 489 256 457 L252 457 L259 519 Z" /><glyph glyph-name="" unicode="n" d="M260 519 L115 519 L45 0 L199 0 L242 318 Q253 343 270 361 Q287 378 311 379 Q324 380 331 371 Q339 362 339 338 Q339 335 338 326 Q338 317 336 304 L294 0 L448 0 L487 279 Q491 304 492 326 Q493 347 493 366 Q492 459 458 493 Q425 527 377 525 Q349 525 316 506 Q283 488 256 457 L252 457 L260 519 Z" /><glyph glyph-name="" unicode="o" d="M284 525 Q171 524 99 441 Q27 359 25 211 Q26 115 75 56 Q123 -4 208 -6 Q320 -4 392 80 Q464 164 466 310 Q465 407 417 465 Q369 523 284 525 L284 525 ZM261 388 Q282 387 296 361 Q310 334 310 288 Q309 218 287 175 Q264 132 230 131 Q207 132 194 158 Q181 184 181 230 Q182 301 205 344 Q228 387 261 388 L261 388 Z" /><glyph glyph-name="" unicode="p" d="M114 519 L10 -214 L165 -208 L197 27 L200 28 Q216 11 232 2 Q247 -6 260 -6 Q368 -4 435 81 Q502 167 504 314 Q502 414 461 469 Q420 524 361 525 Q334 525 307 506 Q281 488 255 457 L251 457 L259 519 L114 519 ZM295 377 Q317 377 332 354 Q346 330 347 285 Q346 216 322 179 Q298 142 267 142 Q257 142 244 149 Q231 155 220 168 L238 316 Q246 341 260 359 Q274 376 295 377 L295 377 Z" /><glyph glyph-name="" unicode="q" d="M265 38 L230 -214 L385 -208 L484 491 L347 491 Q330 508 306 517 Q283 525 259 525 Q154 523 91 438 Q27 352 25 205 Q26 105 65 50 Q104 -5 166 -6 Q191 -6 216 6 Q241 18 261 38 L265 38 ZM182 234 Q183 303 205 340 Q226 377 252 377 Q272 377 285 370 Q297 364 308 351 L291 203 Q280 178 263 161 Q246 143 225 142 Q207 142 195 166 Q182 189 182 234 L182 234 Z" /><glyph glyph-name="" unicode="r" d="M259 519 L115 519 L40 0 L194 0 L236 310 Q249 335 268 353 Q287 370 311 371 Q326 371 339 368 Q353 365 363 356 L420 510 Q408 518 393 522 Q377 525 362 525 Q335 525 307 508 Q280 491 256 457 L252 457 L259 519 Z" /><glyph glyph-name="" unicode="s" d="M212 144 Q212 130 207 125 Q202 120 189 120 Q169 120 140 135 Q111 150 77 183 L9 70 Q57 23 103 6 Q148 -11 186 -10 Q275 -11 324 30 Q374 71 375 162 Q365 270 292 306 Q219 342 209 371 Q210 394 225 399 Q240 404 257 403 Q258 403 266 402 Q273 400 284 396 L282 348 L383 348 L405 490 Q364 511 322 520 Q281 529 248 529 Q137 526 95 475 Q53 423 55 353 Q65 244 134 208 Q202 172 212 144 L212 144 Z" /><glyph glyph-name="" unicode="t" d="M100 407 L75 211 Q70 177 70 150 Q73 58 112 25 Q152 -8 195 -6 Q224 -6 255 2 Q286 11 321 34 L311 154 Q297 147 287 145 Q277 142 264 142 Q252 141 240 149 Q229 158 228 191 Q228 196 229 204 Q230 211 231 224 L252 399 L342 399 L362 519 L272 519 L291 644 L189 644 L128 519 L60 519 L45 429 L100 407 Z" /><glyph glyph-name="" unicode="u" d="M245 519 L90 519 L51 240 Q47 216 46 195 Q45 174 45 156 Q48 61 90 26 Q132 -8 180 -6 Q216 -5 251 15 Q285 36 306 66 L310 66 Q323 29 350 12 Q377 -6 420 -6 Q435 -6 454 -2 Q473 2 488 10 L508 134 Q479 134 468 144 Q457 154 458 174 Q458 184 459 197 Q460 210 462 222 L503 519 L348 519 L304 201 Q295 180 277 161 Q260 143 239 142 Q226 141 215 152 Q204 162 203 200 Q203 206 203 214 Q204 222 205 230 L245 519 Z" /><glyph glyph-name="" unicode="v" d="M192 525 L25 519 L98 0 L242 0 Q283 45 361 167 Q440 288 449 399 Q448 466 421 498 Q394 530 350 530 Q334 530 315 525 Q297 519 282 513 L262 398 Q274 399 283 392 Q291 386 291 366 Q288 330 265 269 Q241 208 226 183 L223 184 L192 525 Z" /><glyph glyph-name="" unicode="w" d="M443 525 L287 519 L299 355 Q290 312 265 260 Q241 208 225 180 L222 181 L182 525 L25 519 L98 0 L234 0 Q246 16 269 50 Q291 83 331 144 L334 143 L349 0 L493 0 Q534 45 612 167 Q691 288 700 399 Q699 466 672 498 Q646 530 602 530 Q585 530 566 525 Q548 519 533 513 L513 388 Q525 389 534 382 Q543 376 543 356 Q540 321 510 265 Q481 209 467 180 L463 181 L443 525 Z" /><glyph glyph-name="" unicode="x" d="M281 -6 L463 0 L358 257 Q398 304 436 370 Q474 436 501 519 L331 525 Q322 478 311 439 Q301 399 285 371 L237 525 L56 519 L162 273 Q121 222 81 154 Q42 86 6 0 L176 -6 Q192 43 207 82 Q223 122 241 154 L281 -6 Z" /><glyph glyph-name="" unicode="y" d="M449 399 Q448 466 421 498 Q394 530 350 530 Q334 530 315 525 Q297 519 282 513 L262 388 Q274 389 283 382 Q291 376 291 356 Q290 319 278 255 Q266 190 255 161 L251 162 L191 525 L25 519 L133 0 Q110 -39 77 -60 Q44 -81 -6 -81 L2 -196 Q17 -206 31 -210 Q45 -214 58 -214 Q185 -198 312 3 Q439 205 449 399 L449 399 Z" /><glyph glyph-name="" unicode="z" d="M61 384 L228 384 L229 380 L7 94 L63 -16 Q86 1 105 7 Q123 12 143 12 Q166 10 210 -5 Q254 -20 303 -22 Q374 -22 427 23 L394 157 Q371 138 346 132 Q322 126 307 127 Q285 128 264 135 Q243 141 237 142 L236 146 L435 403 L425 519 L82 519 L61 384 Z" /><glyph glyph-name="" unicode="{" d="M171 327 Q191 337 217 374 Q242 410 253 473 L279 651 Q280 668 286 678 Q292 688 302 688 L352 688 L372 806 L318 806 Q256 805 215 763 Q174 720 163 643 L146 519 Q139 462 120 424 Q101 385 61 372 L48 283 Q75 274 86 251 Q96 228 96 194 Q96 181 95 167 Q93 152 91 136 L73 12 Q72 2 71 -7 Q70 -17 70 -26 Q70 -85 99 -118 Q127 -150 181 -151 L235 -151 L254 -33 L201 -33 Q193 -33 189 -25 Q185 -18 185 -4 Q185 -2 185 0 Q185 2 186 4 L212 182 Q215 202 214 218 Q213 264 199 291 Q186 318 171 327 L171 327 Z" /><glyph glyph-name="" unicode="|" d="M141 -154 L276 806 L168 806 L32 -154 L141 -154 Z" /><glyph glyph-name="" unicode="}" d="M188 328 Q168 318 143 281 Q118 245 107 182 L81 4 Q80 -13 74 -23 Q68 -33 58 -33 L7 -33 L-12 -151 L42 -151 Q103 -150 144 -107 Q185 -64 196 12 L214 136 Q221 193 240 231 Q259 270 299 283 L312 372 Q285 381 275 404 Q264 427 264 461 Q264 474 265 489 Q267 503 269 519 L286 643 Q288 653 289 662 Q290 672 290 681 Q290 740 261 773 Q233 806 179 806 L125 806 L106 688 L158 688 Q166 688 171 680 Q175 673 175 659 Q175 657 175 655 Q175 653 174 651 L148 473 Q145 454 145 437 Q146 391 160 364 Q174 337 188 328 L188 328 Z" /><glyph glyph-name="" unicode="~" d="M223 377 Q203 379 186 394 Q170 409 167 417 L97 309 Q128 278 150 264 Q172 251 206 251 Q260 254 299 275 Q337 295 368 298 Q389 296 410 280 Q431 263 435 255 L506 362 Q475 393 450 409 Q425 424 386 424 Q331 421 293 401 Q256 380 223 377 L223 377 Z" /><glyph glyph-name="" unicode=" " d="" /><glyph glyph-name="" unicode="¡" d="M142 434 Q142 400 160 379 Q177 357 206 356 Q242 357 269 388 Q296 418 297 462 Q297 496 279 518 Q262 539 234 540 Q197 539 170 508 Q143 478 142 434 L142 434 ZM152 300 L58 -214 L195 -214 L246 300 L152 300 Z" /><glyph glyph-name="" unicode="¢" d="M353 -38 L376 111 Q416 116 444 129 Q471 142 497 160 L461 290 Q436 272 410 260 Q383 247 346 247 Q327 247 314 272 Q301 297 300 344 Q301 420 324 461 Q347 502 377 502 Q413 502 436 490 Q458 477 479 459 L559 589 Q536 607 512 620 Q488 632 450 637 L473 787 L363 787 L340 634 Q250 612 197 531 Q144 449 143 323 Q143 238 175 185 Q207 131 267 115 L244 -38 L353 -38 Z" /><glyph glyph-name="" unicode="£" d="M258 148 Q283 180 292 217 Q300 253 306 312 L433 312 L464 414 L322 414 L329 465 Q344 563 370 587 Q396 610 420 606 Q433 606 456 597 Q479 588 508 569 L570 703 Q542 729 498 741 Q454 754 411 754 Q325 754 262 692 Q200 629 180 503 L167 414 L110 414 L99 341 L151 312 Q138 218 122 164 Q105 110 72 57 L128 -16 Q157 1 179 7 Q202 12 227 12 Q250 10 291 -4 Q332 -19 377 -21 Q414 -21 454 -10 Q494 1 529 23 L490 164 Q465 145 440 137 Q414 130 390 130 Q335 131 309 137 Q283 142 259 143 L258 148 Z" /><glyph glyph-name="" unicode="¥" d="M356 0 L389 246 L472 268 L498 334 L423 334 L449 406 L526 424 L553 494 L494 494 L605 748 L429 754 L345 464 L341 464 L330 754 L154 748 L194 494 L128 494 L134 424 L211 406 L220 334 L138 334 L143 268 L225 246 L191 0 L356 0 Z" /><glyph glyph-name="" unicode="§" d="M469 303 Q456 425 366 468 Q276 511 263 574 Q264 605 282 614 Q300 623 316 622 Q334 622 354 608 Q374 593 390 567 L476 642 Q431 707 384 731 Q337 755 301 754 Q242 756 189 713 Q136 669 132 558 Q132 541 138 519 Q143 496 151 478 Q112 450 84 411 Q55 372 54 303 Q67 182 157 141 Q246 99 259 36 Q258 6 241 -3 Q223 -12 207 -11 Q189 -11 169 3 Q148 18 132 44 L46 -31 Q91 -96 139 -120 Q186 -144 221 -143 Q280 -145 334 -102 Q387 -58 391 53 Q391 69 385 90 Q379 110 371 128 Q411 156 439 195 Q468 234 469 303 L469 303 ZM317 290 Q317 268 310 253 Q303 237 292 222 Q260 246 234 267 Q208 287 206 316 Q206 338 213 353 Q220 369 231 384 Q263 360 289 339 Q315 319 317 290 L317 290 Z" /><glyph glyph-name="" unicode="¨" d="M90 659 Q90 628 106 608 Q121 587 147 586 Q183 587 208 616 Q233 644 234 684 Q233 715 216 734 Q198 753 172 754 Q141 753 116 725 Q91 698 90 659 L90 659 ZM272 659 Q272 628 287 608 Q302 587 328 586 Q364 587 389 615 Q414 643 415 684 Q414 715 397 734 Q379 753 353 754 Q322 753 298 725 Q273 697 272 659 L272 659 Z" /><glyph glyph-name="" unicode="©" d="M48 317 Q50 178 122 88 Q195 -3 315 -6 Q461 -1 549 124 Q636 249 638 431 Q636 570 569 660 Q502 751 391 754 Q234 749 142 624 Q50 499 48 317 L48 317 ZM116 329 Q117 473 188 576 Q259 679 386 684 Q484 681 528 605 Q571 529 570 419 Q568 275 500 172 Q432 69 322 64 Q226 63 172 126 Q117 190 116 329 L116 329 ZM388 309 Q374 285 355 271 Q336 257 324 257 Q302 257 288 277 Q273 296 272 332 Q273 397 293 436 Q314 475 349 476 Q353 476 357 476 Q361 475 366 474 L361 408 L438 408 L468 528 Q448 552 421 564 Q393 576 367 576 Q288 576 238 514 Q188 452 186 331 Q187 250 223 204 Q259 158 318 157 Q351 157 391 183 Q431 210 453 263 L388 309 Z" /><glyph glyph-name="" unicode="ª" d="M300 423 Q309 423 321 426 Q333 428 342 433 L353 509 Q336 509 330 516 Q324 523 324 535 Q324 548 327 566 L348 733 L262 733 Q252 744 238 749 Q223 754 208 754 Q143 753 104 700 Q65 647 64 554 Q65 493 88 458 Q111 424 151 423 Q173 423 195 436 Q217 449 231 468 L235 468 Q241 445 256 434 Q272 423 300 423 L300 423 ZM187 516 Q175 516 168 530 Q160 545 160 573 Q161 616 173 638 Q186 661 203 661 Q217 661 226 657 Q235 653 241 645 L231 553 Q225 538 214 527 Q203 516 187 516 L187 516 Z" /><glyph glyph-name="" unicode="«" d="M242 598 L87 367 L85 359 L176 130 L265 191 L203 364 L312 537 L242 598 ZM431 598 L276 367 L274 359 L365 130 L453 191 L391 364 L501 537 L431 598 Z" /><glyph glyph-name="" unicode="¬" d="M359 171 L467 171 L517 508 L93 508 L72 382 L389 382 L359 171 Z" /><glyph glyph-name="" unicode="®" d="M48 317 Q50 178 122 88 Q195 -3 315 -6 Q461 -1 549 124 Q636 249 638 431 Q636 570 569 660 Q502 751 391 754 Q234 749 142 624 Q50 499 48 317 L48 317 ZM116 329 Q117 473 188 576 Q259 679 386 684 Q484 681 528 605 Q571 529 570 419 Q568 275 500 172 Q432 69 322 64 Q226 63 172 126 Q117 190 116 329 L116 329 ZM257 588 L199 175 L283 175 L304 329 L339 329 Q350 264 371 217 Q391 170 432 168 Q438 168 447 169 Q456 171 462 173 L457 249 Q443 249 431 272 Q419 295 409 348 Q446 369 465 405 Q483 440 483 476 Q484 516 462 551 Q439 586 386 588 L257 588 ZM325 501 L366 501 Q382 500 390 488 Q398 475 398 459 Q398 437 387 421 Q376 406 357 405 L315 405 L325 501 Z" /><glyph glyph-name="" unicode="¯" d="M120 714 L105 618 L381 618 L396 714 L120 714 Z" /><glyph glyph-name="" unicode="°" d="M103 550 Q104 487 139 446 Q173 405 225 404 Q290 405 342 459 Q394 513 397 602 Q396 665 361 706 Q327 747 275 748 Q210 747 158 693 Q106 639 103 550 L103 550 ZM183 562 Q184 605 207 634 Q230 663 262 664 Q287 663 302 642 Q317 622 317 590 Q316 547 293 518 Q271 489 238 488 Q213 489 198 510 Q183 530 183 562 L183 562 Z" /><glyph glyph-name="" unicode="±" d="M113 358 L271 358 L254 230 L363 230 L379 358 L537 358 L557 484 L399 484 L416 612 L308 612 L291 484 L133 484 L113 358 ZM92 190 L71 64 L495 64 L516 190 L92 190 Z" /><glyph glyph-name="" unicode="´" d="M181 585 L306 585 L423 748 L265 748 L181 585 Z" /><glyph glyph-name="" unicode="µ" d="M501 519 L347 519 L302 201 Q293 180 276 161 Q258 143 237 142 Q224 141 213 152 Q203 162 202 200 Q202 206 202 214 Q203 222 204 230 L244 519 L88 519 L-15 -208 L139 -208 L167 8 L174 8 Q185 1 198 -2 Q211 -5 221 -5 Q247 -3 270 19 Q292 42 305 66 L309 66 Q322 29 349 11 Q376 -6 418 -6 Q433 -6 452 -2 Q472 2 486 10 L506 134 Q478 134 467 144 Q456 154 456 174 Q456 184 458 197 Q459 209 461 222 L501 519 Z" /><glyph glyph-name="" unicode="¶" d="M452 617 L501 617 L415 0 L552 0 L659 748 L336 748 Q201 746 131 671 Q61 595 61 473 Q64 374 121 315 Q179 256 262 254 L230 8 Q220 -50 189 -67 Q157 -85 120 -83 L128 -201 Q142 -208 157 -211 Q172 -214 186 -214 Q239 -217 293 -171 Q348 -125 369 5 L452 617 Z" /><glyph glyph-name="" unicode="·" d="M212 392 Q212 424 195 445 Q179 466 152 467 Q117 466 91 437 Q65 408 64 367 Q65 335 81 314 Q98 293 125 292 Q159 293 185 322 Q211 351 212 392 L212 392 Z" /><glyph glyph-name="" unicode="¸" d="M134 52 Q115 -33 86 -64 Q57 -96 -5 -113 L25 -214 Q116 -203 165 -135 Q213 -66 214 23 L134 52 Z" /><glyph glyph-name="" unicode="º" d="M224 753 Q154 752 110 700 Q65 649 64 557 Q64 497 94 460 Q124 423 178 422 Q247 423 292 476 Q336 528 338 619 Q337 679 307 716 Q277 752 224 753 L224 753 ZM211 668 Q227 668 235 651 Q243 634 243 606 Q242 561 228 534 Q213 508 191 507 Q175 507 167 524 Q159 541 159 569 Q160 614 175 641 Q189 667 211 668 L211 668 Z" /><glyph glyph-name="" unicode="»" d="M114 537 L176 364 L67 191 L136 130 L291 359 L293 367 L202 598 L114 537 ZM303 537 L364 364 L256 191 L325 130 L480 359 L482 367 L391 598 L303 537 Z" /><glyph glyph-name="" unicode="¿" d="M312 306 L214 306 L182 208 Q112 170 64 105 Q15 40 13 -58 Q15 -139 61 -177 Q106 -214 170 -214 Q217 -215 263 -191 Q310 -167 355 -104 L266 -16 Q253 -39 239 -53 Q224 -67 206 -67 Q202 -68 191 -57 Q180 -46 179 -13 Q182 44 224 87 Q265 130 310 155 L312 306 ZM365 467 Q365 501 346 523 Q328 545 297 546 Q258 545 230 515 Q202 485 201 441 Q202 407 220 385 Q239 363 269 362 Q307 363 335 393 Q364 423 365 467 L365 467 Z" /><glyph glyph-name="" unicode="à" d="M409 600 L442 600 L407 322 L300 322 L409 600 ZM176 748 L148 642 L260 617 L-29 0 L149 -6 L226 178 L383 178 L360 0 L524 0 L630 748 L176 748 ZM477 959 L320 959 L389 796 L514 796 L477 959 Z" /><glyph glyph-name="" unicode="á" d="M409 600 L442 600 L407 322 L300 322 L409 600 ZM176 748 L148 642 L260 617 L-29 0 L149 -6 L226 178 L383 178 L360 0 L524 0 L630 748 L176 748 ZM367 795 L492 795 L609 958 L451 958 L367 795 Z" /><glyph glyph-name="" unicode="â" d="M409 600 L442 600 L407 322 L300 322 L409 600 ZM176 748 L148 642 L260 617 L-29 0 L149 -6 L226 178 L383 178 L360 0 L524 0 L630 748 L176 748 ZM520 959 L399 959 L296 796 L394 796 L444 866 L478 796 L575 796 L520 959 Z" /><glyph glyph-name="" unicode="ã" d="M409 600 L442 600 L407 322 L300 322 L409 600 ZM176 748 L148 642 L260 617 L-29 0 L149 -6 L226 178 L383 178 L360 0 L524 0 L630 748 L176 748 ZM574 903 Q557 931 539 939 Q520 948 510 947 Q466 945 441 930 Q417 914 393 912 Q385 912 372 916 Q358 921 341 937 L305 837 Q323 809 342 801 Q361 792 371 793 Q405 795 435 811 Q465 826 488 828 Q496 829 509 824 Q521 819 537 803 L574 903 Z" /><glyph glyph-name="" unicode="ä" d="M409 600 L442 600 L407 322 L300 322 L409 600 ZM176 748 L148 642 L260 617 L-29 0 L149 -6 L226 178 L383 178 L360 0 L524 0 L630 748 L176 748 ZM341 868 Q341 837 357 817 Q372 796 398 795 Q434 796 459 825 Q484 853 485 893 Q484 924 467 943 Q449 962 423 963 Q392 962 367 934 Q342 907 341 868 L341 868 ZM523 868 Q523 837 538 817 Q553 796 579 795 Q615 796 640 824 Q665 852 666 893 Q665 924 648 943 Q630 962 604 963 Q573 962 549 934 Q524 906 523 868 L523 868 Z" /><glyph glyph-name="" unicode="å" d="M409 600 L442 600 L407 322 L300 322 L409 600 ZM176 748 L148 642 L260 617 L-29 0 L149 -6 L226 178 L383 178 L360 0 L524 0 L630 748 L176 748 ZM397 874 Q398 835 417 813 Q437 790 469 790 Q510 791 541 823 Q572 855 574 908 Q574 947 554 970 Q535 992 502 992 Q461 991 430 959 Q399 927 397 874 L397 874 ZM457 883 Q457 904 468 918 Q478 931 493 932 Q504 932 510 922 Q516 913 516 899 Q515 878 505 864 Q494 851 479 850 Q469 850 463 860 Q457 869 457 883 L457 883 Z" /><glyph glyph-name="" unicode="æ" d="M300 322 L409 600 L448 600 L413 322 L300 322 ZM389 178 L366 0 L770 0 L794 148 L556 148 L575 316 L781 316 L804 460 L598 460 L614 600 L855 600 L879 748 L176 748 L148 642 L260 617 L-29 0 L149 -6 L226 178 L389 178 Z" /><glyph glyph-name="" unicode="ç" d="M303 142 Q245 142 219 187 Q193 233 193 322 Q193 431 236 516 Q278 601 361 606 Q378 606 394 601 Q410 596 425 587 L413 467 L529 467 L584 679 Q543 714 495 734 Q448 754 388 754 Q209 748 117 619 Q25 489 25 306 Q24 187 73 103 Q121 19 226 -1 Q209 -53 181 -75 Q154 -98 103 -113 L134 -214 Q216 -204 265 -142 Q313 -81 320 -4 Q372 0 425 36 Q478 71 524 154 L416 245 Q400 204 372 174 Q344 143 303 142 L303 142 Z" /><glyph glyph-name="" unicode="è" d="M130 748 L24 0 L468 0 L492 148 L210 148 L234 316 L480 316 L503 460 L258 460 L276 600 L553 600 L577 748 L130 748 ZM390 958 L233 958 L302 795 L427 795 L390 958 Z" /><glyph glyph-name="" unicode="é" d="M130 748 L24 0 L468 0 L492 148 L210 148 L234 316 L480 316 L503 460 L258 460 L276 600 L553 600 L577 748 L130 748 ZM302 795 L427 795 L544 958 L386 958 L302 795 Z" /><glyph glyph-name="" unicode="ê" d="M130 748 L24 0 L468 0 L492 148 L210 148 L234 316 L480 316 L503 460 L258 460 L276 600 L553 600 L577 748 L130 748 ZM448 959 L327 959 L224 796 L322 796 L372 866 L406 796 L503 796 L448 959 Z" /><glyph glyph-name="" unicode="ë" d="M147 748 L41 0 L485 0 L509 148 L227 148 L251 316 L497 316 L520 460 L275 460 L293 600 L570 600 L594 748 L147 748 ZM229 870 Q229 839 245 819 Q260 798 286 797 Q322 798 347 827 Q372 855 373 895 Q372 926 355 945 Q337 964 311 965 Q280 964 255 936 Q230 909 229 870 L229 870 ZM411 870 Q411 839 426 819 Q441 798 467 797 Q503 798 528 826 Q553 854 554 895 Q553 926 536 945 Q518 964 492 965 Q461 964 437 936 Q412 908 411 870 L411 870 Z" /><glyph glyph-name="" unicode="ñ" d="M449 0 L550 0 L656 748 L491 748 L437 321 L433 319 L229 748 L131 748 L25 0 L190 0 L244 420 L247 422 L449 0 ZM511 905 Q494 933 476 941 Q457 950 447 949 Q403 947 378 932 Q354 916 330 914 Q322 914 309 918 Q295 923 278 939 L242 839 Q260 811 279 803 Q298 794 308 795 Q342 797 372 813 Q402 828 425 830 Q433 831 446 826 Q458 821 474 805 L511 905 Z" /><glyph glyph-name="" unicode="ò" d="M372 754 Q208 749 117 621 Q26 492 25 299 Q25 163 85 80 Q145 -4 264 -6 Q428 -1 519 127 Q610 256 611 449 Q611 585 551 668 Q491 752 372 754 L372 754 ZM349 606 Q399 604 421 553 Q443 501 442 421 Q441 316 400 232 Q358 147 285 142 Q235 144 214 195 Q193 247 194 327 Q195 432 235 516 Q276 601 349 606 L349 606 ZM419 958 L262 958 L331 795 L456 795 L419 958 Z" /><glyph glyph-name="" unicode="ó" d="M372 754 Q208 749 117 621 Q26 492 25 299 Q25 163 85 80 Q145 -4 264 -6 Q428 -1 519 127 Q610 256 611 449 Q611 585 551 668 Q491 752 372 754 L372 754 ZM349 606 Q399 604 421 553 Q443 501 442 421 Q441 316 400 232 Q358 147 285 142 Q235 144 214 195 Q193 247 194 327 Q195 432 235 516 Q276 601 349 606 L349 606 ZM332 794 L457 794 L574 957 L416 957 L332 794 Z" /><glyph glyph-name="" unicode="ô" d="M372 754 Q208 749 117 621 Q26 492 25 299 Q25 163 85 80 Q145 -4 264 -6 Q428 -1 519 127 Q610 256 611 449 Q611 585 551 668 Q491 752 372 754 L372 754 ZM349 606 Q399 604 421 553 Q443 501 442 421 Q441 316 400 232 Q358 147 285 142 Q235 144 214 195 Q193 247 194 327 Q195 432 235 516 Q276 601 349 606 L349 606 ZM478 958 L357 958 L254 795 L352 795 L402 865 L436 795 L533 795 L478 958 Z" /><glyph glyph-name="" unicode="õ" d="M372 754 Q208 749 117 621 Q26 492 25 299 Q25 163 85 80 Q145 -4 264 -6 Q428 -1 519 127 Q610 256 611 449 Q611 585 551 668 Q491 752 372 754 L372 754 ZM349 606 Q399 604 421 553 Q443 501 442 421 Q441 316 400 232 Q358 147 285 142 Q235 144 214 195 Q193 247 194 327 Q195 432 235 516 Q276 601 349 606 L349 606 ZM519 905 Q502 933 484 941 Q465 950 455 949 Q411 947 386 932 Q362 916 338 914 Q330 914 317 918 Q303 923 286 939 L250 839 Q268 811 287 803 Q306 794 316 795 Q350 797 380 813 Q410 828 433 830 Q441 831 454 826 Q466 821 482 805 L519 905 Z" /><glyph glyph-name="" unicode="ö" d="M372 754 Q208 749 117 621 Q26 492 25 299 Q25 163 85 80 Q145 -4 264 -6 Q428 -1 519 127 Q610 256 611 449 Q611 585 551 668 Q491 752 372 754 L372 754 ZM349 606 Q399 604 421 553 Q443 501 442 421 Q441 316 400 232 Q358 147 285 142 Q235 144 214 195 Q193 247 194 327 Q195 432 235 516 Q276 601 349 606 L349 606 ZM240 868 Q240 837 256 817 Q271 796 297 795 Q333 796 358 825 Q383 853 384 893 Q383 924 366 943 Q348 962 322 963 Q291 962 266 934 Q241 907 240 868 L240 868 ZM422 868 Q422 837 437 817 Q452 796 478 795 Q514 796 539 824 Q564 852 565 893 Q564 924 547 943 Q529 962 503 963 Q472 962 448 934 Q423 906 422 868 L422 868 Z" /><glyph glyph-name="" unicode="ø" d="M651 689 L611 754 L542 679 Q513 715 470 734 Q428 754 372 754 Q208 749 117 621 Q26 492 25 299 Q25 254 32 214 Q39 174 52 140 L-17 65 L24 0 L90 73 Q120 35 164 15 Q207 -6 264 -6 Q428 -1 519 127 Q610 256 611 449 Q611 542 582 613 L651 689 ZM442 421 Q441 316 400 232 Q358 147 285 142 Q257 142 239 159 Q220 175 210 205 L441 458 Q442 440 442 421 L442 421 ZM349 606 Q375 606 394 591 Q412 575 423 548 L194 297 L194 327 Q195 432 235 516 Q276 601 349 606 L349 606 Z" /><glyph glyph-name="" unicode="ù" d="M448 748 L388 322 Q377 243 349 193 Q321 144 278 142 Q244 143 226 172 Q207 201 207 249 Q207 266 209 284 Q211 302 213 322 L273 748 L107 748 L47 322 Q44 301 42 281 Q40 261 40 242 Q40 129 93 63 Q146 -4 254 -6 Q380 -3 456 87 Q532 177 553 322 L614 748 L448 748 ZM396 959 L239 959 L308 796 L433 796 L396 959 Z" /><glyph glyph-name="" unicode="ú" d="M448 748 L388 322 Q377 243 349 193 Q321 144 278 142 Q244 143 226 172 Q207 201 207 249 Q207 266 209 284 Q211 302 213 322 L273 748 L107 748 L47 322 Q44 301 42 281 Q40 261 40 242 Q40 129 93 63 Q146 -4 254 -6 Q380 -3 456 87 Q532 177 553 322 L614 748 L448 748 ZM303 795 L428 795 L545 958 L387 958 L303 795 Z" /><glyph glyph-name="" unicode="û" d="M448 748 L388 322 Q377 243 349 193 Q321 144 278 142 Q244 143 226 172 Q207 201 207 249 Q207 266 209 284 Q211 302 213 322 L273 748 L107 748 L47 322 Q44 301 42 281 Q40 261 40 242 Q40 129 93 63 Q146 -4 254 -6 Q380 -3 456 87 Q532 177 553 322 L614 748 L448 748 ZM462 959 L341 959 L238 796 L336 796 L386 866 L420 796 L517 796 L462 959 Z" /><glyph glyph-name="" unicode="ü" d="M448 748 L388 322 Q377 243 349 193 Q321 144 278 142 Q244 143 226 172 Q207 201 207 249 Q207 266 209 284 Q211 302 213 322 L273 748 L107 748 L47 322 Q44 301 42 281 Q40 261 40 242 Q40 129 93 63 Q146 -4 254 -6 Q380 -3 456 87 Q532 177 553 322 L614 748 L448 748 ZM231 868 Q231 837 247 817 Q262 796 288 795 Q324 796 349 825 Q374 853 375 893 Q374 924 357 943 Q339 962 313 963 Q282 962 257 934 Q232 907 231 868 L231 868 ZM413 868 Q413 837 428 817 Q443 796 469 795 Q505 796 530 824 Q555 852 556 893 Q555 924 538 943 Q520 962 494 963 Q463 962 439 934 Q414 906 413 868 L413 868 Z" /><glyph glyph-name="" unicode="ß" d="M99 404 L48 18 Q38 -40 7 -57 Q-25 -75 -62 -73 L-57 -201 Q-44 -208 -29 -211 Q-13 -214 1 -214 Q54 -217 116 -171 Q177 -125 200 5 L278 565 Q288 623 313 639 Q338 655 351 653 Q367 653 385 639 Q402 624 404 600 Q398 552 355 517 Q311 482 305 413 Q310 333 348 290 Q386 246 391 202 Q391 167 381 154 Q371 141 355 142 Q338 143 326 151 Q314 159 307 167 L243 45 Q265 25 300 11 Q335 -4 369 -5 Q434 -5 493 49 Q551 103 555 207 Q550 308 514 348 Q477 388 472 419 Q478 467 520 496 Q561 524 567 615 Q567 689 520 741 Q473 793 374 795 Q298 797 223 748 Q148 698 124 568 L117 519 L26 519 L14 429 L99 404 Z" /><glyph glyph-name="" unicode="æ" d="M272 525 Q227 525 183 513 Q140 500 96 474 L122 361 Q157 380 180 388 Q203 397 232 397 Q257 398 272 383 Q287 368 287 331 Q287 324 286 317 Q286 310 285 302 Q272 309 250 312 Q229 315 218 315 Q105 308 61 243 Q17 178 19 133 Q20 71 52 33 Q85 -5 142 -6 Q207 -5 248 20 Q289 45 316 81 Q342 39 382 17 Q421 -6 473 -6 Q544 -6 584 7 Q624 20 660 45 L617 177 Q589 162 559 152 Q529 142 487 142 Q472 141 456 151 Q440 161 439 198 Q512 195 603 230 Q695 265 703 377 Q703 441 661 485 Q619 528 532 530 Q493 530 460 516 Q426 502 396 477 Q372 501 340 513 Q309 525 272 525 L272 525 ZM219 117 Q200 117 191 129 Q182 141 182 164 Q181 189 192 209 Q202 230 233 231 Q247 231 254 228 Q262 224 272 217 Q265 160 248 138 Q231 116 219 117 L219 117 ZM516 393 Q530 393 538 383 Q545 372 545 357 Q541 320 503 307 Q465 295 444 296 Q452 343 472 368 Q493 393 516 393 L516 393 Z" /><glyph glyph-name="" unicode="ç" d="M279 525 Q165 523 96 444 Q27 365 25 226 Q26 123 70 63 Q114 3 193 -5 Q175 -54 148 -76 Q120 -98 71 -113 L102 -214 Q187 -203 236 -140 Q285 -76 289 3 Q312 11 339 29 Q366 46 395 75 L333 188 Q297 156 269 148 Q241 141 231 142 Q211 142 196 166 Q182 190 181 238 Q182 304 207 341 Q231 377 263 377 Q271 377 278 376 Q286 374 293 372 L289 300 L393 300 L421 474 Q393 500 360 512 Q326 525 279 525 L279 525 Z" /><glyph glyph-name="" unicode="ë" d="M447 377 Q447 441 405 485 Q363 528 276 530 Q162 527 93 441 Q24 355 22 226 Q23 115 75 55 Q126 -5 217 -6 Q288 -6 328 7 Q368 20 404 45 L360 177 Q332 162 303 152 Q273 142 231 142 Q216 141 200 151 Q184 161 183 198 Q256 195 347 230 Q439 265 447 377 L447 377 ZM259 393 Q274 393 281 383 Q288 372 288 357 Q284 320 247 307 Q209 295 188 296 Q196 343 216 368 Q236 393 259 393 L259 393 ZM143 659 Q143 628 159 608 Q174 587 200 586 Q236 587 261 616 Q286 644 287 684 Q286 715 269 734 Q251 753 225 754 Q194 753 169 725 Q144 698 143 659 L143 659 ZM325 659 Q325 628 340 608 Q355 587 381 586 Q417 587 442 615 Q467 643 468 684 Q467 715 450 734 Q432 753 406 754 Q375 753 351 725 Q326 697 325 659 L325 659 Z" /><glyph glyph-name="" unicode="ñ" d="M258 519 L113 519 L43 0 L197 0 L240 318 Q251 343 268 361 Q285 378 309 379 Q322 380 329 371 Q337 362 337 338 Q337 335 336 326 Q336 317 334 304 L292 0 L446 0 L485 279 Q489 304 490 326 Q491 347 491 366 Q490 459 456 493 Q423 527 375 525 Q347 525 314 506 Q281 488 254 457 L250 457 L258 519 ZM462 699 Q445 727 427 735 Q408 744 398 743 Q354 741 329 726 Q305 710 281 708 Q273 708 260 712 Q246 717 229 733 L193 633 Q211 605 230 597 Q249 588 259 589 Q293 591 323 607 Q353 622 376 624 Q384 625 397 620 Q409 615 425 599 L462 699 Z" /><glyph glyph-name="" unicode="÷" d="M180 93 Q180 58 199 34 Q217 10 247 9 Q285 10 313 43 Q342 76 343 123 Q342 158 324 181 Q306 204 276 205 Q238 204 210 172 Q181 140 180 93 L180 93 ZM248 553 Q248 518 266 495 Q284 472 314 471 Q352 472 380 504 Q409 536 410 583 Q410 618 392 642 Q374 666 344 667 Q306 666 278 633 Q249 600 248 553 L248 553 ZM74 275 L498 275 L518 401 L94 401 L74 275 Z" /><glyph glyph-name="" unicode="ø" d="M494 464 L454 519 L409 473 Q386 498 354 511 Q323 525 284 525 Q171 524 99 441 Q27 359 25 211 Q25 180 30 152 Q36 124 47 100 L3 55 L43 0 L85 43 Q108 20 139 7 Q170 -6 208 -6 Q320 -4 392 80 Q464 164 466 310 Q466 339 461 366 Q456 392 447 415 L494 464 ZM261 388 Q272 388 281 380 Q290 372 297 358 L181 238 Q183 306 206 346 Q229 387 261 388 L261 388 ZM230 131 Q219 131 210 138 Q201 144 195 156 L310 274 Q306 209 284 171 Q262 132 230 131 L230 131 Z" /><glyph glyph-name="" unicode="ÿ" d="M449 399 Q448 466 421 498 Q394 530 350 530 Q334 530 315 525 Q297 519 282 513 L262 388 Q274 389 283 382 Q291 376 291 356 Q290 319 278 255 Q266 190 255 161 L251 162 L191 525 L25 519 L133 0 Q110 -39 77 -60 Q44 -81 -6 -81 L2 -196 Q17 -206 31 -210 Q45 -214 58 -214 Q185 -198 312 3 Q439 205 449 399 L449 399 ZM83 659 Q83 628 99 608 Q114 587 140 586 Q176 587 201 616 Q226 644 227 684 Q226 715 209 734 Q191 753 165 754 Q134 753 109 725 Q84 698 83 659 L83 659 ZM265 659 Q265 628 280 608 Q295 587 321 586 Q357 587 382 615 Q407 643 408 684 Q407 715 390 734 Q372 753 346 754 Q315 753 291 725 Q266 697 265 659 L265 659 Z" /><glyph glyph-name="" unicode="&#x131;" d="M252 519 L100 519 L58 218 Q54 184 51 161 Q49 138 49 128 Q50 51 85 22 Q120 -7 171 -6 Q186 -6 205 -2 Q224 2 239 10 L259 134 Q230 134 219 144 Q208 154 209 174 Q209 184 210 197 Q211 210 213 222 L252 519 Z" /><glyph glyph-name="" unicode="&#x152;" d="M834 600 L858 748 L425 748 Q402 754 372 754 Q208 749 117 621 Q26 492 25 299 Q25 163 85 80 Q145 -4 264 -6 Q279 -6 292 -4 Q305 -3 318 0 L752 0 L776 148 L511 148 L530 316 L763 316 L786 460 L554 460 L569 600 L834 600 ZM290 146 Q241 148 217 199 Q193 249 193 324 Q193 433 233 515 Q272 598 346 602 Q362 602 373 600 Q385 599 401 592 L347 156 Q328 149 317 148 Q306 146 290 146 L290 146 Z" /><glyph glyph-name="" unicode="&#x153;" d="M281 525 Q168 524 97 441 Q25 359 23 211 Q24 115 72 56 Q120 -4 206 -6 Q250 -6 289 11 Q328 28 361 60 Q388 28 423 11 Q459 -6 502 -6 Q573 -6 613 7 Q653 20 689 45 L645 177 Q617 162 587 152 Q558 142 516 142 Q501 141 485 151 Q468 161 467 198 Q541 195 632 230 Q724 265 732 377 Q732 441 690 485 Q648 528 560 530 Q516 530 478 512 Q440 495 408 463 Q383 492 351 509 Q319 525 281 525 L281 525 ZM258 388 Q280 387 293 361 Q307 334 307 288 Q306 218 284 175 Q261 132 228 131 Q205 132 192 158 Q179 184 179 230 Q180 301 203 344 Q226 387 258 388 L258 388 ZM544 393 Q558 393 566 383 Q573 372 573 357 Q569 320 532 307 Q494 295 473 296 Q481 343 501 368 Q521 393 544 393 L544 393 Z" /><glyph glyph-name="" unicode="&#x178;" d="M59 748 L177 279 L138 0 L303 0 L343 284 Q410 388 464 493 Q517 598 584 748 L400 754 Q371 656 344 579 Q317 502 288 437 L284 437 L245 754 L59 748 ZM183 867 Q183 836 199 816 Q214 795 240 794 Q276 795 301 824 Q326 852 327 892 Q326 923 309 942 Q291 961 265 962 Q234 961 209 933 Q184 906 183 867 L183 867 ZM365 867 Q365 836 380 816 Q395 795 421 794 Q457 795 482 823 Q507 851 508 892 Q507 923 490 942 Q472 961 446 962 Q415 961 391 933 Q366 905 365 867 L365 867 Z" /><glyph glyph-name="" unicode="&#x192;" d="M215 148 Q205 72 180 44 Q155 15 122 17 Q111 17 100 21 Q89 25 81 30 L21 -107 Q40 -119 64 -126 Q87 -133 128 -133 Q199 -135 270 -84 Q342 -34 361 90 L394 369 L489 369 L521 471 L410 471 L420 573 Q423 604 436 620 Q448 636 470 636 Q483 636 494 633 Q505 629 517 622 L574 758 Q560 774 528 782 Q497 790 476 790 Q414 792 352 749 Q290 707 273 600 L258 471 L166 471 L153 390 L242 369 L215 148 Z" /><glyph glyph-name="" unicode="&#x2c6;" d="M324 748 L203 748 L100 585 L198 585 L248 655 L282 585 L379 585 L324 748 Z" /><glyph glyph-name="" unicode="&#x2c7;" d="M407 748 L310 748 L259 678 L226 748 L128 748 L184 585 L304 585 L407 748 Z" /><glyph glyph-name="" unicode="&#x2d8;" d="M128 748 Q128 689 155 639 Q182 588 242 585 Q302 585 346 627 Q389 669 404 748 L328 748 Q320 718 299 700 Q278 682 257 681 Q235 682 220 700 Q204 718 203 748 L128 748 Z" /><glyph glyph-name="" unicode="&#x2d9;" d="M108 653 Q108 622 124 602 Q139 581 165 580 Q201 581 226 610 Q250 638 251 678 Q250 709 233 728 Q216 747 189 748 Q157 747 133 719 Q109 691 108 653 L108 653 Z" /><glyph glyph-name="" unicode="&#x2da;" d="M108 639 Q109 600 128 578 Q148 555 180 555 Q221 556 252 588 Q283 620 285 673 Q285 712 265 735 Q246 757 213 757 Q172 756 141 724 Q110 692 108 639 L108 639 ZM168 648 Q168 669 179 683 Q189 696 204 697 Q215 697 221 687 Q227 678 227 664 Q226 643 216 629 Q205 616 190 615 Q180 615 174 625 Q168 634 168 648 L168 648 Z" /><glyph glyph-name="" unicode="&#x2db;" d="M174 -100 Q148 -100 130 -89 Q112 -79 111 -57 Q111 -37 119 -24 Q126 -10 142 0 L135 60 Q89 49 45 11 Q1 -28 -2 -94 Q0 -147 38 -175 Q75 -203 125 -203 L174 -100 Z" /><glyph glyph-name="" unicode="&#x2dc;" d="M377 699 Q360 727 342 735 Q323 744 313 743 Q269 741 244 726 Q220 710 196 708 Q188 708 175 712 Q161 717 144 733 L108 633 Q126 605 145 597 Q164 588 174 589 Q208 591 238 607 Q268 622 291 624 Q299 625 312 620 Q324 615 340 599 L377 699 Z" /><glyph glyph-name="" unicode="&#x2dd;" d="M103 585 L214 585 L313 748 L168 748 L103 585 ZM294 585 L405 585 L504 748 L360 748 L294 585 Z" /><glyph glyph-name="" unicode="&#x3a9;" d="M479 148 L480 152 Q531 206 572 287 Q614 368 616 481 Q615 598 556 675 Q496 751 387 754 Q247 750 158 642 Q70 534 67 376 Q68 302 86 246 Q104 190 127 152 L127 148 L28 148 L4 0 L246 0 L266 123 Q251 160 239 214 Q227 267 226 335 Q227 444 262 523 Q298 602 361 606 Q402 604 422 558 Q442 512 442 441 Q440 332 406 255 Q372 177 333 123 L312 0 L554 0 L578 148 L479 148 Z" /><glyph glyph-name="" unicode="&#x3c0;" d="M406 383 L387 218 Q385 196 382 176 Q380 156 380 138 Q380 65 408 29 Q437 -6 499 -6 Q514 -6 534 -2 Q553 2 568 10 L588 134 Q559 134 548 144 Q537 154 538 174 Q538 184 539 197 Q540 210 542 222 L560 383 L624 383 L646 519 L289 519 Q222 519 175 508 Q128 497 93 478 L99 345 Q115 354 137 363 Q158 372 184 378 Q162 275 136 171 Q109 68 84 0 L231 0 Q258 73 284 177 Q310 281 331 383 L406 383 Z" /><glyph glyph-name="" unicode="&#xfb01;" d="M550 519 L268 519 L274 565 Q280 615 294 634 Q307 653 334 652 Q401 650 452 631 Q503 612 520 600 L573 724 Q544 749 474 772 Q404 794 339 795 Q270 798 205 754 Q140 709 121 578 L114 519 L41 519 L26 429 L95 407 L46 18 Q37 -40 9 -57 Q-20 -75 -55 -73 L-49 -201 Q-38 -208 -26 -211 Q-13 -214 -1 -214 Q52 -217 114 -172 Q177 -126 198 5 L249 399 L377 399 L356 218 Q353 196 351 176 Q349 156 349 138 Q349 65 378 29 Q406 -6 469 -6 Q483 -6 503 -2 Q522 2 536 10 L557 134 Q528 134 517 144 Q506 154 507 174 Q507 184 508 197 Q509 210 511 222 L550 519 Z" /><glyph glyph-name="" unicode="&#xfb02;" d="M114 519 L41 519 L26 429 L95 407 L46 18 Q37 -40 9 -57 Q-20 -75 -55 -73 L-49 -201 Q-38 -208 -26 -211 Q-13 -214 -1 -214 Q52 -217 114 -172 Q177 -126 198 5 L249 399 L342 399 L362 519 L268 519 L273 565 Q282 622 301 637 Q320 652 335 650 Q356 650 377 647 Q397 643 416 637 L361 218 Q358 196 356 176 Q354 156 354 138 Q354 65 383 29 Q411 -6 474 -6 Q489 -6 508 -2 Q527 2 542 10 L562 134 Q533 134 522 144 Q511 154 512 174 Q512 184 513 197 Q514 210 516 222 L584 719 Q526 756 460 775 Q395 795 330 795 Q279 798 211 754 Q142 709 121 578 L114 519 Z" /><glyph glyph-name="" unicode="&#x2013;" d="M431 229 L451 355 L69 355 L49 229 L431 229 Z" /><glyph glyph-name="" unicode="&#x2014;" d="M641 229 L662 355 L76 355 L55 229 L641 229 Z" /><glyph glyph-name="" unicode="&#x2018;" d="M229 513 Q229 545 214 569 Q199 594 174 595 L246 729 L186 754 Q135 692 101 618 Q67 543 66 484 Q66 449 85 425 Q103 401 133 400 Q172 402 200 434 Q228 467 229 513 L229 513 Z" /><glyph glyph-name="" unicode="&#x2019;" d="M82 641 Q82 609 98 585 Q113 560 137 559 L66 425 L126 400 Q177 462 210 537 Q244 611 245 670 Q245 705 227 729 Q209 753 179 754 Q140 752 112 720 Q83 687 82 641 L82 641 Z" /><glyph glyph-name="" unicode="&#x201a;" d="M70 77 Q70 45 85 21 Q100 -4 124 -5 L52 -139 L113 -164 Q163 -102 197 -27 Q232 47 233 106 Q233 141 215 165 Q196 189 166 190 Q127 188 99 156 Q71 123 70 77 L70 77 Z" /><glyph glyph-name="" unicode="&#x201c;" d="M230 513 Q230 545 215 569 Q200 594 175 595 L247 729 L186 754 Q135 692 101 618 Q67 543 66 484 Q66 449 85 425 Q103 401 133 400 Q173 402 201 434 Q229 467 230 513 L230 513 ZM440 513 Q440 545 425 569 Q410 594 386 595 L458 729 L396 754 Q346 692 312 618 Q277 543 276 484 Q276 449 295 425 Q313 401 344 400 Q383 402 411 434 Q439 467 440 513 L440 513 Z" /><glyph glyph-name="" unicode="&#x201d;" d="M331 641 Q331 609 347 585 Q362 560 387 559 L315 425 L376 400 Q427 462 460 537 Q494 611 495 670 Q495 705 477 729 Q459 753 429 754 Q389 752 361 720 Q332 687 331 641 L331 641 ZM121 641 Q121 609 137 585 Q152 560 176 559 L105 425 L166 400 Q216 462 250 537 Q284 611 285 670 Q285 705 267 729 Q248 753 218 754 Q178 752 150 720 Q122 687 121 641 L121 641 Z" /><glyph glyph-name="" unicode="&#x201e;" d="M286 77 Q286 45 301 21 Q316 -4 340 -5 L268 -139 L330 -164 Q380 -102 414 -27 Q448 47 449 106 Q449 141 431 165 Q413 189 383 190 Q343 188 315 156 Q287 123 286 77 L286 77 ZM75 77 Q75 45 90 21 Q105 -4 129 -5 L58 -139 L119 -164 Q170 -102 204 -27 Q238 47 239 106 Q239 141 221 165 Q203 189 173 190 Q133 188 105 156 Q76 123 75 77 L75 77 Z" /><glyph glyph-name="" unicode="&#x2020;" d="M319 572 L359 748 L233 748 L224 572 L319 572 ZM205 445 L115 -78 L242 -78 L298 445 L205 445 ZM307 454 L428 435 L451 583 L325 564 L266 509 L307 454 ZM215 564 L95 583 L71 435 L197 454 L256 509 L215 564 Z" /><glyph glyph-name="" unicode="&#x2021;" d="M185 98 L144 -78 L271 -78 L280 98 L185 98 ZM197 216 L76 235 L53 87 L178 106 L238 161 L197 216 ZM289 106 L409 87 L433 235 L307 216 L248 161 L289 106 ZM348 572 L388 748 L262 748 L253 572 L348 572 ZM299 227 L327 445 L234 445 L206 227 L299 227 ZM336 454 L456 435 L480 583 L354 564 L295 509 L336 454 ZM244 564 L124 583 L100 435 L226 454 L285 509 L244 564 Z" /><glyph glyph-name="" unicode="&#x2022;" d="M299 395 Q298 447 273 481 Q248 515 205 516 Q151 514 112 467 Q72 420 70 353 Q71 302 96 268 Q121 235 163 234 Q217 236 257 282 Q297 327 299 395 L299 395 Z" /><glyph glyph-name="" unicode="&#x2026;" d="M82 76 Q83 41 101 18 Q120 -5 150 -6 Q190 -5 218 27 Q247 59 248 106 Q248 141 229 165 Q211 189 180 190 Q142 189 113 156 Q84 123 82 76 L82 76 ZM321 76 Q322 41 340 18 Q359 -5 389 -6 Q428 -5 456 27 Q485 59 486 106 Q486 141 468 165 Q449 189 419 190 Q380 189 351 156 Q322 123 321 76 L321 76 ZM559 76 Q560 41 578 18 Q596 -5 626 -6 Q666 -5 695 27 Q724 59 725 106 Q725 141 706 165 Q688 189 657 190 Q618 189 589 156 Q560 123 559 76 L559 76 Z" /><glyph glyph-name="" unicode="&#x2030;" d="M710 748 L620 748 L170 0 L259 0 L710 748 ZM111 526 Q112 454 148 407 Q183 360 241 358 Q316 361 371 426 Q425 490 428 586 Q427 658 392 705 Q357 752 299 754 Q224 751 169 687 Q114 622 111 526 L111 526 ZM456 163 Q457 90 492 43 Q527 -4 585 -6 Q660 -3 715 62 Q770 127 773 223 Q772 295 737 342 Q702 389 643 391 Q568 388 514 324 Q459 259 456 163 L456 163 ZM218 541 Q219 580 237 610 Q256 640 282 642 Q304 641 313 620 Q321 598 321 571 Q320 532 302 502 Q284 472 258 470 Q235 471 226 492 Q218 514 218 541 L218 541 ZM563 178 Q564 217 582 247 Q600 277 626 279 Q649 278 658 257 Q666 235 666 208 Q665 168 647 138 Q628 108 602 106 Q580 107 571 129 Q563 150 563 178 L563 178 ZM796 163 Q797 90 832 43 Q868 -4 925 -6 Q1000 -3 1055 62 Q1110 127 1113 223 Q1112 295 1077 342 Q1042 389 983 391 Q909 388 854 324 Q799 259 796 163 L796 163 ZM903 178 Q904 217 922 247 Q941 277 967 279 Q989 278 998 257 Q1006 235 1006 208 Q1005 168 987 138 Q968 108 942 106 Q920 107 911 129 Q903 150 903 178 L903 178 Z" /><glyph glyph-name="" unicode="&#x2039;" d="M242 598 L87 367 L85 359 L176 130 L265 191 L202 364 L312 537 L242 598 Z" /><glyph glyph-name="" unicode="&#x203a;" d="M114 537 L175 364 L67 191 L136 130 L291 359 L293 367 L202 598 L114 537 Z" /><glyph glyph-name="" unicode="&#x2044;" d="M-17 -6 L452 748 L362 754 L-97 0 L-17 -6 Z" /><glyph glyph-name="" unicode="&#x20ac;" d="M156 246 Q156 125 201 61 Q246 -4 340 -5 Q385 -5 426 13 Q467 30 507 60 L471 196 Q443 168 417 155 Q390 142 365 142 Q342 142 329 169 Q317 195 314 246 L421 246 L446 334 L319 334 Q320 350 322 370 Q324 390 327 406 L457 406 L481 494 L348 494 Q363 552 380 580 Q398 607 424 607 Q449 607 473 594 Q497 581 518 553 L598 689 Q566 719 530 737 Q494 754 449 754 Q353 754 289 687 Q226 621 192 494 L144 494 L125 424 L171 406 Q167 390 165 370 Q163 350 162 334 L121 334 L100 264 L156 246 Z" /><glyph glyph-name="" unicode="&#x2122;" d="M526 456 L617 600 L620 599 L593 409 L662 409 L711 748 L653 748 L541 570 L479 748 L421 748 L373 409 L441 409 L468 599 L471 600 L520 456 L526 456 ZM397 748 L167 748 L156 680 L236 680 L198 409 L267 409 L305 680 L386 680 L397 748 Z" /><glyph glyph-name="" unicode="&#x2202;" d="M328 387 Q348 387 360 376 Q371 365 380 341 Q373 258 356 197 Q339 135 297 132 Q268 132 252 158 Q235 183 235 232 Q236 305 262 346 Q289 386 328 387 L328 387 ZM248 -6 Q396 -8 472 110 Q548 228 548 491 Q546 665 497 732 Q448 798 372 795 Q316 795 263 775 Q209 754 163 716 L214 614 Q228 626 261 643 Q295 659 338 661 Q364 661 386 634 Q409 607 410 557 Q410 542 410 518 Q409 495 408 475 L404 475 Q386 496 364 510 Q341 524 306 525 Q207 523 143 438 Q78 353 76 208 Q77 107 122 51 Q168 -5 248 -6 L248 -6 Z" /><glyph glyph-name="" unicode="&#x2206;" d="M441 748 L288 748 L-16 42 L-3 0 L544 0 L558 42 L441 748 ZM201 148 L327 499 L331 499 L372 148 L201 148 Z" /><glyph glyph-name="" unicode="&#x220f;" d="M279 0 L361 600 L478 600 L395 0 L561 0 L644 600 L705 600 L729 748 L156 748 L132 600 L195 600 L113 0 L279 0 Z" /><glyph glyph-name="" unicode="&#x2211;" d="M108 685 L209 376 L14 63 L18 0 L455 0 L479 148 L261 148 L261 153 L381 371 L327 595 L328 600 L531 600 L555 748 L126 748 L108 685 Z" /><glyph glyph-name="" unicode="&#x221a;" d="M300 -155 L649 846 L551 846 L261 23 L257 23 L242 415 L76 415 L58 298 L136 298 L166 -155 L300 -155 Z" /><glyph glyph-name="" unicode="&#x221e;" d="M500 173 Q563 175 608 229 Q654 282 656 362 Q655 422 626 460 Q597 498 547 499 Q506 498 464 470 Q422 441 379 394 Q351 441 317 470 Q284 498 242 499 Q178 497 133 444 Q87 390 85 310 Q86 250 116 212 Q145 174 195 173 Q236 174 278 202 Q319 230 361 277 Q391 230 425 202 Q458 174 500 173 L500 173 ZM513 263 Q481 264 460 285 Q439 305 423 336 Q448 367 474 388 Q501 408 533 409 Q554 408 567 391 Q579 374 579 347 Q578 312 559 288 Q539 264 513 263 L513 263 ZM208 263 Q188 264 175 281 Q162 298 162 325 Q163 360 183 384 Q202 408 228 409 Q260 408 281 388 Q302 367 318 336 Q294 305 267 285 Q240 264 208 263 L208 263 Z" /><glyph glyph-name="" unicode="&#x222b;" d="M279 742 Q289 806 317 821 Q345 836 380 833 L375 928 Q364 935 352 938 Q339 941 327 941 Q277 944 234 898 Q191 853 171 722 L76 36 Q66 -26 38 -42 Q10 -57 -24 -55 L-20 -150 Q-9 -157 4 -160 Q16 -163 29 -163 Q79 -166 122 -120 Q166 -74 185 56 L279 742 Z" /><glyph glyph-name="" unicode="&#x2248;" d="M224 484 Q204 486 187 501 Q171 516 167 524 L97 416 Q128 385 151 371 Q173 358 206 358 Q260 361 298 382 Q336 402 367 405 Q388 403 409 387 Q431 370 435 362 L506 469 Q475 500 450 516 Q425 531 386 531 Q331 528 293 508 Q256 487 224 484 L224 484 ZM192 272 Q172 274 155 289 Q139 304 135 312 L65 204 Q97 173 119 159 Q141 146 174 146 Q228 149 266 170 Q304 190 335 193 Q356 191 377 175 Q398 158 402 150 L474 257 Q443 288 418 304 Q393 319 353 319 Q299 316 261 296 Q224 275 192 272 L192 272 Z" /><glyph glyph-name="" unicode="&#x2260;" d="M119 381 L317 381 L318 377 L260 295 L107 295 L87 169 L155 169 L156 165 L106 97 L143 57 L226 169 L511 169 L531 295 L330 295 L330 299 L387 381 L543 381 L563 507 L495 507 L495 511 L544 579 L507 619 L424 507 L139 507 L119 381 Z" /><glyph glyph-name="" unicode="&#x2264;" d="M505 185 L526 321 L272 404 L272 408 L544 491 L566 627 L145 469 L124 343 L505 185 ZM476 10 L496 136 L98 136 L78 10 L476 10 Z" /><glyph glyph-name="" unicode="&#x2265;" d="M522 343 L542 469 L164 627 L142 491 L396 408 L395 404 L124 321 L102 185 L522 343 ZM473 10 L493 136 L95 136 L75 10 L473 10 Z" /><glyph glyph-name="" unicode="&#x25ca;" d="M492 374 L393 777 L299 777 L82 374 L181 -29 L274 -29 L492 374 ZM369 372 L257 138 L203 376 L316 607 L369 372 Z" /><glyph glyph-name="" unicode="¦" d="M153 806 L97 407 L205 407 L262 806 L153 806 ZM73 244 L17 -155 L126 -155 L182 244 L73 244 Z" /><glyph glyph-name="" unicode="²" d="M301 290 L315 393 L209 393 L209 398 Q229 426 287 478 Q346 530 353 624 Q353 674 325 710 Q296 746 240 748 Q192 750 158 731 Q123 711 85 641 L174 591 Q186 619 197 630 Q208 641 218 641 Q231 640 236 630 Q240 619 240 606 Q236 546 179 502 Q122 457 60 361 L72 290 L301 290 Z" /><glyph glyph-name="" unicode="³" d="M331 440 Q331 491 313 519 Q295 547 263 568 L264 572 L347 666 L341 748 L133 748 L120 655 L219 655 L221 651 L147 570 L162 502 Q182 502 198 492 Q214 481 215 454 Q214 424 200 412 Q185 400 173 400 Q158 400 143 408 Q127 416 115 428 L59 335 Q86 313 112 301 Q138 290 168 290 Q243 292 286 334 Q330 376 331 440 L331 440 Z" /><glyph glyph-name="" unicode="¹" d="M170 589 L125 290 L248 290 L314 748 L238 748 L99 652 L117 571 L170 589 Z" /><glyph glyph-name="" unicode="¼" d="M183 -6 L651 748 L560 754 L101 0 L183 -6 ZM129 589 L84 290 L207 290 L273 748 L197 748 L58 652 L76 571 L129 589 ZM641 328 L596 187 L547 187 L546 190 Q593 273 618 345 Q642 417 650 467 L536 477 Q527 419 493 333 Q458 248 387 131 L397 90 L585 90 L574 0 L691 0 L703 90 L731 90 L747 187 L714 187 L732 333 L641 328 Z" /><glyph glyph-name="" unicode="½" d="M188 -6 L657 748 L567 754 L108 0 L188 -6 ZM128 589 L83 290 L206 290 L272 748 L196 748 L57 652 L75 571 L128 589 ZM701 0 L715 103 L609 103 L609 108 Q629 136 687 188 Q746 240 753 334 Q753 384 725 420 Q696 456 640 458 Q592 460 558 441 Q523 421 485 351 L574 301 Q586 329 597 340 Q608 351 618 351 Q631 350 635 340 Q639 329 639 316 Q635 256 579 212 Q522 167 460 71 L472 0 L701 0 Z" /><glyph glyph-name="" unicode="¾" d="M187 -6 L654 748 L564 754 L105 0 L187 -6 ZM631 328 L586 187 L537 187 L536 190 Q583 273 608 345 Q632 417 640 467 L526 477 Q517 419 483 333 Q448 248 377 131 L387 90 L575 90 L564 0 L681 0 L693 90 L721 90 L737 187 L704 187 L722 333 L631 328 ZM304 440 Q304 491 286 519 Q268 547 236 568 L237 572 L320 666 L314 748 L106 748 L93 655 L192 655 L194 651 L120 570 L135 502 Q155 502 171 492 Q187 481 188 454 Q187 424 173 412 Q158 400 146 400 Q131 400 116 408 Q100 416 88 428 L32 335 Q59 313 85 301 Q111 290 141 290 Q216 292 259 334 Q303 376 304 440 L304 440 Z" /><glyph glyph-name="" unicode="ð" d="M261 0 Q424 6 512 134 Q599 263 600 447 Q600 578 543 662 Q485 745 366 748 L151 748 L109 445 L48 445 L25 301 L86 301 L45 0 L261 0 ZM235 148 L252 301 L330 301 L353 445 L275 445 L294 600 L322 600 Q376 599 404 555 Q432 511 432 429 Q432 303 390 227 Q348 150 267 148 L235 148 Z" /><glyph glyph-name="" unicode="×" d="M121 78 L272 249 L376 78 L468 168 L364 338 L516 508 L451 598 L300 427 L196 598 L105 508 L210 338 L58 168 L121 78 Z" /><glyph glyph-name="" unicode="ý" d="M59 748 L177 279 L138 0 L303 0 L343 284 Q410 388 464 493 Q517 598 584 748 L400 754 Q371 656 344 579 Q317 502 288 437 L284 437 L245 754 L59 748 ZM261 795 L386 795 L503 958 L345 958 L261 795 Z" /><glyph glyph-name="" unicode="þ" d="M54 0 L219 0 L231 90 L299 90 Q408 94 488 186 Q567 278 571 416 Q570 521 518 588 Q466 656 381 658 L312 658 L325 748 L160 748 L54 0 ZM256 244 L288 504 L328 504 Q364 503 384 473 Q404 442 404 394 Q403 330 373 288 Q342 246 297 244 L256 244 Z" /><glyph glyph-name="" unicode="ð" d="M535 709 L491 771 L398 718 Q364 750 344 766 Q323 781 298 795 L212 688 Q221 680 233 669 Q245 658 257 647 L177 603 L218 538 L315 592 Q336 565 353 530 Q370 495 377 451 L374 450 Q362 471 337 483 Q312 495 276 495 Q179 494 117 419 Q54 343 52 208 Q53 107 98 51 Q144 -5 224 -6 Q371 -6 443 101 Q515 207 515 417 Q514 495 497 557 Q480 619 452 660 L535 709 ZM300 362 Q320 362 331 348 Q341 335 349 311 Q345 238 324 186 Q304 134 254 132 Q233 132 221 155 Q209 178 209 222 Q210 288 236 325 Q262 361 300 362 L300 362 Z" /><glyph glyph-name="" unicode="ý" d="M468 399 Q467 466 440 498 Q413 530 369 530 Q353 530 334 525 Q316 519 301 513 L281 388 Q293 389 302 382 Q310 376 310 356 Q309 319 297 255 Q285 190 274 161 L270 162 L210 525 L44 519 L152 0 Q129 -39 96 -60 Q63 -81 13 -81 L21 -196 Q36 -206 50 -210 Q64 -214 77 -214 Q204 -198 331 3 Q458 205 468 399 L468 399 ZM199 585 L324 585 L441 748 L283 748 L199 585 Z" /><glyph glyph-name="" unicode="þ" d="M339 294 Q338 224 321 184 Q304 143 286 142 Q267 142 256 149 Q244 155 234 168 L257 352 Q269 365 282 371 Q294 378 314 378 Q323 378 331 356 Q338 335 339 294 L339 294 ZM167 790 L24 -214 L179 -208 L212 27 L215 28 Q247 -6 280 -6 Q374 -4 434 84 Q494 171 496 320 Q495 418 458 471 Q421 525 355 526 Q340 526 321 518 Q302 509 282 492 L279 493 L321 795 L167 790 Z" /><glyph glyph-name="" unicode="&#x141;" d="M259 148 L288 351 L464 534 L411 600 L308 482 L342 748 L176 748 L116 318 L2 207 L47 137 L95 186 L70 0 L464 0 L488 148 L259 148 Z" /><glyph glyph-name="" unicode="&#x142;" d="M378 526 L325 592 L265 530 L299 795 L144 790 L85 373 L-26 267 L19 197 L70 248 L65 218 Q58 174 58 138 Q58 65 86 29 Q115 -6 177 -6 Q192 -6 211 -2 Q231 2 245 10 L266 134 Q237 134 226 144 Q215 154 216 174 Q216 184 217 195 Q218 206 220 222 L244 399 L378 526 Z" /><glyph glyph-name="" unicode="&#x160;" d="M18 128 Q78 47 128 20 Q178 -8 234 -6 Q339 -5 398 57 Q457 120 458 235 Q444 366 347 419 Q250 472 236 534 Q236 571 256 588 Q275 606 308 606 Q318 606 332 603 Q345 600 361 594 L358 513 L468 513 L512 688 Q476 718 430 736 Q384 754 321 754 Q193 752 134 685 Q74 619 75 515 Q88 382 181 330 Q274 277 287 213 Q286 180 273 161 Q260 142 241 142 Q201 143 174 172 Q147 201 124 240 L18 128 ZM501 958 L404 958 L353 888 L320 958 L222 958 L278 795 L398 795 L501 958 Z" /><glyph glyph-name="" unicode="&#x161;" d="M209 144 Q209 130 204 125 Q199 120 186 120 Q166 120 137 135 Q108 150 74 183 L6 70 Q54 23 100 6 Q145 -11 183 -10 Q272 -11 321 30 Q371 71 372 162 Q362 270 289 306 Q216 342 206 371 Q207 394 222 399 Q237 404 254 403 Q255 403 263 402 Q270 400 281 396 L279 348 L380 348 L402 490 Q361 511 319 520 Q278 529 245 529 Q134 526 92 475 Q50 423 52 353 Q62 244 131 208 Q199 172 209 144 L209 144 ZM421 748 L324 748 L273 678 L240 748 L142 748 L198 585 L318 585 L421 748 Z" /><glyph glyph-name="" unicode="&#x17d;" d="M-14 80 L39 -16 Q66 1 84 7 Q102 12 123 12 Q155 10 206 -6 Q256 -22 313 -24 Q352 -24 398 -12 Q445 0 476 23 L437 160 Q408 141 386 135 Q363 129 347 130 Q320 131 284 139 Q247 147 223 148 L222 152 L539 665 L528 748 L96 748 L72 606 L310 606 L-14 80 ZM479 958 L382 958 L331 888 L298 958 L200 958 L256 795 L376 795 L479 958 Z" /><glyph glyph-name="" unicode="&#x17e;" d="M59 384 L226 384 L227 380 L5 94 L61 -16 Q84 1 103 7 Q121 12 141 12 Q164 10 208 -5 Q252 -20 301 -22 Q372 -22 425 23 L392 157 Q369 138 344 132 Q320 126 305 127 Q283 128 262 135 Q241 141 235 142 L234 146 L433 403 L423 519 L80 519 L59 384 ZM419 748 L322 748 L271 678 L238 748 L140 748 L196 585 L316 585 L419 748 Z" /><glyph glyph-name="" unicode="&#x2212;" d="M103 275 L527 275 L547 401 L123 401 L103 275 Z" /><glyph glyph-name="" unicode="&#x106;" d="M299 795 L425 795 L542 958 L384 958 L299 795 ZM303 142 Q245 142 219 187 Q193 233 193 322 Q193 431 236 516 Q278 601 361 606 Q378 606 394 601 Q410 596 425 587 L413 467 L529 467 L584 679 Q543 714 495 734 Q448 754 388 754 Q209 748 117 619 Q25 489 25 306 Q24 172 87 85 Q149 -3 287 -6 Q345 -8 408 26 Q470 60 524 154 L416 245 Q400 204 372 174 Q344 143 303 142 L303 142 Z" /><glyph glyph-name="" unicode="&#x10c;" d="M550 958 L452 958 L401 888 L368 958 L270 958 L326 795 L447 795 L550 958 ZM303 142 Q245 142 219 187 Q193 233 193 322 Q193 431 236 516 Q278 601 361 606 Q378 606 394 601 Q410 596 425 587 L413 467 L529 467 L584 679 Q543 714 495 734 Q448 754 388 754 Q209 748 117 619 Q25 489 25 306 Q24 172 87 85 Q149 -3 287 -6 Q345 -8 408 26 Q470 60 524 154 L416 245 Q400 204 372 174 Q344 143 303 142 L303 142 Z" /><glyph glyph-name="" unicode="&#x110;" d="M261 0 Q424 6 512 134 Q599 263 600 447 Q600 578 543 662 Q485 745 366 748 L151 748 L109 445 L48 445 L25 301 L86 301 L45 0 L261 0 ZM235 148 L252 301 L330 301 L353 445 L275 445 L294 600 L322 600 Q376 599 404 555 Q432 511 432 429 Q432 303 390 227 Q348 150 267 148 L235 148 Z" /><glyph glyph-name="" unicode="&#x107;" d="M213 585 L339 585 L456 748 L298 748 L213 585 ZM279 525 Q165 523 96 444 Q27 365 25 226 Q26 115 76 55 Q127 -5 216 -6 Q251 -7 298 11 Q344 28 395 75 L333 188 Q297 156 269 148 Q241 141 231 142 Q211 142 196 166 Q182 190 181 238 Q182 304 207 341 Q231 377 263 377 Q271 377 278 376 Q286 374 293 372 L287 300 L393 300 L421 474 Q393 500 360 512 Q326 525 279 525 L279 525 Z" /><glyph glyph-name="" unicode="&#x10d;" d="M438 748 L340 748 L289 678 L256 748 L158 748 L214 585 L335 585 L438 748 ZM421 474 Q393 500 360 512 Q326 525 279 525 Q165 523 96 444 Q27 365 25 226 Q26 115 76 55 Q127 -5 216 -6 Q251 -7 298 11 Q344 28 395 75 L333 188 Q297 156 269 148 Q241 141 231 142 Q211 142 196 166 Q182 190 181 238 Q182 304 207 341 Q231 377 263 377 Q271 377 278 376 Q286 374 293 372 L286 300 L392 300 L421 474 Z" /><glyph glyph-name="" unicode="&#x111;" d="M343 601 L330 501 Q314 513 295 519 Q276 525 257 525 Q152 523 89 438 Q25 352 23 205 Q24 105 63 50 Q102 -5 164 -6 Q200 -5 235 15 Q269 36 290 66 L295 66 Q307 29 334 12 Q361 -6 404 -6 Q419 -6 438 -2 Q458 2 472 10 L492 134 Q463 134 452 144 Q441 154 442 174 Q442 184 443 197 Q444 210 446 222 L497 601 L558 601 L571 689 L510 689 L525 795 L372 790 L357 689 L242 689 L232 608 L343 601 ZM180 234 Q181 303 203 340 Q224 377 250 377 Q270 377 283 370 Q295 364 306 351 L289 203 Q278 178 261 161 Q244 143 223 142 Q205 142 193 166 Q180 189 180 234 L180 234 Z" /><glyph glyph-name="" unicode="&#x403;" d="M502 600 L526 748 L132 748 L25 0 L190 0 L272 600 L502 600 ZM277 795 L402 795 L519 958 L361 958 L277 795 Z" /><glyph glyph-name="" unicode="&#x405;" d="M24 128 Q84 47 134 20 Q184 -8 240 -6 Q345 -5 404 57 Q463 120 464 235 Q450 366 353 419 Q256 472 242 534 Q242 571 262 588 Q281 606 314 606 Q324 606 338 603 Q351 600 367 594 L364 513 L474 513 L518 688 Q482 718 436 736 Q390 754 327 754 Q199 752 140 685 Q80 619 81 515 Q94 382 187 330 Q280 277 293 213 Q292 180 279 161 Q266 142 247 142 Q206 144 179 173 Q151 203 130 240 L24 128 Z" /><glyph glyph-name="" unicode="&#x408;" d="M16 196 Q40 71 99 31 Q158 -9 218 -6 Q291 -7 353 61 Q415 129 439 284 L504 748 L339 748 L268 254 Q257 185 240 166 Q223 148 207 150 Q189 148 176 162 Q163 176 150 230 L16 196 Z" /><glyph glyph-name="" unicode="&#x409;" d="M565 316 Q590 316 606 298 Q622 279 623 244 Q624 201 606 175 Q588 149 544 148 L503 148 L523 316 L565 316 ZM328 600 L396 600 L314 0 L545 0 Q667 2 729 77 Q791 151 791 269 Q791 354 743 406 Q695 458 593 460 L546 460 L585 748 L102 748 L86 642 L173 617 L155 482 Q133 305 91 220 Q49 134 -23 134 L-16 -9 Q-4 -13 11 -15 Q27 -17 34 -17 Q148 -14 212 102 Q277 219 303 419 L328 600 Z" /><glyph glyph-name="" unicode="&#x40a;" d="M546 148 L566 316 L610 316 Q635 316 651 297 Q667 278 668 244 Q670 216 658 184 Q645 151 589 148 L546 148 ZM589 460 L629 748 L464 748 L424 460 L257 460 L296 748 L131 748 L25 0 L190 0 L234 316 L401 316 L358 0 L590 0 Q712 2 774 77 Q836 151 836 269 Q836 354 788 406 Q739 458 637 460 L589 460 Z" /><glyph glyph-name="" unicode="&#x40c;" d="M314 795 L439 795 L556 958 L399 958 L314 795 ZM312 449 L254 449 L296 748 L131 748 L25 0 L190 0 L233 312 L302 312 Q334 246 364 122 Q394 -2 482 -16 Q496 -16 509 -13 Q522 -10 532 -6 L540 136 Q498 145 485 234 Q472 323 434 390 L523 570 Q538 600 553 609 Q569 617 594 616 L614 743 Q603 749 583 753 Q563 758 534 758 Q492 757 466 734 Q440 711 423 675 L312 449 Z" /><glyph glyph-name="" unicode="&#x40f;" d="M337 -156 L360 0 L550 0 L656 748 L491 748 L409 148 L214 148 L296 748 L131 748 L25 0 L213 0 L189 -166 L337 -156 Z" /><glyph glyph-name="" unicode="&#x410;" d="M406 600 L438 600 L404 322 L297 322 L406 600 ZM172 748 L145 642 L257 617 L-32 0 L146 -6 L223 178 L380 178 L356 0 L521 0 L627 748 L172 748 Z" /><glyph glyph-name="" unicode="&#x411;" d="M25 0 L280 0 Q400 3 462 80 Q525 157 525 277 Q525 365 482 417 Q438 470 348 471 L258 471 L272 600 L518 600 L542 748 L132 748 L25 0 ZM234 326 L301 326 Q324 326 340 307 Q356 289 357 252 Q359 223 346 187 Q333 151 280 148 L214 148 L234 326 Z" /><glyph glyph-name="" unicode="&#x412;" d="M258 460 L274 606 L350 606 Q367 606 381 591 Q394 575 395 543 Q394 502 377 481 Q361 460 341 460 L258 460 ZM314 316 Q340 315 357 292 Q373 270 374 235 Q376 208 363 177 Q349 145 300 142 L214 142 L235 316 L314 316 ZM560 586 Q559 656 517 701 Q475 746 398 748 L131 748 L25 0 L302 0 Q414 2 475 69 Q536 135 537 236 Q536 292 512 333 Q488 374 446 388 L447 392 Q506 424 533 477 Q560 530 560 586 L560 586 Z" /><glyph glyph-name="" unicode="&#x413;" d="M502 600 L526 748 L132 748 L25 0 L190 0 L272 600 L502 600 Z" /><glyph glyph-name="" unicode="&#x414;" d="M-40 -166 L99 -156 L132 0 L403 0 L389 -166 L527 -156 L574 148 L510 148 L592 748 L118 748 L100 642 L192 617 Q169 450 139 341 Q109 232 69 148 L8 148 L-40 -166 ZM340 600 L408 600 L350 148 L240 148 Q270 234 294 340 Q318 446 340 600 L340 600 Z" /><glyph glyph-name="" unicode="&#x415;" d="M136 748 L30 0 L474 0 L498 148 L216 148 L238 316 L486 316 L509 460 L262 460 L282 600 L559 600 L583 748 L136 748 Z" /><glyph glyph-name="" unicode="&#x416;" d="M580 449 L522 449 L564 748 L411 748 L369 449 L311 449 L261 675 Q254 710 235 733 Q216 757 175 758 Q146 758 124 753 Q102 749 89 743 L69 616 Q95 617 111 611 Q128 604 135 575 L178 395 Q121 328 87 236 Q52 145 -1 136 L-21 -6 Q-8 -10 11 -13 Q31 -16 55 -16 Q131 -2 183 122 Q236 246 276 312 L347 312 L305 0 L458 0 L501 312 L570 312 Q603 246 633 122 Q664 -2 753 -16 Q768 -16 781 -13 Q793 -10 803 -6 L812 136 Q768 145 755 234 Q741 323 701 390 L794 570 Q809 600 825 608 Q840 617 865 616 L885 743 Q874 749 854 753 Q834 758 805 758 Q763 757 737 734 Q711 710 694 675 L580 449 Z" /><glyph glyph-name="" unicode="&#x417;" d="M157 -6 Q301 -3 365 67 Q430 136 429 236 Q428 292 404 333 Q379 374 338 388 L339 392 Q400 424 425 477 Q450 529 449 580 Q447 654 398 703 Q348 752 268 754 Q206 754 152 736 Q99 718 53 688 L43 513 L154 513 L173 594 Q189 600 201 603 Q213 606 232 606 Q245 606 261 592 Q277 578 278 545 Q278 504 262 477 Q245 451 213 450 L186 450 L163 316 L208 316 Q234 316 249 297 Q265 279 265 245 Q266 215 250 180 Q234 144 183 141 Q150 142 119 162 Q88 182 63 215 L-23 79 Q18 40 61 17 Q103 -6 157 -6 L157 -6 Z" /><glyph glyph-name="" unicode="&#x418;" d="M441 422 L444 420 L384 0 L549 0 L655 748 L557 748 L235 319 L232 321 L295 748 L130 748 L24 0 L125 0 L441 422 Z" /><glyph glyph-name="" unicode="&#x41a;" d="M312 449 L254 449 L296 748 L131 748 L25 0 L190 0 L233 312 L302 312 Q334 246 364 122 Q394 -2 482 -16 Q496 -16 509 -13 Q522 -10 532 -6 L540 136 Q498 145 485 234 Q472 323 434 390 L523 570 Q538 600 553 609 Q569 617 594 616 L614 743 Q603 749 583 753 Q563 758 534 758 Q492 757 466 734 Q440 711 423 675 L312 449 Z" /><glyph glyph-name="" unicode="&#x41b;" d="M102 748 L86 642 L173 617 L155 482 Q133 305 91 220 Q49 134 -23 134 L-16 -9 Q-4 -13 11 -15 Q27 -17 34 -17 Q148 -14 212 102 Q277 219 303 419 L328 600 L395 600 L313 0 L479 0 L585 748 L102 748 Z" /><glyph glyph-name="" unicode="&#x41c;" d="M376 128 L518 387 L521 386 L463 -1 L629 -1 L735 748 L608 748 L376 334 L258 748 L131 748 L25 -1 L191 -1 L239 385 L242 387 L308 128 L376 128 Z" /><glyph glyph-name="" unicode="&#x41d;" d="M190 0 L234 316 L429 316 L385 0 L550 0 L656 748 L491 748 L452 460 L257 460 L296 748 L131 748 L25 0 L190 0 Z" /><glyph glyph-name="" unicode="&#x41e;" d="M372 754 Q208 749 117 621 Q26 492 25 299 Q25 163 85 80 Q145 -4 264 -6 Q428 -1 519 127 Q610 256 611 449 Q611 585 551 668 Q491 752 372 754 L372 754 ZM349 606 Q399 604 421 553 Q443 501 442 421 Q441 316 400 232 Q358 147 285 142 Q235 144 214 195 Q193 247 194 327 Q195 432 235 516 Q276 601 349 606 L349 606 Z" /><glyph glyph-name="" unicode="&#x41f;" d="M190 0 L272 600 L467 600 L385 0 L550 0 L656 748 L131 748 L25 0 L190 0 Z" /><glyph glyph-name="" unicode="&#x420;" d="M131 748 L25 0 L191 0 L222 226 L302 226 Q411 229 491 315 Q570 400 574 526 Q572 624 518 685 Q464 746 377 748 L131 748 ZM335 606 Q367 605 386 578 Q406 550 406 507 Q405 445 376 407 Q346 369 306 368 L244 368 L274 606 L335 606 Z" /><glyph glyph-name="" unicode="&#x421;" d="M303 142 Q245 142 219 187 Q193 233 193 322 Q193 431 236 516 Q278 601 361 606 Q378 606 394 601 Q410 596 425 587 L413 467 L529 467 L584 679 Q543 714 495 734 Q448 754 388 754 Q209 748 117 619 Q25 489 25 306 Q24 172 87 85 Q149 -3 287 -6 Q345 -8 408 26 Q470 60 524 154 L416 245 Q400 204 372 174 Q344 143 303 142 L303 142 Z" /><glyph glyph-name="" unicode="&#x422;" d="M541 748 L88 748 L64 600 L209 600 L126 0 L291 0 L373 600 L518 600 L541 748 Z" /><glyph glyph-name="" unicode="&#x423;" d="M53 -9 Q65 -13 80 -15 Q96 -17 103 -17 Q216 -19 352 166 Q487 351 631 748 L466 754 Q419 623 379 526 Q338 430 306 361 L237 754 L68 748 L188 215 Q143 167 108 150 Q73 133 46 134 L53 -9 Z" /><glyph glyph-name="" unicode="&#x424;" d="M419 0 L430 80 L492 80 Q598 84 678 180 Q757 276 761 419 Q760 527 709 596 Q658 666 575 668 L514 668 L525 748 L368 748 L357 668 L295 668 Q189 666 109 578 Q29 491 25 349 Q27 240 78 162 Q129 84 211 80 L273 80 L262 0 L419 0 ZM531 514 Q564 513 583 481 Q603 449 603 398 Q602 328 572 282 Q542 236 498 234 L455 234 L489 514 L531 514 ZM255 234 Q222 235 203 267 Q183 299 183 350 Q184 420 215 466 Q245 512 288 514 L332 514 L298 234 L255 234 Z" /><glyph glyph-name="" unicode="&#x425;" d="M448 754 Q415 678 387 619 Q360 560 340 517 L285 754 L99 748 L226 392 Q157 305 88 206 Q19 107 -39 0 L151 -6 Q181 51 214 115 Q247 180 294 251 L358 -6 L546 0 L411 372 Q478 461 527 550 Q576 639 628 748 L448 754 Z" /><glyph glyph-name="" unicode="&#x426;" d="M555 -156 L601 148 L538 148 L620 748 L454 748 L372 148 L214 148 L296 748 L131 748 L25 0 L439 0 L416 -166 L555 -156 Z" /><glyph glyph-name="" unicode="&#x427;" d="M364 400 Q339 388 320 384 Q301 380 276 380 Q254 380 240 402 Q226 423 226 461 Q226 475 228 488 Q229 501 232 523 L265 748 L99 748 L61 490 Q60 479 59 467 Q58 454 58 443 Q60 351 108 290 Q156 228 233 226 Q264 226 289 232 Q315 238 338 246 L305 0 L471 0 L577 748 L411 748 L364 400 Z" /><glyph glyph-name="" unicode="&#x428;" d="M25 0 L764 0 L870 748 L704 748 L622 148 L497 148 L579 748 L422 748 L340 148 L215 148 L297 748 L132 748 L25 0 Z" /><glyph glyph-name="" unicode="&#x430;" d="M421 -6 Q436 -6 455 -2 Q475 2 489 10 L509 134 Q480 134 469 144 Q458 154 459 174 Q459 184 460 197 Q461 210 463 222 L499 491 L362 491 Q345 508 321 517 Q298 525 274 525 Q169 523 106 438 Q42 352 40 205 Q41 105 80 50 Q119 -5 181 -6 Q217 -5 252 15 Q286 36 307 66 L312 66 Q324 29 351 12 Q378 -6 421 -6 L421 -6 ZM197 234 Q198 303 220 340 Q241 377 267 377 Q287 377 300 370 Q312 364 323 351 L306 203 Q295 178 278 161 Q261 143 240 142 Q222 142 210 166 Q197 189 197 234 L197 234 Z" /><glyph glyph-name="" unicode="&#x431;" d="M345 622 Q389 638 415 645 Q441 652 493 671 L484 796 Q423 778 390 770 Q357 761 324 749 Q175 691 109 559 Q44 427 45 244 Q46 116 95 55 Q144 -6 226 -6 Q337 -4 409 79 Q481 163 483 310 Q483 407 438 461 Q393 514 308 515 Q294 515 269 506 Q244 498 232 487 L229 489 Q242 539 273 572 Q303 606 345 622 L345 622 ZM277 377 Q301 377 317 354 Q332 330 332 285 Q331 214 308 173 Q285 133 248 132 Q224 133 209 161 Q194 189 194 234 Q194 258 196 280 Q197 303 200 330 Q212 347 236 361 Q260 376 277 377 L277 377 Z" /><glyph glyph-name="" unicode="&#x432;" d="M473 407 Q475 455 436 492 Q397 529 298 531 Q184 529 115 442 Q47 355 45 210 Q45 107 97 48 Q148 -11 244 -12 Q343 -11 398 40 Q454 90 455 175 Q455 208 444 235 Q432 262 405 280 L406 284 Q439 304 456 336 Q473 368 473 407 L473 407 ZM311 178 Q311 158 297 145 Q283 132 255 132 Q244 130 223 142 Q201 154 199 204 Q228 204 251 208 Q273 211 293 221 Q299 217 305 206 Q311 194 311 178 L311 178 ZM283 399 Q297 399 305 389 Q312 378 312 363 Q311 326 285 313 Q258 301 212 302 Q219 349 239 374 Q259 399 283 399 L283 399 Z" /><glyph glyph-name="" unicode="&#x433;" d="M235 372 Q223 337 138 298 Q52 259 40 132 Q43 60 88 27 Q133 -6 187 -6 Q258 -6 299 7 Q340 20 377 45 L334 177 Q310 162 280 152 Q251 142 221 142 Q204 142 204 165 Q216 204 299 246 Q382 287 394 407 Q393 465 351 497 Q310 529 241 529 Q213 529 169 517 Q124 506 99 490 L133 376 Q154 387 171 394 Q188 400 198 400 Q213 401 224 395 Q234 390 235 372 L235 372 ZM424 622 L441 720 L196 720 L179 622 L424 622 Z" /><glyph glyph-name="" unicode="&#x434;" d="M197 234 Q198 303 220 340 Q241 377 267 377 Q287 377 301 370 Q314 364 327 351 L309 203 Q298 178 280 161 Q262 143 240 142 Q222 142 210 166 Q198 189 197 234 L197 234 ZM283 24 Q271 -30 250 -50 Q228 -69 199 -68 Q168 -68 139 -58 Q110 -48 81 -31 L45 -163 Q79 -186 116 -200 Q154 -214 199 -214 Q303 -214 364 -146 Q425 -78 442 52 L502 491 L366 491 Q348 508 323 517 Q299 525 274 525 Q169 523 106 438 Q42 352 40 205 Q41 105 80 50 Q119 -5 181 -6 Q206 -6 233 6 Q260 18 282 38 L286 38 L283 24 Z" /><glyph glyph-name="" unicode="&#x435;" d="M465 377 Q465 441 423 485 Q381 528 294 530 Q180 527 111 441 Q42 355 40 226 Q41 115 93 55 Q144 -5 235 -6 Q306 -6 346 7 Q386 20 422 45 L378 177 Q350 162 321 152 Q291 142 249 142 Q234 141 218 151 Q202 161 201 198 Q274 195 365 230 Q457 265 465 377 L465 377 ZM277 393 Q292 393 299 383 Q306 372 306 357 Q302 320 265 307 Q227 295 206 296 Q214 343 234 368 Q254 393 277 393 L277 393 Z" /><glyph glyph-name="" unicode="&#x436;" d="M132 304 Q98 249 84 192 Q70 135 16 130 L10 7 Q25 1 45 -2 Q65 -6 85 -6 Q147 0 175 78 Q202 155 239 227 L295 227 L263 0 L417 0 L449 227 L505 227 Q529 153 551 77 Q572 0 641 -6 Q657 -6 676 -2 Q695 2 710 10 L722 134 Q669 137 659 182 Q649 227 627 281 L686 371 Q697 391 712 401 Q726 411 754 411 L766 516 Q751 524 732 528 Q713 532 697 532 Q654 532 621 511 Q589 491 572 455 L511 326 L464 326 L492 525 L339 520 L312 326 L260 326 L230 455 Q223 489 200 510 Q178 531 131 532 Q116 532 96 528 Q75 524 57 516 L42 418 Q70 418 86 409 Q102 399 108 378 L132 304 Z" /><glyph glyph-name="" unicode="&#x437;" d="M228 403 Q254 403 265 392 Q275 381 275 358 Q275 331 260 316 Q245 300 220 300 L190 300 L175 220 L205 220 Q227 220 241 207 Q255 195 255 174 Q254 147 233 131 Q212 115 186 115 Q168 115 140 124 Q113 133 82 155 L20 41 Q47 22 95 6 Q142 -10 179 -11 Q297 -10 355 40 Q413 89 413 170 Q413 203 401 228 Q389 253 362 271 L362 275 Q399 298 414 332 Q430 366 429 407 Q429 455 388 491 Q347 527 261 529 Q223 529 175 520 Q127 511 80 492 L71 348 L174 348 L190 397 Q201 401 211 402 Q222 403 228 403 L228 403 Z" /><glyph glyph-name="" unicode="&#x438;" d="M260 519 L105 519 L66 240 Q62 216 61 195 Q60 174 60 156 Q63 61 105 26 Q147 -8 195 -6 Q231 -5 266 15 Q300 36 321 66 L325 66 Q338 29 365 12 Q392 -6 435 -6 Q450 -6 469 -2 Q488 2 503 10 L523 134 Q494 134 483 144 Q472 154 473 174 Q473 184 474 197 Q475 210 477 222 L518 519 L363 519 L319 201 Q310 180 292 161 Q275 143 254 142 Q241 141 230 152 Q219 162 218 200 Q218 206 218 214 Q219 222 220 230 L260 519 Z" /><glyph glyph-name="" unicode="&#x43a;" d="M467 371 Q479 391 497 401 Q514 411 547 411 L541 516 Q526 524 507 528 Q488 532 472 532 Q429 532 399 511 Q370 491 353 455 L292 326 L244 326 L271 519 L118 519 L43 0 L197 0 L229 227 L282 227 Q306 153 325 77 Q343 0 412 -6 Q428 -6 447 -2 Q466 2 481 10 L503 134 Q452 137 445 182 Q437 227 416 281 L467 371 Z" /><glyph glyph-name="" unicode="&#x43b;" d="M305 383 L366 383 L314 0 L469 0 L543 519 L131 519 L115 429 L167 411 L139 279 Q119 183 89 155 Q59 127 10 130 L15 7 Q33 -3 54 -7 Q74 -11 86 -11 Q148 -11 198 47 Q247 105 273 227 L305 383 Z" /><glyph glyph-name="" unicode="&#x43c;" d="M658 525 L493 519 L380 291 L376 291 L320 525 L131 519 L115 429 L167 411 L99 198 Q86 160 61 145 Q37 129 10 130 L15 7 Q33 -3 53 -7 Q74 -11 85 -11 Q129 -11 166 21 Q203 54 229 123 L272 270 L277 270 L318 43 L354 43 L473 278 L477 278 L458 170 Q455 146 454 133 Q453 119 453 104 Q454 47 483 20 Q513 -6 566 -6 Q581 -6 604 -2 Q626 2 641 10 L662 134 Q633 134 622 144 Q611 154 612 174 Q612 184 613 197 Q614 209 616 222 L658 525 Z" /><glyph glyph-name="" unicode="&#x43d;" d="M272 519 L117 519 L43 0 L197 0 L229 231 L336 231 L333 211 Q330 190 329 173 Q327 156 327 138 Q327 65 355 29 Q384 -6 446 -6 Q461 -6 480 -2 Q500 2 514 10 L534 134 Q506 134 495 144 Q485 154 485 174 Q485 184 486 197 Q487 210 489 222 L528 519 L375 519 L350 342 L247 342 L272 519 Z" /><glyph glyph-name="" unicode="&#x43e;" d="M293 525 Q183 524 113 442 Q42 361 40 218 Q41 118 90 57 Q140 -4 226 -6 Q336 -4 407 79 Q477 161 479 304 Q478 404 429 464 Q379 524 293 525 L293 525 ZM274 388 Q296 388 310 361 Q324 334 324 286 Q323 217 301 175 Q279 132 246 131 Q223 132 210 158 Q196 185 196 232 Q197 301 219 344 Q242 387 274 388 L274 388 Z" /><glyph glyph-name="" unicode="&#x43f;" d="M501 622 L519 720 L157 720 L139 622 L501 622 ZM260 519 L105 519 L66 240 Q62 216 61 195 Q60 174 60 156 Q63 61 105 26 Q147 -8 195 -6 Q231 -5 266 15 Q300 36 321 66 L325 66 Q338 29 365 12 Q392 -6 435 -6 Q450 -6 469 -2 Q488 2 503 10 L523 134 Q494 134 483 144 Q472 154 473 174 Q473 184 474 197 Q475 210 477 222 L518 519 L363 519 L319 201 Q310 180 292 161 Q275 143 254 142 Q241 141 230 152 Q219 162 218 200 Q218 206 218 214 Q219 222 220 230 L260 519 Z" /><glyph glyph-name="" unicode="&#x440;" d="M114 519 L10 -214 L165 -208 L198 27 L201 28 Q217 11 233 2 Q248 -6 261 -6 Q369 -4 435 81 Q502 167 504 314 Q502 414 462 469 Q421 524 362 525 Q335 525 307 506 Q280 488 255 457 L251 457 L259 519 L114 519 ZM295 377 Q318 377 332 354 Q347 330 347 285 Q346 216 322 179 Q298 142 267 142 Q257 142 244 149 Q232 155 220 168 L238 316 Q246 341 261 359 Q275 376 295 377 L295 377 Z" /><glyph glyph-name="" unicode="&#x441;" d="M294 525 Q180 523 111 444 Q42 365 40 226 Q41 115 91 55 Q142 -5 232 -6 Q266 -7 313 11 Q359 28 410 75 L348 188 Q312 156 284 148 Q256 141 246 142 Q226 142 211 166 Q197 190 196 238 Q197 304 222 341 Q246 377 278 377 Q286 377 293 376 Q301 374 308 372 L302 300 L408 300 L436 474 Q408 500 375 512 Q341 525 294 525 L294 525 Z" /><glyph glyph-name="" unicode="&#x442;" d="M718 622 L735 720 L157 720 L139 622 L718 622 ZM260 519 L105 519 L66 240 Q62 216 61 195 Q60 174 60 156 Q63 61 105 26 Q147 -8 195 -6 Q225 -6 255 13 Q285 32 315 73 L319 73 Q338 27 370 10 Q402 -7 436 -6 Q468 -5 498 15 Q529 36 547 66 L551 66 Q564 29 591 12 Q617 -6 660 -6 Q675 -6 694 -2 Q714 2 728 10 L748 134 Q719 134 708 144 Q697 154 698 174 Q698 184 700 197 Q701 209 703 222 L743 519 L589 519 L545 201 Q536 180 520 161 Q504 143 485 142 Q475 141 467 152 Q459 162 459 200 Q459 206 460 214 Q460 222 461 230 L502 519 L347 519 L312 254 Q309 233 308 218 Q306 204 306 194 Q295 172 279 158 Q262 143 239 142 Q232 141 226 152 Q219 162 218 200 Q218 206 218 214 Q219 222 220 230 L260 519 Z" /><glyph glyph-name="" unicode="&#x443;" d="M497 399 Q496 466 469 498 Q442 530 398 530 Q382 530 363 525 Q345 519 330 513 L310 388 Q322 389 331 382 Q339 376 339 356 Q336 319 310 254 Q284 189 268 155 L207 525 L41 519 L149 0 Q126 -39 93 -60 Q60 -81 10 -81 L18 -196 Q33 -206 47 -210 Q61 -214 74 -214 Q203 -195 344 14 Q485 223 497 399 L497 399 Z" /><glyph glyph-name="" unicode="&#x444;" d="M524 795 L369 789 L327 492 L323 492 Q306 509 290 517 Q274 525 259 525 Q164 523 103 436 Q42 349 40 201 Q41 103 78 49 Q116 -5 184 -6 Q214 -6 255 28 L259 28 L226 -208 L381 -208 L414 28 L418 28 Q451 -6 481 -6 Q577 -4 638 83 Q699 171 701 319 Q700 417 662 470 Q624 524 557 525 Q543 525 525 517 Q507 509 486 492 L482 492 L524 795 ZM196 226 Q197 297 215 337 Q233 377 252 378 Q271 378 283 371 Q295 365 304 352 L281 168 Q270 155 258 149 Q246 142 226 142 Q214 142 205 164 Q196 185 196 226 L196 226 ZM544 293 Q543 223 526 183 Q509 143 489 142 Q469 142 458 149 Q446 155 436 168 L459 352 Q471 365 483 371 Q495 378 515 378 Q526 378 535 356 Q544 334 544 293 L544 293 Z" /><glyph glyph-name="" unicode="&#x445;" d="M274 -6 L447 0 L342 257 Q399 321 438 379 Q477 437 504 519 L335 525 Q320 471 305 436 Q289 401 269 371 L230 525 L69 519 L165 273 Q120 225 69 150 Q19 76 0 0 L160 -6 Q171 41 190 79 Q209 117 235 154 L274 -6 Z" /><glyph glyph-name="" unicode="&#x446;" d="M325 -186 L459 -180 L543 134 Q499 133 480 147 Q461 161 462 198 Q462 216 465 239 L503 519 L348 519 L304 201 Q295 180 277 161 Q260 143 239 142 Q226 141 215 152 Q204 162 203 200 Q203 206 203 213 Q204 220 205 230 L245 519 L89 519 L51 240 Q47 215 46 195 Q45 174 45 156 Q48 61 90 26 Q132 -8 180 -6 Q216 -6 251 14 Q286 34 318 72 L322 72 Q333 49 346 34 Q358 18 378 10 L325 -186 Z" /><glyph glyph-name="" unicode="&#x447;" d="M57 391 Q50 346 50 310 Q52 211 89 175 Q126 140 174 142 Q202 142 224 152 Q247 161 277 179 L253 0 L407 0 L481 519 L327 519 L297 301 Q277 290 265 286 Q252 282 240 282 Q223 281 209 292 Q196 302 195 337 Q195 345 197 358 Q198 371 199 381 L219 519 L75 519 L57 391 Z" /><glyph glyph-name="" unicode="&#x448;" d="M245 519 L90 519 L51 240 Q47 216 46 195 Q45 174 45 156 Q48 61 90 26 Q132 -8 180 -6 Q210 -6 240 13 Q270 32 300 73 L304 73 Q323 27 355 10 Q387 -7 421 -6 Q453 -5 483 15 Q514 36 532 66 L536 66 Q549 29 576 12 Q602 -6 645 -6 Q660 -6 679 -2 Q699 2 713 10 L733 134 Q704 134 693 144 Q682 154 683 174 Q683 184 685 197 Q686 209 688 222 L728 519 L574 519 L530 201 Q521 180 505 161 Q489 143 470 142 Q460 141 452 152 Q444 162 444 200 Q444 206 445 214 Q445 222 446 230 L487 519 L332 519 L297 254 Q294 233 293 218 Q291 204 291 194 Q280 172 264 158 Q247 143 224 142 Q217 141 211 152 Q204 162 203 200 Q203 206 203 214 Q204 222 205 230 L245 519 Z" /><glyph glyph-name="" unicode="&#x453;" d="M236 372 Q224 337 138 298 Q52 259 40 132 Q43 60 88 27 Q133 -6 188 -6 Q259 -6 300 7 Q340 20 378 45 L334 177 Q310 162 281 152 Q251 142 221 142 Q213 142 209 148 Q205 154 205 165 Q217 204 300 246 Q383 287 395 407 Q394 465 352 497 Q310 529 241 529 Q213 529 169 517 Q124 506 99 490 L133 376 Q154 387 172 394 Q189 400 198 400 Q214 401 225 395 Q236 390 236 372 L236 372 ZM186 585 L312 585 L429 748 L271 748 L186 585 Z" /><glyph glyph-name="" unicode="&#x455;" d="M210 144 Q210 130 204 125 Q199 120 186 120 Q166 120 137 135 Q108 150 74 183 L6 70 Q54 23 100 6 Q145 -11 183 -10 Q272 -11 322 30 Q371 71 372 162 Q362 270 289 306 Q216 342 206 371 Q207 394 222 399 Q237 404 254 403 Q255 403 263 402 Q270 400 281 396 L279 348 L380 348 L402 490 Q361 511 319 520 Q278 529 245 529 Q134 526 92 475 Q50 423 52 353 Q62 244 131 208 Q200 172 210 144 L210 144 Z" /><glyph glyph-name="" unicode="&#x458;" d="M70 18 Q61 -40 29 -57 Q-3 -75 -40 -73 L-35 -201 Q-21 -208 -6 -211 Q9 -214 24 -214 Q77 -217 138 -171 Q199 -125 222 5 L294 519 L139 519 L70 18 ZM145 659 Q146 623 167 599 Q187 576 219 575 Q265 576 294 609 Q323 641 324 688 Q323 724 302 749 Q282 773 250 774 Q204 773 175 739 Q146 706 145 659 L145 659 Z" /><glyph glyph-name="" unicode="&#x459;" d="M360 383 L335 220 Q331 198 329 177 Q327 156 327 138 Q327 65 355 29 Q383 -6 438 -6 Q575 -3 635 57 Q694 117 693 199 Q693 261 663 301 Q633 341 572 342 L504 342 L529 519 L136 519 L121 429 L173 411 L144 279 Q123 184 94 155 Q64 127 15 130 L20 7 Q38 -3 59 -7 Q80 -11 92 -11 Q154 -11 204 47 Q253 105 279 227 L310 383 L360 383 ZM524 231 Q537 231 546 217 Q555 203 555 180 Q554 149 537 136 Q520 122 504 122 Q480 122 480 155 Q480 164 482 178 L489 231 L524 231 Z" /><glyph glyph-name="" unicode="&#x45a;" d="M490 342 L514 519 L361 519 L336 342 L247 342 L272 519 L117 519 L43 0 L197 0 L229 231 L321 231 L319 218 Q316 196 314 176 Q312 156 312 138 Q312 65 340 29 Q368 -6 424 -6 Q561 -3 621 57 Q680 117 679 199 Q679 261 649 301 Q619 341 558 342 L490 342 ZM490 122 Q466 122 465 155 Q465 160 466 168 Q467 176 468 183 L475 231 L510 231 Q522 231 531 217 Q540 203 540 180 Q539 149 522 136 Q505 122 490 122 L490 122 Z" /><glyph glyph-name="" unicode="&#x45c;" d="M290 585 L416 585 L533 748 L375 748 L290 585 ZM467 371 Q479 391 497 401 Q514 411 547 411 L541 516 Q526 524 507 528 Q488 532 472 532 Q429 532 399 511 Q370 491 353 455 L292 326 L244 326 L271 519 L118 519 L43 0 L197 0 L229 227 L282 227 Q306 153 325 77 Q343 0 412 -6 Q428 -6 447 -2 Q466 2 481 10 L503 134 Q452 137 445 182 Q437 227 416 281 L467 371 Z" /><glyph glyph-name="" unicode="&#x45f;" d="M158 -214 L295 -208 L309 -39 L189 -67 L158 -214 ZM260 519 L105 519 L66 240 Q62 216 61 195 Q60 174 60 156 Q63 61 105 26 Q147 -8 195 -6 Q231 -5 266 15 Q300 36 321 66 L325 66 Q338 29 365 12 Q392 -6 435 -6 Q450 -6 469 -2 Q488 2 503 10 L523 134 Q494 134 483 144 Q472 154 473 174 Q473 184 474 197 Q475 210 477 222 L518 519 L363 519 L319 201 Q310 180 292 161 Q275 143 254 142 Q241 141 230 152 Q219 162 218 200 Q218 206 218 214 Q219 222 220 230 L260 519 Z" /><glyph glyph-name="" unicode="¤" d="M217 336 Q218 394 247 434 Q275 474 314 476 Q344 475 362 446 Q380 417 380 372 Q379 314 350 274 Q322 235 284 233 Q254 234 236 263 Q217 292 217 336 L217 336 ZM111 66 L175 138 Q193 121 215 113 Q237 104 263 104 Q288 104 312 113 Q336 121 359 138 L405 66 L495 155 L450 226 Q470 263 482 305 Q493 346 493 392 Q493 415 491 439 Q489 463 484 481 L551 553 L487 642 L423 570 Q403 587 381 596 Q360 605 335 605 Q309 605 284 596 Q260 587 237 570 L193 642 L102 553 L147 481 Q127 443 116 403 Q104 362 104 316 Q104 292 106 269 Q109 245 113 227 L47 155 L111 66 Z" /><glyph glyph-name="" unicode="&#x400;" d="M391 958 L234 958 L302 795 L428 795 L391 958 ZM136 748 L30 0 L474 0 L498 148 L216 148 L240 316 L486 316 L509 460 L264 460 L282 600 L559 600 L583 748 L136 748 Z" /><glyph glyph-name="" unicode="&#x40d;" d="M441 422 L444 420 L384 0 L549 0 L655 748 L557 748 L235 319 L232 321 L295 748 L130 748 L24 0 L125 0 L441 422 ZM459 959 L302 959 L371 796 L496 796 L459 959 Z" /><glyph glyph-name="" unicode="&#x450;" d="M309 748 L151 748 L221 585 L347 585 L309 748 ZM447 377 Q447 441 405 482 Q363 524 276 525 Q162 523 94 439 Q26 354 24 210 Q25 107 75 51 Q125 -5 216 -6 Q264 -6 309 7 Q353 20 390 45 L366 158 Q335 140 301 131 Q267 122 236 122 Q206 121 192 137 Q177 153 177 198 Q250 195 344 229 Q438 263 447 377 L447 377 ZM262 399 Q276 399 284 389 Q291 378 291 363 Q287 326 249 313 Q211 301 190 302 Q198 349 218 374 Q239 399 262 399 L262 399 Z" /><glyph glyph-name="" unicode="&#x45d;" d="M317 748 L159 748 L228 585 L354 585 L317 748 ZM245 519 L90 519 L51 240 Q47 216 46 195 Q45 174 45 156 Q48 61 90 26 Q132 -8 180 -6 Q216 -5 251 15 Q285 36 306 66 L310 66 Q323 29 350 12 Q377 -6 420 -6 Q435 -6 454 -2 Q473 2 488 10 L508 134 Q479 134 468 144 Q457 154 458 174 Q458 184 459 197 Q460 210 462 222 L503 519 L348 519 L304 201 Q295 180 277 161 Q260 143 239 142 Q226 141 215 152 Q204 162 203 200 Q203 206 203 214 Q204 222 205 230 L245 519 Z" /><glyph glyph-name="" unicode="" d="" /><glyph glyph-name="" unicode="é" d="M447 377 Q447 441 405 485 Q363 528 276 530 Q162 527 93 441 Q24 355 22 226 Q23 115 75 55 Q126 -5 217 -6 Q288 -6 328 7 Q368 20 404 45 L360 177 Q332 162 303 152 Q273 142 231 142 Q216 141 200 151 Q184 161 183 198 Q256 195 347 230 Q439 265 447 377 L447 377 ZM259 393 Q274 393 281 383 Q288 372 288 357 Q284 320 247 307 Q209 295 188 296 Q196 343 216 368 Q236 393 259 393 L259 393 ZM199 585 L324 585 L441 748 L283 748 L199 585 Z" /><glyph glyph-name="" unicode="è" d="M447 377 Q447 441 405 485 Q363 528 276 530 Q162 527 93 441 Q24 355 22 226 Q23 115 75 55 Q126 -5 217 -6 Q288 -6 328 7 Q368 20 404 45 L360 177 Q332 162 303 152 Q273 142 231 142 Q216 141 200 151 Q184 161 183 198 Q256 195 347 230 Q439 265 447 377 L447 377 ZM259 393 Q274 393 281 383 Q288 372 288 357 Q284 320 247 307 Q209 295 188 296 Q196 343 216 368 Q236 393 259 393 L259 393 ZM354 748 L197 748 L266 585 L391 585 L354 748 Z" /><glyph glyph-name="" unicode="ê" d="M447 377 Q447 441 405 485 Q363 528 276 530 Q162 527 93 441 Q24 355 22 226 Q23 115 75 55 Q126 -5 217 -6 Q288 -6 328 7 Q368 20 404 45 L360 177 Q332 162 303 152 Q273 142 231 142 Q216 141 200 151 Q184 161 183 198 Q256 195 347 230 Q439 265 447 377 L447 377 ZM259 393 Q274 393 281 383 Q288 372 288 357 Q284 320 247 307 Q209 295 188 296 Q196 343 216 368 Q236 393 259 393 L259 393 ZM376 748 L255 748 L152 585 L250 585 L300 655 L334 585 L431 585 L376 748 Z" /><glyph glyph-name="" unicode="ó" d="M284 525 Q171 524 99 441 Q27 359 25 211 Q26 115 75 56 Q123 -4 208 -6 Q320 -4 392 80 Q464 164 466 310 Q465 407 417 465 Q369 523 284 525 L284 525 ZM261 388 Q282 387 296 361 Q310 334 310 288 Q309 218 287 175 Q264 132 230 131 Q207 132 194 158 Q181 184 181 230 Q182 301 205 344 Q228 387 261 388 L261 388 ZM197 585 L322 585 L439 748 L281 748 L197 585 Z" /><glyph glyph-name="" unicode="ò" d="M284 525 Q171 524 99 441 Q27 359 25 211 Q26 115 75 56 Q123 -4 208 -6 Q320 -4 392 80 Q464 164 466 310 Q465 407 417 465 Q369 523 284 525 L284 525 ZM261 388 Q282 387 296 361 Q310 334 310 288 Q309 218 287 175 Q264 132 230 131 Q207 132 194 158 Q181 184 181 230 Q182 301 205 344 Q228 387 261 388 L261 388 ZM310 748 L153 748 L222 585 L347 585 L310 748 Z" /><glyph glyph-name="" unicode="ô" d="M284 525 Q171 524 99 441 Q27 359 25 211 Q26 115 75 56 Q123 -4 208 -6 Q320 -4 392 80 Q464 164 466 310 Q465 407 417 465 Q369 523 284 525 L284 525 ZM261 388 Q282 387 296 361 Q310 334 310 288 Q309 218 287 175 Q264 132 230 131 Q207 132 194 158 Q181 184 181 230 Q182 301 205 344 Q228 387 261 388 L261 388 ZM372 748 L251 748 L148 585 L246 585 L296 655 L330 585 L427 585 L372 748 Z" /><glyph glyph-name="" unicode="ö" d="M284 525 Q171 524 99 441 Q27 359 25 211 Q26 115 75 56 Q123 -4 208 -6 Q320 -4 392 80 Q464 164 466 310 Q465 407 417 465 Q369 523 284 525 L284 525 ZM261 388 Q282 387 296 361 Q310 334 310 288 Q309 218 287 175 Q264 132 230 131 Q207 132 194 158 Q181 184 181 230 Q182 301 205 344 Q228 387 261 388 L261 388 ZM166 659 Q166 628 182 608 Q197 587 223 586 Q259 587 284 616 Q309 644 310 684 Q309 715 292 734 Q274 753 248 754 Q217 753 192 725 Q167 698 166 659 L166 659 ZM348 659 Q348 628 363 608 Q378 587 404 586 Q440 587 465 615 Q490 643 491 684 Q490 715 473 734 Q455 753 429 754 Q398 753 374 725 Q349 697 348 659 L348 659 Z" /><glyph glyph-name="" unicode="õ" d="M284 525 Q171 524 99 441 Q27 359 25 211 Q26 115 75 56 Q123 -4 208 -6 Q320 -4 392 80 Q464 164 466 310 Q465 407 417 465 Q369 523 284 525 L284 525 ZM261 388 Q282 387 296 361 Q310 334 310 288 Q309 218 287 175 Q264 132 230 131 Q207 132 194 158 Q181 184 181 230 Q182 301 205 344 Q228 387 261 388 L261 388 ZM462 699 Q445 727 427 735 Q408 744 398 743 Q354 741 329 726 Q305 710 281 708 Q273 708 260 712 Q246 717 229 733 L193 633 Q211 605 230 597 Q249 588 259 589 Q293 591 323 607 Q353 622 376 624 Q384 625 397 620 Q409 615 425 599 L462 699 Z" /><glyph glyph-name="" unicode="í" d="M190 0 L296 748 L131 748 L25 0 L190 0 ZM123 795 L248 795 L365 958 L207 958 L123 795 Z" /><glyph glyph-name="" unicode="î" d="M190 0 L296 748 L131 748 L25 0 L190 0 ZM300 958 L179 958 L76 795 L174 795 L224 865 L258 795 L355 795 L300 958 Z" /><glyph glyph-name="" unicode="ï" d="M190 0 L296 748 L131 748 L25 0 L190 0 ZM64 868 Q64 837 80 817 Q95 796 121 795 Q157 796 182 825 Q207 853 208 893 Q207 924 190 943 Q172 962 146 963 Q115 962 90 934 Q65 907 64 868 L64 868 ZM246 868 Q246 837 261 817 Q276 796 302 795 Q338 796 363 824 Q388 852 389 893 Q388 924 371 943 Q353 962 327 963 Q296 962 272 934 Q247 906 246 868 L246 868 Z" /><glyph glyph-name="" unicode="ì" d="M190 0 L296 748 L131 748 L25 0 L190 0 ZM253 959 L96 959 L165 796 L290 796 L253 959 Z" /><glyph glyph-name="" unicode="&#xf8ff;" d="M645 530 L727 585 Q730 587 733 588 Q735 589 739 589 Q745 589 750 585 Q754 582 754 575 Q754 573 753 570 Q751 566 749 564 L714 530 L831 530 Q837 530 842 525 Q846 521 846 514 Q846 507 842 504 Q837 500 831 500 L750 500 L754 487 L867 487 Q874 487 877 483 Q881 478 881 473 Q881 465 877 461 Q874 457 867 457 L759 457 L759 443 L844 443 Q850 443 855 439 Q859 436 859 429 Q859 422 855 418 Q850 413 844 413 L754 413 L750 401 L820 401 Q825 401 830 396 Q834 392 834 385 Q834 379 830 375 Q825 370 820 370 L643 370 L643 85 L476 85 L476 370 L299 370 Q294 370 289 375 Q285 379 285 385 Q285 392 289 396 Q294 401 299 401 L369 401 L364 413 L275 413 Q269 413 265 418 Q260 422 260 429 Q260 436 265 439 Q269 443 275 443 L360 443 L360 457 L252 457 Q246 457 242 461 Q238 465 238 473 Q238 478 242 483 Q246 487 252 487 L364 487 L369 500 L288 500 Q282 500 278 504 Q273 507 273 514 Q273 521 278 525 Q282 530 288 530 L405 530 L370 564 Q368 566 366 570 Q365 573 365 575 Q365 582 370 585 Q374 589 380 589 Q388 589 392 585 L474 530 L645 530 ZM919 39 Q924 39 927 36 Q930 33 930 28 Q930 23 927 20 Q924 17 919 17 L905 17 L905 39 L919 39 ZM146 376 Q150 201 267 84 Q384 -33 559 -37 Q734 -33 851 84 Q968 201 972 376 Q968 551 851 668 Q734 785 559 789 Q384 785 267 668 Q150 551 146 376 L146 376 ZM863 17 Q864 -6 879 -21 Q894 -36 917 -37 Q940 -36 956 -21 Q971 -6 972 17 Q971 40 956 56 Q940 71 917 72 Q894 71 879 56 Q864 40 863 17 L863 17 ZM871 17 Q872 36 885 50 Q898 63 917 64 Q936 63 950 50 Q963 36 964 17 Q963 -2 950 -15 Q936 -28 917 -29 Q898 -28 885 -15 Q872 -2 871 17 L871 17 ZM930 -11 L941 -11 L925 9 Q931 11 935 16 Q939 21 939 28 Q939 36 933 42 Q927 48 919 48 L896 48 L896 -11 L905 -11 L905 8 L915 8 L930 -11 Z" /><glyph glyph-name="" unicode="í" d="M251 519 L99 519 L57 218 Q53 184 50 161 Q48 138 48 128 Q49 51 84 22 Q119 -7 170 -6 Q185 -6 204 -2 Q223 2 238 10 L258 134 Q229 134 218 144 Q207 154 208 174 Q208 184 209 197 Q210 210 212 222 L251 519 ZM84 585 L209 585 L326 748 L168 748 L84 585 Z" /><glyph glyph-name="" unicode="ì" d="M252 519 L100 519 L58 218 Q54 184 51 161 Q49 138 49 128 Q50 51 85 22 Q120 -7 171 -6 Q186 -6 205 -2 Q224 2 239 10 L259 134 Q230 134 219 144 Q208 154 209 174 Q209 184 210 197 Q211 210 213 222 L252 519 ZM197 748 L40 748 L109 585 L234 585 L197 748 Z" /><glyph glyph-name="" unicode="î" d="M252 519 L100 519 L58 218 Q54 184 51 161 Q49 138 49 128 Q50 51 85 22 Q120 -7 171 -6 Q186 -6 205 -2 Q224 2 239 10 L259 134 Q230 134 219 144 Q208 154 209 174 Q209 184 210 197 Q211 210 213 222 L252 519 ZM268 748 L147 748 L44 585 L142 585 L192 655 L226 585 L323 585 L268 748 Z" /><glyph glyph-name="" unicode="ï" d="M252 519 L100 519 L58 218 Q54 184 51 161 Q49 138 49 128 Q50 51 85 22 Q120 -7 171 -6 Q186 -6 205 -2 Q224 2 239 10 L259 134 Q230 134 219 144 Q208 154 209 174 Q209 184 210 197 Q211 210 213 222 L252 519 ZM40 659 Q40 628 56 608 Q71 587 97 586 Q133 587 158 616 Q183 644 184 684 Q183 715 166 734 Q148 753 122 754 Q91 753 66 725 Q41 698 40 659 L40 659 ZM222 659 Q222 628 237 608 Q252 587 278 586 Q314 587 339 615 Q364 643 365 684 Q364 715 347 734 Q329 753 303 754 Q272 753 248 725 Q223 697 222 659 L222 659 Z" /><glyph glyph-name="" unicode="á" d="M404 -6 Q419 -6 438 -2 Q458 2 472 10 L492 134 Q463 134 452 144 Q441 154 442 174 Q442 184 443 197 Q444 210 446 222 L482 491 L345 491 Q328 508 304 517 Q281 525 257 525 Q152 523 89 438 Q25 352 23 205 Q24 105 63 50 Q102 -5 164 -6 Q200 -5 235 15 Q269 36 290 66 L295 66 Q307 29 334 12 Q361 -6 404 -6 L404 -6 ZM180 234 Q181 303 203 340 Q224 377 250 377 Q270 377 283 370 Q295 364 306 351 L289 203 Q278 178 261 161 Q244 143 223 142 Q205 142 193 166 Q180 189 180 234 L180 234 ZM240 585 L365 585 L482 748 L324 748 L240 585 Z" /><glyph glyph-name="" unicode="à" d="M404 -6 Q419 -6 438 -2 Q458 2 472 10 L492 134 Q463 134 452 144 Q441 154 442 174 Q442 184 443 197 Q444 210 446 222 L482 491 L345 491 Q328 508 304 517 Q281 525 257 525 Q152 523 89 438 Q25 352 23 205 Q24 105 63 50 Q102 -5 164 -6 Q200 -5 235 15 Q269 36 290 66 L295 66 Q307 29 334 12 Q361 -6 404 -6 L404 -6 ZM180 234 Q181 303 203 340 Q224 377 250 377 Q270 377 283 370 Q295 364 306 351 L289 203 Q278 178 261 161 Q244 143 223 142 Q205 142 193 166 Q180 189 180 234 L180 234 ZM339 748 L182 748 L251 585 L376 585 L339 748 Z" /><glyph glyph-name="" unicode="â" d="M404 -6 Q419 -6 438 -2 Q458 2 472 10 L492 134 Q463 134 452 144 Q441 154 442 174 Q442 184 443 197 Q444 210 446 222 L482 491 L345 491 Q328 508 304 517 Q281 525 257 525 Q152 523 89 438 Q25 352 23 205 Q24 105 63 50 Q102 -5 164 -6 Q200 -5 235 15 Q269 36 290 66 L295 66 Q307 29 334 12 Q361 -6 404 -6 L404 -6 ZM180 234 Q181 303 203 340 Q224 377 250 377 Q270 377 283 370 Q295 364 306 351 L289 203 Q278 178 261 161 Q244 143 223 142 Q205 142 193 166 Q180 189 180 234 L180 234 ZM394 748 L273 748 L170 585 L268 585 L318 655 L352 585 L449 585 L394 748 Z" /><glyph glyph-name="" unicode="ä" d="M404 -6 Q419 -6 438 -2 Q458 2 472 10 L492 134 Q463 134 452 144 Q441 154 442 174 Q442 184 443 197 Q444 210 446 222 L482 491 L345 491 Q328 508 304 517 Q281 525 257 525 Q152 523 89 438 Q25 352 23 205 Q24 105 63 50 Q102 -5 164 -6 Q200 -5 235 15 Q269 36 290 66 L295 66 Q307 29 334 12 Q361 -6 404 -6 L404 -6 ZM180 234 Q181 303 203 340 Q224 377 250 377 Q270 377 283 370 Q295 364 306 351 L289 203 Q278 178 261 161 Q244 143 223 142 Q205 142 193 166 Q180 189 180 234 L180 234 ZM153 659 Q153 628 169 608 Q184 587 210 586 Q246 587 271 616 Q296 644 297 684 Q296 715 279 734 Q261 753 235 754 Q204 753 179 725 Q154 698 153 659 L153 659 ZM335 659 Q335 628 350 608 Q365 587 391 586 Q427 587 452 615 Q477 643 478 684 Q477 715 460 734 Q442 753 416 754 Q385 753 361 725 Q336 697 335 659 L335 659 Z" /><glyph glyph-name="" unicode="ã" d="M404 -6 Q419 -6 438 -2 Q458 2 472 10 L492 134 Q463 134 452 144 Q441 154 442 174 Q442 184 443 197 Q444 210 446 222 L482 491 L345 491 Q328 508 304 517 Q281 525 257 525 Q152 523 89 438 Q25 352 23 205 Q24 105 63 50 Q102 -5 164 -6 Q200 -5 235 15 Q269 36 290 66 L295 66 Q307 29 334 12 Q361 -6 404 -6 L404 -6 ZM180 234 Q181 303 203 340 Q224 377 250 377 Q270 377 283 370 Q295 364 306 351 L289 203 Q278 178 261 161 Q244 143 223 142 Q205 142 193 166 Q180 189 180 234 L180 234 ZM449 699 Q432 727 414 735 Q395 744 385 743 Q341 741 316 726 Q292 710 268 708 Q260 708 247 712 Q233 717 216 733 L180 633 Q198 605 217 597 Q236 588 246 589 Q280 591 310 607 Q340 622 363 624 Q371 625 384 620 Q396 615 412 599 L449 699 Z" /><glyph glyph-name="" unicode="å" d="M404 -6 Q419 -6 438 -2 Q458 2 472 10 L492 134 Q463 134 452 144 Q441 154 442 174 Q442 184 443 197 Q444 210 446 222 L482 491 L345 491 Q328 508 304 517 Q281 525 257 525 Q152 523 89 438 Q25 352 23 205 Q24 105 63 50 Q102 -5 164 -6 Q200 -5 235 15 Q269 36 290 66 L295 66 Q307 29 334 12 Q361 -6 404 -6 L404 -6 ZM180 234 Q181 303 203 340 Q224 377 250 377 Q270 377 283 370 Q295 364 306 351 L289 203 Q278 178 261 161 Q244 143 223 142 Q205 142 193 166 Q180 189 180 234 L180 234 ZM227 639 Q228 600 247 578 Q267 555 299 555 Q340 556 371 588 Q402 620 404 673 Q404 712 384 735 Q365 757 332 757 Q291 756 260 724 Q229 692 227 639 L227 639 ZM287 648 Q287 669 298 683 Q308 696 323 697 Q334 697 340 687 Q346 678 346 664 Q345 643 335 629 Q324 616 309 615 Q299 615 293 625 Q287 634 287 648 L287 648 Z" /><glyph glyph-name="" unicode="ú" d="M245 519 L90 519 L51 240 Q47 216 46 195 Q45 174 45 156 Q48 61 90 26 Q132 -8 180 -6 Q216 -5 251 15 Q285 36 306 66 L310 66 Q323 29 350 12 Q377 -6 420 -6 Q435 -6 454 -2 Q473 2 488 10 L508 134 Q479 134 468 144 Q457 154 458 174 Q458 184 459 197 Q460 210 462 222 L503 519 L348 519 L304 201 Q295 180 277 161 Q260 143 239 142 Q226 141 215 152 Q204 162 203 200 Q203 206 203 214 Q204 222 205 230 L245 519 ZM237 585 L362 585 L479 748 L321 748 L237 585 Z" /><glyph glyph-name="" unicode="ù" d="M245 519 L90 519 L51 240 Q47 216 46 195 Q45 174 45 156 Q48 61 90 26 Q132 -8 180 -6 Q216 -5 251 15 Q285 36 306 66 L310 66 Q323 29 350 12 Q377 -6 420 -6 Q435 -6 454 -2 Q473 2 488 10 L508 134 Q479 134 468 144 Q457 154 458 174 Q458 184 459 197 Q460 210 462 222 L503 519 L348 519 L304 201 Q295 180 277 161 Q260 143 239 142 Q226 141 215 152 Q204 162 203 200 Q203 206 203 214 Q204 222 205 230 L245 519 ZM334 748 L177 748 L246 585 L371 585 L334 748 Z" /><glyph glyph-name="" unicode="û" d="M245 519 L90 519 L51 240 Q47 216 46 195 Q45 174 45 156 Q48 61 90 26 Q132 -8 180 -6 Q216 -5 251 15 Q285 36 306 66 L310 66 Q323 29 350 12 Q377 -6 420 -6 Q435 -6 454 -2 Q473 2 488 10 L508 134 Q479 134 468 144 Q457 154 458 174 Q458 184 459 197 Q460 210 462 222 L503 519 L348 519 L304 201 Q295 180 277 161 Q260 143 239 142 Q226 141 215 152 Q204 162 203 200 Q203 206 203 214 Q204 222 205 230 L245 519 ZM395 748 L274 748 L171 585 L269 585 L319 655 L353 585 L450 585 L395 748 Z" /><glyph glyph-name="" unicode="ü" d="M245 519 L90 519 L51 240 Q47 216 46 195 Q45 174 45 156 Q48 61 90 26 Q132 -8 180 -6 Q216 -5 251 15 Q285 36 306 66 L310 66 Q323 29 350 12 Q377 -6 420 -6 Q435 -6 454 -2 Q473 2 488 10 L508 134 Q479 134 468 144 Q457 154 458 174 Q458 184 459 197 Q460 210 462 222 L503 519 L348 519 L304 201 Q295 180 277 161 Q260 143 239 142 Q226 141 215 152 Q204 162 203 200 Q203 206 203 214 Q204 222 205 230 L245 519 ZM161 659 Q161 628 177 608 Q192 587 218 586 Q254 587 279 616 Q304 644 305 684 Q304 715 287 734 Q269 753 243 754 Q212 753 187 725 Q162 698 161 659 L161 659 ZM343 659 Q343 628 358 608 Q373 587 399 586 Q435 587 460 615 Q485 643 486 684 Q485 715 468 734 Q450 753 424 754 Q393 753 369 725 Q344 697 343 659 L343 659 Z" /></font>
</defs>
</svg>
