<?xml version="1.0" standalone="no"?><!DOCTYPE svg PUBLIC "-//W3C//DTD SVG 1.1//EN" "http://www.w3.org/Graphics/SVG/1.1/DTD/svg11.dtd" ><svg xmlns="http://www.w3.org/2000/svg"><metadata></metadata><defs><font id="LaskoDzurovski,Totemt.f.: SkolaSansCn Black: 2009" horiz-adv-x="1178"><font-face font-family="SkolaSansCn" font-weight="900" font-stretch="normal" units-per-em="1000" panose-1="2 0 0 0 0 0 0 0 0 0" ascent="750" descent="-250" x-height="0" bbox="-120 -215 1148 1001" underline-thickness="50" underline-position="-75" unicode-range="U+0000-fb02" /><missing-glyph horiz-adv-x="464" d="M32 0 L432 0 L432 748 L32 748 L32 0 ZM364 519 Q362 593 322 626 Q282 660 229 659 Q195 659 163 648 Q131 637 99 612 L138 524 Q160 542 178 551 Q197 560 215 560 Q229 560 238 543 Q246 526 246 492 Q244 458 218 429 Q192 400 163 382 L178 269 L250 269 L262 342 Q304 367 333 411 Q363 454 364 519 L364 519 ZM153 158 Q154 129 170 109 Q187 90 212 89 Q238 90 255 109 Q271 129 272 158 Q271 187 255 207 Q238 226 212 227 Q187 226 170 207 Q154 187 153 158 L153 158 ZM74 708 L390 708 L390 40 L74 40 L74 708 Z" /><glyph glyph-name="" unicode="" d="" /><glyph glyph-name="" unicode=" " d="" /><glyph glyph-name="" unicode="!" d="M195 234 L217 748 L73 748 L96 234 L195 234 ZM65 86 Q66 47 89 21 Q111 -5 145 -6 Q180 -5 202 21 Q224 47 225 86 Q224 125 202 151 Q180 177 145 178 Q111 177 89 151 Q66 125 65 86 L65 86 Z" /><glyph glyph-name="" unicode="&quot;" d="M177 748 L64 748 L64 466 L177 466 L177 748 ZM359 748 L247 748 L247 466 L359 466 L359 748 Z" /><glyph glyph-name="" unicode="#" d="M61 457 L125 457 L106 291 L32 291 L32 201 L96 201 L74 0 L160 0 L181 201 L252 201 L230 0 L316 0 L337 201 L412 201 L412 291 L348 291 L366 457 L441 457 L441 547 L377 547 L398 748 L313 748 L291 547 L221 547 L242 748 L157 748 L135 547 L61 547 L61 457 ZM210 457 L281 457 L262 291 L192 291 L210 457 Z" /><glyph glyph-name="" unicode="$" d="M327 -109 L327 4 Q406 25 449 84 Q492 142 493 232 Q476 393 354 437 Q231 481 214 550 Q214 574 227 590 Q240 606 266 607 Q300 606 337 583 Q374 560 408 523 L476 669 Q441 699 405 719 Q368 740 327 748 L327 857 L211 857 L211 748 Q128 729 88 674 Q49 618 49 540 Q65 378 180 329 Q294 280 310 217 Q310 181 294 161 Q278 141 251 141 Q217 142 181 165 Q144 188 111 225 L44 79 Q83 45 123 23 Q164 2 211 -4 L211 -109 L327 -109 Z" /><glyph glyph-name="" unicode="%" d="M625 748 L530 754 L171 0 L256 -6 L625 748 ZM30 556 Q32 471 78 416 Q124 360 193 358 Q263 360 309 416 Q354 471 356 556 Q354 641 309 696 Q263 752 193 754 Q124 752 78 696 Q32 641 30 556 L30 556 ZM443 193 Q445 108 491 52 Q537 -4 607 -6 Q676 -4 722 52 Q767 108 769 193 Q767 278 722 333 Q676 389 607 391 Q537 389 491 333 Q445 278 443 193 L443 193 ZM121 556 Q122 597 142 624 Q162 651 193 652 Q224 651 245 624 Q265 597 266 556 Q265 515 245 488 Q224 461 193 460 Q162 461 142 488 Q122 515 121 556 L121 556 ZM534 193 Q535 234 555 261 Q576 288 607 289 Q638 288 658 261 Q678 234 679 193 Q678 152 658 124 Q638 97 607 96 Q576 97 555 124 Q535 152 534 193 L534 193 Z" /><glyph glyph-name="" unicode="&amp;" d="M341 389 Q389 421 420 469 Q451 517 452 580 Q449 669 399 712 Q348 754 281 754 Q209 755 154 712 Q98 669 95 574 Q95 533 111 494 Q127 455 156 418 Q104 383 72 330 Q39 276 38 208 Q41 101 103 42 Q164 -17 244 -18 Q293 -19 333 1 Q373 20 407 67 L446 -6 L607 0 L493 167 L610 365 L505 444 L407 271 L341 389 ZM327 166 Q310 139 291 127 Q272 114 250 114 Q226 115 205 141 Q185 167 184 210 Q184 250 194 275 Q204 301 230 325 L327 166 ZM279 634 Q297 634 311 617 Q325 601 326 570 Q324 540 305 516 Q286 492 269 478 Q257 497 245 520 Q233 542 232 568 Q233 598 246 616 Q260 634 279 634 L279 634 Z" /><glyph glyph-name="" unicode="&#39;" d="M177 748 L64 748 L64 466 L177 466 L177 748 Z" /><glyph glyph-name="" unicode="(" d="M131 806 Q95 736 63 618 Q31 500 29 326 Q31 152 63 38 Q95 -76 131 -145 L219 -100 Q192 -37 169 66 Q146 169 144 326 Q146 484 169 591 Q192 698 219 762 L131 806 Z" /><glyph glyph-name="" unicode=")" d="M14 762 Q41 698 64 591 Q88 484 89 326 Q88 169 64 66 Q41 -37 14 -100 L102 -145 Q138 -76 170 38 Q202 152 204 326 Q202 500 170 618 Q138 736 102 806 L14 762 Z" /><glyph glyph-name="" unicode="*" d="M233 754 L143 754 L156 614 L60 671 L32 574 L137 547 L65 444 L139 383 L189 505 L240 384 L313 445 L239 548 L344 577 L315 673 L220 615 L233 754 Z" /><glyph glyph-name="" unicode="+" d="M42 275 L208 275 L208 64 L322 64 L322 275 L487 275 L487 401 L322 401 L322 612 L208 612 L208 401 L42 401 L42 275 Z" /><glyph glyph-name="" unicode="," d="M47 91 Q48 54 69 25 Q90 -3 119 -5 L64 -139 L132 -164 Q169 -111 192 -42 Q215 27 216 91 Q215 133 192 161 Q168 189 131 190 Q95 189 71 161 Q48 133 47 91 L47 91 Z" /><glyph glyph-name="" unicode="-" d="M247 229 L247 355 L32 355 L32 229 L247 229 Z" /><glyph glyph-name="" unicode="." d="M43 91 Q44 50 68 22 Q92 -5 128 -6 Q164 -5 188 22 Q212 50 213 91 Q212 133 188 161 Q164 189 128 190 Q92 189 68 161 Q44 133 43 91 L43 91 Z" /><glyph glyph-name="" unicode="/" d="M278 806 L0 -204 L118 -204 L395 806 L278 806 Z" /><glyph glyph-name="" unicode="0" d="M9 374 Q9 206 75 102 Q140 -3 269 -6 Q398 -3 464 102 Q529 206 529 374 Q529 542 464 647 Q398 751 269 754 Q140 751 75 647 Q9 542 9 374 L9 374 ZM184 374 Q184 472 205 538 Q226 603 269 606 Q312 603 333 538 Q354 472 354 374 Q354 276 333 210 Q312 145 269 142 Q226 145 205 210 Q184 276 184 374 L184 374 Z" /><glyph glyph-name="" unicode="1" d="M91 148 L91 0 L490 0 L490 148 L399 148 L399 748 L290 748 L43 588 L88 480 L225 547 L225 148 L91 148 Z" /><glyph glyph-name="" unicode="2" d="M486 526 Q485 628 426 690 Q367 752 262 754 Q225 756 170 742 Q115 729 50 679 L103 556 Q153 591 183 599 Q214 607 243 606 Q273 606 292 583 Q311 560 312 516 Q302 397 206 286 Q110 175 51 129 L51 0 L480 0 L480 148 L250 148 L249 152 Q314 196 396 287 Q478 379 486 526 L486 526 Z" /><glyph glyph-name="" unicode="3" d="M179 325 L243 325 Q284 322 296 291 Q308 261 307 243 Q307 199 291 173 Q275 146 243 145 Q213 146 180 164 Q147 181 118 207 L57 69 Q109 30 157 12 Q206 -6 252 -6 Q362 -4 421 61 Q480 125 481 223 Q482 270 456 319 Q430 368 365 389 L365 393 Q420 425 441 469 Q463 512 462 563 Q460 655 400 704 Q340 754 252 754 Q207 754 158 736 Q109 718 63 679 L116 556 Q151 584 178 594 Q205 604 223 603 Q251 603 269 583 Q287 563 288 526 Q289 502 280 477 Q271 453 243 451 L179 451 L179 325 Z" /><glyph glyph-name="" unicode="4" d="M212 296 L211 299 L279 482 L282 480 L282 296 L212 296 ZM447 754 L292 754 L28 244 L34 148 L282 148 L282 0 L447 0 L447 148 L510 148 L510 296 L447 296 L447 754 Z" /><glyph glyph-name="" unicode="5" d="M116 748 L93 343 L203 343 Q253 343 284 318 Q315 293 316 242 Q316 199 295 173 Q274 146 233 145 Q204 146 171 164 Q137 181 108 207 L47 69 Q99 30 149 12 Q199 -6 243 -6 Q346 -3 416 69 Q487 141 490 252 Q488 371 431 431 Q373 491 290 491 L250 491 L253 600 L443 600 L443 748 L116 748 Z" /><glyph glyph-name="" unicode="6" d="M268 331 Q294 330 311 301 Q327 272 328 230 Q328 192 312 163 Q296 134 268 132 Q245 132 226 156 Q208 180 207 230 Q208 272 224 301 Q241 330 268 331 L268 331 ZM317 469 Q304 469 291 466 Q279 462 265 457 L262 461 Q314 555 360 627 Q407 699 445 748 L252 754 Q141 607 89 489 Q36 370 37 250 Q39 137 101 67 Q164 -4 268 -6 Q370 -3 432 63 Q495 130 497 230 Q496 338 449 403 Q401 467 317 469 L317 469 Z" /><glyph glyph-name="" unicode="7" d="M29 600 L310 600 L87 0 L274 -6 L510 671 L510 748 L29 748 L29 600 Z" /><glyph glyph-name="" unicode="8" d="M268 754 Q172 754 106 708 Q40 662 37 563 Q36 512 59 469 Q81 425 137 393 L137 389 Q72 368 46 319 Q19 270 20 223 Q19 125 78 61 Q136 -4 268 -6 Q400 -4 459 61 Q518 125 517 223 Q518 270 492 319 Q465 368 400 389 L400 393 Q457 425 479 469 Q501 512 500 563 Q497 662 431 708 Q365 754 268 754 L268 754 ZM268 145 Q225 146 209 173 Q192 199 193 243 Q191 261 200 291 Q210 322 261 325 L276 325 Q327 322 337 291 Q346 261 344 243 Q345 199 328 173 Q311 146 268 145 L268 145 ZM268 603 Q293 603 309 583 Q325 563 326 526 Q328 502 320 477 Q312 453 276 451 L262 451 Q225 453 217 477 Q209 502 211 526 Q211 563 227 583 Q243 603 268 603 L268 603 Z" /><glyph glyph-name="" unicode="9" d="M268 417 Q242 418 225 447 Q209 476 208 518 Q208 556 224 585 Q240 614 268 616 Q292 616 310 592 Q328 568 329 518 Q329 476 312 447 Q295 418 268 417 L268 417 ZM274 287 Q223 193 177 121 Q130 49 92 0 L284 -6 Q395 141 447 260 Q500 378 499 498 Q498 611 435 682 Q373 752 268 754 Q166 751 104 685 Q41 618 39 518 Q40 410 88 345 Q135 281 220 279 Q233 279 245 282 Q258 286 272 291 L274 287 Z" /><glyph glyph-name="" unicode=":" d="M43 91 Q44 50 68 22 Q92 -5 128 -6 Q164 -5 188 22 Q212 50 213 91 Q212 133 188 161 Q164 189 128 190 Q92 189 68 161 Q44 133 43 91 L43 91 ZM43 427 Q44 386 68 358 Q92 331 128 330 Q164 331 188 358 Q212 386 213 427 Q212 469 188 496 Q164 524 128 525 Q92 524 68 496 Q44 469 43 427 L43 427 Z" /><glyph glyph-name="" unicode=";" d="M47 427 Q48 386 72 358 Q96 331 132 330 Q169 331 193 358 Q216 386 217 427 Q216 469 193 496 Q169 524 132 525 Q96 524 72 496 Q48 469 47 427 L47 427 ZM48 91 Q49 54 70 25 Q91 -3 120 -5 L65 -139 L133 -164 Q170 -111 193 -42 Q216 27 217 91 Q216 133 193 161 Q169 189 132 190 Q96 189 72 161 Q49 133 48 91 L48 91 Z" /><glyph glyph-name="" unicode="&lt;" d="M468 211 L235 334 L235 338 L468 461 L468 597 L62 399 L62 273 L468 75 L468 211 Z" /><glyph glyph-name="" unicode="=" d="M42 381 L487 381 L487 507 L42 507 L42 381 ZM42 169 L487 169 L487 295 L42 295 L42 169 Z" /><glyph glyph-name="" unicode="&gt;" d="M62 75 L468 273 L468 399 L62 597 L62 461 L294 338 L294 334 L62 211 L62 75 Z" /><glyph glyph-name="" unicode="?" d="M134 234 L232 234 L250 332 Q306 365 343 423 Q381 481 382 568 Q379 666 326 710 Q273 755 203 754 Q157 754 114 740 Q71 725 29 692 L83 568 Q111 592 132 604 Q152 615 176 615 Q195 616 208 596 Q221 577 222 532 Q220 486 186 447 Q153 409 114 385 L134 234 ZM103 86 Q104 47 127 21 Q149 -5 183 -6 Q217 -5 240 21 Q262 47 263 86 Q262 125 240 151 Q217 177 183 178 Q149 177 127 151 Q104 125 103 86 L103 86 Z" /><glyph glyph-name="" unicode="@" d="M408 504 Q322 504 270 442 Q218 381 217 264 Q219 146 269 81 Q320 15 400 14 Q441 15 469 41 Q497 66 518 106 L522 106 Q537 60 570 37 Q602 14 638 14 Q701 14 748 76 Q795 138 797 262 Q793 501 689 602 Q585 703 429 700 Q272 701 169 594 Q65 488 61 262 Q63 36 162 -72 Q261 -180 429 -179 Q473 -179 516 -167 Q560 -156 594 -139 L565 -25 Q538 -41 502 -51 Q465 -61 429 -61 Q309 -62 239 18 Q169 97 167 262 Q170 426 244 505 Q318 583 429 582 Q540 584 614 511 Q688 438 691 262 Q690 198 678 165 Q665 132 647 132 Q633 131 615 147 Q596 163 594 208 L594 456 L507 456 Q485 479 461 492 Q437 504 408 504 L408 504 ZM400 142 Q380 142 366 173 Q353 205 352 264 Q353 326 371 352 Q388 377 408 376 Q421 376 435 364 Q449 352 459 330 L459 239 Q458 194 440 168 Q421 143 400 142 L400 142 Z" /><glyph glyph-name="" unicode="a" d="M202 118 L414 118 L451 -6 L627 0 L365 748 L249 748 L-13 0 L165 -6 L202 118 ZM247 262 L305 499 L309 499 L368 262 L247 262 Z" /><glyph glyph-name="" unicode="b" d="M213 460 L213 600 L305 600 Q309 601 324 585 Q339 570 341 530 Q341 495 329 478 Q318 460 300 460 L213 460 ZM298 316 Q329 316 348 294 Q367 272 368 232 Q369 204 357 177 Q344 150 302 148 L213 148 L213 316 L298 316 ZM515 555 Q515 638 468 692 Q421 746 329 748 L40 748 L40 0 L329 0 Q433 1 487 59 Q542 116 542 211 Q541 277 507 325 Q474 372 423 388 L423 392 Q472 420 494 465 Q515 509 515 555 L515 555 Z" /><glyph glyph-name="" unicode="c" d="M544 679 Q498 714 449 734 Q399 754 341 754 Q184 750 105 643 Q26 536 26 374 Q26 212 105 105 Q184 -2 341 -6 Q399 -6 449 14 Q498 34 544 69 L476 220 Q445 188 412 171 Q380 154 341 154 Q272 156 236 219 Q200 281 200 374 Q200 468 236 530 Q272 592 341 594 Q380 594 412 577 Q445 560 476 528 L544 679 Z" /><glyph glyph-name="" unicode="d" d="M267 0 Q414 4 488 108 Q561 213 561 374 Q561 535 488 640 Q414 744 267 748 L42 748 L42 0 L267 0 ZM216 148 L216 600 L248 600 Q316 599 352 541 Q387 482 387 374 Q387 267 351 208 Q316 149 248 148 L216 148 Z" /><glyph glyph-name="" unicode="e" d="M497 600 L497 748 L40 748 L40 0 L497 0 L497 148 L213 148 L213 316 L463 316 L463 460 L213 460 L213 600 L497 600 Z" /><glyph glyph-name="" unicode="f" d="M468 600 L468 748 L40 748 L40 0 L213 0 L213 286 L434 286 L434 430 L213 430 L213 600 L468 600 Z" /><glyph glyph-name="" unicode="g" d="M566 430 L331 430 L331 286 L412 286 L412 183 Q395 168 378 162 Q361 156 342 156 Q273 158 237 220 Q200 281 200 374 Q200 468 236 530 Q272 592 341 594 Q385 594 423 577 Q460 560 496 528 L563 679 Q513 714 459 734 Q405 754 341 754 Q184 750 105 643 Q26 536 26 374 Q26 212 105 105 Q184 -2 342 -6 Q401 -5 458 19 Q515 44 566 86 L566 430 Z" /><glyph glyph-name="" unicode="h" d="M213 0 L213 316 L416 316 L416 0 L590 0 L590 748 L416 748 L416 460 L213 460 L213 748 L40 748 L40 0 L213 0 Z" /><glyph glyph-name="" unicode="i" d="M213 0 L213 748 L40 748 L40 0 L213 0 Z" /><glyph glyph-name="" unicode="j" d="M4 38 Q35 18 69 6 Q104 -6 142 -6 Q242 -7 302 61 Q362 130 363 284 L363 748 L189 748 L189 269 Q189 210 176 183 Q163 157 142 157 Q124 157 107 164 Q90 171 71 189 L4 38 Z" /><glyph glyph-name="" unicode="k" d="M213 748 L40 748 L40 0 L213 0 L213 299 L265 299 L404 -6 L596 0 L403 371 L562 748 L374 754 L264 443 L213 443 L213 748 Z" /><glyph glyph-name="" unicode="l" d="M213 148 L213 748 L40 748 L40 0 L452 0 L452 148 L213 148 Z" /><glyph glyph-name="" unicode="m" d="M391 128 L495 387 L498 386 L498 -1 L672 -1 L672 748 L538 748 L356 334 L173 748 L40 748 L40 -1 L213 -1 L213 385 L217 387 L319 128 L391 128 Z" /><glyph glyph-name="" unicode="n" d="M483 0 L590 0 L590 748 L416 748 L416 321 L413 319 L143 748 L40 748 L40 0 L213 0 L213 420 L217 422 L483 0 Z" /><glyph glyph-name="" unicode="o" d="M326 754 Q180 751 103 647 Q27 542 26 374 Q27 206 103 102 Q180 -3 326 -6 Q473 -3 550 102 Q626 206 627 374 Q626 542 550 647 Q473 751 326 754 L326 754 ZM326 596 Q390 593 421 529 Q452 465 452 374 Q452 283 421 219 Q390 155 326 152 Q263 155 232 219 Q201 283 201 374 Q201 465 232 529 Q263 593 326 596 L326 596 Z" /><glyph glyph-name="" unicode="p" d="M40 748 L40 0 L213 0 L213 226 L297 226 Q399 229 468 303 Q536 377 539 490 Q536 603 468 675 Q399 746 297 748 L40 748 ZM277 600 Q315 599 340 570 Q364 540 365 490 Q364 442 340 412 Q315 381 277 380 L213 380 L213 600 L277 600 Z" /><glyph glyph-name="" unicode="q" d="M201 374 Q201 465 232 529 Q263 593 326 596 Q389 593 421 529 Q452 465 452 374 Q454 283 428 213 Q401 144 316 140 Q267 160 235 219 Q202 277 201 374 L201 374 ZM26 374 Q28 237 70 156 Q111 75 162 39 Q267 -38 364 -91 Q462 -144 567 -207 L648 -65 Q610 -43 558 -18 Q506 6 477 23 L477 27 Q549 71 588 158 Q627 244 627 374 Q626 542 550 647 Q473 751 326 754 Q180 751 103 647 Q27 542 26 374 L26 374 Z" /><glyph glyph-name="" unicode="r" d="M42 748 L42 0 L216 0 L216 282 L249 282 L374 -6 L567 0 L418 299 Q469 327 501 379 Q533 432 534 511 Q532 624 476 686 Q421 747 339 748 L42 748 ZM310 600 Q330 600 344 576 Q359 552 360 511 Q359 478 345 453 Q330 427 311 426 L216 426 L216 600 L310 600 Z" /><glyph glyph-name="" unicode="s" d="M25 79 Q74 40 125 17 Q177 -6 239 -6 Q354 -6 416 52 Q477 109 478 222 Q461 385 342 436 Q222 487 205 550 Q205 570 218 583 Q231 597 254 597 Q289 596 328 576 Q367 556 403 523 L470 669 Q423 708 373 731 Q323 754 263 754 Q145 752 88 692 Q31 632 31 540 Q48 364 168 317 Q287 269 304 207 Q303 177 288 162 Q272 147 249 147 Q213 148 170 170 Q128 192 93 225 L25 79 Z" /><glyph glyph-name="" unicode="t" d="M480 748 L5 748 L5 600 L155 600 L155 0 L329 0 L329 600 L480 600 L480 748 Z" /><glyph glyph-name="" unicode="u" d="M398 748 L398 322 Q398 244 375 193 Q351 143 307 141 Q263 143 239 193 Q216 244 216 322 L216 748 L42 748 L42 322 Q42 177 109 86 Q176 -4 307 -7 Q439 -4 506 86 Q572 177 572 322 L572 748 L398 748 Z" /><glyph glyph-name="" unicode="v" d="M281 249 L167 754 L-12 744 L215 0 L351 0 L578 744 L403 754 L284 249 L281 249 Z" /><glyph glyph-name="" unicode="w" d="M382 748 L254 249 L251 249 L167 754 L-12 744 L185 0 L321 0 L411 358 L414 358 L504 0 L641 0 L837 744 L662 754 L574 249 L571 249 L446 748 L382 748 Z" /><glyph glyph-name="" unicode="x" d="M-16 0 L180 -6 L287 259 L395 -6 L591 0 L380 395 L564 748 L369 754 L287 532 L206 754 L11 748 L194 395 L-16 0 Z" /><glyph glyph-name="" unicode="y" d="M-13 748 L180 279 L180 0 L354 0 L354 284 L547 748 L342 754 L269 437 L265 437 L192 754 L-13 748 Z" /><glyph glyph-name="" unicode="z" d="M521 748 L46 748 L46 600 L281 600 L17 63 L17 0 L513 0 L513 148 L258 148 L521 685 L521 748 Z" /><glyph glyph-name="" unicode="[" d="M255 -27 L151 -27 L151 688 L253 688 L253 806 L37 806 L37 -145 L255 -145 L255 -27 Z" /><glyph glyph-name="" unicode="\" d="M0 806 L277 -204 L395 -204 L117 806 L0 806 Z" /><glyph glyph-name="" unicode="]" d="M11 -145 L230 -145 L230 806 L13 806 L13 688 L116 688 L116 -27 L11 -27 L11 -145 Z" /><glyph glyph-name="" unicode="^" d="M62 296 L190 296 L307 621 L421 296 L550 296 L373 748 L240 748 L62 296 Z" /><glyph glyph-name="" unicode="_" d="M400 -126 L400 -60 L0 -60 L0 -126 L400 -126 Z" /><glyph glyph-name="" unicode="`" d="M165 748 L0 748 L97 585 L229 585 L165 748 Z" /><glyph glyph-name="" unicode="a" d="M447 0 L447 302 Q446 414 389 469 Q333 525 236 525 Q188 525 145 513 Q102 500 60 474 L106 361 Q139 380 162 388 Q186 397 217 397 Q247 398 265 377 Q283 355 283 302 Q268 309 245 312 Q222 315 211 315 Q90 310 57 256 Q25 202 29 159 Q30 85 71 40 Q112 -5 179 -6 Q213 -6 241 12 Q269 30 291 62 L294 61 L314 0 L447 0 ZM239 117 Q217 117 206 132 Q195 147 195 174 Q195 197 206 214 Q216 230 240 231 Q256 231 264 228 Q272 224 283 217 Q282 160 266 138 Q251 116 239 117 L239 117 Z" /><glyph glyph-name="" unicode="b" d="M159 32 Q182 16 212 5 Q241 -6 282 -6 Q375 -5 434 64 Q492 133 494 259 Q493 385 437 455 Q380 524 283 525 Q260 525 243 517 Q226 508 206 491 L204 492 L204 795 L41 795 L41 32 L159 32 ZM331 259 Q330 201 312 172 Q293 142 265 142 Q247 142 233 151 Q218 160 204 173 L204 351 Q218 364 231 370 Q245 377 265 377 Q292 377 311 347 Q330 317 331 259 L331 259 Z" /><glyph glyph-name="" unicode="c" d="M424 474 Q392 500 355 512 Q318 525 251 525 Q147 524 87 455 Q27 385 26 259 Q27 133 87 64 Q147 -5 251 -6 Q318 -6 355 7 Q392 20 424 45 L363 177 Q339 158 314 146 Q288 133 250 132 Q224 132 207 164 Q189 196 188 259 Q189 322 207 355 Q224 387 250 387 Q288 386 314 374 Q339 361 363 342 L424 474 Z" /><glyph glyph-name="" unicode="d" d="M26 259 Q28 133 81 64 Q133 -5 208 -6 Q247 -5 274 14 Q301 33 323 62 L326 61 L345 0 L479 0 L479 795 L316 795 L316 492 L314 491 Q294 508 277 517 Q260 525 237 525 Q140 524 84 455 Q27 385 26 259 L26 259 ZM255 142 Q227 142 208 172 Q189 201 188 259 Q189 317 208 347 Q228 377 255 377 Q276 377 289 370 Q303 364 316 351 L316 203 Q308 178 292 161 Q276 143 255 142 L255 142 Z" /><glyph glyph-name="" unicode="e" d="M457 259 Q457 385 405 455 Q352 524 245 525 Q143 524 85 455 Q27 385 26 259 Q27 133 90 64 Q153 -5 262 -6 Q313 -6 357 7 Q402 20 437 45 L392 158 Q363 140 328 131 Q293 122 261 122 Q231 121 214 139 Q198 157 191 208 L451 208 L457 259 ZM247 407 Q276 407 289 383 Q301 359 301 312 L193 312 Q196 359 208 383 Q221 407 247 407 L247 407 Z" /><glyph glyph-name="" unicode="f" d="M242 795 Q189 798 132 753 Q76 708 71 578 L71 519 L3 519 L3 399 L71 399 L71 0 L233 0 L233 399 L310 399 L310 519 L233 519 L233 565 Q235 622 255 636 Q274 650 291 648 Q294 648 309 644 Q324 641 344 631 L377 755 Q333 778 302 787 Q270 795 242 795 L242 795 Z" /><glyph glyph-name="" unicode="g" d="M243 525 Q138 524 92 476 Q45 429 46 350 Q46 307 59 276 Q72 245 95 224 Q78 209 68 188 Q57 166 57 140 Q57 120 63 102 Q69 83 81 69 Q59 50 44 20 Q30 -10 29 -48 Q27 -123 77 -168 Q127 -213 253 -214 Q376 -213 431 -166 Q487 -118 486 -40 Q487 25 446 71 Q405 117 309 127 L212 137 Q198 139 190 146 Q183 152 183 163 Q183 172 186 178 Q189 184 191 186 Q200 183 213 181 Q226 178 243 178 Q340 178 389 222 Q438 265 438 350 Q438 376 434 400 Q429 424 421 444 Q423 427 425 409 Q426 391 428 374 Q460 375 487 385 Q513 395 533 408 L498 519 Q480 506 464 499 Q448 492 430 492 Q378 494 345 509 Q312 523 243 525 L243 525 ZM297 5 Q306 2 314 -6 Q321 -15 322 -35 Q322 -58 304 -70 Q286 -82 253 -82 Q219 -82 201 -68 Q183 -54 183 -28 Q183 -17 184 -3 Q184 12 187 22 L297 5 ZM242 407 Q256 407 264 403 Q273 399 279 394 Q281 385 283 373 Q284 360 284 348 Q284 324 274 310 Q263 296 243 296 Q222 296 212 310 Q201 324 201 348 Q201 373 210 390 Q219 406 242 407 L242 407 Z" /><glyph glyph-name="" unicode="h" d="M204 0 L204 318 Q213 343 230 361 Q247 378 273 379 Q293 380 307 362 Q320 343 321 289 L321 0 L483 0 L483 279 Q481 426 435 477 Q390 528 331 525 Q291 525 261 507 Q232 489 208 457 L204 458 L204 795 L42 795 L42 0 L204 0 Z" /><glyph glyph-name="" unicode="i" d="M42 674 Q43 632 68 604 Q92 576 130 575 Q167 576 192 604 Q217 632 218 674 Q217 716 192 744 Q167 773 130 774 Q92 773 68 744 Q43 716 42 674 L42 674 ZM211 0 L211 519 L49 519 L49 0 L211 0 Z" /><glyph glyph-name="" unicode="j" d="M250 519 L87 519 L87 16 Q87 -24 64 -47 Q41 -71 -8 -72 L15 -206 Q28 -210 41 -212 Q54 -214 61 -214 Q141 -214 195 -158 Q248 -101 250 12 L250 519 ZM81 674 Q82 632 107 604 Q131 576 169 575 Q205 576 231 604 Q256 632 257 674 Q256 716 231 744 Q205 773 169 774 Q131 773 107 744 Q82 716 81 674 L81 674 Z" /><glyph glyph-name="" unicode="k" d="M507 0 L365 274 L479 519 L292 525 L222 326 L204 326 L204 795 L42 795 L42 0 L204 0 L204 220 L224 220 L315 -6 L507 0 Z" /><glyph glyph-name="" unicode="l" d="M266 134 Q227 135 216 159 Q205 182 206 222 L206 795 L44 795 L44 218 Q43 105 80 48 Q117 -8 197 -8 Q204 -8 217 -6 Q230 -4 243 0 L266 134 Z" /><glyph glyph-name="" unicode="m" d="M204 0 L204 318 Q211 343 223 361 Q236 378 257 379 Q277 380 291 362 Q304 343 305 289 L305 0 L467 0 L467 318 Q474 343 486 361 Q499 378 520 379 Q540 380 554 362 Q567 343 568 289 L568 0 L730 0 L730 279 Q728 426 682 477 Q637 528 578 525 Q545 525 509 504 Q473 483 440 435 Q418 487 385 506 Q352 526 315 525 Q279 525 249 507 Q219 489 198 457 L195 458 L175 519 L42 519 L42 0 L204 0 Z" /><glyph glyph-name="" unicode="n" d="M204 0 L204 318 Q213 343 230 361 Q247 378 273 379 Q293 380 307 362 Q320 343 321 289 L321 0 L483 0 L483 279 Q481 426 435 477 Q390 528 331 525 Q290 525 256 507 Q222 489 198 457 L195 458 L175 519 L42 519 L42 0 L204 0 Z" /><glyph glyph-name="" unicode="o" d="M253 525 Q151 524 89 456 Q28 388 26 259 Q28 134 89 65 Q151 -5 253 -6 Q354 -5 416 65 Q477 134 479 259 Q477 388 416 456 Q354 524 253 525 L253 525 ZM253 388 Q281 387 299 353 Q316 319 317 259 Q316 200 299 166 Q281 132 253 131 Q224 132 206 166 Q189 200 188 259 Q189 319 206 353 Q224 387 253 388 L253 388 Z" /><glyph glyph-name="" unicode="p" d="M42 519 L42 -208 L204 -208 L204 27 L207 28 Q227 11 244 2 Q261 -6 284 -6 Q381 -5 438 64 Q494 134 495 260 Q493 386 440 455 Q388 524 312 525 Q274 524 247 505 Q220 486 198 457 L195 458 L175 519 L42 519 ZM332 260 Q331 202 312 172 Q293 142 266 142 Q245 142 231 149 Q218 155 204 168 L204 316 Q212 341 228 359 Q244 376 266 377 Q294 377 313 347 Q331 318 332 260 L332 260 Z" /><glyph glyph-name="" unicode="q" d="M361 487 Q338 503 309 514 Q279 525 238 525 Q145 524 86 455 Q28 386 26 260 Q27 134 84 64 Q140 -5 237 -6 Q260 -6 277 2 Q294 11 314 28 L316 27 L316 -208 L479 -208 L479 487 L361 487 ZM188 260 Q189 318 208 347 Q227 377 255 377 Q272 377 287 368 Q302 359 316 346 L316 168 Q302 155 289 149 Q275 142 255 142 Q228 142 208 172 Q189 202 188 260 L188 260 Z" /><glyph glyph-name="" unicode="r" d="M366 510 Q352 518 335 522 Q317 525 302 525 Q269 524 242 505 Q215 486 198 457 L195 458 L175 519 L42 519 L42 0 L204 0 L204 308 Q213 333 230 351 Q247 368 273 369 Q288 369 304 366 Q319 363 332 354 L366 510 Z" /><glyph glyph-name="" unicode="s" d="M192 161 Q192 145 182 139 Q173 132 153 132 Q146 131 125 136 Q103 140 64 158 L19 45 Q58 18 95 6 Q132 -6 166 -6 Q248 -6 295 38 Q342 82 343 166 Q333 285 259 315 Q186 346 175 368 Q176 385 189 389 Q202 393 213 392 Q216 392 238 386 Q261 380 290 362 L336 480 Q299 507 265 516 Q231 526 199 525 Q109 523 69 475 Q29 428 30 365 Q40 247 111 218 Q182 190 192 161 L192 161 Z" /><glyph glyph-name="" unicode="t" d="M311 158 Q297 147 288 144 Q279 141 266 141 Q251 140 236 158 Q221 176 220 224 L220 399 L324 399 L324 519 L220 519 L220 668 L106 668 L58 519 L-7 519 L-7 399 L58 399 L58 211 Q62 81 113 36 Q164 -9 217 -6 Q246 -6 276 2 Q305 11 344 34 L311 158 Z" /><glyph glyph-name="" unicode="u" d="M326 519 L326 201 Q317 176 301 159 Q284 141 258 140 Q237 139 223 157 Q210 176 209 230 L209 519 L47 519 L47 240 Q49 93 95 42 Q141 -9 200 -6 Q241 -6 274 12 Q308 30 332 62 L336 61 L355 0 L488 0 L488 519 L326 519 Z" /><glyph glyph-name="" unicode="v" d="M246 219 L243 219 L174 525 L-3 519 L173 0 L316 0 L492 519 L315 525 L246 219 Z" /><glyph glyph-name="" unicode="w" d="M487 219 L484 219 L400 519 L314 519 L230 219 L227 219 L174 525 L-3 519 L148 0 L280 0 L355 241 L359 241 L424 0 L566 0 L717 519 L540 525 L487 219 Z" /><glyph glyph-name="" unicode="x" d="M206 525 L17 519 L152 277 L-5 0 L185 -6 L253 164 L321 -6 L511 0 L353 277 L489 519 L300 525 L253 393 L206 525 Z" /><glyph glyph-name="" unicode="y" d="M86 -208 L243 -214 L491 519 L314 525 L246 219 L243 219 L176 525 L-2 519 L165 30 L86 -208 Z" /><glyph glyph-name="" unicode="z" d="M417 431 L417 519 L39 519 L39 383 L201 383 L32 88 L32 0 L415 0 L415 136 L258 136 L417 431 Z" /><glyph glyph-name="" unicode="{" d="M141 327 Q159 337 179 374 Q199 410 201 473 L201 651 Q201 668 206 678 Q211 688 221 688 L271 688 L271 806 L218 806 Q157 805 122 762 Q88 719 87 643 L87 519 Q88 462 75 424 Q61 385 24 372 L24 283 Q61 270 75 231 Q88 193 87 136 L87 12 Q88 -64 122 -107 Q157 -150 218 -151 L271 -151 L271 -33 L219 -33 Q210 -33 206 -23 Q201 -13 201 4 L201 182 Q199 245 179 281 Q159 317 141 327 L141 327 Z" /><glyph glyph-name="" unicode="|" d="M144 -154 L144 806 L30 806 L30 -154 L144 -154 Z" /><glyph glyph-name="" unicode="}" d="M141 327 Q123 317 103 281 Q83 245 81 182 L81 4 Q81 -13 77 -23 Q72 -33 63 -33 L11 -33 L11 -151 L65 -151 Q126 -150 160 -107 Q194 -64 195 12 L195 136 Q194 193 207 231 Q221 270 258 283 L258 372 Q221 385 207 424 Q194 462 195 519 L195 643 Q194 719 160 762 Q126 805 65 806 L11 806 L11 688 L62 688 Q72 688 76 678 Q81 668 81 651 L81 473 Q83 410 103 374 Q123 337 141 327 L141 327 Z" /><glyph glyph-name="" unicode="~" d="M176 377 Q155 379 134 394 Q114 409 110 417 L55 309 Q92 278 118 264 Q144 251 178 251 Q234 254 271 275 Q308 295 340 298 Q363 296 387 280 Q412 263 417 255 L474 362 Q437 393 408 409 Q379 424 338 424 Q280 421 245 401 Q209 380 176 377 L176 377 Z" /><glyph glyph-name="" unicode=" " d="" /><glyph glyph-name="" unicode="¡" d="M65 448 Q66 409 89 383 Q111 357 145 356 Q180 357 202 383 Q224 409 225 448 Q224 487 202 513 Q180 539 145 540 Q111 539 89 513 Q66 487 65 448 L65 448 ZM96 300 L73 -214 L217 -214 L195 300 L96 300 Z" /><glyph glyph-name="" unicode="¢" d="M348 -38 L348 111 Q389 116 416 129 Q443 142 468 160 L407 292 Q383 273 358 261 Q332 248 294 247 Q268 247 251 279 Q233 311 232 374 Q233 437 251 470 Q268 502 294 502 Q332 501 358 489 Q383 476 407 457 L468 589 Q442 607 415 620 Q388 632 348 637 L348 787 L232 787 L232 634 Q156 615 113 549 Q71 482 70 374 Q71 266 113 200 Q156 133 232 115 L232 -38 L348 -38 Z" /><glyph glyph-name="" unicode="£" d="M284 414 L284 465 Q286 563 308 587 Q330 610 352 606 Q364 606 389 597 Q414 588 446 569 L489 703 Q455 729 408 741 Q361 754 317 754 Q227 754 170 692 Q112 629 110 503 L110 414 L47 414 L47 312 L110 312 L110 148 L48 148 L48 0 L445 0 L445 148 L284 148 L284 312 L405 312 L421 414 L284 414 Z" /><glyph glyph-name="" unicode="¥" d="M356 0 L356 246 L433 246 L454 334 L376 334 L395 406 L467 406 L487 494 L426 494 L505 748 L319 754 L271 464 L267 464 L219 754 L33 748 L112 494 L43 494 L64 406 L143 406 L162 334 L77 334 L97 246 L182 246 L182 0 L356 0 Z" /><glyph glyph-name="" unicode="§" d="M474 282 Q458 429 348 468 Q238 507 222 571 Q224 603 245 614 Q266 625 284 624 Q301 624 327 615 Q352 606 378 583 L432 696 Q389 727 353 740 Q317 754 284 754 Q221 756 157 715 Q92 674 87 568 Q87 516 94 480 Q70 453 54 417 Q39 381 38 336 Q54 189 165 150 Q275 111 291 47 Q289 15 268 4 Q247 -7 229 -6 Q211 -6 185 3 Q160 12 134 35 L80 -78 Q123 -109 159 -122 Q196 -136 229 -136 Q292 -138 356 -97 Q421 -56 426 50 Q426 76 424 98 Q422 119 417 137 Q442 164 458 201 Q473 237 474 282 L474 282 ZM339 265 Q339 240 335 222 Q278 258 227 282 Q176 307 173 353 Q173 365 174 376 Q175 387 176 395 Q234 360 285 335 Q336 311 339 265 L339 265 Z" /><glyph glyph-name="" unicode="¨" d="M-4 672 Q-3 636 17 612 Q38 587 69 586 Q102 587 122 611 Q142 635 143 672 Q142 709 120 731 Q98 753 67 754 Q38 753 17 729 Q-3 705 -4 672 L-4 672 ZM185 672 Q186 636 206 612 Q227 587 258 586 Q291 587 312 611 Q332 635 333 672 Q332 709 310 731 Q287 753 256 754 Q227 753 206 729 Q186 705 185 672 L185 672 Z" /><glyph glyph-name="" unicode="©" d="M426 281 Q404 266 385 261 Q365 255 352 255 Q316 256 296 288 Q276 320 276 375 Q277 428 298 461 Q319 493 352 494 Q370 494 389 489 Q408 484 422 475 L461 555 Q438 569 408 576 Q379 584 352 584 Q280 584 234 530 Q189 476 187 375 Q188 272 231 219 Q274 165 352 165 Q373 165 403 173 Q432 181 466 202 L426 281 ZM50 374 Q52 212 135 105 Q218 -2 354 -6 Q490 -2 573 105 Q656 212 658 374 Q656 536 573 643 Q490 750 354 754 Q218 750 135 643 Q52 536 50 374 L50 374 ZM120 374 Q122 502 185 589 Q248 676 354 679 Q460 676 523 589 Q585 502 587 374 Q585 246 523 159 Q460 73 354 69 Q248 73 185 159 Q122 246 120 374 L120 374 Z" /><glyph glyph-name="" unicode="ª" d="M198 428 L291 428 L291 615 Q290 686 253 720 Q216 754 154 754 Q125 754 97 747 Q70 740 42 722 L76 649 Q98 661 113 665 Q127 669 137 669 Q147 670 159 659 Q170 648 171 616 Q159 620 151 621 Q143 623 134 623 Q59 620 39 587 Q19 553 22 527 Q23 481 47 453 Q72 425 111 424 Q136 424 152 434 Q168 444 179 459 L183 459 L198 428 ZM171 559 Q171 526 168 515 Q164 503 155 504 Q148 504 141 512 Q134 520 134 534 Q134 548 140 557 Q145 565 154 565 Q159 565 163 563 Q167 561 171 559 L171 559 Z" /><glyph glyph-name="" unicode="«" d="M175 598 L46 367 L46 359 L175 130 L257 191 L168 364 L257 537 L175 598 ZM373 598 L244 367 L244 359 L373 130 L455 191 L366 364 L455 537 L373 598 Z" /><glyph glyph-name="" unicode="¬" d="M373 171 L487 171 L487 508 L42 508 L42 382 L373 382 L373 171 Z" /><glyph glyph-name="" unicode="®" d="M231 588 L231 175 L319 175 L319 329 L349 329 L398 171 L494 176 L429 348 Q458 365 472 394 Q487 422 487 458 Q488 502 459 544 Q431 585 367 588 L231 588 ZM319 500 L362 500 Q381 499 390 485 Q400 471 400 452 Q400 432 390 416 Q379 401 362 400 L319 400 L319 500 ZM50 374 Q53 212 139 105 Q225 -2 354 -6 Q483 -2 569 105 Q655 212 658 374 Q655 536 569 643 Q483 750 354 754 Q225 750 139 643 Q53 536 50 374 L50 374 ZM120 374 Q122 502 185 591 Q248 680 354 684 Q460 680 523 591 Q585 502 587 374 Q585 246 523 157 Q460 68 354 64 Q248 68 185 157 Q122 246 120 374 L120 374 Z" /><glyph glyph-name="" unicode="¯" d="M8 714 L8 618 L298 618 L298 714 L8 714 Z" /><glyph glyph-name="" unicode="°" d="M21 576 Q22 503 59 454 Q96 406 163 404 Q230 406 268 454 Q305 503 306 576 Q305 649 268 698 Q230 746 163 748 Q96 746 59 698 Q22 649 21 576 L21 576 ZM95 576 Q95 614 111 641 Q128 668 163 669 Q199 668 216 641 Q232 614 232 576 Q232 538 216 511 Q199 484 163 483 Q128 484 111 511 Q95 538 95 576 L95 576 Z" /><glyph glyph-name="" unicode="±" d="M42 358 L208 358 L208 230 L322 230 L322 358 L487 358 L487 484 L322 484 L322 612 L208 612 L208 484 L42 484 L42 358 ZM42 190 L42 64 L487 64 L487 190 L42 190 Z" /><glyph glyph-name="" unicode="´" d="M11 585 L143 585 L241 748 L75 748 L11 585 Z" /><glyph glyph-name="" unicode="µ" d="M195 -208 L195 -5 L194 -5 Q193 -6 190 -6 Q187 -6 185 -6 Q226 -6 259 12 Q293 30 318 62 L321 61 L340 0 L474 0 L474 519 L311 519 L311 201 Q303 176 286 159 Q269 141 243 140 Q223 139 209 157 Q196 176 195 230 L195 519 L32 519 L32 -208 L195 -208 Z" /><glyph glyph-name="" unicode="¶" d="M283 -208 L397 -208 L397 600 L462 600 L462 -208 L576 -208 L576 748 L284 748 Q176 745 105 660 Q33 575 30 447 Q33 319 104 234 Q176 149 283 146 L283 -208 Z" /><glyph glyph-name="" unicode="·" d="M185 379 Q184 416 163 441 Q141 466 110 467 Q78 466 56 441 Q34 416 33 379 Q34 343 56 318 Q78 293 110 292 Q141 293 163 318 Q184 343 185 379 L185 379 Z" /><glyph glyph-name="" unicode="¸" d="M126 60 L5 -124 L116 -203 L216 0 L126 60 Z" /><glyph glyph-name="" unicode="º" d="M164 754 Q101 754 62 712 Q23 670 22 589 Q23 512 62 468 Q101 425 164 424 Q228 425 267 468 Q305 512 306 589 Q305 670 267 712 Q228 754 164 754 L164 754 ZM164 662 Q178 661 186 641 Q193 620 193 589 Q193 558 186 538 Q178 517 164 516 Q150 517 142 538 Q135 558 135 589 Q135 620 142 641 Q150 661 164 662 L164 662 Z" /><glyph glyph-name="" unicode="»" d="M54 537 L143 364 L54 191 L137 130 L265 359 L265 367 L137 598 L54 537 ZM252 537 L341 364 L252 191 L335 130 L463 359 L463 367 L335 598 L252 537 Z" /><glyph glyph-name="" unicode="¿" d="M268 306 L170 306 L152 208 Q97 175 60 117 Q23 59 21 -28 Q24 -126 77 -170 Q130 -215 200 -214 Q245 -214 288 -199 Q331 -185 374 -152 L319 -28 Q291 -52 272 -63 Q252 -75 228 -75 Q209 -76 195 -56 Q181 -37 180 8 Q182 54 216 93 Q250 131 288 155 L268 306 ZM299 454 Q298 493 276 519 Q254 545 219 546 Q185 545 163 519 Q140 493 139 454 Q140 415 163 389 Q185 363 219 362 Q254 363 276 389 Q298 415 299 454 L299 454 Z" /><glyph glyph-name="" unicode="à" d="M202 118 L414 118 L451 -6 L627 0 L365 748 L249 748 L-13 0 L165 -6 L202 118 ZM247 262 L305 499 L309 499 L368 262 L247 262 ZM358 959 L193 959 L290 796 L422 796 L358 959 Z" /><glyph glyph-name="" unicode="á" d="M202 118 L414 118 L451 -6 L627 0 L365 748 L249 748 L-13 0 L165 -6 L202 118 ZM247 262 L305 499 L309 499 L368 262 L247 262 ZM202 796 L334 796 L432 959 L266 959 L202 796 Z" /><glyph glyph-name="" unicode="â" d="M202 118 L414 118 L451 -6 L627 0 L365 748 L249 748 L-13 0 L165 -6 L202 118 ZM247 262 L305 499 L309 499 L368 262 L247 262 ZM370 959 L243 959 L160 796 L263 796 L307 866 L350 796 L453 796 L370 959 Z" /><glyph glyph-name="" unicode="ã" d="M202 118 L414 118 L451 -6 L627 0 L365 748 L249 748 L-13 0 L165 -6 L202 118 ZM247 262 L305 499 L309 499 L368 262 L247 262 ZM442 908 Q420 936 399 944 Q379 953 368 952 Q322 950 299 935 Q276 919 250 917 Q242 917 228 921 Q213 926 193 942 L171 842 Q195 814 216 806 Q237 797 247 798 Q282 800 312 816 Q342 831 365 833 Q373 834 387 829 Q401 824 420 808 L442 908 Z" /><glyph glyph-name="" unicode="ä" d="M202 118 L414 118 L451 -6 L627 0 L365 748 L249 748 L-13 0 L165 -6 L202 118 ZM247 262 L305 499 L309 499 L368 262 L247 262 ZM139 881 Q140 845 160 821 Q181 796 212 795 Q245 796 265 820 Q285 844 286 881 Q285 918 263 940 Q241 962 210 963 Q181 962 160 938 Q140 914 139 881 L139 881 ZM328 881 Q329 845 349 821 Q370 796 401 795 Q434 796 455 820 Q475 844 476 881 Q475 918 453 940 Q430 962 399 963 Q370 962 349 938 Q329 914 328 881 L328 881 Z" /><glyph glyph-name="" unicode="å" d="M202 118 L414 118 L451 -6 L627 0 L365 748 L249 748 L-13 0 L165 -6 L202 118 ZM247 262 L305 499 L309 499 L368 262 L247 262 ZM214 890 Q215 843 239 812 Q264 780 306 779 Q349 780 374 812 Q398 843 399 890 Q398 937 374 968 Q349 1000 306 1001 Q264 1000 239 968 Q215 937 214 890 L214 890 ZM266 890 Q266 915 276 933 Q286 950 306 951 Q327 950 337 933 Q347 915 347 890 Q347 865 337 847 Q327 830 306 829 Q286 830 276 847 Q266 865 266 890 L266 890 Z" /><glyph glyph-name="" unicode="æ" d="M202 118 L374 118 L374 0 L807 0 L807 148 L548 148 L548 316 L774 316 L774 460 L548 460 L548 600 L807 600 L807 748 L249 748 L-13 4 L165 -6 L202 118 ZM247 262 L337 600 L374 600 L374 262 L247 262 Z" /><glyph glyph-name="" unicode="ç" d="M544 679 Q498 714 449 734 Q399 754 341 754 Q184 750 105 643 Q26 536 26 374 Q26 231 87 129 Q148 26 269 0 L190 -124 L302 -203 L401 -2 Q440 5 474 23 Q509 42 544 69 L476 220 Q445 188 412 171 Q380 154 341 154 Q272 156 236 219 Q200 281 200 374 Q200 468 236 530 Q272 592 341 594 Q380 594 412 577 Q445 560 476 528 L544 679 Z" /><glyph glyph-name="" unicode="è" d="M497 600 L497 748 L40 748 L40 0 L497 0 L497 148 L213 148 L213 316 L463 316 L463 460 L213 460 L213 600 L497 600 ZM309 959 L144 959 L241 796 L373 796 L309 959 Z" /><glyph glyph-name="" unicode="é" d="M497 600 L497 748 L40 748 L40 0 L497 0 L497 148 L213 148 L213 316 L463 316 L463 460 L213 460 L213 600 L497 600 ZM202 795 L334 795 L432 958 L266 958 L202 795 Z" /><glyph glyph-name="" unicode="ê" d="M497 600 L497 748 L40 748 L40 0 L497 0 L497 148 L213 148 L213 316 L463 316 L463 460 L213 460 L213 600 L497 600 ZM340 959 L213 959 L130 796 L233 796 L277 866 L320 796 L423 796 L340 959 Z" /><glyph glyph-name="" unicode="ë" d="M497 600 L497 748 L40 748 L40 0 L497 0 L497 148 L213 148 L213 316 L463 316 L463 460 L213 460 L213 600 L497 600 ZM120 881 Q121 845 141 821 Q162 796 193 795 Q226 796 246 820 Q266 844 267 881 Q266 918 244 940 Q222 962 191 963 Q162 962 141 938 Q121 914 120 881 L120 881 ZM309 881 Q310 845 330 821 Q351 796 382 795 Q415 796 436 820 Q456 844 457 881 Q456 918 434 940 Q411 962 380 963 Q351 962 330 938 Q310 914 309 881 L309 881 Z" /><glyph glyph-name="" unicode="ñ" d="M464 0 L571 0 L571 748 L397 748 L397 321 L394 319 L124 748 L21 748 L21 0 L194 0 L194 420 L198 422 L464 0 ZM408 898 Q386 926 365 934 Q345 943 334 942 Q288 940 265 925 Q242 909 216 907 Q208 907 194 911 Q179 916 159 932 L137 832 Q161 804 182 796 Q203 787 213 788 Q248 790 278 806 Q308 821 331 823 Q339 824 353 819 Q367 814 386 798 L408 898 Z" /><glyph glyph-name="" unicode="ò" d="M326 754 Q180 751 103 647 Q27 542 26 374 Q27 206 103 102 Q180 -3 326 -6 Q473 -3 550 102 Q626 206 627 374 Q626 542 550 647 Q473 751 326 754 L326 754 ZM326 596 Q390 593 421 529 Q452 465 452 374 Q452 283 421 219 Q390 155 326 152 Q263 155 232 219 Q201 283 201 374 Q201 465 232 529 Q263 593 326 596 L326 596 ZM360 959 L195 959 L292 796 L424 796 L360 959 Z" /><glyph glyph-name="" unicode="ó" d="M326 754 Q180 751 103 647 Q27 542 26 374 Q27 206 103 102 Q180 -3 326 -6 Q473 -3 550 102 Q626 206 627 374 Q626 542 550 647 Q473 751 326 754 L326 754 ZM326 596 Q390 593 421 529 Q452 465 452 374 Q452 283 421 219 Q390 155 326 152 Q263 155 232 219 Q201 283 201 374 Q201 465 232 529 Q263 593 326 596 L326 596 ZM241 796 L373 796 L471 959 L305 959 L241 796 Z" /><glyph glyph-name="" unicode="ô" d="M326 754 Q180 751 103 647 Q27 542 26 374 Q27 206 103 102 Q180 -3 326 -6 Q473 -3 550 102 Q626 206 627 374 Q626 542 550 647 Q473 751 326 754 L326 754 ZM326 596 Q390 593 421 529 Q452 465 452 374 Q452 283 421 219 Q390 155 326 152 Q263 155 232 219 Q201 283 201 374 Q201 465 232 529 Q263 593 326 596 L326 596 ZM391 959 L264 959 L181 796 L284 796 L328 866 L371 796 L474 796 L391 959 Z" /><glyph glyph-name="" unicode="õ" d="M326 754 Q180 751 103 647 Q27 542 26 374 Q27 206 103 102 Q180 -3 326 -6 Q473 -3 550 102 Q626 206 627 374 Q626 542 550 647 Q473 751 326 754 L326 754 ZM326 596 Q390 593 421 529 Q452 465 452 374 Q452 283 421 219 Q390 155 326 152 Q263 155 232 219 Q201 283 201 374 Q201 465 232 529 Q263 593 326 596 L326 596 ZM460 908 Q438 936 417 944 Q397 953 386 952 Q340 950 317 935 Q294 919 268 917 Q260 917 246 921 Q231 926 211 942 L189 842 Q213 814 234 806 Q255 797 265 798 Q300 800 330 816 Q360 831 383 833 Q391 834 405 829 Q419 824 438 808 L460 908 Z" /><glyph glyph-name="" unicode="ö" d="M326 754 Q180 751 103 647 Q27 542 26 374 Q27 206 103 102 Q180 -3 326 -6 Q473 -3 550 102 Q626 206 627 374 Q626 542 550 647 Q473 751 326 754 L326 754 ZM326 596 Q390 593 421 529 Q452 465 452 374 Q452 283 421 219 Q390 155 326 152 Q263 155 232 219 Q201 283 201 374 Q201 465 232 529 Q263 593 326 596 L326 596 ZM158 881 Q159 845 179 821 Q200 796 231 795 Q264 796 284 820 Q304 844 305 881 Q304 918 282 940 Q260 962 229 963 Q200 962 179 938 Q159 914 158 881 L158 881 ZM347 881 Q348 845 368 821 Q389 796 420 795 Q453 796 474 820 Q494 844 495 881 Q494 918 472 940 Q449 962 418 963 Q389 962 368 938 Q348 914 347 881 L347 881 Z" /><glyph glyph-name="" unicode="ø" d="M579 754 L519 681 Q483 716 435 735 Q386 754 326 754 Q180 751 103 647 Q27 542 26 374 Q26 303 39 242 Q52 181 77 133 L22 65 L75 0 L130 69 Q167 33 216 14 Q265 -6 326 -6 Q473 -3 550 102 Q626 206 627 374 Q627 446 614 507 Q600 569 574 618 L631 689 L579 754 ZM452 374 Q452 279 421 212 Q390 145 326 142 Q299 142 278 155 Q258 169 242 192 L449 481 Q451 457 451 430 Q452 403 452 374 L452 374 ZM326 606 Q352 606 373 593 Q393 581 407 559 L203 271 Q202 294 201 321 Q201 347 201 374 Q201 469 232 536 Q263 603 326 606 L326 606 Z" /><glyph glyph-name="" unicode="ù" d="M398 748 L398 322 Q398 244 375 193 Q351 143 307 141 Q263 143 239 193 Q216 244 216 322 L216 748 L42 748 L42 322 Q42 177 109 86 Q176 -4 307 -7 Q439 -4 506 86 Q572 177 572 322 L572 748 L398 748 ZM322 959 L157 959 L254 796 L386 796 L322 959 Z" /><glyph glyph-name="" unicode="ú" d="M398 748 L398 322 Q398 244 375 193 Q351 143 307 141 Q263 143 239 193 Q216 244 216 322 L216 748 L42 748 L42 322 Q42 177 109 86 Q176 -4 307 -7 Q439 -4 506 86 Q572 177 572 322 L572 748 L398 748 ZM239 796 L371 796 L469 959 L303 959 L239 796 Z" /><glyph glyph-name="" unicode="û" d="M398 748 L398 322 Q398 244 375 193 Q351 143 307 141 Q263 143 239 193 Q216 244 216 322 L216 748 L42 748 L42 322 Q42 177 109 86 Q176 -4 307 -7 Q439 -4 506 86 Q572 177 572 322 L572 748 L398 748 ZM371 959 L244 959 L161 796 L264 796 L308 866 L351 796 L454 796 L371 959 Z" /><glyph glyph-name="" unicode="ü" d="M398 748 L398 322 Q398 244 375 193 Q351 143 307 141 Q263 143 239 193 Q216 244 216 322 L216 748 L42 748 L42 322 Q42 177 109 86 Q176 -4 307 -7 Q439 -4 506 86 Q572 177 572 322 L572 748 L398 748 ZM139 881 Q140 845 160 821 Q181 796 212 795 Q245 796 265 820 Q285 844 286 881 Q285 918 263 940 Q241 962 210 963 Q181 962 160 938 Q140 914 139 881 L139 881 ZM328 881 Q329 845 349 821 Q370 796 401 795 Q434 796 455 820 Q475 844 476 881 Q475 918 453 940 Q430 962 399 963 Q370 962 349 938 Q329 914 328 881 L328 881 Z" /><glyph glyph-name="" unicode="ß" d="M498 595 Q498 680 438 737 Q379 793 258 795 Q180 797 108 748 Q37 698 32 568 L32 0 L195 0 L195 565 Q198 622 223 639 Q248 655 258 653 Q280 654 306 633 Q332 612 334 558 Q334 512 316 487 Q297 462 255 462 L242 462 L242 344 L271 344 Q303 345 328 321 Q354 298 355 240 Q353 172 324 153 Q294 134 261 136 L242 136 L242 0 L342 0 Q426 2 477 65 Q528 128 529 221 Q528 294 500 350 Q472 405 428 426 L427 430 Q460 454 479 494 Q498 535 498 595 L498 595 Z" /><glyph glyph-name="" unicode="æ" d="M502 525 Q427 525 373 476 Q345 501 311 513 Q276 525 236 525 Q188 525 145 513 Q102 500 60 474 L106 361 Q139 380 162 388 Q186 397 217 397 Q247 398 265 377 Q283 355 283 302 Q268 309 245 312 Q222 315 211 315 Q90 310 57 256 Q25 202 29 159 Q30 85 71 40 Q112 -5 179 -6 Q250 -7 293 12 Q337 31 373 76 Q398 38 431 16 Q465 -6 519 -6 Q570 -6 614 7 Q658 20 693 45 L648 158 Q619 140 587 131 Q555 122 524 122 Q494 121 474 139 Q454 157 448 208 L708 208 L714 259 Q714 385 662 455 Q609 524 502 525 L502 525 ZM239 117 Q217 117 206 132 Q195 147 195 174 Q195 197 206 214 Q216 230 240 231 Q254 231 263 228 Q272 224 283 217 Q282 160 266 138 Q251 116 239 117 L239 117 ZM499 407 Q521 407 539 383 Q556 359 557 312 L449 312 Q450 359 464 383 Q479 407 499 407 L499 407 Z" /><glyph glyph-name="" unicode="ç" d="M424 474 Q392 500 355 512 Q318 525 251 525 Q147 524 87 455 Q27 385 26 259 Q27 150 70 83 Q114 17 192 0 L113 -124 L224 -203 L323 -2 Q355 3 378 14 Q401 26 424 45 L363 177 Q339 158 314 146 Q288 133 250 132 Q224 132 207 164 Q189 196 188 259 Q189 322 207 355 Q224 387 250 387 Q288 386 314 374 Q339 361 363 342 L424 474 Z" /><glyph glyph-name="" unicode="ë" d="M457 259 Q457 385 405 455 Q352 524 245 525 Q143 524 85 455 Q27 385 26 259 Q27 133 90 64 Q153 -5 262 -6 Q313 -6 357 7 Q402 20 437 45 L392 158 Q363 140 328 131 Q293 122 261 122 Q231 121 214 139 Q198 157 191 208 L451 208 L457 259 ZM247 407 Q276 407 289 383 Q301 359 301 312 L193 312 Q196 359 208 383 Q221 407 247 407 L247 407 ZM88 672 Q89 636 109 612 Q130 587 161 586 Q194 587 214 611 Q234 635 235 672 Q234 709 212 731 Q190 753 159 754 Q130 753 109 729 Q89 705 88 672 L88 672 ZM277 672 Q278 636 298 612 Q319 587 350 586 Q383 587 404 611 Q424 635 425 672 Q424 709 402 731 Q379 753 348 754 Q319 753 298 729 Q278 705 277 672 L277 672 Z" /><glyph glyph-name="" unicode="ï" d="M202 0 L202 519 L40 519 L40 0 L202 0 ZM-48 672 Q-47 636 -27 612 Q-6 587 25 586 Q58 587 78 611 Q98 635 99 672 Q98 709 76 731 Q54 753 23 754 Q-6 753 -27 729 Q-47 705 -48 672 L-48 672 ZM141 672 Q142 636 162 612 Q183 587 214 586 Q247 587 268 611 Q288 635 289 672 Q288 709 266 731 Q243 753 212 754 Q183 753 162 729 Q142 705 141 672 L141 672 Z" /><glyph glyph-name="" unicode="ñ" d="M204 0 L204 318 Q213 343 230 361 Q247 378 273 379 Q293 380 307 362 Q320 343 321 289 L321 0 L483 0 L483 279 Q481 426 435 477 Q390 528 331 525 Q290 525 256 507 Q222 489 198 457 L195 458 L175 519 L42 519 L42 0 L204 0 ZM438 699 Q416 727 395 735 Q375 744 364 743 Q318 741 295 726 Q272 710 246 708 Q238 708 224 712 Q209 717 189 733 L167 633 Q191 605 212 597 Q233 588 243 589 Q278 591 308 607 Q338 622 361 624 Q369 625 383 620 Q397 615 416 599 L438 699 Z" /><glyph glyph-name="" unicode="÷" d="M180 108 Q181 66 204 38 Q228 10 264 9 Q300 10 324 38 Q347 66 348 108 Q347 150 324 177 Q300 204 264 205 Q228 204 204 177 Q181 150 180 108 L180 108 ZM180 568 Q181 527 204 499 Q228 472 264 471 Q300 472 324 499 Q347 527 348 568 Q347 610 324 638 Q300 666 264 667 Q228 666 204 638 Q181 610 180 568 L180 568 ZM42 275 L487 275 L487 401 L42 401 L42 275 Z" /><glyph glyph-name="" unicode="ø" d="M477 454 L425 519 L388 477 Q360 500 325 513 Q289 525 248 525 Q146 524 84 456 Q23 388 21 259 Q21 167 53 104 L18 65 L71 0 L108 42 Q137 19 172 6 Q207 -6 248 -6 Q349 -5 411 65 Q472 134 474 259 Q474 306 466 345 Q458 384 443 415 L477 454 ZM322 259 Q321 200 299 166 Q277 132 248 131 Q230 131 215 148 L317 290 Q319 283 321 275 Q322 267 322 259 L322 259 ZM248 388 Q266 388 280 370 L178 228 Q176 236 175 244 Q174 251 174 259 Q175 319 197 353 Q218 387 248 388 L248 388 Z" /><glyph glyph-name="" unicode="ù" d="M326 519 L326 201 Q317 176 301 159 Q284 141 258 140 Q237 139 223 157 Q210 176 209 230 L209 519 L47 519 L47 240 Q49 93 95 42 Q141 -9 200 -6 Q241 -6 274 12 Q308 30 332 62 L336 61 L355 0 L488 0 L488 519 L326 519 ZM283 748 L118 748 L215 585 L347 585 L283 748 Z" /><glyph glyph-name="" unicode="ú" d="M326 519 L326 201 Q317 176 301 159 Q284 141 258 140 Q237 139 223 157 Q210 176 209 230 L209 519 L47 519 L47 240 Q49 93 95 42 Q141 -9 200 -6 Q241 -6 274 12 Q308 30 332 62 L336 61 L355 0 L488 0 L488 519 L326 519 ZM188 585 L320 585 L418 748 L252 748 L188 585 Z" /><glyph glyph-name="" unicode="û" d="M326 519 L326 201 Q317 176 301 159 Q284 141 258 140 Q237 139 223 157 Q210 176 209 230 L209 519 L47 519 L47 240 Q49 93 95 42 Q141 -9 200 -6 Q241 -6 274 12 Q308 30 332 62 L336 61 L355 0 L488 0 L488 519 L326 519 ZM331 748 L204 748 L121 585 L224 585 L268 655 L311 585 L414 585 L331 748 Z" /><glyph glyph-name="" unicode="ü" d="M326 519 L326 201 Q317 176 301 159 Q284 141 258 140 Q237 139 223 157 Q210 176 209 230 L209 519 L47 519 L47 240 Q49 93 95 42 Q141 -9 200 -6 Q241 -6 274 12 Q308 30 332 62 L336 61 L355 0 L488 0 L488 519 L326 519 ZM98 672 Q99 636 119 612 Q140 587 171 586 Q204 587 224 611 Q244 635 245 672 Q244 709 222 731 Q200 753 169 754 Q140 753 119 729 Q99 705 98 672 L98 672 ZM287 672 Q288 636 308 612 Q329 587 360 586 Q393 587 414 611 Q434 635 435 672 Q434 709 412 731 Q389 753 358 754 Q329 753 308 729 Q288 705 287 672 L287 672 Z" /><glyph glyph-name="" unicode="ÿ" d="M76 -208 L233 -214 L481 519 L304 525 L236 219 L233 219 L166 525 L-12 519 L155 30 L76 -208 ZM89 672 Q90 636 110 612 Q131 587 162 586 Q195 587 215 611 Q235 635 236 672 Q235 709 213 731 Q191 753 160 754 Q131 753 110 729 Q90 705 89 672 L89 672 ZM278 672 Q279 636 299 612 Q320 587 351 586 Q384 587 405 611 Q425 635 426 672 Q425 709 403 731 Q380 753 349 754 Q320 753 299 729 Q279 705 278 672 L278 672 Z" /><glyph glyph-name="" unicode="&#x131;" d="M201 0 L201 519 L39 519 L39 0 L201 0 Z" /><glyph glyph-name="" unicode="&#x152;" d="M830 600 L830 748 L381 748 Q368 751 353 753 Q338 754 321 754 Q179 751 103 647 Q27 542 26 374 Q27 206 103 102 Q179 -3 321 -6 Q338 -6 353 -4 Q368 -3 381 0 L830 0 L830 148 L556 148 L556 316 L796 316 L796 460 L556 460 L556 600 L830 600 ZM201 374 Q201 468 232 534 Q262 599 321 602 Q339 602 351 600 Q363 599 382 592 L382 156 Q363 149 351 148 Q339 146 321 146 Q262 149 232 214 Q201 280 201 374 L201 374 Z" /><glyph glyph-name="" unicode="&#x153;" d="M253 388 Q281 387 299 353 Q316 319 317 259 Q316 200 299 166 Q281 132 253 131 Q224 132 206 166 Q189 200 188 259 Q189 319 206 353 Q224 387 253 388 L253 388 ZM535 525 Q493 525 459 510 Q424 495 396 466 Q366 495 330 510 Q294 525 253 525 Q151 524 89 456 Q28 388 26 259 Q28 134 89 65 Q151 -5 253 -6 Q294 -6 331 10 Q367 26 397 55 Q429 25 467 10 Q506 -6 552 -6 Q603 -6 647 7 Q691 20 726 45 L681 158 Q652 140 617 131 Q582 122 551 122 Q521 121 504 139 Q487 157 481 208 L741 208 L747 259 Q747 385 695 455 Q642 524 535 525 L535 525 ZM532 407 Q554 407 572 383 Q590 359 591 312 L483 312 Q495 407 532 407 L532 407 Z" /><glyph glyph-name="" unicode="&#x178;" d="M-13 748 L180 279 L180 0 L354 0 L354 284 L547 748 L342 754 L269 437 L265 437 L192 754 L-13 748 ZM99 884 Q100 848 120 824 Q141 799 172 798 Q205 799 225 823 Q245 847 246 884 Q245 921 223 943 Q201 965 170 966 Q141 965 120 941 Q100 917 99 884 L99 884 ZM288 884 Q289 848 309 824 Q330 799 361 798 Q394 799 415 823 Q435 847 436 884 Q435 921 413 943 Q390 965 359 966 Q330 965 309 941 Q289 917 288 884 L288 884 Z" /><glyph glyph-name="" unicode="&#x192;" d="M108 471 L108 369 L208 369 L183 148 Q173 78 153 52 Q132 26 98 27 Q86 27 74 31 Q62 35 52 40 L10 -107 Q34 -119 60 -126 Q86 -133 128 -133 Q202 -132 260 -75 Q319 -17 335 90 L370 369 L469 369 L486 471 L386 471 L397 573 Q398 592 407 613 Q416 634 439 636 Q454 636 466 633 Q479 629 492 622 L527 758 Q509 774 474 782 Q440 790 417 790 Q355 789 306 740 Q258 690 242 600 L225 471 L108 471 Z" /><glyph glyph-name="" unicode="&#x2c6;" d="M218 748 L91 748 L8 585 L111 585 L155 655 L198 585 L301 585 L218 748 Z" /><glyph glyph-name="" unicode="&#x2c7;" d="M301 748 L198 748 L155 678 L111 748 L8 748 L91 585 L218 585 L301 748 Z" /><glyph glyph-name="" unicode="&#x2d8;" d="M8 748 Q13 669 51 627 Q90 585 154 585 Q217 585 256 627 Q294 669 298 748 L218 748 Q213 718 195 700 Q176 682 154 681 Q131 682 112 700 Q93 718 88 748 L8 748 Z" /><glyph glyph-name="" unicode="&#x2d9;" d="M8 666 Q9 630 29 606 Q49 581 80 580 Q114 581 134 605 Q154 629 155 666 Q154 703 132 725 Q110 747 79 748 Q49 747 29 723 Q9 699 8 666 L8 666 Z" /><glyph glyph-name="" unicode="&#x2da;" d="M8 656 Q9 609 33 578 Q58 546 100 545 Q143 546 168 578 Q192 609 193 656 Q192 703 168 734 Q143 766 100 767 Q58 766 33 734 Q9 703 8 656 L8 656 ZM60 656 Q60 681 70 699 Q80 716 100 717 Q121 716 131 699 Q141 681 141 656 Q141 631 131 613 Q121 596 100 595 Q80 596 70 613 Q60 631 60 656 L60 656 Z" /><glyph glyph-name="" unicode="&#x2db;" d="M189 -100 Q160 -100 139 -88 Q118 -77 117 -52 Q117 -33 123 -21 Q129 -9 142 0 L124 60 Q82 50 45 16 Q7 -19 4 -78 Q7 -140 52 -171 Q97 -203 155 -203 L189 -100 Z" /><glyph glyph-name="" unicode="&#x2dc;" d="M279 699 Q257 727 236 735 Q216 744 205 743 Q159 741 136 726 Q113 710 87 708 Q79 708 65 712 Q50 717 30 733 L8 633 Q32 605 53 597 Q74 588 84 589 Q119 591 149 607 Q179 622 202 624 Q210 625 224 620 Q238 615 257 599 L279 699 Z" /><glyph glyph-name="" unicode="&#x2dd;" d="M8 585 L125 585 L204 748 L52 748 L8 585 ZM209 585 L326 585 L404 748 L253 748 L209 585 Z" /><glyph glyph-name="" unicode="&#x3a9;" d="M496 148 L496 152 Q534 197 564 266 Q593 335 595 431 Q593 568 517 659 Q442 751 313 754 Q182 751 107 659 Q31 568 29 431 Q31 335 60 266 Q90 197 128 152 L128 148 L24 148 L24 0 L278 0 L278 123 Q251 168 228 234 Q205 299 203 389 Q203 481 231 542 Q259 604 312 606 Q365 604 393 542 Q421 481 421 389 Q420 299 396 234 Q373 168 346 123 L346 0 L599 0 L599 148 L496 148 Z" /><glyph glyph-name="" unicode="&#x3c0;" d="M278 383 L356 383 L356 145 Q356 109 359 68 Q361 28 366 0 L530 0 Q525 21 522 63 Q519 105 519 145 L519 383 L585 383 L585 519 L210 519 Q140 519 94 508 Q48 497 14 478 L42 345 Q57 353 79 362 Q100 372 124 378 Q117 275 104 171 Q91 68 74 0 L228 0 Q245 73 258 177 Q271 281 278 383 L278 383 Z" /><glyph glyph-name="" unicode="&#xfb01;" d="M528 0 L528 519 L233 519 L233 573 Q232 619 252 635 Q271 652 319 651 Q355 649 412 630 Q469 612 490 600 L523 724 Q489 749 416 772 Q344 794 306 795 Q204 798 139 753 Q73 708 71 578 L71 519 L3 519 L3 399 L71 399 L71 0 L233 0 L233 399 L366 399 L366 0 L528 0 Z" /><glyph glyph-name="" unicode="&#xfb02;" d="M529 719 Q490 746 417 770 Q344 793 306 795 Q204 798 139 753 Q73 708 71 578 L71 519 L3 519 L3 399 L71 399 L71 0 L233 0 L233 399 L310 399 L310 519 L233 519 L233 573 Q232 619 252 635 Q271 652 319 651 Q325 651 338 647 Q351 643 367 638 L367 218 Q366 105 403 48 Q440 -8 520 -8 Q527 -8 540 -6 Q553 -4 565 0 L588 134 Q549 135 538 159 Q528 182 529 222 L529 719 Z" /><glyph glyph-name="" unicode="&#x2013;" d="M400 229 L400 355 L0 355 L0 229 L400 229 Z" /><glyph glyph-name="" unicode="&#x2014;" d="M613 229 L613 355 L0 355 L0 229 L613 229 Z" /><glyph glyph-name="" unicode="&#x2018;" d="M207 499 Q206 536 185 565 Q164 593 135 595 L190 729 L123 754 Q85 701 62 632 Q39 563 38 499 Q39 457 63 429 Q87 401 123 400 Q159 401 183 429 Q206 457 207 499 L207 499 Z" /><glyph glyph-name="" unicode="&#x2019;" d="M30 655 Q31 618 52 589 Q72 561 101 559 L47 425 L114 400 Q151 453 174 522 Q197 591 198 655 Q197 697 174 725 Q150 753 114 754 Q77 753 54 725 Q31 697 30 655 L30 655 Z" /><glyph glyph-name="" unicode="&#x201a;" d="M47 91 Q48 54 69 25 Q90 -3 119 -5 L64 -139 L132 -164 Q169 -111 192 -42 Q215 27 216 91 Q215 133 192 161 Q168 189 131 190 Q95 189 71 161 Q48 133 47 91 L47 91 Z" /><glyph glyph-name="" unicode="&#x201c;" d="M207 499 Q206 536 185 565 Q164 593 135 595 L190 729 L123 754 Q85 701 62 632 Q39 563 38 499 Q39 457 63 429 Q87 401 123 400 Q159 401 183 429 Q206 457 207 499 L207 499 ZM428 499 Q427 536 406 565 Q385 593 356 595 L411 729 L343 754 Q306 701 283 632 Q260 563 259 499 Q260 457 284 429 Q307 401 344 400 Q380 401 404 429 Q427 457 428 499 L428 499 Z" /><glyph glyph-name="" unicode="&#x201d;" d="M250 655 Q251 618 272 589 Q293 561 322 559 L267 425 L335 400 Q372 453 395 522 Q418 591 419 655 Q418 697 394 725 Q370 753 334 754 Q298 753 274 725 Q251 697 250 655 L250 655 ZM30 655 Q31 618 52 589 Q72 561 101 559 L47 425 L114 400 Q151 453 174 522 Q197 591 198 655 Q197 697 174 725 Q150 753 114 754 Q77 753 54 725 Q31 697 30 655 L30 655 Z" /><glyph glyph-name="" unicode="&#x201e;" d="M268 91 Q269 54 290 25 Q311 -3 340 -5 L285 -139 L352 -164 Q390 -111 413 -42 Q436 27 437 91 Q436 133 412 161 Q388 189 352 190 Q316 189 292 161 Q269 133 268 91 L268 91 ZM47 91 Q48 54 69 25 Q90 -3 119 -5 L64 -139 L132 -164 Q169 -111 192 -42 Q215 27 216 91 Q215 133 192 161 Q168 189 131 190 Q95 189 71 161 Q48 133 47 91 L47 91 Z" /><glyph glyph-name="" unicode="&#x2020;" d="M282 -78 L264 455 L401 435 L401 583 L264 563 L282 748 L148 748 L166 563 L32 583 L32 435 L166 455 L148 -78 L282 -78 Z" /><glyph glyph-name="" unicode="&#x2021;" d="M166 107 L148 -78 L282 -78 L264 107 L401 87 L401 235 L264 215 L264 455 L401 435 L401 583 L264 563 L282 748 L148 748 L166 563 L32 583 L32 435 L166 455 L166 215 L32 235 L32 87 L166 107 Z" /><glyph glyph-name="" unicode="&#x2022;" d="M268 374 Q267 434 233 474 Q200 514 150 516 Q99 514 66 474 Q32 434 31 374 Q32 314 66 275 Q99 235 150 234 Q200 235 233 275 Q267 314 268 374 L268 374 Z" /><glyph glyph-name="" unicode="&#x2026;" d="M43 91 Q44 50 68 22 Q92 -5 128 -6 Q164 -5 188 22 Q212 50 213 91 Q212 133 188 161 Q164 189 128 190 Q92 189 68 161 Q44 133 43 91 L43 91 ZM293 91 Q294 50 317 22 Q341 -5 377 -6 Q414 -5 438 22 Q461 50 462 91 Q461 133 438 161 Q414 189 377 190 Q341 189 317 161 Q294 133 293 91 L293 91 ZM542 91 Q543 50 567 22 Q591 -5 627 -6 Q663 -5 687 22 Q711 50 712 91 Q711 133 687 161 Q663 189 627 190 Q591 189 567 161 Q543 133 542 91 L542 91 Z" /><glyph glyph-name="" unicode="&#x2030;" d="M625 748 L530 754 L171 0 L256 -6 L625 748 ZM30 556 Q32 471 78 416 Q124 360 193 358 Q263 360 309 416 Q354 471 356 556 Q354 641 309 696 Q263 752 193 754 Q124 752 78 696 Q32 641 30 556 L30 556 ZM443 193 Q445 108 491 52 Q537 -4 607 -6 Q676 -4 722 52 Q767 108 769 193 Q767 278 722 333 Q676 389 607 391 Q537 389 491 333 Q445 278 443 193 L443 193 ZM121 556 Q122 597 142 624 Q162 651 193 652 Q224 651 245 624 Q265 597 266 556 Q265 515 245 488 Q224 461 193 460 Q162 461 142 488 Q122 515 121 556 L121 556 ZM534 193 Q535 234 555 261 Q576 288 607 289 Q638 288 658 261 Q678 234 679 193 Q678 152 658 124 Q638 97 607 96 Q576 97 555 124 Q535 152 534 193 L534 193 ZM822 193 Q824 108 870 52 Q916 -4 986 -6 Q1055 -4 1101 52 Q1146 108 1148 193 Q1146 278 1101 333 Q1055 389 986 391 Q916 389 870 333 Q824 278 822 193 L822 193 ZM913 193 Q914 234 934 261 Q955 288 986 289 Q1017 288 1037 261 Q1057 234 1058 193 Q1057 152 1037 124 Q1017 97 986 96 Q955 97 934 124 Q914 152 913 193 L913 193 Z" /><glyph glyph-name="" unicode="&#x2039;" d="M175 598 L46 367 L46 359 L175 130 L257 191 L168 364 L257 537 L175 598 Z" /><glyph glyph-name="" unicode="&#x203a;" d="M54 537 L143 364 L54 191 L137 130 L265 359 L265 367 L137 598 L54 537 Z" /><glyph glyph-name="" unicode="&#x2044;" d="M-35 -6 L344 748 L249 754 L-120 0 L-35 -6 Z" /><glyph glyph-name="" unicode="&#x20ac;" d="M257 334 Q255 352 255 373 Q255 383 255 391 Q255 399 256 406 L382 406 L403 494 L264 494 Q272 552 288 580 Q304 607 331 607 Q357 607 383 594 Q409 581 435 553 L497 689 Q458 719 418 737 Q378 754 331 754 Q230 754 173 687 Q116 621 100 494 L64 494 L43 406 L91 406 Q90 399 90 391 Q90 383 90 373 Q90 352 92 334 L64 334 L43 246 L101 246 Q119 125 175 61 Q231 -4 329 -5 Q377 -5 417 13 Q457 30 494 60 L433 196 Q408 168 382 155 Q356 142 329 142 Q305 142 290 169 Q275 195 267 246 L348 246 L369 334 L257 334 Z" /><glyph glyph-name="" unicode="&#x2122;" d="M461 456 L535 600 L538 599 L538 409 L611 409 L611 748 L549 748 L458 570 L367 748 L306 748 L306 409 L378 409 L378 599 L382 600 L454 456 L461 456 ZM281 748 L40 748 L40 680 L124 680 L124 409 L196 409 L196 680 L281 680 L281 748 Z" /><glyph glyph-name="" unicode="&#x2202;" d="M227 525 Q138 524 84 455 Q30 385 29 259 Q31 133 90 64 Q149 -5 247 -6 Q367 -8 430 74 Q493 155 493 342 Q490 607 422 704 Q355 800 255 795 Q196 794 148 774 Q100 754 74 732 L119 614 Q138 630 169 643 Q199 656 245 657 Q276 659 303 622 Q329 585 335 491 L332 490 Q317 507 290 516 Q263 525 227 525 L227 525 ZM276 387 Q295 387 309 376 Q322 364 332 341 Q332 327 333 313 Q333 299 333 285 Q333 220 321 177 Q308 134 276 132 Q239 132 216 164 Q194 197 193 259 Q194 321 216 354 Q239 387 276 387 L276 387 Z" /><glyph glyph-name="" unicode="&#x2206;" d="M244 148 L334 499 L337 499 L429 148 L244 148 ZM656 0 L657 3 L394 748 L277 748 L14 3 L15 0 L656 0 Z" /><glyph glyph-name="" unicode="&#x220f;" d="M270 0 L270 600 L392 600 L392 0 L566 0 L566 600 L631 600 L631 748 L30 748 L30 600 L96 600 L96 0 L270 0 Z" /><glyph glyph-name="" unicode="&#x2211;" d="M261 148 L260 153 L356 371 L267 595 L268 600 L482 600 L482 748 L36 748 L27 685 L174 376 L19 63 L28 0 L490 0 L490 148 L261 148 Z" /><glyph glyph-name="" unicode="&#x221a;" d="M318 -155 L536 846 L431 846 L250 23 L246 23 L172 415 L-2 415 L-2 298 L80 298 L176 -155 L318 -155 Z" /><glyph glyph-name="" unicode="&#x221e;" d="M477 173 Q536 175 574 220 Q613 265 614 336 Q613 407 574 452 Q536 497 477 499 Q434 498 394 470 Q354 441 317 394 Q280 441 240 470 Q201 498 157 499 Q99 497 61 452 Q22 407 21 336 Q22 265 61 220 Q99 175 157 173 Q201 174 240 202 Q280 230 317 277 Q354 230 394 202 Q434 174 477 173 L477 173 ZM477 258 Q443 259 418 282 Q393 305 372 336 Q393 367 418 390 Q443 413 477 414 Q502 413 518 390 Q534 368 535 336 Q534 304 518 282 Q502 259 477 258 L477 258 ZM157 258 Q132 259 117 282 Q101 304 100 336 Q101 368 117 390 Q132 413 157 414 Q191 413 216 390 Q241 367 262 336 Q241 305 216 282 Q191 259 157 258 L157 258 Z" /><glyph glyph-name="" unicode="&#x222b;" d="M307 921 L234 921 Q173 920 139 877 Q105 834 104 758 L104 21 Q104 4 99 -6 Q93 -16 84 -16 L13 -16 L13 -132 L84 -132 Q147 -131 182 -88 Q216 -45 217 31 L217 768 Q217 785 222 795 Q226 805 234 805 L307 805 L307 921 Z" /><glyph glyph-name="" unicode="&#x2248;" d="M176 484 Q155 486 134 501 Q114 516 110 524 L55 416 Q92 385 118 371 Q144 358 178 358 Q234 361 271 382 Q308 402 340 405 Q363 403 387 387 Q412 370 417 362 L474 469 Q437 500 408 516 Q379 531 338 531 Q280 528 245 508 Q209 487 176 484 L176 484 ZM176 272 Q155 274 134 289 Q114 304 110 312 L55 204 Q92 173 118 159 Q144 146 178 146 Q234 149 271 170 Q308 190 340 193 Q363 191 387 175 Q412 158 417 150 L474 257 Q437 288 408 304 Q379 319 338 319 Q280 316 245 296 Q209 275 176 272 L176 272 Z" /><glyph glyph-name="" unicode="&#x2260;" d="M42 381 L250 381 L252 377 L203 295 L42 295 L42 169 L113 169 L115 165 L73 97 L118 57 L187 169 L487 169 L487 295 L277 295 L275 299 L324 381 L487 381 L487 507 L416 507 L415 511 L456 579 L412 619 L343 507 L42 507 L42 381 Z" /><glyph glyph-name="" unicode="&#x2264;" d="M474 185 L474 321 L199 404 L199 408 L474 491 L474 627 L55 469 L55 343 L474 185 ZM474 10 L474 136 L56 136 L56 10 L474 10 Z" /><glyph glyph-name="" unicode="&#x2265;" d="M475 343 L475 469 L55 627 L55 491 L331 408 L331 404 L55 321 L55 185 L475 343 ZM474 10 L474 136 L56 136 L56 10 L474 10 Z" /><glyph glyph-name="" unicode="&#x25ca;" d="M461 374 L297 777 L198 777 L30 374 L194 -29 L292 -29 L461 374 ZM332 372 L246 138 L158 376 L246 607 L332 372 Z" /><glyph glyph-name="" unicode="¦" d="M30 806 L30 407 L144 407 L144 806 L30 806 ZM30 244 L30 -155 L144 -155 L144 244 L30 244 Z" /><glyph glyph-name="" unicode="²" d="M304 618 Q304 675 267 711 Q230 747 163 748 Q138 749 100 741 Q62 732 22 701 L61 606 Q80 619 97 627 Q114 636 133 636 Q151 636 161 625 Q171 614 171 589 Q165 521 110 461 Q55 400 26 374 L26 290 L300 290 L300 404 L166 404 L165 407 Q198 426 248 478 Q299 529 304 618 L304 618 Z" /><glyph glyph-name="" unicode="³" d="M298 425 Q299 453 283 481 Q268 508 229 521 L229 525 Q262 543 275 568 Q288 593 287 627 Q285 686 247 717 Q209 748 154 748 Q124 748 92 737 Q61 725 32 701 L71 606 Q91 622 106 627 Q121 632 129 632 Q141 632 151 623 Q160 614 160 596 Q159 580 149 573 Q138 565 126 565 L104 565 L104 475 L128 475 Q156 474 163 460 Q171 447 170 432 Q169 417 159 409 Q148 400 136 400 Q120 400 105 410 Q89 419 74 431 L29 335 Q62 313 93 301 Q123 290 154 290 Q225 292 261 330 Q298 369 298 425 L298 425 Z" /><glyph glyph-name="" unicode="¹" d="M135 589 L135 290 L268 290 L268 748 L189 748 L49 652 L81 571 L135 589 Z" /><glyph glyph-name="" unicode="¼" d="M141 589 L141 290 L274 290 L274 748 L195 748 L54 652 L87 571 L141 589 ZM577 187 L576 190 L623 305 L625 304 L625 187 L577 187 ZM741 459 L604 459 L476 170 L481 90 L625 90 L625 1 L741 1 L741 90 L779 90 L779 187 L741 187 L741 459 ZM283 -6 L662 748 L567 754 L198 0 L283 -6 Z" /><glyph glyph-name="" unicode="½" d="M117 589 L117 290 L250 290 L250 748 L172 748 L31 652 L63 571 L117 589 ZM260 -6 L638 748 L544 754 L175 0 L260 -6 ZM804 328 Q803 385 766 421 Q729 457 662 458 Q638 459 599 451 Q561 442 521 411 L561 316 Q580 329 597 337 Q614 346 632 346 Q650 346 661 335 Q671 324 671 299 Q665 231 610 171 Q554 110 525 84 L525 0 L800 0 L800 114 L665 114 L664 117 Q697 135 748 187 Q799 239 804 328 L804 328 Z" /><glyph glyph-name="" unicode="¾" d="M313 425 Q314 453 298 481 Q283 508 244 521 L244 525 Q277 543 290 568 Q303 593 302 627 Q300 686 262 717 Q224 748 169 748 Q139 748 108 737 Q76 725 47 701 L86 606 Q106 622 121 627 Q136 632 144 632 Q156 632 166 623 Q175 614 175 596 Q174 580 164 573 Q153 565 141 565 L119 565 L119 475 L143 475 Q171 474 178 460 Q186 447 185 432 Q184 417 175 409 Q166 400 155 400 Q138 400 121 410 Q104 419 89 431 L44 335 Q77 313 108 301 Q138 290 169 290 Q240 292 276 330 Q313 369 313 425 L313 425 ZM293 -6 L671 748 L576 754 L208 0 L293 -6 ZM585 187 L584 190 L631 305 L633 304 L633 187 L585 187 ZM749 459 L612 459 L485 170 L489 90 L633 90 L633 1 L749 1 L749 90 L787 90 L787 187 L749 187 L749 459 Z" /><glyph glyph-name="" unicode="ð" d="M305 0 Q452 4 526 108 Q599 213 599 374 Q599 535 526 640 Q452 744 305 748 L80 748 L80 445 L16 445 L16 301 L80 301 L80 0 L305 0 ZM254 148 L254 301 L336 301 L336 445 L254 445 L254 600 L285 600 Q354 599 390 541 Q425 482 425 374 Q425 267 389 208 Q353 149 285 148 L254 148 Z" /><glyph glyph-name="" unicode="×" d="M131 78 L265 249 L398 78 L480 168 L345 338 L480 508 L398 598 L265 427 L131 598 L50 508 L184 338 L50 168 L131 78 Z" /><glyph glyph-name="" unicode="ý" d="M-13 748 L180 279 L180 0 L354 0 L354 284 L547 748 L342 754 L269 437 L265 437 L192 754 L-13 748 ZM216 795 L348 795 L446 958 L280 958 L216 795 Z" /><glyph glyph-name="" unicode="þ" d="M40 0 L213 0 L213 90 L284 90 Q386 93 453 172 Q521 252 523 374 Q521 496 453 576 Q386 655 284 658 L213 658 L213 748 L40 748 L40 0 ZM213 244 L213 504 L255 504 Q298 503 323 467 Q348 431 349 374 Q348 317 323 281 Q298 245 255 244 L213 244 Z" /><glyph glyph-name="" unicode="ð" d="M466 709 L409 771 L319 718 Q277 750 250 766 Q222 781 189 795 L121 688 Q137 680 153 669 Q169 658 183 647 L108 603 L161 538 L253 592 Q281 565 302 530 Q323 495 334 451 L332 450 Q317 471 288 483 Q259 495 220 495 Q132 494 80 433 Q27 372 26 259 Q28 133 85 64 Q143 -5 239 -6 Q357 -8 419 74 Q482 155 482 342 Q481 451 454 530 Q427 608 386 660 L466 709 ZM268 362 Q282 362 295 352 Q308 343 319 328 Q322 293 322 275 Q323 214 308 174 Q292 134 249 132 Q223 132 207 162 Q191 192 190 249 Q191 302 212 332 Q234 362 268 362 L268 362 Z" /><glyph glyph-name="" unicode="ý" d="M86 -208 L243 -214 L491 519 L314 525 L246 219 L243 219 L176 525 L-2 519 L165 30 L86 -208 ZM179 585 L311 585 L409 748 L243 748 L179 585 Z" /><glyph glyph-name="" unicode="þ" d="M42 795 L42 -208 L204 -208 L204 27 L207 28 Q226 11 245 2 Q263 -6 280 -6 Q364 -5 413 64 Q463 134 464 260 Q463 386 413 456 Q364 525 280 526 Q264 526 245 518 Q226 509 207 492 L204 493 L204 795 L42 795 ZM302 260 Q301 202 289 172 Q277 142 261 142 Q241 142 228 149 Q216 155 204 168 L204 352 Q216 365 228 371 Q241 378 261 378 Q276 378 289 348 Q301 318 302 260 L302 260 Z" /><glyph glyph-name="" unicode="&#x141;" d="M233 148 L233 351 L396 534 L396 659 L392 661 L233 482 L233 748 L59 748 L59 318 L13 266 L13 139 L16 137 L59 186 L59 0 L471 0 L471 148 L233 148 Z" /><glyph glyph-name="" unicode="&#x142;" d="M252 431 L336 524 L336 649 L333 651 L252 562 L252 795 L90 795 L90 410 L14 332 L14 205 L18 203 L90 278 L90 218 Q90 105 126 48 Q163 -8 243 -8 Q250 -8 263 -6 Q276 -4 289 0 L312 134 Q273 135 262 159 Q251 182 252 222 L252 431 Z" /><glyph glyph-name="" unicode="&#x160;" d="M25 79 Q74 40 125 17 Q177 -6 239 -6 Q354 -6 416 52 Q477 109 478 222 Q461 385 342 436 Q222 487 205 550 Q205 570 218 583 Q231 597 254 597 Q289 596 328 576 Q367 556 403 523 L470 669 Q423 708 373 731 Q323 754 263 754 Q145 752 88 692 Q31 632 31 540 Q48 364 168 317 Q287 269 304 207 Q303 177 288 162 Q272 147 249 147 Q213 148 170 170 Q128 192 93 225 L25 79 ZM439 958 L336 958 L293 888 L249 958 L146 958 L229 795 L356 795 L439 958 Z" /><glyph glyph-name="" unicode="&#x161;" d="M202 161 Q202 145 192 139 Q183 132 163 132 Q156 131 135 136 Q113 140 74 158 L29 45 Q68 18 105 6 Q142 -6 176 -6 Q258 -6 305 38 Q352 82 353 166 Q343 285 269 315 Q196 346 185 368 Q186 385 199 389 Q212 393 223 392 Q226 392 248 386 Q271 380 300 362 L346 480 Q309 507 275 516 Q241 526 209 525 Q119 523 79 475 Q39 428 40 365 Q50 247 121 218 Q192 190 202 161 L202 161 ZM341 748 L238 748 L195 678 L151 748 L48 748 L131 585 L258 585 L341 748 Z" /><glyph glyph-name="" unicode="&#x17d;" d="M521 748 L46 748 L46 600 L281 600 L17 63 L17 0 L513 0 L513 148 L258 148 L521 685 L521 748 ZM440 958 L337 958 L294 888 L250 958 L147 958 L230 795 L357 795 L440 958 Z" /><glyph glyph-name="" unicode="&#x17e;" d="M394 431 L394 519 L16 519 L16 383 L178 383 L9 88 L9 0 L392 0 L392 136 L235 136 L394 431 ZM388 748 L285 748 L242 678 L198 748 L95 748 L178 585 L305 585 L388 748 Z" /><glyph glyph-name="" unicode="&#x2212;" d="M42 275 L487 275 L487 401 L42 401 L42 275 Z" /><glyph glyph-name="" unicode="&#x106;" d="M544 679 Q498 714 449 734 Q399 754 341 754 Q184 750 105 643 Q26 536 26 374 Q26 212 105 105 Q184 -2 341 -6 Q399 -6 449 14 Q498 34 544 69 L476 220 Q445 188 412 171 Q380 154 341 154 Q272 156 236 219 Q200 281 200 374 Q200 468 236 530 Q272 592 341 594 Q380 594 412 577 Q445 560 476 528 L544 679 ZM249 795 L381 795 L479 958 L313 958 L249 795 Z" /><glyph glyph-name="" unicode="&#x10c;" d="M544 679 Q498 714 449 734 Q399 754 341 754 Q184 750 105 643 Q26 536 26 374 Q26 212 105 105 Q184 -2 341 -6 Q399 -6 449 14 Q498 34 544 69 L476 220 Q445 188 412 171 Q380 154 341 154 Q272 156 236 219 Q200 281 200 374 Q200 468 236 530 Q272 592 341 594 Q380 594 412 577 Q445 560 476 528 L544 679 ZM479 958 L376 958 L332 888 L288 958 L185 958 L269 795 L396 795 L479 958 Z" /><glyph glyph-name="" unicode="&#x110;" d="M305 0 Q452 4 526 108 Q599 213 599 374 Q599 535 526 640 Q452 744 305 748 L80 748 L80 445 L16 445 L16 301 L80 301 L80 0 L305 0 ZM254 148 L254 301 L336 301 L336 445 L254 445 L254 600 L285 600 Q354 599 390 541 Q425 482 425 374 Q425 267 389 208 Q353 149 285 148 L254 148 Z" /><glyph glyph-name="" unicode="&#x107;" d="M424 474 Q392 500 355 512 Q318 525 251 525 Q147 524 87 455 Q27 385 26 259 Q27 133 87 64 Q147 -5 251 -6 Q318 -6 355 7 Q392 20 424 45 L363 177 Q339 158 314 146 Q288 133 250 132 Q224 132 207 164 Q189 196 188 259 Q189 322 207 355 Q224 387 250 387 Q288 386 314 374 Q339 361 363 342 L424 474 ZM169 585 L300 585 L398 748 L232 748 L169 585 Z" /><glyph glyph-name="" unicode="&#x10d;" d="M424 474 Q392 500 355 512 Q318 525 251 525 Q147 524 87 455 Q27 385 26 259 Q27 133 87 64 Q147 -5 251 -6 Q318 -6 355 7 Q392 20 424 45 L363 177 Q339 158 314 146 Q288 133 250 132 Q224 132 207 164 Q189 196 188 259 Q189 322 207 355 Q224 387 250 387 Q288 386 314 374 Q339 361 363 342 L424 474 ZM396 748 L293 748 L249 678 L205 748 L102 748 L185 585 L312 585 L396 748 Z" /><glyph glyph-name="" unicode="&#x111;" d="M198 689 L198 601 L311 601 L311 492 L309 491 Q289 508 272 517 Q255 525 232 525 Q135 524 79 455 Q22 385 21 259 Q23 133 76 64 Q128 -5 204 -6 Q242 -5 269 14 Q296 33 318 62 L321 61 L341 0 L474 0 L474 601 L522 601 L522 689 L474 689 L474 795 L311 795 L311 689 L198 689 ZM250 142 Q222 142 204 172 Q185 201 184 259 Q185 317 204 347 Q223 377 250 377 Q271 377 284 370 Q298 364 311 351 L311 203 Q303 178 287 161 Q271 143 250 142 L250 142 Z" /><glyph glyph-name="" unicode="&#x403;" d="M454 600 L454 748 L40 748 L40 0 L213 0 L213 600 L454 600 ZM186 795 L318 795 L415 958 L249 958 L186 795 Z" /><glyph glyph-name="" unicode="&#x405;" d="M25 79 Q72 40 121 17 Q170 -6 229 -6 Q349 -5 417 57 Q486 119 487 232 Q469 393 347 437 Q224 481 206 550 Q206 574 222 590 Q237 606 266 607 Q299 606 336 583 Q373 560 405 523 L473 669 Q426 708 376 731 Q325 754 266 754 Q147 752 89 692 Q32 632 32 540 Q49 378 168 329 Q287 280 304 217 Q304 181 284 161 Q264 141 229 141 Q196 142 160 165 Q125 188 93 225 L25 79 Z" /><glyph glyph-name="" unicode="&#x408;" d="M4 38 Q35 18 69 6 Q104 -6 142 -6 Q242 -7 302 61 Q362 130 363 284 L363 748 L189 748 L189 269 Q189 210 176 183 Q163 157 142 157 Q124 157 107 164 Q90 171 71 189 L4 38 Z" /><glyph glyph-name="" unicode="&#x409;" d="M543 148 L543 316 L587 316 Q618 316 637 294 Q656 271 657 232 Q659 204 647 177 Q636 150 586 148 L543 148 ZM121 748 L114 491 Q112 314 93 224 Q74 134 5 134 L27 -9 Q39 -13 52 -15 Q65 -17 72 -17 Q187 -14 228 105 Q270 225 274 424 L280 600 L369 600 L369 0 L612 0 Q722 2 777 64 Q831 126 831 231 Q831 332 777 395 Q722 458 612 460 L543 460 L543 748 L121 748 Z" /><glyph glyph-name="" unicode="&#x40a;" d="M561 148 L561 316 L606 316 Q637 316 657 294 Q676 271 677 232 Q679 204 667 177 Q655 150 605 148 L561 148 ZM561 460 L561 748 L387 748 L387 460 L213 460 L213 748 L40 748 L40 0 L213 0 L213 316 L387 316 L387 0 L631 0 Q742 2 796 64 Q850 126 850 231 Q850 332 796 395 Q742 458 631 460 L561 460 Z" /><glyph glyph-name="" unicode="&#x40c;" d="M213 748 L40 748 L40 0 L213 0 L213 299 L265 299 L404 -6 L596 0 L403 371 L562 748 L374 754 L264 443 L213 443 L213 748 ZM234 795 L366 795 L463 958 L298 958 L234 795 Z" /><glyph glyph-name="" unicode="&#x40f;" d="M391 -156 L391 0 L590 0 L590 748 L416 748 L416 148 L213 148 L213 748 L40 748 L40 0 L236 0 L236 -166 L391 -156 Z" /><glyph glyph-name="" unicode="&#x410;" d="M202 118 L414 118 L451 -6 L627 0 L365 748 L249 748 L-13 0 L165 -6 L202 118 ZM247 262 L305 499 L309 499 L368 262 L247 262 Z" /><glyph glyph-name="" unicode="&#x411;" d="M40 0 L307 0 Q415 2 470 66 Q524 131 524 236 Q524 341 470 405 Q415 469 307 471 L213 471 L213 600 L470 600 L470 748 L40 748 L40 0 ZM213 326 L282 326 Q311 326 330 304 Q349 281 350 237 Q352 208 340 179 Q329 150 281 148 L213 148 L213 326 Z" /><glyph glyph-name="" unicode="&#x412;" d="M213 460 L213 600 L305 600 Q309 601 324 585 Q339 570 341 530 Q341 495 329 478 Q318 460 300 460 L213 460 ZM298 316 Q329 316 348 294 Q367 272 368 232 Q369 204 357 177 Q344 150 302 148 L213 148 L213 316 L298 316 ZM515 555 Q515 638 468 692 Q421 746 329 748 L40 748 L40 0 L329 0 Q433 1 487 59 Q542 116 542 211 Q541 277 507 325 Q474 372 423 388 L423 392 Q472 420 494 465 Q515 509 515 555 L515 555 Z" /><glyph glyph-name="" unicode="&#x413;" d="M454 600 L454 748 L40 748 L40 0 L213 0 L213 600 L454 600 Z" /><glyph glyph-name="" unicode="&#x414;" d="M291 600 L366 600 L366 148 L243 148 Q263 241 275 353 Q286 465 291 600 L291 600 ZM159 -156 L159 0 L462 0 L462 -166 L607 -156 L607 148 L540 148 L540 748 L133 748 Q128 518 115 390 Q102 262 75 148 L14 148 L14 -166 L159 -156 Z" /><glyph glyph-name="" unicode="&#x415;" d="M497 600 L497 748 L40 748 L40 0 L497 0 L497 148 L213 148 L213 316 L463 316 L463 460 L213 460 L213 600 L497 600 Z" /><glyph glyph-name="" unicode="&#x416;" d="M220 754 L32 748 L180 371 L-2 0 L191 -6 L313 299 L355 299 L355 0 L523 0 L523 299 L566 299 L688 -6 L880 0 L699 371 L847 748 L658 754 L564 443 L523 443 L523 748 L355 748 L355 443 L315 443 L220 754 Z" /><glyph glyph-name="" unicode="&#x417;" d="M103 545 Q134 573 163 590 Q192 607 222 607 Q241 607 259 589 Q276 571 277 531 Q277 496 262 478 Q247 460 218 460 L162 460 L162 316 L217 316 Q258 316 282 294 Q306 272 306 232 Q307 203 294 173 Q280 143 233 141 Q201 142 165 162 Q128 182 96 215 L29 79 Q75 40 125 17 Q175 -6 233 -6 Q363 -4 422 56 Q481 115 480 211 Q479 277 447 325 Q415 372 364 388 L364 392 Q414 420 433 465 Q451 509 450 555 Q448 638 391 695 Q333 752 241 754 Q183 754 132 731 Q81 708 35 669 L103 545 Z" /><glyph glyph-name="" unicode="&#x418;" d="M413 422 L416 420 L416 0 L590 0 L590 748 L486 748 L217 319 L213 321 L213 748 L40 748 L40 0 L146 0 L413 422 Z" /><glyph glyph-name="" unicode="&#x41a;" d="M213 748 L40 748 L40 0 L213 0 L213 299 L265 299 L404 -6 L596 0 L403 371 L562 748 L374 754 L264 443 L213 443 L213 748 Z" /><glyph glyph-name="" unicode="&#x41b;" d="M27 -9 Q39 -13 52 -15 Q65 -17 72 -17 Q187 -14 228 105 Q270 225 274 424 L280 600 L385 600 L385 0 L558 0 L558 748 L121 748 L114 491 Q112 314 93 224 Q74 134 5 134 L27 -9 Z" /><glyph glyph-name="" unicode="&#x41c;" d="M391 128 L495 387 L498 386 L498 -1 L672 -1 L672 748 L538 748 L356 334 L173 748 L40 748 L40 -1 L213 -1 L213 385 L217 387 L319 128 L391 128 Z" /><glyph glyph-name="" unicode="&#x41d;" d="M213 0 L213 316 L416 316 L416 0 L590 0 L590 748 L416 748 L416 460 L213 460 L213 748 L40 748 L40 0 L213 0 Z" /><glyph glyph-name="" unicode="&#x41e;" d="M326 754 Q180 751 103 647 Q27 542 26 374 Q27 206 103 102 Q180 -3 326 -6 Q473 -3 550 102 Q626 206 627 374 Q626 542 550 647 Q473 751 326 754 L326 754 ZM326 596 Q390 593 421 529 Q452 465 452 374 Q452 283 421 219 Q390 155 326 152 Q263 155 232 219 Q201 283 201 374 Q201 465 232 529 Q263 593 326 596 L326 596 Z" /><glyph glyph-name="" unicode="&#x41f;" d="M213 0 L213 600 L416 600 L416 0 L590 0 L590 748 L40 748 L40 0 L213 0 Z" /><glyph glyph-name="" unicode="&#x420;" d="M40 748 L40 0 L213 0 L213 226 L297 226 Q399 229 468 303 Q536 377 539 490 Q536 603 468 675 Q399 746 297 748 L40 748 ZM277 600 Q315 599 340 570 Q364 540 365 490 Q364 442 340 412 Q315 381 277 380 L213 380 L213 600 L277 600 Z" /><glyph glyph-name="" unicode="&#x421;" d="M544 679 Q498 714 449 734 Q399 754 341 754 Q184 750 105 643 Q26 536 26 374 Q26 212 105 105 Q184 -2 341 -6 Q399 -6 449 14 Q498 34 544 69 L476 220 Q445 188 412 171 Q380 154 341 154 Q272 156 236 219 Q200 281 200 374 Q200 468 236 530 Q272 592 341 594 Q380 594 412 577 Q445 560 476 528 L544 679 Z" /><glyph glyph-name="" unicode="&#x422;" d="M480 748 L5 748 L5 600 L155 600 L155 0 L329 0 L329 600 L480 600 L480 748 Z" /><glyph glyph-name="" unicode="&#x423;" d="M401 754 L283 384 L164 754 L-13 748 L196 211 L111 0 L289 -6 L579 748 L401 754 Z" /><glyph glyph-name="" unicode="&#x424;" d="M494 0 L494 80 L559 80 Q657 83 723 165 Q789 247 792 374 Q789 501 723 583 Q657 665 559 668 L494 668 L494 748 L329 748 L329 668 L264 668 Q165 665 99 583 Q33 501 30 374 Q33 247 99 165 Q165 83 264 80 L329 80 L329 0 L494 0 ZM540 514 Q578 513 603 474 Q627 435 628 374 Q627 313 603 274 Q578 235 540 234 L494 234 L494 514 L540 514 ZM283 234 Q245 235 220 274 Q196 313 195 374 Q196 435 220 474 Q245 513 283 514 L329 514 L329 234 L283 234 Z" /><glyph glyph-name="" unicode="&#x425;" d="M-16 0 L180 -6 L287 259 L395 -6 L591 0 L380 395 L564 748 L369 754 L287 532 L206 754 L11 748 L194 395 L-16 0 Z" /><glyph glyph-name="" unicode="&#x426;" d="M619 -156 L619 148 L552 148 L552 748 L378 748 L378 148 L213 148 L213 748 L40 748 L40 0 L474 0 L474 -166 L619 -156 Z" /><glyph glyph-name="" unicode="&#x427;" d="M356 400 Q331 388 312 384 Q293 380 268 380 Q242 381 223 412 Q204 442 203 490 L203 748 L29 748 L29 490 Q32 377 95 303 Q158 229 248 226 Q280 226 307 232 Q333 238 356 246 L356 0 L529 0 L529 748 L356 748 L356 400 Z" /><glyph glyph-name="" unicode="&#x428;" d="M40 0 L813 0 L813 748 L639 748 L639 148 L508 148 L508 748 L344 748 L344 148 L213 148 L213 748 L40 748 L40 0 Z" /><glyph glyph-name="" unicode="&#x430;" d="M447 0 L447 302 Q446 414 389 469 Q333 525 236 525 Q188 525 145 513 Q102 500 60 474 L106 361 Q139 380 162 388 Q186 397 217 397 Q247 398 265 377 Q283 355 283 302 Q268 309 245 312 Q222 315 211 315 Q90 310 57 256 Q25 202 29 159 Q30 85 71 40 Q112 -5 179 -6 Q213 -6 241 12 Q269 30 291 62 L294 61 L314 0 L447 0 ZM239 117 Q217 117 206 132 Q195 147 195 174 Q195 197 206 214 Q216 230 240 231 Q256 231 264 228 Q272 224 283 217 Q282 160 266 138 Q251 116 239 117 L239 117 Z" /><glyph glyph-name="" unicode="&#x431;" d="M258 377 Q288 377 307 347 Q325 317 326 259 Q325 197 307 164 Q288 132 258 132 Q227 133 209 168 Q190 203 189 259 Q189 280 191 298 Q194 315 196 330 Q208 347 225 361 Q241 376 258 377 L258 377 ZM406 796 Q346 778 313 770 Q280 761 248 749 Q135 707 80 602 Q25 497 25 323 Q27 152 92 72 Q156 -7 258 -6 Q358 -5 418 64 Q478 133 480 259 Q479 381 425 447 Q370 514 267 515 Q255 515 234 506 Q212 497 199 483 Q206 538 228 572 Q249 606 289 622 Q333 638 359 645 Q385 652 436 671 L406 796 Z" /><glyph glyph-name="" unicode="&#x432;" d="M224 525 Q172 525 124 523 Q77 521 43 519 L43 0 Q74 -3 121 -4 Q167 -6 207 -6 Q344 -6 399 36 Q453 78 451 156 Q451 196 433 230 Q415 263 374 280 L374 284 Q404 302 419 333 Q433 364 433 401 Q436 454 392 489 Q349 524 224 525 L224 525 ZM261 122 Q244 122 232 122 Q220 122 205 122 L205 219 L236 219 Q268 219 284 206 Q299 194 299 166 Q299 146 290 134 Q280 122 261 122 L261 122 ZM246 402 Q262 403 276 392 Q289 382 290 355 Q290 333 277 318 Q265 304 237 303 L205 303 L205 402 Q217 402 226 402 Q235 402 246 402 L246 402 Z" /><glyph glyph-name="" unicode="&#x433;" d="M42 0 L204 0 L204 383 L374 383 L374 519 L42 519 L42 0 Z" /><glyph glyph-name="" unicode="&#x434;" d="M410 0 L410 -151 L550 -145 L550 136 L484 136 L484 519 L126 519 Q128 409 119 308 Q110 207 88 136 L24 136 L24 -151 L164 -145 L164 0 L410 0 ZM274 383 L322 383 L322 136 L247 136 Q258 196 266 257 Q273 318 274 383 L274 383 Z" /><glyph glyph-name="" unicode="&#x435;" d="M457 259 Q457 385 405 455 Q352 524 245 525 Q143 524 85 455 Q27 385 26 259 Q27 133 90 64 Q153 -5 262 -6 Q313 -6 357 7 Q402 20 437 45 L392 158 Q363 140 328 131 Q293 122 261 122 Q231 121 214 139 Q198 157 191 208 L451 208 L457 259 ZM247 407 Q276 407 289 383 Q301 359 301 312 L193 312 Q196 359 208 383 Q221 407 247 407 L247 407 Z" /><glyph glyph-name="" unicode="&#x436;" d="M191 -6 L262 220 L285 220 L285 0 L447 0 L447 220 L470 220 L542 -6 L734 0 L611 274 L706 519 L519 525 L469 326 L447 326 L447 519 L285 519 L285 326 L264 326 L214 525 L26 519 L121 274 L-2 0 L191 -6 Z" /><glyph glyph-name="" unicode="&#x437;" d="M129 219 Q162 220 182 210 Q201 201 201 174 Q201 158 192 145 Q182 133 163 132 Q149 132 126 137 Q103 142 74 158 L29 45 Q68 18 105 6 Q142 -6 176 -6 Q258 -6 305 36 Q352 78 353 156 Q353 196 335 230 Q316 263 276 280 L276 284 Q306 302 321 333 Q335 364 335 401 Q335 454 296 489 Q257 524 178 525 Q144 526 107 516 Q70 507 30 480 L75 367 Q104 385 122 389 Q140 393 154 392 Q165 393 178 385 Q191 378 192 351 Q192 326 176 314 Q160 303 129 303 L121 303 L121 219 L129 219 Z" /><glyph glyph-name="" unicode="&#x438;" d="M318 252 L321 250 L321 0 L484 0 L484 519 L382 519 L208 266 L204 268 L204 519 L42 519 L42 0 L143 0 L318 252 Z" /><glyph glyph-name="" unicode="&#x43a;" d="M507 0 L365 274 L479 519 L292 525 L222 326 L204 326 L204 519 L42 519 L42 0 L204 0 L204 220 L224 220 L315 -6 L507 0 Z" /><glyph glyph-name="" unicode="&#x43b;" d="M-7 130 L15 -3 Q27 -7 40 -9 Q54 -11 61 -11 Q137 -11 185 55 Q233 121 241 247 L247 383 L307 383 L307 0 L469 0 L469 519 L94 519 L87 309 Q84 204 63 166 Q42 128 -7 130 L-7 130 Z" /><glyph glyph-name="" unicode="&#x43c;" d="M296 76 L315 76 L403 270 L406 269 L406 0 L569 0 L569 519 L433 519 L305 256 L178 519 L42 519 L42 0 L204 0 L204 269 L208 270 L296 76 Z" /><glyph glyph-name="" unicode="&#x43d;" d="M484 519 L321 519 L321 342 L204 342 L204 519 L42 519 L42 0 L204 0 L204 220 L321 220 L321 0 L484 0 L484 519 Z" /><glyph glyph-name="" unicode="&#x43e;" d="M253 525 Q151 524 89 456 Q28 388 26 259 Q28 134 89 65 Q151 -5 253 -6 Q354 -5 416 65 Q477 134 479 259 Q477 388 416 456 Q354 524 253 525 L253 525 ZM253 388 Q281 387 299 353 Q316 319 317 259 Q316 200 299 166 Q281 132 253 131 Q224 132 206 166 Q189 200 188 259 Q189 319 206 353 Q224 387 253 388 L253 388 Z" /><glyph glyph-name="" unicode="&#x43f;" d="M321 0 L484 0 L484 519 L42 519 L42 0 L204 0 L204 383 L321 383 L321 0 Z" /><glyph glyph-name="" unicode="&#x440;" d="M42 519 L42 -208 L204 -208 L204 27 L207 28 Q227 11 244 2 Q261 -6 284 -6 Q381 -5 438 64 Q494 134 495 260 Q493 386 440 455 Q388 524 312 525 Q274 524 247 505 Q220 486 198 457 L195 458 L175 519 L42 519 ZM332 260 Q331 202 312 172 Q293 142 266 142 Q245 142 231 149 Q218 155 204 168 L204 316 Q212 341 228 359 Q244 376 266 377 Q294 377 313 347 Q331 318 332 260 L332 260 Z" /><glyph glyph-name="" unicode="&#x441;" d="M424 474 Q392 500 355 512 Q318 525 251 525 Q147 524 87 455 Q27 385 26 259 Q27 133 87 64 Q147 -5 251 -6 Q318 -6 355 7 Q392 20 424 45 L363 177 Q339 158 314 146 Q288 133 250 132 Q224 132 207 164 Q189 196 188 259 Q189 322 207 355 Q224 387 250 387 Q288 386 314 374 Q339 361 363 342 L424 474 Z" /><glyph glyph-name="" unicode="&#x442;" d="M129 383 L129 0 L291 0 L291 383 L403 383 L403 519 L16 519 L16 383 L129 383 Z" /><glyph glyph-name="" unicode="&#x443;" d="M86 -208 L243 -214 L491 519 L314 525 L246 219 L243 219 L176 525 L-2 519 L165 30 L86 -208 Z" /><glyph glyph-name="" unicode="&#x444;" d="M286 795 L286 493 L284 492 Q264 509 245 518 Q226 526 211 526 Q127 525 77 456 Q27 386 26 260 Q27 134 77 64 Q127 -5 211 -6 Q228 -6 246 2 Q265 11 284 28 L286 27 L286 -208 L448 -208 L448 27 L450 28 Q470 11 488 2 Q506 -6 523 -6 Q607 -5 657 64 Q707 134 708 260 Q707 386 657 456 Q607 525 523 526 Q508 526 489 518 Q470 509 450 492 L448 493 L448 795 L286 795 ZM546 260 Q545 202 533 172 Q521 142 505 142 Q485 142 472 149 Q459 155 448 168 L448 352 Q459 365 472 371 Q485 378 505 378 Q520 378 533 348 Q545 318 546 260 L546 260 ZM188 260 Q189 318 201 348 Q214 378 229 378 Q249 378 262 371 Q275 365 286 352 L286 168 Q275 155 262 149 Q249 142 229 142 Q213 142 201 172 Q189 202 188 260 L188 260 Z" /><glyph glyph-name="" unicode="&#x445;" d="M206 525 L17 519 L152 277 L-5 0 L185 -6 L253 164 L321 -6 L511 0 L353 277 L489 519 L300 525 L253 393 L206 525 Z" /><glyph glyph-name="" unicode="&#x446;" d="M394 -151 L534 -145 L534 136 L468 136 L468 519 L305 519 L305 136 L204 136 L204 519 L42 519 L42 0 L394 0 L394 -151 Z" /><glyph glyph-name="" unicode="&#x447;" d="M456 0 L456 519 L293 519 L293 301 Q277 290 264 286 Q252 282 240 282 Q217 280 199 299 Q182 318 181 381 L181 519 L19 519 L19 391 Q22 243 71 188 Q120 133 182 136 Q212 136 238 143 Q264 149 293 167 L293 0 L456 0 Z" /><glyph glyph-name="" unicode="&#x448;" d="M687 0 L687 519 L524 519 L524 136 L441 136 L441 519 L288 519 L288 136 L204 136 L204 519 L42 519 L42 0 L687 0 Z" /><glyph glyph-name="" unicode="&#x453;" d="M42 0 L204 0 L204 383 L374 383 L374 519 L42 519 L42 0 ZM117 585 L249 585 L347 748 L181 748 L117 585 Z" /><glyph glyph-name="" unicode="&#x455;" d="M192 161 Q192 145 182 139 Q173 132 153 132 Q146 131 125 136 Q103 140 64 158 L19 45 Q58 18 95 6 Q132 -6 166 -6 Q248 -6 295 38 Q342 82 343 166 Q333 285 259 315 Q186 346 175 368 Q176 385 189 389 Q202 393 213 392 Q216 392 238 386 Q261 380 290 362 L336 480 Q299 507 265 516 Q231 526 199 525 Q109 523 69 475 Q29 428 30 365 Q40 247 111 218 Q182 190 192 161 L192 161 Z" /><glyph glyph-name="" unicode="&#x458;" d="M238 519 L76 519 L76 16 Q76 -24 53 -47 Q29 -71 -19 -72 L4 -206 Q16 -210 29 -212 Q42 -214 49 -214 Q130 -214 183 -158 Q236 -101 238 12 L238 519 ZM69 674 Q70 632 95 604 Q119 576 157 575 Q194 576 219 604 Q244 632 245 674 Q244 716 219 744 Q194 773 157 774 Q119 773 95 744 Q70 716 69 674 L69 674 Z" /><glyph glyph-name="" unicode="&#x459;" d="M497 221 Q514 221 526 210 Q538 198 538 171 Q538 145 526 133 Q514 122 497 122 L472 122 L472 221 L497 221 ZM94 519 L87 309 Q84 204 63 166 Q42 128 -7 130 L15 -3 Q27 -7 40 -9 Q54 -11 61 -11 Q137 -11 185 55 Q233 121 241 247 L247 383 L309 383 L309 0 L543 0 Q616 2 654 50 Q692 98 692 171 Q692 244 654 292 Q616 340 543 342 L472 342 L472 519 L94 519 Z" /><glyph glyph-name="" unicode="&#x45a;" d="M471 342 L471 519 L309 519 L309 342 L204 342 L204 519 L42 519 L42 0 L204 0 L204 220 L309 220 L309 0 L542 0 Q615 2 653 50 Q692 98 692 171 Q692 244 653 292 Q615 340 542 342 L471 342 ZM496 221 Q513 221 525 210 Q537 198 537 171 Q537 145 525 133 Q513 122 496 122 L471 122 L471 221 L496 221 Z" /><glyph glyph-name="" unicode="&#x45c;" d="M161 585 L292 585 L390 748 L224 748 L161 585 ZM507 0 L365 274 L479 519 L292 525 L222 326 L204 326 L204 519 L42 519 L42 0 L204 0 L204 220 L224 220 L315 -6 L507 0 Z" /><glyph glyph-name="" unicode="&#x45f;" d="M190 -151 L335 -145 L335 0 L484 0 L484 519 L321 519 L321 136 L204 136 L204 519 L42 519 L42 0 L190 0 L190 -151 Z" /><glyph glyph-name="" unicode="¤" d="M190 354 Q191 406 214 440 Q238 475 273 476 Q308 475 332 440 Q356 406 357 354 Q356 302 332 268 Q308 234 273 233 Q238 234 214 268 Q191 302 190 354 L190 354 ZM119 66 L177 138 Q219 105 273 104 Q324 105 369 138 L427 66 L507 155 L449 226 Q461 254 468 286 Q474 318 474 354 Q474 389 468 421 Q461 453 449 481 L507 553 L427 642 L369 570 Q347 587 323 596 Q299 605 273 605 Q246 605 222 596 Q197 587 176 570 L119 642 L38 553 L96 481 Q85 452 79 421 Q73 389 73 354 Q73 319 79 287 Q85 255 96 227 L38 155 L119 66 Z" /><glyph glyph-name="" unicode="&#x400;" d="M497 600 L497 748 L40 748 L40 0 L497 0 L497 148 L213 148 L213 316 L463 316 L463 460 L213 460 L213 600 L497 600 ZM296 959 L131 959 L228 796 L360 796 L296 959 Z" /><glyph glyph-name="" unicode="&#x40d;" d="M413 422 L416 420 L416 0 L590 0 L590 748 L486 748 L217 319 L213 321 L213 748 L40 748 L40 0 L146 0 L413 422 ZM353 959 L188 959 L285 796 L417 796 L353 959 Z" /><glyph glyph-name="" unicode="&#x450;" d="M266 748 L100 748 L198 585 L330 585 L266 748 ZM457 259 Q457 385 405 455 Q352 524 245 525 Q143 524 85 455 Q27 385 26 259 Q27 133 90 64 Q153 -5 262 -6 Q313 -6 357 7 Q402 20 437 45 L392 158 Q363 140 328 131 Q293 122 261 122 Q231 121 214 139 Q198 157 191 208 L451 208 L457 259 ZM247 407 Q276 407 289 383 Q301 359 301 312 L193 312 Q196 359 208 383 Q221 407 247 407 L247 407 Z" /><glyph glyph-name="" unicode="&#x45d;" d="M292 748 L126 748 L224 585 L356 585 L292 748 ZM318 252 L321 250 L321 0 L484 0 L484 519 L382 519 L208 266 L204 268 L204 519 L42 519 L42 0 L143 0 L318 252 Z" /><glyph glyph-name="" unicode="" d="" /><glyph glyph-name="" unicode="é" d="M457 259 Q457 385 405 455 Q352 524 245 525 Q143 524 85 455 Q27 385 26 259 Q27 133 90 64 Q153 -5 262 -6 Q313 -6 357 7 Q402 20 437 45 L392 158 Q363 140 328 131 Q293 122 261 122 Q231 121 214 139 Q198 157 191 208 L451 208 L457 259 ZM247 407 Q276 407 289 383 Q301 359 301 312 L193 312 Q196 359 208 383 Q221 407 247 407 L247 407 ZM163 585 L295 585 L393 748 L227 748 L163 585 Z" /><glyph glyph-name="" unicode="í" d="M200 0 L200 519 L38 519 L38 0 L200 0 ZM1 585 L133 585 L231 748 L65 748 L1 585 Z" /><glyph glyph-name="" unicode="ì" d="M200 0 L200 519 L38 519 L38 0 L200 0 ZM170 748 L5 748 L102 585 L234 585 L170 748 Z" /><glyph glyph-name="" unicode="î" d="M201 0 L201 519 L39 519 L39 0 L201 0 ZM183 748 L56 748 L-27 585 L76 585 L120 655 L163 585 L266 585 L183 748 Z" /><glyph glyph-name="" unicode="è" d="M457 259 Q457 385 405 455 Q352 524 245 525 Q143 524 85 455 Q27 385 26 259 Q27 133 90 64 Q153 -5 262 -6 Q313 -6 357 7 Q402 20 437 45 L392 158 Q363 140 328 131 Q293 122 261 122 Q231 121 214 139 Q198 157 191 208 L451 208 L457 259 ZM247 407 Q276 407 289 383 Q301 359 301 312 L193 312 Q196 359 208 383 Q221 407 247 407 L247 407 ZM287 748 L122 748 L219 585 L351 585 L287 748 Z" /><glyph glyph-name="" unicode="ê" d="M457 259 Q457 385 405 455 Q352 524 245 525 Q143 524 85 455 Q27 385 26 259 Q27 133 90 64 Q153 -5 262 -6 Q313 -6 357 7 Q402 20 437 45 L392 158 Q363 140 328 131 Q293 122 261 122 Q231 121 214 139 Q198 157 191 208 L451 208 L457 259 ZM247 407 Q276 407 289 383 Q301 359 301 312 L193 312 Q196 359 208 383 Q221 407 247 407 L247 407 ZM313 748 L186 748 L103 585 L206 585 L250 655 L293 585 L396 585 L313 748 Z" /><glyph glyph-name="" unicode="á" d="M447 0 L447 302 Q446 414 389 469 Q333 525 236 525 Q188 525 145 513 Q102 500 60 474 L106 361 Q139 380 162 388 Q186 397 217 397 Q247 398 265 377 Q283 355 283 302 Q268 309 245 312 Q222 315 211 315 Q90 310 57 256 Q25 202 29 159 Q30 85 71 40 Q112 -5 179 -6 Q213 -6 241 12 Q269 30 291 62 L294 61 L314 0 L447 0 ZM239 117 Q217 117 206 132 Q195 147 195 174 Q195 197 206 214 Q216 230 240 231 Q256 231 264 228 Q272 224 283 217 Q282 160 266 138 Q251 116 239 117 L239 117 ZM177 585 L309 585 L407 748 L241 748 L177 585 Z" /><glyph glyph-name="" unicode="à" d="M447 0 L447 302 Q446 414 389 469 Q333 525 236 525 Q188 525 145 513 Q102 500 60 474 L106 361 Q139 380 162 388 Q186 397 217 397 Q247 398 265 377 Q283 355 283 302 Q268 309 245 312 Q222 315 211 315 Q90 310 57 256 Q25 202 29 159 Q30 85 71 40 Q112 -5 179 -6 Q213 -6 241 12 Q269 30 291 62 L294 61 L314 0 L447 0 ZM239 117 Q217 117 206 132 Q195 147 195 174 Q195 197 206 214 Q216 230 240 231 Q256 231 264 228 Q272 224 283 217 Q282 160 266 138 Q251 116 239 117 L239 117 ZM250 748 L85 748 L182 585 L314 585 L250 748 Z" /><glyph glyph-name="" unicode="â" d="M447 0 L447 302 Q446 414 389 469 Q333 525 236 525 Q188 525 145 513 Q102 500 60 474 L106 361 Q139 380 162 388 Q186 397 217 397 Q247 398 265 377 Q283 355 283 302 Q268 309 245 312 Q222 315 211 315 Q90 310 57 256 Q25 202 29 159 Q30 85 71 40 Q112 -5 179 -6 Q213 -6 241 12 Q269 30 291 62 L294 61 L314 0 L447 0 ZM239 117 Q217 117 206 132 Q195 147 195 174 Q195 197 206 214 Q216 230 240 231 Q256 231 264 228 Q272 224 283 217 Q282 160 266 138 Q251 116 239 117 L239 117 ZM318 748 L191 748 L108 585 L211 585 L255 655 L298 585 L401 585 L318 748 Z" /><glyph glyph-name="" unicode="ä" d="M447 0 L447 302 Q446 414 389 469 Q333 525 236 525 Q188 525 145 513 Q102 500 60 474 L106 361 Q139 380 162 388 Q186 397 217 397 Q247 398 265 377 Q283 355 283 302 Q268 309 245 312 Q222 315 211 315 Q90 310 57 256 Q25 202 29 159 Q30 85 71 40 Q112 -5 179 -6 Q213 -6 241 12 Q269 30 291 62 L294 61 L314 0 L447 0 ZM239 117 Q217 117 206 132 Q195 147 195 174 Q195 197 206 214 Q216 230 240 231 Q256 231 264 228 Q272 224 283 217 Q282 160 266 138 Q251 116 239 117 L239 117 ZM83 672 Q84 636 104 612 Q125 587 156 586 Q189 587 209 611 Q229 635 230 672 Q229 709 207 731 Q185 753 154 754 Q125 753 104 729 Q84 705 83 672 L83 672 ZM272 672 Q273 636 293 612 Q314 587 345 586 Q378 587 399 611 Q419 635 420 672 Q419 709 397 731 Q374 753 343 754 Q314 753 293 729 Q273 705 272 672 L272 672 Z" /><glyph glyph-name="" unicode="ã" d="M447 0 L447 302 Q446 414 389 469 Q333 525 236 525 Q188 525 145 513 Q102 500 60 474 L106 361 Q139 380 162 388 Q186 397 217 397 Q247 398 265 377 Q283 355 283 302 Q268 309 245 312 Q222 315 211 315 Q90 310 57 256 Q25 202 29 159 Q30 85 71 40 Q112 -5 179 -6 Q213 -6 241 12 Q269 30 291 62 L294 61 L314 0 L447 0 ZM239 117 Q217 117 206 132 Q195 147 195 174 Q195 197 206 214 Q216 230 240 231 Q256 231 264 228 Q272 224 283 217 Q282 160 266 138 Q251 116 239 117 L239 117 ZM398 699 Q376 727 355 735 Q335 744 324 743 Q278 741 255 726 Q232 710 206 708 Q198 708 184 712 Q169 717 149 733 L127 633 Q151 605 172 597 Q193 588 203 589 Q238 591 268 607 Q298 622 321 624 Q329 625 343 620 Q357 615 376 599 L398 699 Z" /><glyph glyph-name="" unicode="å" d="M447 0 L447 302 Q446 414 389 469 Q333 525 236 525 Q188 525 145 513 Q102 500 60 474 L106 361 Q139 380 162 388 Q186 397 217 397 Q247 398 265 377 Q283 355 283 302 Q268 309 245 312 Q222 315 211 315 Q90 310 57 256 Q25 202 29 159 Q30 85 71 40 Q112 -5 179 -6 Q213 -6 241 12 Q269 30 291 62 L294 61 L314 0 L447 0 ZM239 117 Q217 117 206 132 Q195 147 195 174 Q195 197 206 214 Q216 230 240 231 Q256 231 264 228 Q272 224 283 217 Q282 160 266 138 Q251 116 239 117 L239 117 ZM152 685 Q153 638 177 607 Q202 575 244 574 Q287 575 312 607 Q336 638 337 685 Q336 732 312 763 Q287 795 244 796 Q202 795 177 763 Q153 732 152 685 L152 685 ZM204 685 Q204 710 214 728 Q224 745 244 746 Q265 745 275 728 Q285 710 285 685 Q285 660 275 642 Q265 625 244 624 Q224 625 214 642 Q204 660 204 685 L204 685 Z" /><glyph glyph-name="" unicode="ó" d="M253 525 Q151 524 89 456 Q28 388 26 259 Q28 134 89 65 Q151 -5 253 -6 Q354 -5 416 65 Q477 134 479 259 Q477 388 416 456 Q354 524 253 525 L253 525 ZM253 388 Q281 387 299 353 Q316 319 317 259 Q316 200 299 166 Q281 132 253 131 Q224 132 206 166 Q189 200 188 259 Q189 319 206 353 Q224 387 253 388 L253 388 ZM169 585 L301 585 L399 748 L233 748 L169 585 Z" /><glyph glyph-name="" unicode="ò" d="M253 525 Q151 524 89 456 Q28 388 26 259 Q28 134 89 65 Q151 -5 253 -6 Q354 -5 416 65 Q477 134 479 259 Q477 388 416 456 Q354 524 253 525 L253 525 ZM253 388 Q281 387 299 353 Q316 319 317 259 Q316 200 299 166 Q281 132 253 131 Q224 132 206 166 Q189 200 188 259 Q189 319 206 353 Q224 387 253 388 L253 388 ZM303 748 L138 748 L235 585 L367 585 L303 748 Z" /><glyph glyph-name="" unicode="ô" d="M253 525 Q151 524 89 456 Q28 388 26 259 Q28 134 89 65 Q151 -5 253 -6 Q354 -5 416 65 Q477 134 479 259 Q477 388 416 456 Q354 524 253 525 L253 525 ZM253 388 Q281 387 299 353 Q316 319 317 259 Q316 200 299 166 Q281 132 253 131 Q224 132 206 166 Q189 200 188 259 Q189 319 206 353 Q224 387 253 388 L253 388 ZM316 748 L189 748 L106 585 L209 585 L253 655 L296 585 L399 585 L316 748 Z" /><glyph glyph-name="" unicode="ö" d="M253 525 Q151 524 89 456 Q28 388 26 259 Q28 134 89 65 Q151 -5 253 -6 Q354 -5 416 65 Q477 134 479 259 Q477 388 416 456 Q354 524 253 525 L253 525 ZM253 388 Q281 387 299 353 Q316 319 317 259 Q316 200 299 166 Q281 132 253 131 Q224 132 206 166 Q189 200 188 259 Q189 319 206 353 Q224 387 253 388 L253 388 ZM84 672 Q85 636 105 612 Q126 587 157 586 Q190 587 210 611 Q230 635 231 672 Q230 709 208 731 Q186 753 155 754 Q126 753 105 729 Q85 705 84 672 L84 672 ZM273 672 Q274 636 294 612 Q315 587 346 586 Q379 587 400 611 Q420 635 421 672 Q420 709 398 731 Q375 753 344 754 Q315 753 294 729 Q274 705 273 672 L273 672 Z" /><glyph glyph-name="" unicode="õ" d="M253 525 Q151 524 89 456 Q28 388 26 259 Q28 134 89 65 Q151 -5 253 -6 Q354 -5 416 65 Q477 134 479 259 Q477 388 416 456 Q354 524 253 525 L253 525 ZM253 388 Q281 387 299 353 Q316 319 317 259 Q316 200 299 166 Q281 132 253 131 Q224 132 206 166 Q189 200 188 259 Q189 319 206 353 Q224 387 253 388 L253 388 ZM388 699 Q366 727 345 735 Q325 744 314 743 Q268 741 245 726 Q222 710 196 708 Q188 708 174 712 Q159 717 139 733 L117 633 Q141 605 162 597 Q183 588 193 589 Q228 591 258 607 Q288 622 311 624 Q319 625 333 620 Q347 615 366 599 L388 699 Z" /><glyph glyph-name="" unicode="í" d="M213 0 L213 748 L40 748 L40 0 L213 0 ZM11 795 L143 795 L241 958 L75 958 L11 795 Z" /><glyph glyph-name="" unicode="î" d="M213 0 L213 748 L40 748 L40 0 L213 0 ZM190 958 L63 958 L-20 795 L83 795 L127 865 L170 795 L273 795 L190 958 Z" /><glyph glyph-name="" unicode="ï" d="M213 0 L213 748 L40 748 L40 0 L213 0 ZM-42 881 Q-41 845 -21 821 Q0 796 31 795 Q64 796 84 820 Q104 844 105 881 Q104 918 82 940 Q60 962 29 963 Q0 962 -21 938 Q-41 914 -42 881 L-42 881 ZM147 881 Q148 845 168 821 Q189 796 220 795 Q253 796 274 820 Q294 844 295 881 Q294 918 272 940 Q249 962 218 963 Q189 962 168 938 Q148 914 147 881 L147 881 Z" /><glyph glyph-name="" unicode="ì" d="M213 0 L213 748 L40 748 L40 0 L213 0 ZM177 958 L12 958 L109 795 L241 795 L177 958 Z" /><glyph glyph-name="" unicode="&#xf8ff;" d="M645 530 L727 585 Q730 587 733 588 Q735 589 739 589 Q745 589 750 585 Q754 582 754 575 Q754 573 753 570 Q751 566 749 564 L714 530 L831 530 Q837 530 842 525 Q846 521 846 514 Q846 507 842 504 Q837 500 831 500 L750 500 L754 487 L867 487 Q874 487 877 483 Q881 478 881 473 Q881 465 877 461 Q874 457 867 457 L759 457 L759 443 L844 443 Q850 443 855 439 Q859 436 859 429 Q859 422 855 418 Q850 413 844 413 L754 413 L750 401 L820 401 Q825 401 830 396 Q834 392 834 385 Q834 379 830 375 Q825 370 820 370 L643 370 L643 85 L476 85 L476 370 L299 370 Q294 370 289 375 Q285 379 285 385 Q285 392 289 396 Q294 401 299 401 L369 401 L364 413 L275 413 Q269 413 265 418 Q260 422 260 429 Q260 436 265 439 Q269 443 275 443 L360 443 L360 457 L252 457 Q246 457 242 461 Q238 465 238 473 Q238 478 242 483 Q246 487 252 487 L364 487 L369 500 L288 500 Q282 500 278 504 Q273 507 273 514 Q273 521 278 525 Q282 530 288 530 L405 530 L370 564 Q368 566 366 570 Q365 573 365 575 Q365 582 370 585 Q374 589 380 589 Q388 589 392 585 L474 530 L645 530 ZM919 39 Q924 39 927 36 Q930 33 930 28 Q930 23 927 20 Q924 17 919 17 L905 17 L905 39 L919 39 ZM146 376 Q150 201 267 84 Q384 -33 559 -37 Q734 -33 851 84 Q968 201 972 376 Q968 551 851 668 Q734 785 559 789 Q384 785 267 668 Q150 551 146 376 L146 376 ZM863 17 Q864 -6 879 -21 Q894 -36 917 -37 Q940 -36 956 -21 Q971 -6 972 17 Q971 40 956 56 Q940 71 917 72 Q894 71 879 56 Q864 40 863 17 L863 17 ZM871 17 Q872 36 885 50 Q898 63 917 64 Q936 63 950 50 Q963 36 964 17 Q963 -2 950 -15 Q936 -28 917 -29 Q898 -28 885 -15 Q872 -2 871 17 L871 17 ZM930 -11 L941 -11 L925 9 Q931 11 935 16 Q939 21 939 28 Q939 36 933 42 Q927 48 919 48 L896 48 L896 -11 L905 -11 L905 8 L915 8 L930 -11 Z" /></font>
</defs>
</svg>
