<svg xmlns="http://www.w3.org/2000/svg" width="864" height="504" viewBox="0 0 864 504"><g fill="#bf616a"><path d="M362 178.3v56h-24.7v-90.8h4.3l16 21.5v-21.5h4.5l25 29.2 24.7-29.2h4.4V230h16v-86.5h4.4v90.7h-24.7v-84L389 176.5h-4.3L362 150v21.6l25.8 32.5-3 2.7-22.8-28.4zm-4.4 51.6V172l-16-21.6V230h16zM471.4 230v-68.6h4.3v72.8H451v-90.7h24.7v4.3h-20.3v82h16zM562.8 234.2l-16-27.4v27.4h-4.4l-27.4-46v46h-24.7v-90.7h4.3V230h16v-46.2h6.8l25 42v-26.5l-31.2-53.6 3.8-2.2 27.4 47.2v-47.2H567v90.7H563zm-16-36l16 27.6v-78h-16v50.4zM663.3 189c0 25.6-17.7 45.2-44 45.2h-37.6v-56h4.3v51.7h33.3c23.5 0 39.6-17.7 39.6-41 0-23.6-16.2-41.2-39.7-41.2h-13v13.6H617c13 0 25 13.3 25 27.5s-12 27.3-25 27.3H602v-50.5h-20.3v-4.4H602v-18h17.3c26.3 0 44 19.7 44 45.5zm-57 23H617c11.6 0 20.5-11.8 20.5-23 0-11.5-9-23.2-20.5-23.2h-10.4V212z"/></g><g fill="#bf616a"><path d="M185.4 96.3v-47h20.3v-26h22c7.7 0 13.4 7.8 13.4 15.3 0 3.8-1.5 7.7-4 10.5l7 14.3c8.7-5 14.4-14 14.4-24.7 0-16.4-13-28.8-30-28.8h-43V5.5h43c19 0 34.2 14 34.2 33 0 12.7-6.6 23-16.7 28.6l14.5 29.3H233l-11.2-24.7h-16v-18h-16V92H210v4.3h-24.6zm39-29h4c4.2 0 8.2-.8 12-2.2l-8.6-17c3-2 5-6.2 5-9.4 0-4.5-3.7-10.8-9.2-10.8H210v21.5h6.3l8 18zm-11-13.6H210v13.5h9.7l-6.2-13.5zm22 38.2h18.2l-11.4-23c-4.2 1.6-9 2.6-13.8 2.6h-2l9 20.3zM292.6 83l5-17h-15.4l-9 26H293v4.3h-26l12.2-34.5h19.6l9.4-32.7h6.5l9.8 37H302l-3.6 12.5H329l4.2 13.4H350L320.7 9.7h-18.6l-14 39.7L284 48l15-42.5H324L356 96.3h-26L326 83h-33.4zm10.7-21.2H319l-7.5-28.3-8.2 28.3zM362 51c0 23.7 19.4 43 43.2 43 13.8 0 26.6-6.8 34.5-17.4l-13.8-8c-6 6-13.2 9.4-20.8 9.4-21 0-39.7-16-39.7-37.3s18.7-37.2 39.7-37.2c17.3 0 32.4 9.3 40.6 23l-21 12.8c-4-6.5-11.4-11-19.6-11-12.6 0-22.7 10-22.7 22.6H378c0-15 12.2-27.2 27.2-27.2 7.6 0 15 3.3 20.7 9.6l13.7-8c-8-10.8-21.2-17.6-34.5-17.6-18.6 0-35.3 14-35.3 33s16.6 33 35.2 33c8.2 0 15.5-4.7 19.5-11.3l21 12.7c-8 13.8-23.2 23-40.5 23-26.2 0-47.4-21-47.4-47.3h4.3zM526.7 5.5v22.3h-4.3v-18h-65.6v13.6h45v73h-24.5V40.8h4.3v51h16V27.7h-45V5.5h74zM546 83l5-17h-15.3l-9 26h19.6v4.3h-26l12.3-34.5h19.6l9.5-32.7h6.5l9.8 37h-22.5L552 78.5h30.5l4.2 13.4h16.7L574.2 9.7h-18.6l-14 39.7-4-1.4 15-42.5h24.7l32 90.8h-25.7L579.3 83H546zm10.7-21.2h15.7L565 33.5l-8.3 28.3zM618.5 78.3V5.5h24.7v55H639V9.8h-16.3V74h61.7v22.3h-66V92h61.8V78.2h-61.7zM761.6 27.8h-47.8v-4.4h43.4V10h-59.4v30h55.4v21.8h-35V74h43.4v22.3h-68v-39h4.2V92h59.4V78.3h-43.4v-21h35v-13h-55.3v-39h68V28zM854.4 51c0 25.7-17.6 45.3-44 45.3H773V40h4.4v52h33c23.6 0 39.7-17.6 39.7-41 0-23.6-16-41-39.5-41h-12.8v13.4H808c13.2 0 25 13.4 25 27.5S821 78.3 808 78.3h-14.6V27.8H773v-4.4h20.3v-18h17.2c26.3 0 44 19.7 44 45.5zm-56.7 23H808c11.6 0 20.5-11.7 20.5-23 0-11.5-9-23.2-20.4-23.2h-10.3V74z"/></g><path fill="#bf616a" d="M178.8 30.2V5.5h-66v45l20.3.2.2 16h-20.4V71h20.4v21h-20.4V96h24.7V71h33V46.4h-33V30.2h41.3zM166 50.7v16h-28.5v-16H166zM133.2 26v20.4h-16V9.8h57.3v16h-41.3z"/><path fill-rule="evenodd" clip-rule="evenodd" fill="#343C45" d="M112.8 66.7h24.7V71h-24.7z"/><path fill="#343C45" d="M133.2 46.3h4.3V71h-4.3zM112.8 26h4.3v24.6H113z"/><path fill="#343C45" d="M112.8 46.3h24.7v4.3h-24.7zM72 26h4.3v24.6H72z"/><path fill="#343C45" d="M72 46.3h24.7v4.3H72zM92.4 26H117V30H92.5z"/><path fill="#343C45" d="M92.4 26h4.3v24.6h-4.3zM31.2 66.7h4.3v24.7h-4.3zM31.2 87H56v4.4H31zM51.6 66.7h24.7V71H51.6z"/><path fill="#343C45" d="M51.6 66.7H56v24.7h-4.4zM51.6 26h24.7V30H51.6z"/><path fill="#343C45" d="M51.6 26H56v24.6h-4.4zM72 46.3h4.3V71H72z"/><path fill="#343C45" d="M51.6 46.3h24.7v4.3H51.6zM31.2 148.3h4.3V173h-4.3zM31.2 168.7H56v4.3H31zM51.6 148.3h24.7v4.3H51.6z"/><path fill="#343C45" d="M51.6 148.3H56V173h-4.4zM51.6 107.5h24.7v4.3H51.6z"/><path fill="#343C45" d="M51.6 107.5H56v24.7h-4.4zM72 128h4.3v24.6H72z"/><path fill="#343C45" d="M51.6 128h24.7v4.2H51.6zM10.8 66.7h24.7V71H10.8z"/><path fill="#343C45" d="M10.8 66.7H15v24.7H11zM31.2 87h4.3V112h-4.3z"/><path fill="#343C45" d="M10.8 87h24.7v4.4H10.8zM72 87h4.3V112H72z"/><path fill="#343C45" d="M51.6 87h24.7v4.4H51.6zM31.2 107.5H56v4.3H31z"/><path fill="#343C45" d="M51.6 87H56V112h-4.4zM112.8 230h4.3v24.6H113z"/><path fill="#343C45" d="M112.8 250.3h24.7v4.3h-24.7zM133.2 230H158v4.2H133z"/><path fill="#343C45" d="M133.2 230h4.3v24.6h-4.3zM133.2 189H158v4.4H133zM133.2 189h4.3V214h-4.3zM153.6 209.5h4.3v24.7h-4.4zM133.2 209.5H158v4.3H133zM92.4 148.3H117v4.3H92.5z"/><path fill="#343C45" d="M92.4 148.3h4.3V173h-4.3zM112.8 168.7h4.3v24.7H113z"/><path fill="#343C45" d="M92.4 168.7H117v4.3H92.5zM153.6 168.7h4.3v24.7h-4.4zM133.2 168.7H158v4.3H133zM112.8 189h24.7v4.4h-24.7z"/><path fill="#343C45" d="M133.2 168.7h4.3v24.7h-4.3zM10.8 148.3h24.7v4.3H10.8z"/><path fill="#343C45" d="M10.8 148.3H15V173H11zM31.2 168.7h4.3v24.7h-4.3z"/><path fill="#343C45" d="M10.8 168.7h24.7v4.3H10.8zM72 168.7h4.3v24.7H72z"/><path fill="#343C45" d="M51.6 168.7h24.7v4.3H51.6zM31.2 189H56v4.4H31z"/><path fill="#343C45" d="M51.6 168.7H56v24.7h-4.4zM112.8 128h4.3v24.6H113z"/><path fill="#343C45" d="M92.4 128H117v4.2H92.5zM72 148.3h24.7v4.3H72z"/><path fill="#343C45" d="M92.4 128h4.3v24.6h-4.3zM72 189h24.7v4.4H72z"/><path fill="#343C45" d="M92.4 168.7h4.3v24.7h-4.3zM72 148.3h4.3V173H72z"/><path fill="#343C45" d="M72 168.7h24.7v4.3H72zM276 230h4.3v24.6H276z"/><path fill="#343C45" d="M276 250.3h24.7v4.3H276zM296.4 230H321v4.2h-24.6z"/><path fill="#343C45" d="M296.4 230h4.3v24.6h-4.3zM296.4 189H321v4.4h-24.6z"/><path fill="#343C45" d="M296.4 189h4.3V214h-4.3zM316.8 209.5h4.3v24.7H317z"/><path fill="#343C45" d="M296.4 209.5H321v4.3h-24.6zM255.6 148.3h24.7v4.3h-24.7z"/><path fill="#343C45" d="M255.6 148.3h4.3V173h-4.4zM276 168.7h4.3v24.7H276z"/><path fill="#343C45" d="M255.6 168.7h24.7v4.3h-24.7zM316.8 168.7h4.3v24.7H317z"/><path fill="#343C45" d="M296.4 168.7H321v4.3h-24.6zM276 189h24.7v4.4H276z"/><path fill="#343C45" d="M296.4 168.7h4.3v24.7h-4.3zM174 148.3h24.7v4.3H174z"/><path fill="#343C45" d="M174 148.3h4.3V173H174zM194.4 168.7h4.3v24.7h-4.3z"/><path fill="#343C45" d="M174 168.7h24.7v4.3H174zM235.2 168.7h4.3v24.7h-4.3z"/><path fill="#343C45" d="M214.8 168.7h24.7v4.3h-24.7zM194.4 189H219v4.4h-24.6z"/><path fill="#343C45" d="M214.8 168.7h4.3v24.7H215zM276 128h4.3v24.6H276z"/><path fill="#343C45" d="M255.6 128h24.7v4.2h-24.7zM235.2 148.3H260v4.3H235z"/><path fill="#343C45" d="M255.6 128h4.3v24.6h-4.4zM235.2 189H260v4.4H235z"/><path fill="#343C45" d="M255.6 168.7h4.3v24.7h-4.4zM235.2 148.3h4.3V173h-4.3zM235.2 168.7H260v4.3H235zM92.4 230H117v4.2H92.5z"/><path fill="#343C45" d="M92.4 230h4.3v24.6h-4.3zM112.8 250.3h4.3V275H113z"/><path fill="#343C45" d="M92.4 250.3H117v4.3H92.5zM153.6 250.3h4.3V275h-4.4zM133.2 250.3H158v4.3H133zM112.8 270.7h24.7v4.3h-24.7z"/><path fill="#343C45" d="M133.2 250.3h4.3V275h-4.3zM194.4 209.5h4.3v24.7h-4.3z"/><path fill="#343C45" d="M174 209.5h24.7v4.3H174zM153.6 230h24.7v4.2h-24.7z"/><path fill="#343C45" d="M174 209.5h4.3v24.7H174zM153.6 270.7h24.7v4.3h-24.7z"/><path fill="#343C45" d="M174 250.3h4.3V275H174zM153.6 230h4.3v24.6h-4.4z"/><path fill="#343C45" d="M153.6 250.3h24.7v4.3h-24.7zM194.4 128h4.3v24.6h-4.3z"/><path fill="#343C45" d="M174 128h24.7v4.2H174zM153.6 148.3h24.7v4.3h-24.7z"/><path fill="#343C45" d="M174 128h4.3v24.6H174zM153.6 189h24.7v4.4h-24.7z"/><path fill="#343C45" d="M174 168.7h4.3v24.7H174zM153.6 148.3h4.3V173h-4.4z"/><path fill="#343C45" d="M153.6 168.7h24.7v4.3h-24.7zM194.4 230H219v4.2h-24.6z"/><path fill="#343C45" d="M214.8 209.5h4.3v24.7H215zM194.4 189h4.3V214h-4.3z"/><path fill="#343C45" d="M194.4 209.5H219v4.3h-24.6zM153.6 189h4.3V214h-4.4z"/><path fill="#343C45" d="M153.6 209.5h24.7v4.3h-24.7zM174 189h24.7v4.4H174z"/><path fill="#343C45" d="M174 189h4.3V214H174zM112.8 372.7h4.3v24.7H113z"/><g><path fill="#343C45" d="M92.4 372.7H117v4.3H92.5z"/></g><g><path fill="#343C45" d="M72 393h24.7v4.4H72z"/></g><g><path fill="#343C45" d="M92.4 372.7h4.3v24.7h-4.3z"/></g><g><path fill="#343C45" d="M72 434h24.7v4.2H72z"/></g><g><path fill="#343C45" d="M92.4 413.5h4.3v24.7h-4.3z"/></g><g><path fill="#343C45" d="M72 393h4.3V418H72z"/></g><g><path fill="#343C45" d="M72 413.5h24.7v4.3H72z"/></g><g><path fill="#343C45" d="M112.8 474.7h24.7v4.3h-24.7z"/></g><g><path fill="#343C45" d="M133.2 454.3h4.3V479h-4.3z"/></g><g><path fill="#343C45" d="M112.8 434h4.3v24.6H113z"/></g><g><path fill="#343C45" d="M112.8 454.3h24.7v4.3h-24.7z"/></g><g><path fill="#343C45" d="M72 434h4.3v24.6H72z"/></g><g><path fill="#343C45" d="M72 454.3h24.7v4.3H72z"/></g><g><path fill="#343C45" d="M92.4 434H117v4.2H92.5z"/></g><g><path fill="#343C45" d="M92.4 434h4.3v24.6h-4.3z"/></g><g><path fill="#343C45" d="M194.4 474.7H219v4.3h-24.6z"/></g><g><path fill="#343C45" d="M214.8 454.3h4.3V479H215z"/></g><g><path fill="#343C45" d="M194.4 434h4.3v24.6h-4.3z"/></g><g><path fill="#343C45" d="M194.4 454.3H219v4.3h-24.6z"/></g><g><path fill="#343C45" d="M153.6 434h4.3v24.6h-4.4z"/></g><g><path fill="#343C45" d="M153.6 454.3h24.7v4.3h-24.7z"/></g><g><path fill="#343C45" d="M174 434h24.7v4.2H174z"/></g><g><path fill="#343C45" d="M174 434h4.3v24.6H174z"/></g><g><path fill="#343C45" d="M112.8 474.7h4.3v24.7H113z"/></g><g><path fill="#343C45" d="M112.8 495h24.7v4.4h-24.7z"/></g><g><path fill="#343C45" d="M133.2 474.7H158v4.3H133z"/></g><g><path fill="#343C45" d="M133.2 474.7h4.3v24.7h-4.3z"/></g><g><path fill="#343C45" d="M133.2 434H158v4.2H133z"/></g><g><path fill="#343C45" d="M133.2 434h4.3v24.6h-4.3z"/></g><g><path fill="#343C45" d="M153.6 454.3h4.3V479h-4.4z"/></g><g><path fill="#343C45" d="M133.2 454.3H158v4.3H133z"/></g><g><path fill="#343C45" d="M276 393h24.7v4.4H276z"/></g><g><path fill="#343C45" d="M296.4 372.7h4.3v24.7h-4.3z"/></g><g><path fill="#343C45" d="M276 352.3h4.3V377H276z"/></g><g><path fill="#343C45" d="M276 372.7h24.7v4.3H276z"/></g><g><path fill="#343C45" d="M235.2 352.3h4.3V377h-4.3z"/></g><g><path fill="#343C45" d="M235.2 372.7H260v4.3H235z"/></g><g><path fill="#343C45" d="M255.6 352.3h24.7v4.3h-24.7z"/></g><g><path fill="#343C45" d="M255.6 352.3h4.3V377h-4.4z"/></g><g><path fill="#343C45" d="M194.4 393h4.3V418h-4.3z"/></g><g><path fill="#343C45" d="M194.4 413.5H219v4.3h-24.6z"/></g><g><path fill="#343C45" d="M214.8 393h24.7v4.4h-24.7z"/></g><g><path fill="#343C45" d="M214.8 393h4.3V418H215z"/></g><g><path fill="#343C45" d="M214.8 352.3h24.7v4.3h-24.7z"/></g><g><path fill="#343C45" d="M214.8 352.3h4.3V377H215z"/></g><g><path fill="#343C45" d="M235.2 372.7h4.3v24.7h-4.3z"/></g><g><path fill="#343C45" d="M214.8 372.7h24.7v4.3h-24.7z"/></g><g><path fill="#343C45" d="M194.4 474.7h4.3v24.7h-4.3z"/></g><g><path fill="#343C45" d="M194.4 495H219v4.4h-24.6z"/></g><g><path fill="#343C45" d="M214.8 474.7h24.7v4.3h-24.7z"/></g><g><path fill="#343C45" d="M214.8 474.7h4.3v24.7H215z"/></g><g><path fill="#343C45" d="M214.8 434h24.7v4.2h-24.7z"/></g><g><path fill="#343C45" d="M214.8 434h4.3v24.6H215z"/></g><g><path fill="#343C45" d="M235.2 454.3h4.3V479h-4.3z"/></g><g><path fill="#343C45" d="M214.8 454.3h24.7v4.3h-24.7z"/></g><g><path fill="#343C45" d="M174 393h24.7v4.4H174z"/></g><g><path fill="#343C45" d="M174 393h4.3V418H174z"/></g><g><path fill="#343C45" d="M194.4 413.5h4.3v24.7h-4.3z"/></g><g><path fill="#343C45" d="M174 413.5h24.7v4.3H174z"/></g><g><path fill="#343C45" d="M235.2 413.5h4.3v24.7h-4.3z"/></g><g><path fill="#343C45" d="M214.8 413.5h24.7v4.3h-24.7z"/></g><g><path fill="#343C45" d="M194.4 434H219v4.2h-24.6z"/></g><g><path fill="#343C45" d="M214.8 413.5h4.3v24.7H215z"/></g><g><path fill="#343C45" d="M276 230h24.7v4.2H276z"/></g><g><path fill="#343C45" d="M296.4 209.5h4.3v24.7h-4.3z"/></g><g><path fill="#343C45" d="M276 189h4.3V214H276z"/></g><g><path fill="#343C45" d="M276 209.5h24.7v4.3H276z"/></g><g><path fill="#343C45" d="M235.2 189h4.3V214h-4.3z"/></g><g><path fill="#343C45" d="M235.2 209.5H260v4.3H235z"/></g><g><path fill="#343C45" d="M255.6 189h24.7v4.4h-24.7z"/></g><g><path fill="#343C45" d="M255.6 189h4.3V214h-4.4z"/></g><g><path fill="#343C45" d="M194.4 230h4.3v24.6h-4.3z"/></g><g><path fill="#343C45" d="M194.4 250.3H219v4.3h-24.6z"/></g><g><path fill="#343C45" d="M214.8 230h24.7v4.2h-24.7z"/></g><g><path fill="#343C45" d="M214.8 230h4.3v24.6H215z"/></g><g><path fill="#343C45" d="M214.8 189h24.7v4.4h-24.7z"/></g><g><path fill="#343C45" d="M214.8 189h4.3V214H215z"/></g><g><path fill="#343C45" d="M235.2 209.5h4.3v24.7h-4.3z"/></g><g><path fill="#343C45" d="M214.8 209.5h24.7v4.3h-24.7z"/></g><g><path fill="#343C45" d="M194.4 311.5h4.3v24.7h-4.3z"/></g><g><path fill="#343C45" d="M194.4 332H219v4.2h-24.6z"/></g><g><path fill="#343C45" d="M214.8 311.5h24.7v4.3h-24.7z"/></g><g><path fill="#343C45" d="M214.8 311.5h4.3v24.7H215z"/></g><g><path fill="#343C45" d="M214.8 270.7h24.7v4.3h-24.7z"/></g><g><path fill="#343C45" d="M214.8 270.7h4.3v24.7H215z"/></g><g><path fill="#343C45" d="M235.2 291h4.3V316h-4.3z"/></g><g><path fill="#343C45" d="M214.8 291h24.7v4.4h-24.7z"/></g><g><path fill="#343C45" d="M174 230h24.7v4.2H174z"/></g><g><path fill="#343C45" d="M174 230h4.3v24.6H174z"/></g><g><path fill="#343C45" d="M194.4 250.3h4.3V275h-4.3z"/></g><g><path fill="#343C45" d="M174 250.3h24.7v4.3H174z"/></g><g><path fill="#343C45" d="M235.2 250.3h4.3V275h-4.3z"/></g><g><path fill="#343C45" d="M214.8 250.3h24.7v4.3h-24.7z"/></g><g><path fill="#343C45" d="M194.4 270.7H219v4.3h-24.6z"/></g><g><path fill="#343C45" d="M214.8 250.3h4.3V275H215z"/></g><g><path fill="#343C45" d="M276 393h4.3V418H276z"/></g><g><path fill="#343C45" d="M276 413.5h24.7v4.3H276z"/></g><g><path fill="#343C45" d="M296.4 393H321v4.4h-24.6z"/></g><g><path fill="#343C45" d="M296.4 393h4.3V418h-4.3z"/></g><g><path fill="#343C45" d="M296.4 352.3H321v4.3h-24.6z"/></g><g><path fill="#343C45" d="M296.4 352.3h4.3V377h-4.3z"/></g><g><path fill="#343C45" d="M316.8 372.7h4.3v24.7H317z"/></g><g><path fill="#343C45" d="M296.4 372.7H321v4.3h-24.6z"/></g><g><path fill="#343C45" d="M255.6 311.5h24.7v4.3h-24.7z"/></g><g><path fill="#343C45" d="M255.6 311.5h4.3v24.7h-4.4z"/></g><g><path fill="#343C45" d="M276 332h4.3v24.6H276z"/></g><g><path fill="#343C45" d="M255.6 332h24.7v4.2h-24.7z"/></g><g><path fill="#343C45" d="M316.8 332h4.3v24.6H317z"/></g><g><path fill="#343C45" d="M296.4 332H321v4.2h-24.6z"/></g><g><path fill="#343C45" d="M276 352.3h24.7v4.3H276z"/></g><g><path fill="#343C45" d="M296.4 332h4.3v24.6h-4.3z"/></g><g><path fill="#343C45" d="M174 311.5h24.7v4.3H174z"/></g><g><path fill="#343C45" d="M174 311.5h4.3v24.7H174z"/></g><g><path fill="#343C45" d="M194.4 332h4.3v24.6h-4.3z"/></g><g><path fill="#343C45" d="M174 332h24.7v4.2H174z"/></g><g><path fill="#343C45" d="M235.2 332h4.3v24.6h-4.3z"/></g><g><path fill="#343C45" d="M214.8 332h24.7v4.2h-24.7z"/></g><g><path fill="#343C45" d="M194.4 352.3H219v4.3h-24.6z"/></g><g><path fill="#343C45" d="M214.8 332h4.3v24.6H215z"/></g><g><path fill="#343C45" d="M276 291h4.3V316H276z"/></g><g><path fill="#343C45" d="M255.6 291h24.7v4.4h-24.7z"/></g><g><path fill="#343C45" d="M235.2 311.5H260v4.3H235z"/></g><g><path fill="#343C45" d="M255.6 291h4.3V316h-4.4z"/></g><g><path fill="#343C45" d="M235.2 352.3H260v4.3H235z"/></g><g><path fill="#343C45" d="M255.6 332h4.3v24.6h-4.4z"/></g><g><path fill="#343C45" d="M235.2 311.5h4.3v24.7h-4.3z"/></g><g><path fill="#343C45" d="M235.2 332H260v4.2H235z"/></g></svg>