<?xml version="1.0" encoding="UTF-8" standalone="no"?>
<svg xmlns="http://www.w3.org/2000/svg" viewBox="0 0 1213 488" width="100%" preserveAspectRatio="xMinYMin meet">
  <g fill="none" fill-rule="evenodd">
    <path d="M911 93.3h-24.7V2.5h4.3l16 21.5V2.5h4.5l25 29.2 24.7-29.2h4.4V89h16V2.5h4.4v90.7h-24.7v-84L938 35.5h-4.3L911 9v21.6l25.8 32.5-3 2.7L911 37.4v55.9zm-4.4-4.4V31l-16-21.6V89h16v-.1zm113.8.1V20.4h4.3v72.8H1000V2.5h24.7v4.3h-20.3v82h16v.2zm91.4 4.2l-16-27.4v27.4h-4.4l-27.4-46v46h-24.7V2.5h4.3V89h16V42.8h6.8l25 42V58.3l-31.2-53.6 3.8-2.2 27.4 47.2V2.5h24.6v90.7h-4.2zm-16-36l16 27.6v-78h-16v50.4zm116.5-9.2c0 25.6-17.7 45.2-44 45.2h-37.6v-56h4.3v51.7h33.3c23.5 0 39.6-17.7 39.6-41 0-23.6-16.2-41.2-39.7-41.2h-13v13.6h10.8c13 0 25 13.3 25 27.5s-12 27.3-25 27.3h-15V24.6h-20.3v-4.4h20.3v-18h17.3c26.3 0 44 19.7 44 45.5v.3zm-57 23h10.7c11.6 0 20.5-11.8 20.5-23 0-11.5-9-23.2-20.5-23.2h-10.4V71h-.3zM172.4 93.3v-47h20.3v-26h22c7.7 0 13.4 7.8 13.4 15.3 0 3.8-1.5 7.7-4 10.5l7 14.3c8.7-5 14.4-14 14.4-24.7 0-16.4-13-28.8-30-28.8h-43V2.5h43c19 0 34.2 14 34.2 33 0 12.7-6.6 23-16.7 28.6l14.5 29.3H220l-11.2-24.7h-16v-18h-16V89H197v4.3h-24.6zm39-29h4c4.2 0 8.2-.8 12-2.2l-8.6-17c3-2 5-6.2 5-9.4 0-4.5-3.7-10.8-9.2-10.8H197v21.5h6.3l8 18 .1-.1zm-11-13.6H197v13.5h9.7l-6.2-13.5h-.1zm22 38.2h18.2l-11.4-23c-4.2 1.6-9 2.6-13.8 2.6h-2l9 20.3v.1zm57.2-8.9l5-17h-15.4l-9 26H280v4.3h-26l12.2-34.5h19.6l9.4-32.7h6.5l9.8 37H289l-3.6 12.5H316l4.2 13.4H337L307.7 6.7h-18.6l-14 39.7L271 45l15-42.5h25l32 90.8h-26L313 80h-33.4zm10.7-21.2H306l-7.5-28.3-8.2 28.3zM349 48c0 23.7 19.4 43 43.2 43 13.8 0 26.6-6.8 34.5-17.4l-13.8-8c-6 6-13.2 9.4-20.8 9.4-21 0-39.7-16-39.7-37.3 0-21.3 18.7-37.2 39.7-37.2 17.3 0 32.4 9.3 40.6 23l-21 12.8c-4-6.5-11.4-11-19.6-11-12.6 0-22.7 10-22.7 22.6H365c0-15 12.2-27.2 27.2-27.2 7.6 0 15 3.3 20.7 9.6l13.7-8c-8-10.8-21.2-17.6-34.5-17.6-18.6 0-35.3 14-35.3 33s16.6 33 35.2 33c8.2 0 15.5-4.7 19.5-11.3l21 12.7c-8 13.8-23.2 23-40.5 23-26.2 0-47.4-21-47.4-47.3h4.3l.1.2zM513.7 2.5v22.3h-4.3v-18h-65.6v13.6h45v73h-24.5V37.8h4.3v51h16V24.7h-45V2.5h74.1zM533 80l5-17h-15.3l-9 26h19.6v4.3h-26l12.3-34.5h19.6l9.5-32.7h6.5l9.8 37h-22.5L539 75.5h30.5l4.2 13.4h16.7L561.2 6.7h-18.6l-14 39.7-4-1.4 15-42.5h24.7l32 90.8h-25.7L566.3 80H533zm10.7-21.2h15.7L552 30.5l-8.3 28.3zm61.8 16.5V2.5h24.7v55H626V6.8h-16.3V71h61.7v22.3h-66V89h61.8V75.2h-61.7v.1zm143.1-50.5h-47.8v-4.4h43.4V7h-59.4v30h55.4v21.8h-35V71h43.4v22.3h-68v-39h4.2V89h59.4V75.3h-43.4v-21h35v-13h-55.3v-39h68V25l.1-.2zM841.4 48c0 25.7-17.6 45.3-44 45.3H760V37h4.4v52h33c23.6 0 39.7-17.6 39.7-41 0-23.6-16-41-39.5-41h-12.8v13.4H795c13.2 0 25 13.4 25 27.5s-12 27.4-25 27.4h-14.6V24.8H760v-4.4h20.3v-18h17.2c26.3 0 44 19.7 44 45.5l-.1.1zm-56.7 23H795c11.6 0 20.5-11.7 20.5-23 0-11.5-9-23.2-20.4-23.2h-10.3V71h-.1zM165.8 27.2V2.5h-66v45l20.3.2.2 16H99.9V68h20.4v21H99.9v4h24.7V68h33V43.4h-33V27.2h41.3-.1zM153 47.7v16h-28.5v-16H153zM120.2 23v20.4h-16V6.8h57.3v16h-41.3v.2z" fill-rule="nonzero" fill="#BF616A"/>
    <g stroke="#4A4A4A" stroke-width="4">
      <path stroke-linecap="round" d="M42 46V26h20v20zm120 360v-20h20v20h-20zm20 20v-20h20v20h-20zm20 0v-20h20v20h-20zm0 40v-20h20v20h-20zm-20-20v-20h20v20h-20zm0 40v-20h20v20h-20zm-80 0v-20h20v20h-20zm20-20v-20h20v20h-20zm0-20v-20h20v20h-20zm-60 0v-20h20v20zm140-120v-20h20v20h-20zm-40 0v-20h20v20h-20zm20 20v-20h20v20h-20zm20 0v-20h20v20h-20zm0 20v-20h20v20h-20zm20 0v-20h20v20h-20zm0-20v-20h20v20h-20zm20 0v-20h20v20h-20zm0-40v-20h20v20h-20zm-20 20v-20h20v20h-20zm60 20v-20h20v20h-20zm0 40v-20h20v20h-20zm-20 20v-20h20v20h-20zm0-40v-20h20v20h-20zM2 86V66h20v20H2zm20 20V86h20v20H22zm20 0V86h20v20H42zm40 40v-20h20v20H82zm-20 20v-20h20v20H62zm-20 0v-20h20v20H42zm-40 0v-20h20v20H2zm20 20v-20h20v20H22zm40 0v-20h20v20H62zm60 0v-20h20v20h-20zm20 0v-20h20v20h-20zm20 0v-20h20v20h-20zm0-40v-20h20v20h-20zm-20 20v-20h20v20h-20zm-20 40v-20h20v20h-20zm20 0v-20h20v20h-20zm20 0v-20h20v20h-20zm20 0v-20h20v20h-20zm20 0v-20h20v20h-20zm0-20v-20h20v20h-20zm0 40v-20h20v20h-20zm-20 0v-20h20v20h-20zm-20 0v-20h20v20h-20zm-20 0v-20h20v20h-20zm-20 20v-20h20v20h-20zm20 0v-20h20v20h-20zm20 0v-20h20v20h-20zm20 0v-20h20v20h-20zm0 20v-20h20v20h-20zm20 0v-20h20v20h-20zm-60 0v-20h20v20h-20zm-40 0v-20h20v20h-20zm-20-20v-20h20v20H82zm140-40v-20h20v20h-20zm0-20v-20h20v20h-20zm20 0v-20h20v20h-20zm0-40v-20h20v20h-20zm-20 20v-20h20v20h-20zm60 20v-20h20v20h-20zm0 40v-20h20v20h-20zm-20 20v-20h20v20h-20zm0-40v-20h20v20h-20zm-40 160v20h-20v20m0-140v20h20v20m-80 140h20v-20h20m-60-240h-20v-20H82m-40-60v20h20v20"/>
      <path d="M42 86V66h20V46h20V26h20v20h20v20h-22"/>
      <path stroke-linecap="round" d="M122 446h-20v-20H82"/>
      <path d="M102 388v-22H82v20H62v20h20v20"/>
    </g>
  </g>
</svg>
